<?xml version="1.0" standalone="no"?><!DOCTYPE svg PUBLIC "-//W3C//DTD SVG 1.1//EN" "http://www.w3.org/Graphics/SVG/1.1/DTD/svg11.dtd" ><svg version="1.1" xmlns="http://www.w3.org/2000/svg"><defs><font horiz-adv-x="0" id="font"><font-face ascent="750" bbox="-205.0206 -293 2853 1111" cap-height="690" descent="-250" font-family="KazimirText RBC" font-stretch="normal" font-style="italic" font-weight="800" units-per-em="1000" x-height="500" /><missing-glyph d="M90 650H753V0H90ZM110 20H733V630H110ZM422 316 303 197 280 220 399 338 283 454 305 476 421 360 540 479 562 457 444 338 564 218 542 196Z" horiz-adv-x="828" /><glyph glyph-name=".null" horiz-adv-x="0" /><glyph d="M309 557 199 280H351ZM156 0H-29L-18 88H30L270 690H501L593 88H639L628 0H317L327 88H380L363 200H167L123 88H167Z" glyph-name="A" horiz-adv-x="664" unicode="A" /><glyph d="M309 533 204 280H349ZM-29 0 -19 88H31L245 602H173L184 690H585L574 602H510L591 88H639L628 0H317L328 88H379L361 200H170L124 88H167L156 0Z" glyph-name="A.alt" horiz-adv-x="665" /><glyph d="M265 420 181 230H299ZM-27 0 -18 83H27L198 467H138L148 550H525L515 467H463L533 83H576L566 0H275L285 83H326L313 155H147L115 83H147L137 0Z" glyph-name="A.alt.sc" horiz-adv-x="604" /><glyph d="M262 438 174 230H301ZM136 0H-28L-19 83H22L221 550H451L535 83H574L565 0H274L283 83H328L315 155H142L111 83H146Z" glyph-name="A.sc" horiz-adv-x="600" /><glyph d="M418 602 234 280H390L429 602ZM161 0H-40L-29 88H28L321 602H252L263 690H942L914 461H813L816 490Q819 522 816.5 543.5Q814 565 803 578Q792 591 770.5 596.5Q749 602 716 602H641L615 390L773 404L759 293L605 307L578 88H653Q686 88 710 94Q734 100 750 114Q766 128 775.5 151Q785 174 789 208L792 234H894L865 0H295L306 88H366L380 200H190L125 88H171Z" glyph-name="AE" horiz-adv-x="940" unicode="&#198;" /><glyph d="M317 548 203 280H355ZM-30 0 -20 88H30L246 602H177L189 690H910L882 461H780L783 490Q787 523 784.5 544.5Q782 566 771 578.5Q760 591 738.5 596.5Q717 602 683 602H520L550 390H661L670 463H740L712 234H642L651 306H562L593 88H621Q655 88 678.5 94Q702 100 718 114Q734 128 743 151Q752 174 756 208L760 234H862L833 0H320L331 88H383L367 200H170L122 88H165L155 0Z" glyph-name="AE.alt" horiz-adv-x="908" /><glyph d="M266 424 180 230H301ZM-28 0 -18 83H27L199 467H139L150 550H815L792 359H694L698 385Q706 433 688.5 450Q671 467 614 467H467L493 316H590L597 372H662L639 182H574L581 237H507L534 83H570Q598 83 617 87Q636 91 648 101Q660 111 667 128Q674 145 677 172L681 195H779L755 0H276L286 83H328L315 155H146L114 83H147L137 0Z" glyph-name="AE.alt.sc" horiz-adv-x="826" /><glyph d="M215 230H345L374 467H367ZM148 0H-33L-23 83H28L275 467H212L222 550H847L823 359H725L728 385Q733 432 717 449.5Q701 467 644 467H581L562 316L696 329L684 225L553 238L534 83H592Q649 83 675 100.5Q701 118 708 169L712 195H810L786 0H266L276 83H327L336 155H167L120 83H158Z" glyph-name="AE.sc" horiz-adv-x="857" /><glyph d="M383 740H313L382 815Q394 828 407 841Q420 854 435 864.5Q450 875 468.5 882Q487 889 511 889Q540 889 555 877Q570 865 570 845Q570 821 552 802.5Q534 784 492 773ZM309 557 199 280H351ZM156 0H-29L-18 88H30L270 690H501L593 88H639L628 0H317L327 88H380L363 200H167L123 88H167Z" glyph-name="Aacute" horiz-adv-x="664" unicode="&#193;" /><glyph d="M390 740H320L389 815Q401 828 414 841Q427 854 442 864.5Q457 875 475.5 882Q494 889 518 889Q547 889 562 877Q577 865 577 845Q577 821 559 802.5Q541 784 499 773ZM309 533 204 280H349ZM-29 0 -19 88H31L245 602H173L184 690H585L574 602H510L591 88H639L628 0H317L328 88H379L361 200H170L124 88H167L156 0Z" glyph-name="Aacute.alt" horiz-adv-x="665" /><glyph d="M340 584H274L334 638Q345 648 357 660Q369 672 383.5 682Q398 692 416 698.5Q434 705 457 705Q484 705 498 695.5Q512 686 512 669Q512 646 494.5 629.5Q477 613 438 605ZM265 420 181 230H299ZM-27 0 -18 83H27L198 467H138L148 550H525L515 467H463L533 83H576L566 0H275L285 83H326L313 155H147L115 83H147L137 0Z" glyph-name="Aacute.alt.sc" horiz-adv-x="604" /><glyph d="M330 592H265L325 646Q336 656 348 668Q360 680 374 690Q388 700 406 706.5Q424 713 447 713Q502 713 502 676Q503 653 485.5 637Q468 621 429 612ZM262 438 174 230H301ZM136 0H-28L-19 83H22L221 550H451L535 83H574L565 0H274L283 83H328L315 155H142L111 83H146Z" glyph-name="Aacute.sc" horiz-adv-x="600" /><glyph d="M309 557 199 280H351ZM156 0H-29L-18 88H30L270 690H501L593 88H639L628 0H317L327 88H380L363 200H167L123 88H167ZM390 791 304 740H204L354 875H452L564 740H464Z" glyph-name="Acircumflex" horiz-adv-x="664" unicode="&#194;" /><glyph d="M389 791 303 740H203L353 875H451L563 740H463ZM309 533 204 280H349ZM-29 0 -19 88H31L245 602H173L184 690H585L574 602H510L591 88H639L628 0H317L328 88H379L361 200H170L124 88H167L156 0Z" glyph-name="Acircumflex.alt" horiz-adv-x="665" /><glyph d="M339 626 268 587H169L302 695H399L500 587H401ZM265 420 181 230H299ZM-27 0 -18 83H27L198 467H138L148 550H525L515 467H463L533 83H576L566 0H275L285 83H326L313 155H147L115 83H147L137 0Z" glyph-name="Acircumflex.alt.sc" horiz-adv-x="604" /><glyph d="M338 634 267 594H168L301 703H398L499 594H400ZM262 438 174 230H301ZM136 0H-28L-19 83H22L221 550H451L535 83H574L565 0H274L283 83H328L315 155H142L111 83H146Z" glyph-name="Acircumflex.sc" horiz-adv-x="600" /><glyph d="M309 557 199 280H351ZM156 0H-29L-18 88H30L270 690H501L593 88H639L628 0H317L327 88H380L363 200H167L123 88H167ZM580 829Q580 793 555 768.5Q530 744 492 744Q460 744 440.5 763.5Q421 783 421 812Q421 848 445.5 872.5Q470 897 508 897Q542 897 561 877.5Q580 858 580 829ZM369 829Q369 794 344 769Q319 744 281 744Q248 744 229 763.5Q210 783 210 812Q210 848 234.5 872.5Q259 897 297 897Q330 897 349.5 877.5Q369 858 369 829Z" glyph-name="Adieresis" horiz-adv-x="664" unicode="&#196;" /><glyph d="M309 533 204 280H349ZM-29 0 -19 88H31L245 602H173L184 690H585L574 602H510L591 88H639L628 0H317L328 88H379L361 200H170L124 88H167L156 0ZM579 830Q579 794 554 769.5Q529 745 491 745Q459 745 439.5 764.5Q420 784 420 813Q420 849 444.5 873.5Q469 898 507 898Q541 898 560 878.5Q579 859 579 830ZM368 830Q368 795 343 770Q318 745 280 745Q247 745 228 764.5Q209 784 209 813Q209 849 233.5 873.5Q258 898 296 898Q329 898 348.5 878.5Q368 859 368 830Z" glyph-name="Adieresis.alt" horiz-adv-x="665" /><glyph d="M517 665Q517 630 493.5 609Q470 588 433 588Q402 588 384 603.5Q366 619 366 647Q365 681 389 702.5Q413 724 449 724Q480 724 498.5 708Q517 692 517 665ZM324 665Q324 630 300 609Q276 588 240 588Q209 588 191 603.5Q173 619 172 647Q172 681 195.5 702.5Q219 724 256 724Q287 724 305.5 708Q324 692 324 665ZM265 420 181 230H299ZM-27 0 -18 83H27L198 467H138L148 550H525L515 467H463L533 83H576L566 0H275L285 83H326L313 155H147L115 83H147L137 0Z" glyph-name="Adieresis.alt.sc" horiz-adv-x="604" /><glyph d="M516 679Q516 644 492.5 623Q469 602 432 602Q402 602 383 618Q364 634 364 661Q364 695 388 716Q412 737 447 737Q479 737 497.5 721Q516 705 516 679ZM323 679Q323 644 299.5 623Q276 602 239 602Q208 602 189.5 618Q171 634 171 661Q171 695 195 716Q219 737 254 737Q285 737 304 721Q323 705 323 679ZM262 438 174 230H301ZM136 0H-28L-19 83H22L221 550H451L535 83H574L565 0H274L283 83H328L315 155H142L111 83H146Z" glyph-name="Adieresis.sc" horiz-adv-x="600" /><glyph d="M309 557 199 280H351ZM156 0H-29L-18 88H30L270 690H501L593 88H639L628 0H317L327 88H380L363 200H167L123 88H167ZM269 773Q234 783 216.5 801.5Q199 820 199 841Q199 861 215.5 875Q232 889 264 889Q287 889 304.5 882.5Q322 876 335.5 865.5Q349 855 360.5 841.5Q372 828 383 815L446 740H376Z" glyph-name="Agrave" horiz-adv-x="664" unicode="&#192;" /><glyph d="M276 773Q241 783 223.5 801.5Q206 820 206 841Q206 861 222.5 875Q239 889 271 889Q294 889 311.5 882.5Q329 876 342.5 865.5Q356 855 367.5 841.5Q379 828 390 815L453 740H383ZM309 533 204 280H349ZM-29 0 -19 88H31L245 602H173L184 690H585L574 602H510L591 88H639L628 0H317L328 88H379L361 200H170L124 88H167L156 0Z" glyph-name="Agrave.alt" horiz-adv-x="665" /><glyph d="M240 605Q208 612 190.5 628Q173 644 173 664Q173 681 188 693Q203 705 234 705Q257 705 273.5 698.5Q290 692 303.5 682Q317 672 327.5 660.5Q338 649 348 638L404 584H338ZM265 420 181 230H299ZM-27 0 -18 83H27L198 467H138L148 550H525L515 467H463L533 83H576L566 0H275L285 83H326L313 155H147L115 83H147L137 0Z" glyph-name="Agrave.alt.sc" horiz-adv-x="604" /><glyph d="M231 612Q199 620 181.5 636Q164 652 164 671Q164 688 179 700.5Q194 713 225 713Q248 713 264.5 706.5Q281 700 294.5 690Q308 680 318.5 668.5Q329 657 339 646L395 592H329ZM262 438 174 230H301ZM136 0H-28L-19 83H22L221 550H451L535 83H574L565 0H274L283 83H328L315 155H142L111 83H146Z" glyph-name="Agrave.sc" horiz-adv-x="600" /><glyph d="M309 557 199 280H351ZM156 0H-29L-18 88H30L270 690H501L593 88H639L628 0H317L327 88H380L363 200H167L123 88H167ZM381 727Q333 727 307 752.5Q281 778 281 816Q281 864 314.5 895.5Q348 927 406 927Q453 927 479 901.5Q505 876 505 838Q505 790 472 758.5Q439 727 381 727ZM397 859Q378 859 368 848.5Q358 838 358 824Q358 812 366.5 803.5Q375 795 390 795Q408 795 418.5 805.5Q429 816 429 831Q429 843 420.5 851Q412 859 397 859Z" glyph-name="Aring" horiz-adv-x="664" unicode="&#197;" /><glyph d="M309 533 204 280H349ZM-29 0 -19 88H31L245 602H173L184 690H585L574 602H510L591 88H639L628 0H317L328 88H379L361 200H170L124 88H167L156 0ZM387 735Q339 735 313 760.5Q287 786 287 824Q287 872 320.5 903.5Q354 935 412 935Q459 935 485 909.5Q511 884 511 846Q511 798 478 766.5Q445 735 387 735ZM403 867Q384 867 374 856.5Q364 846 364 832Q364 820 372.5 811.5Q381 803 396 803Q414 803 424.5 813.5Q435 824 435 839Q435 851 426.5 859Q418 867 403 867Z" glyph-name="Aring.alt" horiz-adv-x="665" /><glyph d="M338 572Q293 572 269.5 593.5Q246 615 245 648Q245 690 275 716Q305 742 359 742Q404 742 428 720Q452 698 452 665Q453 623 422.5 597.5Q392 572 338 572ZM351 680Q334 680 325.5 672.5Q317 665 317 654Q317 646 324.5 639.5Q332 633 346 633Q363 633 371.5 640.5Q380 648 380 659Q380 667 372.5 673.5Q365 680 351 680ZM265 420 181 230H299ZM-27 0 -18 83H27L198 467H138L148 550H525L515 467H463L533 83H576L566 0H275L285 83H326L313 155H147L115 83H147L137 0Z" glyph-name="Aring.alt.sc" horiz-adv-x="604" /><glyph d="M330 583Q285 583 261 604.5Q237 626 236 659Q236 701 266.5 727Q297 753 351 753Q395 753 419 731.5Q443 710 444 677Q444 635 414 609Q384 583 330 583ZM343 692Q326 692 317.5 684.5Q309 677 309 666Q309 658 316.5 651.5Q324 645 338 645Q355 645 363.5 652Q372 659 372 670Q372 679 364.5 685.5Q357 692 343 692ZM262 438 174 230H301ZM136 0H-28L-19 83H22L221 550H451L535 83H574L565 0H274L283 83H328L315 155H142L111 83H146Z" glyph-name="Aring.sc" horiz-adv-x="600" /><glyph d="M309 557 199 280H351ZM156 0H-29L-18 88H30L270 690H501L593 88H639L628 0H317L327 88H380L363 200H167L123 88H167ZM459 748Q439 748 422 754Q405 760 391 767Q377 774 364 780Q351 786 339 786Q320 786 309 775Q298 764 296 747H238Q255 884 349 884Q371 884 388 878Q405 872 419 865Q433 858 445.5 852Q458 846 471 846Q490 846 500 856.5Q510 867 513 884H571Q567 850 560 824.5Q553 799 540.5 782Q528 765 508.5 756.5Q489 748 459 748Z" glyph-name="Atilde" horiz-adv-x="664" unicode="&#195;" /><glyph d="M444 748Q424 748 407 754Q390 760 376 767Q362 774 349 780Q336 786 324 786Q305 786 294 775Q283 764 281 747H223Q240 884 334 884Q356 884 373 878Q390 872 404 865Q418 858 430.5 852Q443 846 456 846Q475 846 485 856.5Q495 867 498 884H556Q552 850 545 824.5Q538 799 525.5 782Q513 765 493.5 756.5Q474 748 444 748ZM309 533 204 280H349ZM-29 0 -19 88H31L245 602H173L184 690H585L574 602H510L591 88H639L628 0H317L328 88H379L361 200H170L124 88H167L156 0Z" glyph-name="Atilde.alt" horiz-adv-x="665" /><glyph d="M389 597Q371 597 356 601Q341 605 328 610Q315 615 304 619Q293 623 282 623Q265 623 256 615.5Q247 608 245 596H189Q204 713 290 713Q309 713 324 709Q339 705 352 699.5Q365 694 376 690Q387 686 399 686Q416 686 424.5 693.5Q433 701 435 713H490Q483 654 463 625.5Q443 597 389 597ZM265 420 181 230H299ZM-27 0 -18 83H27L198 467H138L148 550H525L515 467H463L533 83H576L566 0H275L285 83H326L313 155H147L115 83H147L137 0Z" glyph-name="Atilde.alt.sc" horiz-adv-x="604" /><glyph d="M401 598Q384 598 369 602Q354 606 341 611.5Q328 617 316.5 621Q305 625 294 625Q277 625 268 617.5Q259 610 258 598H201Q216 714 302 714Q322 714 337 710Q352 706 365 701Q378 696 389 692Q400 688 412 688Q429 688 437 695.5Q445 703 447 714H503Q496 656 476 627Q456 598 401 598ZM262 438 174 230H301ZM136 0H-28L-19 83H22L221 550H451L535 83H574L565 0H274L283 83H328L315 155H142L111 83H146Z" glyph-name="Atilde.sc" horiz-adv-x="600" /><glyph d="M23 88H84L146 602H86L97 690H459Q510 690 553.5 680.5Q597 671 629.5 652.5Q662 634 680.5 606Q699 578 699 540Q699 468 645.5 418.5Q592 369 489 360Q530 355 566.5 344Q603 333 630 315Q657 297 672.5 270.5Q688 244 688 209Q688 112 609.5 56Q531 0 382 0H12ZM359 606 333 393H362Q389 393 412 403Q435 413 451 429.5Q467 446 476 468Q485 490 485 514Q485 564 456.5 585Q428 606 387 606ZM324 314 296 84H323Q354 84 381 92Q408 100 428.5 116.5Q449 133 460.5 157.5Q472 182 472 216Q472 269 437 291.5Q402 314 351 314Z" glyph-name="B" horiz-adv-x="725" unicode="B" /><glyph d="M18 83H69L116 467H65L76 550H415Q460 550 500 542.5Q540 535 569.5 520Q599 505 616.5 481Q634 457 634 424Q634 399 622 375Q610 351 585.5 332.5Q561 314 525 302Q489 290 441 287Q524 281 575 252.5Q626 224 626 166Q626 91 556.5 45.5Q487 0 353 0H8ZM324 472 305 319H331Q369 319 396.5 342.5Q424 366 424 405Q424 440 403 456Q382 472 348 472ZM296 244 276 78H302Q348 78 381.5 99.5Q415 121 415 170Q415 214 388 229Q361 244 323 244Z" glyph-name="B.sc" horiz-adv-x="662" /><glyph d="M474 -10 449 34Q421 12 387.5 1Q354 -10 309 -10Q243 -10 192.5 12Q142 34 108.5 73Q75 112 57.5 166Q40 220 40 285Q40 371 64.5 446.5Q89 522 134.5 578.5Q180 635 243.5 667.5Q307 700 385 700Q436 700 469.5 687Q503 674 520 656L556 699H648L617 449H515Q516 454 516 460Q516 466 516 472Q516 532 494.5 569.5Q473 607 421 607Q383 607 352 577Q321 547 299.5 497Q278 447 266 382.5Q254 318 254 249Q254 161 281.5 122Q309 83 357 83Q387 83 410 97Q433 111 449.5 133.5Q466 156 477 185.5Q488 215 494 246H596L565 -10Z" glyph-name="C" horiz-adv-x="641" unicode="C" /><glyph d="M416 -8 391 32Q366 14 335.5 3Q305 -8 258 -8Q205 -8 162 8.5Q119 25 89 55.5Q59 86 42.5 129Q26 172 26 224Q26 296 48 357Q70 418 109.5 462.5Q149 507 205.5 532.5Q262 558 331 558Q376 558 404.5 547Q433 536 447 521L481 557H570L545 351H447Q447 354 448 357Q448 364 448 368Q447 413 430 442Q413 471 368 471Q337 471 312 447Q287 423 270 383Q253 343 244 293Q235 243 235 190Q235 131 258.5 105Q282 79 320 79Q345 79 364 90Q383 101 396.5 118.5Q410 136 418.5 158Q427 180 431 203H530L504 -8Z" glyph-name="C.sc" horiz-adv-x="574" /><glyph d="M295 -213Q269 -213 236 -209.5Q203 -206 184 -195L193 -124Q210 -140 243 -140Q260 -140 271 -132Q282 -124 282 -112Q282 -95 266.5 -88.5Q251 -82 225 -82L227 -65L254 -6Q202 3 162 27.5Q122 52 95 90Q68 128 54 177.5Q40 227 40 285Q40 371 64.5 446.5Q89 522 134.5 578.5Q180 635 243.5 667.5Q307 700 385 700Q436 700 469.5 687Q503 674 520 656L556 699H648L617 449H515Q516 454 516 460Q516 466 516 472Q516 532 494.5 569.5Q473 607 421 607Q383 607 352 577Q321 547 299.5 497Q278 447 266 382.5Q254 318 254 249Q254 161 281.5 122Q309 83 357 83Q387 83 410 97Q433 111 449.5 133.5Q466 156 477 185.5Q488 215 494 246H596L565 -10H474L449 34Q411 3 357 -6L341 -40Q379 -46 403 -63.5Q427 -81 427 -115Q427 -157 391 -185Q355 -213 295 -213Z" glyph-name="Ccedilla" horiz-adv-x="641" unicode="&#199;" /><glyph d="M265 -175Q242 -175 210 -172.5Q178 -170 160 -160L168 -95Q182 -108 212 -108Q226 -108 235.5 -102Q245 -96 244 -87Q244 -74 231 -69.5Q218 -65 195 -65L197 -52L220 -6Q130 5 78 66.5Q26 128 26 224Q26 296 48 357Q70 418 109.5 462.5Q149 507 205.5 532.5Q262 558 331 558Q376 558 404.5 547Q433 536 447 521L481 557H570L545 351H447Q447 354 448 357Q448 364 448 368Q447 413 430 442Q413 471 368 471Q337 471 312 447Q287 423 270 383Q253 343 244 293Q235 243 235 190Q235 131 258.5 105Q282 79 320 79Q345 79 364 90Q383 101 396.5 118.5Q410 136 418.5 158Q427 180 431 203H530L504 -8H416L391 32Q376 21 359.5 12.5Q343 4 323 -1L307 -32Q340 -37 362 -51Q384 -65 385 -93Q385 -129 352.5 -152Q320 -175 265 -175Z" glyph-name="Ccedilla.sc" horiz-adv-x="574" /><glyph d="M12 0 23 88H84L146 602H86L97 690H404Q493 690 556 666.5Q619 643 658.5 603Q698 563 716.5 511.5Q735 460 735 403Q735 327 710 254Q685 181 634 125Q583 69 505 34.5Q427 0 320 0ZM296 88H337Q377 88 410.5 115Q444 142 468 187.5Q492 233 505.5 293Q519 353 519 418Q519 468 509 502.5Q499 537 482.5 559.5Q466 582 444 592Q422 602 397 602H358Z" glyph-name="D" horiz-adv-x="753" unicode="D" /><glyph d="M8 0 18 83H69L116 467H65L76 550H358Q439 550 496.5 532Q554 514 590.5 482.5Q627 451 644 409.5Q661 368 661 321Q661 265 640.5 208Q620 151 575 104.5Q530 58 459.5 29Q389 0 289 0ZM276 83H309Q341 83 367 104.5Q393 126 412 161.5Q431 197 441 242Q451 287 451 335Q451 406 421.5 436.5Q392 467 354 467H323Z" glyph-name="D.sc" horiz-adv-x="681" /><glyph d="M23 88H84L146 602H86L97 690H660L632 461H530L533 490Q537 522 534.5 543.5Q532 565 521 578Q510 591 488.5 596.5Q467 602 433 602H358L332 390L491 404L477 293L323 307L296 88H371Q438 88 468 114Q498 140 506 208L510 234H612L583 0H12Z" glyph-name="E" horiz-adv-x="658" unicode="E" /><glyph d="M12 0 23 88H84L146 602H86L97 690H660L632 461H530L533 490Q537 522 534.5 543.5Q532 565 521 578Q510 591 488.5 596.5Q467 602 433 602H358L332 390H411L420 463H490L462 234H391L400 306H323L296 88H371Q438 88 468 114Q498 140 506 208L510 234H612L583 0Z" glyph-name="E.alt" horiz-adv-x="658" /><glyph d="M8 0 18 83H69L116 467H65L76 550H589L565 359H467L470 385Q476 429 459.5 448Q443 467 386 467H323L305 316H364L371 372H436L412 182H347L354 237H295L276 83H344Q371 83 390 87Q409 91 421 101.5Q433 112 440 129Q447 146 451 172L454 195H552L528 0Z" glyph-name="E.alt.sc" horiz-adv-x="599" /><glyph d="M18 83H69L116 467H65L76 550H589L565 359H467L470 385Q475 431 459 449Q443 467 386 467H323L305 316L438 329L426 225L295 238L276 83H334Q391 83 417.5 101Q444 119 451 171L454 195H552L528 0H8Z" glyph-name="E.sc" horiz-adv-x="599" /><glyph d="M23 88H84L146 602H86L97 690H660L632 461H530L533 490Q537 522 534.5 543.5Q532 565 521 578Q510 591 488.5 596.5Q467 602 433 602H358L332 390L491 404L477 293L323 307L296 88H371Q438 88 468 114Q498 140 506 208L510 234H612L583 0H12ZM395 740H325L394 815Q406 828 419 841Q432 854 447 864.5Q462 875 480.5 882Q499 889 523 889Q552 889 567 877Q582 865 582 845Q582 821 564 802.5Q546 784 504 773Z" glyph-name="Eacute" horiz-adv-x="658" unicode="&#201;" /><glyph d="M398 740H328L397 815Q409 828 422 841Q435 854 450 864.5Q465 875 483.5 882Q502 889 526 889Q555 889 570 877Q585 865 585 845Q585 821 567 802.5Q549 784 507 773ZM12 0 23 88H84L146 602H86L97 690H660L632 461H530L533 490Q537 522 534.5 543.5Q532 565 521 578Q510 591 488.5 596.5Q467 602 433 602H358L332 390H411L420 463H490L462 234H391L400 306H323L296 88H371Q438 88 468 114Q498 140 506 208L510 234H612L583 0Z" glyph-name="Eacute.alt" horiz-adv-x="658" /><glyph d="M347 584H281L341 638Q352 648 364 660Q376 672 390.5 682Q405 692 423 698.5Q441 705 464 705Q492 705 505.5 695.5Q519 686 520 669Q520 621 446 605ZM8 0 18 83H69L116 467H65L76 550H589L565 359H467L470 385Q476 429 459.5 448Q443 467 386 467H323L305 316H364L371 372H436L412 182H347L354 237H295L276 83H344Q371 83 390 87Q409 91 421 101.5Q433 112 440 129Q447 146 451 172L454 195H552L528 0Z" glyph-name="Eacute.alt.sc" horiz-adv-x="599" /><glyph d="M347 592H280L340 646Q351 656 363 668Q375 680 389.5 690Q404 700 422 706.5Q440 713 463 713Q517 713 519 676Q519 629 445 612ZM18 83H69L116 467H65L76 550H589L565 359H467L470 385Q475 431 459 449Q443 467 386 467H323L305 316L438 329L426 225L295 238L276 83H334Q391 83 417.5 101Q444 119 451 171L454 195H552L528 0H8Z" glyph-name="Eacute.sc" horiz-adv-x="599" /><glyph d="M23 88H84L146 602H86L97 690H660L632 461H530L533 490Q537 522 534.5 543.5Q532 565 521 578Q510 591 488.5 596.5Q467 602 433 602H358L332 390L491 404L477 293L323 307L296 88H371Q438 88 468 114Q498 140 506 208L510 234H612L583 0H12ZM404 791 318 740H218L368 875H466L578 740H478Z" glyph-name="Ecircumflex" horiz-adv-x="658" unicode="&#202;" /><glyph d="M404 791 318 740H218L368 875H466L578 740H478ZM12 0 23 88H84L146 602H86L97 690H660L632 461H530L533 490Q537 522 534.5 543.5Q532 565 521 578Q510 591 488.5 596.5Q467 602 433 602H358L332 390H411L420 463H490L462 234H391L400 306H323L296 88H371Q438 88 468 114Q498 140 506 208L510 234H612L583 0Z" glyph-name="Ecircumflex.alt" horiz-adv-x="658" /><glyph d="M353 626 282 587H183L316 695H413L514 587H415ZM8 0 18 83H69L116 467H65L76 550H589L565 359H467L470 385Q476 429 459.5 448Q443 467 386 467H323L305 316H364L371 372H436L412 182H347L354 237H295L276 83H344Q371 83 390 87Q409 91 421 101.5Q433 112 440 129Q447 146 451 172L454 195H552L528 0Z" glyph-name="Ecircumflex.alt.sc" horiz-adv-x="599" /><glyph d="M352 634 280 594H182L314 703H411L512 594H414ZM18 83H69L116 467H65L76 550H589L565 359H467L470 385Q475 431 459 449Q443 467 386 467H323L305 316L438 329L426 225L295 238L276 83H334Q391 83 417.5 101Q444 119 451 171L454 195H552L528 0H8Z" glyph-name="Ecircumflex.sc" horiz-adv-x="599" /><glyph d="M23 88H84L146 602H86L97 690H660L632 461H530L533 490Q537 522 534.5 543.5Q532 565 521 578Q510 591 488.5 596.5Q467 602 433 602H358L332 390L491 404L477 293L323 307L296 88H371Q438 88 468 114Q498 140 506 208L510 234H612L583 0H12ZM583 829Q583 793 558 768.5Q533 744 495 744Q463 744 443.5 763.5Q424 783 424 812Q424 848 448.5 872.5Q473 897 511 897Q545 897 564 877.5Q583 858 583 829ZM372 829Q372 794 347 769Q322 744 284 744Q251 744 232 763.5Q213 783 213 812Q213 848 237.5 872.5Q262 897 300 897Q333 897 352.5 877.5Q372 858 372 829Z" glyph-name="Edieresis" horiz-adv-x="658" unicode="&#203;" /><glyph d="M588 829Q588 793 563 768.5Q538 744 500 744Q468 744 448.5 763.5Q429 783 429 812Q429 848 453.5 872.5Q478 897 516 897Q550 897 569 877.5Q588 858 588 829ZM377 829Q377 794 352 769Q327 744 289 744Q256 744 237 763.5Q218 783 218 812Q218 848 242.5 872.5Q267 897 305 897Q338 897 357.5 877.5Q377 858 377 829ZM12 0 23 88H84L146 602H86L97 690H660L632 461H530L533 490Q537 522 534.5 543.5Q532 565 521 578Q510 591 488.5 596.5Q467 602 433 602H358L332 390H411L420 463H490L462 234H391L400 306H323L296 88H371Q438 88 468 114Q498 140 506 208L510 234H612L583 0Z" glyph-name="Edieresis.alt" horiz-adv-x="658" /><glyph d="M526 667Q526 632 502 611Q478 590 442 590Q411 590 392.5 606Q374 622 374 649Q374 683 397.5 704.5Q421 726 457 726Q489 726 507.5 710Q526 694 526 667ZM333 667Q333 632 309 611Q285 590 248 590Q218 590 199.5 606Q181 622 181 649Q181 683 204.5 704.5Q228 726 264 726Q295 726 314 710Q333 694 333 667ZM8 0 18 83H69L116 467H65L76 550H589L565 359H467L470 385Q476 429 459.5 448Q443 467 386 467H323L305 316H364L371 372H436L412 182H347L354 237H295L276 83H344Q371 83 390 87Q409 91 421 101.5Q433 112 440 129Q447 146 451 172L454 195H552L528 0Z" glyph-name="Edieresis.alt.sc" horiz-adv-x="599" /><glyph d="M521 679Q521 644 497 623Q473 602 437 602Q406 602 387.5 618Q369 634 369 661Q369 695 393 716Q417 737 452 737Q484 737 502.5 721Q521 705 521 679ZM328 679Q328 644 304 623Q280 602 244 602Q213 602 194.5 618Q176 634 176 661Q176 695 199.5 716Q223 737 259 737Q290 737 308.5 721Q327 705 328 679ZM18 83H69L116 467H65L76 550H589L565 359H467L470 385Q475 431 459 449Q443 467 386 467H323L305 316L438 329L426 225L295 238L276 83H334Q391 83 417.5 101Q444 119 451 171L454 195H552L528 0H8Z" glyph-name="Edieresis.sc" horiz-adv-x="599" /><glyph d="M23 88H84L146 602H86L97 690H660L632 461H530L533 490Q537 522 534.5 543.5Q532 565 521 578Q510 591 488.5 596.5Q467 602 433 602H358L332 390L491 404L477 293L323 307L296 88H371Q438 88 468 114Q498 140 506 208L510 234H612L583 0H12ZM302 773Q267 783 249.5 801.5Q232 820 232 841Q232 861 248.5 875Q265 889 297 889Q320 889 337.5 882.5Q355 876 368.5 865.5Q382 855 393.5 841.5Q405 828 416 815L479 740H409Z" glyph-name="Egrave" horiz-adv-x="658" unicode="&#200;" /><glyph d="M12 0 23 88H84L146 602H86L97 690H660L632 461H530L533 490Q537 522 534.5 543.5Q532 565 521 578Q510 591 488.5 596.5Q467 602 433 602H358L332 390H411L420 463H490L462 234H391L400 306H323L296 88H371Q438 88 468 114Q498 140 506 208L510 234H612L583 0ZM300 773Q265 783 247.5 801.5Q230 820 230 841Q230 861 246.5 875Q263 889 295 889Q318 889 335.5 882.5Q353 876 366.5 865.5Q380 855 391.5 841.5Q403 828 414 815L477 740H407Z" glyph-name="Egrave.alt" horiz-adv-x="658" /><glyph d="M261 605Q229 612 211 628Q193 644 193 664Q193 681 208 693Q223 705 255 705Q278 705 294.5 698.5Q311 692 324.5 682Q338 672 348.5 660.5Q359 649 369 638L425 584H358ZM8 0 18 83H69L116 467H65L76 550H589L565 359H467L470 385Q476 429 459.5 448Q443 467 386 467H323L305 316H364L371 372H436L412 182H347L354 237H295L276 83H344Q371 83 390 87Q409 91 421 101.5Q433 112 440 129Q447 146 451 172L454 195H552L528 0Z" glyph-name="Egrave.alt.sc" horiz-adv-x="599" /><glyph d="M263 612Q231 620 213 636Q195 652 195 671Q195 688 210.5 700.5Q226 713 256 713Q279 713 295.5 706.5Q312 700 325.5 690Q339 680 349.5 668.5Q360 657 370 646L426 592H360ZM18 83H69L116 467H65L76 550H589L565 359H467L470 385Q475 431 459 449Q443 467 386 467H323L305 316L438 329L426 225L295 238L276 83H334Q391 83 417.5 101Q444 119 451 171L454 195H552L528 0H8Z" glyph-name="Egrave.sc" horiz-adv-x="599" /><glyph d="M12 0 23 88H84L111 308H37L48 396H121L146 602H86L97 690H404Q493 690 556 666.5Q619 643 658.5 603Q698 563 716.5 511.5Q735 460 735 403Q735 327 710 254Q685 181 634 125Q583 69 505 34.5Q427 0 320 0ZM337 88Q377 88 410.5 115Q444 142 468 187.5Q492 233 505.5 293Q519 353 519 418Q519 468 509 502.5Q499 537 482.5 559.5Q466 582 444 592Q422 602 397 602H358L333 396H417L406 308H323L296 88Z" glyph-name="Eth" horiz-adv-x="752" unicode="&#208;" /><glyph d="M8 0 18 83H69L88 239H26L37 322H98L116 467H65L76 550H358Q439 550 496.5 532Q554 514 590.5 482.5Q627 451 644 409.5Q661 368 661 321Q661 265 640.5 208Q620 151 575 104.5Q530 58 459.5 29Q389 0 289 0ZM309 83Q341 83 367 104.5Q393 126 412 161.5Q431 197 441 242Q451 287 451 335Q451 406 421.5 436.5Q392 467 354 467H323L305 322H367L357 239H295L276 83Z" glyph-name="Eth.sc" horiz-adv-x="681" /><glyph d="M12 0 23 88H84L146 602H86L97 690H650L622 461H520L523 490Q528 523 525 544.5Q522 566 510.5 579Q499 592 477.5 597Q456 602 423 602H358L332 387L486 401L473 290L322 304L296 88H383L372 0Z" glyph-name="F" horiz-adv-x="616" unicode="F" /><glyph d="M12 0 23 88H84L146 602H86L97 690H650L622 461H520L523 490Q528 523 525 544.5Q522 566 510.5 579Q499 592 477.5 597Q456 602 423 602H358L332 387H410L420 463H490L462 234H391L400 303H322L296 88H383L372 0Z" glyph-name="F.alt" horiz-adv-x="616" /><glyph d="M8 0 18 83H69L116 467H65L76 550H580L557 359H458L461 384Q466 431 450 449Q434 467 376 467H323L305 312H363L371 372H436L412 182H347L354 234H294L276 83H349L339 0Z" glyph-name="F.alt.sc" horiz-adv-x="561" /><glyph d="M8 0 18 83H69L116 467H65L76 550H580L557 359H458L462 385Q468 430 451 448.5Q434 467 376 467H323L305 312L437 324L425 222L294 234L276 83H349L339 0Z" glyph-name="F.sc" horiz-adv-x="561" /><glyph d="M476 35Q454 18 417.5 4Q381 -10 327 -10Q253 -10 199 13.5Q145 37 110 77.5Q75 118 58 172.5Q41 227 41 288Q41 374 65.5 449.5Q90 525 135 580.5Q180 636 242.5 668Q305 700 381 700Q436 700 470 687Q504 674 522 657L559 699H650L619 447H517Q517 452 518 456Q518 460 518 464.5Q518 469 518 472Q518 536 494 571.5Q470 607 420 607Q375 607 344 572Q313 537 293 483.5Q273 430 264 368Q255 306 255 252Q255 161 285.5 122Q316 83 371 83Q384 83 397.5 85.5Q411 88 422 96L440 246H373L385 334H665L653 246H605L574 -10H507Z" glyph-name="G" horiz-adv-x="676" unicode="G" /><glyph d="M420 30Q401 16 367 4Q333 -8 282 -8Q220 -8 172.5 10.5Q125 29 92.5 61Q60 93 43 136Q26 179 26 227Q26 299 47.5 359.5Q69 420 108.5 464Q148 508 203.5 533Q259 558 326 558Q372 558 402.5 548Q433 538 450 524L481 557H570L545 353H447Q447 357 448 360Q448 369 448 373Q448 471 368 471Q329 471 303.5 442Q278 413 262.5 370Q247 327 241 279Q235 231 235 192Q235 128 260.5 103.5Q286 79 324 79Q340 79 351 81.5Q362 84 366 86L377 175H337L347 257H584L573 175H534L512 -8H448Z" glyph-name="G.sc" horiz-adv-x="603" /><glyph d="M23 88H84L146 602H86L97 690H423L411 602H358L333 396H518L543 602H491L502 690H827L816 602H755L692 88H753L742 0H417L428 88H480L508 308H323L296 88H348L338 0H12Z" glyph-name="H" horiz-adv-x="817" unicode="H" /><glyph d="M18 83H69L116 467H65L76 550H377L366 467H323L305 322H451L469 467H427L437 550H738L727 467H676L630 83H680L670 0H369L379 83H423L442 239H295L276 83H319L309 0H8Z" glyph-name="H.sc" horiz-adv-x="741" /><glyph d="M12 0 23 88H84L146 602H86L97 690H430L419 602H358L296 88H356L345 0Z" glyph-name="I" horiz-adv-x="420" unicode="I" /><glyph d="M8 0 18 83H69L116 467H65L76 550H385L374 467H323L276 83H327L317 0Z" glyph-name="I.sc" horiz-adv-x="387" /><glyph d="M261 740H191L260 815Q272 828 285 841Q298 854 313 864.5Q328 875 346.5 882Q365 889 389 889Q418 889 433 877Q448 865 448 845Q448 821 430 802.5Q412 784 370 773ZM12 0 23 88H84L146 602H86L97 690H430L419 602H358L296 88H356L345 0Z" glyph-name="Iacute" horiz-adv-x="420" unicode="&#205;" /><glyph d="M224 592H158L218 647Q229 657 241 668.5Q253 680 267.5 690Q282 700 300 706.5Q318 713 341 713Q396 713 396 676Q396 629 322 612ZM8 0 18 83H69L116 467H65L76 550H385L374 467H323L276 83H327L317 0Z" glyph-name="Iacute.sc" horiz-adv-x="387" /><glyph d="M257 740H187L256 815Q268 828 281 841Q294 854 309 864.5Q324 875 342.5 882Q361 889 385 889Q414 889 429 877Q444 865 444 845Q444 821 426 802.5Q408 784 366 773ZM777 740H707L776 815Q788 828 801 841Q814 854 829 864.5Q844 875 862.5 882Q881 889 905 889Q934 889 949 877Q964 865 964 845Q964 821 946 802.5Q928 784 886 773ZM12 0 23 88H84L146 602H86L97 690H430L419 602H358L296 88H356L345 0ZM847 226Q832 105 765 47.5Q698 -10 577 -10Q474 -10 423 32.5Q372 75 372 139Q372 159 378.5 177Q385 195 398 209Q411 223 431 231.5Q451 240 478 240Q515 240 537 219.5Q559 199 559 164Q559 137 545.5 115.5Q532 94 513 87Q518 82 530.5 78.5Q543 75 560 75Q594 75 607 97.5Q620 120 625 158L681 602H618L629 690H964L953 602H893Z" glyph-name="Iacute_Jacute" horiz-adv-x="941" /><glyph d="M700 584H633L693 638Q704 648 716 660Q728 672 742.5 682Q757 692 775 698.5Q793 705 816 705Q844 705 857.5 695.5Q871 686 871 669Q871 646 853.5 629.5Q836 613 798 605ZM224 584H158L218 638Q229 648 241 660Q253 672 267.5 682Q282 692 300 698.5Q318 705 341 705Q369 705 382.5 695.5Q396 686 396 669Q396 646 378.5 629.5Q361 613 322 605ZM8 0 18 83H69L116 467H65L76 550H385L374 467H323L276 83H327L317 0ZM779 186Q757 -8 531 -8Q446 -8 396 21Q346 50 346 107Q346 151 372.5 179Q399 207 445 207Q480 207 502 188Q524 169 524 137Q524 116 513 101Q502 86 491 78Q493 75 501.5 73Q510 71 521 71Q543 71 552 86Q561 101 565 130L607 467H555L565 550H875L865 467H814Z" glyph-name="Iacute_Jacute.sc" horiz-adv-x="865" /><glyph d="M270 791 184 740H84L234 875H332L444 740H344ZM12 0 23 88H84L146 602H86L97 690H430L419 602H358L296 88H356L345 0Z" glyph-name="Icircumflex" horiz-adv-x="420" unicode="&#206;" /><glyph d="M233 634 162 594H63L196 703H293L394 594H295ZM8 0 18 83H69L116 467H65L76 550H385L374 467H323L276 83H327L317 0Z" glyph-name="Icircumflex.sc" horiz-adv-x="387" /><glyph d="M463 829Q463 793 438 768.5Q413 744 375 744Q343 744 323.5 763.5Q304 783 304 812Q304 848 328.5 872.5Q353 897 391 897Q425 897 444 877.5Q463 858 463 829ZM252 829Q252 794 227 769Q202 744 164 744Q131 744 112 763.5Q93 783 93 812Q93 848 117.5 872.5Q142 897 180 897Q213 897 232.5 877.5Q252 858 252 829ZM12 0 23 88H84L146 602H86L97 690H430L419 602H358L296 88H356L345 0Z" glyph-name="Idieresis" horiz-adv-x="420" unicode="&#207;" /><glyph d="M416 678Q416 643 392.5 622Q369 601 332 601Q301 601 282.5 617Q264 633 264 661Q264 694 288 715.5Q312 737 347 737Q379 737 397.5 721Q416 705 416 678ZM223 678Q223 643 199 622Q175 601 139 601Q108 601 89.5 617Q71 633 71 661Q71 694 94.5 715.5Q118 737 154 737Q186 737 204 721Q222 705 223 678ZM8 0 18 83H69L116 467H65L76 550H385L374 467H323L276 83H327L317 0Z" glyph-name="Idieresis.sc" horiz-adv-x="387" /><glyph d="M12 0 23 88H84L146 602H86L97 690H430L419 602H358L296 88H356L345 0ZM157 773Q122 783 104.5 801.5Q87 820 87 841Q87 861 103.5 875Q120 889 152 889Q175 889 192.5 882.5Q210 876 223.5 865.5Q237 855 248.5 841.5Q260 828 271 815L334 740H264Z" glyph-name="Igrave" horiz-adv-x="420" unicode="&#204;" /><glyph d="M135 612Q102 620 84.5 636Q67 652 67 671Q66 688 81.5 700.5Q97 713 128 713Q151 713 167.5 706.5Q184 700 197 690Q210 680 221 668.5Q232 657 242 647L298 592H232ZM8 0 18 83H69L116 467H65L76 550H385L374 467H323L276 83H327L317 0Z" glyph-name="Igrave.sc" horiz-adv-x="387" /><glyph d="M463 226Q448 105 381 47.5Q314 -10 193 -10Q90 -10 39 32.5Q-12 75 -12 139Q-12 159 -5.5 177Q1 195 14 209Q27 223 47 231.5Q67 240 94 240Q131 240 153 219.5Q175 199 175 164Q175 137 161.5 115.5Q148 94 129 87Q134 82 146.5 78.5Q159 75 176 75Q210 75 223 97.5Q236 120 241 158L297 602H234L245 690H580L569 602H509Z" glyph-name="J" horiz-adv-x="557" unicode="J" /><glyph d="M427 191Q415 92 356.5 42Q298 -8 178 -8Q136 -8 100.5 -0.5Q65 7 39.5 22Q14 37 -0.5 58.5Q-15 80 -15 107Q-15 150 11.5 178.5Q38 207 85 207Q120 207 141.5 188Q163 169 163 137Q163 115 152 98.5Q141 82 129 76Q132 75 137 74Q141 72 146 71.5Q151 71 158 71Q183 71 195.5 83.5Q208 96 212 125L254 467H202L212 550H522L512 467H461Z" glyph-name="J.sc" horiz-adv-x="512" /><glyph d="M12 0 23 88H84L146 602H86L97 690H419L407 602H358L330 369L569 602H499L511 690H780L769 602H698L516 426L696 88H741L730 0H414L425 88H472L367 287L313 233L296 88H344L334 0Z" glyph-name="K" horiz-adv-x="760" unicode="K" /><glyph d="M327 346 639 602H358ZM12 0 23 88H84L146 602H86L97 690H777L765 602L534 411L698 88H743L733 0H416L427 88H474L375 279L313 227L296 88H344L334 0Z" glyph-name="K.alt" horiz-adv-x="765" /><glyph d="M300 279 563 467H323ZM8 0 18 83H69L116 467H65L76 550H705L694 467L494 327L638 83H677L667 0H370L381 83H413L335 215L288 182L276 83H315L305 0Z" glyph-name="K.alt.sc" horiz-adv-x="701" /><glyph d="M8 0 18 83H69L116 467H65L76 550H373L362 467H323L302 301L503 467H442L452 550H703L692 467H628L472 339L638 83H676L667 0H370L380 83H418L326 224L290 193L276 83H315L305 0Z" glyph-name="K.sc" horiz-adv-x="698" /><glyph d="M23 88H84L146 602H86L97 690H438L427 602H358L296 88H367Q389 88 407 94Q425 100 439 114.5Q453 129 462.5 153.5Q472 178 477 216L480 241H582L552 0H12Z" glyph-name="L" horiz-adv-x="602" unicode="L" /><glyph d="M18 83H69L116 467H65L76 550H391L381 467H323L276 83H333Q349 83 363.5 87Q378 91 390 101.5Q402 112 410.5 131Q419 150 423 180L425 204H523L498 0H8Z" glyph-name="L.sc" horiz-adv-x="547" /><glyph d="M230 0H12L23 88H84L146 602H86L97 690H404L473 362L623 690H935L923 602H863L800 88H860L850 0H521L531 88H588L644 544L440 91H333L239 545L184 88H240Z" glyph-name="M" horiz-adv-x="925" unicode="M" /><glyph d="M230 0H12L23 88H84L146 602H86L97 690H438L426 602H370L469 325L638 602H587L598 690H940L928 602H868L805 88H865L855 0H525L536 88H593L634 418L443 91H336L224 412L184 88H240Z" glyph-name="M.alt" horiz-adv-x="930" /><glyph d="M201 0H8L18 83H69L116 467H65L76 550H389L379 467H332L418 288L549 467H507L518 550H833L822 467H771L724 83H775L765 0H460L470 83H517L545 300L392 73H288L189 287L164 83H211Z" glyph-name="M.alt.sc" horiz-adv-x="836" /><glyph d="M201 0H8L18 83H69L116 467H65L76 550H366L425 337L535 550H831L820 467H769L722 83H774L764 0H459L468 83H515L556 413L391 73H287L204 414L164 83H211Z" glyph-name="M.sc" horiz-adv-x="834" /><glyph d="M500 -5 226 430 184 88H244L234 0H12L23 88H84L146 602H86L97 690H284L533 298L571 602H510L521 690H742L732 602H671L597 -5Z" glyph-name="N" horiz-adv-x="722" unicode="N" /><glyph d="M234 0H12L23 88H84L146 602H86L97 690H285L544 409L568 602H507L519 690H740L728 602H668L605 88H665L655 0H434L444 88H505L514 160L230 465L184 88H244Z" glyph-name="N.alt" horiz-adv-x="730" /><glyph d="M205 0H8L18 83H69L116 467H65L76 550H245L478 361L492 467H440L451 550H648L637 467H586L539 83H591L580 0H384L393 83H444L450 128L195 334L164 83H215Z" glyph-name="N.alt.sc" horiz-adv-x="651" /><glyph d="M442 -4 191 298 164 83H215L205 0H8L18 83H69L116 467H65L75 550H244L474 276L498 467H447L457 550H654L644 467H593L535 -4Z" glyph-name="N.sc" horiz-adv-x="646" /><glyph d="M500 -5 226 430 184 88H244L234 0H12L23 88H84L146 602H86L97 690H284L533 298L571 602H510L521 690H742L732 602H671L597 -5ZM486 748Q466 748 449 754Q432 760 418 767Q404 774 391 780Q378 786 366 786Q347 786 336 775Q325 764 323 747H265Q282 884 376 884Q398 884 415 878Q432 872 446 865Q460 858 472.5 852Q485 846 498 846Q517 846 527 856.5Q537 867 540 884H598Q594 850 587 824.5Q580 799 567.5 782Q555 765 535.5 756.5Q516 748 486 748Z" glyph-name="Ntilde" horiz-adv-x="722" unicode="&#209;" /><glyph d="M499 736Q475 736 455.5 745Q436 754 419 764.5Q402 775 387 783.5Q372 792 358 792Q338 792 328 778Q318 764 314 739H245Q254 811 283 852Q312 893 371 893Q395 893 415 884.5Q435 876 452 865.5Q469 855 484 846Q499 837 514 837Q549 837 555 890H624Q620 854 612 825Q604 796 590 776.5Q576 757 554 746.5Q532 736 499 736ZM234 0H12L23 88H84L146 602H86L97 690H285L544 409L568 602H507L519 690H740L728 602H668L605 88H665L655 0H434L444 88H505L514 160L230 465L184 88H244Z" glyph-name="Ntilde.alt" horiz-adv-x="730" /><glyph d="M437 571Q416 571 397.5 577.5Q379 584 362.5 592.5Q346 601 332 607.5Q318 614 306 614Q289 614 280.5 604Q272 594 268 574H202Q210 637 236.5 671.5Q263 706 317 706Q339 706 357.5 699Q376 692 392.5 684Q409 676 423 669Q437 662 450 662Q479 662 485 702H551Q547 671 540.5 646.5Q534 622 521.5 605.5Q509 589 488.5 580Q468 571 437 571ZM205 0H8L18 83H69L116 467H65L76 550H245L478 361L492 467H440L451 550H648L637 467H586L539 83H591L580 0H384L393 83H444L450 128L195 334L164 83H215Z" glyph-name="Ntilde.alt.sc" horiz-adv-x="651" /><glyph d="M423 599Q405 599 390 603Q375 607 362 612Q349 617 337.5 621Q326 625 315 625Q299 625 289.5 617.5Q280 610 278 598H223Q236 715 324 715Q343 715 358.5 711Q374 707 386.5 702Q399 697 410 693Q421 689 432 689Q449 689 458 696.5Q467 704 469 715H524Q517 657 497 628Q477 599 423 599ZM442 -4 191 298 164 83H215L205 0H8L18 83H69L116 467H65L75 550H244L474 276L498 467H447L457 550H654L644 467H593L535 -4Z" glyph-name="Ntilde.sc" horiz-adv-x="646" /><glyph d="M413 700Q491 700 546 674.5Q601 649 636 606.5Q671 564 687 509.5Q703 455 703 397Q703 317 679 243.5Q655 170 608 113.5Q561 57 492 23.5Q423 -10 332 -10Q255 -10 200 15.5Q145 41 109.5 83Q74 125 57 180Q40 235 40 293Q40 375 64.5 449Q89 523 136 578.5Q183 634 253 667Q323 700 413 700ZM402 607Q363 607 334.5 573Q306 539 288 485Q270 431 261 365Q252 299 252 236Q252 157 275 120Q298 83 342 83Q382 83 410 118Q438 153 456 207Q474 261 482.5 326.5Q491 392 491 454Q491 530 470 568.5Q449 607 402 607Z" glyph-name="O" horiz-adv-x="721" unicode="O" /><glyph d="M359 558Q429 558 479.5 538Q530 518 562 484.5Q594 451 609.5 408Q625 365 625 319Q625 251 603.5 191.5Q582 132 540 87.5Q498 43 436 17.5Q374 -8 293 -8Q224 -8 173.5 12.5Q123 33 90 66.5Q57 100 41.5 143Q26 186 26 231Q26 299 47.5 358.5Q69 418 111 462Q153 506 215.5 532Q278 558 359 558ZM349 471Q317 471 295 443Q273 415 259 372.5Q245 330 239 278.5Q233 227 233 179Q233 127 251.5 103Q270 79 303 79Q335 79 357 106.5Q379 134 393 177Q407 220 413 271Q419 322 419 369Q419 423 401.5 447Q384 471 349 471Z" glyph-name="O.sc" horiz-adv-x="647" /><glyph d="M413 700Q491 700 546 674.5Q601 649 636 606.5Q671 564 687 509.5Q703 455 703 397Q703 317 679 243.5Q655 170 608 113.5Q561 57 492 23.5Q423 -10 332 -10Q255 -10 200 15.5Q145 41 109.5 83Q74 125 57 180Q40 235 40 293Q40 375 64.5 449Q89 523 136 578.5Q183 634 253 667Q323 700 413 700ZM402 607Q363 607 334.5 573Q306 539 288 485Q270 431 261 365Q252 299 252 236Q252 157 275 120Q298 83 342 83Q382 83 410 118Q438 153 456 207Q474 261 482.5 326.5Q491 392 491 454Q491 530 470 568.5Q449 607 402 607ZM432 740H362L431 815Q443 828 456 841Q469 854 484 864.5Q499 875 517.5 882Q536 889 560 889Q589 889 604 877Q619 865 619 845Q619 821 601 802.5Q583 784 541 773Z" glyph-name="Oacute" horiz-adv-x="721" unicode="&#211;" /><glyph d="M413 700Q491 700 546 674.5Q601 649 636 606.5Q671 564 687 509.5Q703 455 703 397Q703 317 679 243.5Q655 170 608 113.5Q561 57 492 23.5Q423 -10 332 -10Q255 -10 200 15.5Q145 41 109.5 83Q74 125 57 180Q40 235 40 293Q40 375 64.5 449Q89 523 136 578.5Q183 634 253 667Q323 700 413 700ZM402 607Q363 607 334.5 573Q306 539 288 485Q270 431 261 365Q252 299 252 236Q252 157 275 120Q298 83 342 83Q382 83 410 118Q438 153 456 207Q474 261 482.5 326.5Q491 392 491 454Q491 530 470 568.5Q449 607 402 607ZM380 740 407 818Q424 865 444.5 887.5Q465 910 500 910Q529 910 541 896.5Q553 883 553 863Q553 841 538 819.5Q523 798 497 777L452 740Z" glyph-name="Oacute.pl" horiz-adv-x="721" /><glyph d="M327 592 351 656Q364 691 383.5 710.5Q403 730 435 730Q464 730 475 716.5Q486 703 486 686Q486 666 472.5 648Q459 630 435 616L395 592ZM359 558Q429 558 479.5 538Q530 518 562 484.5Q594 451 609.5 408Q625 365 625 319Q625 251 603.5 191.5Q582 132 540 87.5Q498 43 436 17.5Q374 -8 293 -8Q224 -8 173.5 12.5Q123 33 90 66.5Q57 100 41.5 143Q26 186 26 231Q26 299 47.5 358.5Q69 418 111 462Q153 506 215.5 532Q278 558 359 558ZM349 471Q317 471 295 443Q273 415 259 372.5Q245 330 239 278.5Q233 227 233 179Q233 127 251.5 103Q270 79 303 79Q335 79 357 106.5Q379 134 393 177Q407 220 413 271Q419 322 419 369Q419 423 401.5 447Q384 471 349 471Z" glyph-name="Oacute.pl.sc" horiz-adv-x="647" /><glyph d="M377 592H311L370 647Q381 657 393 668.5Q405 680 419.5 690Q434 700 452.5 706.5Q471 713 494 713Q549 713 549 676Q549 653 531.5 637Q514 621 475 612ZM359 558Q429 558 479.5 538Q530 518 562 484.5Q594 451 609.5 408Q625 365 625 319Q625 251 603.5 191.5Q582 132 540 87.5Q498 43 436 17.5Q374 -8 293 -8Q224 -8 173.5 12.5Q123 33 90 66.5Q57 100 41.5 143Q26 186 26 231Q26 299 47.5 358.5Q69 418 111 462Q153 506 215.5 532Q278 558 359 558ZM349 471Q317 471 295 443Q273 415 259 372.5Q245 330 239 278.5Q233 227 233 179Q233 127 251.5 103Q270 79 303 79Q335 79 357 106.5Q379 134 393 177Q407 220 413 271Q419 322 419 369Q419 423 401.5 447Q384 471 349 471Z" glyph-name="Oacute.sc" horiz-adv-x="647" /><glyph d="M413 700Q491 700 546 674.5Q601 649 636 606.5Q671 564 687 509.5Q703 455 703 397Q703 317 679 243.5Q655 170 608 113.5Q561 57 492 23.5Q423 -10 332 -10Q255 -10 200 15.5Q145 41 109.5 83Q74 125 57 180Q40 235 40 293Q40 375 64.5 449Q89 523 136 578.5Q183 634 253 667Q323 700 413 700ZM402 607Q363 607 334.5 573Q306 539 288 485Q270 431 261 365Q252 299 252 236Q252 157 275 120Q298 83 342 83Q382 83 410 118Q438 153 456 207Q474 261 482.5 326.5Q491 392 491 454Q491 530 470 568.5Q449 607 402 607ZM419 791 333 740H233L383 875H481L593 740H493Z" glyph-name="Ocircumflex" horiz-adv-x="721" unicode="&#212;" /><glyph d="M362 634 290 594H192L324 703H421L522 594H423ZM359 558Q429 558 479.5 538Q530 518 562 484.5Q594 451 609.5 408Q625 365 625 319Q625 251 603.5 191.5Q582 132 540 87.5Q498 43 436 17.5Q374 -8 293 -8Q224 -8 173.5 12.5Q123 33 90 66.5Q57 100 41.5 143Q26 186 26 231Q26 299 47.5 358.5Q69 418 111 462Q153 506 215.5 532Q278 558 359 558ZM349 471Q317 471 295 443Q273 415 259 372.5Q245 330 239 278.5Q233 227 233 179Q233 127 251.5 103Q270 79 303 79Q335 79 357 106.5Q379 134 393 177Q407 220 413 271Q419 322 419 369Q419 423 401.5 447Q384 471 349 471Z" glyph-name="Ocircumflex.sc" horiz-adv-x="647" /><glyph d="M413 700Q491 700 546 674.5Q601 649 636 606.5Q671 564 687 509.5Q703 455 703 397Q703 317 679 243.5Q655 170 608 113.5Q561 57 492 23.5Q423 -10 332 -10Q255 -10 200 15.5Q145 41 109.5 83Q74 125 57 180Q40 235 40 293Q40 375 64.5 449Q89 523 136 578.5Q183 634 253 667Q323 700 413 700ZM402 607Q363 607 334.5 573Q306 539 288 485Q270 431 261 365Q252 299 252 236Q252 157 275 120Q298 83 342 83Q382 83 410 118Q438 153 456 207Q474 261 482.5 326.5Q491 392 491 454Q491 530 470 568.5Q449 607 402 607ZM617 829Q617 793 592 768.5Q567 744 529 744Q497 744 477.5 763.5Q458 783 458 812Q458 848 482.5 872.5Q507 897 545 897Q579 897 598 877.5Q617 858 617 829ZM406 829Q406 794 381 769Q356 744 318 744Q285 744 266 763.5Q247 783 247 812Q247 848 271.5 872.5Q296 897 334 897Q367 897 386.5 877.5Q406 858 406 829Z" glyph-name="Odieresis" horiz-adv-x="721" unicode="&#214;" /><glyph d="M549 678Q549 643 525.5 622Q502 601 465 601Q434 601 415.5 617Q397 633 397 661Q397 694 421 715.5Q445 737 480 737Q511 737 530 721Q549 705 549 678ZM355 678Q355 643 332 622Q309 601 271 601Q241 601 222.5 617Q204 633 204 661Q204 694 227.5 715.5Q251 737 287 737Q318 737 336.5 721Q355 705 355 678ZM359 558Q429 558 479.5 538Q530 518 562 484.5Q594 451 609.5 408Q625 365 625 319Q625 251 603.5 191.5Q582 132 540 87.5Q498 43 436 17.5Q374 -8 293 -8Q224 -8 173.5 12.5Q123 33 90 66.5Q57 100 41.5 143Q26 186 26 231Q26 299 47.5 358.5Q69 418 111 462Q153 506 215.5 532Q278 558 359 558ZM349 471Q317 471 295 443Q273 415 259 372.5Q245 330 239 278.5Q233 227 233 179Q233 127 251.5 103Q270 79 303 79Q335 79 357 106.5Q379 134 393 177Q407 220 413 271Q419 322 419 369Q419 423 401.5 447Q384 471 349 471Z" glyph-name="Odieresis.sc" horiz-adv-x="647" /><glyph d="M413 700Q491 700 546 674.5Q601 649 636 606.5Q671 564 687 509.5Q703 455 703 397Q703 317 679 243.5Q655 170 608 113.5Q561 57 492 23.5Q423 -10 332 -10Q255 -10 200 15.5Q145 41 109.5 83Q74 125 57 180Q40 235 40 293Q40 375 64.5 449Q89 523 136 578.5Q183 634 253 667Q323 700 413 700ZM402 607Q363 607 334.5 573Q306 539 288 485Q270 431 261 365Q252 299 252 236Q252 157 275 120Q298 83 342 83Q382 83 410 118Q438 153 456 207Q474 261 482.5 326.5Q491 392 491 454Q491 530 470 568.5Q449 607 402 607ZM316 773Q281 783 263.5 801.5Q246 820 246 841Q246 861 262.5 875Q279 889 311 889Q334 889 351.5 882.5Q369 876 382.5 865.5Q396 855 407.5 841.5Q419 828 430 815L493 740H423Z" glyph-name="Ograve" horiz-adv-x="721" unicode="&#210;" /><glyph d="M272 612Q240 620 222.5 636Q205 652 204 671Q204 688 219.5 700.5Q235 713 265 713Q288 713 304.5 706.5Q321 700 334.5 690Q348 680 358.5 668.5Q369 657 379 647L435 592H369ZM359 558Q429 558 479.5 538Q530 518 562 484.5Q594 451 609.5 408Q625 365 625 319Q625 251 603.5 191.5Q582 132 540 87.5Q498 43 436 17.5Q374 -8 293 -8Q224 -8 173.5 12.5Q123 33 90 66.5Q57 100 41.5 143Q26 186 26 231Q26 299 47.5 358.5Q69 418 111 462Q153 506 215.5 532Q278 558 359 558ZM349 471Q317 471 295 443Q273 415 259 372.5Q245 330 239 278.5Q233 227 233 179Q233 127 251.5 103Q270 79 303 79Q335 79 357 106.5Q379 134 393 177Q407 220 413 271Q419 322 419 369Q419 423 401.5 447Q384 471 349 471Z" glyph-name="Ograve.sc" horiz-adv-x="647" /><glyph d="M403 607Q365 607 337.5 575Q310 543 291.5 492Q273 441 263.5 378Q254 315 253 253L485 531Q467 607 403 607ZM343 83Q381 83 408.5 114.5Q436 146 454 195.5Q472 245 481 307Q490 369 492 429L262 153Q282 83 343 83ZM333 -10Q281 -10 239 2Q197 14 164 35L103 -38H11L111 82Q75 124 58 179Q41 234 41 293Q41 375 65.5 449Q90 523 137 578.5Q184 634 254 667Q324 700 414 700Q468 700 511 687.5Q554 675 586 653L650 729H742L638 605Q673 562 688.5 508Q704 454 704 397Q704 317 680 243.5Q656 170 609 113.5Q562 57 493 23.5Q424 -10 333 -10Z" glyph-name="Oslash" horiz-adv-x="723" unicode="&#216;" /><glyph d="M350 471Q322 471 301 448.5Q280 426 266 390Q252 354 244.5 309.5Q237 265 235 220L415 411Q409 443 393 457Q377 471 350 471ZM304 79Q332 79 352.5 101Q373 123 386.5 157.5Q400 192 407.5 235.5Q415 279 418 322L239 133Q252 79 304 79ZM293 -8Q246 -8 208 1.5Q170 11 141 28L86 -30H0L91 66Q58 100 42.5 143Q27 186 27 231Q27 299 48.5 358.5Q70 418 112 462Q154 506 216.5 532Q279 558 360 558Q409 558 448 548Q487 538 518 520L575 581H661L567 481Q597 448 611.5 406Q626 364 626 319Q626 251 604.5 191.5Q583 132 541 87.5Q499 43 437 17.5Q375 -8 293 -8Z" glyph-name="Oslash.sc" horiz-adv-x="649" /><glyph d="M413 700Q491 700 546 674.5Q601 649 636 606.5Q671 564 687 509.5Q703 455 703 397Q703 317 679 243.5Q655 170 608 113.5Q561 57 492 23.5Q423 -10 332 -10Q255 -10 200 15.5Q145 41 109.5 83Q74 125 57 180Q40 235 40 293Q40 375 64.5 449Q89 523 136 578.5Q183 634 253 667Q323 700 413 700ZM402 607Q363 607 334.5 573Q306 539 288 485Q270 431 261 365Q252 299 252 236Q252 157 275 120Q298 83 342 83Q382 83 410 118Q438 153 456 207Q474 261 482.5 326.5Q491 392 491 454Q491 530 470 568.5Q449 607 402 607ZM479 748Q459 748 442 754Q425 760 411 767Q397 774 384 780Q371 786 359 786Q340 786 329 775Q318 764 316 747H258Q275 884 369 884Q391 884 408 878Q425 872 439 865Q453 858 465.5 852Q478 846 491 846Q510 846 520 856.5Q530 867 533 884H591Q587 850 580 824.5Q573 799 560.5 782Q548 765 528.5 756.5Q509 748 479 748Z" glyph-name="Otilde" horiz-adv-x="721" unicode="&#213;" /><glyph d="M417 599Q399 599 384 603Q369 607 356 612Q343 617 332 621Q321 625 310 625Q293 625 283.5 617.5Q274 610 272 598H217Q232 715 317 715Q337 715 352 711Q367 707 380 702Q393 697 404 693Q415 689 426 689Q443 689 452 696.5Q461 704 463 715H518Q511 657 491 628Q471 599 417 599ZM359 558Q429 558 479.5 538Q530 518 562 484.5Q594 451 609.5 408Q625 365 625 319Q625 251 603.5 191.5Q582 132 540 87.5Q498 43 436 17.5Q374 -8 293 -8Q224 -8 173.5 12.5Q123 33 90 66.5Q57 100 41.5 143Q26 186 26 231Q26 299 47.5 358.5Q69 418 111 462Q153 506 215.5 532Q278 558 359 558ZM349 471Q317 471 295 443Q273 415 259 372.5Q245 330 239 278.5Q233 227 233 179Q233 127 251.5 103Q270 79 303 79Q335 79 357 106.5Q379 134 393 177Q407 220 413 271Q419 322 419 369Q419 423 401.5 447Q384 471 349 471Z" glyph-name="Otilde.sc" horiz-adv-x="647" /><glyph d="M23 88H84L146 602H86L97 690H407Q486 690 542 675Q598 660 633.5 634Q669 608 685.5 573Q702 538 702 497Q702 448 679.5 405.5Q657 363 614 331.5Q571 300 508 282.5Q445 265 364 265H317L296 88H366L355 0H12ZM358 602 327 353H357Q417 353 451.5 393.5Q486 434 486 499Q486 550 460.5 576Q435 602 388 602Z" glyph-name="P" horiz-adv-x="684" unicode="P" /><glyph d="M18 83H69L116 467H65L76 550H370Q443 550 493.5 537.5Q544 525 576 504Q608 483 622.5 454.5Q637 426 637 393Q637 306 560 255Q483 204 337 204H290L276 83H336L326 0H8ZM323 467 301 286H328Q375 286 400 315Q425 344 425 394Q425 432 406 449.5Q387 467 351 467Z" glyph-name="P.sc" horiz-adv-x="629" /><glyph d="M515 -111Q455 -111 425 -85Q395 -59 383 -7Q358 -10 332 -10Q255 -10 200 15.5Q145 41 109.5 83Q74 125 57 180Q40 235 40 293Q40 375 64.5 449Q89 523 136 578.5Q183 634 253 667Q323 700 413 700Q491 700 546 674.5Q601 649 636 606.5Q671 564 687 509.5Q703 455 703 397Q703 339 690 283.5Q677 228 652 180Q627 132 589.5 93Q552 54 503 29Q506 -1 513.5 -14Q521 -27 536 -27Q556 -27 566 -9Q576 9 582 56H658Q654 23 645 -7.5Q636 -38 619.5 -61Q603 -84 577.5 -97.5Q552 -111 515 -111ZM354 263Q389 263 415 251.5Q441 240 458 213Q475 267 483 330.5Q491 394 491 454Q491 530 470 568.5Q449 607 402 607Q362 607 333.5 572Q305 537 287 482Q269 427 260.5 359Q252 291 252 225Q269 242 294 252.5Q319 263 354 263ZM342 83Q355 83 370 88Q365 140 355.5 163Q346 186 317 186Q305 186 290 175Q275 164 270 129Q292 83 342 83Z" glyph-name="Q" horiz-adv-x="722" unicode="Q" /><glyph d="M496 -119Q442 -119 411.5 -92Q381 -65 376 -8Q365 -9 354 -9.5Q343 -10 332 -10Q255 -10 200 15.5Q145 41 109.5 83Q74 125 57 180Q40 235 40 293Q40 375 64.5 449Q89 523 136 578.5Q183 634 253 667Q323 700 413 700Q491 700 546 674.5Q601 649 636 606.5Q671 564 687 509.5Q703 455 703 397Q703 337 689.5 281Q676 225 650 176Q624 127 584.5 88Q545 49 494 25Q496 -10 502 -22.5Q508 -35 522 -35Q542 -35 553 -15.5Q564 4 571 56H646Q642 21 632.5 -10.5Q623 -42 606 -66Q589 -90 562 -104.5Q535 -119 496 -119ZM359 309Q401 309 427.5 292.5Q454 276 468 249Q480 297 485.5 350Q491 403 491 454Q491 530 470 568.5Q449 607 402 607Q365 607 337 575Q309 543 290.5 492.5Q272 442 262.5 379Q253 316 252 254Q271 279 298 294Q325 309 359 309ZM342 83Q360 83 376 91Q376 118 375.5 141Q375 164 370.5 181.5Q366 199 358 208.5Q350 218 335 218Q316 218 304.5 198.5Q293 179 293 150Q293 118 306 100.5Q319 83 342 83Z" glyph-name="Q.alt" horiz-adv-x="721" /><glyph d="M445 -87Q400 -87 372.5 -68Q345 -49 337 -6Q326 -7 315 -7.5Q304 -8 293 -8Q224 -8 173.5 12.5Q123 33 90 66.5Q57 100 41.5 143Q26 186 26 231Q26 299 47.5 358.5Q69 418 111 462Q153 506 215.5 532Q278 558 359 558Q429 558 479.5 538Q530 518 562 484.5Q594 451 609.5 408Q625 365 625 319Q625 219 580 139.5Q535 60 446 22Q448 1 453.5 -4.5Q459 -10 470 -10Q487 -10 495.5 4.5Q504 19 509 55H582Q578 28 570 2Q562 -24 546.5 -43.5Q531 -63 506.5 -75Q482 -87 445 -87ZM319 261Q349 261 370.5 251.5Q392 242 406 227Q413 262 416 298.5Q419 335 419 369Q419 423 401.5 447Q384 471 349 471Q321 471 301 449.5Q281 428 267 394Q253 360 245.5 317Q238 274 235 230Q251 244 272 252.5Q293 261 319 261ZM259 127Q259 104 271.5 91.5Q284 79 304 79Q322 79 335 88Q337 128 331.5 154.5Q326 181 298 181Q278 181 268.5 164Q259 147 259 127Z" glyph-name="Q.alt.sc" horiz-adv-x="647" /><glyph d="M459 -88Q408 -88 380.5 -67Q353 -46 341 -6Q329 -7 317.5 -7.5Q306 -8 293 -8Q224 -8 173.5 12.5Q123 33 90 66.5Q57 100 41.5 143Q26 186 26 231Q26 299 47.5 358.5Q69 418 111 462Q153 506 215.5 532Q278 558 359 558Q429 558 479.5 538Q530 518 562 484.5Q594 451 609.5 408Q625 365 625 319Q625 221 582.5 143.5Q540 66 455 26Q460 2 466 -5Q472 -12 482 -12Q499 -12 507.5 2.5Q516 17 521 55H594Q586 -11 554 -49.5Q522 -88 459 -88ZM349 471Q318 471 296.5 445Q275 419 261 378.5Q247 338 240.5 288.5Q234 239 233 192Q247 206 267.5 214.5Q288 223 315 223Q368 223 399 198Q410 238 414.5 282.5Q419 327 419 369Q419 423 401.5 447Q384 471 349 471ZM303 79Q314 79 327 84Q322 121 313.5 138Q305 155 284 155Q264 155 257.5 136.5Q251 118 253 101Q271 79 303 79Z" glyph-name="Q.sc" horiz-adv-x="647" /><glyph d="M754 164Q749 124 738 92Q727 60 707.5 37.5Q688 15 658.5 2.5Q629 -10 586 -10Q497 -10 456.5 35.5Q416 81 414 187Q414 214 411.5 235Q409 256 402 270.5Q395 285 382 292.5Q369 300 347 300H321L296 88H348L336 0H12L23 88H84L146 602H86L97 690H423Q569 690 636.5 647Q704 604 704 527Q704 492 690 460.5Q676 429 647 404.5Q618 380 573 363.5Q528 347 466 341Q508 332 537 319Q566 306 584 285.5Q602 265 610.5 236.5Q619 208 620 167Q622 118 627 103.5Q632 89 645 89Q658 89 665 106Q672 123 677 164ZM358 602 330 373H359Q391 373 416 384.5Q441 396 458 414.5Q475 433 483.5 456.5Q492 480 492 504Q492 555 465 578.5Q438 602 388 602Z" glyph-name="R" horiz-adv-x="739" unicode="R" /><glyph d="M686 137Q682 104 672.5 77Q663 50 645 31.5Q627 13 599 2.5Q571 -8 531 -8Q490 -8 459.5 0.5Q429 9 408.5 29Q388 49 378 82Q368 115 368 164Q368 199 358 215.5Q348 232 319 232H294L276 83H319L308 0H7L18 83H69L116 467H65L75 550H379Q515 550 577 515Q639 480 639 418Q639 362 588 321Q537 280 421 272Q500 258 534 227.5Q568 197 568 134Q568 107 572.5 96.5Q577 86 589 86Q600 86 604.5 99Q609 112 613 137ZM323 467 302 300H330Q378 300 405.5 327.5Q433 355 433 397Q433 432 411 449.5Q389 467 351 467Z" glyph-name="R.sc" horiz-adv-x="676" /><glyph d="M359 165Q359 204 331.5 229.5Q304 255 241 281Q160 316 118.5 360Q77 404 77 476Q77 530 97.5 572Q118 614 152.5 642.5Q187 671 233 685.5Q279 700 329 700Q386 700 427 690Q468 680 498 657L529 700H621L592 456H490Q489 500 481 529Q473 558 459.5 575.5Q446 593 426 600Q406 607 381 607Q338 607 316.5 581Q295 555 295 520Q295 474 326.5 448.5Q358 423 425 398Q454 386 481.5 371Q509 356 530 334Q551 312 563.5 282Q576 252 576 211Q576 164 561 123.5Q546 83 515.5 53.5Q485 24 437.5 7Q390 -10 324 -10Q261 -10 216.5 2Q172 14 140 37L106 -10H12L43 237H145Q146 162 180.5 122.5Q215 83 270 83Q294 83 311 90Q328 97 338.5 109Q349 121 354 135.5Q359 150 359 165Z" glyph-name="S" horiz-adv-x="623" unicode="S" /><glyph d="M521 174Q521 135 508.5 101.5Q496 68 470 44Q444 20 405 6Q366 -8 313 -8Q259 -8 215 0Q171 8 129 33L98 -8H6L31 193H129Q131 142 162 110.5Q193 79 238 79Q274 79 291 94.5Q308 110 308 132Q308 158 283.5 176Q259 194 205 214Q130 243 93.5 280Q57 317 57 379Q57 422 75.5 455Q94 488 125 511Q156 534 197 546Q238 558 283 558Q318 558 358 552Q398 546 436 520L466 558H556L532 359H434Q430 418 407 444.5Q384 471 339 471Q305 471 288 454.5Q271 438 271 414Q271 383 298.5 363Q326 343 386 323Q411 314 435 303Q459 292 478 274.5Q497 257 509 233Q521 209 521 174Z" glyph-name="S.sc" horiz-adv-x="567" /><glyph d="M142 88H212L276 604H257Q231 604 212.5 598Q194 592 182 578Q170 564 162.5 540.5Q155 517 151 482L146 446H44L75 690H710L680 446H578L582 482Q591 553 575 578.5Q559 604 507 604H488L424 88H495L484 0H131Z" glyph-name="T" horiz-adv-x="678" unicode="T" /><glyph d="M123 83H183L231 469H218Q174 469 156.5 448Q139 427 132 375L127 342H29L55 550H634L608 342H510L514 375Q522 429 508.5 449Q495 469 455 469H438L390 83H450L440 0H113Z" glyph-name="T.sc" horiz-adv-x="617" /><glyph d="M346 0H12L23 88H84L147 602H86L97 690H432L420 602H359L355 561H386Q541 561 613.5 510.5Q686 460 686 374Q686 323 663 280Q640 237 596 205.5Q552 174 488 156Q424 138 343 138H302L296 88H357ZM343 473 313 226H336Q399 226 434 266.5Q469 307 469 373Q469 422 441.5 447.5Q414 473 366 473Z" glyph-name="Thorn" horiz-adv-x="688" unicode="&#222;" /><glyph d="M317 0H7L18 83H69L116 467H65L75 550H385L375 467H324L321 446H348Q492 446 558.5 403.5Q625 361 625 294Q625 255 604.5 220.5Q584 186 544 160.5Q504 135 446.5 120Q389 105 315 105H278L276 83H327ZM310 364 289 189H307Q358 189 385 218.5Q412 248 412 294Q412 329 388.5 346.5Q365 364 328 364Z" glyph-name="Thorn.sc" horiz-adv-x="632" /><glyph d="M594 222Q580 109 522 49.5Q464 -10 348 -10Q205 -10 139 59.5Q73 129 89 262L131 602H71L81 690H407L396 602H343L297 229Q288 157 307 120.5Q326 84 380 84Q428 84 456.5 117Q485 150 494 225L540 602H488L498 690H712L701 602H641Z" glyph-name="U" horiz-adv-x="688" unicode="U" /><glyph d="M528 190Q516 96 464.5 44Q413 -8 305 -8Q241 -8 193.5 8.5Q146 25 117 54.5Q88 84 76 125.5Q64 167 70 218L101 467H50L60 550H361L351 467H308L273 182Q267 131 282 104.5Q297 78 340 78Q385 78 405.5 102.5Q426 127 432 183L467 467H424L434 550H623L613 467H562Z" glyph-name="U.sc" horiz-adv-x="614" /><glyph d="M594 222Q580 109 522 49.5Q464 -10 348 -10Q205 -10 139 59.5Q73 129 89 262L131 602H71L81 690H407L396 602H343L297 229Q288 157 307 120.5Q326 84 380 84Q428 84 456.5 117Q485 150 494 225L540 602H488L498 690H712L701 602H641ZM458 740H388L457 815Q469 828 482 841Q495 854 510 864.5Q525 875 543.5 882Q562 889 586 889Q615 889 630 877Q645 865 645 845Q645 821 627 802.5Q609 784 567 773Z" glyph-name="Uacute" horiz-adv-x="688" unicode="&#218;" /><glyph d="M400 592H334L394 646Q405 656 417 668Q429 680 443.5 690Q458 700 476 706.5Q494 713 517 713Q572 713 572 676Q574 629 498 612ZM528 190Q516 96 464.5 44Q413 -8 305 -8Q241 -8 193.5 8.5Q146 25 117 54.5Q88 84 76 125.5Q64 167 70 218L101 467H50L60 550H361L351 467H308L273 182Q267 131 282 104.5Q297 78 340 78Q385 78 405.5 102.5Q426 127 432 183L467 467H424L434 550H623L613 467H562Z" glyph-name="Uacute.sc" horiz-adv-x="614" /><glyph d="M594 222Q580 109 522 49.5Q464 -10 348 -10Q205 -10 139 59.5Q73 129 89 262L131 602H71L81 690H407L396 602H343L297 229Q288 157 307 120.5Q326 84 380 84Q428 84 456.5 117Q485 150 494 225L540 602H488L498 690H712L701 602H641ZM454 791 368 740H268L418 875H516L628 740H528Z" glyph-name="Ucircumflex" horiz-adv-x="688" unicode="&#219;" /><glyph d="M397 634 326 594H227L360 703H457L558 594H459ZM528 190Q516 96 464.5 44Q413 -8 305 -8Q241 -8 193.5 8.5Q146 25 117 54.5Q88 84 76 125.5Q64 167 70 218L101 467H50L60 550H361L351 467H308L273 182Q267 131 282 104.5Q297 78 340 78Q385 78 405.5 102.5Q426 127 432 183L467 467H424L434 550H623L613 467H562Z" glyph-name="Ucircumflex.sc" horiz-adv-x="614" /><glyph d="M594 222Q580 109 522 49.5Q464 -10 348 -10Q205 -10 139 59.5Q73 129 89 262L131 602H71L81 690H407L396 602H343L297 229Q288 157 307 120.5Q326 84 380 84Q428 84 456.5 117Q485 150 494 225L540 602H488L498 690H712L701 602H641ZM628 829Q628 793 603 768.5Q578 744 540 744Q508 744 488.5 763.5Q469 783 469 812Q469 848 493.5 872.5Q518 897 556 897Q590 897 609 877.5Q628 858 628 829ZM417 829Q417 794 392 769Q367 744 329 744Q296 744 277 763.5Q258 783 258 812Q258 848 282.5 872.5Q307 897 345 897Q378 897 397.5 877.5Q417 858 417 829Z" glyph-name="Udieresis" horiz-adv-x="688" unicode="&#220;" /><glyph d="M560 675Q560 640 536 619Q512 598 476 598Q444 598 426 614Q408 630 408 657Q408 691 431.5 712.5Q455 734 491 734Q522 734 540.5 718Q559 702 560 675ZM366 675Q367 640 343 619Q319 598 282 598Q251 598 233 614Q215 630 215 657Q214 691 238 712.5Q262 734 298 734Q328 734 347 718Q366 702 366 675ZM528 190Q516 96 464.5 44Q413 -8 305 -8Q241 -8 193.5 8.5Q146 25 117 54.5Q88 84 76 125.5Q64 167 70 218L101 467H50L60 550H361L351 467H308L273 182Q267 131 282 104.5Q297 78 340 78Q385 78 405.5 102.5Q426 127 432 183L467 467H424L434 550H623L613 467H562Z" glyph-name="Udieresis.sc" horiz-adv-x="614" /><glyph d="M594 222Q580 109 522 49.5Q464 -10 348 -10Q205 -10 139 59.5Q73 129 89 262L131 602H71L81 690H407L396 602H343L297 229Q288 157 307 120.5Q326 84 380 84Q428 84 456.5 117Q485 150 494 225L540 602H488L498 690H712L701 602H641ZM329 773Q294 783 276.5 801.5Q259 820 259 841Q259 861 275.5 875Q292 889 324 889Q347 889 364.5 882.5Q382 876 395.5 865.5Q409 855 420.5 841.5Q432 828 443 815L506 740H436Z" glyph-name="Ugrave" horiz-adv-x="688" unicode="&#217;" /><glyph d="M285 612Q253 620 235.5 636Q218 652 218 671Q218 688 233 700.5Q248 713 279 713Q302 713 318.5 706.5Q335 700 348.5 690Q362 680 372.5 668.5Q383 657 393 646L449 592H383ZM528 190Q516 96 464.5 44Q413 -8 305 -8Q241 -8 193.5 8.5Q146 25 117 54.5Q88 84 76 125.5Q64 167 70 218L101 467H50L60 550H361L351 467H308L273 182Q267 131 282 104.5Q297 78 340 78Q385 78 405.5 102.5Q426 127 432 183L467 467H424L434 550H623L613 467H562Z" glyph-name="Ugrave.sc" horiz-adv-x="614" /><glyph d="M634 602 402 0H187L98 602H42L54 690H370L359 602H306L370 162L539 602H490L501 690H698L686 602Z" glyph-name="V" horiz-adv-x="650" unicode="V" /><glyph d="M559 467 368 0H155L76 467H27L38 550H331L320 467H278L329 117L469 467H430L441 550H615L604 467Z" glyph-name="V.sc" horiz-adv-x="583" /><glyph d="M491 425 348 0H142L105 602H52L64 690H357L345 602H301L328 176L501 690H647L691 169L824 602H781L792 690H978L967 602H918L733 0H529Z" glyph-name="W" horiz-adv-x="938" unicode="W" /><glyph d="M489 365 356 0H150L102 602H49L61 690H350L338 602H298L335 153L470 526L461 602H405L416 690H737L726 602H639L690 154L835 602H794L805 690H984L973 602H929L735 0H531Z" glyph-name="W.alt" horiz-adv-x="946" /><glyph d="M429 301 319 0H118L78 467H33L44 550H313L303 467H270L298 145L411 453L409 467H358L369 550H649L639 467H582L621 143L728 467H696L706 550H868L857 467H818L664 0H465Z" glyph-name="W.alt.sc" horiz-adv-x="845" /><glyph d="M423 304 311 0H111L74 467H30L41 550H311L301 467H267L291 155L433 550H574L617 152L719 467H687L698 550H862L851 467H811L660 0H460Z" glyph-name="W.sc" horiz-adv-x="832" /><glyph d="M-18 0 -7 88H50L259 327L99 602H55L67 690H397L385 602H331L415 453L543 602H492L504 690H723L711 602H658L460 378L630 88H676L665 0H332L343 88H397L305 251L165 88H227L216 0Z" glyph-name="X" horiz-adv-x="697" unicode="X" /><glyph d="M203 0H-16L-6 83H45L227 260L79 467H41L52 550H364L353 467H306L379 361L480 467H437L448 550H653L642 467H594L424 300L579 83H620L609 0H293L303 83H352L272 198L160 83H213Z" glyph-name="X.sc" horiz-adv-x="645" /><glyph d="M470 0H144L155 88H212L236 278L86 602H37L48 690H377L365 602H311L410 389L550 602H497L508 690H714L703 602H659L449 287L424 88H481Z" glyph-name="Y" horiz-adv-x="670" unicode="Y" /><glyph d="M427 0H129L139 83H185L202 217L64 467H21L32 550H342L332 467H291L372 321L484 467H440L451 550H638L627 467H589L410 224L392 83H437Z" glyph-name="Y.sc" horiz-adv-x="610" /><glyph d="M470 0H144L155 88H212L236 278L86 602H37L48 690H377L365 602H311L410 389L550 602H497L508 690H714L703 602H659L449 287L424 88H481ZM443 740H373L442 815Q454 828 467 841Q480 854 495 864.5Q510 875 528.5 882Q547 889 571 889Q600 889 615 877Q630 865 630 845Q630 821 612 802.5Q594 784 552 773Z" glyph-name="Yacute" horiz-adv-x="670" unicode="&#221;" /><glyph d="M394 592H328L388 646Q399 656 411 668Q423 680 437.5 690Q452 700 470 706.5Q488 713 510 713Q566 713 566 676Q566 653 548.5 637Q531 621 493 612ZM427 0H129L139 83H185L202 217L64 467H21L32 550H342L332 467H291L372 321L484 467H440L451 550H638L627 467H589L410 224L392 83H437Z" glyph-name="Yacute.sc" horiz-adv-x="610" /><glyph d="M5 0 14 70 385 602H301Q269 602 246.5 598Q224 594 209 581.5Q194 569 186 546Q178 523 173 485L168 449H66L97 690H613L604 620L233 88H347Q381 88 401.5 93.5Q422 99 433.5 113.5Q445 128 450.5 152.5Q456 177 461 215L465 246H567L536 0Z" glyph-name="Z" horiz-adv-x="604" unicode="Z" /><glyph d="M8 0 17 70 412 543H293Q261 543 239 538.5Q217 534 203 521Q189 508 181 486.5Q173 465 169 430L165 394H63L99 690H618L609 620L214 147H364Q396 147 415.5 153.5Q435 160 446.5 174Q458 188 463.5 212Q469 236 473 270L477 300H579L542 0Z" glyph-name="Z.alt" horiz-adv-x="614" /><glyph d="M2 0 11 64 334 409H252Q224 409 205.5 406Q187 403 175 393Q163 383 156 365Q149 347 146 318L142 292H45L76 550H547L538 486L216 141H318Q347 141 364.5 146Q382 151 393 162Q404 173 409.5 192Q415 211 419 239L422 262H520L487 0Z" glyph-name="Z.alt.sc" horiz-adv-x="553" /><glyph d="M0 0 9 64 316 467H258Q230 467 211.5 464Q193 461 181 451.5Q169 442 162.5 424.5Q156 407 151 379L147 352H48L74 550H544L535 486L228 83H305Q334 83 352.5 88.5Q371 94 382 105.5Q393 117 398.5 135.5Q404 154 408 179L411 202H509L484 0Z" glyph-name="Z.sc" horiz-adv-x="545" /><glyph d="M516 -10Q461 -10 425 14.5Q389 39 379 89Q357 46 319 18Q281 -10 213 -10Q178 -10 144.5 3.5Q111 17 84.5 45Q58 73 42 115.5Q26 158 26 215Q26 278 43 335Q60 392 92 435.5Q124 479 169.5 504.5Q215 530 272 530Q327 530 359.5 507Q392 484 407 442L438 516L612 515L564 124Q560 89 580 89Q594 89 602 108Q610 127 616 170H686Q676 85 637.5 37.5Q599 -10 516 -10ZM325 434Q303 434 286 413.5Q269 393 257.5 358.5Q246 324 240.5 279.5Q235 235 235 188Q235 138 248 112Q261 86 286 86Q321 86 341.5 129Q362 172 373 254Q373 255 374 261.5Q375 268 375 269Q395 434 325 434Z" glyph-name="a" horiz-adv-x="691" unicode="a" /><glyph d="M516 -10Q461 -10 425 14.5Q389 39 379 89Q357 46 319 18Q281 -10 213 -10Q178 -10 144.5 3.5Q111 17 84.5 45Q58 73 42 115.5Q26 158 26 215Q26 278 43 335Q60 392 92 435.5Q124 479 169.5 504.5Q215 530 272 530Q327 530 359.5 507Q392 484 407 442L438 516L612 515L564 124Q560 89 580 89Q594 89 602 108Q610 127 616 170H686Q676 85 637.5 37.5Q599 -10 516 -10ZM325 434Q303 434 286 413.5Q269 393 257.5 358.5Q246 324 240.5 279.5Q235 235 235 188Q235 138 248 112Q261 86 286 86Q321 86 341.5 129Q362 172 373 254Q373 255 374 261.5Q375 268 375 269Q395 434 325 434ZM321 617 382 695Q424 748 460 766.5Q496 785 535 785Q576 785 590 771Q604 757 603 737Q603 713 578 692.5Q553 672 486 649L388 617Z" glyph-name="aacute" horiz-adv-x="690" unicode="&#225;" /><glyph d="M516 -10Q461 -10 425 14.5Q389 39 379 89Q357 46 319 18Q281 -10 213 -10Q178 -10 144.5 3.5Q111 17 84.5 45Q58 73 42 115.5Q26 158 26 215Q26 278 43 335Q60 392 92 435.5Q124 479 169.5 504.5Q215 530 272 530Q327 530 359.5 507Q392 484 407 442L438 516L612 515L564 124Q560 89 580 89Q594 89 602 108Q610 127 616 170H686Q676 85 637.5 37.5Q599 -10 516 -10ZM325 434Q303 434 286 413.5Q269 393 257.5 358.5Q246 324 240.5 279.5Q235 235 235 188Q235 138 248 112Q261 86 286 86Q321 86 341.5 129Q362 172 373 254Q373 255 374 261.5Q375 268 375 269Q395 434 325 434ZM185 617 379 792H441L586 617H498L399 689L274 617Z" glyph-name="acircumflex" horiz-adv-x="690" unicode="&#226;" /><glyph d="M105 617 166 695Q208 748 244 766.5Q280 785 319 785Q360 785 374 771Q388 757 387 737Q387 713 362 692.5Q337 672 270 649L172 617Z" glyph-name="acute" horiz-adv-x="366" unicode="&#180;" /><glyph d="M186 740H116L185 815Q197 828 210 841Q223 854 238 864.5Q253 875 271.5 882Q290 889 314 889Q343 889 358 877Q373 865 373 845Q373 821 355 802.5Q337 784 295 773Z" glyph-name="acute.cap" horiz-adv-x="346" /><glyph d="M110 601 124 658Q142 733 171 766.5Q200 800 249 800Q281 800 296.5 784.5Q312 769 312 743Q312 723 292 696.5Q272 670 224 636L177 601Z" glyph-name="acute.pl" horiz-adv-x="288" /><glyph d="M125 735 152 813Q169 860 189.5 882.5Q210 905 245 905Q274 905 286 891.5Q298 878 298 858Q298 836 283 814.5Q268 793 242 772L197 735Z" glyph-name="acute.uc.pl" horiz-adv-x="263" /><glyph d="M516 -10Q461 -10 425 14.5Q389 39 379 89Q357 46 319 18Q281 -10 213 -10Q178 -10 144.5 3.5Q111 17 84.5 45Q58 73 42 115.5Q26 158 26 215Q26 278 43 335Q60 392 92 435.5Q124 479 169.5 504.5Q215 530 272 530Q327 530 359.5 507Q392 484 407 442L438 516L612 515L564 124Q560 89 580 89Q594 89 602 108Q610 127 616 170H686Q676 85 637.5 37.5Q599 -10 516 -10ZM325 434Q303 434 286 413.5Q269 393 257.5 358.5Q246 324 240.5 279.5Q235 235 235 188Q235 138 248 112Q261 86 286 86Q321 86 341.5 129Q362 172 373 254Q373 255 374 261.5Q375 268 375 269Q395 434 325 434ZM578 702Q578 660 550.5 633Q523 606 480 606Q444 606 423 627Q402 648 402 680Q402 722 429.5 749Q457 776 500 776Q537 776 557.5 755Q578 734 578 702ZM355 702Q355 660 327 633Q299 606 256 606Q220 606 199 627Q178 648 178 680Q178 722 206 749Q234 776 277 776Q313 776 334 755Q355 734 355 702Z" glyph-name="adieresis" horiz-adv-x="690" unicode="&#228;" /><glyph d="M618 -10Q546 -10 493.5 19.5Q441 49 415 103Q391 54 347.5 22Q304 -10 228 -10Q132 -10 79 49Q26 108 26 214Q26 278 43.5 335.5Q61 393 93 436Q125 479 170.5 504.5Q216 530 272 530Q369 530 408 462L436 516H510L503 463Q538 495 584.5 512.5Q631 530 685 530Q783 530 839.5 489.5Q896 449 896 380Q896 330 865.5 297.5Q835 265 788 246Q741 227 684 219Q627 211 573 211V195Q573 138 601 111Q629 84 677 84Q726 84 755.5 109Q785 134 805 176L874 151Q861 119 840 89.5Q819 60 788.5 38Q758 16 716 3Q674 -10 618 -10ZM660 450Q642 450 628 435.5Q614 421 603.5 396.5Q593 372 586.5 339.5Q580 307 577 271Q632 276 665 305.5Q698 335 698 393Q698 416 689.5 433Q681 450 660 450ZM288 88Q321 88 341.5 126Q362 164 373 239Q374 243 375 253.5Q376 264 377 269Q387 351 373.5 391.5Q360 432 328 432Q305 432 287.5 411.5Q270 391 258.5 357Q247 323 241.5 278.5Q236 234 236 187Q236 88 288 88Z" glyph-name="ae" horiz-adv-x="911" unicode="&#230;" /><glyph d="M516 -10Q461 -10 425 14.5Q389 39 379 89Q357 46 319 18Q281 -10 213 -10Q178 -10 144.5 3.5Q111 17 84.5 45Q58 73 42 115.5Q26 158 26 215Q26 278 43 335Q60 392 92 435.5Q124 479 169.5 504.5Q215 530 272 530Q327 530 359.5 507Q392 484 407 442L438 516L612 515L564 124Q560 89 580 89Q594 89 602 108Q610 127 616 170H686Q676 85 637.5 37.5Q599 -10 516 -10ZM325 434Q303 434 286 413.5Q269 393 257.5 358.5Q246 324 240.5 279.5Q235 235 235 188Q235 138 248 112Q261 86 286 86Q321 86 341.5 129Q362 172 373 254Q373 255 374 261.5Q375 268 375 269Q395 434 325 434ZM281 649Q250 661 230.5 671Q211 681 200.5 690.5Q190 700 186.5 708.5Q183 717 183 726Q183 750 205.5 767.5Q228 785 269 785Q307 785 335 770.5Q363 756 385 714L436 617H370Z" glyph-name="agrave" horiz-adv-x="690" unicode="&#224;" /><glyph d="M619 -10Q583 -10 552 -2.5Q521 5 486 31Q440 10 390.5 0Q341 -10 287 -10Q227 -10 177.5 -1Q128 8 92.5 26.5Q57 45 37.5 75Q18 105 18 147Q18 181 29 208.5Q40 236 63 259.5Q86 283 121 304Q156 325 204 346Q157 408 137.5 449.5Q118 491 118 530Q118 568 138.5 599Q159 630 196 652.5Q233 675 283 687.5Q333 700 392 700Q444 700 489 690.5Q534 681 567 664Q600 647 618.5 622.5Q637 598 637 568Q637 535 622 508Q607 481 578 456Q549 431 506.5 408Q464 385 408 359Q424 338 443 313.5Q462 289 482 264.5Q502 240 521 217.5Q540 195 556 177Q601 232 624 308H561L571 396H800L790 308H721Q701 248 673.5 201Q646 154 611 117Q637 89 650 83.5Q663 78 677 78Q700 78 713 102.5Q726 127 734 180H810Q799 88 755 39Q711 -10 619 -10ZM315 536Q315 507 325.5 481Q336 455 359 421Q381 440 396 460Q411 480 420.5 499.5Q430 519 434 535.5Q438 552 438 564Q438 591 424.5 607.5Q411 624 384 624Q367 624 354 616Q341 608 332.5 595.5Q324 583 319.5 567.5Q315 552 315 536ZM345 78Q365 78 382.5 81.5Q400 85 417 90Q401 107 382 128.5Q363 150 342.5 174Q322 198 301.5 223.5Q281 249 263 272Q242 252 230.5 227.5Q219 203 219 174Q219 120 254.5 99Q290 78 345 78Z" glyph-name="ampersand" horiz-adv-x="837" unicode="&amp;" /><glyph d="M674 -10Q642 -10 607 -3.5Q572 3 528 34Q435 -10 320 -10Q255 -10 201 -1.5Q147 7 108 26Q69 45 47.5 74.5Q26 104 26 147Q26 182 37.5 210.5Q49 239 73 266Q97 293 134.5 321Q172 349 224 385L241 397L105 601L117 690H688L677 601L435 434L601 190Q627 219 648 254.5Q669 290 683 331H609L619 419H856L846 331H773Q724 203 647 121Q670 92 686 85Q702 78 722 78Q748 78 765.5 107Q783 136 793 212H869Q864 167 853.5 127Q843 87 821 56.5Q799 26 764 8Q729 -10 674 -10ZM545 601H322L392 498ZM386 78Q422 78 462 92Q415 140 355 226L294 318Q268 288 257 258.5Q246 229 246 196Q246 134 283.5 106Q321 78 386 78Z" glyph-name="ampersand.alt" horiz-adv-x="904" /><glyph d="M612 -8Q585 -8 553 -4Q521 0 479 26Q399 -8 292 -8Q233 -8 182.5 -2Q132 4 95.5 19Q59 34 38 59.5Q17 85 17 124Q17 150 26 170.5Q35 191 56 211.5Q77 232 112.5 254.5Q148 277 200 307L209 312L79 468L90 550H619L608 468L390 338L540 154Q564 177 583.5 204.5Q603 232 615 264H549L559 347H775L766 264H701Q659 161 589 97Q604 84 618 79.5Q632 75 647 75Q673 75 691 100Q709 125 717 185H790Q785 141 773.5 105Q762 69 741.5 44Q721 19 689.5 5.5Q658 -8 612 -8ZM481 468H283L346 391ZM355 75Q383 75 408 82Q388 102 365 127Q342 152 316 184L263 247Q231 212 231 163Q231 120 264 97.5Q297 75 355 75Z" glyph-name="ampersand.alt.sc" horiz-adv-x="820" /><glyph d="M394 -10Q218 -10 126 52.5Q34 115 34 240Q34 292 53 343.5Q72 395 111 436.5Q150 478 208.5 504Q267 530 345 530Q404 530 448.5 513Q493 496 522.5 467.5Q552 439 566.5 401.5Q581 364 581 324Q581 316 580.5 309Q580 302 579 297H735Q741 329 741 363Q741 421 722 459Q694 434 655 434Q626 434 603.5 451.5Q581 469 581 502Q581 538 607.5 564Q634 590 683 590Q722 590 749.5 572Q777 554 794 525Q811 496 819 459.5Q827 423 827 386Q827 363 825 341Q823 319 819 297H896L887 230H800Q781 179 746.5 135Q712 91 662 58.5Q612 26 545.5 8Q479 -10 394 -10ZM371 297Q374 317 376.5 336.5Q379 356 379 373Q379 405 368.5 427.5Q358 450 330 450Q311 450 296.5 438Q282 426 271.5 405Q261 384 255 356.5Q249 329 246 297ZM445 83Q542 83 610.5 121.5Q679 160 713 230H238V224Q238 182 254 154.5Q270 127 297.5 111.5Q325 96 363 89.5Q401 83 445 83Z" glyph-name="ampersand.old" horiz-adv-x="903" /><glyph d="M560 -8Q528 -8 500.5 -3Q473 2 440 21Q358 -8 262 -8Q207 -8 161.5 -1.5Q116 5 83 19.5Q50 34 31.5 58.5Q13 83 13 119Q13 172 52 207Q91 242 178 276Q135 326 117 358.5Q99 391 99 422Q99 454 118 479Q137 504 171 521.5Q205 539 252 548.5Q299 558 354 558Q402 558 443.5 551Q485 544 516 530.5Q547 517 564.5 497.5Q582 478 582 454Q582 402 529 365.5Q476 329 374 288Q388 273 405 256Q422 239 440 221.5Q458 204 475.5 187Q493 170 508 156Q525 174 537.5 195Q550 216 558 238H503L513 321H722L712 238H652Q621 155 560 100Q583 82 593.5 78.5Q604 75 616 75Q635 75 645 91.5Q655 108 660 151H734Q724 73 684.5 32.5Q645 -8 560 -8ZM290 424Q290 402 298.5 384Q307 366 327 346Q365 377 377.5 401Q390 425 390 448Q390 488 347 488Q318 488 304 467.5Q290 447 290 424ZM318 75Q337 75 349 77.5Q361 80 367 83Q340 106 304 141Q268 176 236 205Q222 192 214.5 178Q207 164 207 146Q207 105 238.5 90Q270 75 318 75Z" glyph-name="ampersand.sc" horiz-adv-x="765" /><glyph d="M478 -10Q451 -10 425.5 -2Q400 6 371 30Q302 -10 208 -10Q169 -10 134.5 -2.5Q100 5 74 21.5Q48 38 32.5 65.5Q17 93 17 133Q17 168 27.5 198Q38 228 56 253.5Q74 279 98 301Q122 323 148 342Q122 392 110.5 431Q99 470 99 503Q99 556 116 593.5Q133 631 162 654.5Q191 678 229.5 689Q268 700 311 700Q390 700 436.5 666.5Q483 633 483 570Q483 536 470.5 508Q458 480 435 454.5Q412 429 379 404.5Q346 380 305 352Q326 314 356.5 269Q387 224 412 191Q438 241 450 308H403L412 388H607L597 308H548Q533 251 512.5 203Q492 155 465 117Q482 95 491.5 89Q501 83 511 83Q528 83 538.5 101Q549 119 555 174H616Q611 133 601.5 99Q592 65 575.5 41Q559 17 535 3.5Q511 -10 478 -10ZM249 527Q249 504 254 480.5Q259 457 268 431Q302 464 318.5 501Q335 538 335 574Q335 597 327.5 610.5Q320 624 302 624Q276 624 262.5 595.5Q249 567 249 527ZM276 78Q297 78 317 88Q291 119 260 163.5Q229 208 203 249Q192 229 185.5 207Q179 185 179 162Q179 116 205.5 97Q232 78 276 78Z" glyph-name="ampersand.tln" horiz-adv-x="640" /><glyph d="M572 230Q557 176 531.5 132Q506 88 469.5 56.5Q433 25 383.5 7.5Q334 -10 271 -10Q214 -10 167.5 5Q121 20 88 49.5Q55 79 37 123.5Q19 168 19 227Q19 285 36.5 339.5Q54 394 86.5 436.5Q119 479 165 504.5Q211 530 269 530Q313 530 344.5 514Q376 498 396 471.5Q416 445 425.5 410.5Q435 376 435 338Q435 315 432 297H500Q506 339 506 387Q506 405 505 421Q504 437 501 448Q499 447 496 446Q489 444 481 444Q457 444 438 461Q419 478 419 507Q419 541 440.5 565.5Q462 590 500 590Q551 590 572.5 543Q594 496 594 421Q594 357 585 297H634L626 230ZM287 380Q287 409 280 429.5Q273 450 252 450Q238 450 227.5 436.5Q217 423 209 401.5Q201 380 195.5 352.5Q190 325 186 297H280Q282 320 284.5 340.5Q287 361 287 380ZM309 83Q374 83 418 122Q462 161 484 230H179V224Q173 149 208 116Q243 83 309 83Z" glyph-name="ampersand.ton" horiz-adv-x="640" /><glyph d="M516 -10Q461 -10 425 14.5Q389 39 379 89Q357 46 319 18Q281 -10 213 -10Q178 -10 144.5 3.5Q111 17 84.5 45Q58 73 42 115.5Q26 158 26 215Q26 278 43 335Q60 392 92 435.5Q124 479 169.5 504.5Q215 530 272 530Q327 530 359.5 507Q392 484 407 442L438 516L612 515L564 124Q560 89 580 89Q594 89 602 108Q610 127 616 170H686Q676 85 637.5 37.5Q599 -10 516 -10ZM325 434Q303 434 286 413.5Q269 393 257.5 358.5Q246 324 240.5 279.5Q235 235 235 188Q235 138 248 112Q261 86 286 86Q321 86 341.5 129Q362 172 373 254Q373 255 374 261.5Q375 268 375 269Q395 434 325 434ZM377 601Q334 601 305 629Q276 657 276 699Q276 751 310.5 787Q345 823 405 823Q448 823 477 795Q506 767 506 725Q506 673 471.5 637Q437 601 377 601ZM387 674Q405 674 417 686Q429 698 429 716Q429 731 419 740.5Q409 750 395 750Q377 750 365 738Q353 726 353 709Q353 693 363 683.5Q373 674 387 674Z" glyph-name="aring" horiz-adv-x="690" unicode="&#229;" /><glyph d="M261 583 144 384H51L231 690H321L424 384H328Z" glyph-name="asciicircum" horiz-adv-x="441" unicode="^" /><glyph d="M361 583 244 384H151L331 690H421L524 384H428Z" glyph-name="asciicircum.tln" horiz-adv-x="640" /><glyph d="M551 395Q547 361 538.5 325Q530 289 511 260Q492 231 461 212.5Q430 194 380 194Q333 194 307 209.5Q281 225 264 244Q247 263 233 278.5Q219 294 196 294Q167 294 152 269.5Q137 245 132 201H45Q49 236 59.5 271.5Q70 307 90.5 336Q111 365 144 383.5Q177 402 225 402Q270 402 295 386.5Q320 371 337 352Q354 333 368 317.5Q382 302 406 302Q433 302 446 326Q459 350 465 395Z" glyph-name="asciitilde" horiz-adv-x="584" unicode="~" /><glyph d="M579 395Q575 361 566.5 325Q558 289 539 260Q520 231 489 212.5Q458 194 408 194Q361 194 335 209.5Q309 225 292 244Q275 263 261 278.5Q247 294 224 294Q195 294 180 269.5Q165 245 160 201H73Q77 236 87.5 271.5Q98 307 118.5 336Q139 365 172 383.5Q205 402 253 402Q298 402 323 386.5Q348 371 365 352Q382 333 396 317.5Q410 302 434 302Q461 302 474 326Q487 350 493 395Z" glyph-name="asciitilde.tln" horiz-adv-x="640" /><glyph d="M278 519H253L221 613Q214 636 217.5 652Q221 668 231.5 679Q242 690 257 695Q272 700 287 700Q301 700 314.5 694.5Q328 689 336.5 678.5Q345 668 345 651.5Q345 635 332 613ZM247 515 232 493 131 502Q107 504 95 515Q83 526 80 540Q77 554 81 569.5Q85 585 92 596Q100 608 113.5 617Q127 626 143 628Q159 630 174.5 623Q190 616 202 595ZM291 493 282 515 348 595Q364 615 381 622Q398 629 413 627Q428 625 440 616.5Q452 608 457 597Q462 586 462.5 570.5Q463 555 456.5 540.5Q450 526 435 515Q420 504 394 502ZM172 385Q156 366 139.5 360Q123 354 109 356.5Q95 359 84.5 368.5Q74 378 69 388Q63 400 62.5 415Q62 430 68.5 444Q75 458 89.5 468.5Q104 479 129 481L231 490L241 468ZM393 480Q416 478 427.5 467Q439 456 442 442Q445 428 441 413Q437 398 429 387Q421 376 407.5 367Q394 358 379 356Q364 354 349 360.5Q334 367 322 386L274 465L291 488ZM236 285Q221 285 207 290Q193 295 185 305.5Q177 316 176.5 331.5Q176 347 188 367L245 464H271L305 366Q312 345 307.5 329.5Q303 314 292 304.5Q281 295 265.5 290Q250 285 236 285Z" glyph-name="asterisk" horiz-adv-x="467" unicode="*" /><glyph d="M241 402H218L187 484Q180 504 183 518Q186 532 196 541Q206 550 220 554Q234 558 248 558Q262 558 274.5 553.5Q287 549 295 539.5Q303 530 303.5 516Q304 502 292 484ZM213 399 199 381 106 387Q83 389 71.5 398Q60 407 57.5 419.5Q55 432 58.5 445.5Q62 459 69 469Q76 479 88.5 487Q101 495 115.5 497Q130 499 145 493Q160 487 171 468ZM254 381 245 399 304 468Q319 486 335 492Q351 498 365.5 496.5Q380 495 391 487Q402 479 407 470Q412 460 412.5 446.5Q413 433 406.5 420Q400 407 386 398Q372 389 349 387ZM145 287Q130 270 115 264.5Q100 259 87 261.5Q74 264 64.5 272.5Q55 281 50 291Q45 301 44.5 314.5Q44 328 49.5 340Q55 352 68 361.5Q81 371 104 372L198 378L208 358ZM349 371Q370 370 380.5 361Q391 352 394 339Q397 326 393.5 312.5Q390 299 383 290Q375 280 362.5 272Q350 264 336 262Q322 260 308 266Q294 272 283 289L239 356L254 375ZM204 201Q189 201 176.5 206Q164 211 156.5 220Q149 229 148.5 242Q148 255 159 272L212 355H235L268 271Q275 253 271 239.5Q267 226 256.5 217.5Q246 209 232 205Q218 201 204 201Z" glyph-name="asterisk.sc" horiz-adv-x="426" /><glyph d="M365 519H340L308 613Q301 636 304.5 652Q308 668 318.5 679Q329 690 344 695Q359 700 374 700Q388 700 401.5 694.5Q415 689 423.5 678.5Q432 668 432 651.5Q432 635 419 613ZM334 515 319 493 218 502Q194 504 182 515Q170 526 167 540Q164 554 168 569.5Q172 585 179 596Q187 608 200.5 617Q214 626 230 628Q246 630 261.5 623Q277 616 289 595ZM378 493 369 515 435 595Q451 615 468 622Q485 629 500 627Q515 625 527 616.5Q539 608 544 597Q549 586 549.5 570.5Q550 555 543.5 540.5Q537 526 522 515Q507 504 481 502ZM259 385Q243 366 226.5 360Q210 354 196 356.5Q182 359 171.5 368.5Q161 378 156 388Q150 400 149.5 415Q149 430 155.5 444Q162 458 176.5 468.5Q191 479 216 481L318 490L328 468ZM480 480Q503 478 514.5 467Q526 456 529 442Q532 428 528 413Q524 398 516 387Q508 376 494.5 367Q481 358 466 356Q451 354 436 360.5Q421 367 409 386L361 465L378 488ZM323 285Q308 285 294 290Q280 295 272 305.5Q264 316 263.5 331.5Q263 347 275 367L332 464H358L392 366Q399 345 394.5 329.5Q390 314 379 304.5Q368 295 352.5 290Q337 285 323 285Z" glyph-name="asterisk.tln" horiz-adv-x="640" /><glyph d="M741 -161Q700 -185 632.5 -199Q565 -213 469 -213Q377 -213 296 -192Q215 -171 155 -127Q95 -83 60 -14.5Q25 54 25 148Q25 247 62 339Q99 431 168.5 501Q238 571 339.5 613Q441 655 570 655Q675 655 753.5 631Q832 607 884.5 563Q937 519 963.5 455.5Q990 392 990 312Q990 245 973.5 186Q957 127 924 83.5Q891 40 842 15Q793 -10 728 -10Q651 -10 612 17.5Q573 45 559 85Q532 38 494.5 14Q457 -10 392 -10Q356 -10 326 -0.5Q296 9 273.5 28.5Q251 48 238.5 78.5Q226 109 226 151Q226 203 243.5 256Q261 309 295.5 352Q330 395 381 422Q432 449 499 449Q547 449 576 433.5Q605 418 622 388L750 447H786L722 178Q718 163 715.5 149Q713 135 713 122Q713 99 723.5 86.5Q734 74 760 74Q787 74 810 91Q833 108 850 138.5Q867 169 876.5 212.5Q886 256 886 309Q886 440 803 503.5Q720 567 565 567Q460 567 378.5 534Q297 501 241.5 444Q186 387 157 311Q128 235 128 150Q128 76 156 24Q184 -28 232 -61Q280 -94 344.5 -109.5Q409 -125 483 -125Q546 -125 605.5 -116Q665 -107 731 -80ZM408 136Q408 107 417.5 90.5Q427 74 450 74Q481 74 505.5 114Q530 154 547 214Q555 243 559 267.5Q563 292 563 311Q563 365 523 365Q501 365 480 343.5Q459 322 443 288.5Q427 255 417.5 214.5Q408 174 408 136Z" glyph-name="at" horiz-adv-x="1026" unicode="@" /><glyph d="M762 -31Q721 -55 653.5 -69Q586 -83 490 -83Q398 -83 317 -62Q236 -41 176 3Q116 47 81 115.5Q46 184 46 278Q46 377 83 469Q120 561 189.5 631Q259 701 360.5 743Q462 785 591 785Q696 785 774.5 761Q853 737 905.5 693Q958 649 984.5 585.5Q1011 522 1011 442Q1011 375 994.5 316Q978 257 945 213.5Q912 170 863 145Q814 120 749 120Q672 120 633 147.5Q594 175 580 215Q553 168 515.5 144Q478 120 413 120Q377 120 347 129.5Q317 139 294.5 158.5Q272 178 259.5 208.5Q247 239 247 281Q247 333 264.5 386Q282 439 316.5 482Q351 525 402 552Q453 579 520 579Q568 579 597 563.5Q626 548 643 518L771 577H807L743 308Q739 293 736.5 279Q734 265 734 252Q734 229 744.5 216.5Q755 204 781 204Q808 204 831 221Q854 238 871 268.5Q888 299 897.5 342.5Q907 386 907 439Q907 570 824 633.5Q741 697 586 697Q481 697 399.5 664Q318 631 262.5 574Q207 517 178 441Q149 365 149 280Q149 206 177 154Q205 102 253 69Q301 36 365.5 20.5Q430 5 504 5Q567 5 626.5 14Q686 23 752 50ZM429 266Q429 237 438.5 220.5Q448 204 471 204Q502 204 526.5 244Q551 284 568 344Q576 373 580 397.5Q584 422 584 441Q584 495 544 495Q522 495 501 473.5Q480 452 464 418.5Q448 385 438.5 344.5Q429 304 429 266Z" glyph-name="at.cap" horiz-adv-x="1021" /><glyph d="M361 -8Q287 -8 223.5 5.5Q160 19 115 50.5Q70 82 48 132.5Q26 183 35 257Q44 328 79 384Q114 440 169 478.5Q224 517 296.5 537.5Q369 558 453 558Q530 558 590.5 542.5Q651 527 691 496.5Q731 466 749 422Q767 378 760 321Q748 223 696 172.5Q644 122 556 122Q495 122 467 145Q439 168 434 193Q413 157 379 139.5Q345 122 304 122Q274 122 248.5 131Q223 140 206 159.5Q189 179 183.5 208.5Q178 238 188 280Q197 320 218 348.5Q239 377 265.5 395Q292 413 322.5 421.5Q353 430 381 430Q450 430 480 395L589 429H610L565 249Q562 236 560 224.5Q558 213 559.5 204Q561 195 568 190Q575 185 589 185Q619 185 643 216.5Q667 248 675 314Q681 364 665.5 397.5Q650 431 617.5 451Q585 471 538.5 480Q492 489 436 489Q377 489 323 475Q269 461 226 432Q183 403 154.5 359.5Q126 316 118 257Q112 203 129.5 165.5Q147 128 182 105.5Q217 83 267 73Q317 63 375 63Q421 63 470 68Q519 73 568 88L573 22Q543 7 488 -0.5Q433 -8 361 -8ZM354 181Q374 181 391.5 205.5Q409 230 420 272Q431 313 431 340Q431 367 408 367Q388 367 369 343.5Q350 320 339 280Q327 239 329 210Q331 181 354 181Z" glyph-name="at.sc" horiz-adv-x="782" /><glyph d="M459 -161Q434 -182 390 -197.5Q346 -213 278 -213Q206 -213 150 -189Q94 -165 56.5 -118.5Q19 -72 2 -3.5Q-15 65 -10 155Q-5 254 25.5 344.5Q56 435 107.5 504Q159 573 230 614Q301 655 388 655Q475 655 528.5 619.5Q582 584 608.5 526Q635 468 639 393.5Q643 319 632 240Q625 190 610 145Q595 100 571 65.5Q547 31 512.5 10.5Q478 -10 433 -10Q404 -10 386 -2Q368 6 358 20Q348 34 344.5 52.5Q341 71 341 93Q326 46 294.5 18Q263 -10 218 -10Q165 -10 139.5 36Q114 82 130 179Q138 241 157.5 291Q177 341 203.5 376Q230 411 260.5 430Q291 449 321 449Q341 449 354 443.5Q367 438 375.5 429Q384 420 388 409.5Q392 399 394 390L463 449H508L453 168Q450 151 447 136.5Q444 122 443 109Q441 93 445.5 83.5Q450 74 462 74Q474 74 485.5 87.5Q497 101 507 124Q517 147 525 177.5Q533 208 537 243Q546 300 547.5 358Q549 416 534 462.5Q519 509 483 538Q447 567 380 567Q319 567 266.5 533.5Q214 500 175 443.5Q136 387 112 312.5Q88 238 84 156Q81 90 91.5 37.5Q102 -15 127 -52Q152 -89 192 -109Q232 -129 287 -129Q322 -129 360 -121.5Q398 -114 443 -84ZM262 203Q252 147 249.5 110.5Q247 74 266 74Q283 74 300.5 105.5Q318 137 334 213Q339 230 341 244.5Q343 259 345 272Q352 315 350 340Q348 365 334 365Q322 365 311 352Q300 339 290.5 317Q281 295 274 265.5Q267 236 262 203Z" glyph-name="at.tln" horiz-adv-x="640" /><glyph d="M516 -10Q461 -10 425 14.5Q389 39 379 89Q357 46 319 18Q281 -10 213 -10Q178 -10 144.5 3.5Q111 17 84.5 45Q58 73 42 115.5Q26 158 26 215Q26 278 43 335Q60 392 92 435.5Q124 479 169.5 504.5Q215 530 272 530Q327 530 359.5 507Q392 484 407 442L438 516L612 515L564 124Q560 89 580 89Q594 89 602 108Q610 127 616 170H686Q676 85 637.5 37.5Q599 -10 516 -10ZM325 434Q303 434 286 413.5Q269 393 257.5 358.5Q246 324 240.5 279.5Q235 235 235 188Q235 138 248 112Q261 86 286 86Q321 86 341.5 129Q362 172 373 254Q373 255 374 261.5Q375 268 375 269Q395 434 325 434ZM436 609Q412 609 392.5 618Q373 627 356 637.5Q339 648 324 656.5Q309 665 295 665Q275 665 265 651Q255 637 251 612H182Q191 684 220 725Q249 766 308 766Q332 766 352 757.5Q372 749 389 738.5Q406 728 421 719Q436 710 451 710Q486 710 492 763H561Q557 727 549 698Q541 669 527 649.5Q513 630 491 619.5Q469 609 436 609Z" glyph-name="atilde" horiz-adv-x="690" unicode="&#227;" /><glyph d="M375 -10Q332 -10 296 7.5Q260 25 230 73L64 -8H27L106 658H47L59 746Q130 746 174 747Q218 748 245 749.5Q272 751 285.5 753.5Q299 756 308 760L325 750L310 627Q306 596 303 572.5Q300 549 297 529.5Q294 510 291 492Q288 474 284 454Q304 487 341.5 508.5Q379 530 430 530Q473 530 507.5 514Q542 498 566 469Q590 440 603 399.5Q616 359 616 310Q616 247 599 189Q582 131 551 86.5Q520 42 475.5 16Q431 -10 375 -10ZM315 86Q338 86 355 105.5Q372 125 383 158.5Q394 192 400 236Q406 280 406 328Q406 379 392.5 406.5Q379 434 352 434Q319 434 299.5 395.5Q280 357 271 297Q269 283 268 269.5Q267 256 265 242Q259 169 270.5 127.5Q282 86 315 86Z" glyph-name="b" horiz-adv-x="641" unicode="b" /><glyph d="M416 -100 82 760H193L527 -100Z" glyph-name="backslash" horiz-adv-x="590" unicode="\" /><glyph d="M418 -70 84 790H195L529 -70Z" glyph-name="backslash.cap" horiz-adv-x="588" /><glyph d="M381 -60 72 626H178L487 -60Z" glyph-name="backslash.sc" horiz-adv-x="545" /><glyph d="M441 -100 107 760H218L552 -100Z" glyph-name="backslash.tln" horiz-adv-x="640" /><glyph d="M18 -250 152 840H251L117 -250Z" glyph-name="bar" horiz-adv-x="260" unicode="|" /><glyph d="M23 -200 157 890H256L122 -200Z" glyph-name="bar.cap" horiz-adv-x="257" /><glyph d="M208 -250 342 840H441L307 -250Z" glyph-name="bar.tln" horiz-adv-x="640" /><glyph d="M329 -260Q242 -260 190.5 -241.5Q139 -223 112 -193Q85 -163 78.5 -124Q72 -85 75 -43Q79 -5 85 33.5Q91 72 93 106Q95 131 92.5 152.5Q90 174 79.5 189.5Q69 205 49.5 213.5Q30 222 -2 222L8 306Q43 306 65.5 315.5Q88 325 101.5 342Q115 359 122 381.5Q129 404 133 431Q137 462 139.5 496.5Q142 531 149 566Q158 610 174.5 645.5Q191 681 225 706.5Q259 732 314 746Q369 760 454 760L444 672Q419 672 402.5 663Q386 654 375.5 638Q365 622 358.5 599.5Q352 577 348 550Q343 520 339 486.5Q335 453 328 421Q321 390 309 362.5Q297 335 276.5 313.5Q256 292 225.5 278.5Q195 265 150 263Q194 260 221.5 245.5Q249 231 264 207.5Q279 184 284 154Q289 124 288 91Q287 56 283 20Q279 -16 276 -48Q273 -75 273.5 -98Q274 -121 281 -137.5Q288 -154 302 -163Q316 -172 340 -172Z" glyph-name="braceleft" horiz-adv-x="421" unicode="{" /><glyph d="M343 -180Q256 -180 204.5 -161.5Q153 -143 126 -113Q99 -83 92.5 -44Q86 -5 89 37Q93 75 99 113.5Q105 152 107 186Q109 211 106.5 232.5Q104 254 93.5 269.5Q83 285 63.5 293.5Q44 302 12 302L22 386Q57 386 79.5 395.5Q102 405 115.5 422Q129 439 136 461.5Q143 484 147 511Q151 542 153.5 576.5Q156 611 163 646Q172 690 188.5 725.5Q205 761 239 786.5Q273 812 328 826Q383 840 468 840L458 752Q433 752 416.5 743Q400 734 389.5 718Q379 702 372.5 679.5Q366 657 362 630Q357 600 353 566.5Q349 533 342 501Q335 470 323 442.5Q311 415 290.5 393.5Q270 372 239.5 358.5Q209 345 164 343Q208 340 235.5 325.5Q263 311 278 287.5Q293 264 298 234Q303 204 302 171Q301 136 297 100Q293 64 290 32Q287 5 287.5 -18Q288 -41 295 -57.5Q302 -74 316 -83Q330 -92 354 -92Z" glyph-name="braceleft.cap" horiz-adv-x="427" /><glyph d="M326 -131Q245 -131 197 -116.5Q149 -102 124 -77.5Q99 -53 92 -21Q85 11 87 45Q89 74 93.5 104Q98 134 99 160Q100 179 97 195Q94 211 85 222.5Q76 234 58.5 240.5Q41 247 13 247L22 325Q54 325 74 333Q94 341 106 354.5Q118 368 123.5 386.5Q129 405 132 426Q135 449 137.5 473.5Q140 498 145 522Q153 558 168 587.5Q183 617 214 638Q245 659 296 670.5Q347 682 426 682L416 598Q376 598 360.5 572Q345 546 339 508Q334 485 330.5 459.5Q327 434 321 408Q315 384 304 362.5Q293 341 274.5 324.5Q256 308 228.5 298Q201 288 160 286Q200 284 225.5 272Q251 260 265 242Q279 224 284.5 200.5Q290 177 290 151Q290 123 287.5 95Q285 67 283 41Q282 22 282.5 5.5Q283 -11 288.5 -23Q294 -35 305.5 -42Q317 -49 337 -49Z" glyph-name="braceleft.sc" horiz-adv-x="408" /><glyph d="M439 -260Q352 -260 300.5 -241.5Q249 -223 222 -193Q195 -163 188.5 -124Q182 -85 185 -43Q189 -5 195 33.5Q201 72 203 106Q205 131 202.5 152.5Q200 174 189.5 189.5Q179 205 159.5 213.5Q140 222 108 222L118 306Q153 306 175.5 315.5Q198 325 211.5 342Q225 359 232 381.5Q239 404 243 431Q247 462 249.5 496.5Q252 531 259 566Q268 610 284.5 645.5Q301 681 335 706.5Q369 732 424 746Q479 760 564 760L554 672Q529 672 512.5 663Q496 654 485.5 638Q475 622 468.5 599.5Q462 577 458 550Q453 520 449 486.5Q445 453 438 421Q431 390 419 362.5Q407 335 386.5 313.5Q366 292 335.5 278.5Q305 265 260 263Q304 260 331.5 245.5Q359 231 374 207.5Q389 184 394 154Q399 124 398 91Q397 56 393 20Q389 -16 386 -48Q383 -75 383.5 -98Q384 -121 391 -137.5Q398 -154 412 -163Q426 -172 450 -172Z" glyph-name="braceleft.tln" horiz-adv-x="640" /><glyph d="M89 760Q176 760 227.5 741.5Q279 723 306 693Q333 663 339.5 624Q346 585 343 543Q339 505 333 466.5Q327 428 325 394Q323 369 325.5 348Q328 327 338.5 311.5Q349 296 368.5 287.5Q388 279 420 279L409 195Q375 195 352.5 185.5Q330 176 316 159Q302 142 295 119Q288 96 285 69Q281 38 278.5 3.5Q276 -31 269 -66Q260 -110 243.5 -145.5Q227 -181 193 -206.5Q159 -232 104 -246Q49 -260 -36 -260L-26 -172Q-1 -172 15.5 -163Q32 -154 42.5 -138Q53 -122 59.5 -99.5Q66 -77 70 -50Q75 -20 79 13.5Q83 47 90 79Q97 110 109 137.5Q121 165 141.5 186.5Q162 208 192.5 221.5Q223 235 268 237Q224 240 196.5 254.5Q169 269 154 292.5Q139 316 134 346Q129 376 130 409Q131 444 135 480Q139 516 142 548Q145 575 144.5 598Q144 621 137 637.5Q130 654 116 663Q102 672 78 672Z" glyph-name="braceright" horiz-adv-x="419" unicode="}" /><glyph d="M102 840Q189 840 240.5 821.5Q292 803 319 773Q346 743 352.5 704Q359 665 356 623Q352 585 346 546.5Q340 508 338 474Q336 449 338.5 428Q341 407 351.5 391.5Q362 376 381.5 367.5Q401 359 433 359L422 275Q388 275 365.5 265.5Q343 256 329 239Q315 222 308 199Q301 176 298 149Q294 118 291.5 83.5Q289 49 282 14Q273 -30 256.5 -65.5Q240 -101 206 -126.5Q172 -152 117 -166Q62 -180 -23 -180L-13 -92Q12 -92 28.5 -83Q45 -74 55.5 -58Q66 -42 72.5 -19.5Q79 3 83 30Q88 60 92 93.5Q96 127 103 159Q110 190 122 217.5Q134 245 154.5 266.5Q175 288 205.5 301.5Q236 315 281 317Q237 320 209.5 334.5Q182 349 167 372.5Q152 396 147 426Q142 456 143 489Q144 524 148 560Q152 596 155 628Q158 655 157.5 678Q157 701 150 717.5Q143 734 129 743Q115 752 91 752Z" glyph-name="braceright.cap" horiz-adv-x="426" /><glyph d="M86 682Q167 682 215 667Q263 652 288.5 627.5Q314 603 321 571Q328 539 326 505Q324 476 319.5 446Q315 416 313 390Q312 371 315 355Q318 339 327.5 327.5Q337 316 354.5 309.5Q372 303 400 303L391 225Q360 225 339.5 217.5Q319 210 307 196.5Q295 183 289 164.5Q283 146 280 125Q278 102 275.5 76.5Q273 51 268 27Q260 -9 244.5 -38.5Q229 -68 198 -88.5Q167 -109 116.5 -120Q66 -131 -13 -131L-4 -49Q37 -49 52 -22.5Q67 4 74 41Q78 64 81.5 90Q85 116 91 142Q97 166 108 187.5Q119 209 137.5 225.5Q156 242 184 253Q212 264 252 265Q212 267 187 278.5Q162 290 147.5 308Q133 326 127.5 349.5Q122 373 122 398Q122 427 125 455Q128 483 130 509Q132 528 131 544Q130 560 124 572Q118 584 107 591Q96 598 76 598Z" glyph-name="braceright.sc" horiz-adv-x="408" /><glyph d="M200 760Q287 760 338.5 741.5Q390 723 417 693Q444 663 450.5 624Q457 585 454 543Q450 505 444 466.5Q438 428 436 394Q434 369 436.5 348Q439 327 449.5 311.5Q460 296 479.5 287.5Q499 279 531 279L520 195Q486 195 463.5 185.5Q441 176 427 159Q413 142 406 119Q399 96 396 69Q392 38 389.5 3.5Q387 -31 380 -66Q371 -110 354.5 -145.5Q338 -181 304 -206.5Q270 -232 215 -246Q160 -260 75 -260L85 -172Q110 -172 126.5 -163Q143 -154 153.5 -138Q164 -122 170.5 -99.5Q177 -77 181 -50Q186 -20 190 13.5Q194 47 201 79Q208 110 220 137.5Q232 165 252.5 186.5Q273 208 303.5 221.5Q334 235 379 237Q335 240 307.5 254.5Q280 269 265 292.5Q250 316 245 346Q240 376 241 409Q242 444 246 480Q250 516 253 548Q256 575 255.5 598Q255 621 248 637.5Q241 654 227 663Q213 672 189 672Z" glyph-name="braceright.tln" horiz-adv-x="640" /><glyph d="M18 -250 141 750H492L482 662H343L241 -162H380L369 -250Z" glyph-name="bracketleft" horiz-adv-x="450" unicode="[" /><glyph d="M27 -170 150 830H501L491 742H352L250 -82H389L378 -170Z" glyph-name="bracketleft.cap" horiz-adv-x="451" /><glyph d="M35 -121 132 676H464L453 592H329L252 -39H376L366 -121Z" glyph-name="bracketleft.sc" horiz-adv-x="438" /><glyph d="M113 -250 236 750H587L577 662H438L336 -162H475L464 -250Z" glyph-name="bracketleft.tln" horiz-adv-x="640" /><glyph d="M-34 -162H105L207 662H68L79 750H430L307 -250H-44Z" glyph-name="bracketright" horiz-adv-x="451" unicode="]" /><glyph d="M-22 -82H117L219 742H80L91 830H442L319 -170H-32Z" glyph-name="bracketright.cap" horiz-adv-x="451" /><glyph d="M-10 -39H114L191 592H68L77 676H408L311 -121H-21Z" glyph-name="bracketright.sc" horiz-adv-x="437" /><glyph d="M61 -162H200L302 662H163L174 750H525L402 -250H51Z" glyph-name="bracketright.tln" horiz-adv-x="640" /><glyph d="M272 706Q307 706 326 723.5Q345 741 353 771H431Q427 743 417.5 713.5Q408 684 388.5 660Q369 636 338 621Q307 606 260 606Q215 606 186 621Q157 636 141.5 660Q126 684 121.5 713.5Q117 743 120 771H198Q200 741 218.5 723.5Q237 706 272 706Z" glyph-name="breve" horiz-adv-x="407" unicode="&#728;" /><glyph d="M276 839Q312 839 332 855Q352 871 359 895H433Q430 868 420.5 840.5Q411 813 392 790.5Q373 768 342.5 754Q312 740 266 740Q223 740 195.5 754Q168 768 153 790.5Q138 813 134 840.5Q130 868 133 895H206Q208 871 225 855Q242 839 276 839Z" glyph-name="breve.cap" horiz-adv-x="396" /><glyph d="M97 400 151 840H250L196 400ZM17 -250 71 190H170L116 -250Z" glyph-name="brokenbar" horiz-adv-x="258" unicode="&#166;" /><glyph d="M288 400 342 840H441L387 400ZM208 -250 262 190H361L307 -250Z" glyph-name="brokenbar.tln" horiz-adv-x="640" /><glyph d="M495 151Q469 71 412.5 30.5Q356 -10 260 -10Q209 -10 165.5 5Q122 20 91 49.5Q60 79 42.5 121Q25 163 25 217Q25 286 46 344Q67 402 104.5 443Q142 484 195.5 507Q249 530 313 530Q403 530 454.5 496.5Q506 463 506 402Q506 365 480.5 339Q455 313 416 313Q378 313 358 331.5Q338 350 338 379Q338 416 367 437Q355 442 341 442Q313 442 293 419.5Q273 397 260 362.5Q247 328 241 285.5Q235 243 235 203Q235 82 325 82Q363 82 388 106.5Q413 131 427 176Z" glyph-name="c" horiz-adv-x="519" unicode="c" /><glyph d="M750 -10Q558 -10 584 204L612 428H554L563 499Q633 499 661 520Q689 541 694 578Q699 616 675.5 645Q652 674 594 674Q538 674 499.5 642Q461 610 445 557Q438 533 436 506Q503 474 503 406Q502 374 483 352Q464 330 423 329Q398 329 380.5 338.5Q363 348 352.5 363.5Q342 379 338 398.5Q334 418 336 439Q308 432 288.5 408Q269 384 257 351Q245 318 240 279Q235 240 235 203Q235 144 257 113Q279 82 325 82Q363 82 388 106.5Q413 131 427 176L495 151Q469 70 412.5 30Q356 -10 259 -10Q208 -10 165 5Q122 20 91 49.5Q60 79 42.5 121Q25 163 25 217Q25 286 46 344Q67 402 104.5 443Q142 484 195.5 507Q249 530 313 530Q321 530 328.5 530Q336 530 343 529Q346 542 349 554Q352 566 356 578Q382 666 446 713Q510 760 607 760Q665 760 710 746.5Q755 733 784.5 706.5Q814 680 826.5 640Q839 600 831 547L827 516H984L974 428H820L793 213Q786 160 792.5 127.5Q799 95 828 95Q857 95 871.5 129Q886 163 893 215H961Q947 105 897 47.5Q847 -10 750 -10Z" glyph-name="c_t" horiz-adv-x="980" /><glyph d="M736 -10Q706 -10 674 -2.5Q642 5 617.5 25Q593 45 579.5 81Q566 117 573 175L604 428H541L552 516H615Q620 549 620 577.5Q620 606 612 627.5Q604 649 585 661Q566 673 532 673Q509 673 487.5 664Q466 655 449.5 635.5Q433 616 422 586.5Q411 557 409 516Q503 488 503 406Q503 373 479 351Q455 329 423 329Q383 329 354.5 353.5Q326 378 314 416Q296 404 281.5 381Q267 358 256.5 328.5Q246 299 240.5 266Q235 233 235 203Q235 144 257 113Q279 82 325 82Q363 82 388 106.5Q413 131 427 176L495 151Q469 70 412.5 30Q356 -10 259 -10Q208 -10 165 5Q122 20 91 49.5Q60 79 42.5 121Q25 163 25 217Q25 286 45.5 343.5Q66 401 103.5 442.5Q141 484 193.5 507Q246 530 311 530Q317 574 334.5 615.5Q352 657 381 689Q410 721 452 740.5Q494 760 549 760Q627 760 673 726Q719 692 739 623L867 760L909 750Q885 704 858.5 648Q832 592 822 516H988L978 428H811L783 202Q776 145 783.5 120.5Q791 96 820 96Q838 96 849 110Q860 124 867 143.5Q874 163 877.5 183Q881 203 883 215H952Q946 175 934.5 135Q923 95 899.5 62.5Q876 30 836.5 10Q797 -10 736 -10Z" glyph-name="c_t.alt" horiz-adv-x="974" /><glyph d="M416 -8 391 32Q366 14 335.5 3Q305 -8 258 -8Q205 -8 162 8.5Q119 25 89 55.5Q59 86 42.5 129Q26 172 26 224Q26 296 48 357Q70 418 109.5 462.5Q149 507 205.5 532.5Q262 558 331 558Q376 558 404.5 547Q433 536 447 521L481 557H570L545 351H447Q447 354 448 357Q448 364 448 368Q447 413 430 442Q413 471 368 471Q337 471 312 447Q287 423 270 383Q253 343 244 293Q235 243 235 190Q235 131 258.5 105Q282 79 320 79Q345 79 364 90Q383 101 396.5 118.5Q410 136 418.5 158Q427 180 431 203H530L504 -8ZM686 83H746L794 469H781Q737 469 719.5 448Q702 427 695 375L690 342H592L618 550H1197L1171 342H1073L1077 375Q1085 429 1071.5 449Q1058 469 1018 469H1001L953 83H1013L1003 0H676Z" glyph-name="c_t.alt.sc" horiz-adv-x="1177" /><glyph d="M416 -8 391 32Q366 14 335.5 3Q305 -8 258 -8Q205 -8 162 8.5Q119 25 89 55.5Q59 86 42.5 129Q26 172 26 224Q26 296 48 357Q70 418 109.5 462.5Q149 507 205.5 532.5Q262 558 331 558Q376 558 404.5 547Q433 536 447 521L481 557H570L545 351H447Q447 354 448 357Q448 364 448 368Q447 413 430 442Q413 471 368 471Q337 471 312 447Q287 423 270 383Q253 343 244 293Q235 243 235 190Q235 131 258.5 105Q282 79 320 79Q345 79 364 90Q383 101 396.5 118.5Q410 136 418.5 158Q427 180 431 203H530L504 -8ZM686 83H746L794 469H781Q737 469 719.5 448Q702 427 695 375L690 342H592L618 550H1197L1171 342H1073L1077 375Q1085 429 1071.5 449Q1058 469 1018 469H1001L953 83H1013L1003 0H676Z" glyph-name="c_t.sc" horiz-adv-x="1177" /><glyph d="M212 791 312 718 436 791H524L331 616H270L123 791Z" glyph-name="caron" horiz-adv-x="496" unicode="&#711;" /><glyph d="M486 875 337 740H239L126 875H226L301 824L386 875Z" glyph-name="caron.cap" horiz-adv-x="446" /><glyph d="M237 -213Q211 -213 178 -209.5Q145 -206 126 -195L135 -124Q152 -140 185 -140Q202 -140 213 -132Q224 -124 224 -112Q224 -95 208.5 -88.5Q193 -82 167 -82L169 -65L197 -4Q119 13 72 69.5Q25 126 25 217Q25 286 46 344Q67 402 104.5 443Q142 484 195.5 507Q249 530 313 530Q403 530 454.5 496.5Q506 463 506 402Q506 365 480.5 339Q455 313 416 313Q378 313 358 331.5Q338 350 338 379Q338 416 367 437Q355 442 341 442Q313 442 293 419.5Q273 397 260 362.5Q247 328 241 285.5Q235 243 235 203Q235 82 325 82Q363 82 388 106.5Q413 131 427 176L495 151Q472 79 424 39.5Q376 0 298 -8L283 -40Q321 -46 345 -63.5Q369 -81 369 -115Q369 -157 333 -185Q297 -213 237 -213Z" glyph-name="ccedilla" horiz-adv-x="519" unicode="&#231;" /><glyph d="M139 -213Q113 -213 80 -209.5Q47 -206 28 -195L37 -124Q54 -140 87 -140Q104 -140 115 -132Q126 -124 126 -112Q126 -95 110.5 -88.5Q95 -82 69 -82L71 -65L107 13H210L185 -40Q223 -46 247 -63.5Q271 -81 271 -115Q271 -157 235 -185Q199 -213 139 -213Z" glyph-name="cedilla" horiz-adv-x="329" unicode="&#184;" /><glyph d="M516 231Q493 158 443 118Q393 78 312 71L301 -20H233L244 72Q200 77 163.5 94.5Q127 112 101 140.5Q75 169 60.5 208.5Q46 248 46 297Q46 363 65 418.5Q84 474 118.5 515Q153 556 201.5 580.5Q250 605 310 609L321 694H388L378 608Q448 600 487.5 568Q527 536 527 482Q527 445 501.5 419Q476 393 437 393Q399 393 379 411.5Q359 430 359 459Q359 496 388 517Q376 522 362 522Q334 522 314 499.5Q294 477 281 442.5Q268 408 262 365.5Q256 323 256 283Q256 162 346 162Q384 162 409 186.5Q434 211 448 256Z" glyph-name="cent" horiz-adv-x="551" unicode="&#162;" /><glyph d="M505 151Q482 78 432 38Q382 -2 301 -9L290 -100H222L233 -8Q189 -3 152.5 14.5Q116 32 90 60.5Q64 89 49.5 128.5Q35 168 35 217Q35 283 54 338.5Q73 394 107.5 435Q142 476 190.5 500.5Q239 525 299 529L310 614H377L367 528Q437 520 476.5 488Q516 456 516 402Q516 365 490.5 339Q465 313 426 313Q388 313 368 331.5Q348 350 348 379Q348 416 377 437Q365 442 351 442Q323 442 303 419.5Q283 397 270 362.5Q257 328 251 285.5Q245 243 245 203Q245 82 335 82Q373 82 398 106.5Q423 131 437 176Z" glyph-name="cent.old" horiz-adv-x="545" /><glyph d="M471 189Q448 126 404 95Q360 64 287 59L278 -14H214L223 59Q183 63 148.5 76.5Q114 90 89 113.5Q64 137 50 171Q36 205 36 249Q36 302 53 346Q70 390 101.5 421.5Q133 453 177.5 471.5Q222 490 276 493L284 559H348L340 492Q405 485 441.5 458.5Q478 432 478 386Q478 351 453.5 329Q429 307 389 307Q351 307 333 322.5Q315 338 315 364Q315 391 339 409Q331 411 324 411Q302 411 286 394Q270 377 260 351Q250 325 245.5 292.5Q241 260 241 229Q241 187 261.5 164.5Q282 142 320 142Q383 142 406 212Z" glyph-name="cent.sc" horiz-adv-x="508" /><glyph d="M560 231Q537 158 487 118Q437 78 356 71L345 -20H277L288 72Q244 77 207.5 94.5Q171 112 145 140.5Q119 169 104.5 208.5Q90 248 90 297Q90 363 109 418.5Q128 474 162.5 515Q197 556 245.5 580.5Q294 605 354 609L365 694H432L422 608Q492 600 531.5 568Q571 536 571 482Q571 445 545.5 419Q520 393 481 393Q443 393 423 411.5Q403 430 403 459Q403 496 432 517Q420 522 406 522Q378 522 358 499.5Q338 477 325 442.5Q312 408 306 365.5Q300 323 300 283Q300 162 390 162Q428 162 453 186.5Q478 211 492 256Z" glyph-name="cent.tln" horiz-adv-x="640" /><glyph d="M551 151Q528 78 478 38Q428 -2 347 -9L336 -100H268L279 -8Q235 -3 198.5 14.5Q162 32 136 60.5Q110 89 95.5 128.5Q81 168 81 217Q81 283 100 338.5Q119 394 153.5 435Q188 476 236.5 500.5Q285 525 345 529L356 614H423L413 528Q483 520 522.5 488Q562 456 562 402Q562 365 536.5 339Q511 313 472 313Q434 313 414 331.5Q394 350 394 379Q394 416 423 437Q411 442 397 442Q369 442 349 419.5Q329 397 316 362.5Q303 328 297 285.5Q291 243 291 203Q291 82 381 82Q419 82 444 106.5Q469 131 483 176Z" glyph-name="cent.ton" horiz-adv-x="640" /><glyph d="M99 616 293 791H355L500 616H412L313 688L188 616Z" glyph-name="circumflex" horiz-adv-x="492" unicode="&#710;" /><glyph d="M300 791 214 740H114L264 875H362L474 740H374Z" glyph-name="circumflex.cap" horiz-adv-x="450" /><glyph d="M246 395Q246 353 217.5 325.5Q189 298 145 298Q108 298 86.5 318.5Q65 339 65 373Q65 415 93 443Q121 471 164 471Q201 471 223.5 450Q246 429 246 395ZM208 87Q208 45 179.5 17.5Q151 -10 107 -10Q70 -10 48.5 10.5Q27 31 27 65Q27 107 55 135Q83 163 126 163Q163 163 185.5 142Q208 121 208 87Z" glyph-name="colon" horiz-adv-x="279" unicode=":" /><glyph d="M427 395Q427 353 398.5 325.5Q370 298 326 298Q289 298 267.5 318.5Q246 339 246 373Q246 415 274 443Q302 471 345 471Q382 471 404.5 450Q427 429 427 395ZM389 87Q389 45 360.5 17.5Q332 -10 288 -10Q251 -10 229.5 10.5Q208 31 208 65Q208 107 236 135Q264 163 307 163Q344 163 366.5 142Q389 121 389 87Z" glyph-name="colon.tln" horiz-adv-x="640" /><glyph d="M19 -83Q54 -80 78 -61.5Q102 -43 109 -11Q71 -9 46.5 10.5Q22 30 22 69Q22 106 47.5 134.5Q73 163 118 163Q166 163 187.5 135.5Q209 108 209 66Q209 29 196 -7.5Q183 -44 157.5 -74Q132 -104 95 -123.5Q58 -143 11 -146Z" glyph-name="comma" horiz-adv-x="265" unicode="," /><glyph d="M201 -83Q236 -80 260 -61.5Q284 -43 291 -11Q253 -9 228.5 10.5Q204 30 204 69Q204 106 229.5 134.5Q255 163 300 163Q348 163 369.5 135.5Q391 108 391 66Q391 29 378 -7.5Q365 -44 339.5 -74Q314 -104 277 -123.5Q240 -143 193 -146Z" glyph-name="comma.tln" horiz-adv-x="640" /><glyph d="M439 700Q508 700 565.5 677.5Q623 655 663.5 614.5Q704 574 726.5 518Q749 462 749 396Q749 309 718.5 234.5Q688 160 634.5 105.5Q581 51 508.5 20.5Q436 -10 352 -10Q282 -10 225.5 14Q169 38 128.5 80Q88 122 66 179Q44 236 44 303Q44 383 72 454.5Q100 526 152 581Q204 636 276.5 668Q349 700 439 700ZM429 613Q364 613 311.5 588Q259 563 221.5 520.5Q184 478 164 423Q144 368 144 308Q144 257 159 215Q174 173 202 142Q230 111 270.5 94Q311 77 363 77Q426 77 479 102.5Q532 128 569.5 171Q607 214 628 270Q649 326 649 387Q649 437 633 478.5Q617 520 588.5 550Q560 580 519.5 596.5Q479 613 429 613ZM438 182Q421 168 402.5 161Q384 154 358 154Q325 154 300 167Q275 180 258 202Q241 224 232 254Q223 284 223 318Q223 362 237 403Q251 444 276 475.5Q301 507 334 526Q367 545 405 545Q433 545 451.5 537.5Q470 530 478 518L498 545H554L537 404H473Q475 439 465 463Q455 487 425 487Q403 487 386.5 469.5Q370 452 359.5 425Q349 398 343.5 364.5Q338 331 338 298Q338 253 352.5 233Q367 213 391 213Q422 213 439 239Q456 265 462 298H526L509 154H453Z" glyph-name="copyright" horiz-adv-x="771" unicode="&#169;" /><glyph d="M272 -10Q217 -10 172 8Q127 26 96 57.5Q65 89 48 132.5Q31 176 31 226Q31 288 52 343.5Q73 399 113 440.5Q153 482 210 506Q267 530 339 530Q395 530 439.5 512Q484 494 515 462Q546 430 563 386.5Q580 343 580 293Q580 231 559 176Q538 121 498 79.5Q458 38 401 14Q344 -10 272 -10ZM282 62Q332 62 371.5 80Q411 98 438.5 129Q466 160 480.5 201.5Q495 243 495 289Q495 364 452.5 411Q410 458 330 458Q280 458 240 439.5Q200 421 172.5 390Q145 359 130.5 317.5Q116 276 116 230Q116 155 159 108.5Q202 62 282 62ZM334 137Q322 127 308.5 121.5Q295 116 275 116Q249 116 228 127Q207 138 193.5 157.5Q180 177 174 203Q168 229 171 258Q174 289 186.5 316.5Q199 344 217.5 364.5Q236 385 260 397Q284 409 310 409Q331 409 344 403.5Q357 398 364 390L380 409H427L413 300H361Q362 326 354.5 344Q347 362 325 362Q299 362 286.5 334Q274 306 269 257Q264 206 271.5 185Q279 164 301 164Q324 164 336 184Q348 204 353 228H406L392 116H345Z" glyph-name="copyright.old" horiz-adv-x="611" /><glyph d="M382 558Q444 558 495.5 540Q547 522 584.5 490.5Q622 459 642.5 415Q663 371 663 319Q663 243 637 182.5Q611 122 564.5 79.5Q518 37 453.5 14.5Q389 -8 313 -8Q251 -8 199.5 11Q148 30 111 64Q74 98 53.5 143.5Q33 189 33 241Q33 306 56.5 364Q80 422 124.5 465Q169 508 234 533Q299 558 382 558ZM372 475Q313 475 268 456Q223 437 192.5 405.5Q162 374 146.5 332.5Q131 291 131 247Q131 210 144 178Q157 146 182 123.5Q207 101 242 88Q277 75 322 75Q378 75 423 93.5Q468 112 499.5 143.5Q531 175 548 217.5Q565 260 565 308Q565 345 551 376Q537 407 511.5 429Q486 451 450.5 463Q415 475 372 475ZM384 146Q370 138 354.5 132.5Q339 127 315 127Q259 127 226.5 163Q194 199 194 254Q194 289 206 321Q218 353 239.5 377Q261 401 290 415.5Q319 430 352 430Q377 430 392 425Q407 420 415 412L432 430H486L472 318H412Q413 344 405 361.5Q397 379 373 379Q354 379 340.5 366.5Q327 354 319 334Q311 314 307 289.5Q303 265 303 240Q303 206 315 193Q327 180 347 180Q373 180 386.5 199.5Q400 219 405 242H464L451 127H396Z" glyph-name="copyright.sc" horiz-adv-x="691" /><glyph d="M287 -10Q232 -10 187 8Q142 26 111 57.5Q80 89 63 132.5Q46 176 46 226Q46 288 67 343.5Q88 399 128 440.5Q168 482 225 506Q282 530 354 530Q410 530 454.5 512Q499 494 530 462Q561 430 578 386.5Q595 343 595 293Q595 231 574 176Q553 121 513 79.5Q473 38 416 14Q359 -10 287 -10ZM297 62Q347 62 386.5 80Q426 98 453.5 129Q481 160 495.5 201.5Q510 243 510 289Q510 364 467.5 411Q425 458 345 458Q295 458 255 439.5Q215 421 187.5 390Q160 359 145.5 317.5Q131 276 131 230Q131 155 174 108.5Q217 62 297 62ZM349 137Q337 127 323.5 121.5Q310 116 290 116Q264 116 243 127Q222 138 208.5 157.5Q195 177 189 203Q183 229 186 258Q189 289 201.5 316.5Q214 344 232.5 364.5Q251 385 275 397Q299 409 325 409Q346 409 359 403.5Q372 398 379 390L395 409H442L428 300H376Q377 326 369.5 344Q362 362 340 362Q314 362 301.5 334Q289 306 284 257Q279 206 286.5 185Q294 164 316 164Q339 164 351 184Q363 204 368 228H421L407 116H360Z" glyph-name="copyright.tln" horiz-adv-x="640" /><glyph d="M287 -10Q232 -10 187 8Q142 26 111 57.5Q80 89 63 132.5Q46 176 46 226Q46 288 67 343.5Q88 399 128 440.5Q168 482 225 506Q282 530 354 530Q410 530 454.5 512Q499 494 530 462Q561 430 578 386.5Q595 343 595 293Q595 231 574 176Q553 121 513 79.5Q473 38 416 14Q359 -10 287 -10ZM297 62Q347 62 386.5 80Q426 98 453.5 129Q481 160 495.5 201.5Q510 243 510 289Q510 364 467.5 411Q425 458 345 458Q295 458 255 439.5Q215 421 187.5 390Q160 359 145.5 317.5Q131 276 131 230Q131 155 174 108.5Q217 62 297 62ZM349 137Q337 127 323.5 121.5Q310 116 290 116Q264 116 243 127Q222 138 208.5 157.5Q195 177 189 203Q183 229 186 258Q189 289 201.5 316.5Q214 344 232.5 364.5Q251 385 275 397Q299 409 325 409Q346 409 359 403.5Q372 398 379 390L395 409H442L428 300H376Q377 326 369.5 344Q362 362 340 362Q314 362 301.5 334Q289 306 284 257Q279 206 286.5 185Q294 164 316 164Q339 164 351 184Q363 204 368 228H421L407 116H360Z" glyph-name="copyright.ton" horiz-adv-x="640" /><glyph d="M351 149Q330 138 307 131.5Q284 125 259 125Q235 125 213 132Q191 139 172 150L77 66L21 129L116 213Q95 256 99 304Q105 359 136 402L65 483L137 549L210 466Q253 492 304 492Q329 492 351.5 485Q374 478 393 466L485 548L541 485L449 403Q469 359 465 313Q462 284 452 259Q442 234 426 211L497 131L424 66ZM293 401Q253 401 225.5 372Q198 343 193 303Q190 266 211.5 239Q233 212 269 212Q289 212 306.5 220Q324 228 338 241.5Q352 255 360.5 272.5Q369 290 371 310Q375 348 352 374.5Q329 401 293 401Z" glyph-name="currency" horiz-adv-x="549" unicode="&#164;" /><glyph d="M317 133Q277 116 236 116Q194 116 158 135L72 64L19 119L105 189Q86 224 90 267Q95 307 121 339L55 407L123 465L190 396Q228 416 273 416Q316 416 352 397L436 465L487 411L405 343Q424 305 420 265Q414 225 386 189L452 122L383 64ZM263 334Q229 334 205.5 314Q182 294 178 264Q175 235 194 214Q213 193 245 193Q278 193 303.5 213Q329 233 332 263Q337 293 316 313.5Q295 334 263 334Z" glyph-name="currency.sc" horiz-adv-x="507" /><glyph d="M397 149Q376 138 353 131.5Q330 125 305 125Q281 125 259 132Q237 139 218 150L123 66L67 129L162 213Q141 256 145 304Q151 359 182 402L111 483L183 549L256 466Q299 492 350 492Q375 492 397.5 485Q420 478 439 466L531 548L587 485L495 403Q515 359 511 313Q508 284 498 259Q488 234 472 211L543 131L470 66ZM339 401Q299 401 271.5 372Q244 343 239 303Q236 266 257.5 239Q279 212 315 212Q335 212 352.5 220Q370 228 384 241.5Q398 255 406.5 272.5Q415 290 417 310Q421 348 398 374.5Q375 401 339 401Z" glyph-name="currency.tln" horiz-adv-x="640" /><glyph d="M304 603Q264 603 229.5 609.5Q195 616 169.5 630Q144 644 129.5 666.5Q115 689 115 722Q115 760 140 785.5Q165 811 204 811Q236 811 256 792.5Q276 774 276 744Q276 721 265.5 701.5Q255 682 235 673Q254 661 311 661Q336 661 353.5 665Q371 669 383 675Q370 683 364 697.5Q358 712 358 728Q358 767 383 789Q408 811 445 811Q477 811 497 792.5Q517 774 517 743Q517 710 501 684Q485 658 457 640Q429 622 390 612.5Q351 603 304 603Z" glyph-name="cyrbreve" horiz-adv-x="503" unicode="&#63188;" /><glyph d="M310 731Q270 731 235.5 736Q201 741 175.5 752.5Q150 764 135.5 783Q121 802 121 830Q121 868 146 893Q171 918 209 918Q241 918 261 899.5Q281 881 281 851Q281 833 271 818Q261 803 244 794Q265 786 317 786Q340 786 357.5 789Q375 792 386 795Q364 809 364 841Q364 876 388.5 897Q413 918 450 918Q482 918 502.5 899.5Q523 881 523 850Q523 793 465 762Q407 731 310 731Z" glyph-name="cyrbreve.cap" horiz-adv-x="486" /><glyph d="M517 -10Q484 -10 460 -1.5Q436 7 419.5 21Q403 35 393.5 53Q384 71 380 90Q358 47 322 18.5Q286 -10 222 -10Q182 -10 146 3.5Q110 17 83.5 45Q57 73 41.5 116Q26 159 26 217Q26 281 43.5 338Q61 395 93.5 437.5Q126 480 171.5 505Q217 530 272 530Q330 530 360.5 507.5Q391 485 403 454Q406 501 408.5 536Q411 571 416 614L421 658H363L375 746Q442 746 486 747Q530 748 558 749.5Q586 751 600.5 753.5Q615 756 624 760L641 750L565 124Q561 89 581 89Q594 89 602 108Q610 127 617 170H687Q676 83 637 36.5Q598 -10 517 -10ZM326 434Q303 434 286 413Q269 392 257.5 357.5Q246 323 240.5 279Q235 235 235 189Q235 86 288 86Q321 86 339.5 123Q358 160 369 223Q371 234 372.5 245.5Q374 257 376 269Q386 354 372.5 394Q359 434 326 434Z" glyph-name="d" horiz-adv-x="691" unicode="d" /><glyph d="M193 433Q133 433 100.5 466Q68 499 68 549Q68 579 78 606.5Q88 634 108 655Q128 676 157.5 688.5Q187 701 226 701Q288 701 319.5 669Q351 637 351 586Q351 556 341 528.5Q331 501 311 480Q291 459 261.5 446Q232 433 193 433ZM201 492Q219 492 234 499.5Q249 507 259.5 519Q270 531 276 546.5Q282 562 282 578Q282 606 265.5 624Q249 642 219 642Q200 642 185 634.5Q170 627 159.5 615Q149 603 143.5 588Q138 573 138 557Q138 530 154.5 511Q171 492 201 492Z" glyph-name="degree" horiz-adv-x="345" unicode="&#176;" /><glyph d="M340 433Q280 433 247.5 466Q215 499 215 549Q215 579 225 606.5Q235 634 255 655Q275 676 304.5 688.5Q334 701 373 701Q435 701 466.5 669Q498 637 498 586Q498 556 488 528.5Q478 501 458 480Q438 459 408.5 446Q379 433 340 433ZM348 492Q366 492 381 499.5Q396 507 406.5 519Q417 531 423 546.5Q429 562 429 578Q429 606 412.5 624Q396 642 366 642Q347 642 332 634.5Q317 627 306.5 615Q296 603 290.5 588Q285 573 285 557Q285 530 301.5 511Q318 492 348 492Z" glyph-name="degree.tln" horiz-adv-x="640" /><glyph d="M513 703Q513 661 485.5 634Q458 607 415 607Q379 607 358 628Q337 649 337 681Q337 723 364.5 750Q392 777 435 777Q472 777 492.5 756Q513 735 513 703ZM290 703Q290 661 262 634Q234 607 191 607Q155 607 134 628Q113 649 113 681Q113 723 141 750Q169 777 212 777Q248 777 269 756Q290 735 290 703Z" glyph-name="dieresis" horiz-adv-x="495" unicode="&#168;" /><glyph d="M495 829Q495 793 470 768.5Q445 744 407 744Q375 744 355.5 763.5Q336 783 336 812Q336 848 360.5 872.5Q385 897 423 897Q457 897 476 877.5Q495 858 495 829ZM284 829Q284 794 259 769Q234 744 196 744Q163 744 144 763.5Q125 783 125 812Q125 848 149.5 872.5Q174 897 212 897Q245 897 264.5 877.5Q284 858 284 829Z" glyph-name="dieresis.cap" horiz-adv-x="467" /><glyph d="M375 532Q375 490 346.5 462.5Q318 435 274 435Q237 435 215.5 455.5Q194 476 194 510Q194 552 222 580Q250 608 293 608Q330 608 352.5 587Q375 566 375 532ZM488 389 477 302H41L52 389ZM337 184Q337 142 308.5 114.5Q280 87 236 87Q199 87 177.5 107.5Q156 128 156 162Q156 204 184 232Q212 260 255 260Q292 260 314.5 239Q337 218 337 184Z" glyph-name="divide" horiz-adv-x="507" unicode="&#247;" /><glyph d="M359 442Q359 400 330.5 372.5Q302 345 258 345Q221 345 199.5 365.5Q178 386 178 420Q178 462 206 490Q234 518 277 518Q314 518 336.5 497Q359 476 359 442ZM472 299 461 212H25L36 299ZM321 94Q321 52 292.5 24.5Q264 -3 220 -3Q183 -3 161.5 17.5Q140 38 140 72Q140 114 168 142Q196 170 239 170Q276 170 298.5 149Q321 128 321 94Z" glyph-name="divide.old" horiz-adv-x="498" /><glyph d="M331 426Q331 388 304.5 364.5Q278 341 238 341Q203 341 182 358.5Q161 376 161 407Q161 444 187.5 468Q214 492 254 492Q288 492 309.5 473.5Q331 455 331 426ZM430 315 420 236H30L40 315ZM300 148Q300 110 273.5 86.5Q247 63 206 63Q171 63 151 81Q131 99 131 129Q131 167 157 190.5Q183 214 223 214Q257 214 278.5 196Q300 178 300 148Z" glyph-name="divide.sc" horiz-adv-x="455" /><glyph d="M441 532Q441 490 412.5 462.5Q384 435 340 435Q303 435 281.5 455.5Q260 476 260 510Q260 552 288 580Q316 608 359 608Q396 608 418.5 587Q441 566 441 532ZM554 389 543 302H107L118 389ZM403 184Q403 142 374.5 114.5Q346 87 302 87Q265 87 243.5 107.5Q222 128 222 162Q222 204 250 232Q278 260 321 260Q358 260 380.5 239Q403 218 403 184Z" glyph-name="divide.tln" horiz-adv-x="640" /><glyph d="M430 442Q430 400 401.5 372.5Q373 345 329 345Q292 345 270.5 365.5Q249 386 249 420Q249 462 277 490Q305 518 348 518Q385 518 407.5 497Q430 476 430 442ZM543 299 532 212H96L107 299ZM392 94Q392 52 363.5 24.5Q335 -3 291 -3Q254 -3 232.5 17.5Q211 38 211 72Q211 114 239 142Q267 170 310 170Q347 170 369.5 149Q392 128 392 94Z" glyph-name="divide.ton" horiz-adv-x="640" /><glyph d="M238 -110H151L165 2Q96 19 58 53.5Q20 88 20 134Q20 171 47 197.5Q74 224 121 224Q159 224 183.5 206Q208 188 208 156Q208 121 184 99Q213 83 262 83Q310 83 332.5 106Q355 129 355 167Q355 188 346.5 204Q338 220 322.5 232.5Q307 245 285.5 255.5Q264 266 237 277Q195 295 163 314Q131 333 110 355.5Q89 378 78.5 405.5Q68 433 68 469Q68 546 116 602Q164 658 248 683L263 802H350L337 699Q349 701 363.5 700.5Q378 700 389 700L402 802H489L475 691Q547 677 583 645Q619 613 619 570Q619 526 591 498Q563 470 517 470Q478 470 454 488Q430 506 430 538Q430 555 438 570.5Q446 586 460 596Q443 604 424 606Q405 608 390 608Q341 608 313 581Q285 554 285 513Q285 473 318.5 451Q352 429 420 403Q447 392 474.5 378Q502 364 524 343Q546 322 559.5 292Q573 262 573 220Q573 135 525.5 77Q478 19 390 -1L377 -110H290L302 -12Q288 -12 275.5 -12Q263 -12 250 -11Z" glyph-name="dollar" horiz-adv-x="619" unicode="$" /><glyph d="M265 -10H240L229 -100H161L173 -4Q17 17 17 107Q17 122 22 137.5Q27 153 38.5 165.5Q50 178 68 186.5Q86 195 112 195Q147 195 167.5 177Q188 159 188 130Q188 106 174 87Q198 78 233 78Q272 78 291 94Q310 110 310 133Q310 160 279 179.5Q248 199 184 221Q121 243 87 274Q53 305 53 356Q53 421 99 466Q145 511 238 525L249 614H316L306 530H332L342 614H409L398 525Q474 515 513.5 486Q553 457 553 412Q553 378 529 352Q505 326 459 326Q419 326 400 344.5Q381 363 381 387Q381 415 398 435Q387 439 373 440.5Q359 442 345 442Q303 442 283.5 426.5Q264 411 264 388Q264 373 273 362Q282 351 298.5 341Q315 331 338 322Q361 313 388 302Q412 293 436.5 281.5Q461 270 480 254Q499 238 511 216.5Q523 195 523 165Q523 89 470.5 47Q418 5 333 -6L322 -100H254Z" glyph-name="dollar.old" horiz-adv-x="572" /><glyph d="M220 -88H136L147 1Q84 15 50 40.5Q16 66 16 98Q16 139 42 160.5Q68 182 110 182Q148 182 171 166Q194 150 194 121Q194 101 182 90Q190 85 202.5 82Q215 79 235 79Q273 79 289.5 94Q306 109 306 132Q306 149 298 160.5Q290 172 276.5 180.5Q263 189 244 196.5Q225 204 203 212Q128 244 91 279Q54 314 54 368Q54 432 96.5 478Q139 524 213 544L225 639H310L300 557Q310 559 322 558.5Q334 558 345 558L355 639H440L429 550Q493 538 525.5 512.5Q558 487 558 453Q558 417 531.5 392Q505 367 462 367Q426 367 402.5 382.5Q379 398 379 427Q379 447 394 462Q385 468 373 470Q361 472 346 472Q306 472 287 453Q268 434 268 408Q268 381 296.5 364.5Q325 348 385 327Q409 318 433 306.5Q457 295 476.5 277.5Q496 260 508 236Q520 212 520 178Q520 107 479 61.5Q438 16 361 -1L350 -88H266L276 -10Q264 -10 252.5 -10Q241 -10 230 -9Z" glyph-name="dollar.sc" horiz-adv-x="571" /><glyph d="M249 -110H162L176 2Q107 19 69 53.5Q31 88 31 134Q31 171 58 197.5Q85 224 132 224Q170 224 194.5 206Q219 188 219 156Q219 121 195 99Q224 83 273 83Q321 83 343.5 106Q366 129 366 167Q366 188 357.5 204Q349 220 333.5 232.5Q318 245 296.5 255.5Q275 266 248 277Q206 295 174 314Q142 333 121 355.5Q100 378 89.5 405.5Q79 433 79 469Q79 546 127 602Q175 658 259 683L274 802H361L348 699Q360 701 374.5 700.5Q389 700 400 700L413 802H500L486 691Q558 677 594 645Q630 613 630 570Q630 526 602 498Q574 470 528 470Q489 470 465 488Q441 506 441 538Q441 555 449 570.5Q457 586 471 596Q454 604 435 606Q416 608 401 608Q352 608 324 581Q296 554 296 513Q296 473 329.5 451Q363 429 431 403Q458 392 485.5 378Q513 364 535 343Q557 322 570.5 292Q584 262 584 220Q584 135 536.5 77Q489 19 401 -1L388 -110H301L313 -12Q299 -12 286.5 -12Q274 -12 261 -11Z" glyph-name="dollar.tln" horiz-adv-x="640" /><glyph d="M299 -10H274L263 -100H195L207 -4Q51 17 51 107Q51 122 56 137.5Q61 153 72.5 165.5Q84 178 102 186.5Q120 195 146 195Q181 195 201.5 177Q222 159 222 130Q222 106 208 87Q232 78 267 78Q306 78 325 94Q344 110 344 133Q344 160 313 179.5Q282 199 218 221Q155 243 121 274Q87 305 87 356Q87 421 133 466Q179 511 272 525L283 614H350L340 530H366L376 614H443L432 525Q508 515 547.5 486Q587 457 587 412Q587 378 563 352Q539 326 493 326Q453 326 434 344.5Q415 363 415 387Q415 415 432 435Q421 439 407 440.5Q393 442 379 442Q337 442 317.5 426.5Q298 411 298 388Q298 373 307 362Q316 351 332.5 341Q349 331 372 322Q395 313 422 302Q446 293 470.5 281.5Q495 270 514 254Q533 238 545 216.5Q557 195 557 165Q557 89 504.5 47Q452 5 367 -6L356 -100H288Z" glyph-name="dollar.ton" horiz-adv-x="640" /><glyph d="M192 607Q156 607 135 628Q114 649 114 681Q114 723 142 750Q170 777 212 777Q249 777 270 756Q291 735 291 703Q291 661 263 634Q235 607 192 607Z" glyph-name="dotaccent" horiz-adv-x="275" unicode="&#729;" /><glyph d="M286 830Q286 792 260.5 768.5Q235 745 197 745Q165 745 145 763.5Q125 782 125 813Q125 850 150 874Q175 898 213 898Q245 898 265.5 879.5Q286 861 286 830Z" glyph-name="dotaccent.cap" horiz-adv-x="258" /><glyph d="M212 -10Q176 -10 145 -0.5Q114 9 92.5 30Q71 51 61.5 84.5Q52 118 58 165L90 428H33L43 516Q118 516 162.5 516.5Q207 517 232.5 518.5Q258 520 270 523Q282 526 291 530L308 520L260 127Q256 89 276 89Q290 89 298 108Q306 127 312 170H382Q372 85 333.5 37.5Q295 -10 212 -10Z" glyph-name="dotlessi" horiz-adv-x="386" unicode="&#305;" /><glyph d="M270 -10Q215 -10 170 5.5Q125 21 93 51Q61 81 43.5 124Q26 167 26 221Q26 289 47 345.5Q68 402 107 443Q146 484 201.5 507Q257 530 325 530Q431 530 489 489.5Q547 449 547 380Q547 330 516.5 297.5Q486 265 438.5 246Q391 227 334 219Q277 211 224 211Q224 208 224 205Q223 199 223 195Q223 140 251 112Q279 84 329 84Q378 84 407.5 109Q437 134 457 176L526 151Q513 119 492 89.5Q471 60 440.5 38Q410 16 368 3Q326 -10 270 -10ZM313 449Q294 449 279.5 434.5Q265 420 254.5 395.5Q244 371 237.5 339Q231 307 228 271Q284 276 317 305.5Q350 335 350 393Q350 416 341.5 432.5Q333 449 313 449Z" glyph-name="e" horiz-adv-x="563" unicode="e" /><glyph d="M270 -10Q215 -10 170 5.5Q125 21 93 51Q61 81 43.5 124Q26 167 26 221Q26 289 47 345.5Q68 402 107 443Q146 484 201.5 507Q257 530 325 530Q431 530 489 489.5Q547 449 547 380Q547 330 516.5 297.5Q486 265 438.5 246Q391 227 334 219Q277 211 224 211Q224 208 224 205Q223 199 223 195Q223 140 251 112Q279 84 329 84Q378 84 407.5 109Q437 134 457 176L526 151Q513 119 492 89.5Q471 60 440.5 38Q410 16 368 3Q326 -10 270 -10ZM313 449Q294 449 279.5 434.5Q265 420 254.5 395.5Q244 371 237.5 339Q231 307 228 271Q284 276 317 305.5Q350 335 350 393Q350 416 341.5 432.5Q333 449 313 449ZM272 617 333 695Q375 748 411 766.5Q447 785 486 785Q527 785 541 771Q555 757 554 737Q554 713 529 692.5Q504 672 437 649L339 617Z" glyph-name="eacute" horiz-adv-x="563" unicode="&#233;" /><glyph d="M270 -10Q215 -10 170 5.5Q125 21 93 51Q61 81 43.5 124Q26 167 26 221Q26 289 47 345.5Q68 402 107 443Q146 484 201.5 507Q257 530 325 530Q431 530 489 489.5Q547 449 547 380Q547 330 516.5 297.5Q486 265 438.5 246Q391 227 334 219Q277 211 224 211Q224 208 224 205Q223 199 223 195Q223 140 251 112Q279 84 329 84Q378 84 407.5 109Q437 134 457 176L526 151Q513 119 492 89.5Q471 60 440.5 38Q410 16 368 3Q326 -10 270 -10ZM313 449Q294 449 279.5 434.5Q265 420 254.5 395.5Q244 371 237.5 339Q231 307 228 271Q284 276 317 305.5Q350 335 350 393Q350 416 341.5 432.5Q333 449 313 449ZM139 617 333 792H395L540 617H452L353 689L228 617Z" glyph-name="ecircumflex" horiz-adv-x="563" unicode="&#234;" /><glyph d="M270 -10Q215 -10 170 5.5Q125 21 93 51Q61 81 43.5 124Q26 167 26 221Q26 289 47 345.5Q68 402 107 443Q146 484 201.5 507Q257 530 325 530Q431 530 489 489.5Q547 449 547 380Q547 330 516.5 297.5Q486 265 438.5 246Q391 227 334 219Q277 211 224 211Q224 208 224 205Q223 199 223 195Q223 140 251 112Q279 84 329 84Q378 84 407.5 109Q437 134 457 176L526 151Q513 119 492 89.5Q471 60 440.5 38Q410 16 368 3Q326 -10 270 -10ZM313 449Q294 449 279.5 434.5Q265 420 254.5 395.5Q244 371 237.5 339Q231 307 228 271Q284 276 317 305.5Q350 335 350 393Q350 416 341.5 432.5Q333 449 313 449ZM547 703Q547 661 519.5 634Q492 607 449 607Q413 607 392 628Q371 649 371 681Q371 723 398.5 750Q426 777 469 777Q506 777 526.5 756Q547 735 547 703ZM324 703Q324 661 296 634Q268 607 225 607Q189 607 168 628Q147 649 147 681Q147 723 175 750Q203 777 246 777Q282 777 303 756Q324 735 324 703Z" glyph-name="edieresis" horiz-adv-x="563" unicode="&#235;" /><glyph d="M270 -10Q215 -10 170 5.5Q125 21 93 51Q61 81 43.5 124Q26 167 26 221Q26 289 47 345.5Q68 402 107 443Q146 484 201.5 507Q257 530 325 530Q431 530 489 489.5Q547 449 547 380Q547 330 516.5 297.5Q486 265 438.5 246Q391 227 334 219Q277 211 224 211Q224 208 224 205Q223 199 223 195Q223 140 251 112Q279 84 329 84Q378 84 407.5 109Q437 134 457 176L526 151Q513 119 492 89.5Q471 60 440.5 38Q410 16 368 3Q326 -10 270 -10ZM313 449Q294 449 279.5 434.5Q265 420 254.5 395.5Q244 371 237.5 339Q231 307 228 271Q284 276 317 305.5Q350 335 350 393Q350 416 341.5 432.5Q333 449 313 449ZM251 649Q220 661 200.5 671Q181 681 170.5 690.5Q160 700 156.5 708.5Q153 717 153 726Q153 750 175.5 767.5Q198 785 239 785Q277 785 305 770.5Q333 756 355 714L406 617H340Z" glyph-name="egrave" horiz-adv-x="563" unicode="&#232;" /><glyph d="M642 212Q642 166 621.5 125.5Q601 85 560 55Q519 25 456.5 7.5Q394 -10 310 -10Q236 -10 182.5 4Q129 18 94.5 41.5Q60 65 43.5 97Q27 129 27 165Q27 201 38 232.5Q49 264 74 289.5Q99 315 140 335Q181 355 242 368Q162 389 126 425Q90 461 90 510Q90 549 110.5 583.5Q131 618 170 644Q209 670 266 685Q323 700 396 700Q523 700 592.5 657Q662 614 662 545Q662 485 617 438Q572 391 475 368Q566 346 604 307.5Q642 269 642 212ZM301 488Q301 449 316.5 426Q332 403 362 403Q379 403 394.5 414.5Q410 426 422 445Q434 464 441 489Q448 514 448 541Q448 576 432.5 600Q417 624 387 624Q366 624 350 611Q334 598 323 578Q312 558 306.5 534Q301 510 301 488ZM244 161Q244 117 263.5 91.5Q283 66 319 66Q345 66 365 80.5Q385 95 398.5 118Q412 141 419 169.5Q426 198 426 226Q426 274 408 300.5Q390 327 352 327Q327 327 306.5 313.5Q286 300 272.5 277.5Q259 255 251.5 225Q244 195 244 161Z" glyph-name="eight" horiz-adv-x="686" unicode="8" /><glyph d="M222 -157Q162 -157 119 -147Q76 -137 49.5 -119.5Q23 -102 12.5 -79Q2 -56 5 -29Q11 16 46 45.5Q81 75 159 89Q94 103 67.5 129.5Q41 156 46 194Q52 245 113 276Q174 307 277 307Q380 307 434.5 276Q489 245 484 194Q479 156 446 129.5Q413 103 347 89Q419 76 446.5 46Q474 16 468 -29Q462 -82 402 -119.5Q342 -157 222 -157ZM256 117Q276 117 289.5 134.5Q303 152 308 183Q311 211 301.5 229Q292 247 270 247Q248 247 234.5 228.5Q221 210 218 183Q213 153 223.5 135Q234 117 256 117ZM229 -97Q254 -97 271 -76Q288 -55 293 -19Q298 16 286 37.5Q274 59 248 59Q223 59 205.5 37.5Q188 16 183 -20Q178 -55 191 -76Q204 -97 229 -97Z" glyph-name="eight.inferior" horiz-adv-x="520" /><glyph d="M301 -10Q223 -10 168.5 5Q114 20 81 46.5Q48 73 34.5 107.5Q21 142 25 181Q28 215 40 243.5Q52 272 76.5 295.5Q101 319 139.5 337Q178 355 235 367Q149 388 115.5 428Q82 468 88 523Q92 561 114 593.5Q136 626 174 649.5Q212 673 266 686.5Q320 700 387 700Q521 700 588 653.5Q655 607 647 532Q641 475 599 431.5Q557 388 466 367Q516 355 548 338.5Q580 322 598.5 300.5Q617 279 623 252Q629 225 626 193Q622 153 601 116Q580 79 540.5 51Q501 23 441.5 6.5Q382 -10 301 -10ZM352 402Q384 402 408 435.5Q432 469 437 525Q441 567 425.5 596Q410 625 379 625Q361 625 346.5 616Q332 607 321.5 591.5Q311 576 304.5 555.5Q298 535 295 513Q289 462 304.5 432Q320 402 352 402ZM310 65Q355 65 382.5 102.5Q410 140 415 197Q420 260 402.5 294Q385 328 343 328Q298 328 271 290.5Q244 253 238 185Q233 131 251.5 98Q270 65 310 65Z" glyph-name="eight.old" horiz-adv-x="668" /><glyph d="M587 170Q587 131 568.5 98.5Q550 66 512.5 42Q475 18 418 5Q361 -8 283 -8Q214 -8 164 3Q114 14 82 32.5Q50 51 34.5 76.5Q19 102 19 132Q19 162 28.5 186.5Q38 211 60.5 231Q83 251 120 266Q157 281 212 292Q138 309 104 337Q70 365 70 407Q70 439 88.5 466.5Q107 494 142.5 514.5Q178 535 230.5 546.5Q283 558 352 558Q471 558 536.5 524.5Q602 491 602 434Q602 385 561 347.5Q520 310 432 292Q516 275 551.5 245.5Q587 216 587 170ZM275 385Q275 356 288 340.5Q301 325 324 325Q338 325 350.5 334Q363 343 372.5 357Q382 371 387.5 390Q393 409 393 428Q393 454 379.5 471Q366 488 343 488Q326 488 313.5 478Q301 468 292.5 452.5Q284 437 279.5 419Q275 401 275 385ZM230 128Q230 98 246 80Q262 62 291 62Q312 62 328 73Q344 84 354.5 101.5Q365 119 370.5 141Q376 163 376 184Q376 219 361.5 237.5Q347 256 316 256Q295 256 279 246Q263 236 252 218.5Q241 201 235.5 177.5Q230 154 230 128Z" glyph-name="eight.sc" horiz-adv-x="632" /><glyph d="M302 425Q242 425 199 435Q156 445 129.5 462.5Q103 480 92.5 503Q82 526 85 553Q91 598 126 627.5Q161 657 239 671Q174 685 147.5 711.5Q121 738 126 776Q132 827 193 858Q254 889 357 889Q460 889 514.5 858Q569 827 564 776Q559 738 526 711.5Q493 685 427 671Q499 658 526.5 628Q554 598 548 553Q542 500 482 462.5Q422 425 302 425ZM336 699Q356 699 369.5 716.5Q383 734 388 765Q391 793 381.5 811Q372 829 350 829Q328 829 314.5 810.5Q301 792 298 765Q293 735 303.5 717Q314 699 336 699ZM309 485Q334 485 351 506Q368 527 373 563Q378 598 366 619.5Q354 641 328 641Q303 641 285.5 619.5Q268 598 263 562Q258 527 271 506Q284 485 309 485Z" glyph-name="eight.superior" horiz-adv-x="557" /><glyph d="M602 191Q598 151 577.5 115Q557 79 518.5 51Q480 23 422.5 6.5Q365 -10 287 -10Q212 -10 159.5 5Q107 20 75 46.5Q43 73 29.5 107.5Q16 142 20 181Q23 215 36 244Q49 273 74 296.5Q99 320 138.5 338Q178 356 235 368Q149 391 114 430Q79 469 84 524Q88 562 109 594.5Q130 627 167 650.5Q204 674 256 687Q308 700 373 700Q436 700 484 687.5Q532 675 564.5 653Q597 631 612 600Q627 569 623 532Q618 475 573 432.5Q528 390 437 368Q536 345 572.5 300.5Q609 256 602 191ZM288 513Q283 462 296 432.5Q309 403 339 403Q368 403 389.5 435.5Q411 468 416 525Q420 567 406.5 595.5Q393 624 364 624Q348 624 334.5 615Q321 606 311.5 590.5Q302 575 296 555Q290 535 288 513ZM230 185Q224 131 242 98.5Q260 66 296 66Q339 66 364 103.5Q389 141 394 196Q399 258 384 292.5Q369 327 329 327Q287 327 262 288.5Q237 250 230 185Z" glyph-name="eight.tln" horiz-adv-x="640" /><glyph d="M288 -10Q213 -10 161.5 5Q110 20 78.5 46.5Q47 73 35 107.5Q23 142 27 181Q30 215 42 243.5Q54 272 78 295.5Q102 319 140.5 337Q179 355 236 367Q151 388 118 428Q85 468 90 523Q94 561 114.5 593.5Q135 626 171.5 649.5Q208 673 259 686.5Q310 700 374 700Q499 700 562 653.5Q625 607 617 532Q612 475 570 431.5Q528 388 437 367Q486 355 518.5 338.5Q551 322 569.5 300.5Q588 279 594 252Q600 225 597 193Q593 153 573 116Q553 79 515.5 51Q478 23 421.5 6.5Q365 -10 288 -10ZM338 402Q367 402 388.5 435.5Q410 469 415 525Q419 567 406 596Q393 625 365 625Q349 625 335.5 616Q322 607 312.5 591.5Q303 576 297 555.5Q291 535 289 513Q284 462 296.5 432Q309 402 338 402ZM297 65Q338 65 363 102.5Q388 140 393 197Q398 260 382.5 294Q367 328 329 328Q289 328 263.5 290.5Q238 253 232 185Q226 131 243.5 98Q261 65 297 65Z" glyph-name="eight.ton" horiz-adv-x="640" /><glyph d="M82 472H478L467 385H71ZM62 312H458L448 225H52Z" glyph-name="equal" horiz-adv-x="508" unicode="=" /><glyph d="M69 392H465L454 305H58ZM49 232H445L435 145H39Z" glyph-name="equal.old" horiz-adv-x="501" /><glyph d="M68 381H422L413 302H60ZM53 253H407L397 175H43Z" glyph-name="equal.sc" horiz-adv-x="460" /><glyph d="M148 472H544L533 385H137ZM128 312H524L514 225H118Z" glyph-name="equal.tln" horiz-adv-x="640" /><glyph d="M138 392H534L523 305H127ZM118 232H514L504 145H108Z" glyph-name="equal.ton" horiz-adv-x="640" /><glyph d="M279 -10Q216 -10 168.5 8Q121 26 89 57.5Q57 89 41 131Q25 173 25 221Q25 288 46.5 344.5Q68 401 107.5 442.5Q147 484 203 507Q259 530 329 530Q345 530 358.5 527.5Q372 525 383 521Q370 574 343 609L279 564H171L293 649Q244 677 171 681L181 760Q295 755 385 713L447 756H555L445 679Q517 626 558 544.5Q599 463 599 357Q599 278 577 210.5Q555 143 513.5 94Q472 45 413 17.5Q354 -10 279 -10ZM289 78Q312 78 331 101.5Q350 125 364 168Q378 211 386 271.5Q394 332 394 407V429Q386 434 375.5 438Q365 442 353 442Q324 442 301.5 420Q279 398 264 361.5Q249 325 241.5 278Q234 231 234 181Q234 133 248.5 105.5Q263 78 289 78Z" glyph-name="eth" horiz-adv-x="620" unicode="&#240;" /><glyph d="M138 210Q145 266 142 306.5Q139 347 130.5 378Q122 409 111 433Q100 457 90.5 479.5Q81 502 76 525Q71 548 75 577Q79 611 95 634.5Q111 658 134 672.5Q157 687 183 693.5Q209 700 232 700Q256 700 280 693.5Q304 687 323 672.5Q342 658 352.5 634.5Q363 611 359 577Q353 532 333 500.5Q313 469 288.5 432Q264 395 241.5 344Q219 293 209 210ZM248 87Q248 45 219.5 17.5Q191 -10 147 -10Q110 -10 88.5 10.5Q67 31 67 65Q67 107 95 135Q123 163 166 163Q203 163 225.5 142Q248 121 248 87Z" glyph-name="exclam" horiz-adv-x="356" unicode="!" /><glyph d="M131 172Q136 215 132 244.5Q128 274 118.5 295Q109 316 97 332Q85 348 75.5 364Q66 380 60 398.5Q54 417 57 444Q61 477 77.5 498.5Q94 520 116.5 533.5Q139 547 164 552.5Q189 558 211 558Q233 558 257 552.5Q281 547 299.5 533.5Q318 520 329 498.5Q340 477 336 444Q331 403 312 379.5Q293 356 270.5 331.5Q248 307 228 272Q208 237 200 172ZM238 78Q238 37 211 14.5Q184 -8 144 -8Q109 -8 88.5 9.5Q68 27 68 59Q68 96 94 119.5Q120 143 160 143Q195 143 216.5 125Q238 107 238 78Z" glyph-name="exclam.sc" horiz-adv-x="349" /><glyph d="M280 210Q287 266 284 306.5Q281 347 272.5 378Q264 409 253 433Q242 457 232.5 479.5Q223 502 218 525Q213 548 217 577Q221 611 237 634.5Q253 658 276 672.5Q299 687 325 693.5Q351 700 374 700Q398 700 422 693.5Q446 687 465 672.5Q484 658 494.5 634.5Q505 611 501 577Q495 532 475 500.5Q455 469 430.5 432Q406 395 383.5 344Q361 293 351 210ZM390 87Q390 45 361.5 17.5Q333 -10 289 -10Q252 -10 230.5 10.5Q209 31 209 65Q209 107 237 135Q265 163 308 163Q345 163 367.5 142Q390 121 390 87Z" glyph-name="exclam.tln" horiz-adv-x="640" /><glyph d="M214 310Q207 254 210 213.5Q213 173 221.5 142Q230 111 241 87Q252 63 261.5 40.5Q271 18 276 -5Q281 -28 277 -57Q273 -91 257 -114.5Q241 -138 218 -152.5Q195 -167 169 -173.5Q143 -180 120 -180Q96 -180 72 -173.5Q48 -167 29 -152.5Q10 -138 -0.5 -114.5Q-11 -91 -7 -57Q-1 -12 19 19.5Q39 51 63.5 88Q88 125 110.5 176Q133 227 143 310ZM104 433Q104 475 132.5 502.5Q161 530 205 530Q242 530 263.5 509.5Q285 489 285 455Q285 413 257 385Q229 357 186 357Q149 357 126.5 378Q104 399 104 433Z" glyph-name="exclamdown" horiz-adv-x="345" unicode="&#161;" /><glyph d="M243 480Q236 424 239 383.5Q242 343 250.5 312Q259 281 270 257Q281 233 290.5 210.5Q300 188 305 165Q310 142 306 113Q302 79 286 55.5Q270 32 247 17.5Q224 3 198 -3.5Q172 -10 149 -10Q125 -10 101 -3.5Q77 3 58 17.5Q39 32 28.5 55.5Q18 79 22 113Q28 158 48 189.5Q68 221 92.5 258Q117 295 139.5 346Q162 397 172 480ZM133 603Q133 645 161.5 672.5Q190 700 234 700Q271 700 292.5 679.5Q314 659 314 625Q314 583 286 555Q258 527 215 527Q178 527 155.5 548Q133 569 133 603Z" glyph-name="exclamdown.cap" horiz-adv-x="363" /><glyph d="M116 473Q116 511 142.5 534.5Q169 558 210 558Q245 558 265.5 540.5Q286 523 286 493Q286 455 260 431Q234 407 194 407Q159 407 137.5 425.5Q116 444 116 473ZM223 378Q218 335 222 306Q226 277 235.5 255.5Q245 234 256.5 218Q268 202 278 186.5Q288 171 293.5 152Q299 133 296 106Q292 74 276 52Q260 30 237.5 16.5Q215 3 190 -2.5Q165 -8 143 -8Q121 -8 97 -2.5Q73 3 54 16.5Q35 30 24.5 52Q14 74 18 106Q23 147 42 170.5Q61 194 83.5 218.5Q106 243 126.5 278.5Q147 314 154 378Z" glyph-name="exclamdown.sc" horiz-adv-x="349" /><glyph d="M361 310Q354 254 357 213.5Q360 173 368.5 142Q377 111 388 87Q399 63 408.5 40.5Q418 18 423 -5Q428 -28 424 -57Q420 -91 404 -114.5Q388 -138 365 -152.5Q342 -167 316 -173.5Q290 -180 267 -180Q243 -180 219 -173.5Q195 -167 176 -152.5Q157 -138 146.5 -114.5Q136 -91 140 -57Q146 -12 166 19.5Q186 51 210.5 88Q235 125 257.5 176Q280 227 290 310ZM251 433Q251 475 279.5 502.5Q308 530 352 530Q389 530 410.5 509.5Q432 489 432 455Q432 413 404 385Q376 357 333 357Q296 357 273.5 378Q251 399 251 433Z" glyph-name="exclamdown.tln" horiz-adv-x="640" /><glyph d="M-26 -260Q-103 -260 -150.5 -234.5Q-198 -209 -198 -157Q-198 -124 -176 -97.5Q-154 -71 -109 -71Q-70 -71 -48.5 -91Q-27 -111 -27 -144Q-27 -166 -37 -185Q-4 -184 12 -155Q28 -126 33 -83L97 428H38L48 516H109L111 530Q119 588 143 631.5Q167 675 203.5 704Q240 733 287 747.5Q334 762 386 762Q463 762 510.5 737Q558 712 558 663Q558 628 535 602Q512 576 467 576Q429 576 408 595Q387 614 387 646Q387 669 398 687Q368 686 348.5 663Q329 640 323 586L315 516H430L419 428H304L247 -27Q240 -81 217.5 -124.5Q195 -168 159 -198Q123 -228 76 -244Q29 -260 -26 -260Z" glyph-name="f" horiz-adv-x="405" unicode="f" /><glyph d="M97 428H38L48 516H149Q134 520 116 527Q98 534 83 546Q68 558 58 575.5Q48 593 48 618Q48 688 106.5 724Q165 760 273 760Q356 760 403 736Q450 712 450 656Q450 639 442.5 624Q435 609 422.5 597.5Q410 586 393.5 579Q377 572 359 572Q321 572 299.5 590.5Q278 609 278 641Q278 662 289 676Q277 680 258 680Q212 680 187 661Q162 642 162 611Q162 566 233.5 541Q305 516 432 516L422 428H304L247 -27Q240 -82 217.5 -125Q195 -168 159.5 -198Q124 -228 77 -244Q30 -260 -26 -260Q-106 -260 -152 -233.5Q-198 -207 -198 -159Q-198 -123 -175 -97Q-152 -71 -107 -71Q-69 -71 -48 -90Q-27 -109 -27 -141Q-27 -151 -30.5 -162Q-34 -173 -44 -181Q-43 -182 -40 -182Q-34 -183 -25 -183Q4 -183 15.5 -161.5Q27 -140 32 -97Z" glyph-name="f.alt" horiz-adv-x="407" /><glyph d="M739 432Q704 432 684 391Q664 350 653 275Q652 270 651 258.5Q650 247 650 242Q643 170 655 129Q667 88 702 88Q725 88 742 107.5Q759 127 770.5 160Q782 193 787.5 236.5Q793 280 793 328Q793 378 779.5 405Q766 432 739 432ZM-26 -260Q-113 -260 -155.5 -231.5Q-198 -203 -198 -161Q-198 -126 -175 -99.5Q-152 -73 -107 -73Q-69 -73 -48 -92.5Q-27 -112 -27 -144Q-27 -165 -38 -185Q-4 -184 12 -155.5Q28 -127 33 -85L97 428H38L48 516H109L112 539Q118 594 142.5 636Q167 678 203.5 706Q240 734 287.5 748Q335 762 387 762Q424 762 450.5 759Q477 756 499 753Q521 750 541.5 747Q562 744 587 744Q635 744 656.5 750.5Q678 757 689 762L710 754L695 627Q691 594 688 569.5Q685 545 682 524.5Q679 504 676 485.5Q673 467 668 446Q695 489 736 509.5Q777 530 822 530Q863 530 896.5 514Q930 498 954 469Q978 440 991 399.5Q1004 359 1004 310Q1004 247 987 189Q970 131 938.5 87Q907 43 862.5 16.5Q818 -10 762 -10Q717 -10 679 7.5Q641 25 612 67L449 -8H412L493 671Q485 677 471.5 682Q458 687 438 687Q382 687 355.5 657.5Q329 628 321 567L315 516H430L420 428H304L247 -27Q240 -81 217.5 -124.5Q195 -168 159 -198Q123 -228 76 -244Q29 -260 -26 -260Z" glyph-name="f_b" horiz-adv-x="1029" /><glyph d="M741 434Q703 434 683 383.5Q663 333 654 242Q647 169 659 127.5Q671 86 705 86Q727 86 744 105.5Q761 125 772 158.5Q783 192 789 236Q795 280 795 328Q795 379 781.5 406.5Q768 434 741 434ZM97 428H38L48 516H149Q132 521 112 528.5Q92 536 75.5 549Q59 562 48.5 581.5Q38 601 41 630Q44 660 61 684.5Q78 709 112.5 725.5Q147 742 200.5 751Q254 760 330 760Q378 760 411 758Q444 756 471 753Q498 750 523.5 748Q549 746 580 746Q612 746 632 747Q652 748 664.5 750Q677 752 684 754.5Q691 757 697 760L714 750L699 627Q695 594 692 569.5Q689 545 686 524.5Q683 504 679.5 485.5Q676 467 672 446Q699 489 739.5 509.5Q780 530 825 530Q866 530 899 514Q932 498 955.5 469Q979 440 992 399.5Q1005 359 1005 310Q1005 247 988 189Q971 131 940 86.5Q909 42 864.5 16Q820 -10 764 -10Q721 -10 683 7.5Q645 25 616 67L453 -8H416L496 664Q469 671 426 675.5Q383 680 329 680Q160 680 154 609Q150 567 217.5 541.5Q285 516 432 516L422 428H304L247 -27Q240 -82 217.5 -125Q195 -168 159 -198Q123 -228 76 -244Q29 -260 -26 -260Q-106 -260 -152 -233.5Q-198 -207 -198 -159Q-198 -123 -175 -97Q-152 -71 -107 -71Q-69 -71 -48 -90Q-27 -109 -27 -141Q-27 -151 -30.5 -162Q-34 -173 -44 -181Q-43 -182 -40 -182Q-34 -183 -25 -183Q4 -183 15.5 -161.5Q27 -140 32 -97Z" glyph-name="f_b.alt" horiz-adv-x="1031" /><glyph d="M8 0 18 83H69L116 467H65L76 550H580L557 359H458L461 384Q466 431 450 449Q434 467 376 467H323L305 312H363L371 372H436L412 182H347L354 234H294L276 83H349L339 0ZM575 83H626L673 467H622L633 550H972Q1017 550 1057 542.5Q1097 535 1126.5 520Q1156 505 1173.5 481Q1191 457 1191 424Q1191 399 1179 375Q1167 351 1142.5 332.5Q1118 314 1082 302Q1046 290 998 287Q1081 281 1132 252.5Q1183 224 1183 166Q1183 91 1113.5 45.5Q1044 0 910 0H565ZM881 472 862 319H888Q926 319 953.5 342.5Q981 366 981 405Q981 440 960 456Q939 472 905 472ZM853 244 833 78H859Q905 78 938.5 99.5Q972 121 972 170Q972 214 945 229Q918 244 880 244Z" glyph-name="f_b.alt.sc" horiz-adv-x="1219" /><glyph d="M8 0 18 83H69L116 467H65L76 550H580L557 359H458L462 385Q468 430 451 448.5Q434 467 376 467H323L305 312L437 324L425 222L294 234L276 83H349L339 0ZM566 83H617L664 467H613L624 550H963Q1008 550 1048 542.5Q1088 535 1117.5 520Q1147 505 1164.5 481Q1182 457 1182 424Q1182 399 1170 375Q1158 351 1133.5 332.5Q1109 314 1073 302Q1037 290 989 287Q1072 281 1123 252.5Q1174 224 1174 166Q1174 91 1104.5 45.5Q1035 0 901 0H556ZM872 472 853 319H879Q917 319 944.5 342.5Q972 366 972 405Q972 440 951 456Q930 472 896 472ZM844 244 824 78H850Q896 78 929.5 99.5Q963 121 963 170Q963 214 936 229Q909 244 871 244Z" glyph-name="f_b.sc" horiz-adv-x="1210" /><glyph d="M477 516Q477 517 478 524Q479 531 479 532Q488 595 516 639Q488 657 441 657Q383 657 355.5 634Q328 611 319 546L315 516ZM308 -119Q363 -119 383.5 -92.5Q404 -66 411 -10L465 428H304L247 -27Q245 -46 240.5 -63Q236 -80 231 -96Q248 -107 266.5 -113Q285 -119 308 -119ZM188 -168Q151 -213 97 -236.5Q43 -260 -26 -260Q-113 -260 -155.5 -231.5Q-198 -203 -198 -161Q-198 -126 -175 -99.5Q-152 -73 -107 -73Q-69 -73 -48 -92.5Q-27 -112 -27 -144Q-27 -165 -38 -185Q-19 -185 -6 -176.5Q7 -168 14.5 -154.5Q22 -141 26 -123Q30 -105 33 -85L97 428H38L48 516H109Q109 519 112 541Q118 589 142.5 626.5Q167 664 205 689Q243 714 293 727Q343 740 401 740Q456 740 499.5 729Q543 718 572 701Q609 732 655.5 747Q702 762 754 762Q832 762 879.5 737.5Q927 713 927 666Q927 628 904 602Q881 576 836 576Q798 576 776.5 595Q755 614 755 646Q755 652 756.5 663Q758 674 763 686Q732 685 714.5 659Q697 633 691 586L683 516H798L788 428H672L625 56Q608 -78 534.5 -140.5Q461 -203 341 -203Q289 -203 251.5 -192.5Q214 -182 188 -168Z" glyph-name="f_f" horiz-adv-x="774" unicode="&#64256;" /><glyph d="M514 516Q493 519 470.5 527Q448 535 430 548Q412 561 400.5 580Q389 599 389 624Q389 640 394 658Q378 663 359 665.5Q340 668 317 668Q241 668 201 652.5Q161 637 158 608Q154 566 220 541Q286 516 432 516ZM311 -111Q362 -111 381.5 -83.5Q401 -56 408 0L461 428H304L247 -27Q245 -44 241.5 -60Q238 -76 233 -91Q248 -99 268.5 -105Q289 -111 311 -111ZM38 428 48 516H149Q133 520 113.5 527.5Q94 535 78 548Q62 561 52.5 580.5Q43 600 46 628Q51 683 115 715.5Q179 748 318 748Q364 748 399 742Q434 736 460 728Q519 760 621 760Q657 760 692 754Q727 748 754 735.5Q781 723 798 703.5Q815 684 815 656Q815 622 791 597Q767 572 723 572Q685 572 663.5 590.5Q642 609 642 641Q642 661 653 675Q642 677 630.5 678.5Q619 680 606 680Q557 680 530 661Q503 642 503 611Q503 566 580.5 541Q658 516 796 516L786 428H668L618 33Q604 -75 535.5 -134Q467 -193 353 -193Q253 -193 194 -163Q157 -211 101 -235.5Q45 -260 -26 -260Q-106 -260 -152 -233.5Q-198 -207 -198 -159Q-198 -123 -175 -97Q-152 -71 -107 -71Q-69 -71 -48 -90Q-27 -109 -27 -141Q-27 -151 -30.5 -162Q-34 -173 -44 -181Q-43 -182 -40 -182Q-34 -183 -25 -183Q4 -183 15.5 -161.5Q27 -140 32 -97L97 428Z" glyph-name="f_f.alt" horiz-adv-x="772" /><glyph d="M8 0 18 83H69L116 467H65L76 550H580L557 359H458L461 384Q466 431 450 449Q434 467 376 467H323L305 312H363L371 372H436L412 182H347L354 234H294L276 83H349L339 0ZM565 0 575 83H626L673 467H622L633 550H1137L1114 359H1015L1018 384Q1023 431 1007 449Q991 467 933 467H880L862 312H920L928 372H993L969 182H904L911 234H851L833 83H906L896 0Z" glyph-name="f_f.alt.sc" horiz-adv-x="1116" /><glyph d="M8 0 18 83H69L116 467H65L76 550H580L557 359H458L462 385Q468 430 451 448.5Q434 467 376 467H323L305 312L437 324L425 222L294 234L276 83H349L339 0ZM556 0 566 83H617L664 467H613L624 550H1128L1105 359H1006L1010 385Q1016 430 999 448.5Q982 467 924 467H871L853 312L985 324L973 222L842 234L824 83H897L887 0Z" glyph-name="f_f.sc" horiz-adv-x="1109" /><glyph d="M478 528Q487 591 521 639Q507 646 487.5 651.5Q468 657 441 657Q384 657 355.5 634Q327 611 319 546L315 516H476ZM308 -119Q363 -119 383.5 -92.5Q404 -66 411 -10L464 428H305L248 -27Q244 -62 231 -97Q247 -106 266.5 -112.5Q286 -119 308 -119ZM341 -203Q287 -203 249.5 -192Q212 -181 189 -168Q152 -213 97.5 -236.5Q43 -260 -26 -260Q-113 -260 -155.5 -231.5Q-198 -203 -198 -161Q-198 -126 -175 -99.5Q-152 -73 -107 -73Q-69 -73 -48 -92.5Q-27 -112 -27 -144Q-27 -165 -38 -185Q-4 -184 12 -155.5Q28 -127 33 -85L97 428H38L48 516H109L112 534Q120 587 144.5 625.5Q169 664 207.5 689.5Q246 715 295.5 727.5Q345 740 402 740Q469 740 513.5 726.5Q558 713 584 699Q632 731 695 746.5Q758 762 829 762Q859 762 895.5 758Q932 754 963.5 743Q995 732 1016 712Q1037 692 1037 660Q1037 628 1011.5 602Q986 576 941 576Q901 576 881.5 598Q862 620 862 646Q862 668 873 683Q865 685 855.5 686Q846 687 835 687Q808 687 783 680Q758 673 738 656.5Q718 640 704 611.5Q690 583 685 541L682 516H776Q851 516 895.5 516.5Q940 517 966 518.5Q992 520 1004 523Q1016 526 1025 530L1042 520L993 127Q989 89 1010 89Q1023 89 1031 108Q1039 127 1046 170H1116Q1105 83 1065.5 36.5Q1026 -10 945 -10Q909 -10 878 -0.5Q847 9 826 30Q805 51 795 84.5Q785 118 791 165L824 428H672L625 56Q608 -78 534.5 -140.5Q461 -203 341 -203Z" glyph-name="f_f_i" horiz-adv-x="1120" unicode="&#64259;" /><glyph d="M514 516Q500 519 483.5 526Q467 533 453 545Q439 557 430 574Q421 591 421 615Q421 635 427 651Q407 658 379.5 663Q352 668 317 668Q241 668 201 652.5Q161 637 158 608Q154 566 220 541Q286 516 432 516ZM311 -111Q362 -111 381.5 -83.5Q401 -56 408 0L461 428H304L247 -27Q245 -44 241.5 -60Q238 -76 233 -91Q248 -99 268.5 -105Q289 -111 311 -111ZM-26 -260Q-106 -260 -152 -233.5Q-198 -207 -198 -159Q-198 -123 -175 -97Q-152 -71 -107 -71Q-69 -71 -48 -90Q-27 -109 -27 -141Q-27 -151 -30.5 -162Q-34 -173 -44 -181Q-43 -182 -40 -182Q-34 -183 -25 -183Q4 -183 15.5 -161.5Q27 -140 32 -97L97 428H38L48 516H149Q133 520 113.5 527.5Q94 535 78 548Q62 561 52.5 580.5Q43 600 46 628Q51 683 115 715.5Q179 748 318 748Q381 748 425 738Q469 728 494 717Q534 739 592.5 749.5Q651 760 723 760Q779 760 834 754Q889 748 932.5 735Q976 722 1003 700.5Q1030 679 1030 647Q1030 612 1009 587.5Q988 563 944 563Q902 563 879.5 581.5Q857 600 857 633Q857 651 868 664Q842 670 808 675Q774 680 729 680Q645 680 593.5 661.5Q542 643 542 607Q542 565 609 540.5Q676 516 794 516Q863 516 904 516.5Q945 517 969 518.5Q993 520 1004 523Q1015 526 1024 530L1041 520L993 127Q989 89 1009 89Q1023 89 1031 108Q1039 127 1045 170H1115Q1104 83 1065 36.5Q1026 -10 945 -10Q909 -10 878 -0.5Q847 9 825.5 30Q804 51 794.5 84.5Q785 118 791 165L823 428H668L618 33Q604 -75 535.5 -134Q467 -193 353 -193Q253 -193 194 -163Q157 -211 101 -235.5Q45 -260 -26 -260Z" glyph-name="f_f_i.alt" horiz-adv-x="1119" /><glyph d="M8 0 18 83H69L116 467H65L76 550H580L557 359H458L461 384Q466 431 450 449Q434 467 376 467H323L305 312H363L371 372H436L412 182H347L354 234H294L276 83H349L339 0ZM1122 0 1132 83H1183L1230 467H1179L1190 550H1499L1488 467H1437L1390 83H1441L1431 0ZM565 0 575 83H626L673 467H622L633 550H1137L1114 359H1015L1018 384Q1023 431 1007 449Q991 467 933 467H880L862 312H920L928 372H993L969 182H904L911 234H851L833 83H906L896 0Z" glyph-name="f_f_i.alt.sc" horiz-adv-x="1501" /><glyph d="M8 0 18 83H69L116 467H65L76 550H580L557 359H458L462 385Q468 430 451 448.5Q434 467 376 467H323L305 312L437 324L425 222L294 234L276 83H349L339 0ZM556 0 566 83H617L664 467H613L624 550H1128L1105 359H1006L1010 385Q1016 430 999 448.5Q982 467 924 467H871L853 312L985 324L973 222L842 234L824 83H897L887 0ZM1103 0 1113 83H1164L1211 467H1160L1171 550H1480L1469 467H1418L1371 83H1422L1412 0Z" glyph-name="f_f_i.sc" horiz-adv-x="1483" /><glyph d="M476 516Q476 518 477 524Q478 530 478 532Q487 594 518 641Q504 648 483.5 652.5Q463 657 434 657Q383 657 355 634Q327 611 319 546L315 516ZM298 -185Q327 -185 345.5 -177Q364 -169 376 -153.5Q388 -138 394 -116Q400 -94 404 -65L464 428H305L248 -27Q239 -96 205 -147Q223 -169 246 -177Q269 -185 298 -185ZM700 -189Q733 -189 746 -158Q759 -127 766 -71L826 428H671L614 -27Q611 -55 604 -75Q607 -74 610.5 -74Q614 -74 617 -74Q658 -74 678.5 -93.5Q699 -113 699 -143Q699 -160 694.5 -171Q690 -182 683 -186Q685 -187 690 -188Q695 -189 700 -189ZM709 -260Q650 -260 604 -240.5Q558 -221 543 -182Q505 -220 453 -240Q401 -260 337 -260Q269 -260 224.5 -242.5Q180 -225 157 -200Q83 -260 -26 -260Q-113 -260 -155.5 -231.5Q-198 -203 -198 -161Q-198 -126 -175 -99.5Q-152 -73 -107 -73Q-69 -73 -48 -92.5Q-27 -112 -27 -144Q-27 -165 -38 -185Q-4 -184 12 -155.5Q28 -127 33 -85L97 428H38L48 516H109L111 530Q119 583 143.5 622Q168 661 206.5 687.5Q245 714 295.5 727Q346 740 404 740Q469 740 512 729Q555 718 581 703Q626 733 688 747.5Q750 762 828 762Q868 762 906 755.5Q944 749 974 736.5Q1004 724 1022 704Q1040 684 1040 657Q1040 621 1016.5 598.5Q993 576 951 576Q908 576 886.5 598Q865 620 865 646Q865 667 879 681Q872 683 861.5 685Q851 687 835 687Q808 687 783 680Q758 673 738 656.5Q718 640 704 611.5Q690 583 685 541L682 516H771Q838 516 884 516.5Q930 517 960 518.5Q990 520 1006 523Q1022 526 1029 530L1045 520L981 0Q974 -61 956 -109.5Q938 -158 905.5 -191.5Q873 -225 825 -242.5Q777 -260 709 -260Z" glyph-name="f_f_j" horiz-adv-x="1070" /><glyph d="M514 516Q499 519 483 526Q467 533 453 545Q439 557 430 574Q421 591 421 615Q421 637 428 651Q407 658 379.5 663Q352 668 317 668Q241 668 201 652.5Q161 637 158 608Q154 566 220 541Q286 516 432 516ZM311 -111Q362 -111 381.5 -83.5Q401 -56 408 0L461 428H304L247 -27Q245 -44 241.5 -60Q238 -76 233 -91Q248 -99 268.5 -105Q289 -111 311 -111ZM-26 -260Q-106 -260 -152 -233.5Q-198 -207 -198 -159Q-198 -123 -175 -97Q-152 -71 -107 -71Q-69 -71 -48 -90Q-27 -109 -27 -141Q-27 -151 -30.5 -162Q-34 -173 -44 -181Q-43 -182 -40 -182Q-34 -183 -25 -183Q4 -183 15.5 -161.5Q27 -140 32 -97L97 428H38L48 516H149Q133 520 113.5 527.5Q94 535 78 548Q62 561 52.5 580.5Q43 600 46 628Q51 683 115 715.5Q179 748 318 748Q383 748 426.5 738Q470 728 495 717Q537 739 595.5 749.5Q654 760 723 760Q786 760 842 753.5Q898 747 940 733.5Q982 720 1006 698Q1030 676 1030 644Q1030 609 1008.5 584.5Q987 560 944 560Q902 560 879.5 578.5Q857 597 857 630Q857 640 860 647.5Q863 655 867 661Q840 669 805 674.5Q770 680 728 680Q639 680 590.5 661.5Q542 643 542 607Q542 565 605 540.5Q668 516 782 516Q845 516 888.5 517Q932 518 959.5 520Q987 522 1002.5 524.5Q1018 527 1025 531L1041 521L982 35Q1030 -2 1030 -65Q1030 -103 1017 -137.5Q1004 -172 976.5 -199Q949 -226 906 -242Q863 -258 803 -258Q720 -258 670 -228Q620 -198 620 -144Q620 -106 645 -77.5Q670 -49 719 -49Q758 -49 778.5 -69.5Q799 -90 799 -117Q799 -139 790 -154.5Q781 -170 766 -181Q776 -186 795 -186Q837 -186 861.5 -157Q886 -128 886 -87Q886 -42 854 -20.5Q822 1 771 2L823 428H669L618 33Q604 -75 535.5 -134Q467 -193 353 -193Q253 -193 194 -163Q157 -211 101 -235.5Q45 -260 -26 -260Z" glyph-name="f_f_j.alt" horiz-adv-x="1072" /><glyph d="M8 0 18 83H69L116 467H65L76 550H580L557 359H458L461 384Q466 431 450 449Q434 467 376 467H323L305 312H363L371 372H436L412 182H347L354 234H294L276 83H349L339 0ZM1492 192Q1480 93 1421.5 43Q1363 -7 1243 -7Q1201 -7 1165.5 0.5Q1130 8 1104.5 23Q1079 38 1064.5 59.5Q1050 81 1050 108Q1050 151 1076.5 179.5Q1103 208 1150 208Q1185 208 1206.5 189Q1228 170 1228 138Q1228 116 1217 99.5Q1206 83 1194 77Q1197 76 1202 75Q1206 73 1211 72.5Q1216 72 1223 72Q1248 72 1260.5 84.5Q1273 97 1277 126L1319 468H1267L1277 551H1587L1577 468H1526ZM565 0 575 83H626L673 467H622L633 550H1137L1114 359H1015L1018 384Q1023 431 1007 449Q991 467 933 467H880L862 312H920L928 372H993L969 182H904L911 234H851L833 83H906L896 0Z" glyph-name="f_f_j.alt.sc" horiz-adv-x="1578" /><glyph d="M8 0 18 83H69L116 467H65L76 550H580L557 359H458L462 385Q468 430 451 448.5Q434 467 376 467H323L305 312L437 324L425 222L294 234L276 83H349L339 0ZM556 0 566 83H617L664 467H613L624 550H1128L1105 359H1006L1010 385Q1016 430 999 448.5Q982 467 924 467H871L853 312L985 324L973 222L842 234L824 83H897L887 0ZM1474 191Q1462 92 1403.5 42Q1345 -8 1225 -8Q1183 -8 1147.5 -0.5Q1112 7 1086.5 22Q1061 37 1046.5 58.5Q1032 80 1032 107Q1032 150 1058.5 178.5Q1085 207 1132 207Q1167 207 1188.5 188Q1210 169 1210 137Q1210 115 1199 98.5Q1188 82 1176 76Q1179 75 1184 74Q1188 72 1193 71.5Q1198 71 1205 71Q1230 71 1242.5 83.5Q1255 96 1259 125L1301 467H1249L1259 550H1569L1559 467H1508Z" glyph-name="f_f_j.sc" horiz-adv-x="1559" /><glyph d="M478 535Q481 565 490.5 591Q500 617 514 640Q501 648 484 652.5Q467 657 444 657Q384 657 356 634Q328 611 319 546L315 516H476ZM309 -119Q363 -119 383.5 -92.5Q404 -66 411 -10L464 428H304L247 -27Q245 -46 240.5 -63Q236 -80 231 -96Q248 -107 267.5 -113Q287 -119 309 -119ZM188 -168Q151 -213 97 -236.5Q43 -260 -26 -260Q-113 -260 -155.5 -231.5Q-198 -203 -198 -161Q-198 -126 -175 -99.5Q-152 -73 -107 -73Q-69 -73 -48 -92.5Q-27 -112 -27 -144Q-27 -165 -38 -185Q-20 -185 -7.5 -176.5Q5 -168 13 -154Q21 -140 25.5 -122.5Q30 -105 33 -85L97 428H38L48 516H109L111 533Q117 585 141.5 623.5Q166 662 204.5 688Q243 714 293.5 727Q344 740 401 740Q458 740 500 727.5Q542 715 569 701Q607 733 654.5 747.5Q702 762 754 762Q791 762 817.5 759Q844 756 866 753Q888 750 908.5 747Q929 744 954 744Q1002 744 1024 750.5Q1046 757 1056 762L1078 754L1002 128Q1000 107 1004.5 98Q1009 89 1019 89Q1033 89 1040.5 107Q1048 125 1055 170H1125Q1120 128 1109 95Q1098 62 1078 38.5Q1058 15 1027.5 2.5Q997 -10 953 -10Q917 -10 886.5 -0.5Q856 9 835 29.5Q814 50 804 83.5Q794 117 800 165L860 671Q852 677 838.5 682Q825 687 805 687Q749 687 723 657.5Q697 628 689 567L682 516H798L787 428H671L624 56Q608 -77 533 -140Q458 -203 340 -203Q288 -203 251 -193Q214 -183 188 -168Z" glyph-name="f_f_l" horiz-adv-x="1129" unicode="&#64260;" /><glyph d="M513 516Q496 521 475.5 528.5Q455 536 438.5 549Q422 562 412 581.5Q402 601 405 630Q406 637 407 643.5Q408 650 410 655Q391 661 368.5 664.5Q346 668 317 668Q241 668 201 652.5Q161 637 158 608Q154 566 220 541Q286 516 432 516ZM311 -111Q362 -111 381.5 -83.5Q401 -56 408 0L460 428H304L247 -27Q245 -44 241.5 -60Q238 -76 233 -91Q248 -99 268.5 -105Q289 -111 311 -111ZM-26 -260Q-106 -260 -152 -233.5Q-198 -207 -198 -159Q-198 -123 -175 -97Q-152 -71 -107 -71Q-69 -71 -48 -90Q-27 -109 -27 -141Q-27 -151 -30.5 -162Q-34 -173 -44 -181Q-43 -182 -40 -182Q-34 -183 -25 -183Q4 -183 15.5 -161.5Q27 -140 32 -97L97 428H38L48 516H149Q133 520 113.5 527.5Q94 535 78 548Q62 561 52.5 580.5Q43 600 46 628Q51 683 115 715.5Q179 748 318 748Q372 748 410.5 740.5Q449 733 475 724Q510 742 563 751Q616 760 693 760Q741 760 774.5 758Q808 756 836 753Q864 750 889.5 748Q915 746 946 746Q978 746 998 747Q1018 748 1030.5 750Q1043 752 1050 754.5Q1057 757 1063 760L1080 750L1004 128Q1002 107 1006.5 98Q1011 89 1021 89Q1035 89 1042.5 107Q1050 125 1056 170H1126Q1121 128 1110 95Q1099 62 1079 38.5Q1059 15 1028.5 2.5Q998 -10 954 -10Q918 -10 887.5 -0.5Q857 9 836 29.5Q815 50 805.5 83.5Q796 117 802 165L862 664Q836 671 791 675.5Q746 680 692 680Q524 680 518 609Q513 567 581 541.5Q649 516 796 516L785 428H668L618 33Q605 -75 536 -134Q467 -193 353 -193Q253 -193 194 -163Q157 -211 101 -235.5Q45 -260 -26 -260Z" glyph-name="f_f_l.alt" horiz-adv-x="1131" /><glyph d="M8 0 18 83H69L116 467H65L76 550H580L557 359H458L461 384Q466 431 450 449Q434 467 376 467H323L305 312H363L371 372H436L412 182H347L354 234H294L276 83H349L339 0ZM565 1 575 84H626L673 468H622L633 551H1137L1114 360H1015L1018 385Q1023 432 1007 450Q991 468 933 468H880L862 313H920L928 373H993L969 183H904L911 235H851L833 84H906L896 1ZM1132 84H1183L1230 468H1179L1190 551H1505L1495 468H1437L1390 84H1447Q1463 84 1477.5 88Q1492 92 1504 102.5Q1516 113 1524.5 132Q1533 151 1537 181L1539 205H1637L1612 1H1122Z" glyph-name="f_f_l.alt.sc" horiz-adv-x="1660" /><glyph d="M8 0 18 83H69L116 467H65L76 550H580L557 359H458L462 385Q468 430 451 448.5Q434 467 376 467H323L305 312L437 324L425 222L294 234L276 83H349L339 0ZM556 0 566 83H617L664 467H613L624 550H1128L1105 359H1006L1010 385Q1016 430 999 448.5Q982 467 924 467H871L853 312L985 324L973 222L842 234L824 83H897L887 0ZM1113 83H1164L1211 467H1160L1171 550H1486L1476 467H1418L1371 83H1428Q1444 83 1458.5 87Q1473 91 1485 101.5Q1497 112 1505.5 131Q1514 150 1518 180L1520 204H1618L1593 0H1103Z" glyph-name="f_f_l.sc" horiz-adv-x="1642" /><glyph d="M-26 -260Q-113 -260 -155.5 -231.5Q-198 -203 -198 -161Q-198 -126 -175 -99.5Q-152 -73 -107 -73Q-69 -73 -48 -92.5Q-27 -112 -27 -144Q-27 -165 -38 -185Q-3 -183 12.5 -153.5Q28 -124 33 -85L97 428H38L48 516H109L112 537Q120 594 144.5 636.5Q169 679 206 706.5Q243 734 289 748Q335 762 387 762Q424 762 450.5 759Q477 756 499 753Q521 750 541.5 747Q562 744 587 744Q635 744 657 750.5Q679 757 689 762L711 754L695 623Q686 552 677.5 507Q669 462 660 423Q690 474 730 502Q770 530 824 530Q898 530 940 486.5Q982 443 980 365Q980 341 974.5 306Q969 271 962 235Q955 199 949.5 167.5Q944 136 944 120Q942 89 961 89Q975 89 983 108Q991 127 997 170H1067Q1056 83 1017 36.5Q978 -10 897 -10Q824 -10 780.5 24Q737 58 739 128Q739 149 744 177Q749 205 755 235Q761 265 766 293Q771 321 771 340Q772 369 760.5 384.5Q749 400 729 400Q668 400 653 282L617 0H409L493 671Q485 677 471.5 682Q458 687 438 687Q382 687 355.5 657.5Q329 628 321 567L315 516H430L420 428H304L247 -27Q240 -81 217.5 -124.5Q195 -168 159 -198Q123 -228 76 -244Q29 -260 -26 -260Z" glyph-name="f_h" horiz-adv-x="1068" /><glyph d="M38 428 48 516H149Q132 521 112 528.5Q92 536 75.5 549Q59 562 48.5 581.5Q38 601 41 630Q44 660 61 684.5Q78 709 112.5 725.5Q147 742 200.5 751Q254 760 330 760Q378 760 411 758Q444 756 471 753Q498 750 523.5 748Q549 746 580 746Q612 746 632 747Q652 748 664.5 750Q677 752 684 754.5Q691 757 697 760L714 750L698 623Q690 552 681.5 507Q673 462 664 423Q693 474 733.5 502Q774 530 827 530Q902 530 943.5 486.5Q985 443 983 365Q982 333 976.5 299Q971 265 964 233Q957 201 951 172Q945 143 944 120Q944 89 961 89Q975 89 983 108Q991 127 998 170H1068Q1057 83 1017.5 36.5Q978 -10 897 -10Q824 -10 781 24Q738 58 740 128Q741 156 746 182Q751 208 757 234Q763 260 768.5 286.5Q774 313 775 340Q776 369 764.5 384.5Q753 400 733 400Q671 400 656 282L621 0H413L496 664Q469 671 426 675.5Q383 680 329 680Q160 680 154 609Q150 567 218 541.5Q286 516 432 516L422 428H304L247 -27Q240 -82 217.5 -125Q195 -168 159.5 -198Q124 -228 77 -244Q30 -260 -26 -260Q-106 -260 -152 -233.5Q-198 -207 -198 -159Q-198 -123 -175 -97Q-152 -71 -107 -71Q-69 -71 -48 -90Q-27 -109 -27 -141Q-27 -151 -30.5 -162Q-34 -173 -44 -181Q-43 -182 -40 -182Q-34 -183 -25 -183Q4 -183 15.5 -161.5Q27 -140 32 -97L97 428Z" glyph-name="f_h.alt" horiz-adv-x="1069" /><glyph d="M8 0 18 83H69L116 467H65L76 550H580L557 359H458L461 384Q466 431 450 449Q434 467 376 467H323L305 312H363L371 372H436L412 182H347L354 234H294L276 83H349L339 0ZM575 83H626L673 467H622L633 550H934L923 467H880L862 322H1008L1026 467H984L994 550H1295L1284 467H1233L1187 83H1237L1227 0H926L936 83H980L999 239H852L833 83H876L866 0H565Z" glyph-name="f_h.alt.sc" horiz-adv-x="1298" /><glyph d="M8 0 18 83H69L116 467H65L76 550H580L557 359H458L462 385Q468 430 451 448.5Q434 467 376 467H323L305 312L437 324L425 222L294 234L276 83H349L339 0ZM566 83H617L664 467H613L624 550H925L914 467H871L853 322H999L1017 467H975L985 550H1286L1275 467H1224L1178 83H1228L1218 0H917L927 83H971L990 239H843L824 83H867L857 0H556Z" glyph-name="f_h.sc" horiz-adv-x="1289" /><glyph d="M781 679Q781 637 753 609.5Q725 582 682 582Q646 582 625 603.5Q604 625 604 657Q604 699 632 726Q660 753 702 753Q739 753 760 732Q781 711 781 679ZM-26 -260Q-113 -260 -155.5 -231.5Q-198 -203 -198 -161Q-198 -126 -175 -99.5Q-152 -73 -107 -73Q-69 -73 -48 -92.5Q-27 -112 -27 -144Q-27 -165 -38 -185Q-19 -185 -6.5 -176.5Q6 -168 14 -154.5Q22 -141 26 -123Q30 -105 33 -85L97 428H38L48 516H109L115 562Q128 659 200 714.5Q272 770 391 770Q430 770 463 765.5Q496 761 520 750Q544 739 558 719Q572 699 572 668Q572 635 549 608.5Q526 582 483 582Q440 582 418.5 604.5Q397 627 397 654Q397 661 399.5 672.5Q402 684 407 695Q359 693 342 662Q325 631 320 574L315 516H408Q483 516 528 516.5Q573 517 598.5 518.5Q624 520 636 523Q648 526 657 530L674 520L626 127Q622 89 642 89Q656 89 664 108Q672 127 678 170H748Q737 83 698 36.5Q659 -10 578 -10Q542 -10 511 -0.5Q480 9 458.5 30Q437 51 427.5 84.5Q418 118 424 165L456 428H304L247 -27Q240 -81 217.5 -124.5Q195 -168 159 -198Q123 -228 76 -244Q29 -260 -26 -260Z" glyph-name="f_idieresis" horiz-adv-x="752" /><glyph d="M775 676Q774 637 747 609Q720 581 676 581Q639 581 618.5 603Q598 625 598 657Q599 696 626 724Q653 752 697 752Q734 752 754.5 730Q775 708 775 676ZM-26 -260Q-106 -260 -152 -233.5Q-198 -207 -198 -159Q-198 -123 -175 -97Q-152 -71 -107 -71Q-69 -71 -48 -90Q-27 -109 -27 -141Q-27 -151 -30.5 -162Q-34 -173 -44 -181Q-43 -182 -40 -182Q-34 -183 -25 -183Q4 -183 15.5 -161.5Q27 -140 32 -97L97 428H38L48 516H149Q135 519 118.5 526Q102 533 88 545Q74 557 65 574Q56 591 56 615Q56 692 124.5 730.5Q193 769 321 769Q364 769 405 764.5Q446 760 477.5 748Q509 736 528.5 716Q548 696 548 665Q548 630 523.5 605.5Q499 581 461 581Q419 581 396.5 599.5Q374 618 374 651Q374 672 384 683Q359 688 326 688Q177 688 177 607Q177 565 244.5 540.5Q312 516 430 516Q498 516 539 516.5Q580 517 604 518.5Q628 520 639.5 523Q651 526 660 530L676 520L628 127Q624 89 644 89Q658 89 666 108Q674 127 681 170H751Q740 83 700.5 36.5Q661 -10 580 -10Q544 -10 513 -0.5Q482 9 461 30Q440 51 430 84.5Q420 118 426 165L459 428H304L247 -27Q240 -82 217.5 -125Q195 -168 159 -198Q123 -228 76 -244Q29 -260 -26 -260Z" glyph-name="f_idieresis.alt" horiz-adv-x="754" /><glyph d="M8 0 18 83H69L116 467H65L76 550H580L557 359H458L461 384Q466 431 450 449Q434 467 376 467H323L305 312H363L371 372H436L412 182H347L354 234H294L276 83H349L339 0ZM973 678Q973 643 949.5 622Q926 601 889 601Q858 601 839.5 617Q821 633 821 661Q821 694 845 715.5Q869 737 904 737Q936 737 954.5 721Q973 705 973 678ZM780 678Q780 643 756 622Q732 601 696 601Q665 601 646.5 617Q628 633 628 661Q628 694 651.5 715.5Q675 737 711 737Q743 737 761 721Q779 705 780 678ZM565 0 575 83H626L673 467H622L633 550H942L931 467H880L833 83H884L874 0Z" glyph-name="f_idieresis.alt.sc" horiz-adv-x="944" /><glyph d="M8 0 18 83H69L116 467H65L76 550H580L557 359H458L462 385Q468 430 451 448.5Q434 467 376 467H323L305 312L437 324L425 222L294 234L276 83H349L339 0ZM964 678Q964 643 940.5 622Q917 601 880 601Q849 601 830.5 617Q812 633 812 661Q812 694 836 715.5Q860 737 895 737Q927 737 945.5 721Q964 705 964 678ZM771 678Q771 643 747 622Q723 601 687 601Q656 601 637.5 617Q619 633 619 661Q619 694 642.5 715.5Q666 737 702 737Q734 737 752 721Q770 705 771 678ZM556 0 566 83H617L664 467H613L624 550H933L922 467H871L824 83H875L865 0Z" glyph-name="f_idieresis.sc" horiz-adv-x="935" /><glyph d="M341 -144Q341 -165 330 -185Q366 -184 379.5 -154.5Q393 -125 399 -71L459 428H304L247 -27Q244 -55 237 -75Q242 -74 248 -73.5Q254 -73 261 -73Q299 -73 320 -92.5Q341 -112 341 -144ZM342 -260Q268 -260 226.5 -239Q185 -218 174 -184Q137 -221 86 -240.5Q35 -260 -26 -260Q-113 -260 -155.5 -231.5Q-198 -203 -198 -161Q-198 -126 -175 -99.5Q-152 -73 -107 -73Q-69 -73 -48 -92.5Q-27 -112 -27 -144Q-27 -165 -38 -185Q-4 -184 12 -155.5Q28 -127 33 -85L97 428H38L48 516H109L111 532Q126 651 218.5 706.5Q311 762 461 762Q503 762 541 755.5Q579 749 608 736Q637 723 654.5 703Q672 683 672 657Q672 621 649 598.5Q626 576 584 576Q540 576 519 598Q498 620 498 646Q498 667 512 681Q499 687 468 687Q441 687 416 680Q391 673 371 656.5Q351 640 337 611.5Q323 583 317 541L315 516H404Q470 516 516.5 516.5Q563 517 593 518.5Q623 520 639 523Q655 526 662 530L678 520L614 0Q607 -61 589 -109.5Q571 -158 538.5 -191.5Q506 -225 458 -242.5Q410 -260 342 -260Z" glyph-name="f_j" horiz-adv-x="703" /><glyph d="M38 428 48 516H149Q135 519 118.5 526Q102 533 88 545Q74 557 65 574Q56 591 56 615Q56 651 79.5 678Q103 705 143.5 723.5Q184 742 239.5 751Q295 760 359 760Q419 760 474.5 753.5Q530 747 572.5 733.5Q615 720 640.5 698Q666 676 666 644Q666 609 644.5 584.5Q623 560 579 560Q537 560 514.5 578.5Q492 597 492 630Q492 640 495 647.5Q498 655 503 662Q476 670 441 675Q406 680 364 680Q280 680 228.5 661.5Q177 643 177 607Q177 565 244.5 540.5Q312 516 430 516Q490 516 531 516.5Q572 517 599 518.5Q626 520 641 523Q656 526 663 530L678 520L619 33Q642 15 654.5 -9.5Q667 -34 667 -66Q667 -104 654 -139Q641 -174 613.5 -201Q586 -228 543.5 -244Q501 -260 442 -260Q357 -260 307.5 -230Q258 -200 258 -146Q258 -107 282.5 -79Q307 -51 356 -51Q395 -51 415.5 -71Q436 -91 436 -119Q436 -140 427 -156Q418 -172 403 -182Q415 -188 432 -188Q474 -188 498.5 -158.5Q523 -129 523 -89Q523 -44 491 -22Q459 0 408 0L460 428H304L247 -27Q240 -82 217.5 -125Q195 -168 159 -198Q123 -228 76 -244Q29 -260 -26 -260Q-106 -260 -152 -233.5Q-198 -207 -198 -159Q-198 -123 -175 -97Q-152 -71 -107 -71Q-69 -71 -48 -90Q-27 -109 -27 -141Q-27 -151 -30.5 -162Q-34 -173 -44 -181Q-43 -182 -40 -182Q-34 -183 -25 -183Q4 -183 15.5 -161.5Q27 -140 32 -97L97 428Z" glyph-name="f_j.alt" horiz-adv-x="709" /><glyph d="M8 0 18 83H69L116 467H65L76 550H580L557 359H458L461 384Q466 431 450 449Q434 467 376 467H323L305 312H363L371 372H436L412 182H347L354 234H294L276 83H349L339 0ZM935 191Q923 92 864.5 42Q806 -8 686 -8Q644 -8 608.5 -0.5Q573 7 547.5 22Q522 37 507.5 58.5Q493 80 493 107Q493 150 519.5 178.5Q546 207 593 207Q628 207 649.5 188Q671 169 671 137Q671 115 660 98.5Q649 82 637 76Q640 75 645 74Q649 72 654 71.5Q659 71 666 71Q691 71 703.5 83.5Q716 96 720 125L762 467H710L720 550H1030L1020 467H969Z" glyph-name="f_j.alt.sc" horiz-adv-x="1020" /><glyph d="M8 0 18 83H69L116 467H65L76 550H580L557 359H458L462 385Q468 430 451 448.5Q434 467 376 467H323L305 312L437 324L425 222L294 234L276 83H349L339 0ZM926 191Q914 92 855.5 42Q797 -8 677 -8Q635 -8 599.5 -0.5Q564 7 538.5 22Q513 37 498.5 58.5Q484 80 484 107Q484 150 510.5 178.5Q537 207 584 207Q619 207 640.5 188Q662 169 662 137Q662 115 651 98.5Q640 82 628 76Q631 75 636 74Q640 72 645 71.5Q650 71 657 71Q682 71 694.5 83.5Q707 96 711 125L753 467H701L711 550H1021L1011 467H960Z" glyph-name="f_j.sc" horiz-adv-x="1011" /><glyph d="M-26 -260Q-113 -260 -155.5 -231.5Q-198 -203 -198 -161Q-198 -126 -175 -99.5Q-152 -73 -107 -73Q-69 -73 -48 -92.5Q-27 -112 -27 -144Q-27 -165 -38 -185Q-6 -184 11 -154.5Q28 -125 33 -85L97 428H38L48 516H109L112 535Q121 592 145.5 634.5Q170 677 206.5 705.5Q243 734 289 748Q335 762 387 762Q424 762 450.5 759Q477 756 499 753Q521 750 541.5 747Q562 744 587 744Q635 744 657 750.5Q679 757 689 762L711 754L695 627Q691 592 687 565Q683 538 679.5 516.5Q676 495 673 476.5Q670 458 666 439Q689 477 730 503.5Q771 530 837 530Q906 530 949 498.5Q992 467 992 411Q992 362 959 322.5Q926 283 867 259L951 88H993L983 0H767L670 207L674 250Q725 262 753.5 298.5Q782 335 782 381Q782 405 771 418.5Q760 432 738 432Q706 432 684 392.5Q662 353 652 272L618 0H410L493 675Q476 687 438 687Q382 687 355.5 657.5Q329 628 321 567L315 516H430L420 428H304L247 -27Q240 -81 217.5 -124.5Q195 -168 159 -198Q123 -228 76 -244Q29 -260 -26 -260Z" glyph-name="f_k" horiz-adv-x="1028" /><glyph d="M853 428H675L653 253ZM-26 -260Q-106 -260 -152 -233.5Q-198 -207 -198 -159Q-198 -123 -175 -97Q-152 -71 -107 -71Q-69 -71 -48 -90Q-27 -109 -27 -141Q-27 -151 -30.5 -162Q-34 -173 -44 -181Q-43 -182 -40 -182Q-34 -183 -25 -183Q4 -183 15.5 -161.5Q27 -140 32 -97L97 428H38L48 516H149Q132 521 112 528.5Q92 536 75.5 549Q59 562 48.5 581.5Q38 601 41 630Q44 660 61 684.5Q78 709 112.5 725.5Q147 742 200.5 751Q254 760 330 760Q378 760 411 758Q444 756 471 753Q498 750 523.5 748Q549 746 580 746Q612 746 632 747Q652 748 664.5 750Q677 752 684 754.5Q691 757 697 760L715 750L686 516H1014L1004 439L839 303L957 88H995L984 0H786L688 180L639 140L622 0H415L496 664Q469 671 426 675.5Q383 680 329 680Q160 680 154 609Q150 567 217.5 541.5Q285 516 432 516L422 428H304L247 -27Q240 -82 217.5 -125Q195 -168 159 -198Q123 -228 76 -244Q29 -260 -26 -260Z" glyph-name="f_k.alt" horiz-adv-x="1024" /><glyph d="M8 0 18 83H69L116 467H65L76 550H580L557 359H458L461 384Q466 431 450 449Q434 467 376 467H323L305 312H363L371 372H436L412 182H347L354 234H294L276 83H349L339 0ZM857 279 1120 467H880ZM565 0 575 83H626L673 467H622L633 550H1262L1251 467L1051 327L1195 83H1234L1224 0H927L938 83H970L892 215L845 182L833 83H872L862 0Z" glyph-name="f_k.alt.sc" horiz-adv-x="1258" /><glyph d="M8 0 18 83H69L116 467H65L76 550H580L557 359H458L462 385Q468 430 451 448.5Q434 467 376 467H323L305 312L437 324L425 222L294 234L276 83H349L339 0ZM556 0 566 83H617L664 467H613L624 550H921L910 467H871L850 301L1051 467H990L1000 550H1251L1240 467H1176L1020 339L1186 83H1224L1215 0H918L928 83H966L874 224L838 193L824 83H863L853 0Z" glyph-name="f_k.sc" horiz-adv-x="1246" /><glyph d="M415 516Q474 516 498 538.5Q522 561 526 593Q532 640 508 663.5Q484 687 442 687Q388 687 358.5 656.5Q329 626 320 557L315 516ZM-26 -260Q-113 -260 -155.5 -231.5Q-198 -203 -198 -161Q-198 -126 -175 -99.5Q-152 -73 -107 -73Q-69 -73 -48 -92.5Q-27 -112 -27 -144Q-27 -165 -38 -185Q-3 -184 12 -157.5Q27 -131 32 -93L97 428H38L48 516H109L112 537Q120 594 147.5 636Q175 678 217 706Q259 734 313 748Q367 762 427 762Q483 762 530 750.5Q577 739 610 714.5Q643 690 659 651Q675 612 668 558L663 516H820L810 428H655L628 206Q621 152 628.5 123.5Q636 95 665 95Q693 95 707.5 128Q722 161 729 215H797Q784 109 735.5 49.5Q687 -10 592 -10Q486 -10 446 40.5Q406 91 419 197L447 428H304L250 0Q233 -128 160.5 -194Q88 -260 -26 -260Z" glyph-name="f_t" horiz-adv-x="816" /><glyph d="M479 516Q483 547 475.5 576.5Q468 606 446 629Q424 652 386.5 666Q349 680 292 680Q232 680 194.5 662Q157 644 154 611Q150 568 215.5 542Q281 516 424 516ZM-26 -260Q-106 -262 -152 -235.5Q-198 -209 -198 -160Q-198 -125 -175 -99Q-152 -73 -107 -72Q-69 -73 -48 -91.5Q-27 -110 -27 -142Q-27 -153 -30.5 -164Q-34 -175 -44 -182Q-44 -183 -40 -184Q-36 -185 -25 -184Q4 -185 15.5 -163.5Q27 -142 32 -98L97 427H38L48 515H149Q132 520 112 527.5Q92 535 75.5 548.5Q59 562 48.5 582Q38 602 41 631Q47 690 108.5 725Q170 760 285 760Q396 760 477 726Q558 692 600 620L731 760L773 750Q749 704 722.5 648Q696 592 686 516H855L844 428H675L648 205Q640 144 648 119Q656 94 685 94Q703 94 715 108.5Q727 123 734.5 143Q742 163 745.5 184Q749 205 750 218H819Q814 177 802.5 136.5Q791 96 767 63.5Q743 31 703 10.5Q663 -10 601 -10Q572 -10 540 -3.5Q508 3 482.5 22.5Q457 42 443.5 78.5Q430 115 437 174L468 428H304L247 -28Q240 -83 217.5 -126Q195 -169 159 -199Q123 -229 76 -244.5Q29 -260 -26 -260Z" glyph-name="f_t.alt" horiz-adv-x="841" /><glyph d="M8 0 18 83H69L116 467H65L76 550H580L557 359H458L461 384Q466 431 450 449Q434 467 376 467H323L305 312H363L371 372H436L412 182H347L354 234H294L276 83H349L339 0ZM706 83H766L814 469H801Q757 469 739.5 448Q722 427 715 375L710 342H612L638 550H1217L1191 342H1093L1097 375Q1105 429 1091.5 449Q1078 469 1038 469H1021L973 83H1033L1023 0H696Z" glyph-name="f_t.alt.sc" horiz-adv-x="1197" /><glyph d="M8 0 18 83H69L116 467H65L76 550H580L557 359H458L462 385Q468 430 451 448.5Q434 467 376 467H323L305 312L437 324L425 222L294 234L276 83H349L339 0ZM697 83H757L805 469H792Q748 469 730.5 448Q713 427 706 375L701 342H603L629 550H1208L1182 342H1084L1088 375Q1096 429 1082.5 449Q1069 469 1029 469H1012L964 83H1024L1014 0H687Z" glyph-name="f_t.sc" horiz-adv-x="1188" /><glyph d="M-26 -260Q-113 -260 -155.5 -231.5Q-198 -203 -198 -161Q-198 -126 -175 -99.5Q-152 -73 -107 -73Q-69 -73 -48 -92.5Q-27 -112 -27 -144Q-27 -165 -38 -185Q-4 -184 12 -154Q28 -124 33 -85L97 428H38L48 516H109L111 532Q119 592 149.5 635Q180 678 227 706.5Q274 735 334.5 748.5Q395 762 461 762Q506 762 544.5 758Q583 754 610.5 743Q638 732 653.5 711.5Q669 691 669 659Q669 627 644 601.5Q619 576 573 576Q534 576 514.5 598Q495 620 495 646Q495 667 506 683Q497 685 487.5 686Q478 687 467 687Q440 687 415.5 680Q391 673 371 656.5Q351 640 337 611.5Q323 583 317 541L315 516H408Q483 516 528 516.5Q573 517 598.5 518.5Q624 520 636 523Q648 526 657 530L674 520L626 127Q622 89 642 89Q656 89 664 108Q672 127 678 170H748Q737 83 698 36.5Q659 -10 578 -10Q542 -10 511 -0.5Q480 9 458.5 30Q437 51 427.5 84.5Q418 118 424 165L456 428H304L247 -27Q240 -81 217.5 -124.5Q195 -168 159 -198Q123 -228 76 -244Q29 -260 -26 -260Z" glyph-name="fi" horiz-adv-x="752" unicode="&#64257;" /><glyph d="M-26 -260Q-106 -260 -152 -233.5Q-198 -207 -198 -159Q-198 -123 -175 -97Q-152 -71 -107 -71Q-69 -71 -48 -90Q-27 -109 -27 -141Q-27 -151 -30.5 -162Q-34 -173 -44 -181Q-43 -182 -40 -182Q-34 -183 -25 -183Q4 -183 15.5 -161.5Q27 -140 32 -97L97 428H38L48 516H149Q135 519 118.5 526Q102 533 88 545Q74 557 65 574Q56 591 56 615Q56 651 79.5 678Q103 705 143.5 723.5Q184 742 239.5 751Q295 760 359 760Q419 760 474.5 753.5Q530 747 572.5 733.5Q615 720 640.5 698Q666 676 666 644Q666 609 643.5 584.5Q621 560 579 560Q537 560 514.5 578.5Q492 597 492 630Q492 648 504 662Q478 670 443.5 675Q409 680 364 680Q280 680 228.5 661.5Q177 643 177 607Q177 565 244.5 540.5Q312 516 430 516Q498 516 539 516.5Q580 517 604 518.5Q628 520 639.5 523Q651 526 660 530L676 520L628 127Q624 89 644 89Q658 89 666 108Q674 127 681 170H751Q740 83 700.5 36.5Q661 -10 580 -10Q544 -10 513 -0.5Q482 9 461 30Q440 51 430 84.5Q420 118 426 165L459 428H304L247 -27Q240 -82 217.5 -125Q195 -168 159 -198Q123 -228 76 -244Q29 -260 -26 -260Z" glyph-name="fi.alt" horiz-adv-x="754" /><glyph d="M8 0 18 83H69L116 467H65L76 550H580L557 359H458L461 384Q466 431 450 449Q434 467 376 467H323L305 312H363L371 372H436L412 182H347L354 234H294L276 83H349L339 0ZM565 0 575 83H626L673 467H622L633 550H942L931 467H880L833 83H884L874 0Z" glyph-name="fi.alt.sc" horiz-adv-x="944" /><glyph d="M8 0 18 83H69L116 467H65L76 550H580L557 359H458L462 385Q468 430 451 448.5Q434 467 376 467H323L305 312L437 324L425 222L294 234L276 83H349L339 0ZM556 0 566 83H617L664 467H613L624 550H933L922 467H871L824 83H875L865 0Z" glyph-name="fi.sc" horiz-adv-x="935" /><glyph d="M552 244Q552 201 534 155.5Q516 110 479.5 73.5Q443 37 387 13.5Q331 -10 255 -10Q137 -10 77 27Q17 64 17 132Q17 172 44.5 199.5Q72 227 123 227Q163 227 183.5 205.5Q204 184 204 152Q204 112 174 88Q180 84 190 81.5Q200 79 214 79Q244 79 266.5 93Q289 107 304 130Q319 153 326.5 182Q334 211 334 242Q334 300 308 325.5Q282 351 235 351Q202 351 177 338Q152 325 141 308H72L147 690H567L553 571H222L191 414Q222 428 254 434Q286 440 323 440Q382 440 425.5 424.5Q469 409 497 382Q525 355 538.5 319.5Q552 284 552 244Z" glyph-name="five" horiz-adv-x="584" unicode="5" /><glyph d="M145 -94Q176 -94 191 -64Q206 -34 206 5Q206 37 190 52Q174 67 146 67Q122 67 106.5 58Q91 49 84 38H32L83 300H392L381 203H142L125 121Q148 130 171 133.5Q194 137 217 137Q263 137 295 127Q327 117 346.5 99.5Q366 82 375 59.5Q384 37 384 13Q384 -18 372.5 -48.5Q361 -79 335 -103Q309 -127 267.5 -142Q226 -157 166 -157Q82 -157 40.5 -134Q-1 -111 -1 -72Q-1 -59 3 -46Q7 -33 16.5 -22.5Q26 -12 41 -5.5Q56 1 77 1Q107 1 122.5 -12.5Q138 -26 138 -48Q138 -60 133 -72Q128 -84 119 -89Q126 -94 145 -94Z" glyph-name="five.inferior" horiz-adv-x="426" /><glyph d="M202 -180Q155 -180 116 -172Q77 -164 49 -147.5Q21 -131 5.5 -106Q-10 -81 -10 -48Q-10 -29 -4.5 -11.5Q1 6 12.5 19.5Q24 33 42.5 41.5Q61 50 87 50Q128 50 148.5 30.5Q169 11 169 -21Q169 -37 161.5 -56.5Q154 -76 134 -86Q148 -96 179 -96Q210 -96 232.5 -80.5Q255 -65 270 -40.5Q285 -16 292 15Q299 46 299 77Q299 129 274 155.5Q249 182 203 182Q169 182 145 168.5Q121 155 109 138H41L116 516H527L514 404H188L155 242Q187 256 220.5 261Q254 266 289 266Q350 266 392.5 251Q435 236 461.5 210.5Q488 185 500 152Q512 119 512 82Q512 31 494 -16.5Q476 -64 438 -100.5Q400 -137 341.5 -158.5Q283 -180 202 -180Z" glyph-name="five.old" horiz-adv-x="558" /><glyph d="M233 -8Q124 -8 67.5 19Q11 46 11 98Q11 139 37.5 164.5Q64 190 112 190Q150 190 169.5 172Q189 154 189 125Q189 97 170 75Q175 74 179.5 74Q184 74 190 74Q240 74 263.5 107Q287 140 287 189Q287 230 263.5 249.5Q240 269 201 269Q172 269 151.5 258.5Q131 248 123 237H58L122 550H508L494 444H193L172 337Q198 344 223.5 347.5Q249 351 288 351Q342 351 381.5 338.5Q421 326 447.5 304.5Q474 283 486.5 254Q499 225 499 193Q499 158 483 122.5Q467 87 434 58Q401 29 351 10.5Q301 -8 233 -8Z" glyph-name="five.sc" horiz-adv-x="535" /><glyph d="M217 488Q248 488 263 518Q278 548 278 587Q278 619 262 634Q246 649 218 649Q194 649 178.5 640Q163 631 156 620H104L155 882H464L453 785H214L197 703Q220 712 243 715.5Q266 719 289 719Q335 719 367 709Q399 699 418.5 681.5Q438 664 447 641.5Q456 619 456 595Q456 564 444.5 533.5Q433 503 407 479Q381 455 339.5 440Q298 425 238 425Q154 425 112.5 448Q71 471 71 510Q71 523 75 536Q79 549 88.5 559.5Q98 570 113 576.5Q128 583 149 583Q179 583 194.5 569.5Q210 556 210 534Q210 522 205 510Q200 498 191 493Q198 488 217 488Z" glyph-name="five.superior" horiz-adv-x="461" /><glyph d="M581 244Q581 201 563 155.5Q545 110 508.5 73.5Q472 37 416 13.5Q360 -10 284 -10Q166 -10 106 27Q46 64 46 132Q46 172 73.5 199.5Q101 227 152 227Q192 227 212.5 205.5Q233 184 233 152Q233 112 203 88Q209 84 219 81.5Q229 79 243 79Q273 79 295.5 93Q318 107 333 130Q348 153 355.5 182Q363 211 363 242Q363 300 337 325.5Q311 351 264 351Q231 351 206 338Q181 325 170 308H101L176 690H596L582 571H251L220 414Q251 428 283 434Q315 440 352 440Q411 440 454.5 424.5Q498 409 526 382Q554 355 567.5 319.5Q581 284 581 244Z" glyph-name="five.tln" horiz-adv-x="640" /><glyph d="M243 -180Q196 -180 157 -172Q118 -164 90 -147.5Q62 -131 46.5 -106Q31 -81 31 -48Q31 -29 36.5 -11.5Q42 6 53.5 19.5Q65 33 83.5 41.5Q102 50 128 50Q169 50 189.5 30.5Q210 11 210 -21Q210 -37 202.5 -56.5Q195 -76 175 -86Q189 -96 220 -96Q251 -96 273.5 -80.5Q296 -65 311 -40.5Q326 -16 333 15Q340 46 340 77Q340 129 315 155.5Q290 182 244 182Q210 182 186 168.5Q162 155 150 138H82L157 516H568L555 404H229L196 242Q228 256 261.5 261Q295 266 330 266Q391 266 433.5 251Q476 236 502.5 210.5Q529 185 541 152Q553 119 553 82Q553 31 535 -16.5Q517 -64 479 -100.5Q441 -137 382.5 -158.5Q324 -180 243 -180Z" glyph-name="five.ton" horiz-adv-x="640" /><glyph d="M-26 -260Q-113 -260 -155.5 -231.5Q-198 -203 -198 -161Q-198 -126 -175 -99.5Q-152 -73 -107 -73Q-69 -73 -48 -92.5Q-27 -112 -27 -144Q-27 -165 -38 -185Q-1 -183 13.5 -153.5Q28 -124 33 -85L97 428H38L48 516H109L111 534Q117 591 141.5 634Q166 677 203.5 705.5Q241 734 288 748Q335 762 387 762Q424 762 450.5 759Q477 756 499 753Q521 750 541.5 747Q562 744 587 744Q635 744 656.5 750.5Q678 757 689 762L710 754L635 128Q633 107 637.5 98Q642 89 652 89Q666 89 673.5 107Q681 125 688 170H757Q752 128 741 95Q730 62 710 38.5Q690 15 660 2.5Q630 -10 586 -10Q550 -10 519.5 -0.5Q489 9 468 29.5Q447 50 437 83.5Q427 117 433 165L493 671Q485 677 471.5 682Q458 687 438 687Q382 687 355.5 657.5Q329 628 321 567L315 516H430L420 428H304L247 -27Q240 -81 217 -124.5Q194 -168 158.5 -198Q123 -228 76 -244Q29 -260 -26 -260Z" glyph-name="fl" horiz-adv-x="762" unicode="&#64258;" /><glyph d="M-26 -260Q-106 -260 -152 -233.5Q-198 -207 -198 -159Q-198 -123 -175 -97Q-152 -71 -107 -71Q-69 -71 -48 -90Q-27 -109 -27 -141Q-27 -151 -30.5 -162Q-34 -173 -44 -181Q-43 -182 -40 -182Q-34 -183 -25 -183Q4 -183 15.5 -161.5Q27 -140 32 -97L97 428H38L48 516H149Q132 521 112 528.5Q92 536 75.5 549Q59 562 48.5 581.5Q38 601 41 630Q44 660 61 684.5Q78 709 112.5 725.5Q147 742 200.5 751Q254 760 330 760Q378 760 411.5 758Q445 756 472.5 753Q500 750 525.5 748Q551 746 582 746Q614 746 634 747Q654 748 666.5 750Q679 752 686 754.5Q693 757 699 760L716 750L641 128Q638 107 642.5 98Q647 89 657 89Q671 89 678.5 107Q686 125 693 170H763Q758 128 747 95Q736 62 716 38.5Q696 15 665.5 2.5Q635 -10 591 -10Q555 -10 524.5 -0.5Q494 9 473 29.5Q452 50 442 83.5Q432 117 438 165L499 664Q472 671 427.5 675.5Q383 680 329 680Q160 680 154 609Q150 567 218 541.5Q286 516 432 516L422 428H304L247 -27Q240 -82 217.5 -125Q195 -168 159.5 -198Q124 -228 77 -244Q30 -260 -26 -260Z" glyph-name="fl.alt" horiz-adv-x="767" /><glyph d="M8 0 18 83H69L116 467H65L76 550H580L557 359H458L461 384Q466 431 450 449Q434 467 376 467H323L305 312H363L371 372H436L412 182H347L354 234H294L276 83H349L339 0ZM575 83H626L673 467H622L633 550H948L938 467H880L833 83H890Q906 83 920.5 87Q935 91 947 101.5Q959 112 967.5 131Q976 150 980 180L982 204H1080L1055 0H565Z" glyph-name="fl.alt.sc" horiz-adv-x="1104" /><glyph d="M8 0 18 83H69L116 467H65L76 550H580L557 359H458L462 385Q468 430 451 448.5Q434 467 376 467H323L305 312L437 324L425 222L294 234L276 83H349L339 0ZM568 83H619L666 467H615L626 550H941L931 467H873L826 83H883Q899 83 913.5 87Q928 91 940 101.5Q952 112 960.5 131Q969 150 973 180L975 204H1073L1048 0H558Z" glyph-name="fl.sc" horiz-adv-x="1097" /><glyph d="M217 0 228 88H291L303 186H2L11 253L390 690H577L525 273H586L575 186H515L503 88H563L552 0ZM343 512 136 273H313Z" glyph-name="four" horiz-adv-x="625" unicode="4" /><glyph d="M141 -150 150 -79H188L193 -35H-13L-6 20L253 300H408L376 35H414L406 -35H367L361 -79H400L391 -150ZM218 169 94 35H202Z" glyph-name="four.inferior" horiz-adv-x="463" /><glyph d="M267 -170 289 6H-15L-7 73L379 530H561L507 93H583L573 6H496L474 -170ZM300 93 332 357 110 93Z" glyph-name="four.old" horiz-adv-x="630" /><glyph d="M195 0 205 83H257L265 142H0L8 207L338 550H522L481 225H533L522 142H472L464 83H515L506 0ZM297 402 127 225H274Z" glyph-name="four.sc" horiz-adv-x="577" /><glyph d="M213 432 222 503H260L265 547H59L66 602L325 882H480L448 617H486L478 547H439L433 503H472L463 432ZM290 751 166 617H274Z" glyph-name="four.superior" horiz-adv-x="483" /><glyph d="M224 0 235 88H298L310 186H9L18 253L397 690H584L532 273H593L582 186H522L510 88H570L559 0ZM350 512 143 273H320Z" glyph-name="four.tln" horiz-adv-x="640" /><glyph d="M272 -170 294 6H-10L-2 73L384 530H566L512 93H588L578 6H501L479 -170ZM305 93 337 357 115 93Z" glyph-name="four.ton" horiz-adv-x="640" /><glyph d="M244 307Q244 270 256 249.5Q268 229 289 229Q307 229 320.5 242.5Q334 256 343 278Q352 300 356.5 328.5Q361 357 361 386Q361 424 349.5 446Q338 468 315 468Q298 468 284.5 455Q271 442 262 420Q253 398 248.5 368.5Q244 339 244 307ZM557 -57Q557 -99 538 -136Q519 -173 479 -200.5Q439 -228 377 -244Q315 -260 229 -260Q181 -260 136.5 -254.5Q92 -249 57.5 -234.5Q23 -220 2.5 -196.5Q-18 -173 -18 -137Q-18 -52 113 -18Q75 -7 49 13Q23 33 23 70Q23 112 54 142Q85 172 145 187Q94 206 68 241.5Q42 277 42 325Q42 369 61 406.5Q80 444 116.5 471.5Q153 499 205.5 514.5Q258 530 325 530Q335 530 348.5 529Q362 528 375.5 526Q389 524 401.5 521.5Q414 519 422 516H641L631 428L527 441Q564 410 564 358Q564 320 547.5 285.5Q531 251 496.5 224.5Q462 198 408.5 182Q355 166 281 166Q221 166 199.5 158Q178 150 178 130Q178 111 200.5 103.5Q223 96 273 96Q418 95 487.5 59.5Q557 24 557 -57ZM137 -113Q137 -155 173.5 -170.5Q210 -186 263 -186Q294 -186 321 -180.5Q348 -175 368 -165Q388 -155 399.5 -140.5Q411 -126 411 -108Q411 -93 403 -80.5Q395 -68 373 -60Q351 -52 312.5 -47Q274 -42 213 -42H185Q168 -49 152.5 -66.5Q137 -84 137 -113Z" glyph-name="g" horiz-adv-x="618" unicode="g" /><glyph d="M901 679Q901 637 873 609.5Q845 582 803 582Q766 582 745 603.5Q724 625 724 657Q724 699 752 726Q780 753 823 753Q859 753 880 732Q901 711 901 679ZM581 -260Q543 -260 507 -249.5Q471 -239 444 -221Q405 -239 351.5 -249.5Q298 -260 229 -260Q181 -260 136.5 -254.5Q92 -249 57.5 -234.5Q23 -220 2.5 -196.5Q-18 -173 -18 -137Q-18 -93 13 -64Q44 -35 98 -18Q66 -7 44.5 13Q23 33 23 70Q23 112 51 143Q79 174 138 190Q90 209 66 243.5Q42 278 42 325Q42 369 61 406.5Q80 444 116.5 471.5Q153 499 205.5 514.5Q258 530 325 530Q335 530 348.5 529Q362 528 375.5 526Q389 524 401.5 521.5Q414 519 422 516H630Q699 516 747 516.5Q795 517 826.5 518.5Q858 520 875 523Q892 526 899 530L915 520L854 0Q847 -61 829 -109.5Q811 -158 779 -191.5Q747 -225 698.5 -242.5Q650 -260 581 -260ZM244 307Q244 270 256 251.5Q268 233 289 233Q307 233 320.5 246Q334 259 343 280.5Q352 302 356.5 329.5Q361 357 361 386Q361 462 315 462Q298 462 284.5 450Q271 438 262 417Q253 396 248.5 367.5Q244 339 244 307ZM558 -189Q603 -189 618 -158Q633 -127 639 -71L696 428L533 436Q547 421 555.5 401Q564 381 564 358Q564 320 547.5 285.5Q531 251 496.5 224.5Q462 198 408.5 182Q355 166 281 166Q221 166 199.5 158Q178 150 178 130Q178 111 200.5 103.5Q223 96 273 96Q418 95 487.5 59.5Q557 24 557 -57Q557 -90 545.5 -120Q534 -150 510 -175Q519 -181 530.5 -185Q542 -189 558 -189ZM137 -113Q137 -155 173.5 -170.5Q210 -186 263 -186Q293 -186 320 -180.5Q347 -175 367 -165Q387 -155 398.5 -140.5Q410 -126 410 -108Q410 -93 402 -81Q394 -69 372.5 -60.5Q351 -52 313 -47.5Q275 -43 216 -42H190Q169 -49 153 -66.5Q137 -84 137 -113Z" glyph-name="g_j" horiz-adv-x="942" /><glyph d="M883 687Q883 645 855 617.5Q827 590 784 590Q748 590 727 611Q706 632 706 664Q706 706 734 733.5Q762 761 804 761Q841 761 862 740Q883 719 883 687ZM633 -260Q578 -260 531.5 -248Q485 -236 451 -217Q411 -237 356 -248.5Q301 -260 229 -260Q181 -260 136.5 -254.5Q92 -249 57.5 -234.5Q23 -220 2.5 -196.5Q-18 -173 -18 -137Q-18 -52 112 -18Q70 -7 46.5 13Q23 33 23 70Q23 112 52.5 142.5Q82 173 141 188Q92 207 67 242Q42 277 42 325Q42 369 61 406.5Q80 444 116.5 471.5Q153 499 205.5 514.5Q258 530 325 530Q335 530 348.5 529Q362 528 375.5 526Q389 524 401.5 521.5Q414 519 422 516H632Q695 516 738.5 516.5Q782 517 810 518.5Q838 520 853.5 523Q869 526 877 530L893 520L833 33Q882 -2 882 -66Q882 -156 821.5 -208Q761 -260 633 -260ZM244 307Q244 270 256 251.5Q268 233 289 233Q307 233 320.5 246Q334 259 343 280.5Q352 302 356.5 329.5Q361 357 361 386Q361 462 315 462Q298 462 284.5 450Q271 438 262 417Q253 396 248.5 367.5Q244 339 244 307ZM637 -188Q686 -188 712 -158.5Q738 -129 738 -89Q738 -44 706 -22Q674 0 623 0L676 432L524 443Q564 412 564 358Q564 320 547.5 285.5Q531 251 496.5 224.5Q462 198 408.5 182Q355 166 281 166Q221 166 199.5 158Q178 150 178 130Q178 111 200.5 103.5Q223 96 273 96Q418 95 487.5 59.5Q557 24 557 -57Q557 -114 525 -158Q546 -172 574 -180Q602 -188 637 -188ZM137 -113Q137 -155 173.5 -170.5Q210 -186 263 -186Q293 -186 320 -180.5Q347 -175 367 -165Q387 -155 398.5 -140.5Q410 -126 410 -108Q410 -93 402 -80.5Q394 -68 372.5 -60Q351 -52 312.5 -47Q274 -42 213 -42H185Q168 -49 152.5 -66.5Q137 -84 137 -113Z" glyph-name="g_j.alt" horiz-adv-x="923" /><glyph d="M420 30Q401 16 367 4Q333 -8 282 -8Q220 -8 172.5 10.5Q125 29 92.5 61Q60 93 43 136Q26 179 26 227Q26 299 47.5 359.5Q69 420 108.5 464Q148 508 203.5 533Q259 558 326 558Q372 558 402.5 548Q433 538 450 524L481 557H570L545 353H447Q447 357 448 360Q448 369 448 373Q448 471 368 471Q329 471 303.5 442Q278 413 262.5 370Q247 327 241 279Q235 231 235 192Q235 128 260.5 103.5Q286 79 324 79Q340 79 351 81.5Q362 84 366 86L377 175H337L347 257H584L573 175H534L512 -8H448ZM603 0 613 83H664L711 467H660L671 550H980L969 467H918L871 83H922L912 0Z" glyph-name="g_j.alt.sc" horiz-adv-x="971" /><glyph d="M420 30Q401 16 367 4Q333 -8 282 -8Q220 -8 172.5 10.5Q125 29 92.5 61Q60 93 43 136Q26 179 26 227Q26 299 47.5 359.5Q69 420 108.5 464Q148 508 203.5 533Q259 558 326 558Q372 558 402.5 548Q433 538 450 524L481 557H570L545 353H447Q447 357 448 360Q448 369 448 373Q448 471 368 471Q329 471 303.5 442Q278 413 262.5 370Q247 327 241 279Q235 231 235 192Q235 128 260.5 103.5Q286 79 324 79Q340 79 351 81.5Q362 84 366 86L377 175H337L347 257H584L573 175H534L512 -8H448ZM603 0 613 83H664L711 467H660L671 550H980L969 467H918L871 83H922L912 0Z" glyph-name="g_j.sc" horiz-adv-x="971" /><glyph d="M428 -10Q373 -10 339 -5.5Q305 -1 301 0L311 83Q314 82 324 80.5Q334 79 348 79Q370 79 385.5 87.5Q401 96 411 110.5Q421 125 426 143Q431 161 431 179Q431 217 418 238Q405 259 389 277.5Q373 296 360 317.5Q347 339 347 376Q347 415 362.5 442.5Q378 470 396 495.5Q414 521 429 550.5Q444 580 444 623Q444 650 430.5 665.5Q417 681 394 681Q361 681 343.5 655.5Q326 630 320 580L252 0H45L95 428H36L47 516H106L109 538Q116 595 140.5 638Q165 681 204 710Q243 739 294 754Q345 769 405 769Q530 769 593.5 728.5Q657 688 657 619Q657 579 641 552Q625 525 600.5 506Q576 487 547.5 474Q519 461 495 449Q471 437 454.5 424.5Q438 412 438 393Q438 378 453 367Q468 356 491 345Q514 334 540 320.5Q566 307 589 287.5Q612 268 627 240.5Q642 213 642 174Q642 136 627.5 102.5Q613 69 586 44Q559 19 519 4.5Q479 -10 428 -10Z" glyph-name="germandbls" horiz-adv-x="667" unicode="&#223;" /><glyph d="M394 -10Q369 -10 350.5 -8.5Q332 -7 320 -5Q305 -3 294 0L304 84Q309 82 316 81Q322 79 330.5 78Q339 77 351 77Q372 77 387 88Q402 99 412 118Q422 137 426.5 161Q431 185 431 211Q431 256 408.5 294.5Q386 333 330 359L335 399L550 662H331L249 0H42L95 428H41L51 516H105L135 750H669L657 652L466 420Q543 392 592.5 342Q642 292 642 214Q642 161 623.5 119.5Q605 78 572 49Q539 20 493.5 5Q448 -10 394 -10Z" glyph-name="germandbls.alt" horiz-adv-x="674" /><glyph d="M218 649Q187 661 167.5 671Q148 681 137.5 690.5Q127 700 123.5 708.5Q120 717 120 726Q120 750 142.5 767.5Q165 785 206 785Q244 785 272 770.5Q300 756 322 714L373 617H307Z" glyph-name="grave" horiz-adv-x="369" unicode="`" /><glyph d="M200 773Q165 783 147.5 801.5Q130 820 130 841Q130 861 146.5 875Q163 889 195 889Q218 889 235.5 882.5Q253 876 266.5 865.5Q280 855 291.5 841.5Q303 828 314 815L377 740H307Z" glyph-name="grave.cap" horiz-adv-x="356" /><glyph d="M59 225 280 353 90 482 103 583 403 374 397 325 45 116Z" glyph-name="greater" horiz-adv-x="419" unicode="&gt;" /><glyph d="M35 135 256 263 66 392 79 493 379 284 373 235 21 26Z" glyph-name="greater.old" horiz-adv-x="399" /><glyph d="M50 195 238 289 73 385 84 475 355 308 349 265 38 98Z" glyph-name="greater.sc" horiz-adv-x="376" /><glyph d="M170 225 391 353 201 482 214 583 514 374 508 325 156 116Z" glyph-name="greater.tln" horiz-adv-x="640" /><glyph d="M156 135 377 263 187 392 200 493 500 284 494 235 142 26Z" glyph-name="greater.ton" horiz-adv-x="640" /><glyph d="M284 12 24 254 28 288 345 507 337 438 209 271 293 81ZM494 51 257 255 261 287 545 468 537 399 433 271 502 120Z" glyph-name="guillemotleft" horiz-adv-x="566" unicode="&#171;" /><glyph d="M302 92 42 334 46 368 363 587 355 518 227 351 311 161ZM512 131 275 335 279 367 563 548 555 479 451 351 520 200Z" glyph-name="guillemotleft.cap" horiz-adv-x="584" /><glyph d="M268 46 27 244 30 271 318 450 311 386 204 257 277 110ZM460 77 240 245 243 270 502 419 494 355 408 257 467 141Z" glyph-name="guillemotleft.sc" horiz-adv-x="538" /><glyph d="M321 12 61 254 65 288 382 507 374 438 246 271 330 81ZM531 51 294 255 298 287 582 468 574 399 470 271 539 120Z" glyph-name="guillemotleft.tln" horiz-adv-x="640" /><glyph d="M283 507 545 288 541 254 222 12 231 81 360 267 274 438ZM74 468 312 287 308 255 23 51 31 120 136 267 66 399Z" glyph-name="guillemotright" horiz-adv-x="567" unicode="&#187;" /><glyph d="M302 587 564 368 560 334 241 92 250 161 379 347 293 518ZM93 548 331 367 327 335 42 131 50 200 155 347 85 479Z" glyph-name="guillemotright.cap" horiz-adv-x="584" /><glyph d="M266 450 510 271 507 244 217 46 225 110 333 253 258 386ZM75 419 297 270 293 245 34 77 41 141 128 253 68 355Z" glyph-name="guillemotright.sc" horiz-adv-x="536" /><glyph d="M319 507 581 288 577 254 258 12 267 81 396 267 310 438ZM110 468 348 287 344 255 59 51 67 120 172 267 102 399Z" glyph-name="guillemotright.tln" horiz-adv-x="640" /><glyph d="M352 128Q352 156 357.5 182.5Q363 209 369.5 235Q376 261 381.5 287Q387 313 387 340Q387 369 376.5 384.5Q366 400 345 400Q284 400 269 282L233 0H26L107 658H50L60 746Q135 746 180 746.5Q225 747 251 748.5Q277 750 289 753Q301 756 310 760L326 750L311 623Q303 552 294 507.5Q285 463 276 423Q306 474 346.5 502Q387 530 440 530Q514 530 555 486.5Q596 443 596 365Q596 333 590 299Q584 265 576.5 233Q569 201 563 172Q557 143 557 120Q557 89 574 89Q588 89 596 108Q604 127 610 170H680Q669 83 630 36.5Q591 -10 510 -10Q437 -10 394.5 24.5Q352 59 352 128Z" glyph-name="h" horiz-adv-x="681" unicode="h" /><glyph d="M105 617 141 697Q164 754 190 785Q216 816 259 816Q290 816 304.5 802Q319 788 319 765Q319 742 300.5 715Q282 688 248 666L178 617ZM263 617 327 695Q368 746 402 765.5Q436 785 476 785Q516 785 532 771.5Q548 758 548 739Q548 712 524 692Q500 672 439 654L330 617Z" glyph-name="hungarumlaut" horiz-adv-x="527" unicode="&#733;" /><glyph d="M119 747 157 842Q173 884 195.5 911Q218 938 256 938Q285 938 299 924Q313 910 313 887Q313 864 295 837.5Q277 811 242 787L190 747ZM270 747 328 825Q351 854 380 877.5Q409 901 453 901Q486 901 499.5 887Q513 873 513 853Q513 808 435 782L341 747Z" glyph-name="hungarumlaut.cap" horiz-adv-x="491" /><glyph d="M65 361H363L350 263H52Z" glyph-name="hyphen" horiz-adv-x="402" unicode="-" /><glyph d="M73 400H371L358 302H60Z" glyph-name="hyphen.cap" horiz-adv-x="409" /><glyph d="M63 333H329L317 242H51Z" glyph-name="hyphen.sc" horiz-adv-x="373" /><glyph d="M184 361H482L469 263H171Z" glyph-name="hyphen.tln" horiz-adv-x="640" /><glyph d="M212 -10Q176 -10 145 -0.5Q114 9 92.5 30Q71 51 61.5 84.5Q52 118 58 165L90 428H33L43 516Q118 516 162.5 516.5Q207 517 232.5 518.5Q258 520 270 523Q282 526 291 530L308 520L260 127Q256 89 276 89Q290 89 298 108Q306 127 312 170H382Q372 85 333.5 37.5Q295 -10 212 -10ZM202 608Q166 608 145 629Q124 650 124 682Q124 724 152 751Q180 778 222 778Q259 778 280 757Q301 736 301 704Q301 662 273 635Q245 608 202 608Z" glyph-name="i" horiz-adv-x="386" unicode="i" /><glyph d="M212 -10Q176 -10 145 -0.5Q114 9 92.5 30Q71 51 61.5 84.5Q52 118 58 165L90 428H33L43 516Q118 516 162.5 516.5Q207 517 232.5 518.5Q258 520 270 523Q282 526 291 530L308 520L260 127Q256 89 276 89Q290 89 298 108Q306 127 312 170H382Q372 85 333.5 37.5Q295 -10 212 -10ZM202 608Q166 608 145 629Q124 650 124 682Q124 724 152 751Q180 778 222 778Q259 778 280 757Q301 736 301 704Q301 662 273 635Q245 608 202 608Z" glyph-name="i.TRK" horiz-adv-x="386" /><glyph d="M212 -10Q176 -10 145 -0.5Q114 9 92.5 30Q71 51 61.5 84.5Q52 118 58 165L90 428H33L43 516Q118 516 162.5 516.5Q207 517 232.5 518.5Q258 520 270 523Q282 526 291 530L308 520L260 127Q256 89 276 89Q290 89 298 108Q306 127 312 170H382Q372 85 333.5 37.5Q295 -10 212 -10ZM202 608Q166 608 145 629Q124 650 124 682Q124 724 152 751Q180 778 222 778Q259 778 280 757Q301 736 301 704Q301 662 273 635Q245 608 202 608Z" glyph-name="i.dot" horiz-adv-x="386" /><glyph d="M124 617 185 695Q227 748 263 766.5Q299 785 338 785Q379 785 393 771Q407 757 406 737Q406 713 381 692.5Q356 672 289 649L191 617ZM212 -10Q176 -10 145 -0.5Q114 9 92.5 30Q71 51 61.5 84.5Q52 118 58 165L90 428H33L43 516Q118 516 162.5 516.5Q207 517 232.5 518.5Q258 520 270 523Q282 526 291 530L308 520L260 127Q256 89 276 89Q290 89 298 108Q306 127 312 170H382Q372 85 333.5 37.5Q295 -10 212 -10Z" glyph-name="iacute" horiz-adv-x="386" unicode="&#237;" /><glyph d="M490 607 551 685Q593 738 629 756.5Q665 775 704 775Q745 775 759 761Q773 747 772 727Q772 703 747 682.5Q722 662 655 639L557 607ZM119 607 180 685Q222 738 258 756.5Q294 775 333 775Q374 775 388 761Q402 747 401 727Q401 703 376 682.5Q351 662 284 639L186 607ZM212 -10Q176 -10 145 -0.5Q114 9 92.5 30Q71 51 61.5 84.5Q52 118 58 165L90 428H33L43 516Q118 516 162.5 516.5Q207 517 232.5 518.5Q258 520 270 523Q282 526 291 530L308 520L260 127Q256 89 276 89Q290 89 298 108Q306 127 312 170H382Q372 85 333.5 37.5Q295 -10 212 -10ZM351 -260Q316 -260 284.5 -253Q253 -246 229.5 -231.5Q206 -217 192 -196Q178 -175 178 -147Q178 -110 202.5 -82.5Q227 -55 276 -55Q316 -55 336 -75Q356 -95 356 -123Q356 -145 348 -160.5Q340 -176 326 -186Q332 -189 343 -189Q377 -189 390 -158Q403 -127 410 -71L470 428H405L416 516Q482 516 528 516.5Q574 517 604 518.5Q634 520 650.5 523Q667 526 674 530L689 520L624 -10Q617 -70 599 -117Q581 -164 549 -195.5Q517 -227 468.5 -243.5Q420 -260 351 -260Z" glyph-name="iacute_jacute" horiz-adv-x="715" /><glyph d="M212 -10Q176 -10 145 -0.5Q114 9 92.5 30Q71 51 61.5 84.5Q52 118 58 165L90 428H33L43 516Q118 516 162.5 516.5Q207 517 232.5 518.5Q258 520 270 523Q282 526 291 530L308 520L260 127Q256 89 276 89Q290 89 298 108Q306 127 312 170H382Q372 85 333.5 37.5Q295 -10 212 -10ZM480 -260Q396 -260 346.5 -230Q297 -200 297 -145Q297 -107 321.5 -79Q346 -51 395 -51Q434 -51 454.5 -71Q475 -91 475 -119Q475 -142 465 -158Q455 -174 440 -185Q454 -188 471 -188Q515 -188 538.5 -158Q562 -128 562 -89Q562 -45 531 -23Q500 -1 447 0L499 428H445L456 516Q520 516 563.5 516.5Q607 517 635 518.5Q663 520 678.5 523Q694 526 702 530L717 520L658 33Q683 15 694.5 -10.5Q706 -36 706 -66Q706 -104 693 -139Q680 -174 652.5 -201Q625 -228 582.5 -244Q540 -260 480 -260ZM508 617 569 695Q611 748 647 766.5Q683 785 722 785Q763 785 777 771Q791 757 790 737Q790 713 765 692.5Q740 672 673 649L575 617ZM105 617 166 695Q208 748 244 766.5Q280 785 319 785Q360 785 374 771Q388 757 387 737Q387 713 362 692.5Q337 672 270 649L172 617Z" glyph-name="iacute_jacute.alt" horiz-adv-x="747" /><glyph d="M562 592H496L556 646Q567 656 579 668Q591 680 605.5 690Q620 700 638 706.5Q656 713 679 713Q734 713 734 676Q734 629 660 612ZM224 592H158L218 646Q229 656 241 668Q253 680 267.5 690Q282 700 300 706.5Q318 713 341 713Q396 713 396 676Q396 629 322 612ZM24 241 34 323H86L103 467H53L62 550H372L362 467H310L293 323H343L333 241ZM629 253Q613 125 536 58.5Q459 -8 322 -8Q269 -8 224 1.5Q179 11 147 30.5Q115 50 99 79Q83 108 88 147Q92 179 119 201Q146 223 185 223Q223 223 245 201Q267 179 263 145Q261 122 251 110.5Q241 99 231 94Q232 90 248 84.5Q264 79 290 79Q355 79 383 120Q411 161 421 238L449 467H397L407 550H717L707 467H656Z" glyph-name="iacute_jacute.alt.sc" horiz-adv-x="706" /><glyph d="M700 584H633L693 638Q704 648 716 660Q728 672 742.5 682Q757 692 775 698.5Q793 705 816 705Q844 705 857.5 695.5Q871 686 871 669Q871 646 853.5 629.5Q836 613 798 605ZM224 584H158L218 638Q229 648 241 660Q253 672 267.5 682Q282 692 300 698.5Q318 705 341 705Q369 705 382.5 695.5Q396 686 396 669Q396 646 378.5 629.5Q361 613 322 605ZM8 0 18 83H69L116 467H65L76 550H385L374 467H323L276 83H327L317 0ZM779 186Q757 -8 531 -8Q446 -8 396 21Q346 50 346 107Q346 151 372.5 179Q399 207 445 207Q480 207 502 188Q524 169 524 137Q524 116 513 101Q502 86 491 78Q493 75 501.5 73Q510 71 521 71Q543 71 552 86Q561 101 565 130L607 467H555L565 550H875L865 467H814Z" glyph-name="iacute_jacute.sc" horiz-adv-x="865" /><glyph d="M-3 617 191 792H253L398 617H310L211 689L86 617ZM212 -10Q176 -10 145 -0.5Q114 9 92.5 30Q71 51 61.5 84.5Q52 118 58 165L90 428H33L43 516Q118 516 162.5 516.5Q207 517 232.5 518.5Q258 520 270 523Q282 526 291 530L308 520L260 127Q256 89 276 89Q290 89 298 108Q306 127 312 170H382Q372 85 333.5 37.5Q295 -10 212 -10Z" glyph-name="icircumflex" horiz-adv-x="386" unicode="&#238;" /><glyph d="M397 703Q397 661 369.5 634Q342 607 299 607Q263 607 242 628Q221 649 221 681Q221 723 248.5 750Q276 777 319 777Q356 777 376.5 756Q397 735 397 703ZM174 703Q174 661 146 634Q118 607 75 607Q39 607 18 628Q-3 649 -3 681Q-3 723 25 750Q53 777 96 777Q132 777 153 756Q174 735 174 703ZM212 -10Q176 -10 145 -0.5Q114 9 92.5 30Q71 51 61.5 84.5Q52 118 58 165L90 428H33L43 516Q118 516 162.5 516.5Q207 517 232.5 518.5Q258 520 270 523Q282 526 291 530L308 520L260 127Q256 89 276 89Q290 89 298 108Q306 127 312 170H382Q372 85 333.5 37.5Q295 -10 212 -10Z" glyph-name="idieresis" horiz-adv-x="386" unicode="&#239;" /><glyph d="M212 -10Q176 -10 145 -0.5Q114 9 92.5 30Q71 51 61.5 84.5Q52 118 58 165L90 428H33L43 516Q118 516 162.5 516.5Q207 517 232.5 518.5Q258 520 270 523Q282 526 291 530L308 520L260 127Q256 89 276 89Q290 89 298 108Q306 127 312 170H382Q372 85 333.5 37.5Q295 -10 212 -10ZM112 649Q81 661 61.5 671Q42 681 31.5 690.5Q21 700 17.5 708.5Q14 717 14 726Q14 750 36.5 767.5Q59 785 100 785Q138 785 166 770.5Q194 756 216 714L267 617H201Z" glyph-name="igrave" horiz-adv-x="386" unicode="&#236;" /><glyph d="M217 608Q181 608 160 629Q139 650 139 682Q139 724 167 751Q195 778 237 778Q274 778 295 757Q316 736 316 704Q316 662 288 635Q260 608 217 608ZM-7 -260Q-42 -260 -73.5 -253Q-105 -246 -128.5 -231.5Q-152 -217 -166 -196Q-180 -175 -180 -147Q-180 -110 -155.5 -82.5Q-131 -55 -82 -55Q-42 -55 -22 -75Q-2 -95 -2 -123Q-2 -145 -10 -160.5Q-18 -176 -32 -186Q-26 -189 -15 -189Q19 -189 32 -158Q45 -127 52 -71L112 428H47L58 516Q124 516 170 516.5Q216 517 246 518.5Q276 520 292.5 523Q309 526 316 530L331 520L266 -10Q259 -70 241 -117Q223 -164 191 -195.5Q159 -227 110.5 -243.5Q62 -260 -7 -260Z" glyph-name="j" horiz-adv-x="357" unicode="j" /><glyph d="M300 703Q300 661 272 634Q244 607 201 607Q165 607 144 628Q123 649 123 681Q123 723 151 750Q179 777 221 777Q258 777 279 756Q300 735 300 703ZM75 -260Q-9 -260 -58.5 -230Q-108 -200 -108 -145Q-108 -107 -83.5 -79Q-59 -51 -10 -51Q29 -51 49.5 -71Q70 -91 70 -119Q70 -142 60 -158Q50 -174 35 -185Q49 -188 66 -188Q110 -188 133.5 -158Q157 -128 157 -89Q157 -45 126 -23Q95 -1 42 0L94 428H40L51 516Q115 516 158.5 516.5Q202 517 230 518.5Q258 520 273.5 523Q289 526 297 530L312 520L253 33Q278 15 289.5 -10.5Q301 -36 301 -66Q301 -104 288 -139Q275 -174 247.5 -201Q220 -228 177.5 -244Q135 -260 75 -260Z" glyph-name="j.alt" horiz-adv-x="342" /><glyph d="M234 0H27L107 658H50L60 746Q131 746 175.5 747Q220 748 247 749.5Q274 751 287.5 753.5Q301 756 309 760L326 750L311 627Q307 592 303.5 565Q300 538 296.5 516.5Q293 495 289.5 476.5Q286 458 282 439Q305 477 346 503.5Q387 530 453 530Q522 530 565.5 498.5Q609 467 609 411Q609 366 578 328Q547 290 481 259L565 88H610L599 0H384L286 207L291 250Q341 262 369.5 298.5Q398 335 398 381Q398 405 387.5 418.5Q377 432 354 432Q322 432 300 392.5Q278 353 268 273Z" glyph-name="k" horiz-adv-x="645" unicode="k" /><glyph d="M464 428H286L265 255ZM301 176 249 133 233 0H26L107 658H50L60 746Q129 746 174.5 747Q220 748 248 749.5Q276 751 289.5 754Q303 757 309 760L326 750L297 516H625L615 439L449 300L565 88H606L596 0H397Z" glyph-name="k.alt" horiz-adv-x="635" /><glyph d="M196 -10Q160 -10 129.5 -0.5Q99 9 78 29.5Q57 50 47 83.5Q37 117 43 165L103 659H45L56 747Q131 747 175.5 747.5Q220 748 245.5 749.5Q271 751 283 754Q295 757 304 761L321 751L245 128Q243 107 247.5 98Q252 89 262 89Q276 89 283.5 107Q291 125 298 170H368Q363 128 352 95Q341 62 321 38.5Q301 15 270.5 2.5Q240 -10 196 -10Z" glyph-name="l" horiz-adv-x="372" unicode="l" /><glyph d="M39 325 44 374 396 583 383 474 161 346 352 217 339 116Z" glyph-name="less" horiz-adv-x="419" unicode="&lt;" /><glyph d="M22 235 27 284 379 493 366 384 144 256 335 127 322 26Z" glyph-name="less.old" horiz-adv-x="399" /><glyph d="M29 265 33 308 345 475 333 377 144 283 311 189 299 98Z" glyph-name="less.sc" horiz-adv-x="376" /><glyph d="M150 325 155 374 507 583 494 474 272 346 463 217 450 116Z" glyph-name="less.tln" horiz-adv-x="640" /><glyph d="M142 235 147 284 499 493 486 384 264 256 455 127 442 26Z" glyph-name="less.ton" horiz-adv-x="640" /><glyph d="M405 185 420 301H60L70 388H516L491 185Z" glyph-name="logicalnot" horiz-adv-x="559" unicode="&#172;" /><glyph d="M394 135 409 251H49L59 338H505L480 135Z" glyph-name="logicalnot.old" horiz-adv-x="550" /><glyph d="M360 163 371 251H54L63 329H461L441 163Z" glyph-name="logicalnot.sc" horiz-adv-x="509" /><glyph d="M445 185 460 301H100L110 388H556L531 185Z" glyph-name="logicalnot.tln" horiz-adv-x="640" /><glyph d="M440 135 455 251H95L105 338H551L526 135Z" glyph-name="logicalnot.ton" horiz-adv-x="640" /><glyph d="M809 -10Q736 -10 694 23Q652 56 652 121Q652 152 657.5 180.5Q663 209 669 235.5Q675 262 680.5 288Q686 314 686 340Q686 369 677 384.5Q668 400 650 400Q627 400 610.5 375Q594 350 587 290L554 0H348Q353 38 359 89.5Q365 141 371 191Q377 241 381 282Q385 323 385 340Q385 369 377 384.5Q369 400 352 400Q301 400 286 280L250 0H43L96 428H39L49 516Q118 516 160 516.5Q202 517 226 518.5Q250 520 261 523Q272 526 280 530L297 520L284 413Q316 473 358 501.5Q400 530 451 530Q509 530 544.5 501.5Q580 473 590 422Q619 473 656.5 501.5Q694 530 745 530Q817 530 856.5 486.5Q896 443 895 365Q895 333 888.5 299Q882 265 875 232.5Q868 200 862 171Q856 142 856 120Q856 89 873 89Q887 89 895 108Q903 127 910 170H980Q969 83 929.5 36.5Q890 -10 809 -10Z" glyph-name="m" horiz-adv-x="980" unicode="m" /></font>
</defs>
</svg>
