<?xml version="1.0" standalone="no"?><!DOCTYPE svg PUBLIC "-//W3C//DTD SVG 1.1//EN" "http://www.w3.org/Graphics/SVG/1.1/DTD/svg11.dtd" ><svg version="1.1" xmlns="http://www.w3.org/2000/svg"><defs><font horiz-adv-x="0" id="font"><font-face ascent="750" bbox="-169 -261 2700 1083" cap-height="690" descent="-250" font-family="KazimirText RBC" font-stretch="normal" font-style="italic" font-weight="100" units-per-em="1000" x-height="480" /><missing-glyph d="M134 650H797V0H134ZM154 20H777V630H154ZM466 316 347 197 324 220 443 338 327 454 349 476 465 360 584 479 606 457 488 338 608 218 586 196Z" horiz-adv-x="911" /><glyph glyph-name=".null" horiz-adv-x="0" /><glyph d="M357 671 163 240H448ZM-31 0 -30 10H50L354 690H364L508 10H588L587 0H413L414 10H497L450 230H159L60 10H143L142 0Z" glyph-name="A" horiz-adv-x="610" unicode="A" /><glyph d="M358 671 164 240H449ZM-30 0 -29 10H51L351 680H253L255 690H465L463 680H367L509 10H589L588 0H414L415 10H498L451 230H160L61 10H144L143 0Z" glyph-name="A.alt" horiz-adv-x="612" /><glyph d="M309 536 141 192H397ZM-29 0 -28 10H42L301 540H215L217 550H405L403 540H319L453 10H524L523 0H367L368 10H443L399 182H137L52 10H127L126 0Z" glyph-name="A.alt.sc" horiz-adv-x="547" /><glyph d="M308 536 140 192H396ZM-30 0 -29 10H41L305 550H315L452 10H523L522 0H366L367 10H442L398 182H136L51 10H126L125 0Z" glyph-name="A.sc" horiz-adv-x="545" /><glyph d="M453 680 196 236H449L503 680ZM152 0H-37L-36 10H54L443 680H346L348 690H877L856 520H846L862 650Q864 667 858.5 673.5Q853 680 835 680H513L474 357H728L727 347H473L431 10H760Q777 10 784.5 16.5Q792 23 794 40L810 175H820L799 0H320L321 10H421L447 226H190L65 10H153Z" glyph-name="AE" horiz-adv-x="894" unicode="&#198;" /><glyph d="M358 671 164 240H449ZM143 0H-30L-29 10H51L351 680H253L255 690H831L810 520H800L816 650Q818 667 812.5 673.5Q807 680 789 680H367L435 357H675L687 454H697L672 249H662L674 347H437L509 10H714Q731 10 738.5 16.5Q746 23 748 40L764 175H774L753 0H414L415 10H498L451 230H160L61 10H144Z" glyph-name="AE.alt" horiz-adv-x="844" /><glyph d="M310 537 142 192H396ZM-29 0 -28 10H43L301 540H215L217 550H731L715 413H705L717 510Q719 528 714 534Q709 540 692 540H319L383 285H596L605 362H615L595 198H585L594 275H385L452 10H633Q649 10 656.5 17Q664 24 666 41L677 141H687L670 0H367L368 10H442L399 182H137L53 10H127L126 0Z" glyph-name="AE.alt.sc" horiz-adv-x="755" /><glyph d="M168 190H393L435 540H391ZM131 0H-38L-37 10H42L380 540H295L297 550H770L753 413H743L755 510Q757 527 752 533.5Q747 540 730 540H445L415 286H641L640 276H414L381 10H672Q688 10 695 17Q702 24 704 41L716 141H725L708 0H281L282 10H371L391 180H162L54 10H132Z" glyph-name="AE.sc" horiz-adv-x="796" /><glyph d="M365 740H353L449 834Q471 856 483.5 870Q496 884 504 884Q511 884 511 877Q511 872 495 860Q479 848 456 826ZM357 671 163 240H448ZM-31 0 -30 10H50L354 690H364L508 10H588L587 0H413L414 10H497L450 230H159L60 10H143L142 0Z" glyph-name="Aacute" horiz-adv-x="610" unicode="&#193;" /><glyph d="M370 740H358L454 834Q476 856 488.5 870Q501 884 509 884Q516 884 516 877Q516 872 500 860Q484 848 461 826ZM358 671 164 240H449ZM-30 0 -29 10H51L351 680H253L255 690H465L463 680H367L509 10H589L588 0H414L415 10H498L451 230H160L61 10H144L143 0Z" glyph-name="Aacute.alt" horiz-adv-x="612" /><glyph d="M319 590H308L393 665Q412 682 423 693.5Q434 705 441 705Q448 705 448 697Q448 692 434 682.5Q420 673 400 656ZM309 536 141 192H397ZM-29 0 -28 10H42L301 540H215L217 550H405L403 540H319L453 10H524L523 0H367L368 10H443L399 182H137L52 10H127L126 0Z" glyph-name="Aacute.alt.sc" horiz-adv-x="547" /><glyph d="M315 590H304L388 665Q408 682 419 693.5Q430 705 437 705Q443 705 443 697Q443 692 429 682.5Q415 673 395 656ZM308 536 140 192H396ZM-30 0 -29 10H41L305 550H315L452 10H523L522 0H366L367 10H442L398 182H136L51 10H126L125 0Z" glyph-name="Aacute.sc" horiz-adv-x="545" /><glyph d="M357 671 163 240H448ZM-31 0 -30 10H50L354 690H364L508 10H588L587 0H413L414 10H497L450 230H159L60 10H143L142 0ZM380 863 264 740H250L375 872H385L474 740H462Z" glyph-name="Acircumflex" horiz-adv-x="610" unicode="&#194;" /><glyph d="M382 863 266 740H252L377 872H387L476 740H464ZM358 671 164 240H449ZM-30 0 -29 10H51L351 680H253L255 690H465L463 680H367L509 10H589L588 0H414L415 10H498L451 230H160L61 10H144L143 0Z" glyph-name="Acircumflex.alt" horiz-adv-x="612" /><glyph d="M328 684 226 590H214L324 695H333L414 590H403ZM309 536 141 192H397ZM-29 0 -28 10H42L301 540H215L217 550H405L403 540H319L453 10H524L523 0H367L368 10H443L399 182H137L52 10H127L126 0Z" glyph-name="Acircumflex.alt.sc" horiz-adv-x="547" /><glyph d="M326 684 224 590H212L322 695H331L413 590H401ZM308 536 140 192H396ZM-30 0 -29 10H41L305 550H315L452 10H523L522 0H366L367 10H442L398 182H136L51 10H126L125 0Z" glyph-name="Acircumflex.sc" horiz-adv-x="545" /><glyph d="M357 671 163 240H448ZM-31 0 -30 10H50L354 690H364L508 10H588L587 0H413L414 10H497L450 230H159L60 10H143L142 0ZM480 803Q480 786 461 786Q455 786 450.5 789.5Q446 793 446 801Q446 809 451.5 814Q457 819 465 819Q480 819 480 803ZM300 803Q300 786 281 786Q275 786 270.5 789.5Q266 793 266 801Q266 809 271.5 814Q277 819 285 819Q300 819 300 803Z" glyph-name="Adieresis" horiz-adv-x="610" unicode="&#196;" /><glyph d="M358 671 164 240H449ZM-30 0 -29 10H51L351 680H253L255 690H465L463 680H367L509 10H589L588 0H414L415 10H498L451 230H160L61 10H144L143 0ZM473 803Q473 786 454 786Q448 786 443.5 789.5Q439 793 439 801Q439 809 444.5 814Q450 819 458 819Q473 819 473 803ZM293 803Q293 786 274 786Q268 786 263.5 789.5Q259 793 259 801Q259 809 264.5 814Q270 819 278 819Q293 819 293 803Z" glyph-name="Adieresis.alt" horiz-adv-x="612" /><glyph d="M411 641Q411 634 406.5 629Q402 624 394 624Q380 624 380 638Q380 655 397 655Q411 655 411 641ZM250 641Q250 634 245.5 629Q241 624 233 624Q219 624 219 638Q219 655 237 655Q250 655 250 641ZM309 536 141 192H397ZM-29 0 -28 10H42L301 540H215L217 550H405L403 540H319L453 10H524L523 0H367L368 10H443L399 182H137L52 10H127L126 0Z" glyph-name="Adieresis.alt.sc" horiz-adv-x="547" /><glyph d="M417 641Q417 625 400 625Q386 625 386 639Q386 646 390.5 651Q395 656 403 656Q410 656 413.5 651.5Q417 647 417 641ZM257 641Q257 634 252 629.5Q247 625 239 625Q234 625 229.5 628.5Q225 632 225 639Q225 646 230 651Q235 656 243 656Q249 656 252.5 651.5Q256 647 257 641ZM308 536 140 192H396ZM-30 0 -29 10H41L305 550H315L452 10H523L522 0H366L367 10H442L398 182H136L51 10H126L125 0Z" glyph-name="Adieresis.sc" horiz-adv-x="545" /><glyph d="M357 671 163 240H448ZM-31 0 -30 10H50L354 690H364L508 10H588L587 0H413L414 10H497L450 230H159L60 10H143L142 0ZM282 826Q265 848 252.5 859.5Q240 871 240 877Q240 884 249 884Q257 884 265.5 870Q274 856 291 834L364 740H352Z" glyph-name="Agrave" horiz-adv-x="610" unicode="&#192;" /><glyph d="M297 826Q280 848 267.5 859.5Q255 871 255 877Q255 884 264 884Q272 884 280.5 870Q289 856 306 834L379 740H367ZM358 671 164 240H449ZM-30 0 -29 10H51L351 680H253L255 690H465L463 680H367L509 10H589L588 0H414L415 10H498L451 230H160L61 10H144L143 0Z" glyph-name="Agrave.alt" horiz-adv-x="612" /><glyph d="M252 656Q236 673 225 682.5Q214 692 214 697Q214 705 223 705Q230 705 238 693.5Q246 682 261 665L327 590H316ZM309 536 141 192H397ZM-29 0 -28 10H42L301 540H215L217 550H405L403 540H319L453 10H524L523 0H367L368 10H443L399 182H137L52 10H127L126 0Z" glyph-name="Agrave.alt.sc" horiz-adv-x="547" /><glyph d="M239 656Q223 673 212 682.5Q201 692 201 697Q201 705 209 705Q216 705 224.5 693.5Q233 682 248 665L314 590H303ZM308 536 140 192H396ZM-30 0 -29 10H41L305 550H315L452 10H523L522 0H366L367 10H442L398 182H136L51 10H126L125 0Z" glyph-name="Agrave.sc" horiz-adv-x="545" /><glyph d="M357 671 163 240H448ZM-31 0 -30 10H50L354 690H364L508 10H588L587 0H413L414 10H497L450 230H159L60 10H143L142 0ZM365 733Q331 733 310.5 752.5Q290 772 290 808Q290 846 315 870.5Q340 895 385 895Q419 895 439 875.5Q459 856 459 820Q459 781 434.5 757Q410 733 365 733ZM384 886Q343 886 321.5 863Q300 840 300 808Q300 776 318 759Q336 742 366 742Q407 742 428 764.5Q449 787 449 820Q449 852 431.5 869Q414 886 384 886Z" glyph-name="Aring" horiz-adv-x="610" unicode="&#197;" /><glyph d="M358 671 164 240H449ZM-30 0 -29 10H51L351 680H253L255 690H465L463 680H367L509 10H589L588 0H414L415 10H498L451 230H160L61 10H144L143 0ZM357 733Q323 733 302.5 752.5Q282 772 282 808Q282 846 307 870.5Q332 895 377 895Q411 895 431 875.5Q451 856 451 820Q451 781 426.5 757Q402 733 357 733ZM376 886Q335 886 313.5 863Q292 840 292 808Q292 776 310 759Q328 742 358 742Q399 742 420 764.5Q441 787 441 820Q441 852 423.5 869Q406 886 376 886Z" glyph-name="Aring.alt" horiz-adv-x="612" /><glyph d="M308 585Q278 585 259.5 600.5Q241 616 240 645Q240 675 262 694.5Q284 714 324 714Q354 714 372 699Q390 684 391 655Q392 624 370 604.5Q348 585 308 585ZM323 705Q287 705 268 687.5Q249 670 250 645Q250 620 266.5 607.5Q283 595 309 595Q345 595 363.5 612Q382 629 382 655Q381 680 365 692.5Q349 705 323 705ZM309 536 141 192H397ZM-29 0 -28 10H42L301 540H215L217 550H405L403 540H319L453 10H524L523 0H367L368 10H443L399 182H137L52 10H127L126 0Z" glyph-name="Aring.alt.sc" horiz-adv-x="547" /><glyph d="M315 585Q285 585 266.5 600Q248 615 247 644Q246 675 268.5 694.5Q291 714 331 714Q361 714 379 698.5Q397 683 398 654Q398 623 376.5 604Q355 585 315 585ZM330 705Q294 705 275 687.5Q256 670 256 645Q257 620 273 607Q289 594 316 594Q352 594 370.5 611Q389 628 388 654Q388 679 372 692Q356 705 330 705ZM308 536 140 192H396ZM-30 0 -29 10H41L305 550H315L452 10H523L522 0H366L367 10H442L398 182H136L51 10H126L125 0Z" glyph-name="Aring.sc" horiz-adv-x="545" /><glyph d="M357 671 163 240H448ZM-31 0 -30 10H50L354 690H364L508 10H588L587 0H413L414 10H497L450 230H159L60 10H143L142 0ZM435 756Q410 756 395 769Q380 782 368.5 798Q357 814 345 827Q333 840 313 840Q284 840 269.5 815.5Q255 791 250 756H240Q245 799 264 824.5Q283 850 313 850Q335 850 348 837Q361 824 373 808Q385 792 399 779Q413 766 435 766Q464 766 479 790Q494 814 499 850H509Q504 807 485 781.5Q466 756 435 756Z" glyph-name="Atilde" horiz-adv-x="610" unicode="&#195;" /><glyph d="M435 758Q410 758 395 771Q380 784 368.5 800Q357 816 345 829Q333 842 313 842Q284 842 269.5 817.5Q255 793 250 758H240Q245 801 264 826.5Q283 852 313 852Q335 852 348 839Q361 826 373 810Q385 794 399 781Q413 768 435 768Q464 768 479 792Q494 816 499 852H509Q504 809 485 783.5Q466 758 435 758ZM358 671 164 240H449ZM-30 0 -29 10H51L351 680H253L255 690H465L463 680H367L509 10H589L588 0H414L415 10H498L451 230H160L61 10H144L143 0Z" glyph-name="Atilde.alt" horiz-adv-x="612" /><glyph d="M377 604Q355 604 341 614Q327 624 316.5 636.5Q306 649 295 659Q284 669 267 669Q241 669 228.5 650Q216 631 212 604H203Q207 639 223.5 659.5Q240 680 267 680Q287 680 299 670Q311 660 321.5 647.5Q332 635 344.5 625Q357 615 377 615Q403 615 416 633Q429 651 433 680H442Q438 645 421.5 624.5Q405 604 377 604ZM309 536 141 192H397ZM-29 0 -28 10H42L301 540H215L217 550H405L403 540H319L453 10H524L523 0H367L368 10H443L399 182H137L52 10H127L126 0Z" glyph-name="Atilde.alt.sc" horiz-adv-x="547" /><glyph d="M377 602Q355 602 341 612Q327 622 316.5 634.5Q306 647 295 657Q284 667 267 667Q241 667 228.5 648.5Q216 630 212 602H203Q207 637 223.5 657.5Q240 678 267 678Q287 678 299 668Q311 658 321.5 645.5Q332 633 344.5 623Q357 613 377 613Q403 613 416 631.5Q429 650 433 678H442Q438 643 421.5 622.5Q405 602 377 602ZM308 536 140 192H396ZM-30 0 -29 10H41L305 550H315L452 10H523L522 0H366L367 10H442L398 182H136L51 10H126L125 0Z" glyph-name="Atilde.sc" horiz-adv-x="545" /><glyph d="M24 10H124L206 680H106L108 690H340Q456 690 510 651Q564 612 564 536Q564 496 549.5 464.5Q535 433 511.5 410.5Q488 388 458 374Q428 360 397 354Q427 349 455.5 339.5Q484 330 507 312Q530 294 544 266Q558 238 558 196Q558 96 485 48Q412 0 277 0H23ZM216 680 177 358H337Q390 358 430.5 373Q471 388 498.5 412.5Q526 437 540 469.5Q554 502 554 536Q554 569 542.5 595.5Q531 622 505 641Q479 660 438 670Q397 680 337 680ZM176 348 134 10H277Q365 10 418 28Q471 46 499.5 73.5Q528 101 537.5 133.5Q547 166 547 195Q547 236 532 264.5Q517 293 489 312Q461 331 422 339.5Q383 348 336 348Z" glyph-name="B" horiz-adv-x="618" unicode="B" /><glyph d="M21 10H110L175 540H86L88 550H295Q398 550 447.5 519Q497 488 497 427Q497 394 484.5 369Q472 344 451 326Q430 308 403.5 297.5Q377 287 350 282Q378 279 404 271Q430 263 450.5 248Q471 233 483.5 211Q496 189 496 157Q496 130 486.5 102Q477 74 450 51.5Q423 29 374 14.5Q325 0 247 0H20ZM185 540 154 286H296Q343 286 379 297.5Q415 309 439 328.5Q463 348 475 373.5Q487 399 487 427Q487 479 442.5 509.5Q398 540 292 540ZM153 276 120 10H247Q325 10 372 24Q419 38 444 59.5Q469 81 477 107Q485 133 485 156Q485 188 471 210.5Q457 233 432 247.5Q407 262 372 269Q337 276 295 276Z" glyph-name="B.sc" horiz-adv-x="556" /><glyph d="M503 -10 518 116Q494 59 441 24.5Q388 -10 305 -10Q239 -10 194 13Q149 36 121 75Q93 114 80.5 165.5Q68 217 68 274Q68 351 87 427.5Q106 504 145.5 564.5Q185 625 244.5 662.5Q304 700 385 700Q464 700 512 667Q560 634 573 574L589 699H599L574 498H564Q565 507 565.5 515.5Q566 524 566 532Q566 574 552 604Q538 634 513.5 653Q489 672 456 681Q423 690 384 690Q306 690 248.5 652.5Q191 615 153 555Q115 495 96.5 421Q78 347 78 273Q78 146 136 73Q194 0 306 0Q338 0 373.5 8Q409 16 441 37.5Q473 59 497 97.5Q521 136 528 196H538L513 -10Z" glyph-name="C" horiz-adv-x="607" unicode="C" /><glyph d="M446 -8 458 93Q436 45 390.5 18.5Q345 -8 270 -8Q212 -8 171 10.5Q130 29 104 60.5Q78 92 66.5 133Q55 174 55 220Q55 282 71.5 342.5Q88 403 122 451Q156 499 208.5 528.5Q261 558 333 558Q402 558 446.5 532.5Q491 507 502 458L515 557H525L504 395H495Q496 400 496 404.5Q496 409 496 414Q496 483 452 515.5Q408 548 332 548Q263 548 212.5 519Q162 490 129 443.5Q96 397 80.5 338Q65 279 65 220Q65 117 118.5 59.5Q172 2 272 2Q300 2 332 9Q364 16 392 33.5Q420 51 440.5 81Q461 111 467 158H476L456 -8Z" glyph-name="C.sc" horiz-adv-x="544" /><glyph d="M276 -180Q253 -180 241 -173Q229 -166 224 -160L226 -146Q234 -157 245 -163.5Q256 -170 276 -170Q308 -170 324 -152Q340 -134 340 -111Q340 -61 267 -61V-54L288 -10Q227 -7 185 17.5Q143 42 117 80.5Q91 119 79.5 169Q68 219 68 274Q68 351 87 427.5Q106 504 145.5 564.5Q185 625 244.5 662.5Q304 700 385 700Q464 700 512 667Q560 634 573 574L589 699H599L574 498H564Q565 507 565.5 515.5Q566 524 566 532Q566 574 552 604Q538 634 513.5 653Q489 672 456 681Q423 690 384 690Q306 690 248.5 652.5Q191 615 153 555Q115 495 96.5 421Q78 347 78 273Q78 146 136 73Q194 0 306 0Q338 0 373.5 8Q409 16 441 37.5Q473 59 497 97.5Q521 136 528 196H538L513 -10H503L518 116Q494 59 441 24.5Q388 -10 305 -10H298L279 -52Q312 -54 331 -68Q350 -82 350 -111Q350 -140 330.5 -160Q311 -180 276 -180Z" glyph-name="Ccedilla" horiz-adv-x="607" unicode="&#199;" /><glyph d="M246 -144Q226 -144 215 -139Q204 -134 199 -129L201 -116Q208 -124 218.5 -129.5Q229 -135 246 -135Q275 -135 289 -121Q303 -107 302 -89Q302 -50 236 -50L237 -44L255 -8Q201 -5 163 14Q125 33 101 64Q77 95 66 135.5Q55 176 55 220Q55 282 71.5 342.5Q88 403 122 451Q156 499 208.5 528.5Q261 558 333 558Q402 558 446.5 532.5Q491 507 502 458L515 557H525L504 395H495Q496 400 496 404.5Q496 409 496 414Q496 483 452 515.5Q408 548 332 548Q263 548 212.5 519Q162 490 129 443.5Q96 397 80.5 338Q65 279 65 220Q65 117 118.5 59.5Q172 2 272 2Q300 2 332 9Q364 16 392 33.5Q420 51 440.5 81Q461 111 467 158H476L456 -8H446L458 93Q435 45 386 18.5Q337 -8 265 -8L248 -41Q278 -43 295 -54Q312 -65 312 -88Q313 -112 295.5 -128Q278 -144 246 -144Z" glyph-name="Ccedilla.sc" horiz-adv-x="544" /><glyph d="M23 0 24 10H124L206 680H106L108 690H327Q401 690 456 668Q511 646 548 607Q585 568 603.5 515.5Q622 463 622 403Q622 325 597 252Q572 179 524 123Q476 67 405 33.5Q334 0 242 0ZM134 10H246Q333 10 401 42.5Q469 75 515.5 130Q562 185 586.5 256Q611 327 611 403Q611 462 593 513Q575 564 539.5 601Q504 638 451.5 659Q399 680 330 680H216Z" glyph-name="D" horiz-adv-x="662" unicode="D" /><glyph d="M20 0 21 10H110L175 540H86L88 550H284Q349 550 399 533Q449 516 482.5 485.5Q516 455 533 413Q550 371 550 320Q550 257 528.5 199Q507 141 465 96.5Q423 52 360.5 26Q298 0 216 0ZM120 10H220Q297 10 356.5 35.5Q416 61 456.5 104Q497 147 518 203Q539 259 539 320Q539 368 522.5 408.5Q506 449 473.5 478.5Q441 508 394 524Q347 540 286 540H185Z" glyph-name="D.sc" horiz-adv-x="594" /><glyph d="M24 10H124L206 680H106L108 690H580L559 520H549L565 650Q567 667 561.5 673.5Q556 680 538 680H216L177 357H431L430 347H176L134 10H463Q480 10 487.5 16.5Q495 23 497 40L513 175H523L502 0H23Z" glyph-name="E" horiz-adv-x="597" unicode="E" /><glyph d="M23 0 24 10H124L206 680H106L108 690H580L559 520H549L565 650Q567 667 561.5 673.5Q556 680 538 680H216L177 357H427L439 454H449L424 249H414L426 347H176L134 10H463Q480 10 487.5 16.5Q495 23 497 40L513 175H523L502 0Z" glyph-name="E.alt" horiz-adv-x="593" /><glyph d="M20 0 21 10H110L175 540H86L88 550H509L492 413H483L495 510Q497 527 491.5 533.5Q486 540 469 540H185L154 286H377L386 362H395L375 198H366L376 276H153L120 10H411Q427 10 434.5 17Q442 24 444 41L455 141H465L448 0Z" glyph-name="E.alt.sc" horiz-adv-x="533" /><glyph d="M21 10H110L175 540H86L88 550H509L492 413H483L495 510Q497 527 491.5 533.5Q486 540 469 540H185L154 286H380L379 276H153L120 10H411Q427 10 434.5 17Q442 24 444 41L455 141H465L448 0H20Z" glyph-name="E.sc" horiz-adv-x="536" /><glyph d="M24 10H124L206 680H106L108 690H580L559 520H549L565 650Q567 667 561.5 673.5Q556 680 538 680H216L177 357H431L430 347H176L134 10H463Q480 10 487.5 16.5Q495 23 497 40L513 175H523L502 0H23ZM372 740H360L456 834Q478 856 490.5 870Q503 884 511 884Q518 884 518 877Q518 872 502 860Q486 848 463 826Z" glyph-name="Eacute" horiz-adv-x="597" unicode="&#201;" /><glyph d="M372 740H360L456 834Q478 856 490.5 870Q503 884 511 884Q518 884 518 877Q518 872 502 860Q486 848 463 826ZM23 0 24 10H124L206 680H106L108 690H580L559 520H549L565 650Q567 667 561.5 673.5Q556 680 538 680H216L177 357H427L439 454H449L424 249H414L426 347H176L134 10H463Q480 10 487.5 16.5Q495 23 497 40L513 175H523L502 0Z" glyph-name="Eacute.alt" horiz-adv-x="593" /><glyph d="M323 590H312L396 665Q416 682 427 693.5Q438 705 445 705Q451 705 451 697Q451 692 437 682.5Q423 673 403 656ZM20 0 21 10H110L175 540H86L88 550H509L492 413H483L495 510Q497 527 491.5 533.5Q486 540 469 540H185L154 286H377L386 362H395L375 198H366L376 276H153L120 10H411Q427 10 434.5 17Q442 24 444 41L455 141H465L448 0Z" glyph-name="Eacute.alt.sc" horiz-adv-x="533" /><glyph d="M323 590H312L396 665Q416 682 427 693.5Q438 705 445 705Q451 705 451 697Q451 692 437 682.5Q423 673 403 656ZM21 10H110L175 540H86L88 550H509L492 413H483L495 510Q497 527 491.5 533.5Q486 540 469 540H185L154 286H380L379 276H153L120 10H411Q427 10 434.5 17Q442 24 444 41L455 141H465L448 0H20Z" glyph-name="Eacute.sc" horiz-adv-x="536" /><glyph d="M24 10H124L206 680H106L108 690H580L559 520H549L565 650Q567 667 561.5 673.5Q556 680 538 680H216L177 357H431L430 347H176L134 10H463Q480 10 487.5 16.5Q495 23 497 40L513 175H523L502 0H23ZM397 863 281 740H267L392 872H402L491 740H479Z" glyph-name="Ecircumflex" horiz-adv-x="597" unicode="&#202;" /><glyph d="M396 863 280 740H266L391 872H401L490 740H478ZM23 0 24 10H124L206 680H106L108 690H580L559 520H549L565 650Q567 667 561.5 673.5Q556 680 538 680H216L177 357H427L439 454H449L424 249H414L426 347H176L134 10H463Q480 10 487.5 16.5Q495 23 497 40L513 175H523L502 0Z" glyph-name="Ecircumflex.alt" horiz-adv-x="593" /><glyph d="M342 684 240 590H228L338 695H347L429 590H417ZM20 0 21 10H110L175 540H86L88 550H509L492 413H483L495 510Q497 527 491.5 533.5Q486 540 469 540H185L154 286H377L386 362H395L375 198H366L376 276H153L120 10H411Q427 10 434.5 17Q442 24 444 41L455 141H465L448 0Z" glyph-name="Ecircumflex.alt.sc" horiz-adv-x="533" /><glyph d="M343 684 241 590H229L339 695H348L430 590H418ZM21 10H110L175 540H86L88 550H509L492 413H483L495 510Q497 527 491.5 533.5Q486 540 469 540H185L154 286H380L379 276H153L120 10H411Q427 10 434.5 17Q442 24 444 41L455 141H465L448 0H20Z" glyph-name="Ecircumflex.sc" horiz-adv-x="536" /><glyph d="M24 10H124L206 680H106L108 690H580L559 520H549L565 650Q567 667 561.5 673.5Q556 680 538 680H216L177 357H431L430 347H176L134 10H463Q480 10 487.5 16.5Q495 23 497 40L513 175H523L502 0H23ZM487 803Q487 786 468 786Q462 786 457.5 789.5Q453 793 453 801Q453 809 458.5 814Q464 819 472 819Q487 819 487 803ZM307 803Q307 786 288 786Q282 786 277.5 789.5Q273 793 273 801Q273 809 278.5 814Q284 819 292 819Q307 819 307 803Z" glyph-name="Edieresis" horiz-adv-x="597" unicode="&#203;" /><glyph d="M477 803Q477 786 458 786Q452 786 447.5 789.5Q443 793 443 801Q443 809 448.5 814Q454 819 462 819Q477 819 477 803ZM297 803Q297 786 278 786Q272 786 267.5 789.5Q263 793 263 801Q263 809 268.5 814Q274 819 282 819Q297 819 297 803ZM23 0 24 10H124L206 680H106L108 690H580L559 520H549L565 650Q567 667 561.5 673.5Q556 680 538 680H216L177 357H427L439 454H449L424 249H414L426 347H176L134 10H463Q480 10 487.5 16.5Q495 23 497 40L513 175H523L502 0Z" glyph-name="Edieresis.alt" horiz-adv-x="593" /><glyph d="M416 641Q416 625 399 625Q385 625 385 639Q385 646 390 651Q395 656 403 656Q409 656 412.5 651.5Q416 647 416 641ZM256 641Q256 634 251 629.5Q246 625 238 625Q233 625 228.5 628.5Q224 632 224 639Q224 646 229 651Q234 656 242 656Q248 656 252 651.5Q256 647 256 641ZM20 0 21 10H110L175 540H86L88 550H509L492 413H483L495 510Q497 527 491.5 533.5Q486 540 469 540H185L154 286H377L386 362H395L375 198H366L376 276H153L120 10H411Q427 10 434.5 17Q442 24 444 41L455 141H465L448 0Z" glyph-name="Edieresis.alt.sc" horiz-adv-x="533" /><glyph d="M425 641Q425 625 408 625Q394 625 394 639Q394 646 398.5 651Q403 656 411 656Q418 656 421.5 651.5Q425 647 425 641ZM265 641Q265 634 260 629.5Q255 625 247 625Q242 625 237.5 628.5Q233 632 233 639Q233 646 238 651Q243 656 251 656Q257 656 261 651.5Q265 647 265 641ZM21 10H110L175 540H86L88 550H509L492 413H483L495 510Q497 527 491.5 533.5Q486 540 469 540H185L154 286H380L379 276H153L120 10H411Q427 10 434.5 17Q442 24 444 41L455 141H465L448 0H20Z" glyph-name="Edieresis.sc" horiz-adv-x="536" /><glyph d="M24 10H124L206 680H106L108 690H580L559 520H549L565 650Q567 667 561.5 673.5Q556 680 538 680H216L177 357H431L430 347H176L134 10H463Q480 10 487.5 16.5Q495 23 497 40L513 175H523L502 0H23ZM314 826Q297 848 284.5 859.5Q272 871 272 877Q272 884 281 884Q289 884 297.5 870Q306 856 323 834L396 740H384Z" glyph-name="Egrave" horiz-adv-x="597" unicode="&#200;" /><glyph d="M23 0 24 10H124L206 680H106L108 690H580L559 520H549L565 650Q567 667 561.5 673.5Q556 680 538 680H216L177 357H427L439 454H449L424 249H414L426 347H176L134 10H463Q480 10 487.5 16.5Q495 23 497 40L513 175H523L502 0ZM314 826Q297 848 284.5 859.5Q272 871 272 877Q272 884 281 884Q289 884 297.5 870Q306 856 323 834L396 740H384Z" glyph-name="Egrave.alt" horiz-adv-x="593" /><glyph d="M269 656Q253 673 242 682.5Q231 692 231 697Q231 705 240 705Q247 705 255 693.5Q263 682 278 665L345 590H333ZM20 0 21 10H110L175 540H86L88 550H509L492 413H483L495 510Q497 527 491.5 533.5Q486 540 469 540H185L154 286H377L386 362H395L375 198H366L376 276H153L120 10H411Q427 10 434.5 17Q442 24 444 41L455 141H465L448 0Z" glyph-name="Egrave.alt.sc" horiz-adv-x="533" /><glyph d="M269 656Q253 673 242 682.5Q231 692 231 697Q231 705 240 705Q247 705 255 693.5Q263 682 278 665L345 590H333ZM21 10H110L175 540H86L88 550H509L492 413H483L495 510Q497 527 491.5 533.5Q486 540 469 540H185L154 286H380L379 276H153L120 10H411Q427 10 434.5 17Q442 24 444 41L455 141H465L448 0H20Z" glyph-name="Egrave.sc" horiz-adv-x="536" /><glyph d="M28 0 29 10H129L170 347H38L39 357H171L211 680H111L113 690H332Q406 690 461 668Q516 646 553 607Q590 568 608.5 515.5Q627 463 627 403Q627 325 602 252Q577 179 529 123Q481 67 410 33.5Q339 0 247 0ZM251 10Q338 10 406 42.5Q474 75 520.5 130Q567 185 591.5 256Q616 327 616 403Q616 462 598 513Q580 564 544.5 601Q509 638 456.5 659Q404 680 335 680H221L181 357H333L332 347H180L139 10Z" glyph-name="Eth" horiz-adv-x="667" unicode="&#208;" /><glyph d="M25 0 26 10H115L148 276H30L31 286H149L180 540H91L93 550H289Q354 550 404 533Q454 516 487.5 485.5Q521 455 538 413Q555 371 555 320Q555 257 533.5 199Q512 141 470 96.5Q428 52 365.5 26Q303 0 221 0ZM225 10Q302 10 361.5 35.5Q421 61 461.5 104Q502 147 523 203Q544 259 544 320Q544 368 527.5 408.5Q511 449 478.5 478.5Q446 508 399 524Q352 540 291 540H190L159 286H294L293 276H158L125 10Z" glyph-name="Eth.sc" horiz-adv-x="599" /><glyph d="M23 0 24 10H124L206 680H106L108 690H560L539 520H529L545 650Q547 667 541 673.5Q535 680 518 680H216L177 357H421L420 347H176L134 10H244L243 0Z" glyph-name="F" horiz-adv-x="541" unicode="F" /><glyph d="M23 0 24 10H124L206 680H106L108 690H560L539 520H529L545 650Q547 667 541 673.5Q535 680 518 680H216L177 357H417L429 454H439L414 249H404L416 347H176L134 10H244L243 0Z" glyph-name="F.alt" horiz-adv-x="542" /><glyph d="M20 0 21 10H110L175 540H86L88 550H492L475 413H465L477 510Q479 527 473.5 533.5Q468 540 452 540H185L154 286H368L377 362H386L366 198H357L367 276H153L120 10H218L217 0Z" glyph-name="F.alt.sc" horiz-adv-x="489" /><glyph d="M20 0 21 10H110L175 540H86L88 550H492L475 413H465L477 510Q479 527 473.5 533.5Q468 540 452 540H185L154 286H371L370 276H153L120 10H218L217 0Z" glyph-name="F.sc" horiz-adv-x="487" /><glyph d="M532 72Q511 47 485 31Q459 15 432.5 6Q406 -3 380 -6.5Q354 -10 333 -10Q259 -10 208 12.5Q157 35 125.5 74Q94 113 80.5 165Q67 217 67 275Q67 349 87.5 424.5Q108 500 148.5 561.5Q189 623 250.5 661.5Q312 700 394 700Q473 700 524 669.5Q575 639 589 572L604 699H614L589 498H579Q580 507 580.5 516Q581 525 581 533Q581 578 565.5 608Q550 638 524.5 656.5Q499 675 465 682.5Q431 690 393 690Q314 690 255 652Q196 614 156.5 554Q117 494 97 420Q77 346 77 275Q77 148 141 74Q205 0 334 0Q352 0 376.5 3Q401 6 427.5 15Q454 24 481.5 41Q509 58 534 87L557 277H417L418 287H658L657 277H567L532 -10H522Z" glyph-name="G" horiz-adv-x="682" unicode="G" /><glyph d="M472 55Q454 36 431 23.5Q408 11 384.5 4Q361 -3 338 -5.5Q315 -8 296 -8Q230 -8 184 10.5Q138 29 109.5 60.5Q81 92 68 135.5Q55 179 55 228Q55 285 72.5 343.5Q90 402 125.5 450Q161 498 215 528Q269 558 342 558Q424 558 466 530Q508 502 517 452L529 557H539L519 395H509Q510 401 510 406.5Q510 412 510 418Q510 486 466 517Q422 548 341 548Q271 548 219.5 518.5Q168 489 133.5 442.5Q99 396 82 339.5Q65 283 65 228Q65 120 123.5 61Q182 2 297 2Q314 2 335.5 4.5Q357 7 380.5 14Q404 21 428 34Q452 47 473 69L492 220H367L368 230H583L582 220H502L474 -8H465Z" glyph-name="G.sc" horiz-adv-x="612" /><glyph d="M24 10H124L206 680H106L108 690H308L306 680H216L177 360H580L619 680H529L531 690H731L729 680H629L547 10H647L646 0H446L447 10H537L579 350H176L134 10H224L223 0H23Z" glyph-name="H" horiz-adv-x="726" unicode="H" /><glyph d="M21 10H110L175 540H86L88 550H267L265 540H185L154 288H513L543 540H463L465 550H644L642 540H553L489 10H578L577 0H397L398 10H479L512 278H153L120 10H200L199 0H20Z" glyph-name="H.sc" horiz-adv-x="654" /><glyph d="M23 0 24 10H124L206 680H106L108 690H318L316 680H216L134 10H234L233 0Z" glyph-name="I" horiz-adv-x="313" unicode="I" /><glyph d="M20 0 21 10H110L175 540H86L88 550H276L274 540H185L120 10H209L208 0Z" glyph-name="I.sc" horiz-adv-x="285" /><glyph d="M215 740H203L299 834Q321 856 333.5 870Q346 884 354 884Q361 884 361 877Q361 872 345 860Q329 848 306 826ZM23 0 24 10H124L206 680H106L108 690H318L316 680H216L134 10H234L233 0Z" glyph-name="Iacute" horiz-adv-x="313" unicode="&#205;" /><glyph d="M183 590H172L256 665Q276 682 287 693.5Q298 705 305 705Q312 705 312 697Q312 692 297.5 682.5Q283 673 263 656ZM20 0 21 10H110L175 540H86L88 550H276L274 540H185L120 10H209L208 0Z" glyph-name="Iacute.sc" horiz-adv-x="285" /><glyph d="M216 740H204L300 834Q322 856 334.5 870Q347 884 355 884Q362 884 362 877Q362 872 346 860Q330 848 307 826ZM706 740H694L790 834Q812 856 824.5 870Q837 884 845 884Q852 884 852 877Q852 872 836 860Q820 848 797 826ZM23 0 24 10H124L206 680H106L108 690H318L316 680H216L134 10H234L233 0ZM657 215Q651 164 638.5 122Q626 80 603.5 51Q581 22 547.5 6Q514 -10 464 -10Q390 -10 348.5 26.5Q307 63 307 126Q307 163 328 163Q343 163 343 148Q343 128 317 126Q317 68 356 34Q395 0 464 0Q510 0 542 14.5Q574 29 595 56.5Q616 84 628.5 124Q641 164 647 215L704 680H604L605 690H815L814 680H714Z" glyph-name="Iacute_Jacute" horiz-adv-x="795" /><glyph d="M621 590H609L694 665Q713 682 724 693.5Q735 705 742 705Q749 705 749 697Q749 692 735 682.5Q721 673 701 656ZM184 590H172L257 665Q276 682 287 693.5Q298 705 305 705Q312 705 312 697Q312 692 298 682.5Q284 673 264 656ZM20 0 21 10H110L175 540H86L88 550H276L274 540H185L120 10H209L208 0ZM584 172Q579 130 568.5 97Q558 64 538.5 40.5Q519 17 488.5 4.5Q458 -8 414 -8Q348 -8 310.5 21Q273 50 272 99Q272 131 291 131Q305 131 305 118Q305 99 282 97Q283 53 318 27.5Q353 2 414 2Q455 2 483 13Q511 24 529.5 45.5Q548 67 558.5 98.5Q569 130 574 171L619 540H530L531 550H719L718 540H629Z" glyph-name="Iacute_Jacute.sc" horiz-adv-x="715" /><glyph d="M234 863 118 740H104L229 872H239L328 740H316ZM23 0 24 10H124L206 680H106L108 690H318L316 680H216L134 10H234L233 0Z" glyph-name="Icircumflex" horiz-adv-x="313" unicode="&#206;" /><glyph d="M198 684 96 590H83L194 695H203L284 590H273ZM20 0 21 10H110L175 540H86L88 550H276L274 540H185L120 10H209L208 0Z" glyph-name="Icircumflex.sc" horiz-adv-x="285" /><glyph d="M325 803Q325 786 306 786Q300 786 295.5 789.5Q291 793 291 801Q291 809 296.5 814Q302 819 310 819Q325 819 325 803ZM145 803Q145 786 126 786Q120 786 115.5 789.5Q111 793 111 801Q111 809 116.5 814Q122 819 130 819Q145 819 145 803ZM23 0 24 10H124L206 680H106L108 690H318L316 680H216L134 10H234L233 0Z" glyph-name="Idieresis" horiz-adv-x="313" unicode="&#207;" /><glyph d="M281 641Q281 625 263 625Q250 625 250 639Q250 646 254.5 651Q259 656 267 656Q274 656 277.5 651.5Q281 647 281 641ZM120 641Q120 625 103 625Q89 625 89 639Q89 646 94 651Q99 656 107 656Q113 656 116.5 651.5Q120 647 120 641ZM20 0 21 10H110L175 540H86L88 550H276L274 540H185L120 10H209L208 0Z" glyph-name="Idieresis.sc" horiz-adv-x="285" /><glyph d="M23 0 24 10H124L206 680H106L108 690H318L316 680H216L134 10H234L233 0ZM154 826Q137 848 124.5 859.5Q112 871 112 877Q112 884 121 884Q129 884 137.5 870Q146 856 163 834L236 740H224Z" glyph-name="Igrave" horiz-adv-x="313" unicode="&#204;" /><glyph d="M127 656Q110 673 99 682.5Q88 692 88 697Q90 705 97 705Q104 705 112 693.5Q120 682 136 665L202 590H191ZM20 0 21 10H110L175 540H86L88 550H276L274 540H185L120 10H209L208 0Z" glyph-name="Igrave.sc" horiz-adv-x="285" /><glyph d="M357 215Q351 164 338.5 122Q326 80 303.5 51Q281 22 247.5 6Q214 -10 164 -10Q90 -10 48.5 26.5Q7 63 7 126Q7 163 28 163Q43 163 43 148Q43 128 17 126Q17 68 56 34Q95 0 164 0Q210 0 242 14.5Q274 29 295 56.5Q316 84 328.5 124Q341 164 347 215L404 680H304L305 690H515L514 680H414Z" glyph-name="J" horiz-adv-x="495" unicode="J" /><glyph d="M315 172Q310 129 299 95Q288 61 268 38.5Q248 16 218 4Q188 -8 145 -8Q79 -8 41.5 21Q4 50 4 99Q4 131 23 131Q37 131 37 118Q37 109 30.5 103.5Q24 98 14 97Q14 57 48.5 29.5Q83 2 146 2Q187 2 215 13Q243 24 261.5 45.5Q280 67 290 98.5Q300 130 305 171L350 540H261L262 550H450L449 540H360Z" glyph-name="J.sc" horiz-adv-x="446" /><glyph d="M23 0 24 10H124L206 680H106L108 690H318L316 680H216L160 222L593 680H503L505 690H688L686 680H605L344 404L550 10H630L629 0H446L447 10H538L336 396L158 207L134 10H234L233 0Z" glyph-name="K" horiz-adv-x="661" unicode="K" /><glyph d="M160 222 613 680H216ZM23 0 24 10H124L206 680H106L108 690H627L625 680L343 394L550 10H630L629 0H446L447 10H538L335 386L158 207L134 10H234L233 0Z" glyph-name="K.alt" horiz-adv-x="641" /><glyph d="M141 178 537 540H185ZM20 0 21 10H110L175 540H86L88 550H551L549 540L300 312L490 10H562L561 0H397L398 10H480L293 306L139 165L120 10H209L208 0Z" glyph-name="K.alt.sc" horiz-adv-x="583" /><glyph d="M20 0 21 10H110L175 540H86L88 550H276L274 540H185L141 180L520 540H440L442 550H605L603 540H532L302 320L490 10H562L561 0H397L398 10H479L295 313L139 166L120 10H209L208 0Z" glyph-name="K.sc" horiz-adv-x="597" /><glyph d="M24 10H124L206 680H106L108 690H318L316 680H216L134 10H453Q470 10 477.5 17Q485 24 487 40L503 175H513L492 0H23Z" glyph-name="L" horiz-adv-x="551" unicode="L" /><glyph d="M21 10H110L175 540H86L88 550H276L274 540H185L120 10H402Q419 10 425.5 17Q432 24 434 41L446 141H456L439 0H20Z" glyph-name="L.sc" horiz-adv-x="498" /><glyph d="M223 0H23L24 10H124L206 680H106L108 690H220L419 105L762 690H875L873 680H773L691 10H791L790 0H590L591 10H681L762 669L423 91H413L215 669L134 10H224Z" glyph-name="M" horiz-adv-x="870" unicode="M" /><glyph d="M223 0H23L24 10H124L206 680H106L108 690H326L324 680H223L419 105L757 680H657L659 690H875L873 680H773L691 10H791L790 0H590L591 10H681L762 669L423 91H413L215 669L134 10H224Z" glyph-name="M.alt" horiz-adv-x="870" /><glyph d="M199 0H20L21 10H110L175 540H86L88 550H283L281 540H191L373 88L666 540H577L579 550H773L771 540H682L617 10H706L705 0H526L527 10H607L671 529L376 73H367L183 531L120 10H200Z" glyph-name="M.alt.sc" horiz-adv-x="782" /><glyph d="M199 0H20L21 10H110L175 540H86L88 550H189L373 87L671 550H773L771 540H682L617 10H706L705 0H526L527 10H607L671 531L376 73H367L184 533L120 10H200Z" glyph-name="M.sc" horiz-adv-x="782" /><glyph d="M233 0H23L24 10H124L206 680H106L107 690H216L549 14L631 680H531L532 690H742L741 680H641L557 -5H547L215 670L134 10H234Z" glyph-name="N" horiz-adv-x="729" unicode="N" /><glyph d="M233 0H23L24 10H124L206 680H106L108 690H218L569 169L631 680H531L533 690H743L741 680H641L559 10H659L658 0H448L449 10H549L567 155L216 676L134 10H234Z" glyph-name="N.alt" horiz-adv-x="738" /><glyph d="M208 0H20L21 10H110L175 540H86L88 550H185L505 134L554 540H465L467 550H655L653 540H564L499 10H588L587 0H399L400 10H489L504 119L184 535L120 10H209Z" glyph-name="N.alt.sc" horiz-adv-x="664" /><glyph d="M208 0H20L21 10H110L175 540H86L87 550H185L489 15L554 540H465L466 550H654L652 540H563L497 -4H487L184 532L120 10H209Z" glyph-name="N.sc" horiz-adv-x="655" /><glyph d="M233 0H23L24 10H124L206 680H106L107 690H216L549 14L631 680H531L532 690H742L741 680H641L557 -5H547L215 670L134 10H234ZM486 757Q461 757 446 770Q431 783 419.5 799Q408 815 396 828Q384 841 364 841Q335 841 320.5 816.5Q306 792 301 757H291Q296 800 315 825.5Q334 851 364 851Q386 851 399 838Q412 825 424 809Q436 793 450 780Q464 767 486 767Q515 767 530 791Q545 815 550 851H560Q555 808 536 782.5Q517 757 486 757Z" glyph-name="Ntilde" horiz-adv-x="729" unicode="&#209;" /><glyph d="M491 759Q467 759 453 771.5Q439 784 428 799.5Q417 815 404 827.5Q391 840 369 840Q342 840 325 819Q308 798 303 763H293Q298 798 316.5 824Q335 850 370 850Q394 850 408.5 837.5Q423 825 434.5 809.5Q446 794 458.5 781.5Q471 769 492 769Q510 769 522 776.5Q534 784 541 795Q548 806 552 819.5Q556 833 557 846H567Q562 801 541 780Q520 759 491 759ZM233 0H23L24 10H124L206 680H106L108 690H218L569 169L631 680H531L533 690H743L741 680H641L559 10H659L658 0H448L449 10H549L567 155L216 676L134 10H234Z" glyph-name="Ntilde.alt" horiz-adv-x="738" /><glyph d="M208 0H20L21 10H110L175 540H86L88 550H185L505 134L554 540H465L467 550H655L653 540H564L499 10H588L587 0H399L400 10H489L504 119L184 535L120 10H209ZM428 611Q407 611 394.5 620Q382 629 371.5 639.5Q361 650 350 658.5Q339 667 319 667Q295 667 280 654.5Q265 642 261 614H252Q256 643 272.5 660.5Q289 678 320 678Q342 678 355 669.5Q368 661 378.5 650.5Q389 640 400 631Q411 622 430 622Q462 622 473 638.5Q484 655 487 675H496Q491 639 472.5 625Q454 611 428 611Z" glyph-name="Ntilde.alt.sc" horiz-adv-x="664" /><glyph d="M424 603Q402 603 388.5 613Q375 623 364 635.5Q353 648 342 658Q331 668 314 668Q288 668 275.5 649Q263 630 259 603H250Q255 638 271.5 658.5Q288 679 314 679Q334 679 346 669Q358 659 369 646.5Q380 634 392.5 624Q405 614 425 614Q450 614 463.5 632.5Q477 651 480 679H490Q485 644 468.5 623.5Q452 603 424 603ZM208 0H20L21 10H110L175 540H86L87 550H185L489 15L554 540H465L466 550H654L652 540H563L497 -4H487L184 532L120 10H209Z" glyph-name="Ntilde.sc" horiz-adv-x="655" /><glyph d="M388 700Q444 700 487.5 678.5Q531 657 561 618.5Q591 580 606.5 527Q622 474 622 411Q622 332 598.5 256Q575 180 533 121Q491 62 432 26Q373 -10 301 -10Q246 -10 202.5 11.5Q159 33 129 71.5Q99 110 83 163Q67 216 67 279Q67 359 90.5 434.5Q114 510 156 569Q198 628 257 664Q316 700 388 700ZM387 690Q317 690 260 654Q203 618 162.5 560Q122 502 99.5 428.5Q77 355 77 279Q77 219 91.5 168Q106 117 134.5 79.5Q163 42 205 21Q247 0 302 0Q372 0 429 36Q486 72 526.5 130Q567 188 589.5 261.5Q612 335 612 411Q612 471 597.5 522Q583 573 554.5 610.5Q526 648 484 669Q442 690 387 690Z" glyph-name="O" horiz-adv-x="662" unicode="O" /><glyph d="M336 558Q386 558 425.5 540.5Q465 523 492.5 492.5Q520 462 534.5 419.5Q549 377 549 326Q549 263 529 203Q509 143 472 96Q435 49 383 20.5Q331 -8 267 -8Q217 -8 177.5 9.5Q138 27 110.5 58Q83 89 68.5 131.5Q54 174 54 224Q54 287 74 347Q94 407 131 454Q168 501 220 529.5Q272 558 336 558ZM335 548Q273 548 223 519.5Q173 491 137.5 445.5Q102 400 83 341.5Q64 283 64 223Q64 175 77.5 134.5Q91 94 117 64.5Q143 35 181 18.5Q219 2 268 2Q330 2 380.5 30Q431 58 466 104Q501 150 520 208.5Q539 267 539 327Q539 375 525.5 415.5Q512 456 486 485.5Q460 515 422 531.5Q384 548 335 548Z" glyph-name="O.sc" horiz-adv-x="594" /><glyph d="M388 700Q444 700 487.5 678.5Q531 657 561 618.5Q591 580 606.5 527Q622 474 622 411Q622 332 598.5 256Q575 180 533 121Q491 62 432 26Q373 -10 301 -10Q246 -10 202.5 11.5Q159 33 129 71.5Q99 110 83 163Q67 216 67 279Q67 359 90.5 434.5Q114 510 156 569Q198 628 257 664Q316 700 388 700ZM387 690Q317 690 260 654Q203 618 162.5 560Q122 502 99.5 428.5Q77 355 77 279Q77 219 91.5 168Q106 117 134.5 79.5Q163 42 205 21Q247 0 302 0Q372 0 429 36Q486 72 526.5 130Q567 188 589.5 261.5Q612 335 612 411Q612 471 597.5 522Q583 573 554.5 610.5Q526 648 484 669Q442 690 387 690ZM397 740H385L481 834Q503 856 515.5 870Q528 884 536 884Q543 884 543 877Q543 872 527 860Q511 848 488 826Z" glyph-name="Oacute" horiz-adv-x="662" unicode="&#211;" /><glyph d="M388 700Q444 700 487.5 678.5Q531 657 561 618.5Q591 580 606.5 527Q622 474 622 411Q622 332 598.5 256Q575 180 533 121Q491 62 432 26Q373 -10 301 -10Q246 -10 202.5 11.5Q159 33 129 71.5Q99 110 83 163Q67 216 67 279Q67 359 90.5 434.5Q114 510 156 569Q198 628 257 664Q316 700 388 700ZM387 690Q317 690 260 654Q203 618 162.5 560Q122 502 99.5 428.5Q77 355 77 279Q77 219 91.5 168Q106 117 134.5 79.5Q163 42 205 21Q247 0 302 0Q372 0 429 36Q486 72 526.5 130Q567 188 589.5 261.5Q612 335 612 411Q612 471 597.5 522Q583 573 554.5 610.5Q526 648 484 669Q442 690 387 690ZM384 740 451 846Q465 868 471.5 882Q478 896 486 896Q496 896 494 889Q493 882 484.5 871Q476 860 461 838L396 740Z" glyph-name="Oacute.pl" horiz-adv-x="662" /><glyph d="M332 590 390 672Q402 692 408 703.5Q414 715 421 715Q430 715 428 708Q428 702 420.5 692.5Q413 683 399 666L343 590ZM336 558Q386 558 425.5 540.5Q465 523 492.5 492.5Q520 462 534.5 419.5Q549 377 549 326Q549 263 529 203Q509 143 472 96Q435 49 383 20.5Q331 -8 267 -8Q217 -8 177.5 9.5Q138 27 110.5 58Q83 89 68.5 131.5Q54 174 54 224Q54 287 74 347Q94 407 131 454Q168 501 220 529.5Q272 558 336 558ZM335 548Q273 548 223 519.5Q173 491 137.5 445.5Q102 400 83 341.5Q64 283 64 223Q64 175 77.5 134.5Q91 94 117 64.5Q143 35 181 18.5Q219 2 268 2Q330 2 380.5 30Q431 58 466 104Q501 150 520 208.5Q539 267 539 327Q539 375 525.5 415.5Q512 456 486 485.5Q460 515 422 531.5Q384 548 335 548Z" glyph-name="Oacute.pl.sc" horiz-adv-x="594" /><glyph d="M344 590H332L417 665Q436 682 447 693.5Q458 705 465 705Q472 705 472 697Q472 692 458 682.5Q444 673 424 656ZM336 558Q386 558 425.5 540.5Q465 523 492.5 492.5Q520 462 534.5 419.5Q549 377 549 326Q549 263 529 203Q509 143 472 96Q435 49 383 20.5Q331 -8 267 -8Q217 -8 177.5 9.5Q138 27 110.5 58Q83 89 68.5 131.5Q54 174 54 224Q54 287 74 347Q94 407 131 454Q168 501 220 529.5Q272 558 336 558ZM335 548Q273 548 223 519.5Q173 491 137.5 445.5Q102 400 83 341.5Q64 283 64 223Q64 175 77.5 134.5Q91 94 117 64.5Q143 35 181 18.5Q219 2 268 2Q330 2 380.5 30Q431 58 466 104Q501 150 520 208.5Q539 267 539 327Q539 375 525.5 415.5Q512 456 486 485.5Q460 515 422 531.5Q384 548 335 548Z" glyph-name="Oacute.sc" horiz-adv-x="594" /><glyph d="M388 700Q444 700 487.5 678.5Q531 657 561 618.5Q591 580 606.5 527Q622 474 622 411Q622 332 598.5 256Q575 180 533 121Q491 62 432 26Q373 -10 301 -10Q246 -10 202.5 11.5Q159 33 129 71.5Q99 110 83 163Q67 216 67 279Q67 359 90.5 434.5Q114 510 156 569Q198 628 257 664Q316 700 388 700ZM387 690Q317 690 260 654Q203 618 162.5 560Q122 502 99.5 428.5Q77 355 77 279Q77 219 91.5 168Q106 117 134.5 79.5Q163 42 205 21Q247 0 302 0Q372 0 429 36Q486 72 526.5 130Q567 188 589.5 261.5Q612 335 612 411Q612 471 597.5 522Q583 573 554.5 610.5Q526 648 484 669Q442 690 387 690ZM408 863 292 740H278L403 872H413L502 740H490Z" glyph-name="Ocircumflex" horiz-adv-x="662" unicode="&#212;" /><glyph d="M351 684 250 590H237L347 695H356L438 590H427ZM336 558Q386 558 425.5 540.5Q465 523 492.5 492.5Q520 462 534.5 419.5Q549 377 549 326Q549 263 529 203Q509 143 472 96Q435 49 383 20.5Q331 -8 267 -8Q217 -8 177.5 9.5Q138 27 110.5 58Q83 89 68.5 131.5Q54 174 54 224Q54 287 74 347Q94 407 131 454Q168 501 220 529.5Q272 558 336 558ZM335 548Q273 548 223 519.5Q173 491 137.5 445.5Q102 400 83 341.5Q64 283 64 223Q64 175 77.5 134.5Q91 94 117 64.5Q143 35 181 18.5Q219 2 268 2Q330 2 380.5 30Q431 58 466 104Q501 150 520 208.5Q539 267 539 327Q539 375 525.5 415.5Q512 456 486 485.5Q460 515 422 531.5Q384 548 335 548Z" glyph-name="Ocircumflex.sc" horiz-adv-x="594" /><glyph d="M388 700Q444 700 487.5 678.5Q531 657 561 618.5Q591 580 606.5 527Q622 474 622 411Q622 332 598.5 256Q575 180 533 121Q491 62 432 26Q373 -10 301 -10Q246 -10 202.5 11.5Q159 33 129 71.5Q99 110 83 163Q67 216 67 279Q67 359 90.5 434.5Q114 510 156 569Q198 628 257 664Q316 700 388 700ZM387 690Q317 690 260 654Q203 618 162.5 560Q122 502 99.5 428.5Q77 355 77 279Q77 219 91.5 168Q106 117 134.5 79.5Q163 42 205 21Q247 0 302 0Q372 0 429 36Q486 72 526.5 130Q567 188 589.5 261.5Q612 335 612 411Q612 471 597.5 522Q583 573 554.5 610.5Q526 648 484 669Q442 690 387 690ZM508 803Q508 786 489 786Q483 786 478.5 789.5Q474 793 474 801Q474 809 479.5 814Q485 819 493 819Q508 819 508 803ZM328 803Q328 786 309 786Q303 786 298.5 789.5Q294 793 294 801Q294 809 299.5 814Q305 819 313 819Q328 819 328 803Z" glyph-name="Odieresis" horiz-adv-x="662" unicode="&#214;" /><glyph d="M442 641Q442 625 425 625Q411 625 411 639Q411 646 416 651Q421 656 429 656Q435 656 438.5 651.5Q442 647 442 641ZM282 641Q282 634 277 629.5Q272 625 264 625Q259 625 254.5 628.5Q250 632 250 639Q250 646 255 651Q260 656 268 656Q274 656 278 651.5Q282 647 282 641ZM336 558Q386 558 425.5 540.5Q465 523 492.5 492.5Q520 462 534.5 419.5Q549 377 549 326Q549 263 529 203Q509 143 472 96Q435 49 383 20.5Q331 -8 267 -8Q217 -8 177.5 9.5Q138 27 110.5 58Q83 89 68.5 131.5Q54 174 54 224Q54 287 74 347Q94 407 131 454Q168 501 220 529.5Q272 558 336 558ZM335 548Q273 548 223 519.5Q173 491 137.5 445.5Q102 400 83 341.5Q64 283 64 223Q64 175 77.5 134.5Q91 94 117 64.5Q143 35 181 18.5Q219 2 268 2Q330 2 380.5 30Q431 58 466 104Q501 150 520 208.5Q539 267 539 327Q539 375 525.5 415.5Q512 456 486 485.5Q460 515 422 531.5Q384 548 335 548Z" glyph-name="Odieresis.sc" horiz-adv-x="594" /><glyph d="M388 700Q444 700 487.5 678.5Q531 657 561 618.5Q591 580 606.5 527Q622 474 622 411Q622 332 598.5 256Q575 180 533 121Q491 62 432 26Q373 -10 301 -10Q246 -10 202.5 11.5Q159 33 129 71.5Q99 110 83 163Q67 216 67 279Q67 359 90.5 434.5Q114 510 156 569Q198 628 257 664Q316 700 388 700ZM387 690Q317 690 260 654Q203 618 162.5 560Q122 502 99.5 428.5Q77 355 77 279Q77 219 91.5 168Q106 117 134.5 79.5Q163 42 205 21Q247 0 302 0Q372 0 429 36Q486 72 526.5 130Q567 188 589.5 261.5Q612 335 612 411Q612 471 597.5 522Q583 573 554.5 610.5Q526 648 484 669Q442 690 387 690ZM328 826Q311 848 298.5 859.5Q286 871 286 877Q286 884 295 884Q303 884 311.5 870Q320 856 337 834L410 740H398Z" glyph-name="Ograve" horiz-adv-x="662" unicode="&#210;" /><glyph d="M280 656Q264 673 253 682.5Q242 692 242 697Q242 705 251 705Q258 705 266 693.5Q274 682 289 665L355 590H344ZM336 558Q386 558 425.5 540.5Q465 523 492.5 492.5Q520 462 534.5 419.5Q549 377 549 326Q549 263 529 203Q509 143 472 96Q435 49 383 20.5Q331 -8 267 -8Q217 -8 177.5 9.5Q138 27 110.5 58Q83 89 68.5 131.5Q54 174 54 224Q54 287 74 347Q94 407 131 454Q168 501 220 529.5Q272 558 336 558ZM335 548Q273 548 223 519.5Q173 491 137.5 445.5Q102 400 83 341.5Q64 283 64 223Q64 175 77.5 134.5Q91 94 117 64.5Q143 35 181 18.5Q219 2 268 2Q330 2 380.5 30Q431 58 466 104Q501 150 520 208.5Q539 267 539 327Q539 375 525.5 415.5Q512 456 486 485.5Q460 515 422 531.5Q384 548 335 548Z" glyph-name="Ograve.sc" horiz-adv-x="594" /><glyph d="M79 279Q79 216 94.5 163.5Q110 111 141 73L570 590Q542 637 497 663.5Q452 690 389 690Q319 690 262 654Q205 618 164.5 560Q124 502 101.5 428.5Q79 355 79 279ZM304 0Q374 0 431 36Q488 72 528.5 130Q569 188 591.5 261.5Q614 335 614 411Q614 461 604.5 504Q595 547 575 582L147 67Q176 35 214.5 17.5Q253 0 304 0ZM303 -10Q252 -10 211 8Q170 26 141 59L60 -38H49L135 66Q103 104 86 158.5Q69 213 69 279Q69 359 92.5 434.5Q116 510 158 569Q200 628 259 664Q318 700 390 700Q453 700 500 673Q547 646 577 598L677 719H688L581 590Q624 516 624 411Q624 332 600.5 256Q577 180 535 121Q493 62 434 26Q375 -10 303 -10Z" glyph-name="Oslash" horiz-adv-x="678" unicode="&#216;" /><glyph d="M66 223Q66 121 123 59L499 472Q473 507 432.5 527.5Q392 548 337 548Q275 548 225 519.5Q175 491 139.5 445.5Q104 400 85 341.5Q66 283 66 223ZM270 2Q332 2 382.5 30Q433 58 468 104Q503 150 522 208.5Q541 267 541 327Q541 408 504 465L130 53Q156 29 190.5 15.5Q225 2 270 2ZM269 -8Q224 -8 187 6Q150 20 124 46L54 -30H42L117 53Q88 84 72 127.5Q56 171 56 224Q56 287 76 347Q96 407 133 454Q170 501 222 529.5Q274 558 338 558Q394 558 436 537Q478 516 505 479L592 574H603L510 472Q551 413 551 326Q551 263 531 203Q511 143 474 96Q437 49 385 20.5Q333 -8 269 -8Z" glyph-name="Oslash.sc" horiz-adv-x="607" /><glyph d="M388 700Q444 700 487.5 678.5Q531 657 561 618.5Q591 580 606.5 527Q622 474 622 411Q622 332 598.5 256Q575 180 533 121Q491 62 432 26Q373 -10 301 -10Q246 -10 202.5 11.5Q159 33 129 71.5Q99 110 83 163Q67 216 67 279Q67 359 90.5 434.5Q114 510 156 569Q198 628 257 664Q316 700 388 700ZM387 690Q317 690 260 654Q203 618 162.5 560Q122 502 99.5 428.5Q77 355 77 279Q77 219 91.5 168Q106 117 134.5 79.5Q163 42 205 21Q247 0 302 0Q372 0 429 36Q486 72 526.5 130Q567 188 589.5 261.5Q612 335 612 411Q612 471 597.5 522Q583 573 554.5 610.5Q526 648 484 669Q442 690 387 690ZM461 757Q436 757 421 770Q406 783 394.5 799Q383 815 371 828Q359 841 339 841Q310 841 295.5 816.5Q281 792 276 757H266Q271 800 290 825.5Q309 851 339 851Q361 851 374 838Q387 825 399 809Q411 793 425 780Q439 767 461 767Q490 767 505 791Q520 815 525 851H535Q530 808 511 782.5Q492 757 461 757Z" glyph-name="Otilde" horiz-adv-x="662" unicode="&#213;" /><glyph d="M400 603Q378 603 364.5 613Q351 623 340 635.5Q329 648 318 658Q307 668 290 668Q264 668 251.5 649Q239 630 235 603H226Q231 638 247.5 658.5Q264 679 291 679Q310 679 322 669Q334 659 345 646.5Q356 634 368.5 624Q381 614 401 614Q427 614 440 632.5Q453 651 456 679H466Q461 644 444.5 623.5Q428 603 400 603ZM336 558Q386 558 425.5 540.5Q465 523 492.5 492.5Q520 462 534.5 419.5Q549 377 549 326Q549 263 529 203Q509 143 472 96Q435 49 383 20.5Q331 -8 267 -8Q217 -8 177.5 9.5Q138 27 110.5 58Q83 89 68.5 131.5Q54 174 54 224Q54 287 74 347Q94 407 131 454Q168 501 220 529.5Q272 558 336 558ZM335 548Q273 548 223 519.5Q173 491 137.5 445.5Q102 400 83 341.5Q64 283 64 223Q64 175 77.5 134.5Q91 94 117 64.5Q143 35 181 18.5Q219 2 268 2Q330 2 380.5 30Q431 58 466 104Q501 150 520 208.5Q539 267 539 327Q539 375 525.5 415.5Q512 456 486 485.5Q460 515 422 531.5Q384 548 335 548Z" glyph-name="Otilde.sc" horiz-adv-x="594" /><glyph d="M24 10H124L206 680H106L108 690H333Q458 690 515 643Q572 596 572 519Q572 419 503 360Q434 301 288 301H170L134 10H238L237 0H23ZM216 680 171 311H292Q363 311 414 326.5Q465 342 498 370Q531 398 546.5 436Q562 474 562 519Q562 592 508 636Q454 680 335 680Z" glyph-name="P" horiz-adv-x="580" unicode="P" /><glyph d="M21 10H110L175 540H86L88 550H289Q401 550 452.5 512.5Q504 475 504 413Q504 334 444 286.5Q384 239 253 239H148L120 10H213L212 0H20ZM185 540 149 249H257Q320 249 365 261.5Q410 274 438.5 295.5Q467 317 480.5 347Q494 377 494 413Q494 470 445.5 505Q397 540 290 540Z" glyph-name="P.sc" horiz-adv-x="521" /><glyph d="M462 -111Q427 -111 407.5 -84.5Q388 -58 380 2Q343 -10 301 -10Q246 -10 202.5 11.5Q159 33 129 71.5Q99 110 83 163Q67 216 67 279Q67 359 90.5 434.5Q114 510 156 569Q198 628 257 664Q316 700 388 700Q444 700 487.5 678.5Q531 657 561 618.5Q591 580 606.5 527Q622 474 622 411Q622 345 605.5 280.5Q589 216 558.5 161.5Q528 107 485 66.5Q442 26 389 6Q397 -54 415 -77.5Q433 -101 462 -101Q502 -101 523.5 -63.5Q545 -26 553 32H563Q555 -30 531 -70.5Q507 -111 462 -111ZM386 40Q387 33 387 27Q387 21 388 16Q439 36 480.5 76Q522 116 551.5 169.5Q581 223 596.5 285.5Q612 348 612 411Q612 471 597.5 522Q583 573 554.5 610.5Q526 648 484 669Q442 690 387 690Q317 690 260 654Q203 618 162.5 560Q122 502 99.5 428.5Q77 355 77 279Q77 208 97 150.5Q117 93 157 55Q174 112 205 142Q236 172 283 172Q304 172 321.5 166.5Q339 161 352.5 146Q366 131 374.5 105.5Q383 80 386 40ZM302 0Q342 0 378 12Q377 18 377 24Q377 30 376 37Q371 111 347 136.5Q323 162 282 162Q237 162 208.5 131.5Q180 101 164 48Q190 25 225 12.5Q260 0 302 0Z" glyph-name="Q" horiz-adv-x="662" unicode="Q" /><glyph d="M484 -138Q459 -138 441.5 -126.5Q424 -115 413 -95Q402 -75 396.5 -49Q391 -23 390 6Q349 -10 301 -10Q246 -10 202.5 11.5Q159 33 129 71.5Q99 110 83 163Q67 216 67 279Q67 359 90.5 434.5Q114 510 156 569Q198 628 257 664Q316 700 388 700Q444 700 487.5 678.5Q531 657 561 618.5Q591 580 606.5 527Q622 474 622 411Q622 346 606.5 283Q591 220 561.5 166.5Q532 113 491 71.5Q450 30 399 9Q401 -19 405 -44Q409 -69 419 -87.5Q429 -106 444.5 -117Q460 -128 484 -128Q500 -128 514.5 -121Q529 -114 541.5 -97Q554 -80 563 -51Q572 -22 578 22H588Q582 -25 572.5 -55.5Q563 -86 549.5 -104.5Q536 -123 520 -130.5Q504 -138 484 -138ZM77 279Q77 229 87 184.5Q97 140 117.5 105Q138 70 168 45Q198 20 237 9Q213 24 201.5 53.5Q190 83 190 112Q190 138 196 161Q202 184 215 201Q228 218 248 228Q268 238 296 238Q331 238 351.5 222.5Q372 207 382.5 181.5Q393 156 396 123.5Q399 91 399 57V20Q448 41 487.5 82Q527 123 554.5 175.5Q582 228 597 289Q612 350 612 411Q612 471 597.5 522Q583 573 554.5 610.5Q526 648 484 669Q442 690 387 690Q317 690 260 654Q203 618 162.5 560Q122 502 99.5 428.5Q77 355 77 279ZM302 0Q349 0 390 16V54Q389 87 386.5 118.5Q384 150 374.5 174Q365 198 346.5 213Q328 228 296 228Q245 228 222.5 194.5Q200 161 200 114Q200 95 205 74.5Q210 54 221.5 37.5Q233 21 252.5 10.5Q272 0 302 0Z" glyph-name="Q.alt" horiz-adv-x="662" /><glyph d="M431 -111Q408 -111 393 -101.5Q378 -92 368.5 -76Q359 -60 354 -39Q349 -18 347 5Q328 -1 308 -4.5Q288 -8 267 -8Q217 -8 177.5 9.5Q138 27 110.5 58Q83 89 68.5 131.5Q54 174 54 224Q54 287 74 347Q94 407 131 454Q168 501 220 529.5Q272 558 336 558Q386 558 425.5 540.5Q465 523 492.5 492.5Q520 462 534.5 419.5Q549 377 549 326Q549 275 535.5 225.5Q522 176 497.5 133.5Q473 91 437 58Q401 25 356 8Q361 -39 376.5 -70Q392 -101 431 -101Q460 -101 482 -76.5Q504 -52 513 18H522Q513 -56 489 -83.5Q465 -111 431 -111ZM64 223Q64 142 103 83.5Q142 25 213 7Q191 19 179 42.5Q167 66 167 91Q167 131 190 160.5Q213 190 260 190Q291 190 309.5 178Q328 166 337.5 146.5Q347 127 350 101.5Q353 76 354 49Q354 45 354 40Q354 35 355 30Q355 24 355 18Q398 35 432 67Q466 99 490 140.5Q514 182 526.5 230Q539 278 539 327Q539 375 525.5 415.5Q512 456 486 485.5Q460 515 422 531.5Q384 548 335 548Q273 548 223 519.5Q173 491 137.5 445.5Q102 400 83 341.5Q64 283 64 223ZM268 2Q289 2 308.5 5.5Q328 9 346 15Q346 20 346 24Q345 28 345 32Q345 36 345 39Q344 68 341 93.5Q338 119 329.5 138.5Q321 158 305 169Q289 180 260 180Q218 180 197.5 153.5Q177 127 177 90Q177 76 182.5 60.5Q188 45 199.5 32Q211 19 228 10.5Q245 2 268 2Z" glyph-name="Q.alt.sc" horiz-adv-x="594" /><glyph d="M415 -88Q384 -88 366 -66.5Q348 -45 338 3Q303 -8 267 -8Q217 -8 177.5 9.5Q138 27 110.5 58Q83 89 68.5 131.5Q54 174 54 224Q54 287 74 347Q94 407 131 454Q168 501 220 529.5Q272 558 336 558Q386 558 425.5 540.5Q465 523 492.5 492.5Q520 462 534.5 419.5Q549 377 549 326Q549 274 535 223.5Q521 173 495 130Q469 87 431.5 54.5Q394 22 347 6Q357 -41 373 -59.5Q389 -78 415 -78Q450 -78 467.5 -49Q485 -20 491 25H500Q493 -24 474 -56Q455 -88 415 -88ZM345 15Q390 30 426 62Q462 94 487 136Q512 178 525.5 227.5Q539 277 539 327Q539 375 525.5 415.5Q512 456 486 485.5Q460 515 422 531.5Q384 548 335 548Q273 548 223 519.5Q173 491 137.5 445.5Q102 400 83 341.5Q64 283 64 223Q64 166 82.5 120Q101 74 137 45Q152 91 179.5 115.5Q207 140 249 140Q295 140 315.5 110.5Q336 81 345 15ZM268 2Q286 2 303 4.5Q320 7 336 12Q330 45 323 67.5Q316 90 306.5 104Q297 118 283 124Q269 130 248 130Q208 130 183 106Q158 82 144 39Q195 2 268 2Z" glyph-name="Q.sc" horiz-adv-x="594" /><glyph d="M634 144Q624 67 606.5 28.5Q589 -10 546 -10Q523 -10 508 -1Q493 8 482.5 28.5Q472 49 464.5 82Q457 115 449 162Q440 211 429.5 244Q419 277 402 297Q385 317 358.5 325.5Q332 334 291 334H174L134 10H224L223 0H23L24 10H124L207 680H107L108 690H337Q400 690 443.5 679.5Q487 669 514 648.5Q541 628 553 599Q565 570 565 533Q565 499 552.5 465Q540 431 513 404Q486 377 444 359Q402 341 342 338Q368 334 386.5 323.5Q405 313 418 293Q431 273 440.5 241.5Q450 210 458 163Q466 115 473.5 84Q481 53 491 34Q501 15 514 7.5Q527 0 546 0Q584 0 599 35Q614 70 623 144ZM217 680 175 344H294Q380 344 431 364.5Q482 385 510 414Q538 443 546.5 476Q555 509 555 533Q555 604 505.5 642Q456 680 338 680Z" glyph-name="R" horiz-adv-x="653" unicode="R" /><glyph d="M563 115Q555 54 540 23Q525 -8 486 -8Q466 -8 452.5 -0.5Q439 7 429 23Q419 39 412 65.5Q405 92 397 129Q389 168 379 194Q369 220 353.5 236Q338 252 314.5 258.5Q291 265 255 265H151L119 10H200L199 0H19L20 10H109L175 540H86L87 550H292Q404 550 450.5 516.5Q497 483 497 424Q497 396 486 369Q475 342 451.5 321Q428 300 391 286Q354 272 301 269Q324 265 340.5 257Q357 249 369 233Q381 217 390 192Q399 167 406 130Q414 93 421.5 68.5Q429 44 437.5 29Q446 14 457.5 8Q469 2 486 2Q521 2 533.5 30Q546 58 553 115ZM185 540 152 275H257Q333 275 378.5 291Q424 307 448 330Q472 353 479.5 378.5Q487 404 487 424Q487 480 442 510Q397 540 292 540Z" glyph-name="R.sc" horiz-adv-x="585" /><glyph d="M496 175Q496 204 486 227.5Q476 251 452.5 270.5Q429 290 391.5 306.5Q354 323 299 336Q258 346 222.5 358.5Q187 371 161 390Q135 409 120 436.5Q105 464 105 504Q105 545 120 580.5Q135 616 164 642.5Q193 669 235.5 684.5Q278 700 333 700Q413 700 466 665Q519 630 529 563L546 700H556L530 490H520Q522 500 522 508.5Q522 517 522 526Q522 577 503.5 609Q485 641 456.5 659Q428 677 395 683.5Q362 690 332 690Q280 690 240 675.5Q200 661 172 636Q144 611 129.5 577Q115 543 115 505Q115 466 130 439.5Q145 413 171 395.5Q197 378 231.5 366.5Q266 355 306 345Q362 331 400.5 314.5Q439 298 462.5 277.5Q486 257 496 232Q506 207 506 175Q506 141 495 107.5Q484 74 458.5 48Q433 22 390.5 6Q348 -10 285 -10Q233 -10 194.5 2Q156 14 129 34Q102 54 86.5 79.5Q71 105 65 133L47 -10H37L63 203H73Q72 196 71.5 189.5Q71 183 71 176Q71 133 87.5 100.5Q104 68 133 45.5Q162 23 201.5 11.5Q241 0 286 0Q346 0 386 15.5Q426 31 450.5 56Q475 81 485.5 112.5Q496 144 496 175Z" glyph-name="S" horiz-adv-x="576" unicode="S" /><glyph d="M448 140Q448 112 438.5 85Q429 58 406.5 37.5Q384 17 346 4.5Q308 -8 252 -8Q207 -8 173 1.5Q139 11 114.5 26.5Q90 42 75 62Q60 82 55 103L40 -8H31L52 163H61Q61 158 60.5 152.5Q60 147 60 142Q60 108 75.5 82Q91 56 117 38Q143 20 178 11Q213 2 253 2Q306 2 341.5 14Q377 26 398.5 45.5Q420 65 429 89.5Q438 114 438 139Q438 186 398.5 216.5Q359 247 260 268Q224 276 192 286Q160 296 136.5 311Q113 326 99.5 348Q86 370 86 402Q86 435 99 463.5Q112 492 137.5 513Q163 534 200.5 546Q238 558 287 558Q358 558 406 529Q454 500 462 450L477 558H486L465 389H455Q456 397 456.5 403.5Q457 410 457 417Q457 453 442 478Q427 503 402.5 518.5Q378 534 347.5 541Q317 548 286 548Q240 548 204.5 536.5Q169 525 145 505.5Q121 486 108.5 460Q96 434 96 404Q96 373 109.5 352Q123 331 146.5 317Q170 303 201 293.5Q232 284 268 276Q368 254 408 222.5Q448 191 448 140Z" glyph-name="S.sc" horiz-adv-x="516" /><glyph d="M162 10H262L344 680H131Q112 680 106 674Q100 668 98 650L78 490H68L93 690H608L583 490H573L593 650Q595 668 590.5 674Q586 680 566 680H354L272 10H372L371 0H161Z" glyph-name="T" horiz-adv-x="589" unicode="T" /><glyph d="M144 10H233L298 540H110Q92 540 86 534Q80 528 78 510L63 391H54L74 550H534L514 391H505L520 510Q522 528 517.5 534Q513 540 495 540H308L243 10H332L331 0H143Z" glyph-name="T.sc" horiz-adv-x="530" /><glyph d="M233 0H23L24 10H124L206 680H106L108 690H318L316 680H216L204 580H253Q314 580 365 569.5Q416 559 453 537Q490 515 510.5 480Q531 445 531 395Q531 277 444.5 212.5Q358 148 200 148H151L134 10H234ZM203 570 152 158H202Q357 158 439 220Q521 282 521 395Q521 486 452 528Q383 570 253 570Z" glyph-name="Thorn" horiz-adv-x="560" unicode="&#222;" /><glyph d="M208 0H20L21 10H110L175 540H86L88 550H276L274 540H185L175 461H239Q351 461 410 423.5Q469 386 469 304Q469 213 398.5 165.5Q328 118 197 118H133L120 10H209ZM174 451 134 128H199Q327 128 393 173.5Q459 219 459 304Q459 380 402.5 415.5Q346 451 239 451Z" glyph-name="Thorn.sc" horiz-adv-x="505" /><glyph d="M587 242Q580 185 562.5 138.5Q545 92 514.5 59Q484 26 439.5 8Q395 -10 333 -10Q274 -10 233.5 8Q193 26 169 59Q145 92 137.5 139Q130 186 137 243L190 680H90L92 690H302L300 680H200L147 243Q133 128 180 64Q227 0 334 0Q393 0 435.5 16.5Q478 33 507 64Q536 95 553 140.5Q570 186 577 243L630 680H530L532 690H742L740 680H640Z" glyph-name="U" horiz-adv-x="719" unicode="U" /><glyph d="M520 193Q515 147 500 110Q485 73 458.5 47Q432 21 392.5 6.5Q353 -8 299 -8Q195 -8 150.5 46.5Q106 101 118 194L159 540H70L72 550H260L258 540H169L128 194Q117 103 159.5 52.5Q202 2 297 2Q401 2 450 52.5Q499 103 510 194L552 540H463L465 550H652L650 540H561Z" glyph-name="U.sc" horiz-adv-x="646" /><glyph d="M587 242Q580 185 562.5 138.5Q545 92 514.5 59Q484 26 439.5 8Q395 -10 333 -10Q274 -10 233.5 8Q193 26 169 59Q145 92 137.5 139Q130 186 137 243L190 680H90L92 690H302L300 680H200L147 243Q133 128 180 64Q227 0 334 0Q393 0 435.5 16.5Q478 33 507 64Q536 95 553 140.5Q570 186 577 243L630 680H530L532 690H742L740 680H640ZM426 740H414L510 834Q532 856 544.5 870Q557 884 565 884Q572 884 572 877Q572 872 556 860Q540 848 517 826Z" glyph-name="Uacute" horiz-adv-x="719" unicode="&#218;" /><glyph d="M370 590H359L443 665Q463 682 474 693.5Q485 705 492 705Q499 705 499 697Q499 692 484.5 682.5Q470 673 450 656ZM520 193Q515 147 500 110Q485 73 458.5 47Q432 21 392.5 6.5Q353 -8 299 -8Q195 -8 150.5 46.5Q106 101 118 194L159 540H70L72 550H260L258 540H169L128 194Q117 103 159.5 52.5Q202 2 297 2Q401 2 450 52.5Q499 103 510 194L552 540H463L465 550H652L650 540H561Z" glyph-name="Uacute.sc" horiz-adv-x="646" /><glyph d="M587 242Q580 185 562.5 138.5Q545 92 514.5 59Q484 26 439.5 8Q395 -10 333 -10Q274 -10 233.5 8Q193 26 169 59Q145 92 137.5 139Q130 186 137 243L190 680H90L92 690H302L300 680H200L147 243Q133 128 180 64Q227 0 334 0Q393 0 435.5 16.5Q478 33 507 64Q536 95 553 140.5Q570 186 577 243L630 680H530L532 690H742L740 680H640ZM439 863 323 740H309L434 872H444L533 740H521Z" glyph-name="Ucircumflex" horiz-adv-x="719" unicode="&#219;" /><glyph d="M380 684 278 590H265L375 695H385L466 590H455ZM520 193Q515 147 500 110Q485 73 458.5 47Q432 21 392.5 6.5Q353 -8 299 -8Q195 -8 150.5 46.5Q106 101 118 194L159 540H70L72 550H260L258 540H169L128 194Q117 103 159.5 52.5Q202 2 297 2Q401 2 450 52.5Q499 103 510 194L552 540H463L465 550H652L650 540H561Z" glyph-name="Ucircumflex.sc" horiz-adv-x="646" /><glyph d="M587 242Q580 185 562.5 138.5Q545 92 514.5 59Q484 26 439.5 8Q395 -10 333 -10Q274 -10 233.5 8Q193 26 169 59Q145 92 137.5 139Q130 186 137 243L190 680H90L92 690H302L300 680H200L147 243Q133 128 180 64Q227 0 334 0Q393 0 435.5 16.5Q478 33 507 64Q536 95 553 140.5Q570 186 577 243L630 680H530L532 690H742L740 680H640ZM529 803Q529 786 510 786Q504 786 499.5 789.5Q495 793 495 801Q495 809 500.5 814Q506 819 514 819Q529 819 529 803ZM349 803Q349 786 330 786Q324 786 319.5 789.5Q315 793 315 801Q315 809 320.5 814Q326 819 334 819Q349 819 349 803Z" glyph-name="Udieresis" horiz-adv-x="719" unicode="&#220;" /><glyph d="M472 641Q472 634 467 629.5Q462 625 454 625Q449 625 444.5 628.5Q440 632 440 639Q440 646 445 651Q450 656 458 656Q464 656 468 651.5Q472 647 472 641ZM311 641Q311 625 293 625Q280 625 280 639Q280 646 284.5 651Q289 656 297 656Q304 656 307.5 651.5Q311 647 311 641ZM520 193Q515 147 500 110Q485 73 458.5 47Q432 21 392.5 6.5Q353 -8 299 -8Q195 -8 150.5 46.5Q106 101 118 194L159 540H70L72 550H260L258 540H169L128 194Q117 103 159.5 52.5Q202 2 297 2Q401 2 450 52.5Q499 103 510 194L552 540H463L465 550H652L650 540H561Z" glyph-name="Udieresis.sc" horiz-adv-x="646" /><glyph d="M587 242Q580 185 562.5 138.5Q545 92 514.5 59Q484 26 439.5 8Q395 -10 333 -10Q274 -10 233.5 8Q193 26 169 59Q145 92 137.5 139Q130 186 137 243L190 680H90L92 690H302L300 680H200L147 243Q133 128 180 64Q227 0 334 0Q393 0 435.5 16.5Q478 33 507 64Q536 95 553 140.5Q570 186 577 243L630 680H530L532 690H742L740 680H640ZM351 826Q334 848 321.5 859.5Q309 871 309 877Q309 884 318 884Q326 884 334.5 870Q343 856 360 834L433 740H421Z" glyph-name="Ugrave" horiz-adv-x="719" unicode="&#217;" /><glyph d="M301 656Q285 673 274 682.5Q263 692 263 697Q263 705 272 705Q279 705 287 693.5Q295 682 310 665L376 590H365ZM520 193Q515 147 500 110Q485 73 458.5 47Q432 21 392.5 6.5Q353 -8 299 -8Q195 -8 150.5 46.5Q106 101 118 194L159 540H70L72 550H260L258 540H169L128 194Q117 103 159.5 52.5Q202 2 297 2Q401 2 450 52.5Q499 103 510 194L552 540H463L465 550H652L650 540H561Z" glyph-name="Ugrave.sc" horiz-adv-x="646" /><glyph d="M593 680 285 -10H275L128 680H48L49 690H221L220 680H138L282 5L583 680H504L505 690H673L672 680Z" glyph-name="V" horiz-adv-x="615" unicode="V" /><glyph d="M517 540 253 -7H243L103 540H32L33 550H188L186 540H113L250 7L507 540H439L440 550H590L589 540Z" glyph-name="V.sc" horiz-adv-x="550" /><glyph d="M490 666 231 -10H221L130 680H51L52 690H223L222 680H141L229 9L487 690H497L602 -1V14L840 680H760L761 690H933L932 680H851L603 -10H593Z" glyph-name="W" horiz-adv-x="879" unicode="W" /><glyph d="M602 680H437L492 459ZM489 437 274 -10H264L127 680H47L48 690H220L219 680H138L271 7L486 450L427 680H347L348 690H692L691 680H610L496 447L610 5L902 680H823L824 690H992L991 680H910L614 -10H604Z" glyph-name="W.alt" horiz-adv-x="933" /><glyph d="M525 540H380L432 367ZM428 345 242 -7H232L101 540H30L31 550H185L184 540H112L239 9L425 357L369 540H298L299 550H606L605 540H535L436 355L541 8L793 540H722L723 550H873L872 540H803L545 -7H535Z" glyph-name="W.alt.sc" horiz-adv-x="833" /><glyph d="M428 531 206 -7H196L106 540H36L37 550H190L189 540H116L203 11L425 550H435L535 10L741 540H668L670 550H823L822 540H751L538 -7H528Z" glyph-name="W.sc" horiz-adv-x="788" /><glyph d="M-21 0 -20 10H62L330 359L161 680H80L82 690H256L254 680H174L339 367L572 680H491L493 690H665L663 680H583L343 359L527 10H607L606 0H432L433 10H514L335 349L74 10H152L151 0Z" glyph-name="X" horiz-adv-x="637" unicode="X" /><glyph d="M136 0H-18L-17 10H56L291 287L136 540H64L66 550H222L220 540H146L298 293L502 540H430L432 550H586L584 540H514L302 285L470 10H542L541 0H386L387 10H459L296 279L67 10H137Z" glyph-name="X.sc" horiz-adv-x="577" /><glyph d="M382 0H172L173 10H273L309 303L129 680H48L50 690H223L221 680H141L315 314L565 680H484L486 690H658L656 680H576L319 303L283 10H383Z" glyph-name="Y" horiz-adv-x="605" unicode="Y" /><glyph d="M337 0H149L150 10H239L268 241L103 540H31L33 550H188L186 540H113L273 250L492 540H420L421 550H575L573 540H502L278 242L249 10H339Z" glyph-name="Y.sc" horiz-adv-x="540" /><glyph d="M382 0H172L173 10H273L309 303L129 680H48L50 690H223L221 680H141L315 314L565 680H484L486 690H658L656 680H576L319 303L283 10H383ZM362 740H350L446 834Q468 856 480.5 870Q493 884 501 884Q508 884 508 877Q508 872 492 860Q476 848 453 826Z" glyph-name="Yacute" horiz-adv-x="605" unicode="&#221;" /><glyph d="M311 590H300L384 665Q403 682 414 693.5Q425 705 433 705Q439 705 439 697Q439 692 425 682.5Q411 673 391 656ZM337 0H149L150 10H239L268 241L103 540H31L33 550H188L186 540H113L273 250L492 540H420L421 550H575L573 540H502L278 242L249 10H339Z" glyph-name="Yacute.sc" horiz-adv-x="540" /><glyph d="M18 0 19 10 545 680H149Q131 680 124.5 674Q118 668 116 650L100 520H90L111 690H559L557 680L32 10H438Q456 10 463 16.5Q470 23 472 40L488 175H498L477 0Z" glyph-name="Z" horiz-adv-x="555" unicode="Z" /><glyph d="M19 0 20 10 546 680H150Q132 680 125.5 674Q119 668 117 650L101 520H91L112 690H560L558 680L33 10H439Q457 10 464 16.5Q471 23 473 40L489 175H499L478 0Z" glyph-name="Z.alt" horiz-adv-x="557" /><glyph d="M16 0 17 10 477 540H126Q109 540 103 534Q97 528 95 510L83 411H74L91 550H491L489 540L30 10H390Q407 10 413.5 17.5Q420 25 422 41L434 143H443L426 0Z" glyph-name="Z.alt.sc" horiz-adv-x="501" /><glyph d="M15 0 16 10 476 540H126Q109 540 102.5 534Q96 528 94 510L82 411H73L90 550H490L488 540L29 10H389Q406 10 412.5 17Q419 24 421 41L433 143H442L425 0Z" glyph-name="Z.sc" horiz-adv-x="499" /><glyph d="M453 -10Q442 -10 431 -6.5Q420 -3 411.5 8Q403 19 399.5 38.5Q396 58 400 90L407 142Q383 73 335.5 31.5Q288 -10 218 -10Q140 -10 97 46Q54 102 54 199Q54 259 67.5 312Q81 365 108 404.5Q135 444 175 467Q215 490 267 490Q336 490 379 446Q422 402 429 327L448 480H458L410 89Q406 58 409.5 40.5Q413 23 420.5 14Q428 5 437 2.5Q446 0 453 0Q483 0 498.5 25Q514 50 522 110H532Q524 50 507 20Q490 -10 453 -10ZM266 480Q216 480 178.5 458Q141 436 115.5 398Q90 360 77.5 309.5Q65 259 65 202Q65 109 105.5 54.5Q146 0 219 0Q261 0 294.5 17Q328 34 352.5 63Q377 92 392.5 132.5Q408 173 415 219Q417 236 418.5 253Q420 270 420 288Q420 376 379.5 428Q339 480 266 480Z" glyph-name="a" horiz-adv-x="561" unicode="a" /><glyph d="M453 -10Q442 -10 431 -6.5Q420 -3 411.5 8Q403 19 399.5 38.5Q396 58 400 90L407 142Q383 73 335.5 31.5Q288 -10 218 -10Q140 -10 97 46Q54 102 54 199Q54 259 67.5 312Q81 365 108 404.5Q135 444 175 467Q215 490 267 490Q336 490 379 446Q422 402 429 327L448 480H458L410 89Q406 58 409.5 40.5Q413 23 420.5 14Q428 5 437 2.5Q446 0 453 0Q483 0 498.5 25Q514 50 522 110H532Q524 50 507 20Q490 -10 453 -10ZM266 480Q216 480 178.5 458Q141 436 115.5 398Q90 360 77.5 309.5Q65 259 65 202Q65 109 105.5 54.5Q146 0 219 0Q261 0 294.5 17Q328 34 352.5 63Q377 92 392.5 132.5Q408 173 415 219Q417 236 418.5 253Q420 270 420 288Q420 376 379.5 428Q339 480 266 480ZM266 601 352 695Q372 717 383.5 731Q395 745 402 745Q409 745 409 738Q408 733 393.5 721Q379 709 359 687L278 601Z" glyph-name="aacute" horiz-adv-x="561" unicode="&#225;" /><glyph d="M453 -10Q442 -10 431 -6.5Q420 -3 411.5 8Q403 19 399.5 38.5Q396 58 400 90L407 142Q383 73 335.5 31.5Q288 -10 218 -10Q140 -10 97 46Q54 102 54 199Q54 259 67.5 312Q81 365 108 404.5Q135 444 175 467Q215 490 267 490Q336 490 379 446Q422 402 429 327L448 480H458L410 89Q406 58 409.5 40.5Q413 23 420.5 14Q428 5 437 2.5Q446 0 453 0Q483 0 498.5 25Q514 50 522 110H532Q524 50 507 20Q490 -10 453 -10ZM266 480Q216 480 178.5 458Q141 436 115.5 398Q90 360 77.5 309.5Q65 259 65 202Q65 109 105.5 54.5Q146 0 219 0Q261 0 294.5 17Q328 34 352.5 63Q377 92 392.5 132.5Q408 173 415 219Q417 236 418.5 253Q420 270 420 288Q420 376 379.5 428Q339 480 266 480ZM170 602 304 744H314L410 602H398L309 734L184 602Z" glyph-name="acircumflex" horiz-adv-x="561" unicode="&#226;" /><glyph d="M118 601 204 695Q224 717 235.5 731Q247 745 254 745Q261 745 261 738Q260 733 245.5 721Q231 709 211 687L130 601Z" glyph-name="acute" horiz-adv-x="366" unicode="&#180;" /><glyph d="M123 740H111L207 834Q229 856 241.5 870Q254 884 262 884Q269 884 269 877Q269 872 253 860Q237 848 214 826Z" glyph-name="acute.cap" horiz-adv-x="348" /><glyph d="M105 602 172 708Q186 730 192.5 744Q199 758 207 758Q215 758 215 751Q215 745 206 733.5Q197 722 182 700L117 602Z" glyph-name="acute.pl" horiz-adv-x="302" /><glyph d="M105 740 172 846Q186 868 192.5 882Q199 896 207 896Q217 896 215 889Q214 882 205.5 871Q197 860 182 838L117 740Z" glyph-name="acute.uc.pl" horiz-adv-x="302" /><glyph d="M453 -10Q442 -10 431 -6.5Q420 -3 411.5 8Q403 19 399.5 38.5Q396 58 400 90L407 142Q383 73 335.5 31.5Q288 -10 218 -10Q140 -10 97 46Q54 102 54 199Q54 259 67.5 312Q81 365 108 404.5Q135 444 175 467Q215 490 267 490Q336 490 379 446Q422 402 429 327L448 480H458L410 89Q406 58 409.5 40.5Q413 23 420.5 14Q428 5 437 2.5Q446 0 453 0Q483 0 498.5 25Q514 50 522 110H532Q524 50 507 20Q490 -10 453 -10ZM266 480Q216 480 178.5 458Q141 436 115.5 398Q90 360 77.5 309.5Q65 259 65 202Q65 109 105.5 54.5Q146 0 219 0Q261 0 294.5 17Q328 34 352.5 63Q377 92 392.5 132.5Q408 173 415 219Q417 236 418.5 253Q420 270 420 288Q420 376 379.5 428Q339 480 266 480ZM369 641Q369 635 363.5 629.5Q358 624 350 624Q344 624 339.5 627.5Q335 631 335 639Q335 647 340.5 652Q346 657 354 657Q369 657 369 641ZM239 641Q239 635 233.5 629.5Q228 624 220 624Q214 624 209.5 627.5Q205 631 205 639Q205 647 210.5 652Q216 657 224 657Q239 657 239 641Z" glyph-name="adieresis" horiz-adv-x="561" unicode="&#228;" /><glyph d="M574 -10Q506 -10 465.5 33.5Q425 77 415 159Q388 77 338.5 33.5Q289 -10 218 -10Q140 -10 97 46Q54 102 54 199Q54 259 67.5 312Q81 365 108 404.5Q135 444 175 467Q215 490 267 490Q336 490 378.5 446.5Q421 403 429 330L448 480H458L439 331Q465 406 516 448Q567 490 643 490Q683 490 709.5 479Q736 468 752 451Q768 434 775 414Q782 394 782 376Q782 328 759.5 300Q737 272 692.5 258Q648 244 582 240Q516 236 429 234Q426 210 426 183Q426 100 465 50Q504 0 575 0Q645 0 683.5 35Q722 70 744 127L754 124Q730 63 689 26.5Q648 -10 574 -10ZM219 0Q261 0 295 17Q329 34 354 63Q379 92 395 132.5Q411 173 418 219Q420 236 421.5 253Q423 270 423 288Q423 376 381 428Q339 480 266 480Q216 480 178.5 458Q141 436 115.5 398Q90 360 77.5 309.5Q65 259 65 202Q65 109 105.5 54.5Q146 0 219 0ZM642 480Q595 480 558.5 462Q522 444 495.5 412.5Q469 381 452.5 337.5Q436 294 430 244Q512 245 575.5 248.5Q639 252 682.5 265Q726 278 748.5 304Q771 330 771 376Q771 391 765 409Q759 427 744.5 443Q730 459 705 469.5Q680 480 642 480Z" glyph-name="ae" horiz-adv-x="821" unicode="&#230;" /><glyph d="M453 -10Q442 -10 431 -6.5Q420 -3 411.5 8Q403 19 399.5 38.5Q396 58 400 90L407 142Q383 73 335.5 31.5Q288 -10 218 -10Q140 -10 97 46Q54 102 54 199Q54 259 67.5 312Q81 365 108 404.5Q135 444 175 467Q215 490 267 490Q336 490 379 446Q422 402 429 327L448 480H458L410 89Q406 58 409.5 40.5Q413 23 420.5 14Q428 5 437 2.5Q446 0 453 0Q483 0 498.5 25Q514 50 522 110H532Q524 50 507 20Q490 -10 453 -10ZM266 480Q216 480 178.5 458Q141 436 115.5 398Q90 360 77.5 309.5Q65 259 65 202Q65 109 105.5 54.5Q146 0 219 0Q261 0 294.5 17Q328 34 352.5 63Q377 92 392.5 132.5Q408 173 415 219Q417 236 418.5 253Q420 270 420 288Q420 376 379.5 428Q339 480 266 480ZM222 687Q207 710 195.5 721.5Q184 733 185 738Q185 745 194 745Q201 745 208.5 731Q216 717 231 695L293 601H281Z" glyph-name="agrave" horiz-adv-x="561" unicode="&#224;" /><glyph d="M532 -10Q496 -10 468.5 8.5Q441 27 409 65Q365 27 314.5 8.5Q264 -10 210 -10Q125 -10 84 27.5Q43 65 43 129Q43 164 56 193Q69 222 92 247.5Q115 273 146.5 295.5Q178 318 215 340Q193 372 178 397.5Q163 423 153 445.5Q143 468 138.5 489Q134 510 134 533Q134 570 146.5 601Q159 632 181 654Q203 676 234 688Q265 700 302 700Q371 700 402 665Q433 630 433 576Q433 539 420 508.5Q407 478 381 450.5Q355 423 317 396Q279 369 228 339Q241 319 256 298Q271 277 289 252Q330 195 359 152Q388 109 411 79Q462 125 499 193Q536 261 559 346H466L468 356H668L666 346H569Q545 253 506 185Q467 117 417 72Q446 34 472 17Q498 0 533 0Q589 0 614.5 42.5Q640 85 649 155H659Q655 120 647 90Q639 60 624 37.5Q609 15 587 2.5Q565 -10 532 -10ZM145 535Q145 512 149.5 491Q154 470 163.5 447.5Q173 425 188 400Q203 375 223 345Q273 376 310.5 402.5Q348 429 373 455.5Q398 482 410 511Q422 540 422 575Q422 598 415.5 619Q409 640 394.5 655.5Q380 671 357 680.5Q334 690 301 690Q268 690 239.5 678.5Q211 667 190 647Q169 627 157 598.5Q145 570 145 535ZM210 0Q266 0 314 19Q362 38 404 73Q379 105 349.5 148.5Q320 192 278 250Q243 299 219 334Q185 313 154.5 290Q124 267 101.5 242Q79 217 66 189Q53 161 53 129Q53 70 91 35Q129 0 210 0Z" glyph-name="ampersand" horiz-adv-x="715" unicode="&amp;" /><glyph d="M559 -10Q520 -10 493.5 4.5Q467 19 438 60Q397 27 345 8.5Q293 -10 227 -10Q188 -10 155.5 -2Q123 6 99.5 23.5Q76 41 63 67.5Q50 94 50 131Q50 164 60 192Q70 220 89.5 248Q109 276 138 306Q167 336 204 373L248 417L114 680L115 690H522L521 680L260 417L336 269Q371 200 395.5 153Q420 106 440 75Q497 126 528 201.5Q559 277 570 366H470L471 376H671L670 366H581Q570 274 537 196.5Q504 119 446 67Q472 29 497 14.5Q522 0 560 0Q623 0 652.5 43Q682 86 690 153H700Q691 80 659.5 35Q628 -10 559 -10ZM508 680H126L256 426ZM227 0Q292 0 343 18Q394 36 433 68Q412 100 386.5 147.5Q361 195 326 264L252 409L213 369Q177 332 148.5 302.5Q120 273 100.5 246Q81 219 71 191.5Q61 164 61 131Q61 94 75 68.5Q89 43 112 28Q135 13 165 6.5Q195 0 227 0Z" glyph-name="ampersand.alt" horiz-adv-x="746" /><glyph d="M500 -8Q465 -8 440 2.5Q415 13 389 45Q354 19 308.5 5.5Q263 -8 204 -8Q134 -8 89 20.5Q44 49 44 107Q44 134 52.5 156Q61 178 78.5 200Q96 222 121.5 246Q147 270 180 301L215 332L94 540L95 550H459L458 540L227 331L296 214Q328 159 350.5 121.5Q373 84 392 60Q443 100 470 159.5Q497 219 505 290H416L418 300H596L595 290H516Q507 216 478.5 154.5Q450 93 398 52Q422 23 445 12.5Q468 2 501 2Q558 2 583 35Q608 68 615 122H624Q617 63 589.5 27.5Q562 -8 500 -8ZM446 540H105L223 339ZM204 2Q261 2 304.5 14.5Q348 27 383 53Q364 77 342 115Q320 153 288 207L220 324L188 295Q154 264 128.5 240.5Q103 217 86.5 196Q70 175 62 154Q54 133 54 106Q54 78 67 58Q80 38 101 25.5Q122 13 149 7.5Q176 2 204 2Z" glyph-name="ampersand.alt.sc" horiz-adv-x="674" /><glyph d="M325 -10Q254 -10 203 8Q152 26 119 56.5Q86 87 70.5 128.5Q55 170 55 218Q55 264 69 312Q83 360 111 399.5Q139 439 180.5 464.5Q222 490 277 490Q324 490 357.5 476.5Q391 463 413 439.5Q435 416 445 384Q455 352 455 315Q455 303 454 290.5Q453 278 451 265H654Q660 298 660 333Q660 363 655 391.5Q650 420 638.5 443Q627 466 609.5 482Q592 498 568 503Q567 490 560.5 485Q554 480 546 480Q530 480 530 495Q530 503 535.5 509Q541 515 552 515Q602 515 636 469Q670 423 670 338Q670 300 664 265H762L760 255H662Q650 197 622 148.5Q594 100 551 64.5Q508 29 451 9.5Q394 -10 325 -10ZM441 265Q443 278 444 290Q445 302 445 313Q445 349 435.5 379.5Q426 410 405.5 432.5Q385 455 353 467.5Q321 480 275 480Q230 480 194.5 461Q159 442 133 411.5Q107 381 91 342.5Q75 304 69 265ZM326 0Q390 0 444.5 18.5Q499 37 541 70.5Q583 104 611.5 151Q640 198 652 255H67Q66 246 65.5 236.5Q65 227 65 218Q65 172 80.5 132Q96 92 128 63Q160 34 209.5 17Q259 0 326 0Z" glyph-name="ampersand.old" horiz-adv-x="787" /><glyph d="M476 -8Q444 -8 419 6.5Q394 21 365 50Q327 21 281.5 6.5Q236 -8 188 -8Q112 -8 75 22.5Q38 53 37 104Q37 132 48 155Q59 178 79.5 198Q100 218 127.5 235.5Q155 253 188 271Q148 322 131 355Q114 388 113 424Q112 484 153.5 521Q195 558 262 558Q323 558 351.5 529.5Q380 501 381 458Q381 429 370 404.5Q359 380 336 358Q313 336 279 315Q245 294 200 270Q211 254 224.5 236.5Q238 219 255 199Q292 154 318.5 120.5Q345 87 366 64Q411 100 443.5 154Q476 208 495 275H412L414 285H593L591 275H505Q485 202 451 147.5Q417 93 373 58Q399 28 422 15Q445 2 477 2Q527 2 549 35Q571 68 578 124H587Q584 96 577 72Q570 48 557.5 30Q545 12 525 2Q505 -8 476 -8ZM124 426Q125 391 141.5 358Q158 325 195 277Q240 301 273 321.5Q306 342 327.5 363Q349 384 359.5 407Q370 430 370 457Q369 494 344.5 521Q320 548 261 548Q231 548 206 539Q181 530 162.5 514Q144 498 134 475.5Q124 453 124 426ZM189 2Q238 2 281 16.5Q324 31 360 58Q337 83 310 117Q283 151 245 196Q229 216 216 232.5Q203 249 192 264Q162 248 135 230Q108 212 88.5 192.5Q69 173 58 151Q47 129 47 104Q48 57 82.5 29.5Q117 2 189 2Z" glyph-name="ampersand.sc" horiz-adv-x="647" /><glyph d="M509 -10Q474 -10 441 14Q408 38 377 77Q296 -10 192 -10Q107 -10 66 27.5Q25 65 25 129Q25 164 38 192.5Q51 221 73.5 246.5Q96 272 127.5 295Q159 318 196 341Q153 404 134.5 447.5Q116 491 116 537Q116 612 160 656Q204 700 274 700Q343 700 374 665Q405 630 405 576Q405 539 393 508Q381 477 356.5 449Q332 421 295.5 394.5Q259 368 211 339Q210 339 210 338Q227 309 249 275Q271 241 294 207.5Q317 174 339 143.5Q361 113 379 91Q419 137 449.5 202Q480 267 501 346H408L410 356H610L608 346H511Q488 260 456 194.5Q424 129 384 84Q413 47 444 23.5Q475 0 510 0Q533 0 548 11Q563 22 571.5 42.5Q580 63 584.5 91.5Q589 120 591 155H601Q599 120 594.5 90Q590 60 580.5 37.5Q571 15 553.5 2.5Q536 -10 509 -10ZM127 539Q127 493 145.5 449.5Q164 406 205 346L207 347Q254 376 289.5 402Q325 428 348 454.5Q371 481 382.5 510.5Q394 540 394 575Q394 598 387.5 619Q381 640 366.5 655.5Q352 671 329 680.5Q306 690 273 690Q242 690 215 679.5Q188 669 168.5 649Q149 629 138 601.5Q127 574 127 539ZM192 0Q246 0 290.5 21.5Q335 43 372 83Q354 106 331.5 137Q309 168 286 202Q263 236 241 270.5Q219 305 201 333Q166 312 135.5 289Q105 266 82.5 241.5Q60 217 47.5 189Q35 161 35 129Q35 70 73 35Q111 0 192 0Z" glyph-name="ampersand.tln" horiz-adv-x="640" /><glyph d="M570 255Q559 197 532.5 148.5Q506 100 465.5 65Q425 30 371.5 10Q318 -10 252 -10Q189 -10 143.5 8Q98 26 69 56.5Q40 87 26 128.5Q12 170 12 218Q12 264 26 312Q40 360 68 399.5Q96 439 137.5 464.5Q179 490 234 490Q269 490 295 477Q321 464 338 441.5Q355 419 363.5 387.5Q372 356 372 320Q372 292 366 265H562Q564 282 565.5 298.5Q567 315 567 333Q567 365 561 394Q555 423 543.5 446Q532 469 515 484Q498 499 475 502Q469 480 452 480Q437 480 437 495Q437 503 443 509Q449 515 459 515Q509 515 543 468Q577 421 577 333Q577 316 575.5 299Q574 282 572 265H649L647 255ZM362 320Q362 354 354.5 383.5Q347 413 331 434.5Q315 456 290.5 468Q266 480 232 480Q187 480 151.5 461Q116 442 90 411.5Q64 381 48 342.5Q32 304 26 265H356Q362 294 362 320ZM253 0Q313 0 364.5 18.5Q416 37 455.5 70.5Q495 104 522 151Q549 198 560 255H24Q23 246 22.5 236.5Q22 227 22 218Q22 172 35.5 132Q49 92 77.5 63Q106 34 149.5 17Q193 0 253 0Z" glyph-name="ampersand.ton" horiz-adv-x="640" /><glyph d="M453 -10Q442 -10 431 -6.5Q420 -3 411.5 8Q403 19 399.5 38.5Q396 58 400 90L407 142Q383 73 335.5 31.5Q288 -10 218 -10Q140 -10 97 46Q54 102 54 199Q54 259 67.5 312Q81 365 108 404.5Q135 444 175 467Q215 490 267 490Q336 490 379 446Q422 402 429 327L448 480H458L410 89Q406 58 409.5 40.5Q413 23 420.5 14Q428 5 437 2.5Q446 0 453 0Q483 0 498.5 25Q514 50 522 110H532Q524 50 507 20Q490 -10 453 -10ZM266 480Q216 480 178.5 458Q141 436 115.5 398Q90 360 77.5 309.5Q65 259 65 202Q65 109 105.5 54.5Q146 0 219 0Q261 0 294.5 17Q328 34 352.5 63Q377 92 392.5 132.5Q408 173 415 219Q417 236 418.5 253Q420 270 420 288Q420 376 379.5 428Q339 480 266 480ZM303 596Q267 596 247 617Q227 638 227 673Q227 709 253 736Q279 763 322 763Q357 763 377.5 742.5Q398 722 398 687Q398 650 372 623Q346 596 303 596ZM304 605Q339 605 363.5 628.5Q388 652 388 687Q388 719 370 736.5Q352 754 321 754Q286 754 261.5 731Q237 708 237 673Q237 641 255 623Q273 605 304 605Z" glyph-name="aring" horiz-adv-x="561" unicode="&#229;" /><glyph d="M258 679 85 384H74L254 690H264L367 384H358Z" glyph-name="asciicircum" horiz-adv-x="401" unicode="^" /><glyph d="M377 679 204 384H193L373 690H383L486 384H477Z" glyph-name="asciicircum.tln" horiz-adv-x="640" /><glyph d="M488 359Q484 319 473 293.5Q462 268 447 254Q432 240 414 234.5Q396 229 377 229Q339 229 317 249Q295 269 277 293Q259 317 239.5 337Q220 357 187 357Q145 357 120.5 328Q96 299 88 237H78Q86 307 114.5 337Q143 367 188 367Q224 367 245 347Q266 327 283.5 303Q301 279 321.5 259Q342 239 377 239Q394 239 410 243Q426 247 439.5 259.5Q453 272 463.5 296Q474 320 478 359Z" glyph-name="asciitilde" horiz-adv-x="549" unicode="~" /><glyph d="M533 359Q529 319 518 293.5Q507 268 492 254Q477 240 459 234.5Q441 229 422 229Q384 229 362 249Q340 269 322 293Q304 317 284.5 337Q265 357 232 357Q190 357 165.5 328Q141 299 133 237H123Q131 307 159.5 337Q188 367 233 367Q269 367 290 347Q311 327 328.5 303Q346 279 366.5 259Q387 239 422 239Q439 239 455 243Q471 247 484.5 259.5Q498 272 508.5 296Q519 320 523 359Z" glyph-name="asciitilde.tln" horiz-adv-x="640" /><glyph d="M229 578H219L222 681Q222 700 239 700Q255 700 252 681ZM234 569 230 577 319 642Q326 647 333 646.5Q340 646 343 640Q351 626 332 617ZM218 577 212 569 126 617Q120 620 118 626.5Q116 633 121 640Q126 646 133 646.5Q140 647 145 642ZM320 520Q326 516 328 510Q330 504 325 497Q320 491 313 490.5Q306 490 301 495L228 560L234 568ZM127 496Q120 491 113 491Q106 491 103 497Q99 504 102.5 510Q106 516 114 520L212 568L216 560ZM207 437Q199 437 195.5 442.5Q192 448 194 456L217 559H227L224 456Q224 437 207 437Z" glyph-name="asterisk" horiz-adv-x="378" unicode="*" /><glyph d="M200 459H191L192 540Q192 558 208 558Q223 558 220 540ZM190 458 185 452 107 488Q102 490 100 496.5Q98 503 103 509Q107 514 113.5 515Q120 516 125 510ZM205 452 201 458 279 510Q286 516 292.5 515Q299 514 302 509Q309 495 291 488ZM282 414Q288 411 290 405Q292 399 287 393Q283 388 276 387.5Q269 387 265 392L199 444L205 451ZM110 393Q104 388 97.5 388Q91 388 88 393Q84 399 87.5 405Q91 411 98 415L185 451L188 444ZM182 344Q175 344 171.5 349Q168 354 170 362L189 443H198L197 362Q198 354 193.5 349Q189 344 182 344Z" glyph-name="asterisk.sc" horiz-adv-x="349" /><glyph d="M360 578H350L353 681Q353 700 370 700Q386 700 383 681ZM365 569 361 577 450 642Q457 647 464 646.5Q471 646 474 640Q482 626 463 617ZM349 577 343 569 257 617Q251 620 249 626.5Q247 633 252 640Q257 646 264 646.5Q271 647 276 642ZM451 520Q457 516 459 510Q461 504 456 497Q451 491 444 490.5Q437 490 432 495L359 560L365 568ZM258 496Q251 491 244 491Q237 491 234 497Q230 504 233.5 510Q237 516 245 520L343 568L347 560ZM338 437Q330 437 326.5 442.5Q323 448 325 456L348 559H358L355 456Q355 437 338 437Z" glyph-name="asterisk.tln" horiz-adv-x="640" /><glyph d="M637 -141Q525 -213 361 -213Q213 -213 128.5 -137Q44 -61 44 99Q44 202 76 299Q108 396 169.5 471Q231 546 319.5 591.5Q408 637 520 637Q605 637 661.5 614Q718 591 751.5 552.5Q785 514 799 462.5Q813 411 813 354Q813 279 800 212.5Q787 146 762 96.5Q737 47 700 18.5Q663 -10 616 -10Q574 -10 551 15Q528 40 528 89Q528 107 531 128Q519 103 503 78Q487 53 465 33.5Q443 14 415.5 2Q388 -10 353 -10Q296 -10 265.5 28Q235 66 235 134Q235 185 249.5 238.5Q264 292 292.5 335Q321 378 363.5 405.5Q406 433 461 433Q517 433 545.5 396.5Q574 360 569 293L603 433H613L549 171Q543 148 540.5 128Q538 108 538 91Q538 0 617 0Q662 0 697 28.5Q732 57 755.5 106Q779 155 791 219Q803 283 803 353Q803 409 789.5 458.5Q776 508 743.5 545.5Q711 583 656.5 605Q602 627 519 627Q410 627 323.5 582Q237 537 177.5 463.5Q118 390 86.5 295.5Q55 201 55 102Q55 -54 136 -128.5Q217 -203 362 -203Q441 -203 508 -186Q575 -169 632 -133ZM245 137Q245 109 251 84Q257 59 270 40.5Q283 22 303.5 11Q324 0 354 0Q392 0 423.5 17Q455 34 479.5 62.5Q504 91 521 128Q538 165 547 205Q555 236 558 261.5Q561 287 561 309Q561 363 535 393Q509 423 460 423Q407 423 366.5 396.5Q326 370 299 328Q272 286 258.5 235.5Q245 185 245 137Z" glyph-name="at" horiz-adv-x="867" unicode="@" /><glyph d="M653 -11Q541 -83 377 -83Q229 -83 144.5 -7Q60 69 60 229Q60 332 92 429Q124 526 185.5 601Q247 676 335.5 721.5Q424 767 536 767Q621 767 677.5 744Q734 721 767.5 682.5Q801 644 815 592.5Q829 541 829 484Q829 409 816 342.5Q803 276 778 226.5Q753 177 716 148.5Q679 120 632 120Q590 120 567 145Q544 170 544 219Q544 237 547 258Q535 233 519 208Q503 183 481 163.5Q459 144 431.5 132Q404 120 369 120Q312 120 281.5 158Q251 196 251 264Q251 315 265.5 368.5Q280 422 308.5 465Q337 508 379.5 535.5Q422 563 477 563Q533 563 561.5 526.5Q590 490 585 423L619 563H629L565 301Q559 278 556.5 258Q554 238 554 221Q554 130 633 130Q678 130 713 158.5Q748 187 771.5 236Q795 285 807 349Q819 413 819 483Q819 539 805.5 588.5Q792 638 759.5 675.5Q727 713 672.5 735Q618 757 535 757Q426 757 339.5 712Q253 667 193.5 593.5Q134 520 102.5 425.5Q71 331 71 232Q71 76 152 1.5Q233 -73 378 -73Q457 -73 524 -56Q591 -39 648 -3ZM261 267Q261 239 267 214Q273 189 286 170.5Q299 152 319.5 141Q340 130 370 130Q408 130 439.5 147Q471 164 495.5 192.5Q520 221 537 258Q554 295 563 335Q571 366 574 391.5Q577 417 577 439Q577 493 551 523Q525 553 476 553Q423 553 382.5 526.5Q342 500 315 458Q288 416 274.5 365.5Q261 315 261 267Z" glyph-name="at.cap" horiz-adv-x="850" /><glyph d="M297 -8Q182 -8 119 43.5Q56 95 56 206Q56 280 79.5 344Q103 408 146.5 455.5Q190 503 251 530.5Q312 558 387 558Q456 558 502 542Q548 526 576.5 498.5Q605 471 617 435.5Q629 400 629 361Q629 321 620 279.5Q611 238 592.5 204Q574 170 546 148Q518 126 480 126Q442 126 424.5 148.5Q407 171 414 216Q405 200 393.5 184Q382 168 366 155Q350 142 329.5 134Q309 126 283 126Q226 126 204 167Q182 208 199 277Q207 307 221 333.5Q235 360 255.5 379.5Q276 399 302 410Q328 421 359 421Q397 421 422.5 400.5Q448 380 443 329L466 421H475L430 246Q401 136 481 136Q512 136 537.5 154Q563 172 581 203Q599 234 609 274.5Q619 315 619 361Q619 399 607.5 433Q596 467 569 492.5Q542 518 497 533Q452 548 386 548Q314 548 255 521.5Q196 495 154 449Q112 403 89.5 340.5Q67 278 67 207Q67 100 127.5 51Q188 2 298 2Q357 2 406.5 13Q456 24 498 49L502 41Q471 22 420 7Q369 -8 297 -8ZM284 136Q313 136 336 147Q359 158 376.5 176.5Q394 195 406.5 219Q419 243 425 269Q444 345 426 378Q408 411 358 411Q327 411 302.5 400Q278 389 259.5 370.5Q241 352 228.5 327.5Q216 303 209 277Q203 251 202.5 226Q202 201 210.5 181Q219 161 236.5 148.5Q254 136 284 136Z" glyph-name="at.sc" horiz-adv-x="669" /><glyph d="M485 -131Q443 -171 384 -187Q325 -203 259 -203Q134 -203 63 -127Q-8 -51 -8 109Q-8 210 19 305.5Q46 401 97 474.5Q148 548 221.5 592.5Q295 637 388 637Q461 637 509.5 614Q558 591 587.5 552.5Q617 514 629 462.5Q641 411 641 354Q641 279 629 212.5Q617 146 594.5 96.5Q572 47 539 18.5Q506 -10 464 -10Q432 -10 414 15Q396 40 396 89Q396 107 399 128Q389 103 375 78.5Q361 54 341.5 34.5Q322 15 297 2.5Q272 -10 241 -10Q193 -10 168 28Q143 66 143 134Q143 187 156 240.5Q169 294 194.5 337Q220 380 258 406.5Q296 433 345 433Q393 433 417.5 396.5Q442 360 437 293L471 433H481L417 171Q411 148 408.5 128Q406 108 406 91Q406 0 465 0Q506 0 537 28.5Q568 57 589 106Q610 155 620.5 219Q631 283 631 353Q631 409 619.5 458.5Q608 508 580 545.5Q552 583 505 605Q458 627 387 627Q297 627 225.5 583Q154 539 104.5 467Q55 395 29 302.5Q3 210 3 112Q3 -44 71 -118.5Q139 -193 260 -193Q324 -193 381 -177.5Q438 -162 480 -123ZM153 137Q153 109 158 84Q163 59 173.5 40.5Q184 22 201 11Q218 0 242 0Q276 0 304 17Q332 34 353.5 62.5Q375 91 390.5 128Q406 165 415 205Q423 236 426 261.5Q429 287 429 309Q429 363 407.5 393Q386 423 344 423Q297 423 261.5 396.5Q226 370 202 328Q178 286 165.5 235.5Q153 185 153 137Z" glyph-name="at.tln" horiz-adv-x="640" /><glyph d="M453 -10Q442 -10 431 -6.5Q420 -3 411.5 8Q403 19 399.5 38.5Q396 58 400 90L407 142Q383 73 335.5 31.5Q288 -10 218 -10Q140 -10 97 46Q54 102 54 199Q54 259 67.5 312Q81 365 108 404.5Q135 444 175 467Q215 490 267 490Q336 490 379 446Q422 402 429 327L448 480H458L410 89Q406 58 409.5 40.5Q413 23 420.5 14Q428 5 437 2.5Q446 0 453 0Q483 0 498.5 25Q514 50 522 110H532Q524 50 507 20Q490 -10 453 -10ZM266 480Q216 480 178.5 458Q141 436 115.5 398Q90 360 77.5 309.5Q65 259 65 202Q65 109 105.5 54.5Q146 0 219 0Q261 0 294.5 17Q328 34 352.5 63Q377 92 392.5 132.5Q408 173 415 219Q417 236 418.5 253Q420 270 420 288Q420 376 379.5 428Q339 480 266 480ZM356 629Q332 629 318 641.5Q304 654 293 669.5Q282 685 269 697.5Q256 710 234 710Q207 710 190 689Q173 668 168 633H158Q163 668 181.5 694Q200 720 235 720Q259 720 273.5 707.5Q288 695 299.5 679.5Q311 664 323.5 651.5Q336 639 357 639Q375 639 387 646.5Q399 654 406 665Q413 676 417 689.5Q421 703 422 716H432Q427 671 406 650Q385 629 356 629Z" glyph-name="atilde" horiz-adv-x="561" unicode="&#227;" /><glyph d="M260 0Q311 0 349 23Q387 46 411.5 85.5Q436 125 448.5 177.5Q461 230 461 288Q461 376 419.5 428Q378 480 307 480Q264 480 230 463Q196 446 171.5 416.5Q147 387 131.5 346.5Q116 306 110 259Q108 242 107 225.5Q106 209 106 192Q106 104 147.5 52Q189 0 260 0ZM259 -10Q191 -10 148 33.5Q105 77 97 153L77 -10H67L159 740H64L65 750Q96 750 114 750.5Q132 751 142 752Q152 753 156.5 755Q161 757 164 760L171 757L143 526L121 348Q145 412 191.5 451Q238 490 308 490Q383 490 427.5 436.5Q472 383 472 291Q472 228 459 173.5Q446 119 419.5 78Q393 37 353 13.5Q313 -10 259 -10Z" glyph-name="b" horiz-adv-x="525" unicode="b" /><glyph d="M421 -100 87 760H97L431 -100Z" glyph-name="backslash" horiz-adv-x="494" unicode="\" /><glyph d="M423 -70 89 790H99L433 -70Z" glyph-name="backslash.cap" horiz-adv-x="491" /><glyph d="M385 -60 77 626H86L395 -60Z" glyph-name="backslash.sc" horiz-adv-x="452" /><glyph d="M494 -100 160 760H170L504 -100Z" glyph-name="backslash.tln" horiz-adv-x="640" /><glyph d="M41 -250 175 840H185L51 -250Z" glyph-name="bar" horiz-adv-x="212" unicode="|" /><glyph d="M67 -200 201 890H211L77 -200Z" glyph-name="bar.cap" horiz-adv-x="252" /><glyph d="M255 -250 389 840H399L265 -250Z" glyph-name="bar.tln" horiz-adv-x="640" /><glyph d="M262 -260Q212 -260 180 -248Q148 -236 129 -215.5Q110 -195 103 -167Q96 -139 96 -107Q96 -77 100.5 -44.5Q105 -12 110 20.5Q115 53 119.5 84.5Q124 116 124 144Q124 169 119 190Q114 211 101.5 226Q89 241 68 249.5Q47 258 14 258L15 268Q52 268 77 278Q102 288 118 306Q134 324 143 348Q152 372 157 400Q165 448 167.5 503Q170 558 182 608Q189 640 202.5 667.5Q216 695 240 715.5Q264 736 300 748Q336 760 388 760L386 750Q338 750 304.5 739Q271 728 248.5 708.5Q226 689 212.5 662.5Q199 636 191 604Q180 558 177.5 504Q175 450 167 401Q163 373 154.5 349Q146 325 131 306.5Q116 288 93 276.5Q70 265 36 263Q94 259 114 226Q134 193 134 145Q134 118 129.5 86.5Q125 55 120 22.5Q115 -10 110.5 -43Q106 -76 106 -107Q106 -137 113 -163Q120 -189 137.5 -208.5Q155 -228 185.5 -239Q216 -250 264 -250Z" glyph-name="braceleft" horiz-adv-x="342" unicode="{" /><glyph d="M294 -180Q244 -180 212 -168Q180 -156 161 -135.5Q142 -115 135 -87Q128 -59 128 -27Q128 3 132.5 35.5Q137 68 142 100.5Q147 133 151.5 164.5Q156 196 156 224Q156 249 151 270Q146 291 133.5 306Q121 321 100 329.5Q79 338 46 338L47 348Q84 348 109 358Q134 368 150 386Q166 404 175 428Q184 452 189 480Q197 528 199.5 583Q202 638 214 688Q221 720 234.5 747.5Q248 775 272 795.5Q296 816 332 828Q368 840 420 840L418 830Q370 830 336.5 819Q303 808 280.5 788.5Q258 769 244.5 742.5Q231 716 223 684Q212 638 209.5 584Q207 530 199 481Q195 453 186.5 429Q178 405 163 386.5Q148 368 125 356.5Q102 345 68 343Q126 339 146 306Q166 273 166 225Q166 198 161.5 166.5Q157 135 152 102.5Q147 70 142.5 37Q138 4 138 -27Q138 -57 145 -83Q152 -109 169.5 -128.5Q187 -148 217.5 -159Q248 -170 296 -170Z" glyph-name="braceleft.cap" horiz-adv-x="367" /><glyph d="M265 -137Q220 -137 191.5 -127.5Q163 -118 146 -101Q129 -84 122 -61Q115 -38 115 -12Q115 11 118.5 36.5Q122 62 126 87Q130 112 133.5 136.5Q137 161 137 183Q136 223 116 249Q96 275 38 275L39 285Q72 285 94 293Q116 301 130 315Q144 329 152 348Q160 367 164 389Q170 427 171.5 470Q173 513 183 553Q189 579 201 601.5Q213 624 234 640.5Q255 657 287 666.5Q319 676 366 676L364 666Q321 666 291.5 657.5Q262 649 242 634Q222 619 210.5 597.5Q199 576 192 549Q183 514 181.5 471.5Q180 429 174 391Q167 347 143.5 315.5Q120 284 64 280Q111 275 128.5 248Q146 221 147 182Q147 161 143.5 136.5Q140 112 136 87Q132 62 128.5 37Q125 12 125 -12Q125 -36 131.5 -57Q138 -78 154 -93.5Q170 -109 197.5 -118Q225 -127 267 -127Z" glyph-name="braceleft.sc" horiz-adv-x="340" /><glyph d="M411 -260Q361 -260 329 -248Q297 -236 278 -215.5Q259 -195 252 -167Q245 -139 245 -107Q245 -77 249.5 -44.5Q254 -12 259 20.5Q264 53 268.5 84.5Q273 116 273 144Q273 169 268 190Q263 211 250.5 226Q238 241 217 249.5Q196 258 163 258L164 268Q201 268 226 278Q251 288 267 306Q283 324 292 348Q301 372 306 400Q314 448 316.5 503Q319 558 331 608Q338 640 351.5 667.5Q365 695 389 715.5Q413 736 449 748Q485 760 537 760L535 750Q487 750 453.5 739Q420 728 397.5 708.5Q375 689 361.5 662.5Q348 636 340 604Q329 558 326.5 504Q324 450 316 401Q312 373 303.5 349Q295 325 280 306.5Q265 288 242 276.5Q219 265 185 263Q243 259 263 226Q283 193 283 145Q283 118 278.5 86.5Q274 55 269 22.5Q264 -10 259.5 -43Q255 -76 255 -107Q255 -137 262 -163Q269 -189 286.5 -208.5Q304 -228 334.5 -239Q365 -250 413 -250Z" glyph-name="braceleft.tln" horiz-adv-x="640" /><glyph d="M84 760Q134 760 166 748Q198 736 217 715.5Q236 695 243 667Q250 639 250 607Q250 577 245.5 544.5Q241 512 236 479.5Q231 447 226.5 415.5Q222 384 222 356Q222 331 227 310Q232 289 244.5 274Q257 259 278 250.5Q299 242 332 242L331 232Q294 232 269 222Q244 212 228 194Q212 176 203 152Q194 128 189 100Q181 52 178.5 -3Q176 -58 164 -108Q157 -140 143.5 -167.5Q130 -195 106 -215.5Q82 -236 46 -248Q10 -260 -42 -260L-40 -250Q8 -250 41.5 -239Q75 -228 97.5 -208.5Q120 -189 133.5 -162.5Q147 -136 155 -104Q166 -58 168.5 -4Q171 50 179 99Q184 127 192 151Q200 175 215 193.5Q230 212 253 223.5Q276 235 310 237Q252 242 232 274.5Q212 307 212 355Q212 382 216.5 413.5Q221 445 226 477.5Q231 510 235.5 543Q240 576 240 607Q240 637 233 663Q226 689 208.5 708.5Q191 728 160.5 739Q130 750 82 750Z" glyph-name="braceright" horiz-adv-x="341" unicode="}" /><glyph d="M96 840Q146 840 178 828Q210 816 229 795.5Q248 775 255 747Q262 719 262 687Q262 657 257.5 624.5Q253 592 248 559.5Q243 527 238.5 495.5Q234 464 234 436Q234 411 239 390Q244 369 256.5 354Q269 339 290 330.5Q311 322 344 322L343 312Q306 312 281 302Q256 292 240 274Q224 256 215 232Q206 208 201 180Q193 132 190.5 77Q188 22 176 -28Q169 -60 155.5 -87.5Q142 -115 118 -135.5Q94 -156 58 -168Q22 -180 -30 -180L-28 -170Q20 -170 53.5 -159Q87 -148 109.5 -128.5Q132 -109 145.5 -82.5Q159 -56 167 -24Q178 22 180.5 76Q183 130 191 179Q196 207 204 231Q212 255 227 273.5Q242 292 265 303.5Q288 315 322 317Q264 322 244 354.5Q224 387 224 435Q224 462 228.5 493.5Q233 525 238 557.5Q243 590 247.5 623Q252 656 252 687Q252 717 245 743Q238 769 220.5 788.5Q203 808 172.5 819Q142 830 94 830Z" glyph-name="braceright.cap" horiz-adv-x="365" /><glyph d="M83 676Q128 676 156.5 666.5Q185 657 202 640Q219 623 226 600Q233 577 233 551Q233 528 229.5 502.5Q226 477 222 452Q218 427 214.5 402.5Q211 378 211 356Q212 316 232 290Q252 264 310 264L309 254Q276 254 254 246Q232 238 218 224Q204 210 196 191Q188 172 184 150Q178 112 176.5 69Q175 26 165 -14Q159 -40 147 -62.5Q135 -85 114 -101.5Q93 -118 61 -127.5Q29 -137 -18 -137L-16 -127Q27 -127 56.5 -118.5Q86 -110 106 -95Q126 -80 137.5 -58.5Q149 -37 156 -10Q165 25 166.5 67.5Q168 110 174 148Q182 192 205.5 223.5Q229 255 284 259Q237 264 219.5 291Q202 318 201 357Q201 378 204.5 402.5Q208 427 212 452Q216 477 219.5 502Q223 527 223 551Q223 575 216.5 596Q210 617 194 632.5Q178 648 150.5 657Q123 666 81 666Z" glyph-name="braceright.sc" horiz-adv-x="341" /><glyph d="M234 760Q284 760 316 748Q348 736 367 715.5Q386 695 393 667Q400 639 400 607Q400 577 395.5 544.5Q391 512 386 479.5Q381 447 376.5 415.5Q372 384 372 356Q372 331 377 310Q382 289 394.5 274Q407 259 428 250.5Q449 242 482 242L481 232Q444 232 419 222Q394 212 378 194Q362 176 353 152Q344 128 339 100Q331 52 328.5 -3Q326 -58 314 -108Q307 -140 293.5 -167.5Q280 -195 256 -215.5Q232 -236 196 -248Q160 -260 108 -260L110 -250Q158 -250 191.5 -239Q225 -228 247.5 -208.5Q270 -189 283.5 -162.5Q297 -136 305 -104Q316 -58 318.5 -4Q321 50 329 99Q334 127 342 151Q350 175 365 193.5Q380 212 403 223.5Q426 235 460 237Q402 242 382 274.5Q362 307 362 355Q362 382 366.5 413.5Q371 445 376 477.5Q381 510 385.5 543Q390 576 390 607Q390 637 383 663Q376 689 358.5 708.5Q341 728 310.5 739Q280 750 232 750Z" glyph-name="braceright.tln" horiz-adv-x="640" /><glyph d="M42 -250 164 750H314L313 740H173L53 -240H193L192 -250Z" glyph-name="bracketleft" horiz-adv-x="274" unicode="[" /><glyph d="M72 -170 194 830H344L343 820H203L83 -160H223L222 -170Z" glyph-name="bracketleft.cap" horiz-adv-x="300" /><glyph d="M75 -129 172 668H307L306 658H181L86 -119H211L210 -129Z" glyph-name="bracketleft.sc" horiz-adv-x="291" /><glyph d="M225 -250 347 750H497L496 740H356L236 -240H376L375 -250Z" glyph-name="bracketleft.tln" horiz-adv-x="640" /><glyph d="M-36 -240H104L224 740H84L85 750H235L113 -250H-37Z" glyph-name="bracketright" horiz-adv-x="273" unicode="]" /><glyph d="M-20 -160H120L240 820H100L101 830H251L129 -170H-21Z" glyph-name="bracketright.cap" horiz-adv-x="300" /><glyph d="M-6 -119H119L214 658H89L90 668H225L128 -129H-7Z" glyph-name="bracketright.sc" horiz-adv-x="292" /><glyph d="M147 -240H287L407 740H267L268 750H418L296 -250H146Z" glyph-name="bracketright.tln" horiz-adv-x="640" /><glyph d="M214 619Q259 619 281.5 647Q304 675 310 720H320Q314 673 289.5 641Q265 609 214 609Q186 609 167 619.5Q148 630 137.5 646Q127 662 124 681.5Q121 701 124 720H134Q129 677 149 648Q169 619 214 619Z" glyph-name="breve" horiz-adv-x="416" unicode="&#728;" /><glyph d="M194 762Q248 762 274 794Q300 826 313 872H323Q317 847 307 825Q297 803 282 787Q267 771 245.5 761.5Q224 752 193 752Q163 752 142 761.5Q121 771 108 787Q95 803 89 825Q83 847 83 872H93Q94 825 117 793.5Q140 762 194 762Z" glyph-name="breve.cap" horiz-adv-x="376" /><glyph d="M120 400 174 840H184L130 400ZM40 -250 94 190H104L50 -250Z" glyph-name="brokenbar" horiz-adv-x="209" unicode="&#166;" /><glyph d="M335 400 389 840H399L345 400ZM255 -250 309 190H319L265 -250Z" glyph-name="brokenbar.tln" horiz-adv-x="640" /><glyph d="M395 126Q367 52 316.5 21Q266 -10 212 -10Q137 -10 95 43.5Q53 97 53 189Q53 252 67 306.5Q81 361 108.5 402Q136 443 176.5 466.5Q217 490 271 490Q330 490 367.5 459.5Q405 429 405 379Q405 370 401.5 362Q398 354 387 354Q374 354 374 367Q374 383 395 383Q393 426 358.5 453Q324 480 270 480Q219 480 180.5 457Q142 434 116 394.5Q90 355 77 303Q64 251 64 192Q64 104 103 52Q142 0 211 0Q234 0 259 6Q284 12 307.5 27Q331 42 351 67Q371 92 385 130Z" glyph-name="c" horiz-adv-x="447" unicode="c" /><glyph d="M675 -10Q617 -10 587 29.5Q557 69 566 142L607 470H517L518 480H578Q595 480 602.5 485.5Q610 491 612 510L619 573Q625 624 619.5 658.5Q614 693 600.5 713Q587 733 566 741.5Q545 750 519 750Q475 750 445.5 728.5Q416 707 398.5 674Q381 641 373.5 601.5Q366 562 366 525Q366 509 367.5 495Q369 481 371 468Q402 451 400 431Q398 418 386 418Q377 418 371 430Q365 442 361 462Q349 469 328 474.5Q307 480 275 480Q224 480 184.5 457Q145 434 118.5 394.5Q92 355 78 303Q64 251 64 192Q64 104 103 52Q142 0 211 0Q234 0 257.5 6Q281 12 303.5 27Q326 42 346.5 67Q367 92 385 130L395 126Q362 51 314 20.5Q266 -10 212 -10Q137 -10 95 43.5Q53 97 53 189Q53 252 67.5 306.5Q82 361 110.5 402Q139 443 180.5 466.5Q222 490 276 490Q302 490 322.5 485.5Q343 481 359 474Q356 498 356 527Q356 568 364.5 609.5Q373 651 392.5 684.5Q412 718 443 739Q474 760 520 760Q549 760 572 750.5Q595 741 610 719Q625 697 630 661Q635 625 629 572L618 480H842L841 470H617L577 149Q569 77 596 38.5Q623 0 677 0Q732 0 765.5 34.5Q799 69 809 156H819Q808 67 773.5 28.5Q739 -10 675 -10Z" glyph-name="c_t" horiz-adv-x="852" /><glyph d="M694 -10Q638 -10 607 29.5Q576 69 585 142L626 470H536L537 480H627Q633 529 633 577Q633 625 621 663.5Q609 702 583 726Q557 750 511 750Q470 750 442 728.5Q414 707 397 674Q380 641 373 601.5Q366 562 366 525Q366 509 367.5 495Q369 481 371 468Q402 451 400 431Q398 418 386 418Q367 418 361 462Q349 469 328 474.5Q307 480 275 480Q224 480 184.5 457Q145 434 118.5 394.5Q92 355 78 303Q64 251 64 192Q64 104 103 52Q142 0 211 0Q234 0 257.5 6Q281 12 303.5 27Q326 42 346.5 67Q367 92 385 130L395 126Q362 51 314 20.5Q266 -10 212 -10Q137 -10 95 43.5Q53 97 53 189Q53 252 67.5 306.5Q82 361 110.5 402Q139 443 180.5 466.5Q222 490 276 490Q302 490 322.5 485.5Q343 481 359 474Q356 498 356 527Q356 568 364.5 609.5Q373 651 391 684.5Q409 718 438 739Q467 760 509 760Q555 760 582 738.5Q609 717 622.5 686Q636 655 639.5 622Q643 589 643 565Q657 618 680 663Q703 708 742 755L748 750Q728 726 710.5 699Q693 672 678.5 639.5Q664 607 653.5 568Q643 529 637 480H861L860 470H636L596 149Q587 77 614.5 38.5Q642 0 696 0Q751 0 784.5 34.5Q818 69 828 156H838Q827 67 792.5 28.5Q758 -10 694 -10Z" glyph-name="c_t.alt" horiz-adv-x="870" /><glyph d="M446 -8 458 93Q436 45 390.5 18.5Q345 -8 270 -8Q212 -8 171 10.5Q130 29 104 60.5Q78 92 66.5 133Q55 174 55 220Q55 282 71.5 342.5Q88 403 122 451Q156 499 208.5 528.5Q261 558 333 558Q402 558 446.5 532.5Q491 507 502 458L515 557H525L504 395H495Q496 400 496 404.5Q496 409 496 414Q496 483 452 515.5Q408 548 332 548Q263 548 212.5 519Q162 490 129 443.5Q96 397 80.5 338Q65 279 65 220Q65 117 118.5 59.5Q172 2 272 2Q300 2 332 9Q364 16 392 33.5Q420 51 440.5 81Q461 111 467 158H476L456 -8ZM696 10H785L850 540H662Q644 540 638 534Q632 528 630 510L615 391H606L626 550H1086L1066 391H1057L1072 510Q1074 528 1069.5 534Q1065 540 1047 540H860L795 10H884L883 0H695Z" glyph-name="c_t.alt.sc" horiz-adv-x="1082" /><glyph d="M446 -8 458 93Q436 45 390.5 18.5Q345 -8 270 -8Q212 -8 171 10.5Q130 29 104 60.5Q78 92 66.5 133Q55 174 55 220Q55 282 71.5 342.5Q88 403 122 451Q156 499 208.5 528.5Q261 558 333 558Q402 558 446.5 532.5Q491 507 502 458L515 557H525L504 395H495Q496 400 496 404.5Q496 409 496 414Q496 483 452 515.5Q408 548 332 548Q263 548 212.5 519Q162 490 129 443.5Q96 397 80.5 338Q65 279 65 220Q65 117 118.5 59.5Q172 2 272 2Q300 2 332 9Q364 16 392 33.5Q420 51 440.5 81Q461 111 467 158H476L456 -8ZM696 10H785L850 540H662Q644 540 638 534Q632 528 630 510L615 391H606L626 550H1086L1066 391H1057L1072 510Q1074 528 1069.5 534Q1065 540 1047 540H860L795 10H884L883 0H695Z" glyph-name="c_t.sc" horiz-adv-x="1082" /><glyph d="M133 743 227 611 347 743H361L231 601H221L121 743Z" glyph-name="caron" horiz-adv-x="448" unicode="&#711;" /><glyph d="M328 872 207 740H197L104 872H117L203 749L315 872Z" glyph-name="caron.cap" horiz-adv-x="428" /><glyph d="M198 -180Q175 -180 163 -173Q151 -166 146 -160L148 -146Q156 -157 167 -163.5Q178 -170 198 -170Q230 -170 246 -152Q262 -134 262 -111Q262 -61 189 -61V-54L210 -10Q135 -9 94 44.5Q53 98 53 189Q53 252 67 306.5Q81 361 108.5 402Q136 443 176.5 466.5Q217 490 271 490Q330 490 367.5 459.5Q405 429 405 379Q405 370 401.5 362Q398 354 387 354Q374 354 374 367Q374 383 395 383Q393 426 358.5 453Q324 480 270 480Q219 480 180.5 457Q142 434 116 394.5Q90 355 77 303Q64 251 64 192Q64 104 103 52Q142 0 211 0Q234 0 259 6Q284 12 307.5 27Q331 42 351 67Q371 92 385 130L395 126Q367 54 320 23Q273 -8 220 -10L201 -52Q234 -54 253 -68Q272 -82 272 -111Q272 -140 252.5 -160Q233 -180 198 -180Z" glyph-name="ccedilla" horiz-adv-x="447" unicode="&#231;" /><glyph d="M174 -180Q151 -180 139 -173Q127 -166 122 -160L124 -146Q132 -157 143 -163.5Q154 -170 174 -170Q206 -170 222 -152Q238 -134 238 -111Q238 -61 165 -61V-54L191 0H201L177 -52Q210 -54 229 -68Q248 -82 248 -111Q248 -140 228.5 -160Q209 -180 174 -180Z" glyph-name="cedilla" horiz-adv-x="367" unicode="&#184;" /><glyph d="M408 206Q394 169 373.5 143Q353 117 329.5 101Q306 85 279.5 77.5Q253 70 227 70L216 -20H206L217 70Q145 73 105.5 126Q66 179 66 269Q66 332 80.5 386.5Q95 441 122 482Q149 523 188.5 546.5Q228 570 279 570L290 662H300L289 570Q346 568 382 538Q418 508 418 459Q418 450 414.5 442Q411 434 400 434Q387 434 387 447Q387 463 408 463Q406 506 372.5 533Q339 560 288 560L228 80Q251 80 275.5 86.5Q300 93 322.5 108Q345 123 365 148Q385 173 398 210ZM77 272Q77 185 114.5 133.5Q152 82 218 80L278 560Q229 559 191 535Q153 511 128 472Q103 433 90 381.5Q77 330 77 272Z" glyph-name="cent" horiz-adv-x="459" unicode="&#162;" /><glyph d="M396 126Q382 89 361.5 63Q341 37 317.5 21Q294 5 267.5 -2.5Q241 -10 215 -10L204 -100H194L205 -10Q133 -7 93.5 46Q54 99 54 189Q54 252 68.5 306.5Q83 361 110 402Q137 443 176.5 466.5Q216 490 267 490L278 582H288L277 490Q334 488 370 458Q406 428 406 379Q406 370 402.5 362Q399 354 388 354Q375 354 375 367Q375 383 396 383Q394 426 360.5 453Q327 480 276 480L216 0Q239 0 263.5 6.5Q288 13 310.5 28Q333 43 353 68Q373 93 386 130ZM65 192Q65 105 102.5 53.5Q140 2 206 0L266 480Q217 479 179 455Q141 431 116 392Q91 353 78 301.5Q65 250 65 192Z" glyph-name="cent.old" horiz-adv-x="448" /><glyph d="M364 183Q340 124 296 99Q252 74 205 74L195 -6H186L196 74Q131 76 95 119Q59 162 57 234Q56 284 68 327.5Q80 371 103.5 403.5Q127 436 162.5 455Q198 474 244 474L254 559H263L253 474Q304 473 336.5 448.5Q369 424 370 385Q370 377 367 370Q364 363 353 363Q341 363 341 376Q341 382 346 386.5Q351 391 361 391Q357 423 326.5 443Q296 463 251 463L206 85Q227 85 248.5 90.5Q270 96 289.5 107.5Q309 119 326 138.5Q343 158 355 187ZM68 235Q70 166 104.5 125.5Q139 85 197 85L242 463Q198 462 165 443Q132 424 110 393Q88 362 77.5 321Q67 280 68 235Z" glyph-name="cent.sc" horiz-adv-x="416" /><glyph d="M499 206Q485 169 464.5 143Q444 117 420.5 101Q397 85 370.5 77.5Q344 70 318 70L307 -20H297L308 70Q236 73 196.5 126Q157 179 157 269Q157 332 171.5 386.5Q186 441 213 482Q240 523 279.5 546.5Q319 570 370 570L381 662H391L380 570Q437 568 473 538Q509 508 509 459Q509 450 505.5 442Q502 434 491 434Q478 434 478 447Q478 463 499 463Q497 506 463.5 533Q430 560 379 560L319 80Q342 80 366.5 86.5Q391 93 413.5 108Q436 123 456 148Q476 173 489 210ZM168 272Q168 185 205.5 133.5Q243 82 309 80L369 560Q320 559 282 535Q244 511 219 472Q194 433 181 381.5Q168 330 168 272Z" glyph-name="cent.tln" horiz-adv-x="640" /><glyph d="M489 126Q475 89 454.5 63Q434 37 410.5 21Q387 5 360.5 -2.5Q334 -10 308 -10L297 -100H287L298 -10Q226 -7 186.5 46Q147 99 147 189Q147 252 161.5 306.5Q176 361 203 402Q230 443 269.5 466.5Q309 490 360 490L371 582H381L370 490Q427 488 463 458Q499 428 499 379Q499 370 495.5 362Q492 354 481 354Q468 354 468 367Q468 383 489 383Q487 426 453.5 453Q420 480 369 480L309 0Q332 0 356.5 6.5Q381 13 403.5 28Q426 43 446 68Q466 93 479 130ZM158 192Q158 105 195.5 53.5Q233 2 299 0L359 480Q310 479 272 455Q234 431 209 392Q184 353 171 301.5Q158 250 158 192Z" glyph-name="cent.ton" horiz-adv-x="640" /><glyph d="M104 601 238 743H248L344 601H332L243 733L118 601Z" glyph-name="circumflex" horiz-adv-x="448" unicode="&#710;" /><glyph d="M232 863 116 740H102L227 872H237L326 740H314Z" glyph-name="circumflex.cap" horiz-adv-x="428" /><glyph d="M119 315Q119 309 113.5 303.5Q108 298 100 298Q94 298 89.5 301.5Q85 305 85 313Q85 321 90.5 326Q96 331 104 331Q119 331 119 315ZM80 7Q80 1 74.5 -4.5Q69 -10 61 -10Q55 -10 50.5 -6.5Q46 -3 46 5Q46 13 51.5 18Q57 23 65 23Q80 23 80 7Z" glyph-name="colon" horiz-adv-x="182" unicode=":" /><glyph d="M348 315Q348 309 342.5 303.5Q337 298 329 298Q323 298 318.5 301.5Q314 305 314 313Q314 321 319.5 326Q325 331 333 331Q348 331 348 315ZM309 7Q309 1 303.5 -4.5Q298 -10 290 -10Q284 -10 279.5 -6.5Q275 -3 275 5Q275 13 280.5 18Q286 23 294 23Q309 23 309 7Z" glyph-name="colon.tln" horiz-adv-x="640" /><glyph d="M22 -79Q43 -68 53.5 -47.5Q64 -27 66 -10Q55 -12 50 -7.5Q45 -3 45 5Q45 13 50 18Q55 23 63 23Q71 23 75 17Q79 11 79 3Q79 -23 64.5 -49.5Q50 -76 21 -90Z" glyph-name="comma" horiz-adv-x="161" unicode="," /><glyph d="M256 -79Q277 -68 287.5 -47.5Q298 -27 300 -10Q289 -12 284 -7.5Q279 -3 279 5Q279 13 284 18Q289 23 297 23Q305 23 309 17Q313 11 313 3Q313 -23 298.5 -49.5Q284 -76 255 -90Z" glyph-name="comma.tln" horiz-adv-x="640" /><glyph d="M460 700Q529 700 585 676Q641 652 681 610.5Q721 569 742.5 512Q764 455 764 389Q764 301 733 227.5Q702 154 648.5 101Q595 48 523.5 19Q452 -10 372 -10Q303 -10 247 14Q191 38 151 79.5Q111 121 89.5 178Q68 235 68 301Q68 390 99 463Q130 536 183.5 589Q237 642 308.5 671Q380 700 460 700ZM458 690Q382 690 313 662.5Q244 635 191.5 584Q139 533 108.5 461Q78 389 78 300Q78 234 99.5 178.5Q121 123 160 83.5Q199 44 253.5 22Q308 0 374 0Q451 0 519.5 28Q588 56 640.5 107Q693 158 723.5 230Q754 302 754 390Q754 456 732.5 511.5Q711 567 672 606.5Q633 646 578.5 668Q524 690 458 690ZM512 206Q494 167 460 152Q426 137 386 137Q348 137 321.5 151Q295 165 278 188Q261 211 253.5 241.5Q246 272 246 306Q246 353 259 398Q272 443 297 478.5Q322 514 357 536Q392 558 437 558Q484 558 512 536.5Q540 515 546 486L554 558H564L550 439H540Q547 494 516 521Q485 548 436 548Q394 548 360.5 527Q327 506 303.5 472Q280 438 268 394.5Q256 351 256 306Q256 231 291 189Q326 147 388 147Q408 147 429 151.5Q450 156 468.5 168.5Q487 181 500.5 203Q514 225 518 259H528L513 137H503Z" glyph-name="copyright" horiz-adv-x="806" unicode="&#169;" /><glyph d="M275 -10Q218 -10 176 7.5Q134 25 106.5 54Q79 83 66 121Q53 159 53 201Q53 256 72 308Q91 360 127.5 400.5Q164 441 217 465.5Q270 490 337 490Q394 490 436 472.5Q478 455 505.5 426Q533 397 546 359Q559 321 559 279Q559 224 540 172Q521 120 484.5 79.5Q448 39 395.5 14.5Q343 -10 275 -10ZM277 0Q342 0 392.5 23.5Q443 47 477.5 86Q512 125 530.5 175Q549 225 549 279Q549 318 536.5 354.5Q524 391 497.5 418.5Q471 446 431 463Q391 480 335 480Q271 480 220 456.5Q169 433 134.5 394Q100 355 81.5 305Q63 255 63 201Q63 162 75.5 125.5Q88 89 114.5 61.5Q141 34 181.5 17Q222 0 277 0ZM366 150Q354 124 330.5 115.5Q307 107 290 107Q265 107 247 116Q229 125 217.5 140Q206 155 201 175Q196 195 196 217Q196 246 204.5 274.5Q213 303 229.5 325.5Q246 348 269 362Q292 376 321 376Q347 376 366 363.5Q385 351 388 330L394 376H404L394 300H384Q384 334 367 350Q350 366 320 366Q294 366 273 353.5Q252 341 237 320Q222 299 214 272Q206 245 206 216Q206 168 229 142.5Q252 117 291 117Q300 117 312.5 119.5Q325 122 337 129Q349 136 358 149.5Q367 163 370 185H381L372 107H361Z" glyph-name="copyright.old" horiz-adv-x="611" /><glyph d="M402 558Q464 558 514.5 539Q565 520 601 487Q637 454 657 408.5Q677 363 678 310Q679 240 652 181.5Q625 123 578 81Q531 39 467.5 15.5Q404 -8 332 -8Q271 -8 220.5 11Q170 30 134 63Q98 96 78 141.5Q58 187 57 240Q56 310 83 368.5Q110 427 157 469Q204 511 267 534.5Q330 558 402 558ZM401 548Q333 548 271.5 526Q210 504 164.5 463.5Q119 423 92.5 366Q66 309 67 239Q68 187 87.5 143Q107 99 142.5 68Q178 37 226.5 19.5Q275 2 334 2Q402 2 463.5 24Q525 46 570.5 86.5Q616 127 642.5 184Q669 241 668 311Q667 364 647.5 407.5Q628 451 592.5 482Q557 513 508.5 530.5Q460 548 401 548ZM454 162Q438 132 408 120.5Q378 109 343 109Q309 109 285 120Q261 131 246 150Q231 169 223.5 193.5Q216 218 216 245Q216 282 227 317.5Q238 353 260 381.5Q282 410 313 427.5Q344 445 384 445Q426 445 451 428.5Q476 412 482 390L488 445H497L486 348H477Q482 392 454 413.5Q426 435 383 435Q345 435 315.5 418.5Q286 402 266 375Q246 348 235.5 313.5Q225 279 226 244Q227 184 258.5 151.5Q290 119 345 119Q363 119 381.5 123Q400 127 416.5 136.5Q433 146 444.5 163.5Q456 181 459 208H469L457 109H448Z" glyph-name="copyright.sc" horiz-adv-x="726" /><glyph d="M289 -10Q232 -10 190 7.5Q148 25 120.5 54Q93 83 80 121Q67 159 67 201Q67 256 86 308Q105 360 141.5 400.5Q178 441 231 465.5Q284 490 351 490Q408 490 450 472.5Q492 455 519.5 426Q547 397 560 359Q573 321 573 279Q573 224 554 172Q535 120 498.5 79.5Q462 39 409.5 14.5Q357 -10 289 -10ZM291 0Q356 0 406.5 23.5Q457 47 491.5 86Q526 125 544.5 175Q563 225 563 279Q563 318 550.5 354.5Q538 391 511.5 418.5Q485 446 445 463Q405 480 349 480Q285 480 234 456.5Q183 433 148.5 394Q114 355 95.5 305Q77 255 77 201Q77 162 89.5 125.5Q102 89 128.5 61.5Q155 34 195.5 17Q236 0 291 0ZM380 150Q368 124 344.5 115.5Q321 107 304 107Q279 107 261 116Q243 125 231.5 140Q220 155 215 175Q210 195 210 217Q210 246 218.5 274.5Q227 303 243.5 325.5Q260 348 283 362Q306 376 335 376Q361 376 380 363.5Q399 351 402 330L408 376H418L408 300H398Q398 334 381 350Q364 366 334 366Q308 366 287 353.5Q266 341 251 320Q236 299 228 272Q220 245 220 216Q220 168 243 142.5Q266 117 305 117Q314 117 326.5 119.5Q339 122 351 129Q363 136 372 149.5Q381 163 384 185H395L386 107H375Z" glyph-name="copyright.tln" horiz-adv-x="640" /><glyph d="M289 -10Q232 -10 190 7.5Q148 25 120.5 54Q93 83 80 121Q67 159 67 201Q67 256 86 308Q105 360 141.5 400.5Q178 441 231 465.5Q284 490 351 490Q408 490 450 472.5Q492 455 519.5 426Q547 397 560 359Q573 321 573 279Q573 224 554 172Q535 120 498.5 79.5Q462 39 409.5 14.5Q357 -10 289 -10ZM291 0Q356 0 406.5 23.5Q457 47 491.5 86Q526 125 544.5 175Q563 225 563 279Q563 318 550.5 354.5Q538 391 511.5 418.5Q485 446 445 463Q405 480 349 480Q285 480 234 456.5Q183 433 148.5 394Q114 355 95.5 305Q77 255 77 201Q77 162 89.5 125.5Q102 89 128.5 61.5Q155 34 195.5 17Q236 0 291 0ZM380 150Q368 124 344.5 115.5Q321 107 304 107Q279 107 261 116Q243 125 231.5 140Q220 155 215 175Q210 195 210 217Q210 246 218.5 274.5Q227 303 243.5 325.5Q260 348 283 362Q306 376 335 376Q361 376 380 363.5Q399 351 402 330L408 376H418L408 300H398Q398 334 381 350Q364 366 334 366Q308 366 287 353.5Q266 341 251 320Q236 299 228 272Q220 245 220 216Q220 168 243 142.5Q266 117 305 117Q314 117 326.5 119.5Q339 122 351 129Q363 136 372 149.5Q381 163 384 185H395L386 107H375Z" glyph-name="copyright.ton" horiz-adv-x="640" /><glyph d="M327 185Q306 167 280.5 157Q255 147 226 147Q197 147 173 157.5Q149 168 132 186L67 126L60 133L127 193Q112 212 105 236.5Q98 261 101 290Q104 319 116 344Q128 369 147 388L94 448L101 455L155 395Q175 413 201 423Q227 433 256 433Q285 433 308.5 422.5Q332 412 349 394L415 455L422 448L355 388Q370 368 377.5 343.5Q385 319 382 290Q376 232 335 193L388 133L381 126ZM255 423Q227 423 202 412.5Q177 402 157.5 384Q138 366 126 342Q114 318 111 290Q108 263 115 238.5Q122 214 137.5 196Q153 178 176 167.5Q199 157 227 157Q254 157 279 167.5Q304 178 323.5 196Q343 214 356 238Q369 262 372 290Q375 318 367.5 342Q360 366 344 384Q328 402 305 412.5Q282 423 255 423Z" glyph-name="currency" horiz-adv-x="471" unicode="&#164;" /><glyph d="M306 195Q287 181 264.5 173.5Q242 166 217 166Q164 166 132 196L75 148L68 156L127 204Q98 236 103 280Q105 303 115.5 323.5Q126 344 143 360L95 408L102 416L151 367Q189 397 240 397Q266 397 287.5 388.5Q309 380 324 366L382 416L389 408L329 359Q359 325 355 283Q350 236 314 204L362 155L355 148ZM239 386Q188 386 153.5 355.5Q119 325 114 281Q109 238 138 207.5Q167 177 218 177Q242 177 264 185.5Q286 194 303 208Q320 222 331 241Q342 260 344 282Q346 304 339 323Q332 342 318 356Q304 370 283.5 378Q263 386 239 386Z" glyph-name="currency.sc" horiz-adv-x="446" /><glyph d="M412 185Q391 167 365.5 157Q340 147 311 147Q282 147 258 157.5Q234 168 217 186L152 126L145 133L212 193Q197 212 190 236.5Q183 261 186 290Q189 319 201 344Q213 369 232 388L179 448L186 455L240 395Q260 413 286 423Q312 433 341 433Q370 433 393.5 422.5Q417 412 434 394L500 455L507 448L440 388Q455 368 462.5 343.5Q470 319 467 290Q461 232 420 193L473 133L466 126ZM340 423Q312 423 287 412.5Q262 402 242.5 384Q223 366 211 342Q199 318 196 290Q193 263 200 238.5Q207 214 222.5 196Q238 178 261 167.5Q284 157 312 157Q339 157 364 167.5Q389 178 408.5 196Q428 214 441 238Q454 262 457 290Q460 318 452.5 342Q445 366 429 384Q413 402 390 412.5Q367 423 340 423Z" glyph-name="currency.tln" horiz-adv-x="640" /><glyph d="M353 690Q353 668 343 649.5Q333 631 316.5 618Q300 605 277.5 598Q255 591 230 591Q205 591 182.5 598Q160 605 143.5 618Q127 631 117 649.5Q107 668 107 690Q107 713 124 713Q141 713 141 696Q141 689 134.5 682Q128 675 118 681Q124 645 155.5 623Q187 601 230 601Q273 601 304.5 623Q336 645 342 681Q331 677 325 683.5Q319 690 319 696Q319 713 336 713Q353 713 353 690Z" glyph-name="cyrbreve" horiz-adv-x="498" unicode="&#63188;" /><glyph d="M338 847Q338 827 328 808Q318 789 300 774.5Q282 760 257.5 751Q233 742 203 742Q155 742 123 766.5Q91 791 91 834Q91 844 95 854Q99 864 112 864Q127 864 127 849Q127 842 121.5 836.5Q116 831 108 831Q106 831 104.5 831.5Q103 832 102 832Q104 796 132.5 774Q161 752 204 752Q247 752 282 774Q317 796 327 832L320 831Q312 831 308.5 835.5Q305 840 305 846Q305 854 310 859Q315 864 322 864Q338 864 338 847Z" glyph-name="cyrbreve.cap" horiz-adv-x="426" /><glyph d="M453 -10Q442 -10 431 -6.5Q420 -3 411.5 8Q403 19 399.5 38.5Q396 58 400 90L407 145Q384 74 338.5 32Q293 -10 222 -10Q144 -10 99 46Q54 102 54 199Q54 259 67 312Q80 365 106 404.5Q132 444 171.5 467Q211 490 263 490Q332 490 376.5 446Q421 402 428 324L449 490L480 740H385L386 750Q418 750 436.5 750.5Q455 751 465 752Q475 753 478.5 755Q482 757 485 760L492 757L410 89Q406 58 409.5 40.5Q413 23 420.5 14Q428 5 437 2.5Q446 0 453 0Q483 0 498.5 25Q514 50 522 110H532Q524 50 507 20Q490 -10 453 -10ZM262 480Q212 480 175 458Q138 436 113.5 398Q89 360 77 309.5Q65 259 65 202Q65 109 107.5 54.5Q150 0 223 0Q265 0 297.5 17Q330 34 354 63Q378 92 393 132.5Q408 173 415 219Q417 236 418.5 253Q420 270 420 288Q420 376 377.5 428Q335 480 262 480Z" glyph-name="d" horiz-adv-x="561" unicode="d" /><glyph d="M233 434Q204 434 178.5 443Q153 452 134 468Q115 484 104 506.5Q93 529 93 556Q93 585 103 611Q113 637 131.5 657Q150 677 176.5 688.5Q203 700 237 700Q267 700 292.5 691Q318 682 337 666Q356 650 367 627.5Q378 605 378 578Q378 549 368 523Q358 497 339.5 477Q321 457 294 445.5Q267 434 233 434ZM234 444Q264 444 289 455Q314 466 331.5 484.5Q349 503 358.5 527.5Q368 552 368 579Q368 603 358 623.5Q348 644 330 659Q312 674 288 682Q264 690 237 690Q207 690 182 679Q157 668 139.5 649.5Q122 631 112.5 606.5Q103 582 103 555Q103 531 113 510.5Q123 490 141 475Q159 460 183 452Q207 444 234 444Z" glyph-name="degree" horiz-adv-x="393" unicode="&#176;" /><glyph d="M357 434Q328 434 302.5 443Q277 452 258 468Q239 484 228 506.5Q217 529 217 556Q217 585 227 611Q237 637 255.5 657Q274 677 300.5 688.5Q327 700 361 700Q391 700 416.5 691Q442 682 461 666Q480 650 491 627.5Q502 605 502 578Q502 549 492 523Q482 497 463.5 477Q445 457 418 445.5Q391 434 357 434ZM358 444Q388 444 413 455Q438 466 455.5 484.5Q473 503 482.5 527.5Q492 552 492 579Q492 603 482 623.5Q472 644 454 659Q436 674 412 682Q388 690 361 690Q331 690 306 679Q281 668 263.5 649.5Q246 631 236.5 606.5Q227 582 227 555Q227 531 237 510.5Q247 490 265 475Q283 460 307 452Q331 444 358 444Z" glyph-name="degree.tln" horiz-adv-x="640" /><glyph d="M324 641Q324 635 318.5 629.5Q313 624 305 624Q299 624 294.5 627.5Q290 631 290 639Q290 647 295.5 652Q301 657 309 657Q324 657 324 641ZM194 641Q194 635 188.5 629.5Q183 624 175 624Q169 624 164.5 627.5Q160 631 160 639Q160 647 165.5 652Q171 657 179 657Q194 657 194 641Z" glyph-name="dieresis" horiz-adv-x="484" unicode="&#168;" /><glyph d="M304 803Q304 786 285 786Q279 786 274.5 789.5Q270 793 270 801Q270 809 275.5 814Q281 819 289 819Q304 819 304 803ZM124 803Q124 786 105 786Q99 786 94.5 789.5Q90 793 90 801Q90 809 95.5 814Q101 819 109 819Q124 819 124 803Z" glyph-name="dieresis.cap" horiz-adv-x="394" /><glyph d="M310 475Q310 469 304.5 463.5Q299 458 291 458Q285 458 280.5 461.5Q276 465 276 473Q276 481 281.5 486Q287 491 295 491Q310 491 310 475ZM462 310 460 300H84L86 310ZM267 127Q267 121 261.5 115.5Q256 110 248 110Q242 110 237.5 113.5Q233 117 233 125Q233 133 238.5 138Q244 143 252 143Q267 143 267 127Z" glyph-name="divide" horiz-adv-x="531" unicode="&#247;" /><glyph d="M297 385Q297 379 291.5 373.5Q286 368 278 368Q272 368 267.5 371.5Q263 375 263 383Q263 391 268.5 396Q274 401 282 401Q297 401 297 385ZM449 220 447 210H71L73 220ZM254 37Q254 31 248.5 25.5Q243 20 235 20Q229 20 224.5 23.5Q220 27 220 35Q220 43 225.5 48Q231 53 239 53Q254 53 254 37Z" glyph-name="divide.old" horiz-adv-x="524" /><glyph d="M280 412Q280 405 275 400Q270 395 262 395Q257 395 252.5 398.5Q248 402 248 409Q248 417 253 422Q258 427 266 427Q280 427 280 412ZM417 281 416 270H79L81 281ZM246 134Q246 128 241 123Q236 118 228 118Q223 118 218.5 121.5Q214 125 214 132Q214 140 219 145Q224 150 232 150Q246 150 246 134Z" glyph-name="divide.sc" horiz-adv-x="487" /><glyph d="M364 475Q364 469 358.5 463.5Q353 458 345 458Q339 458 334.5 461.5Q330 465 330 473Q330 481 335.5 486Q341 491 349 491Q364 491 364 475ZM516 310 514 300H138L140 310ZM321 127Q321 121 315.5 115.5Q310 110 302 110Q296 110 291.5 113.5Q287 117 287 125Q287 133 292.5 138Q298 143 306 143Q321 143 321 127Z" glyph-name="divide.tln" horiz-adv-x="640" /><glyph d="M355 385Q355 379 349.5 373.5Q344 368 336 368Q330 368 325.5 371.5Q321 375 321 383Q321 391 326.5 396Q332 401 340 401Q355 401 355 385ZM507 220 505 210H129L131 220ZM312 37Q312 31 306.5 25.5Q301 20 293 20Q287 20 282.5 23.5Q278 27 278 35Q278 43 283.5 48Q289 53 297 53Q312 53 312 37Z" glyph-name="divide.ton" horiz-adv-x="640" /><glyph d="M281 345Q312 337 334 329L396 682Q379 687 362 688.5Q345 690 327 690Q298 690 277 686L220 363Q249 352 281 345ZM110 505Q110 447 138 415.5Q166 384 211 366L267 684Q191 669 150.5 619.5Q110 570 110 505ZM241 0Q251 0 259.5 0.5Q268 1 277 2L332 318Q306 329 274 336Q259 340 245.5 343.5Q232 347 218 352L158 10Q180 5 201 2.5Q222 0 241 0ZM451 175Q451 222 426.5 256Q402 290 342 315L287 3Q333 9 364.5 26Q396 43 415 67Q434 91 442.5 119Q451 147 451 175ZM240 -10Q193 -10 156 0L137 -110H127L147 3Q99 17 68.5 46.5Q38 76 38 120Q38 139 43 151Q48 163 62 163Q69 163 72.5 158.5Q76 154 76 148Q76 141 70 134Q64 127 50 126Q49 79 79 52Q109 25 149 13L209 356Q160 375 130 408.5Q100 442 100 504Q100 574 143 626.5Q186 679 268 695L287 800H297L279 696Q290 698 302.5 699Q315 700 328 700Q364 700 398 692L417 800H427L408 690Q453 677 480 650Q507 623 507 582Q507 565 501.5 554.5Q496 544 483 544Q469 544 469 557Q469 565 474.5 572Q480 579 494 581Q493 622 468.5 645.5Q444 669 406 680L344 326Q410 300 435.5 263.5Q461 227 461 175Q461 144 452 113.5Q443 83 422.5 58Q402 33 368.5 15.5Q335 -2 285 -8L267 -110H257L275 -9Q267 -10 258 -10Q249 -10 240 -10Z" glyph-name="dollar" horiz-adv-x="526" unicode="$" /><glyph d="M307 474Q280 480 248 480Q227 480 207 477L179 252Q201 245 227.5 240.5Q254 236 277 230ZM88 358Q88 329 103.5 300.5Q119 272 170 255L197 475Q143 463 115.5 428.5Q88 394 88 358ZM207 0Q230 0 249 3L275 220Q252 227 223 232Q194 237 178 242L149 6Q176 0 207 0ZM358 120Q358 156 340 179.5Q322 203 285 217L259 5Q308 16 333 47Q358 78 358 120ZM206 -10Q175 -10 148 -4L136 -100H126L138 -1Q94 11 68 41.5Q42 72 42 121Q42 133 45 143Q48 153 60 153Q67 153 70 149.5Q73 146 73 141Q73 124 52 124Q54 72 77.5 46Q101 20 139 9L169 245Q141 254 123 266.5Q105 279 95 294Q85 309 81.5 325Q78 341 78 357Q78 402 109.5 437.5Q141 473 198 485L210 582H220L208 487Q226 490 247 490Q283 490 308 483L320 582H330L317 480Q356 469 378.5 443Q401 417 401 379Q401 365 397.5 357Q394 349 383 349Q376 349 373 352.5Q370 356 370 361Q370 378 391 378Q389 415 368.5 437.5Q348 460 316 471L286 227Q368 199 368 122Q368 72 339.5 39Q311 6 258 -5L246 -100H236L247 -7Q229 -10 206 -10Z" glyph-name="dollar.old" horiz-adv-x="443" /><glyph d="M349 542Q321 548 288 548Q264 548 243 545L197 290Q226 281 250.5 275.5Q275 270 298 264ZM97 401Q97 356 122 332Q147 308 188 293L234 543Q167 531 132 492.5Q97 454 97 401ZM220 2Q228 2 236 2Q244 2 251 3L296 253Q273 260 247 266Q221 272 195 280L147 10Q166 5 184.5 3.5Q203 2 220 2ZM404 139Q404 176 381.5 203Q359 230 305 250L261 4Q302 9 329 22.5Q356 36 373 54.5Q390 73 397 95Q404 117 404 139ZM219 -8Q182 -8 145 0L129 -88H119L135 2Q92 14 64.5 38.5Q37 63 37 100Q37 113 41 123Q45 133 58 133Q71 133 71 119Q71 113 65.5 106.5Q60 100 48 99Q49 63 75.5 42.5Q102 22 137 12L186 283Q142 298 114.5 324.5Q87 351 87 401Q87 458 124.5 500Q162 542 236 554L251 638H260L245 555Q266 558 289 558Q323 558 350 552L366 638H376L360 550Q400 539 424.5 517Q449 495 450 463Q450 449 445.5 440Q441 431 430 431Q416 431 416 443Q416 451 421 457Q426 463 438 465Q435 495 412.5 513.5Q390 532 358 540L307 261Q367 241 390.5 211.5Q414 182 414 140Q414 115 406.5 91Q399 67 381 47Q363 27 333 12.5Q303 -2 259 -6L244 -88H235L250 -7Q242 -8 234.5 -8Q227 -8 219 -8Z" glyph-name="dollar.sc" horiz-adv-x="484" /><glyph d="M338 345Q369 337 391 329L453 682Q436 687 419 688.5Q402 690 384 690Q355 690 334 686L277 363Q306 352 338 345ZM167 505Q167 447 195 415.5Q223 384 268 366L324 684Q248 669 207.5 619.5Q167 570 167 505ZM298 0Q308 0 316.5 0.5Q325 1 334 2L389 318Q363 329 331 336Q316 340 302.5 343.5Q289 347 275 352L215 10Q237 5 258 2.5Q279 0 298 0ZM508 175Q508 222 483.5 256Q459 290 399 315L344 3Q390 9 421.5 26Q453 43 472 67Q491 91 499.5 119Q508 147 508 175ZM297 -10Q250 -10 213 0L194 -110H184L204 3Q156 17 125.5 46.5Q95 76 95 120Q95 139 100 151Q105 163 119 163Q126 163 129.5 158.5Q133 154 133 148Q133 141 127 134Q121 127 107 126Q106 79 136 52Q166 25 206 13L266 356Q217 375 187 408.5Q157 442 157 504Q157 574 200 626.5Q243 679 325 695L344 800H354L336 696Q347 698 359.5 699Q372 700 385 700Q421 700 455 692L474 800H484L465 690Q510 677 537 650Q564 623 564 582Q564 565 558.5 554.5Q553 544 540 544Q526 544 526 557Q526 565 531.5 572Q537 579 551 581Q550 622 525.5 645.5Q501 669 463 680L401 326Q467 300 492.5 263.5Q518 227 518 175Q518 144 509 113.5Q500 83 479.5 58Q459 33 425.5 15.5Q392 -2 342 -8L324 -110H314L332 -9Q324 -10 315 -10Q306 -10 297 -10Z" glyph-name="dollar.tln" horiz-adv-x="640" /><glyph d="M406 474Q379 480 347 480Q326 480 306 477L278 252Q300 245 326.5 240.5Q353 236 376 230ZM187 358Q187 329 202.5 300.5Q218 272 269 255L296 475Q242 463 214.5 428.5Q187 394 187 358ZM306 0Q329 0 348 3L374 220Q351 227 322 232Q293 237 277 242L248 6Q275 0 306 0ZM457 120Q457 156 439 179.5Q421 203 384 217L358 5Q407 16 432 47Q457 78 457 120ZM305 -10Q274 -10 247 -4L235 -100H225L237 -1Q193 11 167 41.5Q141 72 141 121Q141 133 144 143Q147 153 159 153Q166 153 169 149.5Q172 146 172 141Q172 124 151 124Q153 72 176.5 46Q200 20 238 9L268 245Q240 254 222 266.5Q204 279 194 294Q184 309 180.5 325Q177 341 177 357Q177 402 208.5 437.5Q240 473 297 485L309 582H319L307 487Q325 490 346 490Q382 490 407 483L419 582H429L416 480Q455 469 477.5 443Q500 417 500 379Q500 365 496.5 357Q493 349 482 349Q475 349 472 352.5Q469 356 469 361Q469 378 490 378Q488 415 467.5 437.5Q447 460 415 471L385 227Q467 199 467 122Q467 72 438.5 39Q410 6 357 -5L345 -100H335L346 -7Q328 -10 305 -10Z" glyph-name="dollar.ton" horiz-adv-x="640" /><glyph d="M115 624Q109 624 104.5 627.5Q100 631 100 639Q100 647 105.5 652Q111 657 119 657Q134 657 134 641Q134 635 128.5 629.5Q123 624 115 624Z" glyph-name="dotaccent" horiz-adv-x="287" unicode="&#729;" /><glyph d="M141 803Q141 797 135.5 791.5Q130 786 122 786Q116 786 111.5 789.5Q107 793 107 801Q107 809 112.5 814Q118 819 126 819Q141 819 141 803Z" glyph-name="dotaccent.cap" horiz-adv-x="247" /><glyph d="M156 -10Q145 -10 134 -6.5Q123 -3 114.5 8Q106 19 102.5 38.5Q99 58 103 90L150 470H55L56 480Q88 480 106.5 480.5Q125 481 135 482Q145 483 148.5 485Q152 487 155 490L162 487L113 89Q109 58 112.5 40.5Q116 23 123.5 14Q131 5 140 2.5Q149 0 156 0Q186 0 201.5 25Q217 50 225 110H235Q227 50 210 20Q193 -10 156 -10Z" glyph-name="dotlessi" horiz-adv-x="267" unicode="&#305;" /><glyph d="M211 -10Q136 -10 94 42Q52 94 52 183Q52 247 66.5 303Q81 359 109.5 400.5Q138 442 181 466Q224 490 280 490Q320 490 346.5 479Q373 468 389 451Q405 434 412 414Q419 394 419 376Q419 328 396.5 300Q374 272 329.5 258Q285 244 219 240Q153 236 66 234Q63 210 63 183Q63 100 102 50Q141 0 212 0Q282 0 320.5 35Q359 70 381 127L391 124Q367 63 326 26.5Q285 -10 211 -10ZM279 480Q232 480 195.5 462Q159 444 132.5 412.5Q106 381 89.5 337.5Q73 294 67 244Q149 245 212.5 248.5Q276 252 319.5 265Q363 278 385.5 304Q408 330 408 376Q408 391 402 409Q396 427 381.5 443Q367 459 342 469.5Q317 480 279 480Z" glyph-name="e" horiz-adv-x="458" unicode="e" /><glyph d="M211 -10Q136 -10 94 42Q52 94 52 183Q52 247 66.5 303Q81 359 109.5 400.5Q138 442 181 466Q224 490 280 490Q320 490 346.5 479Q373 468 389 451Q405 434 412 414Q419 394 419 376Q419 328 396.5 300Q374 272 329.5 258Q285 244 219 240Q153 236 66 234Q63 210 63 183Q63 100 102 50Q141 0 212 0Q282 0 320.5 35Q359 70 381 127L391 124Q367 63 326 26.5Q285 -10 211 -10ZM279 480Q232 480 195.5 462Q159 444 132.5 412.5Q106 381 89.5 337.5Q73 294 67 244Q149 245 212.5 248.5Q276 252 319.5 265Q363 278 385.5 304Q408 330 408 376Q408 391 402 409Q396 427 381.5 443Q367 459 342 469.5Q317 480 279 480ZM264 601 350 695Q370 717 381.5 731Q393 745 400 745Q407 745 407 738Q406 733 391.5 721Q377 709 357 687L276 601Z" glyph-name="eacute" horiz-adv-x="458" unicode="&#233;" /><glyph d="M211 -10Q136 -10 94 42Q52 94 52 183Q52 247 66.5 303Q81 359 109.5 400.5Q138 442 181 466Q224 490 280 490Q320 490 346.5 479Q373 468 389 451Q405 434 412 414Q419 394 419 376Q419 328 396.5 300Q374 272 329.5 258Q285 244 219 240Q153 236 66 234Q63 210 63 183Q63 100 102 50Q141 0 212 0Q282 0 320.5 35Q359 70 381 127L391 124Q367 63 326 26.5Q285 -10 211 -10ZM279 480Q232 480 195.5 462Q159 444 132.5 412.5Q106 381 89.5 337.5Q73 294 67 244Q149 245 212.5 248.5Q276 252 319.5 265Q363 278 385.5 304Q408 330 408 376Q408 391 402 409Q396 427 381.5 443Q367 459 342 469.5Q317 480 279 480ZM172 602 306 744H316L412 602H400L311 734L186 602Z" glyph-name="ecircumflex" horiz-adv-x="458" unicode="&#234;" /><glyph d="M211 -10Q136 -10 94 42Q52 94 52 183Q52 247 66.5 303Q81 359 109.5 400.5Q138 442 181 466Q224 490 280 490Q320 490 346.5 479Q373 468 389 451Q405 434 412 414Q419 394 419 376Q419 328 396.5 300Q374 272 329.5 258Q285 244 219 240Q153 236 66 234Q63 210 63 183Q63 100 102 50Q141 0 212 0Q282 0 320.5 35Q359 70 381 127L391 124Q367 63 326 26.5Q285 -10 211 -10ZM279 480Q232 480 195.5 462Q159 444 132.5 412.5Q106 381 89.5 337.5Q73 294 67 244Q149 245 212.5 248.5Q276 252 319.5 265Q363 278 385.5 304Q408 330 408 376Q408 391 402 409Q396 427 381.5 443Q367 459 342 469.5Q317 480 279 480ZM388 644Q388 638 382.5 632.5Q377 627 369 627Q363 627 358.5 630.5Q354 634 354 642Q354 650 359.5 655Q365 660 373 660Q388 660 388 644ZM258 644Q258 638 252.5 632.5Q247 627 239 627Q233 627 228.5 630.5Q224 634 224 642Q224 650 229.5 655Q235 660 243 660Q258 660 258 644Z" glyph-name="edieresis" horiz-adv-x="458" unicode="&#235;" /><glyph d="M211 -10Q136 -10 94 42Q52 94 52 183Q52 247 66.5 303Q81 359 109.5 400.5Q138 442 181 466Q224 490 280 490Q320 490 346.5 479Q373 468 389 451Q405 434 412 414Q419 394 419 376Q419 328 396.5 300Q374 272 329.5 258Q285 244 219 240Q153 236 66 234Q63 210 63 183Q63 100 102 50Q141 0 212 0Q282 0 320.5 35Q359 70 381 127L391 124Q367 63 326 26.5Q285 -10 211 -10ZM279 480Q232 480 195.5 462Q159 444 132.5 412.5Q106 381 89.5 337.5Q73 294 67 244Q149 245 212.5 248.5Q276 252 319.5 265Q363 278 385.5 304Q408 330 408 376Q408 391 402 409Q396 427 381.5 443Q367 459 342 469.5Q317 480 279 480ZM221 687Q206 710 194.5 721.5Q183 733 184 738Q184 745 193 745Q200 745 207.5 731Q215 717 230 695L292 601H280Z" glyph-name="egrave" horiz-adv-x="458" unicode="&#232;" /><glyph d="M483 192Q483 156 468.5 120Q454 84 425 55Q396 26 353 8Q310 -10 253 -10Q196 -10 157.5 5.5Q119 21 95 46.5Q71 72 60.5 105Q50 138 50 172Q50 211 65 244Q80 277 106 302.5Q132 328 167.5 344.5Q203 361 245 367Q213 375 190 391Q167 407 152 427.5Q137 448 130 472Q123 496 123 520Q123 554 136 586.5Q149 619 174 644Q199 669 235.5 684.5Q272 700 320 700Q363 700 395.5 688Q428 676 450.5 655.5Q473 635 484.5 607.5Q496 580 496 549Q496 513 482.5 482Q469 451 446.5 428Q424 405 394 389Q364 373 330 367Q406 352 444.5 303.5Q483 255 483 192ZM133 522Q133 492 144 465Q155 438 175 417Q195 396 224 384Q253 372 290 372Q330 372 365.5 386Q401 400 427.5 424.5Q454 449 469.5 481Q485 513 485 549Q485 578 474 604Q463 630 441.5 649Q420 668 389 679Q358 690 318 690Q273 690 238.5 675Q204 660 180.5 636Q157 612 145 582Q133 552 133 522ZM60 172Q60 139 70 108Q80 77 103.5 53Q127 29 164 14.5Q201 0 255 0Q308 0 349 17Q390 34 417.5 61.5Q445 89 459 123.5Q473 158 473 192Q473 231 458 262.5Q443 294 418 315.5Q393 337 359.5 349Q326 361 289 361Q240 361 198 346.5Q156 332 125 306.5Q94 281 77 246.5Q60 212 60 172Z" glyph-name="eight" horiz-adv-x="546" unicode="8" /><glyph d="M151 -157Q111 -157 84 -146Q57 -135 41 -117Q25 -99 20 -76.5Q15 -54 18 -31Q23 12 57.5 46Q92 80 149 88Q101 101 81 131.5Q61 162 66 194Q69 216 79.5 236.5Q90 257 108 272.5Q126 288 151 297.5Q176 307 206 307Q236 307 259 297.5Q282 288 297 272.5Q312 257 318.5 236.5Q325 216 322 194Q317 162 290 131Q263 100 210 88Q265 80 292 45.5Q319 11 314 -31Q311 -54 299.5 -76.5Q288 -99 268 -117Q248 -135 218.5 -146Q189 -157 151 -157ZM181 93Q207 93 229.5 101.5Q252 110 269.5 124Q287 138 298 156.5Q309 175 312 194Q317 236 288.5 266.5Q260 297 205 297Q149 297 115 266.5Q81 236 76 194Q73 174 79.5 156Q86 138 99.5 124Q113 110 134 101.5Q155 93 181 93ZM152 -147Q187 -147 214 -137Q241 -127 260.5 -111Q280 -95 291 -74Q302 -53 304 -31Q307 -6 298 15.5Q289 37 272 52Q255 67 231.5 75Q208 83 180 83Q150 83 123.5 74.5Q97 66 77 51Q57 36 44 15Q31 -6 28 -31Q25 -54 30.5 -74.5Q36 -95 50.5 -111.5Q65 -128 90 -137.5Q115 -147 152 -147Z" glyph-name="eight.inferior" horiz-adv-x="377" /><glyph d="M251 -10Q194 -10 155.5 5.5Q117 21 93 46.5Q69 72 58.5 105Q48 138 48 172Q48 211 63 244Q78 277 104 302.5Q130 328 165.5 344.5Q201 361 243 367Q211 375 188 391Q165 407 150 427.5Q135 448 128 472Q121 496 121 520Q121 554 134 586.5Q147 619 172 644Q197 669 233.5 684.5Q270 700 318 700Q361 700 393.5 688Q426 676 448.5 655.5Q471 635 482.5 607.5Q494 580 494 549Q494 513 480.5 482Q467 451 444.5 428Q422 405 392 389Q362 373 328 367Q404 352 442.5 303.5Q481 255 481 192Q481 156 466.5 120Q452 84 423 55Q394 26 351 8Q308 -10 251 -10ZM288 372Q328 372 363.5 386Q399 400 425.5 424.5Q452 449 467.5 481Q483 513 483 549Q483 578 472 604Q461 630 439.5 649Q418 668 387 679Q356 690 316 690Q271 690 236.5 675Q202 660 178.5 636Q155 612 143 582Q131 552 131 522Q131 492 142 465Q153 438 173 417Q193 396 222 384Q251 372 288 372ZM253 0Q306 0 347 17Q388 34 415.5 61.5Q443 89 457 123.5Q471 158 471 192Q471 231 456 262.5Q441 294 416 315.5Q391 337 357.5 349Q324 361 287 361Q238 361 196 346.5Q154 332 123 306.5Q92 281 75 246.5Q58 212 58 172Q58 139 68 108Q78 77 101.5 53Q125 29 162 14.5Q199 0 253 0Z" glyph-name="eight.old" horiz-adv-x="542" /><glyph d="M430 154Q430 126 417.5 97Q405 68 379.5 44.5Q354 21 316 6.5Q278 -8 227 -8Q176 -8 141.5 4.5Q107 17 85 37Q63 57 53 83.5Q43 110 43 137Q43 168 55.5 194Q68 220 91.5 240.5Q115 261 146.5 274.5Q178 288 215 293Q158 307 131.5 341Q105 375 104 414Q104 441 115 467Q126 493 148 513.5Q170 534 203 546Q236 558 278 558Q316 558 346 548.5Q376 539 396 522.5Q416 506 427 484Q438 462 438 437Q438 409 426.5 385Q415 361 395 342Q375 323 348.5 310.5Q322 298 292 293Q360 280 394.5 242Q429 204 430 154ZM114 415Q114 391 124 370Q134 349 152.5 333Q171 317 197 307.5Q223 298 256 298Q292 298 323 309Q354 320 377.5 339.5Q401 359 414 384.5Q427 410 427 438Q426 484 387 516Q348 548 276 548Q237 548 206.5 536Q176 524 155.5 505.5Q135 487 124.5 463Q114 439 114 415ZM53 136Q53 111 62.5 86.5Q72 62 93 43.5Q114 25 147.5 13.5Q181 2 229 2Q276 2 312 15.5Q348 29 372 50.5Q396 72 408 99.5Q420 127 420 154Q420 185 406.5 209.5Q393 234 370 251.5Q347 269 317 278Q287 287 254 287Q210 287 173 275Q136 263 109 243Q82 223 67.5 195.5Q53 168 53 136Z" glyph-name="eight.sc" horiz-adv-x="495" /><glyph d="M231 433Q191 433 164 444Q137 455 121 473Q105 491 100 513.5Q95 536 98 559Q103 602 137.5 636Q172 670 229 678Q181 691 161 721.5Q141 752 146 784Q149 806 159.5 826.5Q170 847 188 862.5Q206 878 231 887.5Q256 897 286 897Q316 897 339 887.5Q362 878 377 862.5Q392 847 398.5 826.5Q405 806 402 784Q397 752 370 721Q343 690 290 678Q345 670 372 635.5Q399 601 394 559Q391 536 379.5 513.5Q368 491 348 473Q328 455 298.5 444Q269 433 231 433ZM261 683Q287 683 309.5 691.5Q332 700 349.5 714Q367 728 378 746.5Q389 765 392 784Q397 826 368.5 856.5Q340 887 285 887Q229 887 195 856.5Q161 826 156 784Q153 764 159.5 746Q166 728 179.5 714Q193 700 214 691.5Q235 683 261 683ZM232 443Q267 443 294 453Q321 463 340.5 479Q360 495 371 516Q382 537 384 559Q387 585 378 606Q369 627 352 642Q335 657 311.5 665Q288 673 260 673Q230 673 203.5 664.5Q177 656 157 641Q137 626 124 605Q111 584 108 559Q105 537 110.5 516Q116 495 130.5 478.5Q145 462 170 452.5Q195 443 232 443Z" glyph-name="eight.superior" horiz-adv-x="407" /><glyph d="M530 192Q530 156 515.5 120Q501 84 472 55Q443 26 400 8Q357 -10 300 -10Q243 -10 204.5 5.5Q166 21 142 46.5Q118 72 107.5 105Q97 138 97 172Q97 211 112 244Q127 277 153 302.5Q179 328 214.5 344.5Q250 361 292 367Q260 375 237 391Q214 407 199 427.5Q184 448 177 472Q170 496 170 520Q170 554 183 586.5Q196 619 221 644Q246 669 282.5 684.5Q319 700 367 700Q410 700 442.5 688Q475 676 497.5 655.5Q520 635 531.5 607.5Q543 580 543 549Q543 513 529.5 482Q516 451 493.5 428Q471 405 441 389Q411 373 377 367Q453 352 491.5 303.5Q530 255 530 192ZM180 522Q180 492 191 465Q202 438 222 417Q242 396 271 384Q300 372 337 372Q377 372 412.5 386Q448 400 474.5 424.5Q501 449 516.5 481Q532 513 532 549Q532 578 521 604Q510 630 488.5 649Q467 668 436 679Q405 690 365 690Q320 690 285.5 675Q251 660 227.5 636Q204 612 192 582Q180 552 180 522ZM107 172Q107 139 117 108Q127 77 150.5 53Q174 29 211 14.5Q248 0 302 0Q355 0 396 17Q437 34 464.5 61.5Q492 89 506 123.5Q520 158 520 192Q520 231 505 262.5Q490 294 465 315.5Q440 337 406.5 349Q373 361 336 361Q287 361 245 346.5Q203 332 172 306.5Q141 281 124 246.5Q107 212 107 172Z" glyph-name="eight.tln" horiz-adv-x="640" /><glyph d="M300 -10Q243 -10 204.5 5.5Q166 21 142 46.5Q118 72 107.5 105Q97 138 97 172Q97 211 112 244Q127 277 153 302.5Q179 328 214.5 344.5Q250 361 292 367Q260 375 237 391Q214 407 199 427.5Q184 448 177 472Q170 496 170 520Q170 554 183 586.5Q196 619 221 644Q246 669 282.5 684.5Q319 700 367 700Q410 700 442.5 688Q475 676 497.5 655.5Q520 635 531.5 607.5Q543 580 543 549Q543 513 529.5 482Q516 451 493.5 428Q471 405 441 389Q411 373 377 367Q453 352 491.5 303.5Q530 255 530 192Q530 156 515.5 120Q501 84 472 55Q443 26 400 8Q357 -10 300 -10ZM337 372Q377 372 412.5 386Q448 400 474.5 424.5Q501 449 516.5 481Q532 513 532 549Q532 578 521 604Q510 630 488.5 649Q467 668 436 679Q405 690 365 690Q320 690 285.5 675Q251 660 227.5 636Q204 612 192 582Q180 552 180 522Q180 492 191 465Q202 438 222 417Q242 396 271 384Q300 372 337 372ZM302 0Q355 0 396 17Q437 34 464.5 61.5Q492 89 506 123.5Q520 158 520 192Q520 231 505 262.5Q490 294 465 315.5Q440 337 406.5 349Q373 361 336 361Q287 361 245 346.5Q203 332 172 306.5Q141 281 124 246.5Q107 212 107 172Q107 139 117 108Q127 77 150.5 53Q174 29 211 14.5Q248 0 302 0Z" glyph-name="eight.ton" horiz-adv-x="640" /><glyph d="M97 414H493L492 404H96ZM78 254H474L473 244H77Z" glyph-name="equal" horiz-adv-x="551" unicode="=" /><glyph d="M86 334H482L481 324H85ZM67 174H463L462 164H66Z" glyph-name="equal.old" horiz-adv-x="545" /><glyph d="M90 353H443L442 342H89ZM75 225H428L427 214H74Z" glyph-name="equal.sc" horiz-adv-x="506" /><glyph d="M142 414H538L537 404H141ZM123 254H519L518 244H122Z" glyph-name="equal.tln" horiz-adv-x="640" /><glyph d="M133 334H529L528 324H132ZM114 174H510L509 164H113Z" glyph-name="equal.ton" horiz-adv-x="640" /><glyph d="M223 -10Q176 -10 143.5 7Q111 24 91 53.5Q71 83 62 122Q53 161 53 204Q53 254 66.5 305Q80 356 108 397Q136 438 180 464Q224 490 284 490Q347 490 389.5 461Q432 432 452 378Q450 463 423.5 539Q397 615 341 670L220 578H206L334 676Q277 730 192 751L193 760Q238 750 275.5 730Q313 710 342 682L438 755H452L349 676Q406 619 434 539Q462 459 462 371Q462 296 448.5 227Q435 158 406 105.5Q377 53 332 21.5Q287 -10 223 -10ZM224 0Q270 0 305.5 17.5Q341 35 368 66.5Q395 98 412.5 141Q430 184 440 235Q450 290 452 354Q413 480 283 480Q224 480 182 454Q140 428 113.5 387.5Q87 347 75 298Q63 249 63 203Q63 163 71.5 126Q80 89 98.5 61Q117 33 148 16.5Q179 0 224 0Z" glyph-name="eth" horiz-adv-x="526" unicode="&#240;" /><glyph d="M101 194Q115 304 123.5 380.5Q132 457 137 508.5Q142 560 144.5 590.5Q147 621 147.5 638.5Q148 656 148.5 664.5Q149 673 150 680Q151 691 156 696Q161 701 168 701Q173 701 178 696Q183 691 182 680Q181 673 179 664.5Q177 656 173.5 638.5Q170 621 165 590Q160 559 152.5 508Q145 457 134.5 380Q124 303 111 194ZM105 7Q105 1 99.5 -4.5Q94 -10 86 -10Q80 -10 75.5 -6.5Q71 -3 71 5Q71 13 76.5 18Q82 23 90 23Q105 23 105 7Z" glyph-name="exclam" horiz-adv-x="224" unicode="!" /><glyph d="M100 155Q116 281 123 353.5Q130 426 133 464Q136 502 136.5 515.5Q137 529 138 539Q138 549 143 554Q148 559 154 559Q159 559 163.5 554Q168 549 167 539Q166 529 162.5 515Q159 501 152.5 463Q146 425 135.5 353Q125 281 110 155ZM107 9Q107 3 102.5 -2.5Q98 -8 90 -8Q76 -8 76 6Q76 14 80.5 19Q85 24 93 24Q107 24 107 9Z" glyph-name="exclam.sc" horiz-adv-x="232" /><glyph d="M309 194Q323 304 331.5 380.5Q340 457 345 508.5Q350 560 352.5 590.5Q355 621 355.5 638.5Q356 656 356.5 664.5Q357 673 358 680Q359 691 364 696Q369 701 376 701Q381 701 386 696Q391 691 390 680Q389 673 387 664.5Q385 656 381.5 638.5Q378 621 373 590Q368 559 360.5 508Q353 457 342.5 380Q332 303 319 194ZM313 7Q313 1 307.5 -4.5Q302 -10 294 -10Q288 -10 283.5 -6.5Q279 -3 279 5Q279 13 284.5 18Q290 23 298 23Q313 23 313 7Z" glyph-name="exclam.tln" horiz-adv-x="640" /><glyph d="M105 286Q92 176 83 99.5Q74 23 69 -28.5Q64 -80 61.5 -110.5Q59 -141 58.5 -158.5Q58 -176 57.5 -184Q57 -192 56 -200Q55 -211 50 -216Q45 -221 38 -221Q33 -221 28 -216Q23 -211 24 -200Q25 -193 27 -184.5Q29 -176 32.5 -158.5Q36 -141 41 -110Q46 -79 53.5 -28Q61 23 71.5 100Q82 177 95 286ZM101 473Q101 479 106.5 484.5Q112 490 120 490Q126 490 130.5 486.5Q135 483 135 475Q135 467 129.5 462Q124 457 116 457Q101 457 101 473Z" glyph-name="exclamdown" horiz-adv-x="186" unicode="&#161;" /><glyph d="M170 496Q157 386 148 309.5Q139 233 134 181.5Q129 130 126.5 99.5Q124 69 123.5 51.5Q123 34 122.5 26Q122 18 121 10Q120 -1 115 -6Q110 -11 103 -11Q98 -11 93 -6Q88 -1 89 10Q90 18 92 26.5Q94 35 97.5 52Q101 69 106 100Q111 131 118.5 182.5Q126 234 136.5 310.5Q147 387 160 496ZM166 683Q166 689 171.5 694.5Q177 700 185 700Q191 700 195.5 696.5Q200 693 200 685Q200 677 194.5 672Q189 667 181 667Q166 667 166 683Z" glyph-name="exclamdown.cap" horiz-adv-x="264" /><glyph d="M134 543Q134 549 139 554.5Q144 560 152 560Q157 560 161.5 556.5Q166 553 166 545Q165 538 160.5 533Q156 528 148 528Q134 528 134 543ZM141 397Q125 271 118 198.5Q111 126 108 88Q105 50 105 36.5Q105 23 104 13Q103 2 98 -2.5Q93 -7 87 -7Q82 -7 77.5 -2.5Q73 2 74 13Q76 23 79 37Q82 51 88.5 89Q95 127 105.5 199Q116 271 132 397Z" glyph-name="exclamdown.sc" horiz-adv-x="231" /><glyph d="M332 286Q319 176 310 99.5Q301 23 296 -28.5Q291 -80 288.5 -110.5Q286 -141 285.5 -158.5Q285 -176 284.5 -184Q284 -192 283 -200Q282 -211 277 -216Q272 -221 265 -221Q260 -221 255 -216Q250 -211 251 -200Q252 -193 254 -184.5Q256 -176 259.5 -158.5Q263 -141 268 -110Q273 -79 280.5 -28Q288 23 298.5 100Q309 177 322 286ZM328 473Q328 479 333.5 484.5Q339 490 347 490Q353 490 357.5 486.5Q362 483 362 475Q362 467 356.5 462Q351 457 343 457Q328 457 328 473Z" glyph-name="exclamdown.tln" horiz-adv-x="640" /><glyph d="M-67 -260Q-110 -260 -133 -233.5Q-156 -207 -156 -168Q-156 -159 -152.5 -151Q-149 -143 -138 -143Q-125 -143 -125 -156Q-125 -172 -146 -172Q-144 -214 -120.5 -232Q-97 -250 -66 -250Q-39 -250 -15 -241Q9 -232 28 -209.5Q47 -187 61 -149Q75 -111 82 -52L147 470H52L53 480H148L157 552Q165 614 181.5 654Q198 694 221.5 717.5Q245 741 274.5 750.5Q304 760 336 760Q390 760 417.5 733.5Q445 707 445 668Q445 659 441.5 651Q438 643 427 643Q414 643 414 656Q414 672 435 672Q432 714 402.5 732Q373 750 335 750Q304 750 276.5 741Q249 732 227 709.5Q205 687 189.5 649Q174 611 167 552L158 480H305L304 470H157L92 -52Q84 -114 69 -154Q54 -194 33 -217.5Q12 -241 -13.5 -250.5Q-39 -260 -67 -260Z" glyph-name="f" horiz-adv-x="285" unicode="f" /><glyph d="M147 470H52L53 480H207Q151 491 118 522Q85 553 85 613Q85 648 97 675.5Q109 703 129.5 721.5Q150 740 176 750Q202 760 230 760Q284 760 313 734Q342 708 342 670Q342 641 324 641Q311 641 311 654Q311 662 317.5 666.5Q324 671 332 671Q329 714 298 732Q267 750 228 750Q202 750 178 740.5Q154 731 136 713.5Q118 696 107 670.5Q96 645 96 612Q96 543 147.5 511.5Q199 480 305 480L304 470H157L92 -52Q84 -115 69 -155.5Q54 -196 33 -219Q12 -242 -13.5 -251Q-39 -260 -67 -260Q-110 -260 -133 -233.5Q-156 -207 -156 -168Q-156 -159 -152.5 -151Q-149 -143 -138 -143Q-125 -143 -125 -156Q-125 -172 -146 -172Q-144 -214 -120.5 -232Q-97 -250 -66 -250Q-39 -250 -15 -241Q9 -232 28 -209.5Q47 -187 61 -149Q75 -111 82 -52Z" glyph-name="f.alt" horiz-adv-x="285" /><glyph d="M588 480Q549 480 517.5 466Q486 452 462 427.5Q438 403 422 369Q406 335 397 295Q392 271 389.5 245Q387 219 387 192Q387 104 428.5 52Q470 0 541 0Q592 0 630 23Q668 46 692.5 85.5Q717 125 729.5 177.5Q742 230 742 288Q742 376 700.5 428Q659 480 588 480ZM-67 -260Q-110 -260 -133 -233.5Q-156 -207 -156 -168Q-156 -159 -152.5 -151Q-149 -143 -138 -143Q-125 -143 -125 -156Q-125 -172 -146 -172Q-144 -214 -120.5 -232Q-97 -250 -66 -250Q-39 -250 -15 -241Q9 -232 28 -209.5Q47 -187 61 -149Q75 -111 82 -52L147 470H52L53 480H148L157 552Q165 614 181.5 654Q198 694 221.5 717.5Q245 741 274.5 750.5Q304 760 336 760Q371 760 397.5 754Q424 748 441 739L445 757H452L426 547L402 348Q426 412 472.5 451Q519 490 589 490Q664 490 708.5 436.5Q753 383 753 291Q753 228 740 173.5Q727 119 700.5 78Q674 37 634 13.5Q594 -10 540 -10Q472 -10 429 33.5Q386 77 378 153L358 -10H348L439 729Q417 741 390.5 745.5Q364 750 335 750Q304 750 276.5 741Q249 732 227 709.5Q205 687 189.5 649Q174 611 167 552L158 480H305L304 470H157L92 -52Q84 -114 69 -154Q54 -194 33 -217.5Q12 -241 -13.5 -250.5Q-39 -260 -67 -260Z" glyph-name="f_b" horiz-adv-x="806" /><glyph d="M588 480Q537 480 499 457Q461 434 436.5 394.5Q412 355 399.5 303Q387 251 387 192Q387 104 428.5 52Q470 0 541 0Q592 0 630 23Q668 46 692.5 85.5Q717 125 729.5 177.5Q742 230 742 288Q742 376 700.5 428Q659 480 588 480ZM52 470 53 480H221Q155 492 120 524Q85 556 85 608Q85 680 140 720Q195 760 292 760Q303 760 321 759.5Q339 759 358 758Q377 757 393.5 756.5Q410 756 417 756Q424 756 432 755.5Q440 755 445 760L452 757L428 561L402 348Q426 412 472.5 451Q519 490 589 490Q664 490 708.5 436.5Q753 383 753 291Q753 228 740 173.5Q727 119 700.5 78Q674 37 634 13.5Q594 -10 540 -10Q472 -10 429 33.5Q386 77 378 153L358 -10H348L440 742Q435 743 420.5 744Q406 745 385.5 746.5Q365 748 340.5 749Q316 750 291 750Q204 750 149.5 715Q95 680 95 609Q95 545 152.5 512.5Q210 480 311 480L310 470H157L92 -52Q84 -115 69 -155.5Q54 -196 33 -219.5Q12 -243 -13.5 -251.5Q-39 -260 -67 -260Q-110 -260 -133 -233.5Q-156 -207 -156 -168Q-156 -159 -152.5 -151Q-149 -143 -138 -143Q-125 -143 -125 -156Q-125 -172 -146 -172Q-144 -214 -120.5 -232Q-97 -250 -66 -250Q-39 -250 -15 -241Q9 -232 28 -209.5Q47 -187 61 -149Q75 -111 82 -52L147 470Z" glyph-name="f_b.alt" horiz-adv-x="806" /><glyph d="M20 0 21 10H110L175 540H86L88 550H492L475 413H465L477 510Q479 527 473.5 533.5Q468 540 452 540H185L154 286H368L377 362H386L366 198H357L367 276H153L120 10H218L217 0ZM521 10H610L675 540H586L588 550H795Q898 550 947.5 519Q997 488 997 427Q997 394 984.5 369Q972 344 951 326Q930 308 903.5 297.5Q877 287 850 282Q878 279 904 271Q930 263 950.5 248Q971 233 983.5 211Q996 189 996 157Q996 130 986.5 102Q977 74 950 51.5Q923 29 874 14.5Q825 0 747 0H520ZM685 540 654 286H796Q843 286 879 297.5Q915 309 939 328.5Q963 348 975 373.5Q987 399 987 427Q987 479 942.5 509.5Q898 540 792 540ZM653 276 620 10H747Q825 10 872 24Q919 38 944 59.5Q969 81 977 107Q985 133 985 156Q985 188 971 210.5Q957 233 932 247.5Q907 262 872 269Q837 276 795 276Z" glyph-name="f_b.alt.sc" horiz-adv-x="1056" /><glyph d="M20 0 21 10H110L175 540H86L88 550H492L475 413H465L477 510Q479 527 473.5 533.5Q468 540 452 540H185L154 286H371L370 276H153L120 10H218L217 0ZM511 10H600L665 540H576L578 550H785Q888 550 937.5 519Q987 488 987 427Q987 394 974.5 369Q962 344 941 326Q920 308 893.5 297.5Q867 287 840 282Q868 279 894 271Q920 263 940.5 248Q961 233 973.5 211Q986 189 986 157Q986 130 976.5 102Q967 74 940 51.5Q913 29 864 14.5Q815 0 737 0H510ZM675 540 644 286H786Q833 286 869 297.5Q905 309 929 328.5Q953 348 965 373.5Q977 399 977 427Q977 479 932.5 509.5Q888 540 782 540ZM643 276 610 10H737Q815 10 862 24Q909 38 934 59.5Q959 81 967 107Q975 133 975 156Q975 188 961 210.5Q947 233 922 247.5Q897 262 862 269Q827 276 785 276Z" glyph-name="f_b.sc" horiz-adv-x="1046" /><glyph d="M427 552Q433 600 444 634.5Q455 669 472 693Q442 711 408.5 720.5Q375 730 343 730Q270 730 224.5 689.5Q179 649 167 552L158 480H418ZM184 -236Q211 -236 238 -229Q265 -222 288 -202.5Q311 -183 328 -147Q345 -111 352 -52L417 470H157L92 -52Q87 -95 78 -127Q69 -159 57 -182Q66 -198 81.5 -208.5Q97 -219 115 -225Q133 -231 151.5 -233.5Q170 -236 184 -236ZM-67 -260Q-110 -260 -133 -233.5Q-156 -207 -156 -168Q-156 -159 -152.5 -151Q-149 -143 -138 -143Q-125 -143 -125 -156Q-125 -172 -146 -172Q-144 -214 -120.5 -232Q-97 -250 -66 -250Q-39 -250 -15 -241Q9 -232 28 -209.5Q47 -187 61 -149Q75 -111 82 -52L147 470H52L53 480H148L157 552Q164 606 180.5 642Q197 678 221.5 700Q246 722 277 731Q308 740 343 740Q387 740 419 729Q451 718 478 701Q503 735 535.5 747.5Q568 760 606 760Q660 760 687.5 733.5Q715 707 715 668Q715 659 711.5 651Q708 643 697 643Q684 643 684 656Q684 672 705 672Q702 714 672.5 732Q643 750 605 750Q574 750 546.5 741Q519 732 497 709.5Q475 687 459.5 649Q444 611 437 552L428 480H575L574 470H427L362 -52Q355 -113 337 -151Q319 -189 295 -210Q271 -231 242 -238.5Q213 -246 183 -246Q165 -246 145.5 -243Q126 -240 108.5 -233Q91 -226 76 -216Q61 -206 52 -192Q29 -231 -1.5 -245.5Q-32 -260 -67 -260Z" glyph-name="f_f" horiz-adv-x="555" unicode="&#64256;" /><glyph d="M477 480Q421 491 388 523.5Q355 556 355 616Q355 662 377 697Q349 716 314 723Q279 730 247 730Q219 730 192 724Q165 718 143.5 704Q122 690 109 667.5Q96 645 96 612Q96 578 110 553Q124 528 149.5 511.5Q175 495 210.5 487.5Q246 480 288 480ZM189 -196Q216 -196 243 -189Q270 -182 293 -162.5Q316 -143 333 -107Q350 -71 357 -12L417 470H157L92 -52Q84 -114 70 -153Q81 -165 95.5 -173.5Q110 -182 126.5 -187Q143 -192 159.5 -194Q176 -196 189 -196ZM188 -206Q155 -206 120.5 -195.5Q86 -185 66 -163Q43 -219 11 -239.5Q-21 -260 -60 -260Q-106 -260 -131 -233.5Q-156 -207 -156 -168Q-156 -159 -152.5 -151Q-149 -143 -138 -143Q-125 -143 -125 -156Q-125 -172 -146 -172Q-144 -214 -118.5 -232Q-93 -250 -59 -250Q-33 -250 -10 -241Q13 -232 31 -209.5Q49 -187 62 -149Q75 -111 82 -52L147 470H52L53 480H207Q151 491 118 522Q85 553 85 613Q85 648 99.5 672Q114 696 137 711Q160 726 189 733Q218 740 247 740Q332 740 383 705Q404 732 434.5 746Q465 760 500 760Q554 760 583 734Q612 708 612 670Q612 641 594 641Q581 641 581 654Q581 662 587.5 666.5Q594 671 602 671Q599 714 568 732Q537 750 498 750Q472 750 448 741Q424 732 406 715Q388 698 377 673Q366 648 366 615Q366 546 421.5 513Q477 480 575 480L574 470H427L367 -12Q360 -73 342 -111Q324 -149 300 -170Q276 -191 247 -198.5Q218 -206 188 -206Z" glyph-name="f_f.alt" horiz-adv-x="555" /><glyph d="M20 0 21 10H110L175 540H86L88 550H492L475 413H465L477 510Q479 527 473.5 533.5Q468 540 452 540H185L154 286H368L377 362H386L366 198H357L367 276H153L120 10H218L217 0ZM520 0 521 10H610L675 540H586L588 550H992L975 413H965L977 510Q979 527 973.5 533.5Q968 540 952 540H685L654 286H868L877 362H886L866 198H857L867 276H653L620 10H718L717 0Z" glyph-name="f_f.alt.sc" horiz-adv-x="989" /><glyph d="M20 0 21 10H110L175 540H86L88 550H492L475 413H465L477 510Q479 527 473.5 533.5Q468 540 452 540H185L154 286H371L370 276H153L120 10H218L217 0ZM510 0 511 10H600L665 540H576L578 550H982L965 413H955L967 510Q969 527 963.5 533.5Q958 540 942 540H675L644 286H861L860 276H643L610 10H708L707 0Z" glyph-name="f_f.sc" horiz-adv-x="977" /><glyph d="M427 552Q433 599 444 633Q455 667 470 690Q444 712 412.5 721Q381 730 343 730Q270 730 224.5 689.5Q179 649 167 552L158 480H418ZM184 -236Q211 -236 238 -229Q265 -222 288 -202.5Q311 -183 328 -147Q345 -111 352 -52L417 470H157L92 -52Q87 -95 78 -127Q69 -159 57 -182Q66 -198 81.5 -208.5Q97 -219 115 -225Q133 -231 151.5 -233.5Q170 -236 184 -236ZM-67 -260Q-110 -260 -133 -233.5Q-156 -207 -156 -168Q-156 -159 -152.5 -151Q-149 -143 -138 -143Q-125 -143 -125 -156Q-125 -172 -146 -172Q-144 -214 -120.5 -232Q-97 -250 -66 -250Q-39 -250 -15 -241Q9 -232 28 -209.5Q47 -187 61 -149Q75 -111 82 -52L147 470H52L53 480H148L157 552Q164 606 180.5 642Q197 678 221.5 700Q246 722 277 731Q308 740 343 740Q387 740 420 729.5Q453 719 476 699Q501 734 534.5 747Q568 760 606 760Q660 760 688 735.5Q716 711 716 673Q716 654 697 654Q691 654 686.5 657.5Q682 661 682 669Q682 677 688 682.5Q694 688 705 687Q699 718 672.5 734Q646 750 605 750Q574 750 546.5 741Q519 732 497 709.5Q475 687 459.5 649Q444 611 437 552L428 480H583Q615 480 633.5 480.5Q652 481 662 482Q672 483 675.5 485Q679 487 682 490L689 487L640 89Q636 58 639.5 40.5Q643 23 650.5 14Q658 5 667 2.5Q676 0 683 0Q713 0 728.5 25Q744 50 752 110H762Q754 50 737 20Q720 -10 683 -10Q672 -10 661 -6.5Q650 -3 641.5 8Q633 19 629.5 38.5Q626 58 630 90L677 470H427L362 -52Q355 -113 337 -151Q319 -189 295 -210Q271 -231 242 -238.5Q213 -246 183 -246Q165 -246 145.5 -243Q126 -240 108.5 -233Q91 -226 76 -216Q61 -206 52 -192Q29 -231 -1.5 -245.5Q-32 -260 -67 -260Z" glyph-name="f_f_i" horiz-adv-x="794" unicode="&#64259;" /><glyph d="M477 480Q421 491 388 522Q355 553 355 613Q355 660 379 691Q351 714 315.5 722Q280 730 247 730Q219 730 192 724Q165 718 143.5 704Q122 690 109 667.5Q96 645 96 612Q96 543 154 511.5Q212 480 327 480ZM189 -196Q216 -196 243 -189Q270 -182 293 -162.5Q316 -143 333 -107Q350 -71 357 -12L417 470H157L92 -52Q84 -114 70 -153Q81 -165 95.5 -173.5Q110 -182 126.5 -187Q143 -192 159.5 -194Q176 -196 189 -196ZM188 -206Q155 -206 120.5 -195.5Q86 -185 66 -163Q43 -220 9 -240Q-25 -260 -67 -260Q-110 -260 -133 -233.5Q-156 -207 -156 -168Q-156 -159 -152.5 -151Q-149 -143 -138 -143Q-125 -143 -125 -156Q-125 -172 -146 -172Q-144 -214 -120.5 -232Q-97 -250 -66 -250Q-39 -250 -15 -241Q9 -232 28 -209.5Q47 -187 61 -149Q75 -111 82 -52L147 470H52L53 480H207Q151 491 118 522Q85 553 85 613Q85 648 99.5 672Q114 696 137 711Q160 726 189 733Q218 740 247 740Q334 740 385 699Q410 728 452 744Q494 760 548 760Q586 760 616 752Q646 744 666.5 730.5Q687 717 698 699.5Q709 682 709 663Q709 638 691 638Q678 638 678 651Q678 659 684.5 663.5Q691 668 699 668Q696 683 686 697.5Q676 712 657.5 724Q639 736 611.5 743Q584 750 547 750Q464 750 415 714Q366 678 366 612Q366 578 380 553Q394 528 419.5 511.5Q445 495 480.5 487.5Q516 480 558 480Q603 480 628.5 480.5Q654 481 667.5 482Q681 483 685 485Q689 487 692 490L699 487L650 89Q646 58 649.5 40.5Q653 23 660.5 14Q668 5 677 2.5Q686 0 693 0Q723 0 738.5 25Q754 50 762 110H772Q764 50 747 20Q730 -10 693 -10Q682 -10 671 -6.5Q660 -3 651.5 8Q643 19 639.5 38.5Q636 58 640 90L687 470H427L367 -12Q360 -73 342 -111Q324 -149 300 -170Q276 -191 247 -198.5Q218 -206 188 -206Z" glyph-name="f_f_i.alt" horiz-adv-x="804" /><glyph d="M20 0 21 10H110L175 540H86L88 550H492L475 413H465L477 510Q479 527 473.5 533.5Q468 540 452 540H185L154 286H368L377 362H386L366 198H357L367 276H153L120 10H218L217 0ZM1020 0 1021 10H1110L1175 540H1086L1088 550H1276L1274 540H1185L1120 10H1209L1208 0ZM520 0 521 10H610L675 540H586L588 550H992L975 413H965L977 510Q979 527 973.5 533.5Q968 540 952 540H685L654 286H868L877 362H886L866 198H857L867 276H653L620 10H718L717 0Z" glyph-name="f_f_i.alt.sc" horiz-adv-x="1285" /><glyph d="M20 0 21 10H110L175 540H86L88 550H492L475 413H465L477 510Q479 527 473.5 533.5Q468 540 452 540H185L154 286H371L370 276H153L120 10H218L217 0ZM510 0 511 10H600L665 540H576L578 550H982L965 413H955L967 510Q969 527 963.5 533.5Q958 540 942 540H675L644 286H861L860 276H643L610 10H708L707 0ZM1000 0 1001 10H1090L1155 540H1066L1068 550H1256L1254 540H1165L1100 10H1189L1188 0Z" glyph-name="f_f_i.sc" horiz-adv-x="1265" /><glyph d="M427 552Q439 646 472 693Q445 713 410 721.5Q375 730 343 730Q270 730 224.5 689.5Q179 649 167 552L158 480H418ZM184 -250Q215 -250 242.5 -241Q270 -232 292 -209.5Q314 -187 329.5 -149Q345 -111 352 -52L417 470H157L92 -52Q86 -100 76 -134Q66 -168 52 -192Q97 -250 184 -250ZM484 -260Q435 -260 410.5 -234Q386 -208 386 -174Q386 -159 390 -151Q394 -143 405 -143Q417 -143 417 -155Q417 -164 410.5 -168.5Q404 -173 396 -173Q397 -205 418 -227.5Q439 -250 484 -250Q513 -250 534 -240.5Q555 -231 570 -210Q585 -189 594.5 -155Q604 -121 610 -72L677 470H427L362 -52Q354 -114 337 -154Q320 -194 296.5 -217.5Q273 -241 244 -250.5Q215 -260 183 -260Q132 -260 100 -243.5Q68 -227 45 -202Q23 -235 -5.5 -247.5Q-34 -260 -67 -260Q-110 -260 -133 -233.5Q-156 -207 -156 -168Q-156 -159 -152.5 -151Q-149 -143 -138 -143Q-125 -143 -125 -156Q-125 -172 -146 -172Q-144 -214 -120.5 -232Q-97 -250 -66 -250Q-39 -250 -15 -241Q9 -232 28 -209.5Q47 -187 61 -149Q75 -111 82 -52L147 470H52L53 480H148L157 552Q164 606 180.5 642Q197 678 221.5 700Q246 722 277 731Q308 740 343 740Q387 740 420.5 730Q454 720 478 702Q503 735 535.5 747.5Q568 760 606 760Q660 760 688 735.5Q716 711 716 673Q716 654 697 654Q691 654 686.5 657.5Q682 661 682 669Q682 677 688 682.5Q694 688 705 687Q699 718 672.5 734Q646 750 605 750Q574 750 546.5 741Q519 732 497 709.5Q475 687 459.5 649Q444 611 437 552L428 480H583Q616 480 634.5 480.5Q653 481 662.5 482Q672 483 675.5 485Q679 487 682 490L689 487L620 -72Q614 -125 603 -160.5Q592 -196 575.5 -218.5Q559 -241 536.5 -250.5Q514 -260 484 -260Z" glyph-name="f_f_j" horiz-adv-x="755" /><glyph d="M477 480Q421 491 388 522Q355 553 355 613Q355 660 379 691Q352 712 316 721Q280 730 247 730Q219 730 192 724Q165 718 143.5 704Q122 690 109 667.5Q96 645 96 612Q96 578 110 553Q124 528 149.5 511.5Q175 495 210.5 487.5Q246 480 288 480ZM189 -196Q216 -196 243 -189Q270 -182 293 -162.5Q316 -143 333 -107Q350 -71 357 -12L417 470H157L92 -52Q84 -114 70 -153Q81 -165 95.5 -173.5Q110 -182 126.5 -187Q143 -192 159.5 -194Q176 -196 189 -196ZM66 -163Q43 -220 9 -240Q-25 -260 -67 -260Q-110 -260 -133 -233.5Q-156 -207 -156 -168Q-156 -159 -152.5 -151Q-149 -143 -138 -143Q-125 -143 -125 -156Q-125 -172 -146 -172Q-144 -214 -120.5 -232Q-97 -250 -66 -250Q-39 -250 -15 -241Q9 -232 28 -209.5Q47 -187 61 -149Q75 -111 82 -52L147 470H52L53 480H207Q151 491 118 522Q85 553 85 613Q85 648 99.5 672Q114 696 137 711Q160 726 189 733Q218 740 247 740Q292 740 325.5 729.5Q359 719 385 699Q410 728 452 744Q494 760 548 760Q586 760 616 752Q646 744 666.5 730.5Q687 717 698 699.5Q709 682 709 663Q709 638 691 638Q678 638 678 651Q678 659 684.5 663.5Q691 668 699 668Q696 683 686 697.5Q676 712 657.5 724Q639 736 611.5 743Q584 750 547 750Q464 750 415 714Q366 678 366 612Q366 578 380 553Q394 528 419.5 511.5Q445 495 480.5 487.5Q516 480 558 480Q603 480 628.5 480.5Q654 481 667.5 482Q681 483 685 485Q689 487 692 490L699 487L640 9Q658 6 675 -5Q692 -16 704.5 -32.5Q717 -49 725 -70.5Q733 -92 733 -117Q733 -184 697 -222Q661 -260 599 -260Q542 -260 508 -234Q474 -208 474 -170Q474 -159 478.5 -150Q483 -141 492 -141Q506 -141 506 -153Q506 -161 499 -166.5Q492 -172 484 -171Q485 -206 517 -228Q549 -250 600 -250Q654 -250 688.5 -215.5Q723 -181 723 -118Q723 -94 715.5 -73.5Q708 -53 695 -37Q682 -21 665 -11.5Q648 -2 629 0L687 470H427L367 -12Q360 -73 342 -111Q324 -149 300 -170Q276 -191 247 -198.5Q218 -206 188 -206Q155 -206 120.5 -195.5Q86 -185 66 -163Z" glyph-name="f_f_j.alt" horiz-adv-x="766" /><glyph d="M20 0 21 10H110L175 540H86L88 550H492L475 413H465L477 510Q479 527 473.5 533.5Q468 540 452 540H185L154 286H368L377 362H386L366 198H357L367 276H153L120 10H218L217 0ZM1255 173Q1250 130 1239 96Q1228 62 1208 39.5Q1188 17 1158 5Q1128 -7 1085 -7Q1019 -7 981.5 22Q944 51 944 100Q944 132 963 132Q977 132 977 119Q977 110 970.5 104.5Q964 99 954 98Q954 58 988.5 30.5Q1023 3 1086 3Q1127 3 1155 14Q1183 25 1201.5 46.5Q1220 68 1230 99.5Q1240 131 1245 172L1290 541H1201L1202 551H1390L1389 541H1300ZM520 0 521 10H610L675 540H586L588 550H992L975 413H965L977 510Q979 527 973.5 533.5Q968 540 952 540H685L654 286H868L877 362H886L866 198H857L867 276H653L620 10H718L717 0Z" glyph-name="f_f_j.alt.sc" horiz-adv-x="1385" /><glyph d="M20 0 21 10H110L175 540H86L88 550H492L475 413H465L477 510Q479 527 473.5 533.5Q468 540 452 540H185L154 286H371L370 276H153L120 10H218L217 0ZM510 0 511 10H600L665 540H576L578 550H982L965 413H955L967 510Q969 527 963.5 533.5Q958 540 942 540H675L644 286H861L860 276H643L610 10H708L707 0ZM1236 172Q1231 129 1220 95Q1209 61 1189 38.5Q1169 16 1139 4Q1109 -8 1066 -8Q1000 -8 962.5 21Q925 50 925 99Q925 131 944 131Q958 131 958 118Q958 109 951.5 103.5Q945 98 935 97Q935 57 969.5 29.5Q1004 2 1067 2Q1108 2 1136 13Q1164 24 1182.5 45.5Q1201 67 1211 98.5Q1221 130 1226 171L1271 540H1182L1183 550H1371L1370 540H1281Z" glyph-name="f_f_j.sc" horiz-adv-x="1367" /><glyph d="M427 552Q433 600 444.5 634.5Q456 669 472 693Q444 715 409.5 722.5Q375 730 343 730Q270 730 224.5 689.5Q179 649 167 552L158 480H418ZM184 -236Q211 -236 238 -229Q265 -222 288 -202.5Q311 -183 328 -147Q345 -111 352 -52L417 470H157L92 -52Q87 -95 78 -127Q69 -159 57 -182Q66 -198 81.5 -208.5Q97 -219 115 -225Q133 -231 151.5 -233.5Q170 -236 184 -236ZM-67 -260Q-110 -260 -133 -233.5Q-156 -207 -156 -168Q-156 -159 -152.5 -151Q-149 -143 -138 -143Q-125 -143 -125 -156Q-125 -172 -146 -172Q-144 -214 -120.5 -232Q-97 -250 -66 -250Q-39 -250 -15 -241Q9 -232 28 -209.5Q47 -187 61 -149Q75 -111 82 -52L147 470H52L53 480H148L157 552Q164 606 180.5 642Q197 678 221.5 700Q246 722 277 731Q308 740 343 740Q429 740 478 701Q503 735 535.5 747.5Q568 760 606 760Q641 760 666 755Q691 750 711 739L715 757H722L640 89Q636 58 639.5 40.5Q643 23 650.5 14Q658 5 667 2.5Q676 0 683 0Q713 0 728.5 25Q744 50 752 110H762Q754 50 737 20Q720 -10 683 -10Q672 -10 661 -6.5Q650 -3 642 8Q634 19 630 38.5Q626 58 630 90L709 729Q687 741 660.5 745.5Q634 750 605 750Q574 750 546.5 741Q519 732 497 709.5Q475 687 459.5 649Q444 611 437 552L428 480H605L604 470H427L362 -52Q355 -113 337 -151Q319 -189 295 -210Q271 -231 242 -238.5Q213 -246 183 -246Q165 -246 145.5 -243Q126 -240 108.5 -233Q91 -226 76 -216Q61 -206 52 -192Q29 -231 -1.5 -245.5Q-32 -260 -67 -260Z" glyph-name="f_f_l" horiz-adv-x="794" unicode="&#64260;" /><glyph d="M491 480Q425 492 390 524Q355 556 355 608Q355 655 380 691Q351 714 315.5 722Q280 730 247 730Q219 730 192 724Q165 718 143.5 704Q122 690 109 667.5Q96 645 96 612Q96 578 110 553Q124 528 149.5 511.5Q175 495 210.5 487.5Q246 480 288 480ZM189 -196Q216 -196 243 -189Q270 -182 293 -162.5Q316 -143 333 -107Q350 -71 357 -12L417 470H157L92 -52Q88 -83 83.5 -108Q79 -133 71 -153Q82 -165 96.5 -173.5Q111 -182 127.5 -187Q144 -192 160 -194Q176 -196 189 -196ZM188 -206Q155 -206 121 -195.5Q87 -185 67 -163Q44 -220 11 -240Q-22 -260 -62 -260Q-107 -260 -131.5 -233.5Q-156 -207 -156 -168Q-156 -159 -152.5 -151Q-149 -143 -138 -143Q-125 -143 -125 -156Q-125 -172 -146 -172Q-144 -214 -119 -232Q-94 -250 -61 -250Q-34 -250 -11 -241Q12 -232 30 -209.5Q48 -187 61.5 -149Q75 -111 82 -52L147 470H52L53 480H207Q151 491 118 522Q85 553 85 613Q85 648 99.5 672Q114 696 137 711Q160 726 189 733Q218 740 247 740Q334 740 387 699Q413 728 457.5 744Q502 760 562 760Q573 760 591 759.5Q609 759 628 758Q647 757 663.5 756.5Q680 756 687 756Q694 756 702 755.5Q710 755 715 760L722 757L640 89Q636 58 639.5 40.5Q643 23 650.5 14Q658 5 667 2.5Q676 0 683 0Q713 0 728.5 25Q744 50 752 110H762Q754 50 737 20Q720 -10 683 -10Q672 -10 661 -6.5Q650 -3 642 8Q634 19 630 38.5Q626 58 630 90L710 742Q705 743 690.5 744Q676 745 655.5 746.5Q635 748 610.5 749Q586 750 561 750Q474 750 419.5 715Q365 680 365 609Q365 545 422.5 512.5Q480 480 581 480L580 470H427L367 -12Q360 -73 342 -111Q324 -149 300 -170Q276 -191 247 -198.5Q218 -206 188 -206Z" glyph-name="f_f_l.alt" horiz-adv-x="794" /><glyph d="M20 0 21 10H110L175 540H86L88 550H492L475 413H465L477 510Q479 527 473.5 533.5Q468 540 452 540H185L154 286H368L377 362H386L366 198H357L367 276H153L120 10H218L217 0ZM520 0 521 10H610L675 540H586L588 550H992L975 413H965L977 510Q979 527 973.5 533.5Q968 540 952 540H685L654 286H868L877 362H886L866 198H857L867 276H653L620 10H718L717 0ZM1021 10H1110L1175 540H1086L1088 550H1276L1274 540H1185L1120 10H1402Q1419 10 1425.5 17Q1432 24 1434 41L1446 141H1456L1439 0H1020Z" glyph-name="f_f_l.alt.sc" horiz-adv-x="1498" /><glyph d="M20 0 21 10H110L175 540H86L88 550H492L475 413H465L477 510Q479 527 473.5 533.5Q468 540 452 540H185L154 286H371L370 276H153L120 10H218L217 0ZM510 0 511 10H600L665 540H576L578 550H982L965 413H955L967 510Q969 527 963.5 533.5Q958 540 942 540H675L644 286H861L860 276H643L610 10H708L707 0ZM1001 10H1090L1155 540H1066L1068 550H1256L1254 540H1165L1100 10H1382Q1399 10 1405.5 17Q1412 24 1414 41L1426 141H1436L1419 0H1000Z" glyph-name="f_f_l.sc" horiz-adv-x="1478" /><glyph d="M-67 -260Q-110 -260 -133 -233.5Q-156 -207 -156 -168Q-156 -159 -152.5 -151Q-149 -143 -138 -143Q-125 -143 -125 -156Q-125 -172 -146 -172Q-144 -214 -120.5 -232Q-97 -250 -66 -250Q-39 -250 -15 -241Q9 -232 28 -209.5Q47 -187 61 -149Q75 -111 82 -52L147 470H52L53 480H148L157 552Q165 614 181.5 654Q198 694 221.5 717.5Q245 741 274.5 750.5Q304 760 336 760Q371 760 396 755Q421 750 441 739L444 757H452L433 607L403 363Q411 387 424 410Q437 433 457 450.5Q477 468 504 479Q531 490 567 490Q642 490 678.5 453.5Q715 417 714 339Q714 308 708 271.5Q702 235 694.5 197.5Q687 160 681 125Q675 90 675 62Q675 26 688.5 13Q702 0 720 0Q750 0 765.5 25Q781 50 789 110H799Q791 50 774 20Q757 -10 720 -10Q695 -10 680 7Q665 24 665 62Q665 89 671 124Q677 159 684.5 195.5Q692 232 698 269Q704 306 704 338Q704 413 669.5 446.5Q635 480 566 480Q497 480 452 433.5Q407 387 394 281L359 0H349L439 729Q417 741 390.5 745.5Q364 750 335 750Q304 750 276.5 741Q249 732 227 709.5Q205 687 189.5 649Q174 611 167 552L158 480H305L304 470H157L92 -52Q84 -114 69 -154Q54 -194 33 -217.5Q12 -241 -13.5 -250.5Q-39 -260 -67 -260Z" glyph-name="f_h" horiz-adv-x="822" /><glyph d="M440 742Q435 743 420.5 744Q406 745 385.5 746.5Q365 748 340.5 749Q316 750 291 750Q204 750 149.5 715Q95 680 95 609Q95 545 152.5 512.5Q210 480 311 480L310 470H157L92 -52Q84 -115 69 -155.5Q54 -196 33 -219.5Q12 -243 -13.5 -251.5Q-39 -260 -67 -260Q-110 -260 -133 -233.5Q-156 -207 -156 -168Q-156 -159 -152.5 -151Q-149 -143 -138 -143Q-125 -143 -125 -156Q-125 -172 -146 -172Q-144 -214 -120.5 -232Q-97 -250 -66 -250Q-39 -250 -15 -241Q9 -232 28 -209.5Q47 -187 61 -149Q75 -111 82 -52L147 470H52L53 480H221Q155 492 120 524Q85 556 85 608Q85 680 140 720Q195 760 292 760Q303 760 321 759.5Q339 759 358 758Q377 757 393.5 756.5Q410 756 417 756Q424 756 432 755.5Q440 755 445 760L452 757L432 599L403 363Q411 387 424 410Q437 433 457 450.5Q477 468 504 479Q531 490 567 490Q642 490 678.5 453.5Q715 417 714 339Q714 308 708 271.5Q702 235 694.5 197.5Q687 160 681 125Q675 90 675 62Q675 26 688.5 13Q702 0 720 0Q750 0 765.5 25Q781 50 789 110H799Q791 50 774 20Q757 -10 720 -10Q695 -10 680 7Q665 24 665 62Q665 89 671 124Q677 159 684.5 195.5Q692 232 698 269Q704 306 704 338Q704 413 669.5 446.5Q635 480 566 480Q497 480 452 433.5Q407 387 394 281L359 0H349Z" glyph-name="f_h.alt" horiz-adv-x="822" /><glyph d="M20 0 21 10H110L175 540H86L88 550H492L475 413H465L477 510Q479 527 473.5 533.5Q468 540 452 540H185L154 286H368L377 362H386L366 198H357L367 276H153L120 10H218L217 0ZM521 10H610L675 540H586L588 550H767L765 540H685L654 288H1013L1043 540H963L965 550H1144L1142 540H1053L989 10H1078L1077 0H897L898 10H979L1012 278H653L620 10H700L699 0H520Z" glyph-name="f_h.alt.sc" horiz-adv-x="1154" /><glyph d="M20 0 21 10H110L175 540H86L88 550H492L475 413H465L477 510Q479 527 473.5 533.5Q468 540 452 540H185L154 286H371L370 276H153L120 10H218L217 0ZM511 10H600L665 540H576L578 550H757L755 540H675L644 288H1003L1033 540H953L955 550H1134L1132 540H1043L979 10H1068L1067 0H887L888 10H969L1002 278H643L610 10H690L689 0H510Z" glyph-name="f_h.sc" horiz-adv-x="1144" /><glyph d="M503 671Q503 665 497.5 659.5Q492 654 484 654Q478 654 473.5 657.5Q469 661 469 669Q469 677 474.5 682Q480 687 488 687Q503 687 503 671ZM-67 -260Q-110 -260 -133 -233.5Q-156 -207 -156 -168Q-156 -159 -152.5 -151Q-149 -143 -138 -143Q-125 -143 -125 -156Q-125 -172 -146 -172Q-144 -214 -120.5 -232Q-97 -250 -66 -250Q-39 -250 -15 -241Q9 -232 28 -209.5Q47 -187 61 -149Q75 -111 82 -52L147 470H52L53 480H148L164 606Q169 648 181 677.5Q193 707 209 725.5Q225 744 244 752Q263 760 284 760Q326 760 346 735.5Q366 711 366 676Q366 654 347 654Q341 654 336.5 657.5Q332 661 332 669Q332 677 338 682.5Q344 688 356 687Q353 717 335 733.5Q317 750 285 750Q242 750 212 716Q182 682 173 605L158 480H313Q345 480 363.5 480.5Q382 481 392 482Q402 483 405.5 485Q409 487 412 490L419 487L370 89Q366 58 369.5 40.5Q373 23 380.5 14Q388 5 397 2.5Q406 0 413 0Q443 0 458.5 25Q474 50 482 110H492Q484 50 467 20Q450 -10 413 -10Q402 -10 391 -6.5Q380 -3 371.5 8Q363 19 359.5 38.5Q356 58 360 90L407 470H157L92 -52Q84 -114 69 -154Q54 -194 33 -217.5Q12 -241 -13.5 -250.5Q-39 -260 -67 -260Z" glyph-name="f_idieresis" horiz-adv-x="524" /><glyph d="M493 671Q493 665 487.5 659.5Q482 654 474 654Q468 654 463.5 657.5Q459 661 459 669Q459 677 464.5 682Q470 687 478 687Q493 687 493 671ZM-67 -260Q-110 -260 -133 -233.5Q-156 -207 -156 -168Q-156 -159 -152.5 -151Q-149 -143 -138 -143Q-125 -143 -125 -156Q-125 -172 -146 -172Q-144 -214 -120.5 -232Q-97 -250 -66 -250Q-39 -250 -15 -241Q9 -232 28 -209.5Q47 -187 61 -149Q75 -111 82 -52L147 470H52L53 480H207Q151 491 118 522Q85 553 85 613Q85 683 127.5 721.5Q170 760 238 760Q291 760 320 736.5Q349 713 349 683Q349 658 331 658Q318 658 318 671Q318 679 324.5 683.5Q331 688 339 688Q335 711 311 730.5Q287 750 237 750Q172 750 134 714Q96 678 96 612Q96 578 110 553Q124 528 149.5 511.5Q175 495 210.5 487.5Q246 480 288 480Q333 480 358.5 480.5Q384 481 397.5 482Q411 483 415 485Q419 487 422 490L429 487L380 89Q376 58 379.5 40.5Q383 23 390.5 14Q398 5 407 2.5Q416 0 423 0Q453 0 468.5 25Q484 50 492 110H502Q494 50 477 20Q460 -10 423 -10Q412 -10 401 -6.5Q390 -3 381.5 8Q373 19 369.5 38.5Q366 58 370 90L417 470H157L92 -52Q84 -115 69 -155.5Q54 -196 33 -219.5Q12 -243 -13.5 -251.5Q-39 -260 -67 -260Z" glyph-name="f_idieresis.alt" horiz-adv-x="534" /><glyph d="M20 0 21 10H110L175 540H86L88 550H492L475 413H465L477 510Q479 527 473.5 533.5Q468 540 452 540H185L154 286H368L377 362H386L366 198H357L367 276H153L120 10H218L217 0ZM781 641Q781 625 763 625Q750 625 750 639Q750 646 754.5 651Q759 656 767 656Q774 656 777.5 651.5Q781 647 781 641ZM620 641Q620 625 603 625Q589 625 589 639Q589 646 594 651Q599 656 607 656Q613 656 616.5 651.5Q620 647 620 641ZM520 0 521 10H610L675 540H586L588 550H776L774 540H685L620 10H709L708 0Z" glyph-name="f_idieresis.alt.sc" horiz-adv-x="785" /><glyph d="M20 0 21 10H110L175 540H86L88 550H492L475 413H465L477 510Q479 527 473.5 533.5Q468 540 452 540H185L154 286H371L370 276H153L120 10H218L217 0ZM771 641Q771 625 753 625Q740 625 740 639Q740 646 744.5 651Q749 656 757 656Q764 656 767.5 651.5Q771 647 771 641ZM610 641Q610 625 593 625Q579 625 579 639Q579 646 584 651Q589 656 597 656Q603 656 606.5 651.5Q610 647 610 641ZM510 0 511 10H600L665 540H576L578 550H766L764 540H675L610 10H699L698 0Z" glyph-name="f_idieresis.sc" horiz-adv-x="775" /><glyph d="M157 470 92 -52Q84 -114 69 -154Q54 -194 33 -217.5Q12 -241 -13.5 -250.5Q-39 -260 -67 -260Q-110 -260 -133 -233.5Q-156 -207 -156 -168Q-156 -159 -152.5 -151Q-149 -143 -138 -143Q-125 -143 -125 -156Q-125 -172 -146 -172Q-144 -214 -120.5 -232Q-97 -250 -66 -250Q-39 -250 -15 -241Q9 -232 28 -209.5Q47 -187 61 -149Q75 -111 82 -52L147 470H52L53 480H148L157 552Q165 614 181.5 654Q198 694 221.5 717.5Q245 741 274.5 750.5Q304 760 336 760Q390 760 418 735.5Q446 711 446 673Q446 654 427 654Q421 654 416.5 657.5Q412 661 412 669Q412 677 418 682.5Q424 688 435 687Q429 718 402.5 734Q376 750 335 750Q304 750 276.5 741Q249 732 227 709.5Q205 687 189.5 649Q174 611 167 552L158 480H313Q346 480 364.5 480.5Q383 481 392.5 482Q402 483 405.5 485Q409 487 412 490L419 487L350 -72Q344 -125 333 -160.5Q322 -196 305.5 -218.5Q289 -241 266.5 -250.5Q244 -260 214 -260Q165 -260 140.5 -234Q116 -208 116 -174Q116 -159 120 -151Q124 -143 135 -143Q147 -143 147 -155Q147 -164 140.5 -168.5Q134 -173 126 -173Q127 -205 148 -227.5Q169 -250 214 -250Q243 -250 264 -240.5Q285 -231 300 -210Q315 -189 324.5 -155Q334 -121 340 -72L407 470Z" glyph-name="f_j" horiz-adv-x="485" /><glyph d="M329 -260Q272 -260 238 -234Q204 -208 204 -170Q204 -159 208.5 -150Q213 -141 222 -141Q236 -141 236 -153Q236 -161 229 -166.5Q222 -172 214 -171Q215 -206 247 -228Q279 -250 330 -250Q384 -250 418.5 -215.5Q453 -181 453 -118Q453 -94 445.5 -73.5Q438 -53 425 -37Q412 -21 395 -11.5Q378 -2 359 0L417 470H157L92 -52Q84 -114 69 -154Q54 -194 33 -217.5Q12 -241 -13.5 -250.5Q-39 -260 -67 -260Q-110 -260 -133 -233.5Q-156 -207 -156 -168Q-156 -159 -152.5 -151Q-149 -143 -138 -143Q-125 -143 -125 -156Q-125 -172 -146 -172Q-144 -214 -120.5 -232Q-97 -250 -66 -250Q-39 -250 -15 -241Q9 -232 28 -209.5Q47 -187 61 -149Q75 -111 82 -52L147 470H52L53 480H207Q151 491 118 522Q85 553 85 613Q85 648 99 675.5Q113 703 138.5 721.5Q164 740 199.5 750Q235 760 278 760Q316 760 346 752Q376 744 396.5 730.5Q417 717 428 699.5Q439 682 439 663Q439 638 421 638Q408 638 408 651Q408 659 414.5 663.5Q421 668 429 668Q426 683 416 697.5Q406 712 387.5 724Q369 736 341.5 743Q314 750 277 750Q194 750 145 714Q96 678 96 612Q96 578 110 553Q124 528 149.5 511.5Q175 495 210.5 487.5Q246 480 288 480Q333 480 358.5 480.5Q384 481 397.5 482Q411 483 415 485Q419 487 422 490L429 487L370 9Q388 6 405 -5Q422 -16 434.5 -32.5Q447 -49 455 -70.5Q463 -92 463 -117Q463 -184 427 -222Q391 -260 329 -260Z" glyph-name="f_j.alt" horiz-adv-x="496" /><glyph d="M20 0 21 10H110L175 540H86L88 550H492L475 413H465L477 510Q479 527 473.5 533.5Q468 540 452 540H185L154 286H368L377 362H386L366 198H357L367 276H153L120 10H218L217 0ZM756 172Q751 129 740 95Q729 61 709 38.5Q689 16 659 4Q629 -8 586 -8Q520 -8 482.5 21Q445 50 445 99Q445 131 464 131Q478 131 478 118Q478 109 471.5 103.5Q465 98 455 97Q455 57 489.5 29.5Q524 2 587 2Q628 2 656 13Q684 24 702.5 45.5Q721 67 731 98.5Q741 130 746 171L791 540H702L703 550H891L890 540H801Z" glyph-name="f_j.alt.sc" horiz-adv-x="887" /><glyph d="M20 0 21 10H110L175 540H86L88 550H492L475 413H465L477 510Q479 527 473.5 533.5Q468 540 452 540H185L154 286H371L370 276H153L120 10H218L217 0ZM746 172Q741 129 730 95Q719 61 699 38.5Q679 16 649 4Q619 -8 576 -8Q510 -8 472.5 21Q435 50 435 99Q435 131 454 131Q468 131 468 118Q468 109 461.5 103.5Q455 98 445 97Q445 57 479.5 29.5Q514 2 577 2Q618 2 646 13Q674 24 692.5 45.5Q711 67 721 98.5Q731 130 736 171L781 540H692L693 550H881L880 540H791Z" glyph-name="f_j.sc" horiz-adv-x="877" /><glyph d="M-67 -260Q-110 -260 -133 -233.5Q-156 -207 -156 -168Q-156 -159 -152.5 -151Q-149 -143 -138 -143Q-125 -143 -125 -156Q-125 -172 -146 -172Q-144 -214 -120.5 -232Q-97 -250 -66 -250Q-39 -250 -15 -241Q9 -232 28 -209.5Q47 -187 61 -149Q75 -111 82 -52L147 470H52L53 480H148L157 552Q165 614 181.5 654Q198 694 221.5 717.5Q245 741 274.5 750.5Q304 760 336 760Q371 760 396 755Q421 750 441 739L445 757H452L432 594L400 335Q410 364 424.5 391.5Q439 419 461 441Q483 463 514.5 476.5Q546 490 589 490Q642 490 672.5 460.5Q703 431 703 378Q703 347 691 319.5Q679 292 654 271.5Q629 251 592.5 239Q556 227 506 227L652 10H703L702 0H647L494 227L496 237Q547 237 584 248Q621 259 645 278Q669 297 680.5 323Q692 349 692 378Q692 425 665 452.5Q638 480 588 480Q500 480 451 413Q402 346 388 231L359 0H349L439 729Q417 741 390.5 745.5Q364 750 335 750Q304 750 276.5 741Q249 732 227 709.5Q205 687 189.5 649Q174 611 167 552L158 480H305L304 470H157L92 -52Q84 -114 69 -154Q54 -194 33 -217.5Q12 -241 -13.5 -250.5Q-39 -260 -67 -260Z" glyph-name="f_k" horiz-adv-x="759" /><glyph d="M684 470H417L380 164ZM-67 -260Q-110 -260 -133 -233.5Q-156 -207 -156 -168Q-156 -159 -152.5 -151Q-149 -143 -138 -143Q-125 -143 -125 -156Q-125 -172 -146 -172Q-144 -214 -120.5 -232Q-97 -250 -66 -250Q-39 -250 -15 -241Q9 -232 28 -209.5Q47 -187 61 -149Q75 -111 82 -52L147 470H52L53 480H221Q155 492 120 524Q85 556 85 608Q85 680 140 720Q195 760 292 760Q303 760 321 759.5Q339 759 358 758Q377 757 393.5 756.5Q410 756 417 756Q424 756 432 755.5Q440 755 445 760L452 757L418 480H699L698 470L491 262L654 10H705L703 0H648L483 254L378 149L360 0H350L440 742Q435 743 420.5 744Q406 745 385.5 746.5Q365 748 340.5 749Q316 750 291 750Q204 750 149.5 715Q95 680 95 609Q95 545 152.5 512.5Q210 480 311 480L310 470H157L92 -52Q84 -115 69 -155Q54 -195 33 -218.5Q12 -242 -13.5 -251Q-39 -260 -67 -260Z" glyph-name="f_k.alt" horiz-adv-x="727" /><glyph d="M20 0 21 10H110L175 540H86L88 550H492L475 413H465L477 510Q479 527 473.5 533.5Q468 540 452 540H185L154 286H368L377 362H386L366 198H357L367 276H153L120 10H218L217 0ZM641 178 1037 540H685ZM520 0 521 10H610L675 540H586L588 550H1051L1049 540L800 312L990 10H1062L1061 0H897L898 10H980L793 306L639 165L620 10H709L708 0Z" glyph-name="f_k.alt.sc" horiz-adv-x="1083" /><glyph d="M20 0 21 10H110L175 540H86L88 550H492L475 413H465L477 510Q479 527 473.5 533.5Q468 540 452 540H185L154 286H371L370 276H153L120 10H218L217 0ZM510 0 511 10H600L665 540H576L578 550H766L764 540H675L631 180L1010 540H930L932 550H1095L1093 540H1022L792 320L980 10H1052L1051 0H887L888 10H969L785 313L629 166L610 10H699L698 0Z" glyph-name="f_k.sc" horiz-adv-x="1087" /><glyph d="M385 480Q402 480 409.5 484.5Q417 489 419 506L436 648Q441 693 413 721.5Q385 750 335 750Q304 750 276.5 741Q249 732 227 709.5Q205 687 189.5 649Q174 611 167 552L158 480ZM-67 -260Q-110 -260 -133 -233.5Q-156 -207 -156 -168Q-156 -159 -152.5 -151Q-149 -143 -138 -143Q-125 -143 -125 -156Q-125 -172 -146 -172Q-144 -214 -120.5 -232Q-97 -250 -66 -250Q-39 -250 -15 -241Q9 -232 28 -209.5Q47 -187 61 -149Q75 -111 82 -52L147 470H52L53 480H148L157 552Q165 614 181.5 654Q198 694 221.5 717.5Q245 741 274.5 750.5Q304 760 336 760Q388 760 419.5 728.5Q451 697 445 647L425 480H649L648 470H424L385 149Q376 77 403 38.5Q430 0 484 0Q539 0 572.5 34.5Q606 69 616 156H626Q615 67 580.5 28.5Q546 -10 482 -10Q424 -10 394.5 29.5Q365 69 374 142L414 470H157L92 -52Q84 -114 69 -154Q54 -194 33 -217.5Q12 -241 -13.5 -250.5Q-39 -260 -67 -260Z" glyph-name="f_t" horiz-adv-x="659" /><glyph d="M407 480Q413 528 412 576.5Q411 625 394 663.5Q377 702 340.5 726Q304 750 239 750Q202 750 175 739Q148 728 130.5 709Q113 690 104.5 665Q96 640 96 613Q96 546 147.5 513Q199 480 300 480ZM52 470 53 480H207Q153 490 119.5 521.5Q86 553 86 613Q86 644 95.5 670.5Q105 697 124.5 717Q144 737 172.5 748.5Q201 760 239 760Q296 760 331.5 741Q367 722 387.5 693Q408 664 415 629.5Q422 595 422 563Q429 593 438.5 617.5Q448 642 460 664.5Q472 687 487.5 709Q503 731 522 755L528 750Q508 726 490.5 699Q473 672 458.5 639.5Q444 607 433.5 568Q423 529 417 480H641L640 470H416L376 149Q367 77 394.5 38.5Q422 0 476 0Q531 0 564.5 34.5Q598 69 608 156H618Q607 67 572.5 28.5Q538 -10 474 -10Q416 -10 386 29.5Q356 69 365 142L406 470H157L92 -52Q84 -114 69 -154Q54 -194 33 -217.5Q12 -241 -13.5 -250.5Q-39 -260 -67 -260Q-110 -260 -133 -233.5Q-156 -207 -156 -168Q-156 -159 -152.5 -151Q-149 -143 -138 -143Q-125 -143 -125 -156Q-125 -172 -146 -172Q-144 -214 -120.5 -232Q-97 -250 -66 -250Q-39 -250 -15 -241Q9 -232 28 -209.5Q47 -187 61 -149Q75 -111 82 -52L147 470Z" glyph-name="f_t.alt" horiz-adv-x="651" /><glyph d="M20 0 21 10H110L175 540H86L88 550H492L475 413H465L477 510Q479 527 473.5 533.5Q468 540 452 540H185L154 286H368L377 362H386L366 198H357L367 276H153L120 10H218L217 0ZM666 10H755L820 540H632Q614 540 608 534Q602 528 600 510L585 391H576L596 550H1056L1036 391H1027L1042 510Q1044 528 1039.5 534Q1035 540 1017 540H830L765 10H854L853 0H665Z" glyph-name="f_t.alt.sc" horiz-adv-x="1052" /><glyph d="M20 0 21 10H110L175 540H86L88 550H492L475 413H465L477 510Q479 527 473.5 533.5Q468 540 452 540H185L154 286H371L370 276H153L120 10H218L217 0ZM656 10H745L810 540H622Q604 540 598 534Q592 528 590 510L575 391H566L586 550H1046L1026 391H1017L1032 510Q1034 528 1029.5 534Q1025 540 1007 540H820L755 10H844L843 0H655Z" glyph-name="f_t.sc" horiz-adv-x="1042" /><glyph d="M-67 -260Q-110 -260 -133 -233.5Q-156 -207 -156 -168Q-156 -159 -152.5 -151Q-149 -143 -138 -143Q-125 -143 -125 -156Q-125 -172 -146 -172Q-144 -214 -120.5 -232Q-97 -250 -66 -250Q-39 -250 -15 -241Q9 -232 28 -209.5Q47 -187 61 -149Q75 -111 82 -52L147 470H52L53 480H148L157 552Q165 614 181.5 654Q198 694 221.5 717.5Q245 741 274.5 750.5Q304 760 336 760Q390 760 418 735.5Q446 711 446 673Q446 654 427 654Q421 654 416.5 657.5Q412 661 412 669Q412 677 418 682.5Q424 688 435 687Q429 718 402.5 734Q376 750 335 750Q304 750 276.5 741Q249 732 227 709.5Q205 687 189.5 649Q174 611 167 552L158 480H313Q345 480 363.5 480.5Q382 481 392 482Q402 483 405.5 485Q409 487 412 490L419 487L370 89Q366 58 369.5 40.5Q373 23 380.5 14Q388 5 397 2.5Q406 0 413 0Q443 0 458.5 25Q474 50 482 110H492Q484 50 467 20Q450 -10 413 -10Q402 -10 391 -6.5Q380 -3 371.5 8Q363 19 359.5 38.5Q356 58 360 90L407 470H157L92 -52Q84 -114 69 -154Q54 -194 33 -217.5Q12 -241 -13.5 -250.5Q-39 -260 -67 -260Z" glyph-name="fi" horiz-adv-x="524" unicode="&#64257;" /><glyph d="M-67 -260Q-110 -260 -133 -233.5Q-156 -207 -156 -168Q-156 -159 -152.5 -151Q-149 -143 -138 -143Q-125 -143 -125 -156Q-125 -172 -146 -172Q-144 -214 -120.5 -232Q-97 -250 -66 -250Q-39 -250 -15 -241Q9 -232 28 -209.5Q47 -187 61 -149Q75 -111 82 -52L147 470H52L53 480H207Q151 491 118 522Q85 553 85 613Q85 648 99 675.5Q113 703 138.5 721.5Q164 740 199.5 750Q235 760 278 760Q316 760 346 752Q376 744 396.5 730.5Q417 717 428 699.5Q439 682 439 663Q439 638 421 638Q408 638 408 651Q408 659 414.5 663.5Q421 668 429 668Q426 683 416 697.5Q406 712 387.5 724Q369 736 341.5 743Q314 750 277 750Q194 750 145 714Q96 678 96 612Q96 578 110 553Q124 528 149 511.5Q174 495 208.5 487.5Q243 480 284 480Q344 480 380.5 481.5Q417 483 422 490L429 487L380 89Q376 58 379.5 40.5Q383 23 390.5 14Q398 5 407 2.5Q416 0 423 0Q453 0 468.5 25Q484 50 492 110H502Q494 50 477 20Q460 -10 423 -10Q412 -10 401 -6.5Q390 -3 381.5 8Q373 19 369.5 38.5Q366 58 370 90L417 470H157L92 -52Q84 -115 69 -155.5Q54 -196 33 -219.5Q12 -243 -13.5 -251.5Q-39 -260 -67 -260Z" glyph-name="fi.alt" horiz-adv-x="534" /><glyph d="M20 0 21 10H110L175 540H86L88 550H492L475 413H465L477 510Q479 527 473.5 533.5Q468 540 452 540H185L154 286H368L377 362H386L366 198H357L367 276H153L120 10H218L217 0ZM520 0 521 10H610L675 540H586L588 550H776L774 540H685L620 10H709L708 0Z" glyph-name="fi.alt.sc" horiz-adv-x="785" /><glyph d="M20 0 21 10H110L175 540H86L88 550H492L475 413H465L477 510Q479 527 473.5 533.5Q468 540 452 540H185L154 286H371L370 276H153L120 10H218L217 0ZM510 0 511 10H600L665 540H576L578 550H766L764 540H675L610 10H699L698 0Z" glyph-name="fi.sc" horiz-adv-x="775" /><glyph d="M457 245Q457 195 441 149Q425 103 395 67.5Q365 32 321 11Q277 -10 220 -10Q179 -10 145.5 1Q112 12 88 31.5Q64 51 51 77Q38 103 38 133Q38 147 43 155Q48 163 59 163Q74 163 74 148Q74 141 68 134Q62 127 50 126Q53 92 70 68Q87 44 111.5 29Q136 14 165 7Q194 0 221 0Q275 0 317 20Q359 40 388 74Q417 108 432 152.5Q447 197 447 245Q447 322 404 369.5Q361 417 278 417Q156 417 93 325H84L177 690H483L482 680H185L100 350Q130 388 177 407.5Q224 427 278 427Q364 427 410.5 377Q457 327 457 245Z" glyph-name="five" horiz-adv-x="510" unicode="5" /><glyph d="M137 -147Q173 -147 200.5 -134.5Q228 -122 247.5 -100.5Q267 -79 277 -50Q287 -21 287 12Q287 62 257 91Q227 120 174 120Q133 120 101 105Q69 90 49 63H40L101 300H314L313 290H108L54 81Q72 103 104 116.5Q136 130 175 130Q234 130 265.5 96.5Q297 63 297 11Q297 -22 286.5 -52.5Q276 -83 255.5 -106.5Q235 -130 205.5 -143.5Q176 -157 137 -157Q79 -157 44 -131.5Q9 -106 9 -69Q9 -59 12.5 -51Q16 -43 26 -43Q37 -43 37 -55Q37 -71 19 -73Q24 -109 58 -128Q92 -147 137 -147Z" glyph-name="five.inferior" horiz-adv-x="353" /><glyph d="M192 -180Q151 -180 117.5 -169Q84 -158 60 -138.5Q36 -119 23 -93Q10 -67 10 -37Q10 -23 15 -15Q20 -7 31 -7Q46 -7 46 -22Q46 -29 40 -36Q34 -43 22 -44Q25 -79 42 -103Q59 -127 83.5 -142Q108 -157 137 -163.5Q166 -170 193 -170Q247 -170 289 -150.5Q331 -131 360 -99Q389 -67 404 -24Q419 19 419 65Q419 142 375.5 189.5Q332 237 245 237Q188 237 141 217Q94 197 65 155H56L145 480H451L449 470H152L72 178Q103 213 148.5 230Q194 247 245 247Q335 247 382 197Q429 147 429 65Q429 17 413 -27.5Q397 -72 367 -106Q337 -140 293 -160Q249 -180 192 -180Z" glyph-name="five.old" horiz-adv-x="497" /><glyph d="M406 196Q407 156 393.5 119.5Q380 83 353.5 54.5Q327 26 288 9Q249 -8 198 -8Q161 -8 131 1Q101 10 79 26Q57 42 45 62.5Q33 83 33 105Q33 117 37.5 124.5Q42 132 52 132Q66 132 66 118Q66 112 60.5 105.5Q55 99 44 98Q47 72 62.5 54Q78 36 100.5 24.5Q123 13 148.5 7.5Q174 2 198 2Q246 2 283.5 18Q321 34 346 61Q371 88 384 123Q397 158 396 196Q395 257 356.5 294Q318 331 244 331Q135 331 81 260H72L151 550H424L423 538H158L88 283Q115 311 155.5 326Q196 341 244 341Q321 341 363 301Q405 261 406 196Z" glyph-name="five.sc" horiz-adv-x="463" /><glyph d="M208 443Q244 443 271.5 455.5Q299 468 318.5 489.5Q338 511 348 540Q358 569 358 602Q358 652 328 681Q298 710 245 710Q204 710 172 695Q140 680 120 653H111L172 890H385L384 880H179L125 671Q143 693 175 706.5Q207 720 246 720Q305 720 336.5 686.5Q368 653 368 601Q368 568 357.5 537.5Q347 507 326.5 483.5Q306 460 276.5 446.5Q247 433 208 433Q150 433 115 458.5Q80 484 80 521Q80 531 83.5 539Q87 547 97 547Q108 547 108 535Q108 519 90 517Q95 481 129 462Q163 443 208 443Z" glyph-name="five.superior" horiz-adv-x="363" /><glyph d="M522 245Q522 195 506 149Q490 103 460 67.5Q430 32 386 11Q342 -10 285 -10Q244 -10 210.5 1Q177 12 153 31.5Q129 51 116 77Q103 103 103 133Q103 147 108 155Q113 163 124 163Q139 163 139 148Q139 141 133 134Q127 127 115 126Q118 92 135 68Q152 44 176.5 29Q201 14 230 7Q259 0 286 0Q340 0 382 20Q424 40 453 74Q482 108 497 152.5Q512 197 512 245Q512 322 469 369.5Q426 417 343 417Q221 417 158 325H149L242 690H548L547 680H250L165 350Q195 388 242 407.5Q289 427 343 427Q429 427 475.5 377Q522 327 522 245Z" glyph-name="five.tln" horiz-adv-x="640" /><glyph d="M263 -180Q222 -180 188.5 -169Q155 -158 131 -138.5Q107 -119 94 -93Q81 -67 81 -37Q81 -23 86 -15Q91 -7 102 -7Q117 -7 117 -22Q117 -29 111 -36Q105 -43 93 -44Q96 -79 113 -103Q130 -127 154.5 -142Q179 -157 208 -163.5Q237 -170 264 -170Q318 -170 360 -150.5Q402 -131 431 -99Q460 -67 475 -24Q490 19 490 65Q490 142 446.5 189.5Q403 237 316 237Q259 237 212 217Q165 197 136 155H127L216 480H522L520 470H223L143 178Q174 213 219.5 230Q265 247 316 247Q406 247 453 197Q500 147 500 65Q500 17 484 -27.5Q468 -72 438 -106Q408 -140 364 -160Q320 -180 263 -180Z" glyph-name="five.ton" horiz-adv-x="640" /><glyph d="M-67 -260Q-110 -260 -133 -233.5Q-156 -207 -156 -168Q-156 -159 -152.5 -151Q-149 -143 -138 -143Q-125 -143 -125 -156Q-125 -172 -146 -172Q-144 -214 -120.5 -232Q-97 -250 -66 -250Q-39 -250 -15 -242.5Q9 -235 27.5 -213.5Q46 -192 60 -153Q74 -114 82 -52L147 470H52L53 480H148L157 552Q165 614 181.5 654Q198 694 221.5 717.5Q245 741 274.5 750.5Q304 760 336 760Q371 760 396 755Q421 750 441 739L445 757H452L370 89Q366 58 369.5 40.5Q373 23 380.5 14Q388 5 397 2.5Q406 0 413 0Q443 0 458.5 25Q474 50 482 110H492Q484 50 467 20Q450 -10 413 -10Q402 -10 391 -6.5Q380 -3 372 8Q364 19 360 38.5Q356 58 360 90L439 729Q417 741 390.5 745.5Q364 750 335 750Q304 750 276.5 741Q249 732 227 709.5Q205 687 189.5 649Q174 611 167 552L158 480H305L304 470H157L92 -52Q84 -118 68.5 -158.5Q53 -199 32.5 -221.5Q12 -244 -13.5 -252Q-39 -260 -67 -260Z" glyph-name="fl" horiz-adv-x="524" unicode="&#64258;" /><glyph d="M440 742Q435 743 420.5 744Q406 745 385.5 746.5Q365 748 340.5 749Q316 750 291 750Q204 750 149.5 715Q95 680 95 609Q95 545 152.5 512.5Q210 480 311 480L310 470H157L92 -52Q84 -116 69 -156.5Q54 -197 33 -220Q12 -243 -13.5 -251.5Q-39 -260 -67 -260Q-110 -260 -133 -233.5Q-156 -207 -156 -168Q-156 -159 -152.5 -151Q-149 -143 -138 -143Q-125 -143 -125 -156Q-125 -172 -146 -172Q-144 -214 -120.5 -232Q-97 -250 -66 -250Q-39 -250 -15 -241Q9 -232 28 -209.5Q47 -187 61 -149Q75 -111 82 -52L147 470H52L53 480H221Q155 492 120 524Q85 556 85 608Q85 680 140 720Q195 760 292 760Q303 760 321 759.5Q339 759 358 758Q377 757 393.5 756.5Q410 756 417 756Q424 756 432 755.5Q440 755 445 760L452 757L370 89Q366 58 369.5 40.5Q373 23 380.5 14Q388 5 397 2.5Q406 0 413 0Q443 0 458.5 25Q474 50 482 110H492Q484 50 467 20Q450 -10 413 -10Q402 -10 391 -6.5Q380 -3 372 8Q364 19 360 38.5Q356 58 360 90Z" glyph-name="fl.alt" horiz-adv-x="524" /><glyph d="M20 0 21 10H110L175 540H86L88 550H492L475 413H465L477 510Q479 527 473.5 533.5Q468 540 452 540H185L154 286H368L377 362H386L366 198H357L367 276H153L120 10H218L217 0ZM521 10H610L675 540H586L588 550H776L774 540H685L620 10H902Q919 10 925.5 17Q932 24 934 41L946 141H956L939 0H520Z" glyph-name="fl.alt.sc" horiz-adv-x="998" /><glyph d="M20 0 21 10H110L175 540H86L88 550H492L475 413H465L477 510Q479 527 473.5 533.5Q468 540 452 540H185L154 286H371L370 276H153L120 10H218L217 0ZM521 10H610L675 540H586L588 550H776L774 540H685L620 10H902Q919 10 925.5 17Q932 24 934 41L946 141H956L939 0H520Z" glyph-name="fl.sc" horiz-adv-x="998" /><glyph d="M245 0 246 10H356L383 225H23L24 235L441 700H451L394 235H494L493 225H393L366 10H466L465 0ZM439 683 37 235H384Z" glyph-name="four" horiz-adv-x="539" unicode="4" /><glyph d="M163 -150 164 -140H239L253 -25H7L8 -17L295 305H304L265 -15H332L330 -25H263L249 -140H316L315 -150ZM292 288 23 -15H255Z" glyph-name="four.inferior" horiz-adv-x="372" /><glyph d="M302 -170 323 0H-7L-5 10L384 490H394L335 10H435L433 0H333L312 -170ZM325 10 381 471 8 10Z" glyph-name="four.old" horiz-adv-x="483" /><glyph d="M222 0 223 10H321L342 178H21L22 187L389 557H398L353 188H442L441 178H352L331 10H420L419 0ZM386 540 37 188H343Z" glyph-name="four.sc" horiz-adv-x="492" /><glyph d="M223 440 224 450H299L313 565H67L68 573L355 895H364L325 575H392L390 565H323L309 450H376L375 440ZM352 878 83 575H315Z" glyph-name="four.superior" horiz-adv-x="382" /><glyph d="M296 0 297 10H407L434 225H74L75 235L492 700H502L445 235H545L544 225H444L417 10H517L516 0ZM490 683 88 235H435Z" glyph-name="four.tln" horiz-adv-x="640" /><glyph d="M373 -170 394 0H64L66 10L455 490H465L406 10H506L504 0H404L383 -170ZM396 10 452 471 79 10Z" glyph-name="four.ton" horiz-adv-x="640" /><glyph d="M421 -104Q421 -143 404 -172.5Q387 -202 356.5 -221.5Q326 -241 284.5 -250.5Q243 -260 193 -260Q154 -260 118.5 -253Q83 -246 57 -231Q31 -216 15.5 -191.5Q0 -167 0 -132Q0 -78 41 -39.5Q82 -1 153 6Q104 9 73.5 26.5Q43 44 43 86Q43 108 54.5 124Q66 140 85 150.5Q104 161 130 167Q156 173 184 174Q126 183 100.5 221.5Q75 260 75 307Q75 345 89.5 378Q104 411 129.5 436Q155 461 191 475.5Q227 490 269 490Q309 490 343 480H492L491 470H362Q396 449 410 419Q424 389 424 356Q424 319 412 284.5Q400 250 376 224Q352 198 315.5 182.5Q279 167 229 167Q138 167 95.5 145.5Q53 124 53 86Q53 68 61 54Q69 40 89.5 30.5Q110 21 145.5 15.5Q181 10 235 10Q333 10 377 -20Q421 -50 421 -104ZM85 307Q85 248 123.5 212.5Q162 177 231 177Q276 177 310.5 191.5Q345 206 368 231Q391 256 402.5 288Q414 320 414 355Q414 414 377.5 447Q341 480 271 480Q229 480 195 466Q161 452 136.5 428.5Q112 405 98.5 373.5Q85 342 85 307ZM10 -132Q10 -164 25.5 -186.5Q41 -209 66.5 -223Q92 -237 125 -243.5Q158 -250 194 -250Q241 -250 281 -240.5Q321 -231 350 -213Q379 -195 395 -167.5Q411 -140 411 -104Q411 -83 402.5 -64Q394 -45 374 -31Q354 -17 319.5 -8.5Q285 0 234 0H164Q124 -5 94.5 -17.5Q65 -30 46.5 -48Q28 -66 19 -87.5Q10 -109 10 -132Z" glyph-name="g" horiz-adv-x="479" unicode="g" /><glyph d="M686 691Q686 685 680.5 679.5Q675 674 667 674Q661 674 656.5 677.5Q652 681 652 689Q652 697 657.5 702Q663 707 671 707Q686 707 686 691ZM456 -260Q390 -260 352 -224Q322 -242 281.5 -251Q241 -260 193 -260Q154 -260 118.5 -253Q83 -246 57 -231Q31 -216 15.5 -191.5Q0 -167 0 -132Q0 -78 41 -39.5Q82 -1 153 6Q104 9 73.5 26.5Q43 44 43 86Q43 108 54.5 124Q66 140 85 150.5Q104 161 130 167Q156 173 184 174Q126 183 100.5 221.5Q75 260 75 307Q75 345 89.5 378Q104 411 129.5 436Q155 461 191 475.5Q227 490 269 490Q309 490 343 480H565Q598 480 616.5 480.5Q635 481 644.5 482Q654 483 657.5 485Q661 487 664 490L671 487L602 -72Q596 -125 584 -160.5Q572 -196 554.5 -218.5Q537 -241 512.5 -250.5Q488 -260 456 -260ZM85 307Q85 248 123.5 212.5Q162 177 231 177Q276 177 310.5 191.5Q345 206 368 231Q391 256 402.5 288Q414 320 414 355Q414 414 377.5 447Q341 480 271 480Q229 480 195 466Q161 452 136.5 428.5Q112 405 98.5 373.5Q85 342 85 307ZM456 -250Q518 -250 549 -210Q580 -170 592 -72L659 470H362Q396 449 410 419Q424 389 424 356Q424 319 412 284.5Q400 250 376 224Q352 198 315.5 182.5Q279 167 229 167Q138 167 95.5 145.5Q53 124 53 86Q53 68 61 54Q69 40 89.5 30.5Q110 21 145.5 15.5Q181 10 235 10Q333 10 377 -20Q421 -50 421 -104Q421 -142 405.5 -170Q390 -198 361 -218Q380 -234 402.5 -242Q425 -250 456 -250ZM10 -132Q10 -164 25.5 -186.5Q41 -209 66.5 -223Q92 -237 125 -243.5Q158 -250 194 -250Q241 -250 281 -240.5Q321 -231 350 -213Q379 -195 395 -167.5Q411 -140 411 -104Q411 -83 402.5 -64Q394 -45 374 -31Q354 -17 319.5 -8.5Q285 0 234 0H164Q124 -5 94.5 -17.5Q65 -30 46.5 -48Q28 -66 19 -87.5Q10 -109 10 -132Z" glyph-name="g_j" horiz-adv-x="737" /><glyph d="M676 691Q676 685 670.5 679.5Q665 674 657 674Q651 674 646.5 677.5Q642 681 642 689Q642 697 647.5 702Q653 707 661 707Q676 707 676 691ZM542 -260Q479 -260 441 -241Q403 -222 383 -200Q353 -230 304 -245Q255 -260 193 -260Q154 -260 118.5 -253Q83 -246 57 -231Q31 -216 15.5 -191.5Q0 -167 0 -132Q0 -78 41 -39.5Q82 -1 153 6Q104 9 73.5 26.5Q43 44 43 86Q43 108 54.5 124Q66 140 85 150.5Q104 161 130 167Q156 173 184 174Q126 183 100.5 221.5Q75 260 75 307Q75 345 89.5 378Q104 411 129.5 436Q155 461 191 475.5Q227 490 269 490Q309 490 343 480H555Q588 480 606.5 480.5Q625 481 634.5 482Q644 483 647.5 485Q651 487 654 490L661 487L602 9Q638 2 666.5 -27.5Q695 -57 695 -107Q695 -174 656.5 -217Q618 -260 542 -260ZM85 307Q85 248 123.5 212.5Q162 177 231 177Q276 177 310.5 191.5Q345 206 368 231Q391 256 402.5 288Q414 320 414 355Q414 414 377.5 447Q341 480 271 480Q229 480 195 466Q161 452 136.5 428.5Q112 405 98.5 373.5Q85 342 85 307ZM543 -250Q612 -250 648.5 -210.5Q685 -171 685 -108Q685 -60 657 -31.5Q629 -3 591 0L649 470H362Q396 449 410 419Q424 389 424 356Q424 319 412 284.5Q400 250 376 224Q352 198 315.5 182.5Q279 167 229 167Q138 167 95.5 145.5Q53 124 53 86Q53 68 61 54Q69 40 89.5 30.5Q110 21 145.5 15.5Q181 10 235 10Q333 10 377 -20Q421 -50 421 -104Q421 -157 390 -193Q408 -214 444 -232Q480 -250 543 -250ZM10 -132Q10 -164 25.5 -186.5Q41 -209 66.5 -223Q92 -237 125 -243.5Q158 -250 194 -250Q241 -250 281 -240.5Q321 -231 350 -213Q379 -195 395 -167.5Q411 -140 411 -104Q411 -83 402.5 -64Q394 -45 374 -31Q354 -17 319.5 -8.5Q285 0 234 0H164Q124 -5 94.5 -17.5Q65 -30 46.5 -48Q28 -66 19 -87.5Q10 -109 10 -132Z" glyph-name="g_j.alt" horiz-adv-x="728" /><glyph d="M472 55Q454 36 431 23.5Q408 11 384.5 4Q361 -3 338 -5.5Q315 -8 296 -8Q230 -8 184 10.5Q138 29 109.5 60.5Q81 92 68 135.5Q55 179 55 228Q55 285 72.5 343.5Q90 402 125.5 450Q161 498 215 528Q269 558 342 558Q424 558 466 530Q508 502 517 452L529 557H539L519 395H509Q510 401 510 406.5Q510 412 510 418Q510 486 466 517Q422 548 341 548Q271 548 219.5 518.5Q168 489 133.5 442.5Q99 396 82 339.5Q65 283 65 228Q65 120 123.5 61Q182 2 297 2Q314 2 335.5 4.5Q357 7 380.5 14Q404 21 428 34Q452 47 473 69L492 220H367L368 230H583L582 220H502L474 -8H465ZM620 0 621 10H710L775 540H686L688 550H876L874 540H785L720 10H809L808 0Z" glyph-name="g_j.alt.sc" horiz-adv-x="867" /><glyph d="M472 55Q454 36 431 23.5Q408 11 384.5 4Q361 -3 338 -5.5Q315 -8 296 -8Q230 -8 184 10.5Q138 29 109.5 60.5Q81 92 68 135.5Q55 179 55 228Q55 285 72.5 343.5Q90 402 125.5 450Q161 498 215 528Q269 558 342 558Q424 558 466 530Q508 502 517 452L529 557H539L519 395H509Q510 401 510 406.5Q510 412 510 418Q510 486 466 517Q422 548 341 548Q271 548 219.5 518.5Q168 489 133.5 442.5Q99 396 82 339.5Q65 283 65 228Q65 120 123.5 61Q182 2 297 2Q314 2 335.5 4.5Q357 7 380.5 14Q404 21 428 34Q452 47 473 69L492 220H367L368 230H583L582 220H502L474 -8H465ZM620 0 621 10H710L775 540H686L688 550H876L874 540H785L720 10H809L808 0Z" glyph-name="g_j.sc" horiz-adv-x="867" /><glyph d="M269 -10Q246 -10 227.5 -6.5Q209 -3 196 1Q180 6 167 12L169 23Q181 17 197 12Q211 7 229 3.5Q247 0 270 0Q314 0 344.5 12.5Q375 25 394.5 46Q414 67 423 95.5Q432 124 432 156Q432 188 419.5 209.5Q407 231 389 247.5Q371 264 349 276.5Q327 289 309 303Q291 317 278.5 333.5Q266 350 266 375Q266 404 279.5 423.5Q293 443 313 460Q333 477 356 493Q379 509 399 529.5Q419 550 432.5 577.5Q446 605 446 645Q446 696 413.5 723Q381 750 323 750Q280 750 250 734Q220 718 201 692Q182 666 171.5 633Q161 600 157 565L88 0H78L136 470H66L67 480H137L147 566Q151 603 162 638Q173 673 194 700Q215 727 246.5 743.5Q278 760 324 760Q385 760 420.5 730Q456 700 456 645Q456 604 442.5 575.5Q429 547 409 526Q389 505 366 489Q343 473 323 456.5Q303 440 289.5 420.5Q276 401 276 374Q276 351 288.5 335.5Q301 320 319.5 306.5Q338 293 359.5 280.5Q381 268 399.5 251.5Q418 235 430.5 212.5Q443 190 443 157Q443 123 433.5 92.5Q424 62 403 39.5Q382 17 349 3.5Q316 -10 269 -10Z" glyph-name="germandbls" horiz-adv-x="502" unicode="&#223;" /><glyph d="M279 -10Q257 -10 242 -8.5Q227 -7 217 -5Q205 -3 198 0L199 10Q207 7 219 5Q230 3 245 1.5Q260 0 281 0Q355 0 403 39Q451 78 460 152Q470 230 422.5 287.5Q375 345 264 377L265 387L511 740H190L100 0H90L147 470H52L54 480H149L182 750H524L522 740L274 384Q385 349 432.5 291Q480 233 470 152Q461 79 414 34.5Q367 -10 279 -10Z" glyph-name="germandbls.alt" horiz-adv-x="529" /><glyph d="M175 687Q160 710 148.5 721.5Q137 733 138 738Q138 745 147 745Q154 745 161.5 731Q169 717 184 695L246 601H234Z" glyph-name="grave" horiz-adv-x="366" unicode="`" /><glyph d="M154 826Q137 848 124.5 859.5Q112 871 112 877Q112 884 121 884Q129 884 137.5 870Q146 856 163 834L236 740H224Z" glyph-name="grave.cap" horiz-adv-x="348" /><glyph d="M66 126 408 330 116 532 117 543 418 334 416 324 65 115Z" glyph-name="greater" horiz-adv-x="455" unicode="&gt;" /><glyph d="M32 36 374 240 82 442 83 453 384 244 382 234 31 25Z" glyph-name="greater.old" horiz-adv-x="414" /><glyph d="M63 135 362 295 102 453 103 465 375 298 373 289 62 122Z" glyph-name="greater.sc" horiz-adv-x="406" /><glyph d="M159 126 501 330 209 532 210 543 511 334 509 324 158 115Z" glyph-name="greater.tln" horiz-adv-x="640" /><glyph d="M141 36 483 240 191 442 192 453 493 244 491 234 140 25Z" glyph-name="greater.ton" horiz-adv-x="640" /><glyph d="M235 50 47 248 48 258 283 434 281 421 69 252 237 63ZM339 93 187 248 188 258 376 394 374 381 209 252 340 106Z" glyph-name="guillemotleft" horiz-adv-x="423" unicode="&#171;" /><glyph d="M247 130 59 328 60 338 295 514 293 501 81 332 249 143ZM351 173 199 328 200 338 388 474 386 461 221 332 352 186Z" glyph-name="guillemotleft.cap" horiz-adv-x="427" /><glyph d="M215 108 45 268 46 277 254 419 252 407 65 272 217 120ZM308 142 170 268 171 277 338 387 337 375 191 272 309 154Z" glyph-name="guillemotleft.sc" horiz-adv-x="397" /><glyph d="M343 50 155 248 156 258 391 434 389 421 177 252 345 63ZM447 93 295 248 296 258 484 394 482 381 317 252 448 106Z" glyph-name="guillemotleft.tln" horiz-adv-x="640" /><glyph d="M190 434 378 236 377 226 142 50 144 63 356 232 188 421ZM86 391 238 236 237 226 49 90 51 103 216 232 85 378Z" glyph-name="guillemotright" horiz-adv-x="423" unicode="&#187;" /><glyph d="M201 514 389 316 388 306 153 130 155 143 367 312 199 501ZM97 471 249 316 248 306 60 170 62 183 227 312 96 458Z" glyph-name="guillemotright.cap" horiz-adv-x="426" /><glyph d="M167 419 337 261V251L128 108L130 120L317 257L165 407ZM74 385 212 261 211 251 44 140 45 152 191 257 73 373Z" glyph-name="guillemotright.sc" horiz-adv-x="375" /><glyph d="M299 434 487 236 486 226 251 50 253 63 465 232 297 421ZM195 391 347 236 346 226 158 90 160 103 325 232 194 378Z" glyph-name="guillemotright.tln" horiz-adv-x="640" /><glyph d="M384 62Q384 89 390 124Q396 159 403.5 195.5Q411 232 417 269Q423 306 423 338Q423 413 388.5 446.5Q354 480 285 480Q216 480 171 433.5Q126 387 113 281L78 0H68L159 740H64L65 750Q98 750 116.5 750.5Q135 751 144.5 752Q154 753 157.5 755Q161 757 164 760L171 757L150 587L122 363Q130 387 143 410Q156 433 176 450.5Q196 468 223 479Q250 490 286 490Q361 490 397.5 453.5Q434 417 433 339Q433 308 427 271.5Q421 235 413.5 197.5Q406 160 400 125Q394 90 394 62Q394 26 407.5 13Q421 0 439 0Q469 0 484.5 25Q500 50 508 110H518Q510 50 493 20Q476 -10 439 -10Q414 -10 399 7Q384 24 384 62Z" glyph-name="h" horiz-adv-x="541" unicode="h" /><glyph d="M112 601 201 706Q218 728 228 742Q238 756 246 756Q255 756 253 749Q252 743 240 731.5Q228 720 209 698L124 601ZM228 601 324 695Q346 717 358.5 731Q371 745 379 745Q386 745 386 738Q385 733 369.5 721Q354 709 331 687L240 601Z" glyph-name="hungarumlaut" horiz-adv-x="488" unicode="&#733;" /><glyph d="M92 740 181 845Q198 867 208 881Q218 895 226 895Q235 895 233 888Q232 882 220 870.5Q208 859 189 837L104 740ZM218 740 314 834Q336 856 348.5 870Q361 884 369 884Q376 884 376 877Q375 872 359.5 860Q344 848 321 826L230 740Z" glyph-name="hungarumlaut.cap" horiz-adv-x="456" /><glyph d="M80 301H378L376 291H78Z" glyph-name="hyphen" horiz-adv-x="444" unicode="-" /><glyph d="M89 340H387L385 330H87Z" glyph-name="hyphen.cap" horiz-adv-x="452" /><glyph d="M70 281H336L334 271H68Z" glyph-name="hyphen.sc" horiz-adv-x="395" /><glyph d="M178 301H476L474 291H176Z" glyph-name="hyphen.tln" horiz-adv-x="640" /><glyph d="M156 -10Q145 -10 134 -6.5Q123 -3 114.5 8Q106 19 102.5 38.5Q99 58 103 90L150 470H55L56 480Q88 480 106.5 480.5Q125 481 135 482Q145 483 148.5 485Q152 487 155 490L162 487L113 89Q109 58 112.5 40.5Q116 23 123.5 14Q131 5 140 2.5Q149 0 156 0Q186 0 201.5 25Q217 50 225 110H235Q227 50 210 20Q193 -10 156 -10ZM160 624Q154 624 149.5 627.5Q145 631 145 639Q145 647 150.5 652Q156 657 164 657Q179 657 179 641Q179 635 173.5 629.5Q168 624 160 624Z" glyph-name="i" horiz-adv-x="267" unicode="i" /><glyph d="M156 -10Q145 -10 134 -6.5Q123 -3 114.5 8Q106 19 102.5 38.5Q99 58 103 90L150 470H55L56 480Q88 480 106.5 480.5Q125 481 135 482Q145 483 148.5 485Q152 487 155 490L162 487L113 89Q109 58 112.5 40.5Q116 23 123.5 14Q131 5 140 2.5Q149 0 156 0Q186 0 201.5 25Q217 50 225 110H235Q227 50 210 20Q193 -10 156 -10ZM160 624Q154 624 149.5 627.5Q145 631 145 639Q145 647 150.5 652Q156 657 164 657Q179 657 179 641Q179 635 173.5 629.5Q168 624 160 624Z" glyph-name="i.TRK" horiz-adv-x="267" /><glyph d="M156 -10Q145 -10 134 -6.5Q123 -3 114.5 8Q106 19 102.5 38.5Q99 58 103 90L150 470H55L56 480Q88 480 106.5 480.5Q125 481 135 482Q145 483 148.5 485Q152 487 155 490L162 487L113 89Q109 58 112.5 40.5Q116 23 123.5 14Q131 5 140 2.5Q149 0 156 0Q186 0 201.5 25Q217 50 225 110H235Q227 50 210 20Q193 -10 156 -10ZM160 624Q154 624 149.5 627.5Q145 631 145 639Q145 647 150.5 652Q156 657 164 657Q179 657 179 641Q179 635 173.5 629.5Q168 624 160 624Z" glyph-name="i.dot" horiz-adv-x="267" /><glyph d="M139 601 225 695Q245 717 256.5 731Q268 745 275 745Q282 745 282 738Q281 733 266.5 721Q252 709 232 687L151 601ZM156 -10Q145 -10 134 -6.5Q123 -3 114.5 8Q106 19 102.5 38.5Q99 58 103 90L150 470H55L56 480Q88 480 106.5 480.5Q125 481 135 482Q145 483 148.5 485Q152 487 155 490L162 487L113 89Q109 58 112.5 40.5Q116 23 123.5 14Q131 5 140 2.5Q149 0 156 0Q186 0 201.5 25Q217 50 225 110H235Q227 50 210 20Q193 -10 156 -10Z" glyph-name="iacute" horiz-adv-x="267" unicode="&#237;" /><glyph d="M392 601 478 695Q498 717 509.5 731Q521 745 528 745Q535 745 535 738Q534 733 519.5 721Q505 709 485 687L404 601ZM120 601 206 695Q226 717 237.5 731Q249 745 256 745Q263 745 263 738Q262 733 247.5 721Q233 709 213 687L132 601ZM156 -10Q145 -10 134 -6.5Q123 -3 114.5 8Q106 19 102.5 38.5Q99 58 103 90L150 470H55L56 480Q88 480 106.5 480.5Q125 481 135 482Q145 483 148.5 485Q152 487 155 490L162 487L113 89Q109 58 112.5 40.5Q116 23 123.5 14Q131 5 140 2.5Q149 0 156 0Q186 0 201.5 25Q217 50 225 110H235Q227 50 210 20Q193 -10 156 -10ZM261 -260Q207 -260 180 -230Q153 -200 153 -162Q153 -147 157 -139Q161 -131 172 -131Q184 -131 184 -143Q184 -152 177.5 -156.5Q171 -161 163 -161Q164 -198 187.5 -224Q211 -250 261 -250Q323 -250 354 -210Q385 -170 397 -72L464 470H369L370 480Q403 480 421.5 480.5Q440 481 449.5 482Q459 483 462.5 485Q466 487 469 490L476 487L407 -72Q401 -125 389 -160.5Q377 -196 359.5 -218.5Q342 -241 317.5 -250.5Q293 -260 261 -260Z" glyph-name="iacute_jacute" horiz-adv-x="542" /><glyph d="M156 -10Q145 -10 134 -6.5Q123 -3 114.5 8Q106 19 102.5 38.5Q99 58 103 90L150 470H55L56 480Q88 480 106.5 480.5Q125 481 135 482Q145 483 148.5 485Q152 487 155 490L162 487L113 89Q109 58 112.5 40.5Q116 23 123.5 14Q131 5 140 2.5Q149 0 156 0Q186 0 201.5 25Q217 50 225 110H235Q227 50 210 20Q193 -10 156 -10ZM368 -260Q311 -260 277 -234Q243 -208 243 -170Q243 -159 247.5 -150Q252 -141 261 -141Q275 -141 275 -153Q275 -161 268 -166.5Q261 -172 253 -171Q254 -206 286 -228Q318 -250 369 -250Q423 -250 457.5 -216.5Q492 -183 492 -112Q492 -64 464 -33.5Q436 -3 398 0L456 470H361L362 480Q395 480 413.5 480.5Q432 481 441.5 482Q451 483 454.5 485Q458 487 461 490L468 487L409 9Q445 2 473.5 -29.5Q502 -61 502 -111Q502 -186 466 -223Q430 -260 368 -260ZM452 601 538 695Q558 717 569.5 731Q581 745 588 745Q595 745 595 738Q594 733 579.5 721Q565 709 545 687L464 601ZM158 601 244 695Q264 717 275.5 731Q287 745 294 745Q301 745 301 738Q300 733 285.5 721Q271 709 251 687L170 601Z" glyph-name="iacute_jacute.alt" horiz-adv-x="535" /><glyph d="M523 590H512L596 665Q616 682 627 693.5Q638 705 645 705Q652 705 652 697Q652 692 637.5 682.5Q623 673 603 656ZM183 590H172L256 665Q276 682 287 693.5Q298 705 305 705Q312 705 312 697Q312 692 297.5 682.5Q283 673 263 656ZM38 230 39 240H128L166 540H77L78 550H266L265 540H176L138 240H228L226 230ZM466 181Q460 137 448.5 102Q437 67 415.5 42.5Q394 18 360 5Q326 -8 276 -8Q234 -8 203 1.5Q172 11 151 26.5Q130 42 119 62.5Q108 83 108 104Q108 118 112 126Q116 134 127 134Q141 134 141 119Q141 101 119 99Q119 81 128.5 64Q138 47 157.5 33Q177 19 207 10.5Q237 2 277 2Q323 2 354.5 13.5Q386 25 407 48Q428 71 439 104.5Q450 138 456 181L500 540H411L412 550H600L599 540H510Z" glyph-name="iacute_jacute.alt.sc" horiz-adv-x="595" /></font>
</defs>
</svg>
