<?xml version="1.0" standalone="no"?><!DOCTYPE svg PUBLIC "-//W3C//DTD SVG 1.1//EN" "http://www.w3.org/Graphics/SVG/1.1/DTD/svg11.dtd" ><svg version="1.1" xmlns="http://www.w3.org/2000/svg"><defs><font horiz-adv-x="0" id="font"><font-face ascent="750" bbox="-138 -260 2629 1083" cap-height="690" descent="-250" font-family="KazimirText RBC" font-stretch="normal" font-style="normal" font-weight="200" units-per-em="1000" x-height="487" /><missing-glyph d="M115 650H778V0H115ZM135 20H758V630H135ZM447 316 328 197 305 220 424 338 308 454 330 476 446 360 565 479 587 457 469 338 589 218 567 196Z" horiz-adv-x="893" /><glyph glyph-name=".null" horiz-adv-x="0" /><glyph d="M314 645 176 247H451ZM0 0V23H72L302 690H337L570 23H644V0H451V23H529L459 225H169L99 23H179V0Z" glyph-name="A" horiz-adv-x="640" unicode="A" /><glyph d="M314 632 179 247H450ZM1 0V23H73L299 667H203V690H437V667H342L571 23H645V0H452V23H530L458 225H171L100 23H180V0Z" glyph-name="A.alt" horiz-adv-x="641" /><glyph d="M281 511 160 198H403ZM1 0V22H66L261 528H182V550H393V528H314L510 22H576V0H403V22H471L411 176H152L92 22H161V0Z" glyph-name="A.alt.sc" horiz-adv-x="575" /><glyph d="M280 510 159 198H401ZM0 0V22H65L269 550H303L509 22H575V0H401V22H470L410 176H151L91 22H159V0Z" glyph-name="A.sc" horiz-adv-x="573" /><glyph d="M394 667 200 245H434V667ZM182 0H-7V23H72L366 667H281V690H821V509H795V600Q795 642 778 654.5Q761 667 719 667H475V363L711 367V338L475 341V23H734Q776 23 789.5 39Q803 55 803 93V185H829V0H342V23H434V222H190L99 23H182Z" glyph-name="AE" horiz-adv-x="892" unicode="&#198;" /><glyph d="M318 662 177 247H451ZM1 0V23H73L293 667H205V690H783V509H757V600Q757 642 739.5 654.5Q722 667 681 667H354L452 363H650V454H676V249H650V341H459L562 23H696Q739 23 752 39Q765 55 765 93V185H791V0H407V23H524L458 225H169L100 23H179V0Z" glyph-name="AE.alt" horiz-adv-x="851" /><glyph d="M283 524 159 199H401ZM1 0V22H65L260 528H183V550H701V404H676V472Q676 507 660.5 517.5Q645 528 608 528H319L406 291H580V362H604V197H580V270H413L503 22H620Q658 22 670 35.5Q682 49 682 81V150H707V0H363V22H466L408 178H151L90 22H160V0Z" glyph-name="AE.alt.sc" horiz-adv-x="762" /><glyph d="M351 528 181 197H388V528ZM163 0H-6V22H66L325 528H250V550H735V404H710V472Q710 507 694 517.5Q678 528 642 528H427V291L636 294V267L427 271V22H655Q693 22 705 35.5Q717 49 717 81V150H742V0H305V22H388V175H170L92 22H163Z" glyph-name="AE.sc" horiz-adv-x="799" /><glyph d="M418 814Q441 834 453 846Q465 858 465 866Q465 874 460 879Q455 884 444 884Q432 884 420 871Q408 858 388 835L308 740H331ZM314 645 176 247H451ZM0 0V23H72L302 690H337L570 23H644V0H451V23H529L459 225H169L99 23H179V0Z" glyph-name="Aacute" horiz-adv-x="640" unicode="&#193;" /><glyph d="M415 814Q438 834 450 846Q462 858 462 866Q462 874 457 879Q452 884 441 884Q429 884 417 871Q405 858 385 835L305 740H328ZM314 632 179 247H450ZM1 0V23H73L299 667H203V690H437V667H342L571 23H645V0H452V23H530L458 225H171L100 23H180V0Z" glyph-name="Aacute.alt" horiz-adv-x="641" /><glyph d="M294 590H272L343 665Q361 683 372.5 694Q384 705 395 705Q405 705 410 700Q415 695 415 688Q415 677 372 646ZM281 511 160 198H403ZM1 0V22H66L261 528H182V550H393V528H314L510 22H576V0H403V22H471L411 176H152L92 22H161V0Z" glyph-name="Aacute.alt.sc" horiz-adv-x="575" /><glyph d="M297 590H275L347 665Q364 684 376 694.5Q388 705 399 705Q409 705 413 700Q417 695 417 688Q417 676 374 646ZM280 510 159 198H401ZM0 0V22H65L269 550H303L509 22H575V0H401V22H470L410 176H151L91 22H159V0Z" glyph-name="Aacute.sc" horiz-adv-x="573" /><glyph d="M314 645 176 247H451ZM0 0V23H72L302 690H337L570 23H644V0H451V23H529L459 225H169L99 23H179V0ZM195 740 313 872H332L445 740H423L322 839L217 740Z" glyph-name="Acircumflex" horiz-adv-x="640" unicode="&#194;" /><glyph d="M196 740 314 872H333L446 740H424L323 839L218 740ZM314 632 179 247H450ZM1 0V23H73L299 667H203V690H437V667H342L571 23H645V0H452V23H530L458 225H171L100 23H180V0Z" glyph-name="Acircumflex.alt" horiz-adv-x="641" /><glyph d="M176 590 280 695H299L403 590H381L289 667L198 590ZM281 511 160 198H403ZM1 0V22H66L261 528H182V550H393V528H314L510 22H576V0H403V22H471L411 176H152L92 22H161V0Z" glyph-name="Acircumflex.alt.sc" horiz-adv-x="575" /><glyph d="M172 590 276 695H295L399 590H377L285 667L194 590ZM280 510 159 198H401ZM0 0V22H65L269 550H303L509 22H575V0H401V22H470L410 176H151L91 22H159V0Z" glyph-name="Acircumflex.sc" horiz-adv-x="573" /><glyph d="M314 645 176 247H451ZM0 0V23H72L302 690H337L570 23H644V0H451V23H529L459 225H169L99 23H179V0ZM261 802Q261 794 254.5 783Q248 772 230 772Q213 772 206.5 783Q200 794 200 802Q200 810 206.5 821.5Q213 833 230 833Q248 833 254.5 821.5Q261 810 261 802ZM441 802Q441 794 434.5 783Q428 772 410 772Q393 772 386.5 783Q380 794 380 802Q380 810 386.5 821.5Q393 833 410 833Q428 833 434.5 821.5Q441 810 441 802Z" glyph-name="Adieresis" horiz-adv-x="640" unicode="&#196;" /><glyph d="M314 632 179 247H450ZM1 0V23H73L299 667H203V690H437V667H342L571 23H645V0H452V23H530L458 225H171L100 23H180V0ZM261 802Q261 794 254.5 783Q248 772 230 772Q213 772 206.5 783Q200 794 200 802Q200 810 206.5 821.5Q213 833 230 833Q248 833 254.5 821.5Q261 810 261 802ZM441 802Q441 794 434.5 783Q428 772 410 772Q393 772 386.5 783Q380 794 380 802Q380 810 386.5 821.5Q393 833 410 833Q428 833 434.5 821.5Q441 810 441 802Z" glyph-name="Adieresis.alt" horiz-adv-x="641" /><glyph d="M233 641Q233 633 226.5 623.5Q220 614 205 614Q190 614 184 623.5Q178 633 178 641Q178 649 184 659Q190 669 205 669Q220 669 226.5 659Q233 649 233 641ZM394 641Q394 633 388 623.5Q382 614 366 614Q351 614 345 623.5Q339 633 339 641Q339 649 345 659Q351 669 366 669Q382 669 388 659Q394 649 394 641ZM281 511 160 198H403ZM1 0V22H66L261 528H182V550H393V528H314L510 22H576V0H403V22H471L411 176H152L92 22H161V0Z" glyph-name="Adieresis.alt.sc" horiz-adv-x="575" /><glyph d="M234 641Q234 633 227.5 623.5Q221 614 206 614Q191 614 184.5 623.5Q178 633 178 641Q178 649 184.5 659Q191 669 206 669Q221 669 227.5 659Q234 649 234 641ZM395 641Q395 633 388.5 623.5Q382 614 367 614Q352 614 346 623.5Q340 633 340 641Q340 649 346 659Q352 669 367 669Q382 669 388.5 659Q395 649 395 641ZM280 510 159 198H401ZM0 0V22H65L269 550H303L509 22H575V0H401V22H470L410 176H151L91 22H159V0Z" glyph-name="Adieresis.sc" horiz-adv-x="573" /><glyph d="M314 645 176 247H451ZM0 0V23H72L302 690H337L570 23H644V0H451V23H529L459 225H169L99 23H179V0ZM219 814Q196 834 184 846Q172 858 172 866Q172 874 177 879Q182 884 193 884Q205 884 217 871Q229 858 249 835L329 740H306Z" glyph-name="Agrave" horiz-adv-x="640" unicode="&#192;" /><glyph d="M232 814Q209 834 197 846Q185 858 185 866Q185 874 190 879Q195 884 206 884Q218 884 230 871Q242 858 262 835L342 740H319ZM314 632 179 247H450ZM1 0V23H73L299 667H203V690H437V667H342L571 23H645V0H452V23H530L458 225H171L100 23H180V0Z" glyph-name="Agrave.alt" horiz-adv-x="641" /><glyph d="M209 646Q166 677 166 688Q166 695 171 700Q176 705 185 705Q197 705 208 694Q219 683 237 665L308 590H286ZM281 511 160 198H403ZM1 0V22H66L261 528H182V550H393V528H314L510 22H576V0H403V22H471L411 176H152L92 22H161V0Z" glyph-name="Agrave.alt.sc" horiz-adv-x="575" /><glyph d="M197 646Q176 661 164.5 671Q153 681 153 688Q153 695 158 700Q163 705 173 705Q184 705 195.5 694Q207 683 225 665L296 590H274ZM280 510 159 198H401ZM0 0V22H65L269 550H303L509 22H575V0H401V22H470L410 176H151L91 22H159V0Z" glyph-name="Agrave.sc" horiz-adv-x="573" /><glyph d="M314 645 176 247H451ZM0 0V23H72L302 690H337L570 23H644V0H451V23H529L459 225H169L99 23H179V0ZM320 733Q284 733 257.5 754.5Q231 776 231 814Q231 852 257.5 873.5Q284 895 320 895Q355 895 382 873.5Q409 852 409 814Q409 776 382 754.5Q355 733 320 733ZM320 754Q346 754 366 769.5Q386 785 386 814Q386 843 366 858.5Q346 874 320 874Q293 874 273.5 858.5Q254 843 254 814Q254 785 273.5 769.5Q293 754 320 754Z" glyph-name="Aring" horiz-adv-x="640" unicode="&#197;" /><glyph d="M314 632 179 247H450ZM1 0V23H73L299 667H203V690H437V667H342L571 23H645V0H452V23H530L458 225H171L100 23H180V0ZM321 733Q285 733 258.5 754.5Q232 776 232 814Q232 852 258.5 873.5Q285 895 321 895Q356 895 383 873.5Q410 852 410 814Q410 776 383 754.5Q356 733 321 733ZM321 754Q347 754 367 769.5Q387 785 387 814Q387 843 367 858.5Q347 874 321 874Q294 874 274.5 858.5Q255 843 255 814Q255 785 274.5 769.5Q294 754 321 754Z" glyph-name="Aring.alt" horiz-adv-x="641" /><glyph d="M287 582Q256 582 236 601Q216 620 216 650Q216 679 236 698.5Q256 718 287 718Q318 718 338 698.5Q358 679 358 650Q358 620 338 601Q318 582 287 582ZM287 601Q309 601 323 614.5Q337 628 337 650Q337 671 323 685.5Q309 700 287 700Q265 700 251.5 685.5Q238 671 238 650Q238 628 251.5 614.5Q265 601 287 601ZM281 511 160 198H403ZM1 0V22H66L261 528H182V550H393V528H314L510 22H576V0H403V22H471L411 176H152L92 22H161V0Z" glyph-name="Aring.alt.sc" horiz-adv-x="575" /><glyph d="M284 582Q253 582 233 601Q213 620 213 650Q213 679 233 698.5Q253 718 284 718Q315 718 335 698.5Q355 679 355 650Q355 620 335 601Q315 582 284 582ZM284 601Q306 601 320 614.5Q334 628 334 650Q334 671 320 685.5Q306 700 284 700Q262 700 248.5 685.5Q235 671 235 650Q235 628 248.5 614.5Q262 601 284 601ZM280 510 159 198H401ZM0 0V22H65L269 550H303L509 22H575V0H401V22H470L410 176H151L91 22H159V0Z" glyph-name="Aring.sc" horiz-adv-x="573" /><glyph d="M314 645 176 247H451ZM0 0V23H72L302 690H337L570 23H644V0H451V23H529L459 225H169L99 23H179V0ZM254 826Q228 826 217 805Q206 784 206 752H187Q187 799 204 826.5Q221 854 256 854Q278 854 294 842.5Q310 831 324 817Q338 803 353 791.5Q368 780 387 780Q413 780 424 801Q435 822 435 854H454Q454 808 438 780.5Q422 753 384 753Q360 753 343.5 764.5Q327 776 312.5 789.5Q298 803 284.5 814.5Q271 826 254 826Z" glyph-name="Atilde" horiz-adv-x="640" unicode="&#195;" /><glyph d="M255 827Q229 827 218 806Q207 785 207 753H188Q188 800 205 827.5Q222 855 257 855Q279 855 295 843.5Q311 832 325 818Q339 804 354 792.5Q369 781 388 781Q414 781 425 802Q436 823 436 855H455Q455 809 439 781.5Q423 754 385 754Q361 754 344.5 765.5Q328 777 313.5 790.5Q299 804 285.5 815.5Q272 827 255 827ZM314 632 179 247H450ZM1 0V23H73L299 667H203V690H437V667H342L571 23H645V0H452V23H530L458 225H171L100 23H180V0Z" glyph-name="Atilde.alt" horiz-adv-x="641" /><glyph d="M228 656Q205 656 195 639.5Q185 623 185 599H167Q167 637 182.5 659.5Q198 682 230 682Q251 682 265.5 673Q280 664 292 653.5Q304 643 316.5 634Q329 625 347 625Q370 625 379.5 641.5Q389 658 389 682H407Q407 644 393 621.5Q379 599 344 599Q322 599 307.5 608Q293 617 281 627.5Q269 638 257 647Q245 656 228 656ZM281 511 160 198H403ZM1 0V22H66L261 528H182V550H393V528H314L510 22H576V0H403V22H471L411 176H152L92 22H161V0Z" glyph-name="Atilde.alt.sc" horiz-adv-x="575" /><glyph d="M228 656Q205 656 195 639.5Q185 623 185 599H167Q167 637 182.5 659.5Q198 682 230 682Q251 682 265.5 673Q280 664 292 653.5Q304 643 316.5 634Q329 625 347 625Q370 625 379.5 641.5Q389 658 389 682H407Q407 644 393 621.5Q379 599 344 599Q322 599 307.5 608Q293 617 281 627.5Q269 638 257 647Q245 656 228 656ZM280 510 159 198H401ZM0 0V22H65L269 550H303L509 22H575V0H401V22H470L410 176H151L91 22H159V0Z" glyph-name="Atilde.sc" horiz-adv-x="573" /><glyph d="M53 23H145V667H53V690H297Q419 690 480 645Q541 600 541 516Q541 480 528.5 452.5Q516 425 495.5 405.5Q475 386 449 374Q423 362 396 356Q428 351 460.5 339.5Q493 328 518.5 308Q544 288 560 258.5Q576 229 576 187Q576 93 514.5 46.5Q453 0 319 0H53ZM186 667V363H317Q408 363 453.5 405Q499 447 499 513Q499 546 488 574Q477 602 453 623Q429 644 390.5 655.5Q352 667 296 667ZM186 343V23H318Q384 23 426 37Q468 51 492 74Q516 97 525 126Q534 155 534 186Q534 225 519 254.5Q504 284 476.5 303.5Q449 323 410.5 333Q372 343 326 343Z" glyph-name="B" horiz-adv-x="628" unicode="B" /><glyph d="M49 22H131V528H49V550H263Q375 550 428 515Q481 480 481 415Q481 385 470 362Q459 339 440.5 323Q422 307 398.5 297.5Q375 288 351 284Q381 280 409.5 271Q438 262 461 246Q484 230 498 206.5Q512 183 512 150Q512 75 457.5 37.5Q403 0 282 0H49ZM170 529V291H279Q361 291 401 324Q441 357 441 411Q441 437 431.5 458.5Q422 480 400.5 496Q379 512 343.5 520.5Q308 529 256 529ZM170 271V21H280Q340 21 377 31.5Q414 42 435 60Q456 78 463.5 101Q471 124 471 149Q471 210 421 240.5Q371 271 287 271Z" glyph-name="B.sc" horiz-adv-x="559" /><glyph d="M520 78Q504 51 481.5 34Q459 17 433.5 7.5Q408 -2 382.5 -6Q357 -10 335 -10Q262 -10 209 20.5Q156 51 122 101Q88 151 72 215Q56 279 56 346Q56 414 73.5 477.5Q91 541 125.5 590.5Q160 640 211.5 670Q263 700 332 700Q402 700 448.5 676.5Q495 653 518 616L532 699H553V487H527Q527 536 512.5 571.5Q498 607 472 630.5Q446 654 411 665Q376 676 334 676Q285 676 242 655Q199 634 167 592Q135 550 116.5 488.5Q98 427 98 346Q98 267 115 205Q132 143 163.5 100.5Q195 58 240 36Q285 14 340 14Q375 14 409 24Q443 34 470 57Q497 80 513.5 117Q530 154 530 207H556V-10H534Z" glyph-name="C" horiz-adv-x="619" unicode="C" /><glyph d="M465 64Q450 43 430.5 29Q411 15 389 7Q367 -1 345 -4.5Q323 -8 303 -8Q237 -8 189.5 16Q142 40 111.5 80Q81 120 66 171Q51 222 51 276Q51 330 66.5 381Q82 432 113 471.5Q144 511 190.5 534.5Q237 558 298 558Q358 558 399 538.5Q440 519 460 490L473 557H493V386H469Q469 463 421.5 499Q374 535 300 535Q257 535 218.5 518.5Q180 502 152 469.5Q124 437 107.5 388.5Q91 340 91 276Q91 213 106.5 164.5Q122 116 150.5 83Q179 50 219 32.5Q259 15 308 15Q338 15 367.5 23.5Q397 32 420.5 50Q444 68 458.5 97Q473 126 473 167H498V-8H478Z" glyph-name="C.sc" horiz-adv-x="554" /><glyph d="M346 -186Q324 -186 308.5 -180Q293 -174 285 -166V-143Q295 -153 308 -158.5Q321 -164 339 -164Q392 -164 392 -122Q392 -69 313 -69V-58L330 -10Q258 -9 206 22Q154 53 121 102.5Q88 152 72 215.5Q56 279 56 346Q56 414 73.5 477.5Q91 541 125.5 590.5Q160 640 211.5 670Q263 700 332 700Q402 700 448.5 676.5Q495 653 518 616L532 699H553V487H527Q527 536 512.5 571.5Q498 607 472 630.5Q446 654 411 665Q376 676 334 676Q285 676 242 655Q199 634 167 592Q135 550 116.5 488.5Q98 427 98 346Q98 267 115 205Q132 143 163.5 100.5Q195 58 240 36Q285 14 340 14Q375 14 409 24Q443 34 470 57Q497 80 513.5 117Q530 154 530 207H556V-10H534L520 78Q506 54 486.5 38Q467 22 444.5 12Q422 2 399 -3Q376 -8 355 -9L341 -48Q379 -51 401.5 -68Q424 -85 424 -120Q424 -151 403.5 -168.5Q383 -186 346 -186Z" glyph-name="Ccedilla" horiz-adv-x="619" unicode="&#199;" /><glyph d="M311 -150Q291 -150 277 -145.5Q263 -141 256 -136V-115Q263 -121 275.5 -125.5Q288 -130 304 -130Q351 -130 351 -97Q351 -55 281 -55V-47L296 -8Q232 -7 186 18Q140 43 110 82.5Q80 122 65.5 172.5Q51 223 51 276Q51 330 66.5 381Q82 432 113 471.5Q144 511 190.5 534.5Q237 558 298 558Q358 558 399 538.5Q440 519 460 490L473 557H493V386H469Q469 463 421.5 499Q374 535 300 535Q257 535 218.5 518.5Q180 502 152 469.5Q124 437 107.5 388.5Q91 340 91 276Q91 213 106.5 164.5Q122 116 150.5 83Q179 50 219 32.5Q259 15 308 15Q338 15 367.5 23.5Q397 32 420.5 50Q444 68 458.5 97Q473 126 473 167H498V-8H478L465 64Q439 26 398 10.5Q357 -5 320 -7L308 -38Q340 -40 360.5 -54Q381 -68 381 -96Q381 -122 363 -136Q345 -150 311 -150Z" glyph-name="Ccedilla.sc" horiz-adv-x="555" /><glyph d="M53 0V23H145V667H53V690H288Q371 690 433.5 661.5Q496 633 538 585Q580 537 601 475Q622 413 622 346Q622 279 601 216.5Q580 154 538.5 106Q497 58 434.5 29Q372 0 288 0ZM186 23H284Q349 23 403 45Q457 67 496 108Q535 149 557 209.5Q579 270 579 346Q579 421 557.5 480.5Q536 540 497 581.5Q458 623 404 645Q350 667 285 667H186Z" glyph-name="D" horiz-adv-x="677" unicode="D" /><glyph d="M49 0V22H131V528H49V550H257Q334 550 391 527.5Q448 505 485.5 467Q523 429 541 379.5Q559 330 559 276Q559 222 541 172Q523 122 485.5 84Q448 46 391.5 23Q335 0 257 0ZM170 22H254Q314 22 362.5 39Q411 56 445.5 88.5Q480 121 499 168Q518 215 518 276Q518 336 499 382.5Q480 429 445.5 461.5Q411 494 362.5 511Q314 528 255 528H170Z" glyph-name="D.sc" horiz-adv-x="608" /><glyph d="M53 23H145V667H53V690H531V509H505V600Q505 642 487.5 654.5Q470 667 429 667H186V363L422 367V338L186 341V23H445Q487 23 500.5 39Q514 55 514 93V185H540V0H53Z" glyph-name="E" horiz-adv-x="603" unicode="E" /><glyph d="M53 0V23H145V667H53V690H531V513H505V600Q505 642 487.5 654.5Q470 667 429 667H186V363H400V454H426V249H400V340H186V23H445Q487 23 500.5 39Q514 55 514 93V182H540V0Z" glyph-name="E.alt" horiz-adv-x="599" /><glyph d="M49 0V22H131V528H49V550H477V406H452V472Q452 507 436 517.5Q420 528 383 528H170V291H359V362H383V197H359V269H170V22H398Q436 22 448 35.5Q460 49 460 81V148H485V0Z" glyph-name="E.alt.sc" horiz-adv-x="539" /><glyph d="M49 22H131V528H49V550H477V404H452V472Q452 507 436 517.5Q420 528 383 528H170V291L380 294V267L170 271V22H398Q436 22 448 35.5Q460 49 460 81V150H485V0H49Z" glyph-name="E.sc" horiz-adv-x="542" /><glyph d="M53 23H145V667H53V690H531V509H505V600Q505 642 487.5 654.5Q470 667 429 667H186V363L422 367V338L186 341V23H445Q487 23 500.5 39Q514 55 514 93V185H540V0H53ZM410 814Q433 834 445 846Q457 858 457 866Q457 874 452 879Q447 884 436 884Q424 884 412 871Q400 858 380 835L300 740H323Z" glyph-name="Eacute" horiz-adv-x="603" unicode="&#201;" /><glyph d="M414 814Q437 834 449 846Q461 858 461 866Q461 874 456 879Q451 884 440 884Q428 884 416 871Q404 858 384 835L304 740H327ZM53 0V23H145V667H53V690H531V513H505V600Q505 642 487.5 654.5Q470 667 429 667H186V363H400V454H426V249H400V340H186V23H445Q487 23 500.5 39Q514 55 514 93V182H540V0Z" glyph-name="Eacute.alt" horiz-adv-x="599" /><glyph d="M294 590H273L344 665Q361 683 372.5 694Q384 705 395 705Q405 705 410 700Q415 695 415 688Q415 677 372 646ZM49 0V22H131V528H49V550H477V406H452V472Q452 507 436 517.5Q420 528 383 528H170V291H359V362H383V197H359V269H170V22H398Q436 22 448 35.5Q460 49 460 81V148H485V0Z" glyph-name="Eacute.alt.sc" horiz-adv-x="539" /><glyph d="M285 590H263L334 665Q352 683 363 694Q374 705 386 705Q395 705 400 700Q405 695 405 688Q405 677 362 646ZM49 22H131V528H49V550H477V404H452V472Q452 507 436 517.5Q420 528 383 528H170V291L380 294V267L170 271V22H398Q436 22 448 35.5Q460 49 460 81V150H485V0H49Z" glyph-name="Eacute.sc" horiz-adv-x="542" /><glyph d="M53 23H145V667H53V690H531V509H505V600Q505 642 487.5 654.5Q470 667 429 667H186V363L422 367V338L186 341V23H445Q487 23 500.5 39Q514 55 514 93V185H540V0H53ZM201 740 319 872H338L451 740H429L328 839L223 740Z" glyph-name="Ecircumflex" horiz-adv-x="603" unicode="&#202;" /><glyph d="M198 740 316 872H335L448 740H426L325 839L220 740ZM53 0V23H145V667H53V690H531V513H505V600Q505 642 487.5 654.5Q470 667 429 667H186V363H400V454H426V249H400V340H186V23H445Q487 23 500.5 39Q514 55 514 93V182H540V0Z" glyph-name="Ecircumflex.alt" horiz-adv-x="599" /><glyph d="M176 590 280 695H298L403 590H380L289 667L197 590ZM49 0V22H131V528H49V550H477V406H452V472Q452 507 436 517.5Q420 528 383 528H170V291H359V362H383V197H359V269H170V22H398Q436 22 448 35.5Q460 49 460 81V148H485V0Z" glyph-name="Ecircumflex.alt.sc" horiz-adv-x="539" /><glyph d="M173 590 277 695H295L399 590H378L286 667L195 590ZM49 22H131V528H49V550H477V404H452V472Q452 507 436 517.5Q420 528 383 528H170V291L380 294V267L170 271V22H398Q436 22 448 35.5Q460 49 460 81V150H485V0H49Z" glyph-name="Ecircumflex.sc" horiz-adv-x="542" /><glyph d="M53 23H145V667H53V690H531V509H505V600Q505 642 487.5 654.5Q470 667 429 667H186V363L422 367V338L186 341V23H445Q487 23 500.5 39Q514 55 514 93V185H540V0H53ZM262 802Q262 794 255.5 783Q249 772 231 772Q214 772 207.5 783Q201 794 201 802Q201 810 207.5 821.5Q214 833 231 833Q249 833 255.5 821.5Q262 810 262 802ZM442 802Q442 794 435.5 783Q429 772 411 772Q394 772 387.5 783Q381 794 381 802Q381 810 387.5 821.5Q394 833 411 833Q429 833 435.5 821.5Q442 810 442 802Z" glyph-name="Edieresis" horiz-adv-x="603" unicode="&#203;" /><glyph d="M255 802Q255 794 248.5 783Q242 772 224 772Q207 772 200.5 783Q194 794 194 802Q194 810 200.5 821.5Q207 833 224 833Q242 833 248.5 821.5Q255 810 255 802ZM435 802Q435 794 428.5 783Q422 772 404 772Q387 772 380.5 783Q374 794 374 802Q374 810 380.5 821.5Q387 833 404 833Q422 833 428.5 821.5Q435 810 435 802ZM53 0V23H145V667H53V690H531V513H505V600Q505 642 487.5 654.5Q470 667 429 667H186V363H400V454H426V249H400V340H186V23H445Q487 23 500.5 39Q514 55 514 93V182H540V0Z" glyph-name="Edieresis.alt" horiz-adv-x="599" /><glyph d="M238 641Q238 633 231.5 623.5Q225 614 210 614Q194 614 188 623.5Q182 633 182 641Q182 649 188 659Q194 669 210 669Q225 669 231.5 659Q238 649 238 641ZM399 641Q399 633 392.5 623.5Q386 614 371 614Q356 614 350 623.5Q344 633 344 641Q344 649 350 659Q356 669 371 669Q386 669 392.5 659Q399 649 399 641ZM49 0V22H131V528H49V550H477V406H452V472Q452 507 436 517.5Q420 528 383 528H170V291H359V362H383V197H359V269H170V22H398Q436 22 448 35.5Q460 49 460 81V148H485V0Z" glyph-name="Edieresis.alt.sc" horiz-adv-x="539" /><glyph d="M395 641Q395 633 388.5 623.5Q382 614 367 614Q352 614 346 623.5Q340 633 340 641Q340 649 346 659Q352 669 367 669Q382 669 388.5 659Q395 649 395 641ZM234 641Q234 633 227.5 623.5Q221 614 206 614Q190 614 184 623.5Q178 633 178 641Q178 649 184 659Q190 669 206 669Q221 669 227.5 659Q234 649 234 641ZM49 22H131V528H49V550H477V404H452V472Q452 507 436 517.5Q420 528 383 528H170V291L380 294V267L170 271V22H398Q436 22 448 35.5Q460 49 460 81V150H485V0H49Z" glyph-name="Edieresis.sc" horiz-adv-x="542" /><glyph d="M53 23H145V667H53V690H531V509H505V600Q505 642 487.5 654.5Q470 667 429 667H186V363L422 367V338L186 341V23H445Q487 23 500.5 39Q514 55 514 93V185H540V0H53ZM246 814Q223 834 211 846Q199 858 199 866Q199 874 204 879Q209 884 220 884Q232 884 244 871Q256 858 276 835L356 740H333Z" glyph-name="Egrave" horiz-adv-x="603" unicode="&#200;" /><glyph d="M53 0V23H145V667H53V690H531V513H505V600Q505 642 487.5 654.5Q470 667 429 667H186V363H400V454H426V249H400V340H186V23H445Q487 23 500.5 39Q514 55 514 93V182H540V0ZM239 814Q216 834 204 846Q192 858 192 866Q192 874 197 879Q202 884 213 884Q225 884 237 871Q249 858 269 835L349 740H326Z" glyph-name="Egrave.alt" horiz-adv-x="599" /><glyph d="M217 646Q173 676 173 688Q173 695 178 700Q183 705 192 705Q204 705 215.5 694Q227 683 244 665L315 590H294ZM49 0V22H131V528H49V550H477V406H452V472Q452 507 436 517.5Q420 528 383 528H170V291H359V362H383V197H359V269H170V22H398Q436 22 448 35.5Q460 49 460 81V148H485V0Z" glyph-name="Egrave.alt.sc" horiz-adv-x="539" /><glyph d="M221 646Q179 676 179 688Q179 695 183.5 700Q188 705 198 705Q209 705 220.5 694Q232 683 250 665L321 590H299ZM49 22H131V528H49V550H477V404H452V472Q452 507 436 517.5Q420 528 383 528H170V291L380 294V267L170 271V22H398Q436 22 448 35.5Q460 49 460 81V150H485V0H49Z" glyph-name="Egrave.sc" horiz-adv-x="542" /><glyph d="M53 0V23H145V340H43V363H145V667H53V690H288Q371 690 433.5 661.5Q496 633 538 585Q580 537 601 475Q622 413 622 346Q622 279 601 216.5Q580 154 538.5 106Q497 58 434.5 29Q372 0 288 0ZM284 23Q349 23 403 45Q457 67 496 108Q535 149 557 209.5Q579 270 579 346Q579 421 557.5 480.5Q536 540 497 581.5Q458 623 404 645Q350 667 285 667H186V363H363V340H186V23Z" glyph-name="Eth" horiz-adv-x="677" unicode="&#208;" /><glyph d="M49 0V22H131V270H47V292H131V528H49V550H257Q334 550 391 527.5Q448 505 485.5 467Q523 429 541 379.5Q559 330 559 276Q559 222 541 172Q523 122 485.5 84Q448 46 391.5 23Q335 0 257 0ZM254 22Q314 22 362.5 39Q411 56 445.5 88.5Q480 121 499 168Q518 215 518 276Q518 336 499 382.5Q480 429 445.5 461.5Q411 494 362.5 511Q314 528 255 528H170V292H326V270H170V22Z" glyph-name="Eth.sc" horiz-adv-x="608" /><glyph d="M53 0V23H145V667H53V690H515V509H489V600Q489 642 471 654.5Q453 667 412 667H186V363L416 367V338L186 341V23H299V0Z" glyph-name="F" horiz-adv-x="549" unicode="F" /><glyph d="M53 0V23H145V667H53V690H519V513H493V600Q493 642 475.5 654.5Q458 667 417 667H186V363H394V454H420V249H394V340H186V23H299V0Z" glyph-name="F.alt" horiz-adv-x="554" /><glyph d="M49 0V22H131V528H49V550H466V406H441V472Q441 507 425 517.5Q409 528 373 528H170V291H354V362H377V197H354V269H170V22H270V0Z" glyph-name="F.alt.sc" horiz-adv-x="499" /><glyph d="M49 0V22H131V528H49V550H462V404H437V472Q437 507 420.5 517.5Q404 528 368 528H170V291L374 294V267L170 270V22H270V0Z" glyph-name="F.sc" horiz-adv-x="495" /><glyph d="M539 57Q523 36 501 23Q479 10 455.5 2.5Q432 -5 409 -7.5Q386 -10 368 -10Q282 -10 222.5 19.5Q163 49 126 98Q89 147 72.5 211.5Q56 276 56 346Q56 414 74.5 477.5Q93 541 129 590.5Q165 640 218.5 670Q272 700 342 700Q404 700 455 680Q506 660 533 618L548 699H569V484H543Q543 535 528 571Q513 607 486 630.5Q459 654 422.5 665Q386 676 343 676Q293 676 248.5 655Q204 634 170.5 592Q137 550 117.5 488.5Q98 427 98 346Q98 187 169 100.5Q240 14 368 14Q386 14 407.5 17Q429 20 451 27.5Q473 35 494.5 49.5Q516 64 532 86V272H409V295H658V272H573V-10H553Z" glyph-name="G" horiz-adv-x="688" unicode="G" /><glyph d="M480 42Q465 27 446 17.5Q427 8 406.5 2.5Q386 -3 366 -5.5Q346 -8 330 -8Q255 -8 202 15.5Q149 39 115.5 78Q82 117 66.5 168.5Q51 220 51 276Q51 331 68 382Q85 433 117.5 472Q150 511 197.5 534.5Q245 558 307 558Q365 558 410.5 539.5Q456 521 477 491L490 557H510V384H486Q486 422 472 450.5Q458 479 434 498Q410 517 378 526Q346 535 309 535Q258 535 218 516Q178 497 149.5 463Q121 429 106 381Q91 333 91 276Q91 213 108 164.5Q125 116 156.5 82.5Q188 49 232 32Q276 15 330 15Q345 15 364 17.5Q383 20 402.5 26Q422 32 440 42Q458 52 473 67V215H364V237H586V215H511V-8H492Z" glyph-name="G.sc" horiz-adv-x="615" /><glyph d="M53 23H145V667H53V690H272V667H186V366H562V667H476V690H695V667H603V23H695V0H476V23H562V343H186V23H272V0H53Z" glyph-name="H" horiz-adv-x="748" unicode="H" /><glyph d="M49 22H131V528H49V550H247V528H170V293H502V528H426V550H624V528H541V22H624V0H426V22H502V271H170V22H247V0H49Z" glyph-name="H.sc" horiz-adv-x="673" /><glyph d="M53 0V23H145V667H53V690H279V667H186V23H279V0Z" glyph-name="I" horiz-adv-x="331" unicode="I" /><glyph d="M49 0V22H131V528H49V550H253V528H170V22H253V0Z" glyph-name="I.sc" horiz-adv-x="302" /><glyph d="M253 814Q276 834 288 846Q300 858 300 866Q300 874 295 879Q290 884 279 884Q267 884 255 871Q243 858 223 835L143 740H166ZM53 0V23H145V667H53V690H279V667H186V23H279V0Z" glyph-name="Iacute" horiz-adv-x="331" unicode="&#205;" /><glyph d="M151 590H130L201 665Q218 683 229.5 694Q241 705 252 705Q263 705 267 700Q271 695 271 688Q271 676 229 646ZM49 0V22H131V528H49V550H253V528H170V22H253V0Z" glyph-name="Iacute.sc" horiz-adv-x="302" /><glyph d="M269 814Q292 834 304 846Q316 858 316 866Q316 874 311 879Q306 884 295 884Q283 884 271 871Q259 858 239 835L159 740H182ZM734 814Q757 834 769 846Q781 858 781 866Q781 874 776 879Q771 884 760 884Q748 884 736 871Q724 858 704 835L624 740H647ZM53 0V23H145V667H53V690H279V667H186V23H279V0ZM664 219Q664 109 626 49.5Q588 -10 493 -10Q448 -10 416 3.5Q384 17 363 38Q342 59 332 84.5Q322 110 322 135Q322 153 331.5 162.5Q341 172 356 172Q370 172 378 164Q386 156 386 142Q386 128 377 119Q368 110 353 108Q360 81 375.5 62.5Q391 44 410.5 33.5Q430 23 451.5 18.5Q473 14 491 14Q530 14 555.5 26.5Q581 39 596 64Q611 89 617 125Q623 161 623 208V667H527V690H757V667H664Z" glyph-name="Iacute_Jacute" horiz-adv-x="794" /><glyph d="M575 590H553L624 665Q642 683 653.5 694Q665 705 676 705Q686 705 690.5 700Q695 695 695 688Q695 677 653 646ZM165 590H143L214 665Q232 683 243.5 694Q255 705 266 705Q276 705 280.5 700Q285 695 285 688Q285 676 243 646ZM49 0V22H131V528H49V550H253V528H170V22H253V0ZM582 182Q582 93 549 42.5Q516 -8 433 -8Q396 -8 369 3Q342 14 324 31Q306 48 297 68.5Q288 89 288 108Q288 140 319 140Q347 140 347 114Q347 101 338.5 93.5Q330 86 317 84Q328 46 360.5 30.5Q393 15 430 15Q494 15 519 54.5Q544 94 544 175V528H458V550H665V528H582Z" glyph-name="Iacute_Jacute.sc" horiz-adv-x="701" /><glyph d="M39 740 157 872H176L289 740H267L166 839L61 740ZM53 0V23H145V667H53V690H279V667H186V23H279V0Z" glyph-name="Icircumflex" horiz-adv-x="331" unicode="&#206;" /><glyph d="M35 590 140 695H159L262 590H240L149 667L57 590ZM49 0V22H131V528H49V550H253V528H170V22H253V0Z" glyph-name="Icircumflex.sc" horiz-adv-x="302" /><glyph d="M106 802Q106 794 99.5 783Q93 772 75 772Q58 772 51.5 783Q45 794 45 802Q45 810 51.5 821.5Q58 833 75 833Q93 833 99.5 821.5Q106 810 106 802ZM286 802Q286 794 279.5 783Q273 772 255 772Q238 772 231.5 783Q225 794 225 802Q225 810 231.5 821.5Q238 833 255 833Q273 833 279.5 821.5Q286 810 286 802ZM53 0V23H145V667H53V690H279V667H186V23H279V0Z" glyph-name="Idieresis" horiz-adv-x="331" unicode="&#207;" /><glyph d="M97 641Q97 633 90.5 623.5Q84 614 69 614Q54 614 48 623.5Q42 633 42 641Q42 649 48 659Q54 669 69 669Q84 669 90.5 659Q97 649 97 641ZM258 641Q258 633 252 623.5Q246 614 230 614Q215 614 209 623.5Q203 633 203 641Q203 649 209 659Q215 669 230 669Q246 669 252 659Q258 649 258 641ZM49 0V22H131V528H49V550H253V528H170V22H253V0Z" glyph-name="Idieresis.sc" horiz-adv-x="302" /><glyph d="M53 0V23H145V667H53V690H279V667H186V23H279V0ZM83 814Q60 834 48 846Q36 858 36 866Q36 874 41 879Q46 884 57 884Q69 884 81 871Q93 858 113 835L193 740H170Z" glyph-name="Igrave" horiz-adv-x="331" unicode="&#204;" /><glyph d="M77 646Q56 661 44.5 671Q33 681 33 688Q33 695 38 700Q43 705 53 705Q64 705 76 694Q88 683 105 665L176 590H154ZM49 0V22H131V528H49V550H253V528H170V22H253V0Z" glyph-name="Igrave.sc" horiz-adv-x="302" /><glyph d="M362 219Q362 109 324 49.5Q286 -10 190 -10Q146 -10 114 3.5Q82 17 61 38Q40 59 30 84.5Q20 110 20 135Q20 153 29 162.5Q38 172 53 172Q67 172 75.5 164Q84 156 84 142Q84 113 50 108Q52 92 61.5 75.5Q71 59 88.5 45.5Q106 32 131 23Q156 14 189 14Q228 14 253.5 26.5Q279 39 294 64Q309 89 315 125Q321 161 321 208V667H225V690H454V667H362Z" glyph-name="J" horiz-adv-x="492" unicode="J" /><glyph d="M315 182Q315 93 281.5 42.5Q248 -8 165 -8Q128 -8 101 3Q74 14 56 31Q38 48 29 68.5Q20 89 20 108Q20 123 28.5 131.5Q37 140 51 140Q79 140 79 114Q79 101 71 93Q63 85 50 84Q62 46 93.5 30.5Q125 15 162 15Q227 15 251.5 54.5Q276 94 276 175V528H190V550H397V528H315Z" glyph-name="J.sc" horiz-adv-x="433" /><glyph d="M53 0V23H145V667H53V690H279V667H186V252L527 667H444V690H635V667H559L349 412L594 23H664V0H467V23H547L322 379L186 214V23H279V0Z" glyph-name="K" horiz-adv-x="669" unicode="K" /><glyph d="M186 248 548 667H186ZM53 0V23H145V667H53V690H582V667L345 392L598 23H669V0H471V23H549L317 361L186 209V23H279V0Z" glyph-name="K.alt" horiz-adv-x="657" /><glyph d="M170 199 497 528H170ZM49 0V22H131V528H49V550H531V528L315 310L538 22H601V0H422V22H491L288 284L170 165V22H252V0Z" glyph-name="K.alt.sc" horiz-adv-x="598" /><glyph d="M49 0V22H131V528H49V550H252V528H170V204L473 528H399V550H570V528H502L317 329L534 22H596V0H419V22H487L290 301L170 172V22H252V0Z" glyph-name="K.sc" horiz-adv-x="605" /><glyph d="M53 23H145V667H53V690H282V667H186V23H432Q474 23 487.5 39Q501 55 501 93V185H527V0H53Z" glyph-name="L" horiz-adv-x="560" unicode="L" /><glyph d="M49 22H131V528H49V550H256V528H170V22H388Q426 22 437.5 35.5Q449 49 449 82V151H474V0H49Z" glyph-name="L.sc" horiz-adv-x="506" /><glyph d="M262 0H53V23H145V667H53V690H199L445 143L691 690H834V667H742V23H834V0H614V23H701V648L451 91H426L175 649V23H262Z" glyph-name="M" horiz-adv-x="887" unicode="M" /><glyph d="M262 0H53V23H145V667H53V690H291V667H198L445 138L692 667H597V690H834V667H742V23H834V0H614V23H701V627L451 91H426L175 627V23H262Z" glyph-name="M.alt" horiz-adv-x="887" /><glyph d="M235 0H49V22H131V528H49V550H263V528H180L400 114L619 528H534V550H748V528H665V22H748V0H550V22H626V491L405 73H381L159 491V22H235Z" glyph-name="M.alt.sc" horiz-adv-x="797" /><glyph d="M235 0H49V22H131V528H49V550H180L400 115L619 550H748V528H665V22H748V0H550V22H626V512L405 73H381L159 512V22H235Z" glyph-name="M.sc" horiz-adv-x="797" /><glyph d="M268 0H53V23H145V667H53V690H185L570 72V667H478V690H693V667H600V-5H575L175 637V23H268Z" glyph-name="N" horiz-adv-x="737" unicode="N" /><glyph d="M268 0H53V23H145V667H53V690H185L570 215V667H478V690H693V667H600V23H693V0H478V23H570V156L175 643V23H268Z" glyph-name="N.alt" horiz-adv-x="746" /><glyph d="M241 0H49V22H131V528H49V550H167L510 181V528H428V550H621V528H538V22H621V0H428V22H510V127L159 505V22H241Z" glyph-name="N.alt.sc" horiz-adv-x="670" /><glyph d="M241 0H49V22H131V528H49V550H167L511 64V528H428V550H621V528H539V-4H515L159 499V22H241Z" glyph-name="N.sc" horiz-adv-x="662" /><glyph d="M268 0H53V23H145V667H53V690H185L570 72V667H478V690H693V667H600V-5H575L175 637V23H268ZM302 827Q276 827 265 806Q254 785 254 753H235Q235 800 252 827.5Q269 855 304 855Q326 855 342 843.5Q358 832 372 818Q386 804 401 792.5Q416 781 435 781Q461 781 472 802Q483 823 483 855H502Q502 809 486 781.5Q470 754 432 754Q408 754 391.5 765.5Q375 777 360.5 790.5Q346 804 332.5 815.5Q319 827 302 827Z" glyph-name="Ntilde" horiz-adv-x="737" unicode="&#209;" /><glyph d="M441 752Q417 752 400.5 763.5Q384 775 370 789Q356 803 341.5 814.5Q327 826 307 826Q257 826 257 756H238Q238 801 255 829Q272 857 310 857Q335 857 352 845.5Q369 834 383 820Q397 806 411.5 794.5Q426 783 445 783Q475 783 484.5 804Q494 825 494 853H513Q513 800 495.5 776Q478 752 441 752ZM268 0H53V23H145V667H53V690H185L570 215V667H478V690H693V667H600V23H693V0H478V23H570V156L175 643V23H268Z" glyph-name="Ntilde.alt" horiz-adv-x="746" /><glyph d="M276 656Q252 656 242.5 639.5Q233 623 233 598H214Q214 637 230 660.5Q246 684 278 684Q299 684 314 674.5Q329 665 341.5 654Q354 643 367 633.5Q380 624 398 624Q421 624 430.5 640.5Q440 657 440 683H458Q458 644 444 620Q430 596 395 596Q373 596 357.5 605.5Q342 615 329.5 626Q317 637 305 646.5Q293 656 276 656ZM241 0H49V22H131V528H49V550H167L510 181V528H428V550H621V528H538V22H621V0H428V22H510V127L159 505V22H241Z" glyph-name="Ntilde.alt.sc" horiz-adv-x="670" /><glyph d="M283 656Q260 656 250 639.5Q240 623 240 599H222Q222 637 237.5 659.5Q253 682 285 682Q306 682 320.5 673Q335 664 347 653.5Q359 643 371.5 634Q384 625 402 625Q425 625 434.5 641.5Q444 658 444 682H462Q462 644 447.5 621.5Q433 599 399 599Q377 599 362 608Q347 617 335 627.5Q323 638 311.5 647Q300 656 283 656ZM241 0H49V22H131V528H49V550H167L511 64V528H428V550H621V528H539V-4H515L159 499V22H241Z" glyph-name="Ntilde.sc" horiz-adv-x="662" /><glyph d="M622 345Q622 273 603 209Q584 145 547.5 96Q511 47 458.5 18.5Q406 -10 339 -10Q271 -10 218 18.5Q165 47 129 96Q93 145 74.5 209Q56 273 56 345Q56 417 74.5 481Q93 545 129 594Q165 643 218 671.5Q271 700 339 700Q406 700 458.5 671.5Q511 643 547.5 594Q584 545 603 481Q622 417 622 345ZM98 345Q98 269 115.5 208Q133 147 164.5 104Q196 61 240.5 37.5Q285 14 339 14Q392 14 436.5 37.5Q481 61 513 104Q545 147 562.5 208Q580 269 580 345Q580 420 562.5 481.5Q545 543 513 586Q481 629 436.5 652.5Q392 676 339 676Q285 676 240.5 652.5Q196 629 164.5 586Q133 543 115.5 481.5Q98 420 98 345Z" glyph-name="O" horiz-adv-x="679" unicode="O" /><glyph d="M558 276Q558 218 541 166Q524 114 491.5 75.5Q459 37 411.5 14.5Q364 -8 304 -8Q244 -8 196.5 14.5Q149 37 117 75.5Q85 114 68 166Q51 218 51 276Q51 334 68 385Q85 436 117 474.5Q149 513 196.5 535.5Q244 558 304 558Q364 558 411.5 535.5Q459 513 491.5 474.5Q524 436 541 385Q558 334 558 276ZM92 276Q92 215 107.5 167Q123 119 151 85Q179 51 218 33Q257 15 304 15Q351 15 390.5 33Q430 51 458 85Q486 119 501.5 167Q517 215 517 276Q517 336 501.5 384Q486 432 458 465.5Q430 499 390.5 517Q351 535 304 535Q257 535 218 517Q179 499 151 465.5Q123 432 107.5 384Q92 336 92 276Z" glyph-name="O.sc" horiz-adv-x="609" /><glyph d="M622 345Q622 273 603 209Q584 145 547.5 96Q511 47 458.5 18.5Q406 -10 339 -10Q271 -10 218 18.5Q165 47 129 96Q93 145 74.5 209Q56 273 56 345Q56 417 74.5 481Q93 545 129 594Q165 643 218 671.5Q271 700 339 700Q406 700 458.5 671.5Q511 643 547.5 594Q584 545 603 481Q622 417 622 345ZM98 345Q98 269 115.5 208Q133 147 164.5 104Q196 61 240.5 37.5Q285 14 339 14Q392 14 436.5 37.5Q481 61 513 104Q545 147 562.5 208Q580 269 580 345Q580 420 562.5 481.5Q545 543 513 586Q481 629 436.5 652.5Q392 676 339 676Q285 676 240.5 652.5Q196 629 164.5 586Q133 543 115.5 481.5Q98 420 98 345ZM430 814Q453 834 465 846Q477 858 477 866Q477 874 472 879Q467 884 456 884Q444 884 432 871Q420 858 400 835L320 740H343Z" glyph-name="Oacute" horiz-adv-x="679" unicode="&#211;" /><glyph d="M622 345Q622 273 603 209Q584 145 547.5 96Q511 47 458.5 18.5Q406 -10 339 -10Q271 -10 218 18.5Q165 47 129 96Q93 145 74.5 209Q56 273 56 345Q56 417 74.5 481Q93 545 129 594Q165 643 218 671.5Q271 700 339 700Q406 700 458.5 671.5Q511 643 547.5 594Q584 545 603 481Q622 417 622 345ZM98 345Q98 269 115.5 208Q133 147 164.5 104Q196 61 240.5 37.5Q285 14 339 14Q392 14 436.5 37.5Q481 61 513 104Q545 147 562.5 208Q580 269 580 345Q580 420 562.5 481.5Q545 543 513 586Q481 629 436.5 652.5Q392 676 339 676Q285 676 240.5 652.5Q196 629 164.5 586Q133 543 115.5 481.5Q98 420 98 345ZM326 740 371 843Q381 868 389 884Q397 900 411 900Q419 900 424 895Q429 890 429 883Q429 874 422 861.5Q415 849 404 831L350 740Z" glyph-name="Oacute.pl" horiz-adv-x="679" /><glyph d="M293 590 333 671Q341 692 349 705Q357 718 369 718Q377 718 381 713.5Q385 709 385 703Q385 695 379.5 684.5Q374 674 363 659L315 590ZM558 276Q558 218 541 166Q524 114 491.5 75.5Q459 37 411.5 14.5Q364 -8 304 -8Q244 -8 196.5 14.5Q149 37 117 75.5Q85 114 68 166Q51 218 51 276Q51 334 68 385Q85 436 117 474.5Q149 513 196.5 535.5Q244 558 304 558Q364 558 411.5 535.5Q459 513 491.5 474.5Q524 436 541 385Q558 334 558 276ZM92 276Q92 215 107.5 167Q123 119 151 85Q179 51 218 33Q257 15 304 15Q351 15 390.5 33Q430 51 458 85Q486 119 501.5 167Q517 215 517 276Q517 336 501.5 384Q486 432 458 465.5Q430 499 390.5 517Q351 535 304 535Q257 535 218 517Q179 499 151 465.5Q123 432 107.5 384Q92 336 92 276Z" glyph-name="Oacute.pl.sc" horiz-adv-x="609" /><glyph d="M308 590H287L358 665Q375 683 386.5 694Q398 705 409 705Q420 705 424.5 700Q429 695 429 688Q429 677 386 646ZM558 276Q558 218 541 166Q524 114 491.5 75.5Q459 37 411.5 14.5Q364 -8 304 -8Q244 -8 196.5 14.5Q149 37 117 75.5Q85 114 68 166Q51 218 51 276Q51 334 68 385Q85 436 117 474.5Q149 513 196.5 535.5Q244 558 304 558Q364 558 411.5 535.5Q459 513 491.5 474.5Q524 436 541 385Q558 334 558 276ZM92 276Q92 215 107.5 167Q123 119 151 85Q179 51 218 33Q257 15 304 15Q351 15 390.5 33Q430 51 458 85Q486 119 501.5 167Q517 215 517 276Q517 336 501.5 384Q486 432 458 465.5Q430 499 390.5 517Q351 535 304 535Q257 535 218 517Q179 499 151 465.5Q123 432 107.5 384Q92 336 92 276Z" glyph-name="Oacute.sc" horiz-adv-x="609" /><glyph d="M622 345Q622 273 603 209Q584 145 547.5 96Q511 47 458.5 18.5Q406 -10 339 -10Q271 -10 218 18.5Q165 47 129 96Q93 145 74.5 209Q56 273 56 345Q56 417 74.5 481Q93 545 129 594Q165 643 218 671.5Q271 700 339 700Q406 700 458.5 671.5Q511 643 547.5 594Q584 545 603 481Q622 417 622 345ZM98 345Q98 269 115.5 208Q133 147 164.5 104Q196 61 240.5 37.5Q285 14 339 14Q392 14 436.5 37.5Q481 61 513 104Q545 147 562.5 208Q580 269 580 345Q580 420 562.5 481.5Q545 543 513 586Q481 629 436.5 652.5Q392 676 339 676Q285 676 240.5 652.5Q196 629 164.5 586Q133 543 115.5 481.5Q98 420 98 345ZM213 740 331 872H350L463 740H441L340 839L235 740Z" glyph-name="Ocircumflex" horiz-adv-x="679" unicode="&#212;" /><glyph d="M194 590 298 695H317L421 590H399L307 667L215 590ZM558 276Q558 218 541 166Q524 114 491.5 75.5Q459 37 411.5 14.5Q364 -8 304 -8Q244 -8 196.5 14.5Q149 37 117 75.5Q85 114 68 166Q51 218 51 276Q51 334 68 385Q85 436 117 474.5Q149 513 196.5 535.5Q244 558 304 558Q364 558 411.5 535.5Q459 513 491.5 474.5Q524 436 541 385Q558 334 558 276ZM92 276Q92 215 107.5 167Q123 119 151 85Q179 51 218 33Q257 15 304 15Q351 15 390.5 33Q430 51 458 85Q486 119 501.5 167Q517 215 517 276Q517 336 501.5 384Q486 432 458 465.5Q430 499 390.5 517Q351 535 304 535Q257 535 218 517Q179 499 151 465.5Q123 432 107.5 384Q92 336 92 276Z" glyph-name="Ocircumflex.sc" horiz-adv-x="609" /><glyph d="M622 345Q622 273 603 209Q584 145 547.5 96Q511 47 458.5 18.5Q406 -10 339 -10Q271 -10 218 18.5Q165 47 129 96Q93 145 74.5 209Q56 273 56 345Q56 417 74.5 481Q93 545 129 594Q165 643 218 671.5Q271 700 339 700Q406 700 458.5 671.5Q511 643 547.5 594Q584 545 603 481Q622 417 622 345ZM98 345Q98 269 115.5 208Q133 147 164.5 104Q196 61 240.5 37.5Q285 14 339 14Q392 14 436.5 37.5Q481 61 513 104Q545 147 562.5 208Q580 269 580 345Q580 420 562.5 481.5Q545 543 513 586Q481 629 436.5 652.5Q392 676 339 676Q285 676 240.5 652.5Q196 629 164.5 586Q133 543 115.5 481.5Q98 420 98 345ZM281 802Q281 794 274.5 783Q268 772 250 772Q233 772 226.5 783Q220 794 220 802Q220 810 226.5 821.5Q233 833 250 833Q268 833 274.5 821.5Q281 810 281 802ZM461 802Q461 794 454.5 783Q448 772 430 772Q413 772 406.5 783Q400 794 400 802Q400 810 406.5 821.5Q413 833 430 833Q448 833 454.5 821.5Q461 810 461 802Z" glyph-name="Odieresis" horiz-adv-x="679" unicode="&#214;" /><glyph d="M254 641Q254 633 248 623.5Q242 614 226 614Q211 614 205 623.5Q199 633 199 641Q199 649 205 659Q211 669 226 669Q242 669 248 659Q254 649 254 641ZM416 641Q416 633 409.5 623.5Q403 614 388 614Q373 614 367 623.5Q361 633 361 641Q361 649 367 659Q373 669 388 669Q403 669 409.5 659Q416 649 416 641ZM558 276Q558 218 541 166Q524 114 491.5 75.5Q459 37 411.5 14.5Q364 -8 304 -8Q244 -8 196.5 14.5Q149 37 117 75.5Q85 114 68 166Q51 218 51 276Q51 334 68 385Q85 436 117 474.5Q149 513 196.5 535.5Q244 558 304 558Q364 558 411.5 535.5Q459 513 491.5 474.5Q524 436 541 385Q558 334 558 276ZM92 276Q92 215 107.5 167Q123 119 151 85Q179 51 218 33Q257 15 304 15Q351 15 390.5 33Q430 51 458 85Q486 119 501.5 167Q517 215 517 276Q517 336 501.5 384Q486 432 458 465.5Q430 499 390.5 517Q351 535 304 535Q257 535 218 517Q179 499 151 465.5Q123 432 107.5 384Q92 336 92 276Z" glyph-name="Odieresis.sc" horiz-adv-x="609" /><glyph d="M622 345Q622 273 603 209Q584 145 547.5 96Q511 47 458.5 18.5Q406 -10 339 -10Q271 -10 218 18.5Q165 47 129 96Q93 145 74.5 209Q56 273 56 345Q56 417 74.5 481Q93 545 129 594Q165 643 218 671.5Q271 700 339 700Q406 700 458.5 671.5Q511 643 547.5 594Q584 545 603 481Q622 417 622 345ZM98 345Q98 269 115.5 208Q133 147 164.5 104Q196 61 240.5 37.5Q285 14 339 14Q392 14 436.5 37.5Q481 61 513 104Q545 147 562.5 208Q580 269 580 345Q580 420 562.5 481.5Q545 543 513 586Q481 629 436.5 652.5Q392 676 339 676Q285 676 240.5 652.5Q196 629 164.5 586Q133 543 115.5 481.5Q98 420 98 345ZM254 814Q231 834 219 846Q207 858 207 866Q207 874 212 879Q217 884 228 884Q240 884 252 871Q264 858 284 835L364 740H341Z" glyph-name="Ograve" horiz-adv-x="679" unicode="&#210;" /><glyph d="M229 646Q186 677 186 688Q186 695 190.5 700Q195 705 205 705Q216 705 227.5 694Q239 683 257 665L328 590H306ZM558 276Q558 218 541 166Q524 114 491.5 75.5Q459 37 411.5 14.5Q364 -8 304 -8Q244 -8 196.5 14.5Q149 37 117 75.5Q85 114 68 166Q51 218 51 276Q51 334 68 385Q85 436 117 474.5Q149 513 196.5 535.5Q244 558 304 558Q364 558 411.5 535.5Q459 513 491.5 474.5Q524 436 541 385Q558 334 558 276ZM92 276Q92 215 107.5 167Q123 119 151 85Q179 51 218 33Q257 15 304 15Q351 15 390.5 33Q430 51 458 85Q486 119 501.5 167Q517 215 517 276Q517 336 501.5 384Q486 432 458 465.5Q430 499 390.5 517Q351 535 304 535Q257 535 218 517Q179 499 151 465.5Q123 432 107.5 384Q92 336 92 276Z" glyph-name="Ograve.sc" horiz-adv-x="609" /><glyph d="M101 345Q101 268 119 206.5Q137 145 169 102L514 589Q482 631 438.5 653.5Q395 676 342 676Q288 676 243.5 652.5Q199 629 167.5 586Q136 543 118.5 481.5Q101 420 101 345ZM342 14Q395 14 439.5 37.5Q484 61 516 104Q548 147 565.5 208Q583 269 583 345Q583 413 568.5 469Q554 525 528 568L184 83Q247 14 342 14ZM342 -10Q288 -10 244.5 7.5Q201 25 167 57L99 -38H70L150 75Q105 124 82 194.5Q59 265 59 345Q59 417 77.5 481Q96 545 132 594Q168 643 221 671.5Q274 700 342 700Q402 700 450 677.5Q498 655 533 616L609 723H638L549 597Q586 548 605.5 483Q625 418 625 345Q625 273 606 209Q587 145 550.5 96Q514 47 461.5 18.5Q409 -10 342 -10Z" glyph-name="Oslash" horiz-adv-x="691" unicode="&#216;" /><glyph d="M95 276Q95 216 110 168Q125 120 153 86L448 479Q392 535 307 535Q260 535 221 517Q182 499 154 465.5Q126 432 110.5 384Q95 336 95 276ZM307 15Q354 15 393.5 33Q433 51 461 85Q489 119 504.5 167Q520 215 520 276Q520 336 505 383Q490 430 462 464L166 71Q194 44 229.5 29.5Q265 15 307 15ZM307 -8Q259 -8 219 6.5Q179 21 148 47L90 -30H65L133 61Q95 100 74.5 155.5Q54 211 54 276Q54 334 71 385Q88 436 120 474.5Q152 513 199.5 535.5Q247 558 307 558Q356 558 395.5 543.5Q435 529 466 503L522 577H548L481 489Q520 450 540.5 394.5Q561 339 561 276Q561 218 544 166Q527 114 494.5 75.5Q462 37 414.5 14.5Q367 -8 307 -8Z" glyph-name="Oslash.sc" horiz-adv-x="614" /><glyph d="M622 345Q622 273 603 209Q584 145 547.5 96Q511 47 458.5 18.5Q406 -10 339 -10Q271 -10 218 18.5Q165 47 129 96Q93 145 74.5 209Q56 273 56 345Q56 417 74.5 481Q93 545 129 594Q165 643 218 671.5Q271 700 339 700Q406 700 458.5 671.5Q511 643 547.5 594Q584 545 603 481Q622 417 622 345ZM98 345Q98 269 115.5 208Q133 147 164.5 104Q196 61 240.5 37.5Q285 14 339 14Q392 14 436.5 37.5Q481 61 513 104Q545 147 562.5 208Q580 269 580 345Q580 420 562.5 481.5Q545 543 513 586Q481 629 436.5 652.5Q392 676 339 676Q285 676 240.5 652.5Q196 629 164.5 586Q133 543 115.5 481.5Q98 420 98 345ZM275 827Q249 827 238 806Q227 785 227 753H208Q208 800 225 827.5Q242 855 277 855Q299 855 315 843.5Q331 832 345 818Q359 804 374 792.5Q389 781 408 781Q434 781 445 802Q456 823 456 855H475Q475 809 459 781.5Q443 754 405 754Q381 754 364.5 765.5Q348 777 333.5 790.5Q319 804 305.5 815.5Q292 827 275 827Z" glyph-name="Otilde" horiz-adv-x="679" unicode="&#213;" /><glyph d="M249 656Q226 656 216 639.5Q206 623 206 599H188Q188 637 203.5 659.5Q219 682 251 682Q272 682 286.5 673Q301 664 313 653.5Q325 643 337.5 634Q350 625 368 625Q391 625 400.5 641.5Q410 658 410 682H428Q428 644 414 621.5Q400 599 365 599Q343 599 328 608Q313 617 301 627.5Q289 638 277.5 647Q266 656 249 656ZM558 276Q558 218 541 166Q524 114 491.5 75.5Q459 37 411.5 14.5Q364 -8 304 -8Q244 -8 196.5 14.5Q149 37 117 75.5Q85 114 68 166Q51 218 51 276Q51 334 68 385Q85 436 117 474.5Q149 513 196.5 535.5Q244 558 304 558Q364 558 411.5 535.5Q459 513 491.5 474.5Q524 436 541 385Q558 334 558 276ZM92 276Q92 215 107.5 167Q123 119 151 85Q179 51 218 33Q257 15 304 15Q351 15 390.5 33Q430 51 458 85Q486 119 501.5 167Q517 215 517 276Q517 336 501.5 384Q486 432 458 465.5Q430 499 390.5 517Q351 535 304 535Q257 535 218 517Q179 499 151 465.5Q123 432 107.5 384Q92 336 92 276Z" glyph-name="Otilde.sc" horiz-adv-x="609" /><glyph d="M53 23H145V667H53V690H283Q352 690 402.5 675.5Q453 661 486 635Q519 609 535.5 572.5Q552 536 552 492Q552 449 536 413.5Q520 378 487 352Q454 326 404 311.5Q354 297 286 297H186V23H285V0H53ZM186 667V320H289Q405 320 457 366.5Q509 413 509 492Q509 531 496.5 563Q484 595 457 618Q430 641 388 654Q346 667 287 667Z" glyph-name="P" horiz-adv-x="587" unicode="P" /><glyph d="M49 22H131V528H49V550H256Q379 550 438 504.5Q497 459 497 389Q497 355 482.5 325Q468 295 438.5 273.5Q409 252 364 239.5Q319 227 258 227H170V22H258V0H49ZM170 528V249H261Q364 249 410.5 287.5Q457 326 457 389Q457 449 410 488.5Q363 528 259 528Z" glyph-name="P.sc" horiz-adv-x="530" /><glyph d="M511 -111Q468 -111 444.5 -85.5Q421 -60 404 -2Q372 -10 339 -10Q271 -10 218 18.5Q165 47 129 96Q93 145 74.5 209Q56 273 56 345Q56 417 74.5 481Q93 545 129 594Q165 643 218 671.5Q271 700 339 700Q406 700 458.5 671.5Q511 643 547.5 594Q584 545 603 481Q622 417 622 345Q622 288 609.5 234.5Q597 181 573.5 137Q550 93 515.5 59.5Q481 26 437 8Q451 -45 467 -66.5Q483 -88 514 -88Q546 -88 562 -57Q578 -26 578 32H600Q600 -30 580 -70.5Q560 -111 511 -111ZM430 34Q499 67 539.5 147.5Q580 228 580 345Q580 420 562.5 481.5Q545 543 513 586Q481 629 436.5 652.5Q392 676 339 676Q285 676 240.5 652.5Q196 629 164.5 586Q133 543 115.5 481.5Q98 420 98 345Q98 258 120 191.5Q142 125 182 82Q195 132 223 160Q251 188 299 188Q323 188 342 181.5Q361 175 376.5 159.5Q392 144 404.5 116.5Q417 89 427 47ZM339 14Q368 14 398 22Q397 25 395 33Q378 110 353.5 137.5Q329 165 289 165Q252 165 230 137Q208 109 200 64Q229 40 263.5 27Q298 14 339 14Z" glyph-name="Q" horiz-adv-x="679" unicode="Q" /><glyph d="M511 -142Q485 -142 467.5 -131Q450 -120 438 -101Q426 -82 418.5 -56.5Q411 -31 406 -2Q372 -10 339 -10Q271 -10 218 18.5Q165 47 129 96Q93 145 74.5 209Q56 273 56 345Q56 417 74.5 481Q93 545 129 594Q165 643 218 671.5Q271 700 339 700Q406 700 458.5 671.5Q511 643 547.5 594Q584 545 603 481Q622 417 622 345Q622 288 610 236Q598 184 575 140Q552 96 518.5 62.5Q485 29 442 10Q450 -49 466.5 -83.5Q483 -118 519 -118Q535 -118 548.5 -111.5Q562 -105 571.5 -88.5Q581 -72 586.5 -45.5Q592 -19 592 22H613Q613 -65 588 -103.5Q563 -142 511 -142ZM98 345Q98 227 138 146.5Q178 66 248 34Q219 66 219 127Q219 178 244.5 210Q270 242 316 242Q349 242 370 228.5Q391 215 404.5 191Q418 167 425 133.5Q432 100 436 60Q437 55 437 49Q437 43 438 38Q504 73 542 152Q580 231 580 345Q580 420 562.5 481.5Q545 543 513 586Q481 629 436.5 652.5Q392 676 339 676Q285 676 240.5 652.5Q196 629 164.5 586Q133 543 115.5 481.5Q98 420 98 345ZM242 126Q242 102 246.5 81.5Q251 61 262 46Q273 31 292 22.5Q311 14 340 14Q373 14 403 23Q403 25 402.5 27Q402 29 402 31Q397 74 391.5 109Q386 144 376 168.5Q366 193 350.5 206Q335 219 310 219Q274 219 258 191.5Q242 164 242 126Z" glyph-name="Q.alt" horiz-adv-x="679" /><glyph d="M459 -112Q414 -112 393.5 -80Q373 -48 364 -1Q337 -8 304 -8Q244 -8 196.5 14.5Q149 37 117 75.5Q85 114 68 166Q51 218 51 276Q51 334 68 385Q85 436 117 474.5Q149 513 196.5 535.5Q244 558 304 558Q364 558 411.5 535.5Q459 513 491.5 474.5Q524 436 541 385Q558 334 558 276Q558 230 547.5 188Q537 146 516.5 111Q496 76 466 49.5Q436 23 397 8Q405 -37 419 -62.5Q433 -88 464 -88Q494 -88 511.5 -66Q529 -44 529 19H549Q549 -49 527 -80.5Q505 -112 459 -112ZM92 276Q92 181 128.5 117.5Q165 54 227 29Q195 59 195 105Q195 147 218.5 172Q242 197 284 197Q338 197 361 157.5Q384 118 391 56Q392 46 392.5 42Q393 38 393 34Q450 62 483.5 123.5Q517 185 517 276Q517 336 501.5 384Q486 432 458 465.5Q430 499 390.5 517Q351 535 304 535Q257 535 218 517Q179 499 151 465.5Q123 432 107.5 384Q92 336 92 276ZM217 104Q217 69 238.5 42Q260 15 305 15Q319 15 333 17Q347 19 361 22L359 36Q355 67 349.5 92Q344 117 335 135Q326 153 312.5 163Q299 173 277 173Q248 173 232.5 154.5Q217 136 217 104Z" glyph-name="Q.alt.sc" horiz-adv-x="609" /><glyph d="M458 -88Q419 -88 397.5 -66.5Q376 -45 362 -2Q335 -8 304 -8Q244 -8 196.5 14.5Q149 37 117 75.5Q85 114 68 166Q51 218 51 276Q51 334 68 385Q85 436 117 474.5Q149 513 196.5 535.5Q244 558 304 558Q364 558 411.5 535.5Q459 513 491.5 474.5Q524 436 541 385Q558 334 558 276Q558 230 547 187.5Q536 145 515 109.5Q494 74 463.5 47.5Q433 21 394 7Q406 -33 421 -49Q436 -65 461 -65Q517 -65 517 27H539Q539 -23 521 -55.5Q503 -88 458 -88ZM387 31Q447 57 482 119.5Q517 182 517 276Q517 336 501.5 384Q486 432 458 465.5Q430 499 390.5 517Q351 535 304 535Q257 535 218 517Q179 499 151 465.5Q123 432 107.5 384Q92 336 92 276Q92 207 111 155Q130 103 165 69Q176 104 202 129Q228 154 270 154Q317 154 343 126.5Q369 99 385 37ZM304 15Q331 15 356 21L354 28Q338 90 316.5 111Q295 132 263 132Q229 132 208.5 108Q188 84 181 55Q233 15 304 15Z" glyph-name="Q.sc" horiz-adv-x="609" /><glyph d="M566 -10Q541 -10 523.5 -0.5Q506 9 493.5 29.5Q481 50 470 82.5Q459 115 447 160Q433 211 419.5 243.5Q406 276 389 295Q372 314 348 321.5Q324 329 289 329H186V23H264V0H53V23H145V667H53V690H291Q422 690 481.5 642Q541 594 541 513Q541 482 531 452.5Q521 423 498.5 399Q476 375 441 359.5Q406 344 355 339Q384 332 404 320.5Q424 309 438.5 289.5Q453 270 464 239.5Q475 209 487 163Q499 120 508 91.5Q517 63 526 46Q535 29 546 21.5Q557 14 573 14Q609 14 620 47.5Q631 81 631 144H654Q654 70 637 30Q620 -10 566 -10ZM186 667V352H291Q354 352 394.5 366.5Q435 381 458.5 404Q482 427 490.5 456Q499 485 499 513Q499 548 488 576.5Q477 605 452.5 625Q428 645 388.5 656Q349 667 293 667Z" glyph-name="R" horiz-adv-x="658" unicode="R" /><glyph d="M509 -8Q485 -8 469.5 -0.5Q454 7 443 23.5Q432 40 423 66Q414 92 404 128Q392 167 379.5 193Q367 219 350.5 234Q334 249 311.5 255Q289 261 257 261H170V22H240V0H49V22H131V528H49V550H263Q382 550 434.5 511.5Q487 473 487 408Q487 383 478 360Q469 337 449 318Q429 299 397 286.5Q365 274 320 271Q347 265 365.5 255.5Q384 246 397.5 230.5Q411 215 421.5 190.5Q432 166 443 130Q453 97 460.5 75Q468 53 476 39.5Q484 26 493.5 20.5Q503 15 517 15Q547 15 556 41Q565 67 565 116H586Q586 56 571.5 24Q557 -8 509 -8ZM170 528V283H263Q320 283 355.5 294Q391 305 411.5 322.5Q432 340 439.5 362.5Q447 385 447 407Q447 463 405.5 495.5Q364 528 265 528Z" glyph-name="R.sc" horiz-adv-x="591" /><glyph d="M313 -10Q271 -10 236.5 -1Q202 8 176 22.5Q150 37 131 55Q112 73 101 92L87 -10H65V210H91Q91 164 108.5 127.5Q126 91 156 66Q186 41 226.5 27.5Q267 14 313 14Q359 14 391.5 24.5Q424 35 444.5 53.5Q465 72 474.5 96.5Q484 121 484 148Q484 180 474.5 206.5Q465 233 442 254.5Q419 276 381 293.5Q343 311 285 326Q237 338 197.5 352.5Q158 367 129.5 389Q101 411 85 443Q69 475 69 522Q69 560 83 592.5Q97 625 123.5 649Q150 673 189 686.5Q228 700 278 700Q345 700 395.5 675.5Q446 651 469 607L481 700H502V483H476Q476 539 458 576.5Q440 614 411.5 636Q383 658 348 667Q313 676 279 676Q196 676 150.5 635.5Q105 595 105 532Q105 490 120.5 462Q136 434 163 414.5Q190 395 226.5 382.5Q263 370 306 358Q361 344 401 327Q441 310 467.5 287Q494 264 507 233Q520 202 520 159Q520 128 509.5 97.5Q499 67 475 43Q451 19 411.5 4.5Q372 -10 313 -10Z" glyph-name="S" horiz-adv-x="579" unicode="S" /><glyph d="M282 -8Q244 -8 213.5 -1Q183 6 159 17.5Q135 29 118.5 42.5Q102 56 93 69L80 -8H59V169H84Q84 133 99.5 104.5Q115 76 142 56Q169 36 205 25.5Q241 15 281 15Q362 15 396.5 46Q431 77 431 120Q431 146 422.5 166Q414 186 394 202.5Q374 219 340.5 232.5Q307 246 256 258Q213 268 177.5 279.5Q142 291 116.5 308.5Q91 326 77 351.5Q63 377 63 415Q63 478 111 518Q159 558 251 558Q307 558 351.5 540.5Q396 523 419 489L430 558H451V383H426Q426 427 410 456.5Q394 486 368.5 503.5Q343 521 312.5 528Q282 535 252 535Q178 535 138 504.5Q98 474 98 423Q98 390 111.5 368.5Q125 347 149 332Q173 317 205.5 306.5Q238 296 276 287Q325 276 361 262.5Q397 249 420.5 231Q444 213 455.5 188Q467 163 467 129Q467 103 458 78.5Q449 54 427.5 34.5Q406 15 370.5 3.5Q335 -8 282 -8Z" glyph-name="S.sc" horiz-adv-x="519" /><glyph d="M189 23H285V667H129Q109 667 96 664.5Q83 662 75.5 655Q68 648 65 634.5Q62 621 62 600V490H36V690H575V490H549V600Q549 621 546.5 634.5Q544 648 536.5 655Q529 662 516 664.5Q503 667 483 667H326V23H423V0H189Z" glyph-name="T" horiz-adv-x="611" unicode="T" /><glyph d="M171 22H257V529H119Q83 529 71 518Q59 507 59 472V389H34V550H518V389H493V472Q493 507 481.5 518Q470 529 433 529H296V22H382V0H171Z" glyph-name="T.sc" horiz-adv-x="551" /><glyph d="M237 575Q302 575 356.5 563.5Q411 552 451 527Q491 502 513 462Q535 422 535 366Q535 310 513 269.5Q491 229 452 202.5Q413 176 358 163Q303 150 237 150H186V23H280V0H52V23H145V667H52V690H280V667H186V575ZM493 366Q493 463 427 507.5Q361 552 238 552H186V173H237Q360 173 426.5 219.5Q493 266 493 366Z" glyph-name="Thorn" horiz-adv-x="577" unicode="&#222;" /><glyph d="M215 457Q275 457 324 447.5Q373 438 408 418Q443 398 462.5 366.5Q482 335 482 291Q482 247 463 214.5Q444 182 409 161Q374 140 324.5 129.5Q275 119 215 119H170V22H253V0H49V22H131V528H49V550H253V528H170V457ZM442 291Q442 366 384 401Q326 436 216 436H170V140H215Q326 140 384 176.5Q442 213 442 291Z" glyph-name="Thorn.sc" horiz-adv-x="520" /><glyph d="M593 242Q593 185 580.5 138.5Q568 92 541 59Q514 26 470.5 8Q427 -10 365 -10Q305 -10 260 8Q215 26 186 59Q157 92 142.5 139Q128 186 128 243V667H35V690H262V667H169V244Q169 138 218.5 77Q268 16 370 16Q424 16 460.5 32Q497 48 520 78Q543 108 553 150.5Q563 193 563 245V667H470V690H685V667H593Z" glyph-name="U" horiz-adv-x="721" unicode="U" /><glyph d="M532 196Q532 150 521 112.5Q510 75 485.5 48Q461 21 422.5 6.5Q384 -8 329 -8Q221 -8 169 48.5Q117 105 117 197V528H34V550H238V528H156V197Q156 113 199.5 65Q243 17 334 17Q381 17 414 30Q447 43 467 66.5Q487 90 496 123.5Q505 157 505 198V528H422V550H615V528H532Z" glyph-name="U.sc" horiz-adv-x="649" /><glyph d="M593 242Q593 185 580.5 138.5Q568 92 541 59Q514 26 470.5 8Q427 -10 365 -10Q305 -10 260 8Q215 26 186 59Q157 92 142.5 139Q128 186 128 243V667H35V690H262V667H169V244Q169 138 218.5 77Q268 16 370 16Q424 16 460.5 32Q497 48 520 78Q543 108 553 150.5Q563 193 563 245V667H470V690H685V667H593ZM462 814Q485 834 497 846Q509 858 509 866Q509 874 504 879Q499 884 488 884Q476 884 464 871Q452 858 432 835L352 740H375Z" glyph-name="Uacute" horiz-adv-x="721" unicode="&#218;" /><glyph d="M339 590H317L388 665Q406 683 417.5 694Q429 705 440 705Q450 705 455 700Q460 695 460 688Q460 677 417 646ZM532 196Q532 150 521 112.5Q510 75 485.5 48Q461 21 422.5 6.5Q384 -8 329 -8Q221 -8 169 48.5Q117 105 117 197V528H34V550H238V528H156V197Q156 113 199.5 65Q243 17 334 17Q381 17 414 30Q447 43 467 66.5Q487 90 496 123.5Q505 157 505 198V528H422V550H615V528H532Z" glyph-name="Uacute.sc" horiz-adv-x="649" /><glyph d="M593 242Q593 185 580.5 138.5Q568 92 541 59Q514 26 470.5 8Q427 -10 365 -10Q305 -10 260 8Q215 26 186 59Q157 92 142.5 139Q128 186 128 243V667H35V690H262V667H169V244Q169 138 218.5 77Q268 16 370 16Q424 16 460.5 32Q497 48 520 78Q543 108 553 150.5Q563 193 563 245V667H470V690H685V667H593ZM239 740 357 872H376L489 740H467L366 839L261 740Z" glyph-name="Ucircumflex" horiz-adv-x="721" unicode="&#219;" /><glyph d="M216 590 320 695H338L441 590H420L328 665L237 590ZM532 196Q532 150 521 112.5Q510 75 485.5 48Q461 21 422.5 6.5Q384 -8 329 -8Q221 -8 169 48.5Q117 105 117 197V528H34V550H238V528H156V197Q156 113 199.5 65Q243 17 334 17Q381 17 414 30Q447 43 467 66.5Q487 90 496 123.5Q505 157 505 198V528H422V550H615V528H532Z" glyph-name="Ucircumflex.sc" horiz-adv-x="649" /><glyph d="M593 242Q593 185 580.5 138.5Q568 92 541 59Q514 26 470.5 8Q427 -10 365 -10Q305 -10 260 8Q215 26 186 59Q157 92 142.5 139Q128 186 128 243V667H35V690H262V667H169V244Q169 138 218.5 77Q268 16 370 16Q424 16 460.5 32Q497 48 520 78Q543 108 553 150.5Q563 193 563 245V667H470V690H685V667H593ZM309 802Q309 794 302.5 783Q296 772 278 772Q261 772 254.5 783Q248 794 248 802Q248 810 254.5 821.5Q261 833 278 833Q296 833 302.5 821.5Q309 810 309 802ZM489 802Q489 794 482.5 783Q476 772 458 772Q441 772 434.5 783Q428 794 428 802Q428 810 434.5 821.5Q441 833 458 833Q476 833 482.5 821.5Q489 810 489 802Z" glyph-name="Udieresis" horiz-adv-x="721" unicode="&#220;" /><glyph d="M279 641Q279 633 273 623.5Q267 614 251 614Q236 614 230 623.5Q224 633 224 641Q224 649 230 659Q236 669 251 669Q267 669 273 659Q279 649 279 641ZM441 641Q441 633 434.5 623.5Q428 614 413 614Q398 614 391.5 623.5Q385 633 385 641Q385 649 391.5 659Q398 669 413 669Q428 669 434.5 659Q441 649 441 641ZM532 196Q532 150 521 112.5Q510 75 485.5 48Q461 21 422.5 6.5Q384 -8 329 -8Q221 -8 169 48.5Q117 105 117 197V528H34V550H238V528H156V197Q156 113 199.5 65Q243 17 334 17Q381 17 414 30Q447 43 467 66.5Q487 90 496 123.5Q505 157 505 198V528H422V550H615V528H532Z" glyph-name="Udieresis.sc" horiz-adv-x="649" /><glyph d="M593 242Q593 185 580.5 138.5Q568 92 541 59Q514 26 470.5 8Q427 -10 365 -10Q305 -10 260 8Q215 26 186 59Q157 92 142.5 139Q128 186 128 243V667H35V690H262V667H169V244Q169 138 218.5 77Q268 16 370 16Q424 16 460.5 32Q497 48 520 78Q543 108 553 150.5Q563 193 563 245V667H470V690H685V667H593ZM283 814Q260 834 248 846Q236 858 236 866Q236 874 241 879Q246 884 257 884Q269 884 281 871Q293 858 313 835L393 740H370Z" glyph-name="Ugrave" horiz-adv-x="721" unicode="&#217;" /><glyph d="M256 646Q214 676 214 688Q214 695 219 700Q224 705 233 705Q244 705 255.5 694Q267 683 285 665L356 590H334ZM532 196Q532 150 521 112.5Q510 75 485.5 48Q461 21 422.5 6.5Q384 -8 329 -8Q221 -8 169 48.5Q117 105 117 197V528H34V550H238V528H156V197Q156 113 199.5 65Q243 17 334 17Q381 17 414 30Q447 43 467 66.5Q487 90 496 123.5Q505 157 505 198V528H422V550H615V528H532Z" glyph-name="Ugrave.sc" horiz-adv-x="649" /><glyph d="M571 667 341 -6H309L73 667H-5V690H193V667H113L331 46L543 667H466V690H648V667Z" glyph-name="V" horiz-adv-x="648" unicode="V" /><glyph d="M512 528 308 -4H276L68 528H-3V550H175V528H105L297 39L484 528H417V550H581V528Z" glyph-name="V.sc" horiz-adv-x="581" /><glyph d="M466 639 290 -6H248L75 667H-3V690H191V667H113L276 34L455 690H487L666 33L816 667H738V690H921V667H844L685 -6H642Z" glyph-name="W" horiz-adv-x="924" unicode="W" /><glyph d="M546 667H403L475 474ZM468 392 322 -6H280L70 667H-9V690H179V667H109L309 25L456 424L365 667H293V690H643V667H570L487 442L644 23L835 667H760V690H928V667H858L658 -6H617Z" glyph-name="W.alt" horiz-adv-x="931" /><glyph d="M484 528H365L425 384ZM419 313 289 -4H249L63 528H-7V550H162V528H100L277 22L407 340L329 528H263V550H576V528H507L437 357L575 23L743 528H679V550H829V528H766L589 -4H550Z" glyph-name="W.alt.sc" horiz-adv-x="833" /><glyph d="M418 499 262 -4H221L68 528H-1V550H173V528H104L248 26L411 550H438L599 31L730 528H660V550H824V528H755L614 -4H574Z" glyph-name="W.sc" horiz-adv-x="828" /><glyph d="M11 0V23H86L305 354L97 667H23V690H218V667H142L330 384L512 667H438V690H617V667H543L345 362L570 23H642V0H450V23H525L320 331L117 23H189V0Z" glyph-name="X" horiz-adv-x="648" unicode="X" /><glyph d="M14 0V22H82L275 281L91 528H25V550H201V528H136L301 307L461 528H396V550H556V528H490L315 288L514 22H579V0H405V22H469L290 261L112 22H175V0Z" glyph-name="X.sc" horiz-adv-x="588" /><glyph d="M426 0H192V23H289V300L68 667H-5V690H186V667H110L314 328L505 667H431V690H606V667H535L330 303V23H426Z" glyph-name="Y" horiz-adv-x="611" unicode="Y" /><glyph d="M383 0H173V22H258V238L55 528H-6V550H163V528H98L284 263L457 528H393V550H543V528H485L297 241V22H383Z" glyph-name="Y.sc" horiz-adv-x="551" /><glyph d="M426 0H192V23H289V300L68 667H-5V690H186V667H110L314 328L505 667H431V690H606V667H535L330 303V23H426ZM404 814Q427 834 439 846Q451 858 451 866Q451 874 446 879Q441 884 430 884Q418 884 406 871Q394 858 374 835L294 740H317Z" glyph-name="Yacute" horiz-adv-x="611" unicode="&#221;" /><glyph d="M286 590H264L334 665Q353 683 364 694Q375 705 386 705Q396 705 401 700Q406 695 406 688Q406 676 363 646ZM383 0H173V22H258V238L55 528H-6V550H163V528H98L284 263L457 528H393V550H543V528H485L297 241V22H383Z" glyph-name="Yacute.sc" horiz-adv-x="551" /><glyph d="M48 0V22L468 667H154Q114 667 98 655Q82 643 82 600V502H56V690H511V668L90 23H423Q465 23 476.5 39Q488 55 488 93V193H514V0Z" glyph-name="Z" horiz-adv-x="563" unicode="Z" /><glyph d="M48 0V22L473 659H147Q106 659 94 645.5Q82 632 82 600V502H56V690H511V668L86 31H430Q467 31 477.5 49Q488 67 488 93V193H514V0Z" glyph-name="Z.alt" horiz-adv-x="564" /><glyph d="M45 0V20L423 521H135Q99 521 88 509.5Q77 498 77 469V394H52V550H460V530L82 29H385Q418 29 427.5 44Q437 59 437 84V160H462V0Z" glyph-name="Z.alt.sc" horiz-adv-x="509" /><glyph d="M44 0V20L416 528H140Q104 528 90 518Q76 508 76 472V397H51V550H459V530L87 22H378Q416 22 426 35.5Q436 49 436 82V157H461V0Z" glyph-name="Z.sc" horiz-adv-x="507" /><glyph d="M449 -10Q433 -10 419 -5Q405 0 394.5 13.5Q384 27 378.5 50Q373 73 375 110Q355 42 308 16Q261 -10 198 -10Q170 -10 143 -2.5Q116 5 95 20.5Q74 36 61.5 61Q49 86 49 122Q49 156 62.5 183.5Q76 211 106 231Q136 251 184 262Q232 273 301 273H371V319Q371 396 337 435.5Q303 475 232 475Q186 475 146 455Q106 435 94 394Q111 393 117.5 384.5Q124 376 124 367Q124 355 116.5 347.5Q109 340 96 340Q82 340 74.5 348Q67 356 67 369Q67 394 79 417Q91 440 113.5 458Q136 476 168 486.5Q200 497 239 497Q410 497 410 318V94Q410 69 414.5 54Q419 39 426.5 31Q434 23 442.5 20.5Q451 18 458 18Q484 18 496 41Q508 64 508 119H527Q527 53 509 21.5Q491 -10 449 -10ZM210 17Q243 17 272 26Q301 35 323 55.5Q345 76 358 107.5Q371 139 371 184V252H301Q242 252 201.5 243Q161 234 136.5 217.5Q112 201 101 177.5Q90 154 90 126Q90 96 100 75.5Q110 55 127 42Q144 29 165.5 23Q187 17 210 17Z" glyph-name="a" horiz-adv-x="534" unicode="a" /><glyph d="M449 -10Q433 -10 419 -5Q405 0 394.5 13.5Q384 27 378.5 50Q373 73 375 110Q355 42 308 16Q261 -10 198 -10Q170 -10 143 -2.5Q116 5 95 20.5Q74 36 61.5 61Q49 86 49 122Q49 156 62.5 183.5Q76 211 106 231Q136 251 184 262Q232 273 301 273H371V319Q371 396 337 435.5Q303 475 232 475Q186 475 146 455Q106 435 94 394Q111 393 117.5 384.5Q124 376 124 367Q124 355 116.5 347.5Q109 340 96 340Q82 340 74.5 348Q67 356 67 369Q67 394 79 417Q91 440 113.5 458Q136 476 168 486.5Q200 497 239 497Q410 497 410 318V94Q410 69 414.5 54Q419 39 426.5 31Q434 23 442.5 20.5Q451 18 458 18Q484 18 496 41Q508 64 508 119H527Q527 53 509 21.5Q491 -10 449 -10ZM210 17Q243 17 272 26Q301 35 323 55.5Q345 76 358 107.5Q371 139 371 184V252H301Q242 252 201.5 243Q161 234 136.5 217.5Q112 201 101 177.5Q90 154 90 126Q90 96 100 75.5Q110 55 127 42Q144 29 165.5 23Q187 17 210 17ZM237 601 307 699Q327 727 339.5 739.5Q352 752 363 752Q384 752 384 734Q384 726 371 712Q358 698 326 672L256 601Z" glyph-name="aacute" horiz-adv-x="534" unicode="&#225;" /><glyph d="M449 -10Q433 -10 419 -5Q405 0 394.5 13.5Q384 27 378.5 50Q373 73 375 110Q355 42 308 16Q261 -10 198 -10Q170 -10 143 -2.5Q116 5 95 20.5Q74 36 61.5 61Q49 86 49 122Q49 156 62.5 183.5Q76 211 106 231Q136 251 184 262Q232 273 301 273H371V319Q371 396 337 435.5Q303 475 232 475Q186 475 146 455Q106 435 94 394Q111 393 117.5 384.5Q124 376 124 367Q124 355 116.5 347.5Q109 340 96 340Q82 340 74.5 348Q67 356 67 369Q67 394 79 417Q91 440 113.5 458Q136 476 168 486.5Q200 497 239 497Q410 497 410 318V94Q410 69 414.5 54Q419 39 426.5 31Q434 23 442.5 20.5Q451 18 458 18Q484 18 496 41Q508 64 508 119H527Q527 53 509 21.5Q491 -10 449 -10ZM210 17Q243 17 272 26Q301 35 323 55.5Q345 76 358 107.5Q371 139 371 184V252H301Q242 252 201.5 243Q161 234 136.5 217.5Q112 201 101 177.5Q90 154 90 126Q90 96 100 75.5Q110 55 127 42Q144 29 165.5 23Q187 17 210 17ZM114 602 243 754H257L382 602H359L250 717L137 602Z" glyph-name="acircumflex" horiz-adv-x="534" unicode="&#226;" /><glyph d="M108 601 178 699Q198 727 210.5 739.5Q223 752 234 752Q255 752 255 734Q255 726 242 712Q229 698 197 672L127 601Z" glyph-name="acute" horiz-adv-x="366" unicode="&#180;" /><glyph d="M124 740H101L181 835Q201 858 213 871Q225 884 237 884Q248 884 253 879Q258 874 258 866Q258 858 246 846Q234 834 211 814Z" glyph-name="acute.cap" horiz-adv-x="348" /><glyph d="M101 602 147 708Q168 761 188 761Q198 761 203.5 756Q209 751 209 743Q209 733 199.5 719Q190 705 171 680L121 602Z" glyph-name="acute.pl" horiz-adv-x="302" /><glyph d="M106 740 151 843Q161 868 169 884Q177 900 191 900Q199 900 204 895Q209 890 209 883Q209 874 202 861.5Q195 849 184 831L130 740Z" glyph-name="acute.uc.pl" horiz-adv-x="302" /><glyph d="M449 -10Q433 -10 419 -5Q405 0 394.5 13.5Q384 27 378.5 50Q373 73 375 110Q355 42 308 16Q261 -10 198 -10Q170 -10 143 -2.5Q116 5 95 20.5Q74 36 61.5 61Q49 86 49 122Q49 156 62.5 183.5Q76 211 106 231Q136 251 184 262Q232 273 301 273H371V319Q371 396 337 435.5Q303 475 232 475Q186 475 146 455Q106 435 94 394Q111 393 117.5 384.5Q124 376 124 367Q124 355 116.5 347.5Q109 340 96 340Q82 340 74.5 348Q67 356 67 369Q67 394 79 417Q91 440 113.5 458Q136 476 168 486.5Q200 497 239 497Q410 497 410 318V94Q410 69 414.5 54Q419 39 426.5 31Q434 23 442.5 20.5Q451 18 458 18Q484 18 496 41Q508 64 508 119H527Q527 53 509 21.5Q491 -10 449 -10ZM210 17Q243 17 272 26Q301 35 323 55.5Q345 76 358 107.5Q371 139 371 184V252H301Q242 252 201.5 243Q161 234 136.5 217.5Q112 201 101 177.5Q90 154 90 126Q90 96 100 75.5Q110 55 127 42Q144 29 165.5 23Q187 17 210 17ZM183 651Q183 643 176 631Q169 619 150 619Q130 619 123.5 631Q117 643 117 651Q117 659 123.5 671.5Q130 684 150 684Q169 684 176 671.5Q183 659 183 651ZM351 651Q351 643 344 631Q337 619 318 619Q298 619 291.5 631Q285 643 285 651Q285 659 291.5 671.5Q298 684 318 684Q337 684 344 671.5Q351 659 351 651Z" glyph-name="adieresis" horiz-adv-x="534" unicode="&#228;" /><glyph d="M595 -10Q515 -10 462 32.5Q409 75 389 147Q376 66 324 28Q272 -10 202 -10Q172 -10 144.5 -2.5Q117 5 96 20.5Q75 36 62 61Q49 86 49 122Q49 156 62.5 184Q76 212 106 231.5Q136 251 184 262Q232 273 301 273H371V319Q371 396 337 435.5Q303 475 232 475Q209 475 186.5 470Q164 465 145.5 454.5Q127 444 114 428.5Q101 413 97 393Q111 392 117.5 384Q124 376 124 367Q124 355 116.5 347.5Q109 340 96 340Q82 340 74.5 348Q67 356 67 369Q67 394 79 417Q91 440 113.5 458Q136 476 168 486.5Q200 497 239 497Q382 497 402 365Q425 423 472 460Q519 497 586 497Q637 497 675.5 478.5Q714 460 740 428.5Q766 397 779.5 356Q793 315 793 269V253H413V245Q413 195 424.5 152.5Q436 110 459 79Q482 48 516.5 30.5Q551 13 598 13Q667 13 709.5 46Q752 79 769 142L789 136Q770 64 720 27Q670 -10 595 -10ZM586 475Q543 475 511 457.5Q479 440 458 411.5Q437 383 426 347Q415 311 413 273H752Q751 312 740.5 348.5Q730 385 710 413Q690 441 659 458Q628 475 586 475ZM210 17Q281 17 326 61Q371 105 371 199V253H301Q242 253 201.5 244Q161 235 136.5 218.5Q112 202 101 178.5Q90 155 90 126Q90 96 100 75.5Q110 55 127 42Q144 29 165.5 23Q187 17 210 17Z" glyph-name="ae" horiz-adv-x="841" unicode="&#230;" /><glyph d="M449 -10Q433 -10 419 -5Q405 0 394.5 13.5Q384 27 378.5 50Q373 73 375 110Q355 42 308 16Q261 -10 198 -10Q170 -10 143 -2.5Q116 5 95 20.5Q74 36 61.5 61Q49 86 49 122Q49 156 62.5 183.5Q76 211 106 231Q136 251 184 262Q232 273 301 273H371V319Q371 396 337 435.5Q303 475 232 475Q186 475 146 455Q106 435 94 394Q111 393 117.5 384.5Q124 376 124 367Q124 355 116.5 347.5Q109 340 96 340Q82 340 74.5 348Q67 356 67 369Q67 394 79 417Q91 440 113.5 458Q136 476 168 486.5Q200 497 239 497Q410 497 410 318V94Q410 69 414.5 54Q419 39 426.5 31Q434 23 442.5 20.5Q451 18 458 18Q484 18 496 41Q508 64 508 119H527Q527 53 509 21.5Q491 -10 449 -10ZM210 17Q243 17 272 26Q301 35 323 55.5Q345 76 358 107.5Q371 139 371 184V252H301Q242 252 201.5 243Q161 234 136.5 217.5Q112 201 101 177.5Q90 154 90 126Q90 96 100 75.5Q110 55 127 42Q144 29 165.5 23Q187 17 210 17ZM194 672Q162 698 149 712Q136 726 136 734Q136 752 157 752Q168 752 180.5 739.5Q193 727 213 699L283 601H264Z" glyph-name="agrave" horiz-adv-x="534" unicode="&#224;" /><glyph d="M576 -10Q540 -10 508.5 6Q477 22 440 57Q401 23 354 6.5Q307 -10 255 -10Q200 -10 161 2Q122 14 97.5 35.5Q73 57 62 86Q51 115 51 149Q51 184 63.5 211.5Q76 239 96.5 262.5Q117 286 143.5 306Q170 326 199 344Q171 381 152 408Q133 435 121 458Q109 481 104 501.5Q99 522 99 545Q99 580 111.5 609Q124 638 146 658Q168 678 198.5 689Q229 700 264 700Q297 700 326 690.5Q355 681 377 662.5Q399 644 411.5 616Q424 588 424 552Q424 520 411.5 492.5Q399 465 375.5 440Q352 415 319.5 391.5Q287 368 247 344Q261 325 277.5 305Q294 285 313 262Q358 205 391.5 164.5Q425 124 451 97Q492 141 518 202.5Q544 264 557 341H471V364H671V341H582Q567 253 537.5 188.5Q508 124 466 81Q488 59 504.5 45.5Q521 32 534.5 25Q548 18 559.5 15.5Q571 13 584 13Q633 13 652 50.5Q671 88 671 156H694Q694 119 688.5 88.5Q683 58 669.5 36Q656 14 633 2Q610 -10 576 -10ZM140 550Q140 498 166.5 455.5Q193 413 234 360Q265 380 292 401Q319 422 339 445.5Q359 469 370.5 495.5Q382 522 382 553Q382 577 375.5 599Q369 621 354.5 638.5Q340 656 318 666Q296 676 264 676Q234 676 210.5 665.5Q187 655 171.5 638Q156 621 148 598Q140 575 140 550ZM260 14Q358 14 424 72Q396 101 362 142Q328 183 283 237Q263 263 245.5 284.5Q228 306 213 326Q162 290 127.5 248.5Q93 207 93 153Q93 115 106 88.5Q119 62 142 45.5Q165 29 195.5 21.5Q226 14 260 14Z" glyph-name="ampersand" horiz-adv-x="736" unicode="&amp;" /><glyph d="M598 -10Q557 -10 526.5 3Q496 16 462 51Q425 22 377 6Q329 -10 268 -10Q168 -10 113 29Q58 68 58 143Q58 176 70.5 206.5Q83 237 104.5 267Q126 297 153.5 328Q181 359 211 393L224 408L63 666V690H484V666L262 415L349 276Q390 210 420 165Q450 120 473 91Q517 138 539 205.5Q561 273 566 353H476V376H676V353H592Q584 264 558.5 193Q533 122 486 74Q503 54 517.5 42Q532 30 545.5 23.5Q559 17 572.5 15Q586 13 601 13Q658 13 680 50.5Q702 88 702 154H725Q725 79 697 34.5Q669 -10 598 -10ZM453 667H105L249 436ZM276 13Q330 13 372.5 27Q415 41 447 67Q421 97 391.5 141.5Q362 186 322 250L237 387L225 373Q192 336 168 306Q144 276 128.5 249.5Q113 223 106 198Q99 173 99 147Q99 108 114.5 82.5Q130 57 155 41.5Q180 26 211.5 19.5Q243 13 276 13Z" glyph-name="ampersand.alt" horiz-adv-x="762" /><glyph d="M537 -8Q499 -8 471.5 3Q444 14 412 44Q379 19 336.5 5.5Q294 -8 240 -8Q140 -8 98 24.5Q56 57 56 116Q56 142 67 165.5Q78 189 96 212Q114 235 137.5 258Q161 281 186 307L203 324L60 529V550H432V527L239 332L321 215Q354 168 379 136Q404 104 423 81Q463 119 484.5 171.5Q506 224 512 281H432V302H610V281H536Q526 216 502.5 160.5Q479 105 437 65Q452 48 465 38Q478 28 490 22.5Q502 17 514 15.5Q526 14 540 14Q591 14 609.5 43.5Q628 73 628 126H649Q649 65 625 28.5Q601 -8 537 -8ZM404 527H103L227 349ZM249 14Q295 14 332 26Q369 38 398 59Q376 83 350.5 117Q325 151 291 199L215 308L197 290Q147 238 121 201.5Q95 165 95 122Q95 61 137 37.5Q179 14 249 14Z" glyph-name="ampersand.alt.sc" horiz-adv-x="688" /><glyph d="M269 476Q224 476 192.5 458.5Q161 441 140 412.5Q119 384 108 347.5Q97 311 95 273H422Q421 312 412 348.5Q403 385 385 413.5Q367 442 338.5 459Q310 476 269 476ZM366 13Q501 13 574 78Q647 143 659 251H95Q95 199 111 155Q127 111 160 79.5Q193 48 244 30.5Q295 13 366 13ZM681 251Q675 197 653.5 149Q632 101 593.5 66Q555 31 498 10.5Q441 -10 363 -10Q284 -10 225.5 9Q167 28 129 62Q91 96 72.5 143Q54 190 54 247Q54 301 69 346.5Q84 392 111.5 425.5Q139 459 179 478Q219 497 269 497Q319 497 355.5 478.5Q392 460 416 429Q440 398 451.5 357.5Q463 317 463 273H660Q661 278 661 283.5Q661 289 661 294Q661 329 655 361.5Q649 394 638 422Q627 450 610 470.5Q593 491 570 500Q568 483 559.5 474.5Q551 466 537 466Q523 466 514.5 474Q506 482 506 496Q506 511 517.5 519.5Q529 528 546 528Q572 528 597 512Q622 496 641 465.5Q660 435 671.5 391.5Q683 348 683 294Q683 289 683 283.5Q683 278 682 273H773V251Z" glyph-name="ampersand.old" horiz-adv-x="802" /><glyph d="M520 -8Q487 -8 457.5 5.5Q428 19 399 45Q364 18 321.5 5Q279 -8 231 -8Q182 -8 147.5 1.5Q113 11 91 28Q69 45 59.5 67.5Q50 90 50 117Q50 141 61 163Q72 185 90 204.5Q108 224 131.5 241.5Q155 259 181 274Q132 329 110.5 366Q89 403 89 440Q89 467 100 489Q111 511 131 526Q151 541 178 549.5Q205 558 236 558Q299 558 339.5 529Q380 500 380 443Q380 418 367 395.5Q354 373 332.5 352Q311 331 282.5 311.5Q254 292 223 274Q246 250 271.5 222Q297 194 322 167.5Q347 141 369.5 118Q392 95 408 80Q443 114 467 162.5Q491 211 502 270H425V291H605V270H526Q498 135 424 66Q457 33 480.5 23.5Q504 14 527 14Q571 14 587.5 42.5Q604 71 604 125H625Q625 96 620 71.5Q615 47 603 29.5Q591 12 570.5 2Q550 -8 520 -8ZM127 442Q127 404 149 368.5Q171 333 209 290Q274 327 308 361.5Q342 396 342 441Q342 482 317.5 509.5Q293 537 236 537Q183 537 155 510.5Q127 484 127 442ZM240 14Q282 14 318 25.5Q354 37 383 58Q366 75 342.5 99.5Q319 124 293.5 151.5Q268 179 242 207Q216 235 195 258Q139 225 113.5 192.5Q88 160 88 120Q88 91 99.5 70.5Q111 50 131 37.5Q151 25 179 19.5Q207 14 240 14Z" glyph-name="ampersand.sc" horiz-adv-x="668" /><glyph d="M507 -10Q477 -10 450 5.5Q423 21 389 59Q358 26 318.5 8Q279 -10 228 -10Q180 -10 147 3.5Q114 17 93 38.5Q72 60 63 88Q54 116 54 145Q54 178 64.5 205.5Q75 233 93 257Q111 281 134 302Q157 323 181 342Q158 377 142 405.5Q126 434 116.5 459Q107 484 102.5 506.5Q98 529 98 551Q98 620 138 660Q178 700 240 700Q268 700 292.5 692Q317 684 335.5 667Q354 650 365 623.5Q376 597 376 561Q376 527 363.5 498.5Q351 470 330 445Q309 420 281.5 396.5Q254 373 224 349Q238 329 254 306Q270 283 288 257Q323 208 349.5 171Q376 134 396 107Q425 152 442 212Q459 272 467 341H388V363H575V341H493Q483 262 463.5 197.5Q444 133 412 87Q447 44 469 28.5Q491 13 513 13Q546 13 560.5 46Q575 79 575 145H597Q597 75 578.5 32.5Q560 -10 507 -10ZM136 558Q136 515 154 472.5Q172 430 212 368Q238 389 260.5 410Q283 431 300 454.5Q317 478 327 505Q337 532 337 563Q337 610 314 643.5Q291 677 240 677Q188 677 162 642Q136 607 136 558ZM235 13Q278 13 312.5 30Q347 47 374 77Q348 107 318 148.5Q288 190 248 246Q232 267 218.5 286.5Q205 306 193 323Q153 288 123.5 246.5Q94 205 94 151Q94 87 132.5 50Q171 13 235 13Z" glyph-name="ampersand.tln" horiz-adv-x="640" /><glyph d="M213 476Q179 476 154.5 458.5Q130 441 114 412.5Q98 384 89.5 347.5Q81 311 79 273H326Q325 312 318.5 348.5Q312 385 299 413.5Q286 442 265 459Q244 476 213 476ZM293 13Q342 13 381.5 30Q421 47 449.5 78Q478 109 495.5 153.5Q513 198 518 252H79V245Q79 195 92.5 152.5Q106 110 133 79Q160 48 200 30.5Q240 13 293 13ZM543 252Q538 198 520.5 150Q503 102 471.5 66.5Q440 31 395 10.5Q350 -10 291 -10Q230 -10 182.5 9Q135 28 103 62Q71 96 54.5 143Q38 190 38 247Q38 301 50 346.5Q62 392 85 425.5Q108 459 140.5 478Q173 497 213 497Q252 497 281 478.5Q310 460 329 429Q348 398 357.5 357.5Q367 317 367 273H520V294Q520 329 514.5 361.5Q509 394 498.5 421Q488 448 471.5 469Q455 490 433 500Q425 466 398 466Q384 466 375.5 474Q367 482 367 496Q367 528 407 528Q433 528 457.5 512Q482 496 501.5 465.5Q521 435 533 391.5Q545 348 545 294V273H621V252Z" glyph-name="ampersand.ton" horiz-adv-x="640" /><glyph d="M449 -10Q433 -10 419 -5Q405 0 394.5 13.5Q384 27 378.5 50Q373 73 375 110Q355 42 308 16Q261 -10 198 -10Q170 -10 143 -2.5Q116 5 95 20.5Q74 36 61.5 61Q49 86 49 122Q49 156 62.5 183.5Q76 211 106 231Q136 251 184 262Q232 273 301 273H371V319Q371 396 337 435.5Q303 475 232 475Q186 475 146 455Q106 435 94 394Q111 393 117.5 384.5Q124 376 124 367Q124 355 116.5 347.5Q109 340 96 340Q82 340 74.5 348Q67 356 67 369Q67 394 79 417Q91 440 113.5 458Q136 476 168 486.5Q200 497 239 497Q410 497 410 318V94Q410 69 414.5 54Q419 39 426.5 31Q434 23 442.5 20.5Q451 18 458 18Q484 18 496 41Q508 64 508 119H527Q527 53 509 21.5Q491 -10 449 -10ZM210 17Q243 17 272 26Q301 35 323 55.5Q345 76 358 107.5Q371 139 371 184V252H301Q242 252 201.5 243Q161 234 136.5 217.5Q112 201 101 177.5Q90 154 90 126Q90 96 100 75.5Q110 55 127 42Q144 29 165.5 23Q187 17 210 17ZM242 592Q203 592 178 617Q153 642 153 680Q153 719 178 744Q203 769 242 769Q281 769 306 744Q331 719 331 680Q331 642 306 617Q281 592 242 592ZM242 615Q271 615 289 633Q307 651 307 680Q307 709 289 727.5Q271 746 242 746Q213 746 195 727.5Q177 709 177 680Q177 651 195 633Q213 615 242 615Z" glyph-name="aring" horiz-adv-x="534" unicode="&#229;" /><glyph d="M205 657 78 384H53L195 690H217L358 384H331Z" glyph-name="asciicircum" horiz-adv-x="410" unicode="^" /><glyph d="M319 657 192 384H167L309 690H331L472 384H445Z" glyph-name="asciicircum.tln" horiz-adv-x="640" /><glyph d="M487 366Q487 297 464 259.5Q441 222 384 222Q344 222 317.5 241Q291 260 269 283.5Q247 307 225.5 326Q204 345 175 345Q136 345 116.5 315Q97 285 97 230H76Q76 300 101.5 337Q127 374 182 374Q220 374 245.5 355Q271 336 292.5 312.5Q314 289 337 270Q360 251 391 251Q408 251 421.5 256Q435 261 445 273.5Q455 286 460.5 308.5Q466 331 466 366Z" glyph-name="asciitilde" horiz-adv-x="561" unicode="~" /><glyph d="M526 366Q526 297 503 259.5Q480 222 423 222Q383 222 356.5 241Q330 260 308 283.5Q286 307 264.5 326Q243 345 214 345Q175 345 155.5 315Q136 285 136 230H115Q115 300 140.5 337Q166 374 221 374Q259 374 284.5 355Q310 336 331.5 312.5Q353 289 376 270Q399 251 430 251Q447 251 460.5 256Q474 261 484 273.5Q494 286 499.5 308.5Q505 331 505 366Z" glyph-name="asciitilde.tln" horiz-adv-x="640" /><glyph d="M192 570 176 663Q170 682 178.5 691Q187 700 199 700Q210 700 219 691.5Q228 683 223 663L206 570ZM184 557 96 593Q78 597 74 609.5Q70 622 76 632Q82 642 94.5 645Q107 648 120 633L190 569ZM215 557 208 569 278 633Q291 647 303.5 644.5Q316 642 322 632Q328 622 325 610Q322 598 302 593ZM119 480Q107 466 94.5 469Q82 472 77 482Q70 492 74 503.5Q78 515 96 520L183 556L190 544ZM303 520Q320 515 324 503Q328 491 321 481Q315 471 303 468.5Q291 466 278 480L207 544L215 555ZM223 449Q228 431 219 422Q210 413 199 414Q187 414 178.5 423Q170 432 175 449L192 543H206Z" glyph-name="asterisk" horiz-adv-x="391" unicode="*" /><glyph d="M174 451 160 526Q155 543 162.5 550.5Q170 558 180 558Q191 558 199 550.5Q207 543 202 526L186 451ZM167 441 90 469Q73 472 70 483Q67 494 72 502Q77 510 88 512Q99 514 111 502L173 450ZM194 441 188 450 250 502Q262 514 273 512Q284 510 289 502Q294 494 291.5 483.5Q289 473 272 469ZM110 378Q99 367 88 369Q77 371 72 380Q67 388 70 398Q73 408 89 412L166 440L173 430ZM272 411Q288 407 291 396.5Q294 386 290 379Q285 370 273 368.5Q261 367 250 378L188 430L194 439ZM202 353Q207 338 199 330Q191 322 180 323Q169 323 162 330.5Q155 338 160 354L174 429H186Z" glyph-name="asterisk.sc" horiz-adv-x="362" /><glyph d="M313 570 297 663Q291 682 299.5 691Q308 700 320 700Q331 700 340 691.5Q349 683 344 663L327 570ZM305 557 217 593Q199 597 195 609.5Q191 622 197 632Q203 642 215.5 645Q228 648 241 633L311 569ZM336 557 329 569 399 633Q412 647 424.5 644.5Q437 642 443 632Q449 622 446 610Q443 598 423 593ZM240 480Q228 466 215.5 469Q203 472 198 482Q191 492 195 503.5Q199 515 217 520L304 556L311 544ZM424 520Q441 515 445 503Q449 491 442 481Q436 471 424 468.5Q412 466 399 480L328 544L336 555ZM344 449Q349 431 340 422Q331 413 320 414Q308 414 299.5 423Q291 432 296 449L313 543H327Z" glyph-name="asterisk.tln" horiz-adv-x="640" /><glyph d="M445 -213Q355 -213 282.5 -188Q210 -163 159 -112.5Q108 -62 81 14Q54 90 54 192Q54 285 84.5 366Q115 447 170.5 507.5Q226 568 305 602.5Q384 637 480 637Q582 637 650.5 606Q719 575 760.5 523.5Q802 472 819.5 405.5Q837 339 837 268Q837 217 828.5 167.5Q820 118 800.5 78.5Q781 39 749 14.5Q717 -10 670 -10Q615 -10 585.5 21.5Q556 53 554 111Q545 89 532 67.5Q519 46 500 28.5Q481 11 455 0.5Q429 -10 395 -10Q318 -10 279.5 52Q241 114 251 217Q256 262 271.5 301.5Q287 341 311.5 370.5Q336 400 370.5 416.5Q405 433 448 433Q498 433 533 405.5Q568 378 576 318L603 433H620L588 171Q570 13 672 13Q705 13 731 31Q757 49 775 82Q793 115 802 162Q811 209 811 267Q811 336 795 398.5Q779 461 741 509Q703 557 639 585.5Q575 614 480 614Q389 614 315 581.5Q241 549 189 492Q137 435 109 358Q81 281 81 192Q81 95 106 23Q131 -49 178.5 -96Q226 -143 293.5 -166.5Q361 -190 445 -190Q518 -190 582 -175.5Q646 -161 700 -122L710 -141Q672 -170 606.5 -191.5Q541 -213 445 -213ZM402 13Q437 13 464 29Q491 45 510 71.5Q529 98 540.5 133Q552 168 556 205Q568 313 540.5 361.5Q513 410 451 410Q413 410 384 394Q355 378 335 351Q315 324 303.5 289Q292 254 288 217Q284 178 287.5 141.5Q291 105 304.5 76.5Q318 48 342 30.5Q366 13 402 13Z" glyph-name="at" horiz-adv-x="897" unicode="@" /><glyph d="M445 -83Q355 -83 282.5 -58Q210 -33 159 17.5Q108 68 81 144Q54 220 54 322Q54 415 84.5 496Q115 577 170.5 637.5Q226 698 305 732.5Q384 767 480 767Q582 767 650.5 736Q719 705 760.5 653.5Q802 602 819.5 535.5Q837 469 837 398Q837 347 828.5 297.5Q820 248 800.5 208.5Q781 169 749 144.5Q717 120 670 120Q615 120 585.5 151.5Q556 183 554 241Q545 219 532 197.5Q519 176 500 158.5Q481 141 455 130.5Q429 120 395 120Q318 120 279.5 182Q241 244 251 347Q256 392 271.5 431.5Q287 471 311.5 500.5Q336 530 370.5 546.5Q405 563 448 563Q498 563 533 535.5Q568 508 576 448L603 563H620L588 301Q570 143 672 143Q705 143 731 161Q757 179 775 212Q793 245 802 292Q811 339 811 397Q811 466 795 528.5Q779 591 741 639Q703 687 639 715.5Q575 744 480 744Q389 744 315 711.5Q241 679 189 622Q137 565 109 488Q81 411 81 322Q81 225 106 153Q131 81 178.5 34Q226 -13 293.5 -36.5Q361 -60 445 -60Q518 -60 582 -45.5Q646 -31 700 8L710 -11Q672 -40 606.5 -61.5Q541 -83 445 -83ZM402 143Q437 143 464 159Q491 175 510 201.5Q529 228 540.5 263Q552 298 556 335Q568 443 540.5 491.5Q513 540 451 540Q413 540 384 524Q355 508 335 481Q315 454 303.5 419Q292 384 288 347Q284 308 287.5 271.5Q291 235 304.5 206.5Q318 178 342 160.5Q366 143 402 143Z" glyph-name="at.cap" horiz-adv-x="880" /><glyph d="M343 -8Q206 -8 130 58Q54 124 54 261Q54 323 76 377Q98 431 138.5 471.5Q179 512 237.5 535Q296 558 369 558Q443 558 493.5 537.5Q544 517 575 482.5Q606 448 619.5 403.5Q633 359 633 311Q633 278 626 245Q619 212 603.5 185.5Q588 159 563.5 142.5Q539 126 504 126Q464 126 442 147.5Q420 169 419 206Q404 175 377 150.5Q350 126 300 126Q243 126 213.5 167Q184 208 192 278Q200 341 238.5 382Q277 423 340 423Q374 423 401 405Q428 387 436 349L457 423H470L447 247Q439 194 454 170.5Q469 147 504 147Q557 147 582.5 193Q608 239 608 310Q608 356 596 397Q584 438 555.5 468.5Q527 499 481.5 517Q436 535 368 535Q302 535 248.5 514.5Q195 494 157.5 457Q120 420 99.5 370Q79 320 79 261Q79 197 97.5 150.5Q116 104 150.5 74Q185 44 233.5 29.5Q282 15 343 15Q397 15 444 24.5Q491 34 530 60L539 41Q510 21 462 6.5Q414 -8 343 -8ZM305 146Q331 146 350.5 156Q370 166 384 183Q398 200 406.5 222.5Q415 245 418 270Q426 341 406.5 371.5Q387 402 342 402Q315 402 294 392Q273 382 258.5 365Q244 348 235 325.5Q226 303 223 278Q220 253 223 229Q226 205 235.5 186.5Q245 168 262.5 157Q280 146 305 146Z" glyph-name="at.sc" horiz-adv-x="683" /><glyph d="M317 -213Q181 -213 104 -112Q27 -11 27 192Q27 285 50 366Q73 447 115.5 507Q158 567 218.5 601.5Q279 636 353 636Q425 636 474 604.5Q523 573 552.5 521.5Q582 470 594.5 404Q607 338 607 268Q607 217 600 167.5Q593 118 577.5 78.5Q562 39 536 14.5Q510 -10 471 -10Q426 -10 405.5 18Q385 46 383 105Q376 83 366.5 62Q357 41 343 25Q329 9 310.5 -0.5Q292 -10 268 -10Q242 -10 221.5 6Q201 22 188 51.5Q175 81 170.5 123Q166 165 171 217Q176 262 188 301.5Q200 341 218.5 370.5Q237 400 262 416.5Q287 433 318 433Q351 433 375 410Q399 387 405 331L431 433H448L414 155Q405 82 420.5 47.5Q436 13 474 13Q501 13 521.5 31Q542 49 555 82Q568 115 574.5 162Q581 209 581 267Q581 335 570 398Q559 461 532.5 509Q506 557 462.5 585.5Q419 614 353 614Q284 614 228.5 581.5Q173 549 134 492Q95 435 74 358Q53 281 53 192Q53 -2 124 -96Q195 -190 317 -190Q374 -190 423 -176Q472 -162 515 -122L525 -141Q496 -172 444 -192.5Q392 -213 317 -213ZM276 13Q301 13 319 29Q337 45 350 71.5Q363 98 371.5 133Q380 168 384 205Q396 313 378 361.5Q360 410 325 410Q298 410 278 394Q258 378 244 351Q230 324 221.5 289Q213 254 208 217Q204 178 206 141.5Q208 105 216.5 76.5Q225 48 240 30.5Q255 13 276 13Z" glyph-name="at.tln" horiz-adv-x="640" /><glyph d="M449 -10Q433 -10 419 -5Q405 0 394.5 13.5Q384 27 378.5 50Q373 73 375 110Q355 42 308 16Q261 -10 198 -10Q170 -10 143 -2.5Q116 5 95 20.5Q74 36 61.5 61Q49 86 49 122Q49 156 62.5 183.5Q76 211 106 231Q136 251 184 262Q232 273 301 273H371V319Q371 396 337 435.5Q303 475 232 475Q186 475 146 455Q106 435 94 394Q111 393 117.5 384.5Q124 376 124 367Q124 355 116.5 347.5Q109 340 96 340Q82 340 74.5 348Q67 356 67 369Q67 394 79 417Q91 440 113.5 458Q136 476 168 486.5Q200 497 239 497Q410 497 410 318V94Q410 69 414.5 54Q419 39 426.5 31Q434 23 442.5 20.5Q451 18 458 18Q484 18 496 41Q508 64 508 119H527Q527 53 509 21.5Q491 -10 449 -10ZM210 17Q243 17 272 26Q301 35 323 55.5Q345 76 358 107.5Q371 139 371 184V252H301Q242 252 201.5 243Q161 234 136.5 217.5Q112 201 101 177.5Q90 154 90 126Q90 96 100 75.5Q110 55 127 42Q144 29 165.5 23Q187 17 210 17ZM309 622Q285 622 268.5 633.5Q252 645 238 659Q224 673 209.5 684.5Q195 696 175 696Q125 696 125 626H106Q106 671 123 699Q140 727 178 727Q203 727 220 715.5Q237 704 251 690Q265 676 279.5 664.5Q294 653 313 653Q343 653 352.5 674Q362 695 362 723H381Q381 670 363.5 646Q346 622 309 622Z" glyph-name="atilde" horiz-adv-x="534" unicode="&#227;" /><glyph d="M305 13Q346 13 378 29.5Q410 46 432.5 76.5Q455 107 466.5 149.5Q478 192 478 244Q478 296 466.5 338.5Q455 381 433 411Q411 441 379 457.5Q347 474 306 474Q228 474 179.5 415Q131 356 131 247V236Q131 188 143.5 147Q156 106 179 76.5Q202 47 234 30Q266 13 305 13ZM92 727H6V750Q40 750 60.5 750.5Q81 751 93.5 752Q106 753 111.5 755Q117 757 121 760L131 754V665Q131 626 131 584.5Q131 543 131 502Q131 461 130.5 423Q130 385 129 352Q136 381 150 407Q164 433 186.5 453Q209 473 240 485Q271 497 311 497Q357 497 395.5 479Q434 461 461.5 428Q489 395 504 348.5Q519 302 519 245Q519 188 503.5 141Q488 94 460 60.5Q432 27 392.5 8.5Q353 -10 306 -10Q269 -10 240 1.5Q211 13 189.5 31.5Q168 50 153 74.5Q138 99 129 125L112 -10H92Z" glyph-name="b" horiz-adv-x="570" unicode="b" /><glyph d="M466 -100 26 760H55L495 -100Z" glyph-name="backslash" horiz-adv-x="519" unicode="\" /><glyph d="M464 -70 24 790H53L493 -70Z" glyph-name="backslash.cap" horiz-adv-x="516" /><glyph d="M423 -60 32 626H61L453 -60Z" glyph-name="backslash.sc" horiz-adv-x="477" /><glyph d="M526 -100 86 760H115L555 -100Z" glyph-name="backslash.tln" horiz-adv-x="640" /><glyph d="M99 -250V840H127V-250Z" glyph-name="bar" horiz-adv-x="226" unicode="|" /><glyph d="M115 -200V890H143V-200Z" glyph-name="bar.cap" horiz-adv-x="259" /><glyph d="M306 -250V840H334V-250Z" glyph-name="bar.tln" horiz-adv-x="640" /><glyph d="M325 -260Q261 -260 222.5 -242.5Q184 -225 163 -196Q142 -167 135.5 -128.5Q129 -90 129 -48Q129 -12 131.5 24.5Q134 61 134 96Q134 129 129.5 157.5Q125 186 112 207Q99 228 75.5 240Q52 252 13 252V274Q51 274 74.5 285Q98 296 110.5 315.5Q123 335 127.5 361.5Q132 388 132 418Q132 452 129.5 488.5Q127 525 127 561Q127 600 134 636Q141 672 162 699.5Q183 727 222 743.5Q261 760 325 760V737Q273 737 242 721.5Q211 706 194.5 680Q178 654 172.5 620Q167 586 167 548Q167 517 169 485Q171 453 171 423Q171 391 167 363Q163 335 151.5 313.5Q140 292 118.5 278.5Q97 265 62 263Q98 260 119.5 245.5Q141 231 152.5 207.5Q164 184 168 153.5Q172 123 172 89Q172 58 170.5 26.5Q169 -5 169 -36Q169 -76 174 -112.5Q179 -149 195.5 -176.5Q212 -204 243 -220.5Q274 -237 325 -237Z" glyph-name="braceleft" horiz-adv-x="348" unicode="{" /><glyph d="M344 -180Q280 -180 241.5 -162.5Q203 -145 182 -116Q161 -87 154.5 -48.5Q148 -10 148 32Q148 68 150.5 104.5Q153 141 153 176Q153 209 148.5 237.5Q144 266 131 287Q118 308 94.5 320Q71 332 32 332V354Q70 354 93.5 365Q117 376 129.5 395.5Q142 415 146.5 441.5Q151 468 151 498Q151 532 148.5 568.5Q146 605 146 641Q146 680 153 716Q160 752 181 779.5Q202 807 241 823.5Q280 840 344 840V817Q292 817 261 801.5Q230 786 213.5 760Q197 734 191.5 700Q186 666 186 628Q186 597 188 565Q190 533 190 503Q190 471 186 443Q182 415 170.5 393.5Q159 372 137.5 358.5Q116 345 81 343Q117 340 138.5 325.5Q160 311 171.5 287.5Q183 264 187 233.5Q191 203 191 169Q191 138 189.5 106.5Q188 75 188 44Q188 4 193 -32.5Q198 -69 214.5 -96.5Q231 -124 262 -140.5Q293 -157 344 -157Z" glyph-name="braceleft.cap" horiz-adv-x="370" /><glyph d="M314 -141Q256 -141 221.5 -127Q187 -113 168 -90Q149 -67 143 -36Q137 -5 137 28Q137 57 139.5 86Q142 115 142 142Q142 168 138 190.5Q134 213 122.5 230Q111 247 90 256.5Q69 266 34 266V287Q68 287 89 296Q110 305 121.5 320Q133 335 137 356Q141 377 141 401Q141 428 138.5 456.5Q136 485 136 514Q136 545 142 573.5Q148 602 167 624Q186 646 221 659Q256 672 314 672V651Q269 651 241.5 639.5Q214 628 199 608.5Q184 589 179 563.5Q174 538 174 509Q174 483 176 456.5Q178 430 178 404Q178 379 174 356.5Q170 334 159 317Q148 300 127 289Q106 278 72 276Q107 274 128 262Q149 250 160.5 231Q172 212 175.5 187.5Q179 163 179 136Q179 110 177.5 83.5Q176 57 176 31Q176 1 180.5 -26Q185 -53 200 -74Q215 -95 242 -107Q269 -119 314 -119Z" glyph-name="braceleft.sc" horiz-adv-x="348" /><glyph d="M471 -260Q407 -260 368.5 -242.5Q330 -225 309 -196Q288 -167 281.5 -128.5Q275 -90 275 -48Q275 -12 277.5 24.5Q280 61 280 96Q280 129 275.5 157.5Q271 186 258 207Q245 228 221.5 240Q198 252 159 252V274Q197 274 220.5 285Q244 296 256.5 315.5Q269 335 273.5 361.5Q278 388 278 418Q278 452 275.5 488.5Q273 525 273 561Q273 600 280 636Q287 672 308 699.5Q329 727 368 743.5Q407 760 471 760V737Q419 737 388 721.5Q357 706 340.5 680Q324 654 318.5 620Q313 586 313 548Q313 517 315 485Q317 453 317 423Q317 391 313 363Q309 335 297.5 313.5Q286 292 264.5 278.5Q243 265 208 263Q244 260 265.5 245.5Q287 231 298.5 207.5Q310 184 314 153.5Q318 123 318 89Q318 58 316.5 26.5Q315 -5 315 -36Q315 -76 320 -112.5Q325 -149 341.5 -176.5Q358 -204 389 -220.5Q420 -237 471 -237Z" glyph-name="braceleft.tln" horiz-adv-x="640" /><glyph d="M23 -237Q74 -237 105 -220.5Q136 -204 152.5 -176.5Q169 -149 174 -112.5Q179 -76 179 -36Q179 -5 177.5 26.5Q176 58 176 89Q176 123 180 153.5Q184 184 195.5 207.5Q207 231 228.5 245.5Q250 260 286 263Q251 265 229.5 278.5Q208 292 196.5 313.5Q185 335 181 363Q177 391 177 423Q177 453 179 485Q181 517 181 548Q181 586 175.5 620Q170 654 153.5 680Q137 706 106 721.5Q75 737 23 737V760Q87 760 126 743.5Q165 727 186 699.5Q207 672 214 636Q221 600 221 561Q221 525 218.5 488.5Q216 452 216 418Q216 388 220.5 361.5Q225 335 237.5 315.5Q250 296 273.5 285Q297 274 335 274V252Q296 252 272.5 240Q249 228 236 207Q223 186 218.5 157.5Q214 129 214 96Q214 61 216.5 24.5Q219 -12 219 -48Q219 -90 212.5 -128.5Q206 -167 185 -196Q164 -225 125.5 -242.5Q87 -260 23 -260Z" glyph-name="braceright" horiz-adv-x="348" unicode="}" /><glyph d="M26 -157Q77 -157 108 -140.5Q139 -124 155.5 -96.5Q172 -69 177 -32.5Q182 4 182 44Q182 75 180.5 106.5Q179 138 179 169Q179 203 183 233.5Q187 264 198.5 287.5Q210 311 231.5 325.5Q253 340 289 343Q254 345 232.5 358.5Q211 372 199.5 393.5Q188 415 184 443Q180 471 180 503Q180 533 182 565Q184 597 184 628Q184 666 178.5 700Q173 734 156.5 760Q140 786 109 801.5Q78 817 26 817V840Q90 840 129 823.5Q168 807 189 779.5Q210 752 217 716Q224 680 224 641Q224 605 221.5 568.5Q219 532 219 498Q219 468 223.5 441.5Q228 415 240.5 395.5Q253 376 276.5 365Q300 354 338 354V332Q299 332 275.5 320Q252 308 239 287Q226 266 221.5 237.5Q217 209 217 176Q217 141 219.5 104.5Q222 68 222 32Q222 -10 215.5 -48.5Q209 -87 188 -116Q167 -145 128.5 -162.5Q90 -180 26 -180Z" glyph-name="braceright.cap" horiz-adv-x="370" /><glyph d="M33 -119Q78 -119 105 -107Q132 -95 147 -74.5Q162 -54 166.5 -26.5Q171 1 171 31Q171 57 169 84Q167 111 167 137Q167 164 171 188.5Q175 213 186 231.5Q197 250 218.5 262Q240 274 274 276Q240 278 219 289Q198 300 187 317Q176 334 172 356.5Q168 379 168 404Q168 430 170 456.5Q172 483 172 509Q172 538 167 563.5Q162 589 147.5 608.5Q133 628 105.5 639.5Q78 651 33 651V672Q91 672 126 659Q161 646 180 624Q199 602 205 573.5Q211 545 211 514Q211 485 208.5 456.5Q206 428 206 401Q206 377 210 356Q214 335 225.5 320Q237 305 258 296Q279 287 313 287V266Q279 266 257.5 256.5Q236 247 224.5 230Q213 213 209 190Q205 167 205 141Q205 115 207 86Q209 57 209 29Q209 -5 203 -35.5Q197 -66 178.5 -89.5Q160 -113 125 -127Q90 -141 33 -141Z" glyph-name="braceright.sc" horiz-adv-x="347" /><glyph d="M169 -237Q220 -237 251 -220.5Q282 -204 298.5 -176.5Q315 -149 320 -112.5Q325 -76 325 -36Q325 -5 323.5 26.5Q322 58 322 89Q322 123 326 153.5Q330 184 341.5 207.5Q353 231 374.5 245.5Q396 260 432 263Q397 265 375.5 278.5Q354 292 342.5 313.5Q331 335 327 363Q323 391 323 423Q323 453 325 485Q327 517 327 548Q327 586 321.5 620Q316 654 299.5 680Q283 706 252 721.5Q221 737 169 737V760Q233 760 272 743.5Q311 727 332 699.5Q353 672 360 636Q367 600 367 561Q367 525 364.5 488.5Q362 452 362 418Q362 388 366.5 361.5Q371 335 383.5 315.5Q396 296 419.5 285Q443 274 481 274V252Q442 252 418.5 240Q395 228 382 207Q369 186 364.5 157.5Q360 129 360 96Q360 61 362.5 24.5Q365 -12 365 -48Q365 -90 358.5 -128.5Q352 -167 331 -196Q310 -225 271.5 -242.5Q233 -260 169 -260Z" glyph-name="braceright.tln" horiz-adv-x="640" /><glyph d="M99 -250V750H279V727H140V-227H279V-250Z" glyph-name="bracketleft" horiz-adv-x="304" unicode="[" /><glyph d="M115 -170V830H295V807H156V-147H295V-170Z" glyph-name="bracketleft.cap" horiz-adv-x="325" /><glyph d="M114 -129V668H277V646H152V-108H277V-129Z" glyph-name="bracketleft.sc" horiz-adv-x="314" /><glyph d="M267 -250V750H447V727H308V-227H447V-250Z" glyph-name="bracketleft.tln" horiz-adv-x="640" /><glyph d="M24 -227H164V727H24V750H205V-250H24Z" glyph-name="bracketright" horiz-adv-x="304" unicode="]" /><glyph d="M29 -147H169V807H29V830H210V-170H29Z" glyph-name="bracketright.cap" horiz-adv-x="325" /><glyph d="M37 -108H161V646H37V668H200V-129H37Z" glyph-name="bracketright.sc" horiz-adv-x="314" /><glyph d="M192 -227H332V727H192V750H373V-250H192Z" glyph-name="bracketright.tln" horiz-adv-x="640" /><glyph d="M213 638Q258 638 278 664Q298 690 300 735H317Q317 712 312.5 689.5Q308 667 296.5 649Q285 631 265 619.5Q245 608 213 608Q181 608 159.5 619.5Q138 631 124.5 649Q111 667 105 689.5Q99 712 99 735H116Q118 692 143 665Q168 638 213 638Z" glyph-name="breve" horiz-adv-x="416" unicode="&#728;" /><glyph d="M193 779Q244 779 265 805.5Q286 832 292 872H309Q307 847 300.5 824.5Q294 802 281 785Q268 768 246.5 758Q225 748 193 748Q162 748 139 758Q116 768 101 785Q86 802 77.5 824.5Q69 847 67 872H84Q91 832 116.5 805.5Q142 779 193 779Z" glyph-name="breve.cap" horiz-adv-x="376" /><glyph d="M98 400V840H126V400ZM98 -250V190H126V-250Z" glyph-name="brokenbar" horiz-adv-x="224" unicode="&#166;" /><glyph d="M306 400V840H334V400ZM306 -250V190H334V-250Z" glyph-name="brokenbar.tln" horiz-adv-x="640" /><glyph d="M266 -10Q220 -10 180.5 8Q141 26 112.5 59Q84 92 67.5 138.5Q51 185 51 243Q51 305 68.5 352Q86 399 115.5 431.5Q145 464 184.5 480.5Q224 497 269 497Q305 497 336 486.5Q367 476 389.5 457.5Q412 439 425 413Q438 387 438 357Q438 324 410 324Q396 324 388 331.5Q380 339 380 351Q380 362 388.5 371.5Q397 381 414 381Q404 423 364.5 448.5Q325 474 273 474Q191 474 141.5 412.5Q92 351 92 243Q92 188 105.5 145.5Q119 103 143 73.5Q167 44 199.5 28.5Q232 13 270 13Q323 13 366 41.5Q409 70 433 146L453 140Q431 59 379.5 24.5Q328 -10 266 -10Z" glyph-name="c" horiz-adv-x="492" unicode="c" /><glyph d="M723 -10Q696 -10 672.5 -1.5Q649 7 631.5 26Q614 45 604 74Q594 103 594 143V464H504V484H543Q582 484 594 497Q606 510 606 537V567Q606 658 576.5 697.5Q547 737 482 737Q416 737 380.5 694.5Q345 652 345 579Q345 548 349 525.5Q353 503 359 486Q388 478 405 463.5Q422 449 422 433Q422 406 396 406Q379 406 364.5 423Q350 440 339 470Q317 475 287 475Q243 475 207 459Q171 443 145.5 413Q120 383 106 340Q92 297 92 243Q92 188 105.5 145.5Q119 103 143 73.5Q167 44 199.5 28.5Q232 13 270 13Q323 13 366 41.5Q409 70 433 146L453 140Q431 59 379.5 24.5Q328 -10 266 -10Q220 -10 180.5 8Q141 26 112.5 59Q84 92 67.5 138.5Q51 185 51 243Q51 305 69.5 352Q88 399 119.5 431.5Q151 464 193 480.5Q235 497 282 497Q296 497 308.5 496Q321 495 333 493Q328 512 325.5 533.5Q323 555 323 579Q323 667 367 713.5Q411 760 482 760Q517 760 545 750Q573 740 592.5 716.5Q612 693 622 654.5Q632 616 632 559V487H837V464H633V152Q633 84 658.5 48.5Q684 13 732 13Q780 13 804 48Q828 83 828 161H850Q850 74 821 32Q792 -10 723 -10Z" glyph-name="c_t" horiz-adv-x="874" /><glyph d="M725 -10Q670 -10 632 26Q594 62 594 143V464H504V487H594Q594 528 589 572.5Q584 617 569 653.5Q554 690 526.5 713.5Q499 737 454 737Q403 737 371 698Q339 659 339 585Q339 528 355 488Q386 479 404 464.5Q422 450 422 433Q422 406 396 406Q380 406 364 423Q348 440 336 470Q327 472 315 473Q303 474 287 474Q198 474 145 412.5Q92 351 92 243Q92 188 105.5 145.5Q119 103 143 73.5Q167 44 199.5 28.5Q232 13 270 13Q323 13 366 41.5Q409 70 433 146L453 140Q431 59 379.5 24.5Q328 -10 266 -10Q220 -10 180.5 8Q141 26 112.5 59Q84 92 67.5 138.5Q51 185 51 243Q51 305 69.5 352Q88 399 119.5 431.5Q151 464 193 480.5Q235 497 282 497Q309 497 328 493Q323 513 319.5 536Q316 559 316 585Q316 674 355.5 717Q395 760 458 760Q493 760 519 745Q545 730 563.5 705.5Q582 681 594 650Q606 619 612 586Q617 604 626.5 628Q636 652 647.5 676Q659 700 670.5 721.5Q682 743 692 757L704 750Q676 702 654 639.5Q632 577 633 487H837V464H633V152Q633 84 658.5 48.5Q684 13 732 13Q780 13 804 48Q828 83 828 161H850Q850 74 821 32Q792 -10 725 -10Z" glyph-name="c_t.alt" horiz-adv-x="874" /><glyph d="M465 64Q450 43 430.5 29Q411 15 389 7Q367 -1 345 -4.5Q323 -8 303 -8Q237 -8 189.5 16Q142 40 111.5 80Q81 120 66 171Q51 222 51 276Q51 330 66.5 381Q82 432 113 471.5Q144 511 190.5 534.5Q237 558 298 558Q358 558 399 538.5Q440 519 460 490L473 557H493V386H469Q469 463 421.5 499Q374 535 300 535Q257 535 218.5 518.5Q180 502 152 469.5Q124 437 107.5 388.5Q91 340 91 276Q91 213 106.5 164.5Q122 116 150.5 83Q179 50 219 32.5Q259 15 308 15Q338 15 367.5 23.5Q397 32 420.5 50Q444 68 458.5 97Q473 126 473 167H498V-8H478ZM721 22H807V529H669Q633 529 621 518Q609 507 609 472V389H584V550H1068V389H1043V472Q1043 507 1031.5 518Q1020 529 983 529H846V22H932V0H721Z" glyph-name="c_t.alt.sc" horiz-adv-x="1100" /><glyph d="M465 64Q450 43 430.5 29Q411 15 389 7Q367 -1 345 -4.5Q323 -8 303 -8Q237 -8 189.5 16Q142 40 111.5 80Q81 120 66 171Q51 222 51 276Q51 330 66.5 381Q82 432 113 471.5Q144 511 190.5 534.5Q237 558 298 558Q358 558 399 538.5Q440 519 460 490L473 557H493V386H469Q469 463 421.5 499Q374 535 300 535Q257 535 218.5 518.5Q180 502 152 469.5Q124 437 107.5 388.5Q91 340 91 276Q91 213 106.5 164.5Q122 116 150.5 83Q179 50 219 32.5Q259 15 308 15Q338 15 367.5 23.5Q397 32 420.5 50Q444 68 458.5 97Q473 126 473 167H498V-8H478ZM721 22H807V529H669Q633 529 621 518Q609 507 609 472V389H584V550H1068V389H1043V472Q1043 507 1031.5 518Q1020 529 983 529H846V22H932V0H721Z" glyph-name="c_t.sc" horiz-adv-x="1100" /><glyph d="M113 753 226 638 335 753H358L233 601H219L90 753Z" glyph-name="caron" horiz-adv-x="448" unicode="&#711;" /><glyph d="M111 872 216 773 317 872H339L226 740H207L89 872Z" glyph-name="caron.cap" horiz-adv-x="428" /><glyph d="M268 -186Q246 -186 230.5 -180Q215 -174 207 -166V-143Q217 -153 230 -158.5Q243 -164 261 -164Q314 -164 314 -122Q314 -69 235 -69V-58L253 -10Q209 -7 172 12Q135 31 108 64Q81 97 66 142.5Q51 188 51 243Q51 305 68.5 352Q86 399 115.5 431.5Q145 464 184.5 480.5Q224 497 269 497Q305 497 336 486.5Q367 476 389.5 457.5Q412 439 425 413Q438 387 438 357Q438 324 410 324Q396 324 388 331.5Q380 339 380 351Q380 362 388.5 371.5Q397 381 414 381Q404 423 364.5 448.5Q325 474 273 474Q191 474 141.5 412.5Q92 351 92 243Q92 188 105.5 145.5Q119 103 143 73.5Q167 44 199.5 28.5Q232 13 270 13Q323 13 366 41.5Q409 70 433 146L453 140Q431 63 383 28Q335 -7 277 -10L263 -48Q301 -51 323.5 -68Q346 -85 346 -120Q346 -151 325.5 -168.5Q305 -186 268 -186Z" glyph-name="ccedilla" horiz-adv-x="492" unicode="&#231;" /><glyph d="M174 -186Q152 -186 136.5 -180Q121 -174 113 -166V-143Q123 -153 136 -158.5Q149 -164 167 -164Q220 -164 220 -122Q220 -69 141 -69V-58L162 0H186L169 -48Q207 -51 229.5 -68Q252 -85 252 -120Q252 -151 231.5 -168.5Q211 -186 174 -186Z" glyph-name="cedilla" horiz-adv-x="367" unicode="&#184;" /><glyph d="M96 323Q96 271 108 230Q120 189 141.5 160Q163 131 192.5 114Q222 97 257 94V553Q183 545 139.5 484.5Q96 424 96 323ZM257 -20V70Q214 73 177 91.5Q140 110 113 143Q86 176 70.5 221.5Q55 267 55 323Q55 382 71 428Q87 474 114 506Q141 538 178 555.5Q215 573 257 576V669H278V577Q313 576 343 565.5Q373 555 395 536.5Q417 518 429.5 492.5Q442 467 442 437Q442 404 414 404Q400 404 392 411.5Q384 419 384 431Q384 442 392.5 451.5Q401 461 418 461Q408 503 368.5 528.5Q329 554 278 554V93Q329 94 371.5 123Q414 152 437 226L457 220Q435 142 386 107Q337 72 278 70V-20Z" glyph-name="cent" horiz-adv-x="505" unicode="&#162;" /><glyph d="M93 243Q93 191 105 150Q117 109 138.5 80Q160 51 189.5 34Q219 17 254 14V473Q180 465 136.5 404.5Q93 344 93 243ZM254 -100V-10Q211 -7 174 11.5Q137 30 110 63Q83 96 67.5 141.5Q52 187 52 243Q52 302 68 348Q84 394 111 426Q138 458 175 475.5Q212 493 254 496V589H275V497Q310 496 340 485.5Q370 475 392 456.5Q414 438 426.5 412.5Q439 387 439 357Q439 324 411 324Q397 324 389 331.5Q381 339 381 351Q381 362 389.5 371.5Q398 381 415 381Q405 423 365.5 448.5Q326 474 275 474V13Q326 14 368.5 43Q411 72 434 146L454 140Q432 62 383 27Q334 -8 275 -10V-100Z" glyph-name="cent.old" horiz-adv-x="493" /><glyph d="M411 191Q391 128 348.5 101Q306 74 252 72V-8H232V72Q193 74 160 89Q127 104 102.5 130.5Q78 157 64.5 193Q51 229 51 274Q51 321 65 358Q79 395 103.5 421Q128 447 161 461.5Q194 476 232 478V558H252V478Q317 476 357.5 446.5Q398 417 398 366Q398 352 391 344Q384 336 372 336Q360 336 352.5 342.5Q345 349 345 360Q345 371 352 379.5Q359 388 371 388Q361 422 329 439Q297 456 252 456V93Q297 94 334.5 117Q372 140 393 197ZM90 274Q90 193 130 146Q170 99 232 94V455Q167 448 128.5 400.5Q90 353 90 274Z" glyph-name="cent.sc" horiz-adv-x="457" /><glyph d="M163 323Q163 271 175 230Q187 189 208.5 160Q230 131 259.5 114Q289 97 324 94V553Q250 545 206.5 484.5Q163 424 163 323ZM324 -20V70Q281 73 244 91.5Q207 110 180 143Q153 176 137.5 221.5Q122 267 122 323Q122 382 138 428Q154 474 181 506Q208 538 245 555.5Q282 573 324 576V669H345V577Q380 576 410 565.5Q440 555 462 536.5Q484 518 496.5 492.5Q509 467 509 437Q509 404 481 404Q467 404 459 411.5Q451 419 451 431Q451 442 459.5 451.5Q468 461 485 461Q475 503 435.5 528.5Q396 554 345 554V93Q396 94 438.5 123Q481 152 504 226L524 220Q502 142 453 107Q404 72 345 70V-20Z" glyph-name="cent.tln" horiz-adv-x="640" /><glyph d="M163 243Q163 191 175 150Q187 109 208.5 80Q230 51 259.5 34Q289 17 324 14V473Q250 465 206.5 404.5Q163 344 163 243ZM324 -100V-10Q281 -7 244 11.5Q207 30 180 63Q153 96 137.5 141.5Q122 187 122 243Q122 302 138 348Q154 394 181 426Q208 458 245 475.5Q282 493 324 496V589H345V497Q380 496 410 485.5Q440 475 462 456.5Q484 438 496.5 412.5Q509 387 509 357Q509 324 481 324Q467 324 459 331.5Q451 339 451 351Q451 362 459.5 371.5Q468 381 485 381Q475 423 435.5 448.5Q396 474 345 474V13Q396 14 438.5 43Q481 72 504 146L524 140Q502 62 453 27Q404 -8 345 -10V-100Z" glyph-name="cent.ton" horiz-adv-x="640" /><glyph d="M90 601 219 753H233L358 601H335L226 716L113 601Z" glyph-name="circumflex" horiz-adv-x="448" unicode="&#710;" /><glyph d="M89 740 207 872H226L339 740H317L216 839L111 740Z" glyph-name="circumflex.cap" horiz-adv-x="428" /><glyph d="M139 331Q139 322 132 310Q125 298 105 298Q86 298 79 310Q72 322 72 331Q72 340 79 352Q86 364 105 364Q125 364 132 352Q139 340 139 331ZM139 23Q139 14 132 2Q125 -10 105 -10Q86 -10 79 2Q72 14 72 23Q72 32 79 44Q86 56 105 56Q125 56 132 44Q139 32 139 23Z" glyph-name="colon" horiz-adv-x="210" unicode=":" /><glyph d="M354 331Q354 322 347 310Q340 298 320 298Q301 298 294 310Q287 322 287 331Q287 340 294 352Q301 364 320 364Q340 364 347 352Q354 340 354 331ZM354 23Q354 14 347 2Q340 -10 320 -10Q301 -10 294 2Q287 14 287 23Q287 32 294 44Q301 56 320 56Q340 56 347 44Q354 32 354 23Z" glyph-name="colon.tln" horiz-adv-x="640" /><glyph d="M54 -88Q77 -75 88.5 -55Q100 -35 102 -12Q62 -7 62 24Q62 35 70.5 45.5Q79 56 96 56Q115 56 123.5 44Q132 32 132 14Q132 -2 128.5 -19Q125 -36 116 -52.5Q107 -69 92 -84Q77 -99 54 -110Z" glyph-name="comma" horiz-adv-x="195" unicode="," /><glyph d="M280 -88Q303 -75 314.5 -55Q326 -35 328 -12Q288 -7 288 24Q288 35 296.5 45.5Q305 56 322 56Q341 56 349.5 44Q358 32 358 14Q358 -2 354.5 -19Q351 -36 342 -52.5Q333 -69 318 -84Q303 -99 280 -110Z" glyph-name="comma.tln" horiz-adv-x="640" /><glyph d="M401 -10Q326 -10 262.5 18.5Q199 47 153 95.5Q107 144 81 210Q55 276 55 351Q55 426 81.5 490Q108 554 154.5 600.5Q201 647 264 673.5Q327 700 401 700Q475 700 538.5 673.5Q602 647 648.5 600.5Q695 554 721.5 490Q748 426 748 351Q748 276 721.5 210Q695 144 648.5 95.5Q602 47 538.5 18.5Q475 -10 401 -10ZM401 11Q469 11 528.5 36.5Q588 62 632 107Q676 152 701 214.5Q726 277 726 351Q726 424 701 484.5Q676 545 632 588Q588 631 528.5 655Q469 679 401 679Q333 679 274 655Q215 631 171.5 588Q128 545 103 484.5Q78 424 78 351Q78 277 102.5 214.5Q127 152 170 107Q213 62 272.5 36.5Q332 11 401 11ZM504 193Q485 158 454 147.5Q423 137 396 137Q352 137 320.5 155.5Q289 174 268.5 204Q248 234 238.5 271.5Q229 309 229 348Q229 387 240 425Q251 463 272 492.5Q293 522 324 540Q355 558 395 558Q435 558 463.5 543.5Q492 529 503 504L511 558H527V431H505Q503 484 474 511Q445 538 398 538Q371 538 346.5 525.5Q322 513 304 489Q286 465 275.5 429.5Q265 394 265 348Q265 258 302 208Q339 158 401 158Q420 158 438.5 163.5Q457 169 472 182Q487 195 496.5 216Q506 237 507 267H529V137H512Z" glyph-name="copyright" horiz-adv-x="803" unicode="&#169;" /><glyph d="M304 -10Q250 -10 204 10Q158 30 124.5 65Q91 100 72 147Q53 194 53 249Q53 303 72.5 348.5Q92 394 125.5 427Q159 460 205 478.5Q251 497 304 497Q358 497 404 478.5Q450 460 483.5 427Q517 394 536.5 348.5Q556 303 556 249Q556 194 536.5 147Q517 100 483.5 65Q450 30 404 10Q358 -10 304 -10ZM304 12Q353 12 395 30.5Q437 49 467.5 81Q498 113 515 156Q532 199 532 249Q532 298 515 339.5Q498 381 467.5 411.5Q437 442 395 459Q353 476 304 476Q255 476 213.5 459Q172 442 141.5 411.5Q111 381 94 339.5Q77 298 77 249Q77 199 94 156Q111 113 141 81Q171 49 213 30.5Q255 12 304 12ZM371 143Q361 123 339.5 115Q318 107 300 107Q271 107 250.5 119Q230 131 216.5 150.5Q203 170 197 195Q191 220 191 246Q191 272 198 296.5Q205 321 218.5 340.5Q232 360 252 372Q272 384 299 384Q325 384 343.5 375Q362 366 370 353L376 384H389V300H370Q370 335 350 350.5Q330 366 301 366Q268 366 244 335Q220 304 220 246Q220 188 242.5 156.5Q265 125 303 125Q314 125 326 128Q338 131 348 138.5Q358 146 364.5 159.5Q371 173 371 193H390V107H376Z" glyph-name="copyright.old" horiz-adv-x="608" /><glyph d="M335 -8Q274 -8 222 13.5Q170 35 132.5 73Q95 111 74 164Q53 217 53 280Q53 343 74.5 394.5Q96 446 134 482Q172 518 223.5 538Q275 558 335 558Q396 558 447.5 538Q499 518 537 482Q575 446 596.5 394.5Q618 343 618 280Q618 217 596.5 164Q575 111 537 73Q499 35 447.5 13.5Q396 -8 335 -8ZM335 12Q391 12 438.5 31Q486 50 521.5 85Q557 120 577 169.5Q597 219 597 280Q597 340 577 388Q557 436 521.5 469Q486 502 438.5 520Q391 538 335 538Q280 538 232 520Q184 502 149 469Q114 436 94 388Q74 340 74 280Q74 219 93.5 169.5Q113 120 148 85Q183 50 231 31Q279 12 335 12ZM418 154Q404 128 378.5 119Q353 110 330 110Q294 110 268.5 124.5Q243 139 226.5 162.5Q210 186 202.5 216Q195 246 195 277Q195 309 203.5 339Q212 369 229 392.5Q246 416 271 430Q296 444 329 444Q362 444 384.5 433Q407 422 417 402L423 444H439V342H419Q418 384 394.5 405Q371 426 333 426Q288 426 257 387.5Q226 349 226 277Q226 207 255 168Q284 129 335 129Q366 129 392.5 148.5Q419 168 420 215H440V110H425Z" glyph-name="copyright.sc" horiz-adv-x="671" /><glyph d="M320 -10Q266 -10 220 10Q174 30 140.5 65Q107 100 88 147Q69 194 69 249Q69 303 88.5 348.5Q108 394 141.5 427Q175 460 221 478.5Q267 497 320 497Q374 497 420 478.5Q466 460 499.5 427Q533 394 552.5 348.5Q572 303 572 249Q572 194 552.5 147Q533 100 499.5 65Q466 30 420 10Q374 -10 320 -10ZM320 12Q369 12 411 30.5Q453 49 483.5 81Q514 113 531 156Q548 199 548 249Q548 298 531 339.5Q514 381 483.5 411.5Q453 442 411 459Q369 476 320 476Q271 476 229.5 459Q188 442 157.5 411.5Q127 381 110 339.5Q93 298 93 249Q93 199 110 156Q127 113 157 81Q187 49 229 30.5Q271 12 320 12ZM387 143Q377 123 355.5 115Q334 107 316 107Q287 107 266.5 119Q246 131 232.5 150.5Q219 170 213 195Q207 220 207 246Q207 272 214 296.5Q221 321 234.5 340.5Q248 360 268 372Q288 384 315 384Q341 384 359.5 375Q378 366 386 353L392 384H405V300H386Q386 335 366 350.5Q346 366 317 366Q284 366 260 335Q236 304 236 246Q236 188 258.5 156.5Q281 125 319 125Q330 125 342 128Q354 131 364 138.5Q374 146 380.5 159.5Q387 173 387 193H406V107H392Z" glyph-name="copyright.tln" horiz-adv-x="640" /><glyph d="M320 -10Q266 -10 220 10Q174 30 140.5 65Q107 100 88 147Q69 194 69 249Q69 303 88.5 348.5Q108 394 141.5 427Q175 460 221 478.5Q267 497 320 497Q374 497 420 478.5Q466 460 499.5 427Q533 394 552.5 348.5Q572 303 572 249Q572 194 552.5 147Q533 100 499.5 65Q466 30 420 10Q374 -10 320 -10ZM320 12Q369 12 411 30.5Q453 49 483.5 81Q514 113 531 156Q548 199 548 249Q548 298 531 339.5Q514 381 483.5 411.5Q453 442 411 459Q369 476 320 476Q271 476 229.5 459Q188 442 157.5 411.5Q127 381 110 339.5Q93 298 93 249Q93 199 110 156Q127 113 157 81Q187 49 229 30.5Q271 12 320 12ZM387 143Q377 123 355.5 115Q334 107 316 107Q287 107 266.5 119Q246 131 232.5 150.5Q219 170 213 195Q207 220 207 246Q207 272 214 296.5Q221 321 234.5 340.5Q248 360 268 372Q288 384 315 384Q341 384 359.5 375Q378 366 386 353L392 384H405V300H386Q386 335 366 350.5Q346 366 317 366Q284 366 260 335Q236 304 236 246Q236 188 258.5 156.5Q281 125 319 125Q330 125 342 128Q354 131 364 138.5Q374 146 380.5 159.5Q387 173 387 193H406V107H392Z" glyph-name="copyright.ton" horiz-adv-x="640" /><glyph d="M345 174Q325 157 301 147.5Q277 138 250 138Q221 138 197 147.5Q173 157 154 174L87 108L67 130L133 195Q99 235 99 291Q99 348 133 388L67 453L87 475L154 409Q173 426 197 435Q221 444 250 444Q277 444 301 434.5Q325 425 345 408L411 475L431 453L366 389Q383 369 392 344Q401 319 401 291Q401 263 392 238.5Q383 214 367 194L431 130L411 108ZM250 411Q224 411 202.5 401.5Q181 392 165 376Q149 360 140.5 338Q132 316 132 290Q132 265 140.5 243Q149 221 165 204.5Q181 188 202.5 178.5Q224 169 250 169Q274 169 295.5 178.5Q317 188 333 204Q349 220 358.5 242.5Q368 265 368 290Q368 316 358.5 338Q349 360 333 376Q317 392 295.5 401.5Q274 411 250 411Z" glyph-name="currency" horiz-adv-x="499" unicode="&#164;" /><glyph d="M298 169Q265 142 220 142Q175 142 142 170L87 117L70 135L124 189Q110 204 103.5 224Q97 244 97 266Q97 311 124 342L70 395L87 414L143 361Q176 388 220 388Q243 388 262.5 380.5Q282 373 298 361L353 414L370 395L316 342Q345 310 345 266Q345 222 317 188L370 136L353 117ZM220 360Q178 360 152 332.5Q126 305 126 265Q126 226 152 198Q178 170 220 170Q261 170 288.5 197.5Q316 225 316 265Q316 305 288.5 332.5Q261 360 220 360Z" glyph-name="currency.sc" horiz-adv-x="441" /><glyph d="M415 174Q395 157 371 147.5Q347 138 320 138Q291 138 267 147.5Q243 157 224 174L157 108L137 130L203 195Q169 235 169 291Q169 348 203 388L137 453L157 475L224 409Q243 426 267 435Q291 444 320 444Q347 444 371 434.5Q395 425 415 408L481 475L501 453L436 389Q453 369 462 344Q471 319 471 291Q471 263 462 238.5Q453 214 437 194L501 130L481 108ZM320 411Q294 411 272.5 401.5Q251 392 235 376Q219 360 210.5 338Q202 316 202 290Q202 265 210.5 243Q219 221 235 204.5Q251 188 272.5 178.5Q294 169 320 169Q344 169 365.5 178.5Q387 188 403 204Q419 220 428.5 242.5Q438 265 438 290Q438 316 428.5 338Q419 360 403 376Q387 392 365.5 401.5Q344 411 320 411Z" glyph-name="currency.tln" horiz-adv-x="640" /><glyph d="M367 696Q367 647 330.5 619Q294 591 230 591Q166 591 129.5 619Q93 647 93 696Q93 714 102 724Q111 734 125 734Q139 734 147 725.5Q155 717 155 705Q155 691 144 682Q133 673 120 676Q127 647 155.5 629Q184 611 230 611Q276 611 304.5 629Q333 647 340 676Q326 674 315.5 682.5Q305 691 305 705Q305 717 313 725.5Q321 734 335 734Q349 734 358 724Q367 714 367 696Z" glyph-name="cyrbreve" horiz-adv-x="498" unicode="&#63188;" /><glyph d="M342 837Q342 792 305.5 765Q269 738 213 738Q157 738 120.5 765Q84 792 84 837Q84 871 114 871Q128 871 135 863.5Q142 856 142 845Q142 836 135.5 827Q129 818 114 818H110Q121 789 148 774Q175 759 213 759Q251 759 278 774Q305 789 316 818H312Q297 818 290.5 827Q284 836 284 845Q284 856 291 863.5Q298 871 312 871Q342 871 342 837Z" glyph-name="cyrbreve.cap" horiz-adv-x="426" /><glyph d="M477 27H563V4Q535 4 516.5 3.5Q498 3 486 1.5Q474 0 467 -3Q460 -6 455 -10L445 -4V143Q428 71 379 30.5Q330 -10 265 -10Q223 -10 184.5 6.5Q146 23 116.5 55Q87 87 69 134.5Q51 182 51 243Q51 303 68.5 350.5Q86 398 115.5 430.5Q145 463 183.5 480Q222 497 265 497Q334 497 380 459.5Q426 422 442 360Q441 387 440.5 423.5Q440 460 439.5 497Q439 534 438.5 568.5Q438 603 438 625V727H353V750Q385 750 405.5 750Q426 750 438 751Q450 752 456.5 754Q463 756 467 760L477 754ZM269 474Q231 474 198.5 458Q166 442 142.5 412Q119 382 105.5 339.5Q92 297 92 243Q92 183 107 140Q122 97 147 68.5Q172 40 204 26.5Q236 13 269 13Q305 13 335.5 29Q366 45 389 74.5Q412 104 425 145.5Q438 187 438 238V252Q438 305 425 346Q412 387 389.5 415.5Q367 444 336 459Q305 474 269 474Z" glyph-name="d" horiz-adv-x="590" unicode="d" /><glyph d="M193 433Q160 433 134 443.5Q108 454 90 472Q72 490 62.5 514.5Q53 539 53 566Q53 593 63 617.5Q73 642 91 660.5Q109 679 135 690Q161 701 193 701Q225 701 250.5 690.5Q276 680 294 661.5Q312 643 322 618.5Q332 594 332 566Q332 539 322 514.5Q312 490 294 472Q276 454 250.5 443.5Q225 433 193 433ZM193 456Q247 456 277.5 488.5Q308 521 307 566Q306 614 275 646Q244 678 193 678Q142 678 110.5 646.5Q79 615 79 566Q79 544 87.5 524Q96 504 111 489Q126 474 147 465Q168 456 193 456Z" glyph-name="degree" horiz-adv-x="385" unicode="&#176;" /><glyph d="M321 433Q288 433 262 443.5Q236 454 218 472Q200 490 190.5 514.5Q181 539 181 566Q181 593 191 617.5Q201 642 219 660.5Q237 679 263 690Q289 701 321 701Q353 701 378.5 690.5Q404 680 422 661.5Q440 643 450 618.5Q460 594 460 566Q460 539 450 514.5Q440 490 422 472Q404 454 378.5 443.5Q353 433 321 433ZM321 456Q375 456 405.5 488.5Q436 521 435 566Q434 614 403 646Q372 678 321 678Q270 678 238.5 646.5Q207 615 207 566Q207 544 215.5 524Q224 504 239 489Q254 474 275 465Q296 456 321 456Z" glyph-name="degree.tln" horiz-adv-x="640" /><glyph d="M197 651Q197 643 190 631Q183 619 164 619Q144 619 137.5 631Q131 643 131 651Q131 659 137.5 671.5Q144 684 164 684Q183 684 190 671.5Q197 659 197 651ZM365 651Q365 643 358 631Q351 619 332 619Q312 619 305.5 631Q299 643 299 651Q299 659 305.5 671.5Q312 684 332 684Q351 684 358 671.5Q365 659 365 651Z" glyph-name="dieresis" horiz-adv-x="496" unicode="&#168;" /><glyph d="M142 802Q142 794 135.5 783Q129 772 111 772Q94 772 87.5 783Q81 794 81 802Q81 810 87.5 821.5Q94 833 111 833Q129 833 135.5 821.5Q142 810 142 802ZM322 802Q322 794 315.5 783Q309 772 291 772Q274 772 267.5 783Q261 794 261 802Q261 810 267.5 821.5Q274 833 291 833Q309 833 315.5 821.5Q322 810 322 802Z" glyph-name="dieresis.cap" horiz-adv-x="403" /><glyph d="M301 491Q301 482 294 470Q287 458 267 458Q248 458 241 470Q234 482 234 491Q234 500 241 512Q248 524 267 524Q287 524 294 512Q301 500 301 491ZM467 333V306H69V333ZM301 143Q301 134 294 122Q287 110 267 110Q248 110 241 122Q234 134 234 143Q234 152 241 164Q248 176 267 176Q287 176 294 164Q301 152 301 143Z" glyph-name="divide" horiz-adv-x="536" unicode="&#247;" /><glyph d="M298 401Q298 392 291 380Q284 368 264 368Q245 368 238 380Q231 392 231 401Q231 410 238 422Q245 434 264 434Q284 434 291 422Q298 410 298 401ZM464 243V216H66V243ZM298 53Q298 44 291 32Q284 20 264 20Q245 20 238 32Q231 44 231 53Q231 62 238 74Q245 86 264 86Q284 86 291 74Q298 62 298 53Z" glyph-name="divide.old" horiz-adv-x="530" /><glyph d="M275 412Q275 404 269 393.5Q263 383 245 383Q228 383 222 393.5Q216 404 216 412Q216 421 222 431.5Q228 442 245 442Q263 442 269 431.5Q275 421 275 412ZM422 287V264H69V287ZM275 136Q275 127 269 117Q263 107 245 107Q228 107 222 117Q216 127 216 136Q216 145 222 155Q228 165 245 165Q263 165 269 155Q275 145 275 136Z" glyph-name="divide.sc" horiz-adv-x="491" /><glyph d="M353 491Q353 482 346 470Q339 458 319 458Q300 458 293 470Q286 482 286 491Q286 500 293 512Q300 524 319 524Q339 524 346 512Q353 500 353 491ZM519 333V306H121V333ZM353 143Q353 134 346 122Q339 110 319 110Q300 110 293 122Q286 134 286 143Q286 152 293 164Q300 176 319 176Q339 176 346 164Q353 152 353 143Z" glyph-name="divide.tln" horiz-adv-x="640" /><glyph d="M353 401Q353 392 346 380Q339 368 319 368Q300 368 293 380Q286 392 286 401Q286 410 293 422Q300 434 319 434Q339 434 346 422Q353 410 353 401ZM519 243V216H121V243ZM353 53Q353 44 346 32Q339 20 319 20Q300 20 293 32Q286 44 286 53Q286 62 293 74Q300 86 319 86Q339 86 346 74Q353 62 353 53Z" glyph-name="divide.ton" horiz-adv-x="640" /><glyph d="M328 673Q302 676 277.5 676.5Q253 677 230 672V377Q253 369 279 361.5Q305 354 328 348ZM97 532Q97 471 128 437.5Q159 404 209 384V668Q154 654 125.5 618Q97 582 97 532ZM328 308Q307 316 280.5 322Q254 328 230 336V18Q282 11 328 17ZM463 148Q463 199 439.5 236Q416 273 349 300V21Q407 34 435 68.5Q463 103 463 148ZM230 -110H209V-2Q140 12 96 50Q52 88 52 143Q52 162 61 171.5Q70 181 85 181Q99 181 107 172.5Q115 164 115 150Q115 136 105 127.5Q95 119 82 116Q96 75 131.5 53Q167 31 209 22V343Q175 355 148 370Q121 385 101.5 406Q82 427 71.5 455Q61 483 61 522Q61 585 98.5 631Q136 677 209 693V800H230V697Q277 703 328 697V800H349V693Q410 681 448 647.5Q486 614 486 561Q486 544 476.5 535.5Q467 527 453 527Q422 527 422 558Q422 572 431 581Q440 590 455 592Q444 624 415 642.5Q386 661 349 669V341Q429 314 464.5 273.5Q500 233 500 159Q500 132 491.5 106Q483 80 464.5 58Q446 36 417.5 20Q389 4 349 -4V-110H328V-8Q306 -10 280 -10Q254 -10 230 -6Z" glyph-name="dollar" horiz-adv-x="552" unicode="$" /><glyph d="M274 472Q254 476 233.5 475.5Q213 475 196 471V269Q213 264 233.5 260.5Q254 257 274 251ZM98 375Q98 345 112 319.5Q126 294 175 276V466Q137 455 117.5 430.5Q98 406 98 375ZM274 216Q257 221 237 225.5Q217 230 196 235V16Q215 13 236 13Q257 13 274 15ZM369 111Q369 145 351.5 168.5Q334 192 295 209V20Q334 30 351.5 53.5Q369 77 369 111ZM196 -100H175V-3Q118 10 86 44Q54 78 54 129Q54 143 61.5 152Q69 161 83 161Q97 161 104 153Q111 145 111 133Q111 107 82 104Q90 69 115 48.5Q140 28 175 20V240Q141 250 119 263.5Q97 277 84.5 293Q72 309 67.5 327.5Q63 346 63 367Q63 414 93.5 446Q124 478 175 491V589H196V494Q235 500 274 494V589H295V491Q346 480 375 450.5Q404 421 404 376Q404 342 376 342Q361 342 353.5 349.5Q346 357 346 369Q346 381 354.5 389Q363 397 376 400Q370 427 347.5 443.5Q325 460 295 468V245Q348 228 376 199Q404 170 404 119Q404 72 378 39Q352 6 295 -5V-100H274V-8Q255 -10 235 -10Q215 -10 196 -7Z" glyph-name="dollar.old" horiz-adv-x="462" /><glyph d="M295 533Q273 535 252.5 535Q232 535 213 532V302Q233 297 254 291.5Q275 286 295 281ZM97 423Q97 375 122.5 349.5Q148 324 193 308V528Q145 517 121 489Q97 461 97 423ZM295 245Q276 250 254 255.5Q232 261 213 266V18Q236 16 257 15Q278 14 295 16ZM420 120Q420 163 398.5 190.5Q377 218 315 239V19Q373 28 396.5 56.5Q420 85 420 120ZM213 -88H193V-2Q130 9 91.5 39.5Q53 70 53 113Q53 130 61 138.5Q69 147 83 147Q97 147 104.5 139Q112 131 112 120Q112 108 103 101Q94 94 83 92Q94 62 124.5 45.5Q155 29 193 21V272Q132 291 97 322Q62 353 62 415Q62 465 95 502Q128 539 193 552V637H213V555Q232 558 253.5 558Q275 558 295 556V637H315V553Q372 544 407 516.5Q442 489 442 447Q442 432 434 424.5Q426 417 412 417Q399 417 391 424Q383 431 383 444Q383 455 391 462Q399 469 411 472Q400 498 374 511.5Q348 525 315 530V276Q388 255 421.5 221.5Q455 188 455 128Q455 106 448 84.5Q441 63 424.5 45Q408 27 381 14Q354 1 315 -5V-88H295V-7Q276 -9 254.5 -8Q233 -7 213 -5Z" glyph-name="dollar.sc" horiz-adv-x="508" /><glyph d="M372 673Q346 676 321.5 676.5Q297 677 274 672V377Q297 369 323 361.5Q349 354 372 348ZM141 532Q141 471 172 437.5Q203 404 253 384V668Q198 654 169.5 618Q141 582 141 532ZM372 308Q351 316 324.5 322Q298 328 274 336V18Q326 11 372 17ZM507 148Q507 199 483.5 236Q460 273 393 300V21Q451 34 479 68.5Q507 103 507 148ZM274 -110H253V-2Q184 12 140 50Q96 88 96 143Q96 162 105 171.5Q114 181 129 181Q143 181 151 172.5Q159 164 159 150Q159 136 149 127.5Q139 119 126 116Q140 75 175.5 53Q211 31 253 22V343Q219 355 192 370Q165 385 145.5 406Q126 427 115.5 455Q105 483 105 522Q105 585 142.5 631Q180 677 253 693V800H274V697Q321 703 372 697V800H393V693Q454 681 492 647.5Q530 614 530 561Q530 544 520.5 535.5Q511 527 497 527Q466 527 466 558Q466 572 475 581Q484 590 499 592Q488 624 459 642.5Q430 661 393 669V341Q473 314 508.5 273.5Q544 233 544 159Q544 132 535.5 106Q527 80 508.5 58Q490 36 461.5 20Q433 4 393 -4V-110H372V-8Q350 -10 324 -10Q298 -10 274 -6Z" glyph-name="dollar.tln" horiz-adv-x="640" /><glyph d="M363 472Q343 476 322.5 475.5Q302 475 285 471V269Q302 264 322.5 260.5Q343 257 363 251ZM187 375Q187 345 201 319.5Q215 294 264 276V466Q226 455 206.5 430.5Q187 406 187 375ZM363 216Q346 221 326 225.5Q306 230 285 235V16Q304 13 325 13Q346 13 363 15ZM458 111Q458 145 440.5 168.5Q423 192 384 209V20Q423 30 440.5 53.5Q458 77 458 111ZM285 -100H264V-3Q207 10 175 44Q143 78 143 129Q143 143 150.5 152Q158 161 172 161Q186 161 193 153Q200 145 200 133Q200 107 171 104Q179 69 204 48.5Q229 28 264 20V240Q230 250 208 263.5Q186 277 173.5 293Q161 309 156.5 327.5Q152 346 152 367Q152 414 182.5 446Q213 478 264 491V589H285V494Q324 500 363 494V589H384V491Q435 480 464 450.5Q493 421 493 376Q493 342 465 342Q450 342 442.5 349.5Q435 357 435 369Q435 381 443.5 389Q452 397 465 400Q459 427 436.5 443.5Q414 460 384 468V245Q437 228 465 199Q493 170 493 119Q493 72 467 39Q441 6 384 -5V-100H363V-8Q344 -10 324 -10Q304 -10 285 -7Z" glyph-name="dollar.ton" horiz-adv-x="640" /><glyph d="M159 651Q159 643 152.5 631Q146 619 126 619Q107 619 100.5 631Q94 643 94 651Q94 659 100.5 671.5Q107 684 126 684Q146 684 152.5 671.5Q159 659 159 651Z" glyph-name="dotaccent" horiz-adv-x="287" unicode="&#729;" /><glyph d="M124 772Q109 772 100.5 782Q92 792 92 803Q92 815 100.5 825Q109 835 124 835Q139 835 147.5 825Q156 815 156 803Q156 792 147.5 782Q139 772 124 772Z" glyph-name="dotaccent.cap" horiz-adv-x="247" /><glyph d="M162 23H248V0H37V23H123V464H37V487Q71 487 91.5 487.5Q112 488 124 489Q136 490 141.5 492Q147 494 151 497L162 492Z" glyph-name="dotlessi" horiz-adv-x="277" unicode="&#305;" /><glyph d="M275 -10Q222 -10 180.5 9Q139 28 110 62Q81 96 66 143Q51 190 51 247Q51 301 66.5 346.5Q82 392 110 425.5Q138 459 178 478Q218 497 266 497Q317 497 355.5 478.5Q394 460 420 428.5Q446 397 459.5 356Q473 315 473 269V253H93V245Q93 195 104.5 152.5Q116 110 139 79Q162 48 196.5 30.5Q231 13 278 13Q347 13 389.5 46Q432 79 449 142L469 136Q450 64 400 27Q350 -10 275 -10ZM266 475Q223 475 191 457.5Q159 440 138 412Q117 384 106 348Q95 312 93 275H432Q430 314 419.5 350Q409 386 389 413.5Q369 441 338.5 458Q308 475 266 475Z" glyph-name="e" horiz-adv-x="521" unicode="e" /><glyph d="M275 -10Q222 -10 180.5 9Q139 28 110 62Q81 96 66 143Q51 190 51 247Q51 301 66.5 346.5Q82 392 110 425.5Q138 459 178 478Q218 497 266 497Q317 497 355.5 478.5Q394 460 420 428.5Q446 397 459.5 356Q473 315 473 269V253H93V245Q93 195 104.5 152.5Q116 110 139 79Q162 48 196.5 30.5Q231 13 278 13Q347 13 389.5 46Q432 79 449 142L469 136Q450 64 400 27Q350 -10 275 -10ZM266 475Q223 475 191 457.5Q159 440 138 412Q117 384 106 348Q95 312 93 275H432Q430 314 419.5 350Q409 386 389 413.5Q369 441 338.5 458Q308 475 266 475ZM250 601 320 699Q340 727 352.5 739.5Q365 752 376 752Q397 752 397 734Q397 726 384 712Q371 698 339 672L269 601Z" glyph-name="eacute" horiz-adv-x="521" unicode="&#233;" /><glyph d="M275 -10Q222 -10 180.5 9Q139 28 110 62Q81 96 66 143Q51 190 51 247Q51 301 66.5 346.5Q82 392 110 425.5Q138 459 178 478Q218 497 266 497Q317 497 355.5 478.5Q394 460 420 428.5Q446 397 459.5 356Q473 315 473 269V253H93V245Q93 195 104.5 152.5Q116 110 139 79Q162 48 196.5 30.5Q231 13 278 13Q347 13 389.5 46Q432 79 449 142L469 136Q450 64 400 27Q350 -10 275 -10ZM266 475Q223 475 191 457.5Q159 440 138 412Q117 384 106 348Q95 312 93 275H432Q430 314 419.5 350Q409 386 389 413.5Q369 441 338.5 458Q308 475 266 475ZM130 602 259 754H273L398 602H375L266 717L153 602Z" glyph-name="ecircumflex" horiz-adv-x="521" unicode="&#234;" /><glyph d="M275 -10Q222 -10 180.5 9Q139 28 110 62Q81 96 66 143Q51 190 51 247Q51 301 66.5 346.5Q82 392 110 425.5Q138 459 178 478Q218 497 266 497Q317 497 355.5 478.5Q394 460 420 428.5Q446 397 459.5 356Q473 315 473 269V253H93V245Q93 195 104.5 152.5Q116 110 139 79Q162 48 196.5 30.5Q231 13 278 13Q347 13 389.5 46Q432 79 449 142L469 136Q450 64 400 27Q350 -10 275 -10ZM266 475Q223 475 191 457.5Q159 440 138 412Q117 384 106 348Q95 312 93 275H432Q430 314 419.5 350Q409 386 389 413.5Q369 441 338.5 458Q308 475 266 475ZM215 651Q215 643 208 631Q201 619 182 619Q162 619 155.5 631Q149 643 149 651Q149 659 155.5 671.5Q162 684 182 684Q201 684 208 671.5Q215 659 215 651ZM383 651Q383 643 376 631Q369 619 350 619Q330 619 323.5 631Q317 643 317 651Q317 659 323.5 671.5Q330 684 350 684Q369 684 376 671.5Q383 659 383 651Z" glyph-name="edieresis" horiz-adv-x="521" unicode="&#235;" /><glyph d="M275 -10Q222 -10 180.5 9Q139 28 110 62Q81 96 66 143Q51 190 51 247Q51 301 66.5 346.5Q82 392 110 425.5Q138 459 178 478Q218 497 266 497Q317 497 355.5 478.5Q394 460 420 428.5Q446 397 459.5 356Q473 315 473 269V253H93V245Q93 195 104.5 152.5Q116 110 139 79Q162 48 196.5 30.5Q231 13 278 13Q347 13 389.5 46Q432 79 449 142L469 136Q450 64 400 27Q350 -10 275 -10ZM266 475Q223 475 191 457.5Q159 440 138 412Q117 384 106 348Q95 312 93 275H432Q430 314 419.5 350Q409 386 389 413.5Q369 441 338.5 458Q308 475 266 475ZM193 672Q161 698 148 712Q135 726 135 734Q135 752 156 752Q167 752 179.5 739.5Q192 727 212 699L282 601H263Z" glyph-name="egrave" horiz-adv-x="521" unicode="&#232;" /><glyph d="M281 -10Q222 -10 179.5 7Q137 24 109.5 51.5Q82 79 69 113.5Q56 148 56 183Q56 249 98 299.5Q140 350 225 367Q152 387 118.5 432.5Q85 478 85 528Q85 562 98.5 593Q112 624 137.5 648Q163 672 199 686Q235 700 280 700Q325 700 361.5 686Q398 672 423.5 648Q449 624 462.5 593Q476 562 476 528Q476 478 442.5 432.5Q409 387 336 367Q378 358 410 340Q442 322 463 297.5Q484 273 495 244Q506 215 506 183Q506 148 492 113.5Q478 79 450.5 51.5Q423 24 380.5 7Q338 -10 281 -10ZM281 378Q314 378 342 390Q370 402 390.5 422.5Q411 443 422.5 470.5Q434 498 434 528Q434 559 423 586Q412 613 392 633.5Q372 654 343.5 665.5Q315 677 280 677Q244 677 216 665.5Q188 654 168.5 633.5Q149 613 138.5 586Q128 559 128 528Q128 498 139.5 470.5Q151 443 171 422.5Q191 402 219 390Q247 378 281 378ZM281 13Q325 13 359 27Q393 41 416.5 64Q440 87 452 118Q464 149 464 183Q464 222 449 254Q434 286 409 308Q384 330 351 342Q318 354 281 354Q242 354 208.5 342Q175 330 150.5 307.5Q126 285 112 253.5Q98 222 98 183Q98 149 109.5 118Q121 87 144 63.5Q167 40 201 26.5Q235 13 281 13Z" glyph-name="eight" horiz-adv-x="562" unicode="8" /><glyph d="M197 -157Q155 -157 125.5 -146Q96 -135 76.5 -117Q57 -99 48 -76.5Q39 -54 39 -30Q39 12 67.5 45.5Q96 79 156 88Q105 99 82 130Q59 161 59 194Q59 217 68.5 237Q78 257 95.5 273Q113 289 138.5 298Q164 307 196 307Q228 307 253.5 298Q279 289 297 273Q315 257 325 237Q335 217 335 194Q335 161 311.5 130Q288 99 237 88Q296 79 325.5 45.5Q355 12 355 -30Q355 -54 345.5 -76.5Q336 -99 316.5 -117Q297 -135 267 -146Q237 -157 197 -157ZM197 98Q245 98 272 126.5Q299 155 299 193Q299 232 273 259.5Q247 287 196 287Q145 287 120 259Q95 231 95 193Q95 154 121.5 126Q148 98 197 98ZM197 -137Q260 -137 289.5 -105Q319 -73 318 -28Q318 21 284.5 49.5Q251 78 197 78Q140 78 108 49Q76 20 76 -28Q75 -73 103.5 -105Q132 -137 197 -137Z" glyph-name="eight.inferior" horiz-adv-x="393" /><glyph d="M275 -10Q216 -10 174 7Q132 24 105 51.5Q78 79 65.5 113.5Q53 148 53 183Q53 249 94 299.5Q135 350 221 367Q148 387 115 432.5Q82 478 82 528Q82 562 95 593Q108 624 133 648Q158 672 193.5 686Q229 700 274 700Q319 700 355 686Q391 672 415.5 648Q440 624 453.5 593Q467 562 467 528Q467 503 459 478.5Q451 454 434.5 432.5Q418 411 392 394Q366 377 329 367Q371 358 402.5 340Q434 322 455 297.5Q476 273 486.5 244Q497 215 497 183Q497 148 483.5 113.5Q470 79 443 51.5Q416 24 374 7Q332 -10 275 -10ZM275 377Q309 377 336.5 389Q364 401 384 422Q404 443 415 470.5Q426 498 426 528Q426 559 415.5 586.5Q405 614 385.5 634.5Q366 655 338 667Q310 679 274 679Q238 679 209.5 667Q181 655 162 634.5Q143 614 133 586.5Q123 559 123 528Q123 498 134 470.5Q145 443 164.5 422Q184 401 212.5 389Q241 377 275 377ZM275 11Q319 11 353 25Q387 39 410 63Q433 87 444.5 118Q456 149 456 183Q456 222 441.5 254Q427 286 403 308.5Q379 331 346 343Q313 355 275 355Q235 355 202 342.5Q169 330 145 307.5Q121 285 107.5 253.5Q94 222 94 183Q94 149 104.5 117.5Q115 86 137.5 62.5Q160 39 194.5 25Q229 11 275 11Z" glyph-name="eight.old" horiz-adv-x="550" /><glyph d="M255 -8Q201 -8 162.5 5.5Q124 19 100 40.5Q76 62 64.5 90Q53 118 53 146Q53 198 90.5 238.5Q128 279 205 293Q139 308 109 344Q79 380 79 421Q79 448 91 473Q103 498 125.5 517Q148 536 180.5 547Q213 558 255 558Q296 558 329 547Q362 536 385 517Q408 498 420 473Q432 448 432 421Q432 380 401.5 343.5Q371 307 305 293Q381 280 419.5 238.5Q458 197 458 146Q458 118 446 90Q434 62 409 40.5Q384 19 345.5 5.5Q307 -8 255 -8ZM255 303Q322 303 356.5 337.5Q391 372 391 421Q391 469 357.5 503Q324 537 255 537Q185 537 152.5 502.5Q120 468 120 420Q120 372 154 337.5Q188 303 255 303ZM255 13Q297 13 328 23.5Q359 34 379 52.5Q399 71 408.5 95Q418 119 418 146Q417 209 373.5 245.5Q330 282 255 282Q178 282 135.5 245Q93 208 93 147Q93 120 102 95.5Q111 71 130.5 52.5Q150 34 180.5 23.5Q211 13 255 13Z" glyph-name="eight.sc" horiz-adv-x="510" /><glyph d="M197 433Q155 433 125.5 444Q96 455 76.5 473Q57 491 48 513.5Q39 536 39 560Q39 602 67.5 635.5Q96 669 156 678Q105 689 82 720Q59 751 59 784Q59 807 68.5 827Q78 847 95.5 863Q113 879 138.5 888Q164 897 196 897Q228 897 253.5 888Q279 879 297 863Q315 847 325 827Q335 807 335 784Q335 751 311.5 720Q288 689 237 678Q296 669 325.5 635.5Q355 602 355 560Q355 536 345.5 513.5Q336 491 316.5 473Q297 455 267 444Q237 433 197 433ZM197 688Q245 688 272 716.5Q299 745 299 783Q299 822 273 849.5Q247 877 196 877Q145 877 120 849Q95 821 95 783Q95 744 121.5 716Q148 688 197 688ZM197 453Q260 453 289.5 485Q319 517 318 562Q318 611 284.5 639.5Q251 668 197 668Q140 668 108 639Q76 610 76 562Q75 517 103.5 485Q132 453 197 453Z" glyph-name="eight.superior" horiz-adv-x="393" /><glyph d="M320 -10Q261 -10 218.5 7Q176 24 148.5 51.5Q121 79 108 113.5Q95 148 95 183Q95 249 137 299.5Q179 350 264 367Q191 387 158 432.5Q125 478 125 528Q125 562 138.5 593Q152 624 177 648Q202 672 238 686Q274 700 319 700Q364 700 400 686Q436 672 461.5 648Q487 624 500.5 593Q514 562 514 528Q514 478 481 432.5Q448 387 374 367Q416 358 448 340Q480 322 501.5 297.5Q523 273 534 244Q545 215 545 183Q545 148 531 113.5Q517 79 489.5 51.5Q462 24 419.5 7Q377 -10 320 -10ZM320 378Q353 378 381 390Q409 402 429 422.5Q449 443 460.5 470.5Q472 498 472 528Q472 559 461 586Q450 613 430 633.5Q410 654 382 665.5Q354 677 319 677Q283 677 255 665.5Q227 654 207.5 633.5Q188 613 177.5 586Q167 559 167 528Q167 498 178 470.5Q189 443 209.5 422.5Q230 402 258 390Q286 378 320 378ZM320 13Q363 13 397 27Q431 41 455 64Q479 87 491 118Q503 149 503 183Q503 222 488 254Q473 286 448 308Q423 330 390 342Q357 354 320 354Q281 354 247.5 342Q214 330 189.5 307.5Q165 285 151 253.5Q137 222 137 183Q137 149 148.5 118Q160 87 183 63.5Q206 40 240 26.5Q274 13 320 13Z" glyph-name="eight.tln" horiz-adv-x="640" /><glyph d="M320 -10Q261 -10 219 7Q177 24 150 51.5Q123 79 110.5 113.5Q98 148 98 183Q98 249 139 299.5Q180 350 266 367Q193 387 160 432.5Q127 478 127 528Q127 562 140 593Q153 624 178 648Q203 672 238.5 686Q274 700 319 700Q364 700 400 686Q436 672 460.5 648Q485 624 498.5 593Q512 562 512 528Q512 503 504 478.5Q496 454 479.5 432.5Q463 411 437 394Q411 377 374 367Q416 358 447.5 340Q479 322 500 297.5Q521 273 531.5 244Q542 215 542 183Q542 148 528.5 113.5Q515 79 488 51.5Q461 24 419 7Q377 -10 320 -10ZM320 377Q354 377 381.5 389Q409 401 429 422Q449 443 460 470.5Q471 498 471 528Q471 559 460.5 586.5Q450 614 430.5 634.5Q411 655 383 667Q355 679 319 679Q283 679 254.5 667Q226 655 207 634.5Q188 614 178 586.5Q168 559 168 528Q168 498 179 470.5Q190 443 209.5 422Q229 401 257.5 389Q286 377 320 377ZM320 11Q364 11 398 25Q432 39 455 63Q478 87 489.5 118Q501 149 501 183Q501 222 486.5 254Q472 286 448 308.5Q424 331 391 343Q358 355 320 355Q280 355 247 342.5Q214 330 190 307.5Q166 285 152.5 253.5Q139 222 139 183Q139 149 149.5 117.5Q160 86 182.5 62.5Q205 39 239.5 25Q274 11 320 11Z" glyph-name="eight.ton" horiz-adv-x="640" /><glyph d="M74 429H470V403H74ZM74 269H470V243H74Z" glyph-name="equal" horiz-adv-x="544" unicode="=" /><glyph d="M71 349H467V323H71ZM71 189H467V163H71Z" glyph-name="equal.old" horiz-adv-x="539" /><glyph d="M73 358H427V334H73ZM73 230H427V206H73Z" glyph-name="equal.sc" horiz-adv-x="500" /><glyph d="M122 429H518V403H122ZM122 269H518V243H122Z" glyph-name="equal.tln" horiz-adv-x="640" /><glyph d="M122 349H518V323H122ZM122 189H518V163H122Z" glyph-name="equal.ton" horiz-adv-x="640" /><glyph d="M270 -10Q217 -10 176 10.5Q135 31 107 66.5Q79 102 64.5 148Q50 194 50 245Q50 293 65 338.5Q80 384 108.5 419Q137 454 179 475.5Q221 497 275 497Q326 497 364 484Q402 471 427 447Q411 508 381.5 562.5Q352 617 308 659L206 573H175L293 672Q264 696 230 714Q196 732 156 741V760Q201 752 240.5 733.5Q280 715 313 689L391 755H422L329 676Q368 642 397.5 598.5Q427 555 447 506Q467 457 477 405.5Q487 354 487 303Q487 231 473 173Q459 115 432 74.5Q405 34 364.5 12Q324 -10 270 -10ZM270 13Q318 13 351.5 34.5Q385 56 406 94.5Q427 133 436.5 186.5Q446 240 446 303Q446 327 444 351.5Q442 376 438 400Q411 442 370 458.5Q329 475 277 475Q229 475 193.5 454Q158 433 135.5 400Q113 367 102 326Q91 285 91 245Q91 202 101.5 160.5Q112 119 134 86Q156 53 190 33Q224 13 270 13Z" glyph-name="eth" horiz-adv-x="554" unicode="&#240;" /><glyph d="M113 194Q113 331 109 416Q105 501 99.5 550.5Q94 600 90 624Q86 648 86 663Q86 677 95.5 689Q105 701 122 701Q139 701 149 689Q159 677 159 663Q159 647 155 623.5Q151 600 146 550Q141 500 137 415.5Q133 331 133 194ZM155 23Q155 14 148 2Q141 -10 121 -10Q102 -10 95 2Q88 14 88 23Q88 32 95 44Q102 56 121 56Q141 56 148 44Q155 32 155 23Z" glyph-name="exclam" horiz-adv-x="245" unicode="!" /><glyph d="M113 156Q113 262 109 327Q105 392 100.5 431Q96 470 92 489.5Q88 509 88 523Q88 537 96.5 547.5Q105 558 122 558Q139 558 148 547.5Q157 537 157 523Q157 509 153.5 489.5Q150 470 145.5 431Q141 392 137 327Q133 262 133 156ZM152 21Q152 13 145 2.5Q138 -8 122 -8Q105 -8 98 2.5Q91 13 91 21Q91 31 98 41Q105 51 122 51Q138 51 145 40.5Q152 30 152 21Z" glyph-name="exclam.sc" horiz-adv-x="246" /><glyph d="M310 194Q310 331 306 416Q302 501 296.5 550.5Q291 600 287 624Q283 648 283 663Q283 677 292.5 689Q302 701 319 701Q336 701 346 689Q356 677 356 663Q356 647 352 623.5Q348 600 343 550Q338 500 334 415.5Q330 331 330 194ZM352 23Q352 14 345 2Q338 -10 318 -10Q299 -10 292 2Q285 14 285 23Q285 32 292 44Q299 56 318 56Q338 56 345 44Q352 32 352 23Z" glyph-name="exclam.tln" horiz-adv-x="640" /><glyph d="M117 294Q117 157 121 72Q125 -13 130.5 -62.5Q136 -112 140 -136Q144 -160 144 -175Q144 -189 134.5 -201Q125 -213 108 -213Q91 -213 81 -201Q71 -189 71 -175Q71 -159 75 -135.5Q79 -112 84 -62Q89 -12 93 72.5Q97 157 97 294ZM75 465Q75 474 82 486Q89 498 109 498Q128 498 135 486Q142 474 142 465Q142 456 135 444Q128 432 109 432Q89 432 82 444Q75 456 75 465Z" glyph-name="exclamdown" horiz-adv-x="214" unicode="&#161;" /><glyph d="M148 496Q148 359 152 274Q156 189 161.5 139.5Q167 90 171 66Q175 42 175 27Q175 13 165.5 1Q156 -11 139 -11Q122 -11 112 1Q102 13 102 27Q102 43 106 66.5Q110 90 115 140Q120 190 124 274.5Q128 359 128 496ZM106 667Q106 676 113 688Q120 700 140 700Q159 700 166 688Q173 676 173 667Q173 658 166 646Q159 634 140 634Q120 634 113 646Q106 658 106 667Z" glyph-name="exclamdown.cap" horiz-adv-x="275" /><glyph d="M132 394Q132 288 136 223Q140 158 144.5 119Q149 80 152.5 60.5Q156 41 156 27Q156 13 147 2.5Q138 -8 121 -8Q104 -8 95.5 2.5Q87 13 87 27Q87 41 91 60.5Q95 80 99.5 119Q104 158 108 223Q112 288 112 394ZM151 529Q151 520 144 509.5Q137 499 121 499Q104 499 97 509Q90 519 90 529Q90 537 97 547.5Q104 558 121 558Q137 558 144 547.5Q151 537 151 529Z" glyph-name="exclamdown.sc" horiz-adv-x="243" /><glyph d="M330 294Q330 157 334 72Q338 -13 343.5 -62.5Q349 -112 353 -136Q357 -160 357 -175Q357 -189 347.5 -201Q338 -213 321 -213Q304 -213 294 -201Q284 -189 284 -175Q284 -159 288 -135.5Q292 -112 297 -62Q302 -12 306 72.5Q310 157 310 294ZM288 465Q288 474 295 486Q302 498 322 498Q341 498 348 486Q355 474 355 465Q355 456 348 444Q341 432 322 432Q302 432 295 444Q288 456 288 465Z" glyph-name="exclamdown.tln" horiz-adv-x="640" /><glyph d="M268 0H34V23H120V464H34V487H120V544Q120 608 133 649.5Q146 691 168.5 715.5Q191 740 221 750Q251 760 285 760Q345 760 378 730.5Q411 701 411 659Q411 644 403.5 635Q396 626 382 626Q368 626 360.5 634Q353 642 353 653Q353 667 362.5 674Q372 681 386 681Q375 712 348 724.5Q321 737 289 737Q262 737 238.5 728.5Q215 720 197 698.5Q179 677 169 640Q159 603 159 546V487H300V464H159V23H268Z" glyph-name="f" horiz-adv-x="322" unicode="f" /><glyph d="M255 0H34V23H120V464H34V487H164Q139 492 116.5 503Q94 514 77 531.5Q60 549 50 573.5Q40 598 40 630Q40 663 52.5 687.5Q65 712 84.5 728Q104 744 129 752Q154 760 179 760Q245 760 280.5 730.5Q316 701 316 659Q316 644 308.5 635Q301 626 287 626Q274 626 266.5 634Q259 642 259 653Q259 680 284 683Q272 713 243 725Q214 737 181 737Q130 737 97 708Q64 679 64 630Q64 593 81 566Q98 539 128.5 521.5Q159 504 200 495.5Q241 487 289 487V464H159V23H255Z" glyph-name="f.alt" horiz-adv-x="310" /><glyph d="M604 13Q645 13 677 29.5Q709 46 731.5 76.5Q754 107 765.5 149.5Q777 192 777 244Q777 296 765.5 338.5Q754 381 731.5 411.5Q709 442 677 458.5Q645 475 604 475Q526 475 478 415.5Q430 356 430 247V236Q430 188 442.5 147Q455 106 478 76.5Q501 47 533 30Q565 13 604 13ZM391 731Q372 735 350.5 736Q329 737 311 737Q278 737 250 727.5Q222 718 202 696.5Q182 675 170.5 639Q159 603 159 549V487H283V464H159V23H252V0H34V23H120V464H34V487H120V533Q120 598 135 642Q150 686 175.5 712Q201 738 235.5 749Q270 760 309 760Q333 760 356.5 757Q380 754 393 754Q401 754 407.5 755Q414 756 420 760L430 754V665Q430 587 429.5 504Q429 421 427 355Q434 382 448 407.5Q462 433 484.5 453Q507 473 538 485Q569 497 610 497Q656 497 694.5 479Q733 461 760.5 428Q788 395 803 348.5Q818 302 818 245Q818 188 802.5 141Q787 94 759 60.5Q731 27 691.5 8.5Q652 -10 605 -10Q568 -10 539.5 1Q511 12 490 30Q469 48 454.5 71Q440 94 430 118L411 -10H391Z" glyph-name="f_b" horiz-adv-x="869" /><glyph d="M604 13Q645 13 677 29.5Q709 46 731.5 76.5Q754 107 765.5 149.5Q777 192 777 244Q777 296 765.5 338.5Q754 381 731.5 411.5Q709 442 677 458.5Q645 475 604 475Q526 475 478 415.5Q430 356 430 247V236Q430 188 442.5 147Q455 106 478 76.5Q501 47 533 30Q565 13 604 13ZM381 753Q392 753 402.5 754Q413 755 420 760L430 754V654Q430 578 430 533Q430 488 429.5 458Q429 428 428.5 405Q428 382 427 349Q434 378 448 404.5Q462 431 484.5 451.5Q507 472 538 484.5Q569 497 610 497Q656 497 694.5 479Q733 461 760.5 428Q788 395 803 348.5Q818 302 818 245Q818 188 802.5 141Q787 94 759 60.5Q731 27 691.5 8.5Q652 -10 605 -10Q568 -10 539.5 1.5Q511 13 490 32Q469 51 454 75Q439 99 430 124L411 -10H391V729Q387 729 374 730.5Q361 732 342 733.5Q323 735 300.5 736.5Q278 738 254 738Q218 738 185 731.5Q152 725 126.5 711.5Q101 698 85.5 676.5Q70 655 70 625Q70 591 87 565Q104 539 135 522Q166 505 209 496.5Q252 488 304 488V465H159V23H243V1H34V23H120V465H34V488H173Q117 498 80.5 532.5Q44 567 44 625Q44 660 60.5 685.5Q77 711 105.5 727.5Q134 744 172.5 752.5Q211 761 254 761Q272 761 292 759.5Q312 758 330 756.5Q348 755 362 754Q376 753 381 753Z" glyph-name="f_b.alt" horiz-adv-x="869" /><glyph d="M49 0V22H131V528H49V550H466V406H441V472Q441 507 425 517.5Q409 528 373 528H170V291H354V362H377V197H354V269H170V22H270V0ZM549 22H631V528H549V550H763Q875 550 928 515Q981 480 981 415Q981 385 970 362Q959 339 940.5 323Q922 307 898.5 297.5Q875 288 851 284Q881 280 909.5 271Q938 262 961 246Q984 230 998 206.5Q1012 183 1012 150Q1012 75 957.5 37.5Q903 0 782 0H549ZM670 529V291H779Q861 291 901 324Q941 357 941 411Q941 437 931.5 458.5Q922 480 900.5 496Q879 512 843.5 520.5Q808 529 756 529ZM670 271V21H780Q840 21 877 31.5Q914 42 935 60Q956 78 963.5 101Q971 124 971 149Q971 210 921 240.5Q871 271 787 271Z" glyph-name="f_b.alt.sc" horiz-adv-x="1059" /><glyph d="M49 0V22H131V528H49V550H462V404H437V472Q437 507 420.5 517.5Q404 528 368 528H170V291L374 294V267L170 270V22H270V0ZM539 22H621V528H539V550H753Q865 550 918 515Q971 480 971 415Q971 385 960 362Q949 339 930.5 323Q912 307 888.5 297.5Q865 288 841 284Q871 280 899.5 271Q928 262 951 246Q974 230 988 206.5Q1002 183 1002 150Q1002 75 947.5 37.5Q893 0 772 0H539ZM660 529V291H769Q851 291 891 324Q931 357 931 411Q931 437 921.5 458.5Q912 480 890.5 496Q869 512 833.5 520.5Q798 529 746 529ZM660 271V21H770Q830 21 867 31.5Q904 42 925 60Q946 78 953.5 101Q961 124 961 149Q961 210 911 240.5Q861 271 777 271Z" glyph-name="f_b.sc" horiz-adv-x="1049" /><glyph d="M391 544Q391 594 399 629.5Q407 665 421 690Q401 707 370 712Q339 717 315 717Q235 717 197 671Q159 625 159 536V487H391ZM34 0V23H120V464H34V487H120V531Q120 587 135 626.5Q150 666 176 691.5Q202 717 237.5 728.5Q273 740 315 740Q345 740 379 733.5Q413 727 435 710Q458 738 489.5 749Q521 760 556 760Q616 760 649 730.5Q682 701 682 659Q682 644 674.5 635Q667 626 653 626Q639 626 631.5 634Q624 642 624 653Q624 667 633.5 674Q643 681 657 681Q646 712 619 724.5Q592 737 560 737Q533 737 509.5 728.5Q486 720 468 698.5Q450 677 440 640Q430 603 430 546V487H571V464H430V23H539V0H305V23H391V464H159V23H234V0Z" glyph-name="f_f" horiz-adv-x="593" unicode="&#64256;" /><glyph d="M433 487Q408 492 385.5 503Q363 514 346 531.5Q329 549 319 573.5Q309 598 309 629Q309 672 328 700Q288 723 219 723Q193 723 167 718Q141 713 120 701Q99 689 86 668.5Q73 648 73 617Q73 557 133 522Q193 487 302 487ZM34 0V23H120V464H34V487H167Q116 498 81.5 530Q47 562 47 617Q47 652 62 676.5Q77 701 101.5 716.5Q126 732 157 739Q188 746 219 746Q259 746 290.5 738.5Q322 731 344 720Q367 743 397 751.5Q427 760 449 760Q515 760 550 732Q585 704 585 659Q585 644 577.5 635Q570 626 556 626Q543 626 535.5 634Q528 642 528 653Q528 665 536.5 673Q545 681 557 683Q545 715 515.5 726Q486 737 449 737Q398 737 366.5 708.5Q335 680 335 629Q335 592 352 565.5Q369 539 399 521.5Q429 504 469.5 495.5Q510 487 558 487V464H428V23H524V0H303V23H389V464H159V23H243V0Z" glyph-name="f_f.alt" horiz-adv-x="578" /><glyph d="M49 0V22H131V528H49V550H466V406H441V472Q441 507 425 517.5Q409 528 373 528H170V291H354V362H377V197H354V269H170V22H270V0ZM549 0V22H631V528H549V550H966V406H941V472Q941 507 925 517.5Q909 528 873 528H670V291H854V362H877V197H854V269H670V22H770V0Z" glyph-name="f_f.alt.sc" horiz-adv-x="999" /><glyph d="M49 0V22H131V528H49V550H462V404H437V472Q437 507 420.5 517.5Q404 528 368 528H170V291L374 294V267L170 270V22H270V0ZM539 0V22H621V528H539V550H952V404H927V472Q927 507 910.5 517.5Q894 528 858 528H660V291L864 294V267L660 270V22H760V0Z" glyph-name="f_f.sc" horiz-adv-x="985" /><glyph d="M391 544Q391 592 399.5 626.5Q408 661 423 687Q400 706 370.5 711.5Q341 717 315 717Q235 717 197 671Q159 625 159 536V487H391ZM34 0V23H120V464H34V487H120V531Q120 587 135 626.5Q150 666 176 691.5Q202 717 237.5 728.5Q273 740 315 740Q347 740 380.5 733Q414 726 437 707Q461 736 494 748Q527 760 564 760Q599 760 625 751Q651 742 668.5 727Q686 712 695 692.5Q704 673 704 652Q704 637 696 628Q688 619 675 619Q661 619 653.5 626.5Q646 634 646 646Q646 659 654 667Q662 675 673 677Q662 709 634 723Q606 737 571 737Q541 737 515.5 728.5Q490 720 471 699Q452 678 441 642.5Q430 607 430 553V487H563Q601 487 624 487.5Q647 488 660.5 489Q674 490 680 492Q686 494 690 497L701 492V23H787V0H578V23H662V464H430V23H505V0H305V23H391V464H159V23H234V0Z" glyph-name="f_f_i" horiz-adv-x="816" unicode="&#64259;" /><glyph d="M438 487Q386 498 350.5 531Q315 564 315 618Q315 643 322 663Q329 683 341 698Q318 712 287 717.5Q256 723 219 723Q193 723 167 718Q141 713 120 701Q99 689 86 668.5Q73 648 73 617Q73 557 134 522Q195 487 306 487ZM34 0V23H120V464H34V487H167Q116 498 81.5 530Q47 562 47 617Q47 652 62 676.5Q77 701 101.5 716.5Q126 732 157 739Q188 746 219 746Q270 746 302.5 737.5Q335 729 357 716Q386 740 425.5 750Q465 760 504 760Q553 760 590 751Q627 742 652 727Q677 712 689.5 692.5Q702 673 702 652Q702 637 694 628Q686 619 673 619Q659 619 651.5 626.5Q644 634 644 646Q644 672 672 677Q656 707 611 722Q566 737 504 737Q476 737 446.5 731.5Q417 726 394 712Q371 698 356 675.5Q341 653 341 618Q341 557 403.5 522Q466 487 575 487Q625 487 653.5 488.5Q682 490 690 497L701 492V23H787V0H578V23H662V464H430V23H514V0H305V23H391V464H159V23H241V0Z" glyph-name="f_f_i.alt" horiz-adv-x="814" /><glyph d="M49 0V22H131V528H49V550H466V406H441V472Q441 507 425 517.5Q409 528 373 528H170V291H354V362H377V197H354V269H170V22H270V0ZM1049 0V22H1131V528H1049V550H1253V528H1170V22H1253V0ZM549 0V22H631V528H549V550H966V406H941V472Q941 507 925 517.5Q909 528 873 528H670V291H854V362H877V197H854V269H670V22H770V0Z" glyph-name="f_f_i.alt.sc" horiz-adv-x="1302" /><glyph d="M49 0V22H131V528H49V550H462V404H437V472Q437 507 420.5 517.5Q404 528 368 528H170V291L374 294V267L170 270V22H270V0ZM539 0V22H621V528H539V550H952V404H927V472Q927 507 910.5 517.5Q894 528 858 528H660V291L864 294V267L660 270V22H760V0ZM1029 0V22H1111V528H1029V550H1233V528H1150V22H1233V0Z" glyph-name="f_f_i.sc" horiz-adv-x="1282" /><glyph d="M391 544Q391 592 400 628Q409 664 425 689Q396 707 368.5 712Q341 717 315 717Q235 717 197 671Q159 625 159 536V487H391ZM562 -260Q505 -260 471 -228.5Q437 -197 437 -148Q437 -132 445.5 -124Q454 -116 467 -116Q481 -116 488.5 -123.5Q496 -131 496 -143Q496 -157 488 -165.5Q480 -174 466 -175Q475 -210 502.5 -224.5Q530 -239 559 -239Q617 -239 639 -197.5Q661 -156 661 -59V464H430V23H505V0H305V23H391V464H159V23H234V0H34V23H120V464H34V487H120V531Q120 587 135 626.5Q150 666 176 691.5Q202 717 237.5 728.5Q273 740 315 740Q347 740 380 733.5Q413 727 440 710Q464 737 496 748.5Q528 760 564 760Q599 760 625 751Q651 742 668.5 727Q686 712 695 692.5Q704 673 704 652Q704 637 696 628Q688 619 675 619Q661 619 653.5 626.5Q646 634 646 646Q646 674 676 678Q664 710 635 723.5Q606 737 571 737Q541 737 515.5 728.5Q490 720 471 699Q452 678 441 642.5Q430 607 430 553V487H563Q602 487 625 487.5Q648 488 660.5 489Q673 490 679 492Q685 494 690 497L700 492V-46Q700 -159 668.5 -209.5Q637 -260 562 -260Z" glyph-name="f_f_j" horiz-adv-x="792" /><glyph d="M438 487Q386 498 350.5 531.5Q315 565 315 620Q315 667 340 698Q317 711 286 717Q255 723 219 723Q195 723 169.5 718Q144 713 122.5 701Q101 689 87 668.5Q73 648 73 617Q73 557 134 522Q195 487 306 487ZM665 -260Q602 -260 566.5 -230.5Q531 -201 531 -158Q531 -143 538.5 -134Q546 -125 560 -125Q573 -125 580.5 -133Q588 -141 588 -152Q588 -165 579 -172.5Q570 -180 560 -182Q571 -213 600 -225.5Q629 -238 663 -238Q684 -238 704 -231.5Q724 -225 739.5 -211Q755 -197 764 -175Q773 -153 773 -122Q773 -92 763.5 -70Q754 -48 738.5 -32.5Q723 -17 703 -9Q683 -1 662 0V464H430V23H526V0H305V23H391V464H159V23H243V0H34V23H120V464H34V487H167Q116 498 81.5 530Q47 562 47 617Q47 652 62 676.5Q77 701 101 716.5Q125 732 156 739Q187 746 219 746Q263 746 298.5 737Q334 728 358 716Q386 740 425.5 750Q465 760 504 760Q553 760 590 751Q627 742 652 727Q677 712 689.5 692.5Q702 673 702 652Q702 637 694 628Q686 619 673 619Q659 619 651.5 626.5Q644 634 644 646Q644 659 652.5 667Q661 675 671 676Q656 707 611.5 722Q567 737 504 737Q476 737 446.5 731.5Q417 726 394 712.5Q371 699 356 676.5Q341 654 341 620Q341 560 403.5 523.5Q466 487 575 487Q625 487 653.5 488.5Q682 490 690 497L701 492V15Q719 9 737 -1Q755 -11 768.5 -27.5Q782 -44 790.5 -67Q799 -90 799 -122Q799 -158 788 -184.5Q777 -211 758.5 -227.5Q740 -244 715.5 -252Q691 -260 665 -260Z" glyph-name="f_f_j.alt" horiz-adv-x="795" /><glyph d="M49 0V22H131V528H49V550H466V406H441V472Q441 507 425 517.5Q409 528 373 528H170V291H354V362H377V197H354V269H170V22H270V0ZM1252 183Q1252 94 1218.5 43.5Q1185 -7 1102 -7Q1065 -7 1038 4Q1011 15 993 32Q975 49 966 69.5Q957 90 957 109Q957 124 965.5 132.5Q974 141 988 141Q1016 141 1016 115Q1016 102 1008 94Q1000 86 987 85Q999 47 1030.5 31.5Q1062 16 1099 16Q1164 16 1188.5 55.5Q1213 95 1213 176V529H1127V551H1334V529H1252ZM549 0V22H631V528H549V550H966V406H941V472Q941 507 925 517.5Q909 528 873 528H670V291H854V362H877V197H854V269H670V22H770V0Z" glyph-name="f_f_j.alt.sc" horiz-adv-x="1369" /><glyph d="M49 0V22H131V528H49V550H462V404H437V472Q437 507 420.5 517.5Q404 528 368 528H170V291L374 294V267L170 270V22H270V0ZM539 0V22H621V528H539V550H952V404H927V472Q927 507 910.5 517.5Q894 528 858 528H660V291L864 294V267L660 270V22H760V0ZM1233 182Q1233 93 1199.5 42.5Q1166 -8 1083 -8Q1046 -8 1019 3Q992 14 974 31Q956 48 947 68.5Q938 89 938 108Q938 123 946.5 131.5Q955 140 969 140Q997 140 997 114Q997 101 989 93Q981 85 968 84Q980 46 1011.5 30.5Q1043 15 1080 15Q1145 15 1169.5 54.5Q1194 94 1194 175V528H1108V550H1315V528H1233Z" glyph-name="f_f_j.sc" horiz-adv-x="1351" /><glyph d="M391 533Q391 584 400 621.5Q409 659 426 685Q403 705 372 711Q341 717 315 717Q235 717 197 671Q159 625 159 536V487H391ZM34 0V23H120V464H34V487H120V531Q120 587 135 626.5Q150 666 176 691.5Q202 717 237.5 728.5Q273 740 315 740Q347 740 381 732.5Q415 725 440 705Q466 735 502 747.5Q538 760 580 760Q605 760 628 757Q651 754 664 754Q672 754 678.5 755Q685 756 691 760L701 754V23H787V0H578V23H662V731Q642 735 621 736Q600 737 582 737Q549 737 521 727.5Q493 718 473 696.5Q453 675 441.5 639Q430 603 430 549V487H554V464H430V23H505V0H305V23H391V464H159V23H234V0Z" glyph-name="f_f_l" horiz-adv-x="816" unicode="&#64260;" /><glyph d="M442 487Q386 498 349.5 532.5Q313 567 313 625Q313 669 340 699Q317 712 286 717.5Q255 723 219 723Q193 723 167 718Q141 713 120 701Q99 689 86 668.5Q73 648 73 617Q73 557 134 522Q195 487 306 487ZM34 0V23H120V464H34V487H167Q116 498 81.5 530Q47 562 47 617Q47 652 62 676.5Q77 701 101.5 716.5Q126 732 157 739Q188 746 219 746Q268 746 301 737.5Q334 729 358 716Q387 739 429.5 749.5Q472 760 523 760Q541 760 561 759Q581 758 599 756.5Q617 755 631 754Q645 753 650 753Q661 753 671.5 754Q682 755 689 760L699 754V23H785V0H576V23H660V728Q656 729 643 730.5Q630 732 611 733.5Q592 735 569.5 736Q547 737 523 737Q487 737 454 731Q421 725 395.5 711.5Q370 698 354.5 676.5Q339 655 339 625Q339 591 356 565Q373 539 404 522Q435 505 478 496Q521 487 573 487V464H428V23H512V0H303V23H389V464H159V23H243V0Z" glyph-name="f_f_l.alt" horiz-adv-x="814" /><glyph d="M49 0V22H131V528H49V550H466V406H441V472Q441 507 425 517.5Q409 528 373 528H170V291H354V362H377V197H354V269H170V22H270V0ZM549 0V22H631V528H549V550H966V406H941V472Q941 507 925 517.5Q909 528 873 528H670V291H854V362H877V197H854V269H670V22H770V0ZM1049 22H1131V528H1049V550H1256V528H1170V22H1388Q1426 22 1437.5 35.5Q1449 49 1449 82V151H1474V0H1049Z" glyph-name="f_f_l.alt.sc" horiz-adv-x="1506" /><glyph d="M49 0V22H131V528H49V550H462V404H437V472Q437 507 420.5 517.5Q404 528 368 528H170V291L374 294V267L170 270V22H270V0ZM539 0V22H621V528H539V550H952V404H927V472Q927 507 910.5 517.5Q894 528 858 528H660V291L864 294V267L660 270V22H760V0ZM1029 22H1111V528H1029V550H1236V528H1150V22H1368Q1406 22 1417.5 35.5Q1429 49 1429 82V151H1454V0H1029Z" glyph-name="f_f_l.sc" horiz-adv-x="1486" /><glyph d="M391 731Q371 735 350 736Q329 737 311 737Q278 737 250 727.5Q222 718 202 696.5Q182 675 170.5 639Q159 603 159 549V487H283V464H159V23H234V0H34V23H120V464H34V487H120V533Q120 598 135 642Q150 686 175.5 712Q201 738 235.5 749Q270 760 309 760Q334 760 357 757Q380 754 393 754Q401 754 407.5 755Q414 756 420 760L430 754V676Q430 668 430 644.5Q430 621 429.5 589.5Q429 558 428 523Q427 488 426 457Q425 426 424 403.5Q423 381 422 374Q429 398 442 420Q455 442 475 459.5Q495 477 523.5 487Q552 497 589 497Q670 497 716 448.5Q762 400 762 293V23H847V0H638V23H723V293Q723 386 682.5 427Q642 468 577 468Q510 468 470 425Q430 382 430 285V23H514V0H305V23H391Z" glyph-name="f_h" horiz-adv-x="867" /><glyph d="M430 606Q430 537 428 480.5Q426 424 422 370Q429 397 442 420Q455 443 475 460Q495 477 523.5 487Q552 497 589 497Q670 497 716 448.5Q762 400 762 293V23H847V0H638V23H723V293Q723 386 682.5 427Q642 468 577 468Q510 468 470 425Q430 382 430 285V23H514V0H305V23H391V729Q381 731 341.5 734Q302 737 254 737Q218 737 185 731Q152 725 126.5 711.5Q101 698 85.5 676.5Q70 655 70 625Q70 591 87 564.5Q104 538 135 521Q166 504 209 495.5Q252 487 304 487V464H159V23H243V0H34V23H120V464H34V487H173Q117 497 80.5 531.5Q44 566 44 625Q44 660 60.5 685Q77 710 105.5 726.5Q134 743 172.5 751.5Q211 760 254 760Q272 760 292 758.5Q312 757 330 756Q348 755 361.5 754Q375 753 381 753Q392 753 402.5 754Q413 755 420 760L430 754Z" glyph-name="f_h.alt" horiz-adv-x="867" /><glyph d="M49 0V22H131V528H49V550H466V406H441V472Q441 507 425 517.5Q409 528 373 528H170V291H354V362H377V197H354V269H170V22H270V0ZM549 22H631V528H549V550H747V528H670V293H1002V528H926V550H1124V528H1041V22H1124V0H926V22H1002V271H670V22H747V0H549Z" glyph-name="f_h.alt.sc" horiz-adv-x="1173" /><glyph d="M49 0V22H131V528H49V550H462V404H437V472Q437 507 420.5 517.5Q404 528 368 528H170V291L374 294V267L170 270V22H270V0ZM539 22H621V528H539V550H737V528H660V293H992V528H916V550H1114V528H1031V22H1114V0H916V22H992V271H660V22H737V0H539Z" glyph-name="f_h.sc" horiz-adv-x="1163" /><glyph d="M517 672Q517 664 510 652Q503 640 484 640Q464 640 457.5 652Q451 664 451 672Q451 681 457.5 693Q464 705 484 705Q503 705 510 693Q517 681 517 672ZM34 0V23H120V464H34V487H120V557Q120 617 132 656Q144 695 164 718Q184 741 210.5 750.5Q237 760 265 760Q317 760 343 733Q369 706 369 673Q369 658 361 649Q353 640 339 640Q325 640 316.5 648.5Q308 657 308 670Q308 681 315.5 690Q323 699 338 701Q327 721 309 729Q291 737 268 737Q246 737 226 729.5Q206 722 191 703Q176 684 167.5 651Q159 618 159 566V487H292Q330 487 353 487.5Q376 488 389.5 489Q403 490 409 492Q415 494 419 497L430 492V23H516V0H307V23H391V464H159V23H234V0Z" glyph-name="f_idieresis" horiz-adv-x="545" /><glyph d="M517 672Q517 664 510 652Q503 640 484 640Q464 640 457.5 652Q451 664 451 672Q451 681 457.5 693Q464 705 484 705Q503 705 510 693Q517 681 517 672ZM304 487Q354 487 382.5 488.5Q411 490 419 497L430 492V23H516V0H307V23H391V464H159V23H243V0H34V23H120V464H34V487H167Q115 498 79.5 532Q44 566 44 625Q44 663 60 689Q76 715 100.5 731Q125 747 155.5 753.5Q186 760 214 760Q282 760 322 736Q362 712 362 673Q362 658 354 649Q346 640 332 640Q318 640 309.5 648.5Q301 657 301 670Q301 692 328 702Q318 714 304 720.5Q290 727 274 731Q258 735 242.5 736Q227 737 214 737Q190 737 164.5 731.5Q139 726 118 713Q97 700 83.5 678.5Q70 657 70 625Q70 561 129.5 524Q189 487 304 487Z" glyph-name="f_idieresis.alt" horiz-adv-x="545" /><glyph d="M49 0V22H131V528H49V550H466V406H441V472Q441 507 425 517.5Q409 528 373 528H170V291H354V362H377V197H354V269H170V22H270V0ZM597 641Q597 633 590.5 623.5Q584 614 569 614Q554 614 548 623.5Q542 633 542 641Q542 649 548 659Q554 669 569 669Q584 669 590.5 659Q597 649 597 641ZM758 641Q758 633 752 623.5Q746 614 730 614Q715 614 709 623.5Q703 633 703 641Q703 649 709 659Q715 669 730 669Q746 669 752 659Q758 649 758 641ZM549 0V22H631V528H549V550H753V528H670V22H753V0Z" glyph-name="f_idieresis.alt.sc" horiz-adv-x="802" /><glyph d="M49 0V22H131V528H49V550H462V404H437V472Q437 507 420.5 517.5Q404 528 368 528H170V291L374 294V267L170 270V22H270V0ZM587 641Q587 633 580.5 623.5Q574 614 559 614Q544 614 538 623.5Q532 633 532 641Q532 649 538 659Q544 669 559 669Q574 669 580.5 659Q587 649 587 641ZM748 641Q748 633 742 623.5Q736 614 720 614Q705 614 699 623.5Q693 633 693 641Q693 649 699 659Q705 669 720 669Q736 669 742 659Q748 649 748 641ZM539 0V22H621V528H539V550H743V528H660V22H743V0Z" glyph-name="f_idieresis.sc" horiz-adv-x="792" /><glyph d="M291 -260Q234 -260 200 -228.5Q166 -197 166 -148Q166 -132 174.5 -124Q183 -116 196 -116Q210 -116 217.5 -123.5Q225 -131 225 -143Q225 -157 217 -165.5Q209 -174 195 -175Q204 -210 231.5 -224.5Q259 -239 288 -239Q346 -239 368 -197.5Q390 -156 390 -59V464H159V23H234V0H34V23H120V464H34V487H120V544Q120 605 134 646Q148 687 171.5 712.5Q195 738 226.5 749Q258 760 293 760Q328 760 354 751Q380 742 397.5 727Q415 712 424 692.5Q433 673 433 652Q433 637 425 628Q417 619 404 619Q390 619 382.5 626.5Q375 634 375 646Q375 674 405 678Q393 710 364 723.5Q335 737 300 737Q270 737 244.5 728.5Q219 720 200 699Q181 678 170 642.5Q159 607 159 553V487H292Q331 487 354 487.5Q377 488 389.5 489Q402 490 408 492Q414 494 419 497L429 492V-46Q429 -159 397.5 -209.5Q366 -260 291 -260Z" glyph-name="f_j" horiz-adv-x="521" /><glyph d="M304 487Q354 487 382.5 488.5Q411 490 419 497L430 492V15Q448 9 466 -1Q484 -11 497.5 -27.5Q511 -44 519.5 -67Q528 -90 528 -122Q528 -158 517 -184.5Q506 -211 487.5 -227.5Q469 -244 444.5 -252Q420 -260 394 -260Q331 -260 295.5 -230.5Q260 -201 260 -158Q260 -143 267.5 -134Q275 -125 289 -125Q302 -125 309.5 -133Q317 -141 317 -152Q317 -165 308 -172.5Q299 -180 289 -182Q300 -213 329 -225.5Q358 -238 392 -238Q413 -238 433 -231.5Q453 -225 468.5 -211Q484 -197 493 -175Q502 -153 502 -122Q502 -92 492.5 -70Q483 -48 467.5 -32.5Q452 -17 432 -9Q412 -1 391 0V464H159V23H255V0H34V23H120V464H34V487H167Q115 498 79.5 531.5Q44 565 44 620Q44 660 61 686.5Q78 713 105.5 729.5Q133 746 166.5 753Q200 760 233 760Q282 760 319 751Q356 742 381 727Q406 712 418.5 692.5Q431 673 431 652Q431 637 423 628Q415 619 402 619Q388 619 380.5 626.5Q373 634 373 646Q373 659 381.5 667Q390 675 400 676Q385 707 340.5 722Q296 737 233 737Q205 737 175.5 731.5Q146 726 123 712.5Q100 699 85 676.5Q70 654 70 620Q70 560 132.5 523.5Q195 487 304 487Z" glyph-name="f_j.alt" horiz-adv-x="524" /><glyph d="M49 0V22H131V528H49V550H466V406H441V472Q441 507 425 517.5Q409 528 373 528H170V291H354V362H377V197H354V269H170V22H270V0ZM753 182Q753 93 719.5 42.5Q686 -8 603 -8Q566 -8 539 3Q512 14 494 31Q476 48 467 68.5Q458 89 458 108Q458 123 466.5 131.5Q475 140 489 140Q517 140 517 114Q517 101 509 93Q501 85 488 84Q500 46 531.5 30.5Q563 15 600 15Q665 15 689.5 54.5Q714 94 714 175V528H628V550H835V528H753Z" glyph-name="f_j.alt.sc" horiz-adv-x="871" /><glyph d="M49 0V22H131V528H49V550H462V404H437V472Q437 507 420.5 517.5Q404 528 368 528H170V291L374 294V267L170 270V22H270V0ZM743 182Q743 93 709.5 42.5Q676 -8 593 -8Q556 -8 529 3Q502 14 484 31Q466 48 457 68.5Q448 89 448 108Q448 123 456.5 131.5Q465 140 479 140Q507 140 507 114Q507 101 499 93Q491 85 478 84Q490 46 521.5 30.5Q553 15 590 15Q655 15 679.5 54.5Q704 94 704 175V528H618V550H825V528H743Z" glyph-name="f_j.sc" horiz-adv-x="861" /><glyph d="M234 0H34V23H120V464H34V487H120V533Q120 598 135 642Q150 686 175.5 712Q201 738 235.5 749Q270 760 309 760Q334 760 357 757Q380 754 393 754Q401 754 407.5 755Q414 756 420 760L430 754V189L685 464H591V487H805V464H713L552 290L770 23H834V0H634V23H721L526 262L430 158V23H516V0H307V23H391V731Q371 735 350 736Q329 737 311 737Q278 737 250 727.5Q222 718 202 696.5Q182 675 170.5 639Q159 603 159 549V487H283V464H159V23H234Z" glyph-name="f_k" horiz-adv-x="835" /><glyph d="M243 0H34V23H120V464H34V487H173Q117 498 80.5 532.5Q44 567 44 625Q44 660 60.5 685.5Q77 711 105.5 727.5Q134 744 172.5 752Q211 760 254 760Q272 760 292 759Q312 758 330 756.5Q348 755 362 754Q376 753 381 753Q392 753 402.5 754Q413 755 420 760L430 754V487H752V465L561 279L770 23H834V0H634V23H721L533 253L430 153V23H516V0H307V23H391V728Q387 729 374 730.5Q361 732 342 733.5Q323 735 300.5 736Q278 737 254 737Q218 737 185 731Q152 725 126.5 711.5Q101 698 85.5 676.5Q70 655 70 625Q70 591 87 565Q104 539 135 522Q166 505 209 496Q252 487 304 487V464H159V23H243ZM718 464H430V185Z" glyph-name="f_k.alt" horiz-adv-x="825" /><glyph d="M49 0V22H131V528H49V550H466V406H441V472Q441 507 425 517.5Q409 528 373 528H170V291H354V362H377V197H354V269H170V22H270V0ZM670 199 997 528H670ZM549 0V22H631V528H549V550H1031V528L815 310L1038 22H1101V0H922V22H991L788 284L670 165V22H752V0Z" glyph-name="f_k.alt.sc" horiz-adv-x="1098" /><glyph d="M49 0V22H131V528H49V550H462V404H437V472Q437 507 420.5 517.5Q404 528 368 528H170V291L374 294V267L170 270V22H270V0ZM539 0V22H621V528H539V550H742V528H660V204L963 528H889V550H1060V528H992L807 329L1024 22H1086V0H909V22H977L780 301L660 172V22H742V0Z" glyph-name="f_k.sc" horiz-adv-x="1095" /><glyph d="M159 464V23H268V0H34V23H120V464H34V487H120V537Q120 601 134 643.5Q148 686 171.5 712Q195 738 225 749Q255 760 286 760Q352 760 390 722Q428 684 428 595V487H633V464H429V152Q429 84 455 48.5Q481 13 529 13Q577 13 600.5 48Q624 83 624 161H647Q647 74 617.5 32Q588 -10 519 -10Q492 -10 468.5 -1.5Q445 7 427.5 26Q410 45 400 74Q390 103 390 143V464ZM338 487Q375 487 389.5 505Q404 523 404 567V595Q404 672 375 704.5Q346 737 289 737Q262 737 238.5 727.5Q215 718 197.5 695Q180 672 169.5 634Q159 596 159 540V487Z" glyph-name="f_t" horiz-adv-x="670" /><glyph d="M521 -10Q465 -10 427.5 26Q390 62 390 143V464H159V23H255V0H34V23H120V464H34V487H164Q139 492 116.5 503Q94 514 77 531.5Q60 549 50 573.5Q40 598 40 629Q40 664 54 689Q68 714 90.5 729.5Q113 745 142.5 752.5Q172 760 202 760Q251 760 286.5 745Q322 730 347 705Q372 680 387 647.5Q402 615 409 580Q414 598 423 622.5Q432 647 443 671.5Q454 696 466 719Q478 742 488 757L500 750Q472 702 450 639.5Q428 577 428 487H633V464H428V152Q428 84 454 48.5Q480 13 528 13Q576 13 599.5 48Q623 83 623 161H646Q646 74 617 32Q588 -10 521 -10ZM390 487Q390 532 382 577Q374 622 353 657.5Q332 693 295.5 715Q259 737 201 737Q138 737 101 707.5Q64 678 64 629Q64 592 81.5 565.5Q99 539 130.5 521.5Q162 504 204.5 495.5Q247 487 297 487Z" glyph-name="f_t.alt" horiz-adv-x="669" /><glyph d="M49 0V22H131V528H49V550H466V406H441V472Q441 507 425 517.5Q409 528 373 528H170V291H354V362H377V197H354V269H170V22H270V0ZM693 22H779V529H641Q605 529 593 518Q581 507 581 472V389H556V550H1040V389H1015V472Q1015 507 1003.5 518Q992 529 955 529H818V22H904V0H693Z" glyph-name="f_t.alt.sc" horiz-adv-x="1072" /><glyph d="M49 0V22H131V528H49V550H462V404H437V472Q437 507 420.5 517.5Q404 528 368 528H170V291L374 294V267L170 270V22H270V0ZM683 22H769V529H631Q595 529 583 518Q571 507 571 472V389H546V550H1030V389H1005V472Q1005 507 993.5 518Q982 529 945 529H808V22H894V0H683Z" glyph-name="f_t.sc" horiz-adv-x="1062" /><glyph d="M34 0V23H120V464H34V487H120V544Q120 605 134 646Q148 687 171.5 712.5Q195 738 226.5 749Q258 760 293 760Q328 760 354 751Q380 742 397.5 727Q415 712 424 692.5Q433 673 433 652Q433 637 425 628Q417 619 404 619Q390 619 382.5 626.5Q375 634 375 646Q375 659 383 667Q391 675 402 677Q391 709 363 723Q335 737 300 737Q270 737 244.5 728.5Q219 720 200 699Q181 678 170 642.5Q159 607 159 553V487H292Q330 487 353 487.5Q376 488 389.5 489Q403 490 409 492Q415 494 419 497L430 492V23H516V0H307V23H391V464H159V23H234V0Z" glyph-name="fi" horiz-adv-x="545" unicode="&#64257;" /><glyph d="M304 487Q354 487 382.5 488.5Q411 490 419 497L430 492V23H516V0H307V23H391V464H159V23H243V0H34V23H120V464H34V487H167Q115 498 79.5 531Q44 564 44 618Q44 659 61 686Q78 713 105.5 729.5Q133 746 166.5 753Q200 760 233 760Q282 760 319 751Q356 742 381 727Q406 712 418.5 692.5Q431 673 431 652Q431 637 423 628Q415 619 402 619Q388 619 380.5 626.5Q373 634 373 646Q373 672 401 677Q385 707 340 722Q295 737 233 737Q205 737 175.5 731.5Q146 726 123 712Q100 698 85 675.5Q70 653 70 618Q70 557 132.5 522Q195 487 304 487Z" glyph-name="fi.alt" horiz-adv-x="545" /><glyph d="M49 0V22H131V528H49V550H466V406H441V472Q441 507 425 517.5Q409 528 373 528H170V291H354V362H377V197H354V269H170V22H270V0ZM549 0V22H631V528H549V550H753V528H670V22H753V0Z" glyph-name="fi.alt.sc" horiz-adv-x="802" /><glyph d="M49 0V22H131V528H49V550H462V404H437V472Q437 507 420.5 517.5Q404 528 368 528H170V291L374 294V267L170 270V22H270V0ZM539 0V22H621V528H539V550H743V528H660V22H743V0Z" glyph-name="fi.sc" horiz-adv-x="792" /><glyph d="M250 14Q338 14 384 69.5Q430 125 430 217Q430 261 417 296Q404 331 381 356Q358 381 325.5 394Q293 407 254 407Q202 407 162 387Q122 367 100 329H75L116 690H438V655H139L105 363Q126 393 167 412.5Q208 432 262 432Q312 432 351 415Q390 398 417 369Q444 340 458 301Q472 262 472 218Q472 172 459 131Q446 90 419 58.5Q392 27 351 8.5Q310 -10 254 -10Q209 -10 171 2Q133 14 105.5 34.5Q78 55 63 82Q48 109 48 139Q48 155 56.5 165Q65 175 82 175Q96 175 104 166Q112 157 112 144Q112 132 103 122Q94 112 80 110Q89 85 107 66.5Q125 48 148 36.5Q171 25 198 19.5Q225 14 250 14Z" glyph-name="five" horiz-adv-x="520" unicode="5" /><glyph d="M173 -135Q233 -135 262.5 -100Q292 -65 292 -8Q292 49 260 80Q228 111 175 111Q140 111 113 98Q86 85 72 62H52L80 300H306V271H99L77 92Q93 111 121.5 122Q150 133 184 133Q219 133 246 122Q273 111 291 91.5Q309 72 318.5 47Q328 22 328 -7Q328 -37 319 -64Q310 -91 291.5 -111.5Q273 -132 244.5 -144.5Q216 -157 178 -157Q114 -157 74.5 -129.5Q35 -102 35 -61Q35 -33 60 -33Q71 -33 77.5 -39.5Q84 -46 84 -57Q84 -66 77 -72Q70 -78 61 -81Q71 -109 103 -122Q135 -135 173 -135Z" glyph-name="five.inferior" horiz-adv-x="363" /><glyph d="M235 -157Q323 -157 368 -102.5Q413 -48 413 39Q413 125 365.5 172Q318 219 242 219Q188 219 150 198.5Q112 178 89 140H66L107 487H419V457H129L94 176Q126 212 163 227Q200 242 248 242Q296 242 334 227Q372 212 399 185.5Q426 159 440 122Q454 85 454 40Q454 -5 440 -45Q426 -85 399 -115Q372 -145 332 -162.5Q292 -180 239 -180Q198 -180 162 -168.5Q126 -157 99.5 -137Q73 -117 58 -90.5Q43 -64 43 -34Q43 -18 50.5 -8.5Q58 1 74 1Q88 1 95.5 -7.5Q103 -16 103 -29Q103 -40 93 -49Q83 -58 72 -62Q81 -88 99 -106Q117 -124 139.5 -135.5Q162 -147 187 -152Q212 -157 235 -157Z" glyph-name="five.old" horiz-adv-x="496" /><glyph d="M227 15Q305 15 345.5 58Q386 101 386 173Q386 243 343 282.5Q300 322 230 322Q183 322 148 306Q113 290 94 261H71L108 550H397V519H129L98 292Q119 317 157 331Q195 345 240 345Q285 345 319.5 331.5Q354 318 377.5 295Q401 272 413.5 240.5Q426 209 426 174Q426 138 414.5 105Q403 72 379 47Q355 22 318.5 7Q282 -8 231 -8Q191 -8 157 1.5Q123 11 98.5 27Q74 43 60.5 65Q47 87 47 111Q47 125 55.5 133.5Q64 142 78 142Q92 142 99 134.5Q106 127 106 115Q106 105 98.5 96.5Q91 88 78 86Q84 67 99.5 53.5Q115 40 136 31.5Q157 23 180.5 19Q204 15 227 15Z" glyph-name="five.sc" horiz-adv-x="474" /><glyph d="M174 455Q234 455 263.5 490Q293 525 293 582Q293 639 261 670Q229 701 176 701Q141 701 114 688Q87 675 73 652H53L81 890H307V861H100L78 682Q94 701 122.5 712Q151 723 185 723Q220 723 247 712Q274 701 292 681.5Q310 662 319.5 637Q329 612 329 583Q329 553 320 526Q311 499 292.5 478.5Q274 458 245.5 445.5Q217 433 179 433Q115 433 75.5 460.5Q36 488 36 529Q36 557 61 557Q72 557 78.5 550.5Q85 544 85 533Q85 524 78 518Q71 512 62 509Q72 481 104 468Q136 455 174 455Z" glyph-name="five.superior" horiz-adv-x="363" /><glyph d="M310 14Q398 14 444 69.5Q490 125 490 217Q490 261 477 296Q464 331 441 356Q418 381 385.5 394Q353 407 314 407Q262 407 222 387Q182 367 160 329H135L176 690H498V655H199L165 363Q186 393 227 412.5Q268 432 322 432Q372 432 411 415Q450 398 477 369Q504 340 518 301Q532 262 532 218Q532 172 519 131Q506 90 479 58.5Q452 27 411 8.5Q370 -10 314 -10Q269 -10 231 2Q193 14 165.5 34.5Q138 55 123 82Q108 109 108 139Q108 155 116.5 165Q125 175 142 175Q156 175 164 166Q172 157 172 144Q172 132 163 122Q154 112 140 110Q149 85 167 66.5Q185 48 208 36.5Q231 25 258 19.5Q285 14 310 14Z" glyph-name="five.tln" horiz-adv-x="640" /><glyph d="M307 -157Q395 -157 440 -102.5Q485 -48 485 39Q485 125 437.5 172Q390 219 314 219Q260 219 222 198.5Q184 178 161 140H138L179 487H491V457H201L166 176Q198 212 235 227Q272 242 320 242Q368 242 406 227Q444 212 471 185.5Q498 159 512 122Q526 85 526 40Q526 -5 512 -45Q498 -85 471 -115Q444 -145 404 -162.5Q364 -180 311 -180Q270 -180 234 -168.5Q198 -157 171.5 -137Q145 -117 130 -90.5Q115 -64 115 -34Q115 -18 122.5 -8.5Q130 1 146 1Q160 1 167.5 -7.5Q175 -16 175 -29Q175 -40 165 -49Q155 -58 144 -62Q153 -88 171 -106Q189 -124 211.5 -135.5Q234 -147 259 -152Q284 -157 307 -157Z" glyph-name="five.ton" horiz-adv-x="640" /><glyph d="M516 23V0H307V23H391V731Q371 735 350 736Q329 737 311 737Q278 737 250 727.5Q222 718 202 696.5Q182 675 170.5 639Q159 603 159 549V487H283V464H159V23H234V0H34V23H120V464H34V487H120V533Q120 598 135 642Q150 686 175.5 712Q201 738 235.5 749Q270 760 309 760Q334 760 357 757Q380 754 393 754Q401 754 407.5 755Q414 756 420 760L430 754V23Z" glyph-name="fl" horiz-adv-x="545" unicode="&#64258;" /><glyph d="M391 728Q387 729 374 730.5Q361 732 342 733.5Q323 735 300.5 736Q278 737 254 737Q218 737 185 731Q152 725 126.5 711.5Q101 698 85.5 676.5Q70 655 70 625Q70 591 87 565Q104 539 135 522Q166 505 209 496Q252 487 304 487V464H159V23H243V0H34V23H120V464H34V487H173Q117 498 80.5 532.5Q44 567 44 625Q44 660 60.5 685.5Q77 711 105.5 727.5Q134 744 172.5 752Q211 760 254 760Q272 760 292 759Q312 758 330 756.5Q348 755 362 754Q376 753 381 753Q392 753 402.5 754Q413 755 420 760L430 754V23H516V0H307V23H391Z" glyph-name="fl.alt" horiz-adv-x="545" /><glyph d="M49 0V22H131V528H49V550H466V406H441V472Q441 507 425 517.5Q409 528 373 528H170V291H354V362H377V197H354V269H170V22H270V0ZM549 22H631V528H549V550H756V528H670V22H888Q926 22 937.5 35.5Q949 49 949 82V151H974V0H549Z" glyph-name="fl.alt.sc" horiz-adv-x="1006" /><glyph d="M49 0V22H131V528H49V550H462V404H437V472Q437 507 420.5 517.5Q404 528 368 528H170V291L374 294V267L170 270V22H270V0ZM549 22H631V528H549V550H756V528H670V22H888Q926 22 937.5 35.5Q949 49 949 82V151H974V0H549Z" glyph-name="fl.sc" horiz-adv-x="1006" /><glyph d="M269 0V23H372V217H23V235L381 696H413V240H505V217H413V23H505V0ZM372 647 56 240H372Z" glyph-name="four" horiz-adv-x="552" unicode="4" /><glyph d="M180 -150V-129H249V-24H11V-8L256 303H284V-3H346V-24H284V-129H346V-150ZM249 261 43 -3H249Z" glyph-name="four.inferior" horiz-adv-x="378" /><glyph d="M347 -170V0H21V17L356 497H386V23H486V0H386V-170ZM347 23V446L52 23Z" glyph-name="four.old" horiz-adv-x="510" /><glyph d="M247 0V22H338V162H27V178L346 554H377V183H459V162H377V22H459V0ZM338 512 60 183H338Z" glyph-name="four.sc" horiz-adv-x="506" /><glyph d="M180 440V461H249V566H11V582L256 893H284V587H346V566H284V461H346V440ZM249 851 43 587H249Z" glyph-name="four.superior" horiz-adv-x="378" /><glyph d="M313 0V23H416V217H67V235L425 696H457V240H549V217H457V23H549V0ZM416 647 100 240H416Z" glyph-name="four.tln" horiz-adv-x="640" /><glyph d="M407 -170V0H81V17L416 497H446V23H546V0H446V-170ZM407 23V446L112 23Z" glyph-name="four.ton" horiz-adv-x="640" /><glyph d="M243 184Q309 184 348 222.5Q387 261 387 330Q387 401 348 439Q309 477 243 476Q213 476 187 466.5Q161 457 141.5 438.5Q122 420 111 392.5Q100 365 100 330Q100 261 139 222.5Q178 184 243 184ZM476 -106Q476 -183 416.5 -221.5Q357 -260 254 -260Q210 -260 171 -252Q132 -244 103 -227.5Q74 -211 57 -184.5Q40 -158 40 -121Q40 -73 72 -39.5Q104 -6 162 5Q114 11 88 32Q62 53 62 89Q62 130 94.5 151Q127 172 170 177Q116 192 88 234Q60 276 60 330Q60 369 74.5 399.5Q89 430 114 452Q139 474 172.5 485.5Q206 497 243 497Q265 497 283.5 494.5Q302 492 322 487H476V467L352 468Q393 444 410 408.5Q427 373 427 330Q427 299 416 269Q405 239 382.5 215.5Q360 192 325 177.5Q290 163 243 163Q169 163 130.5 148.5Q92 134 92 97Q92 81 98.5 68.5Q105 56 123.5 47Q142 38 174.5 33Q207 28 259 28Q375 28 425.5 -6.5Q476 -41 476 -106ZM262 -235Q303 -235 337.5 -227.5Q372 -220 397 -205Q422 -190 436 -167Q450 -144 450 -112Q450 -90 441 -70Q432 -50 409.5 -35Q387 -20 348.5 -11.5Q310 -3 252 -3H193Q129 -14 101.5 -44Q74 -74 74 -116Q74 -149 90 -172Q106 -195 132.5 -209Q159 -223 192.5 -229Q226 -235 262 -235Z" glyph-name="g" horiz-adv-x="494" unicode="g" /><glyph d="M668 695Q668 687 661.5 675Q655 663 635 663Q615 663 609 675Q603 687 603 695Q603 703 609 715.5Q615 728 635 728Q655 728 661.5 715.5Q668 703 668 695ZM525 -260Q491 -260 463 -247.5Q435 -235 421 -218Q364 -260 254 -260Q210 -260 171 -252Q132 -244 103 -227.5Q74 -211 57 -184.5Q40 -158 40 -121Q40 -73 72 -39.5Q104 -6 162 5Q114 11 88 32Q62 53 62 89Q62 130 94.5 151Q127 172 170 177Q116 192 88 234Q60 276 60 330Q60 369 74.5 399.5Q89 430 114 452Q139 474 172.5 485.5Q206 497 243 497Q265 497 283.5 494.5Q302 492 322 487Q429 487 492 487Q555 487 589 488Q623 489 635 491Q647 493 652 497L662 492V-46Q662 -159 631 -209.5Q600 -260 525 -260ZM243 184Q309 184 348 222.5Q387 261 387 330Q387 401 348 439Q309 477 243 476Q213 476 187 466.5Q161 457 141.5 438.5Q122 420 111 392.5Q100 365 100 330Q100 261 139 222.5Q178 184 243 184ZM521 -238Q579 -238 601 -196.5Q623 -155 623 -59V465L352 468Q393 444 410 408.5Q427 373 427 330Q427 299 416 269Q405 239 382.5 215.5Q360 192 325 177.5Q290 163 243 163Q169 163 130.5 148.5Q92 134 92 97Q92 81 98.5 68.5Q105 56 123.5 47Q142 38 174.5 33Q207 28 259 28Q375 28 425.5 -6.5Q476 -41 476 -106Q476 -165 437 -204Q451 -221 474 -229.5Q497 -238 521 -238ZM262 -235Q303 -235 337.5 -227.5Q372 -220 397 -205Q422 -190 436 -167Q450 -144 450 -112Q450 -90 441 -70Q432 -50 409.5 -35Q387 -20 348.5 -11.5Q310 -3 252 -3H193Q129 -14 101.5 -44Q74 -74 74 -116Q74 -149 90 -172Q106 -195 132.5 -209Q159 -223 192.5 -229Q226 -235 262 -235Z" glyph-name="g_j" horiz-adv-x="755" /><glyph d="M664 695Q664 687 657.5 675Q651 663 631 663Q612 663 605.5 675Q599 687 599 695Q599 703 605.5 715.5Q612 728 631 728Q651 728 657.5 715.5Q664 703 664 695ZM597 -260Q544 -260 503 -244.5Q462 -229 438 -203Q410 -232 363.5 -246Q317 -260 254 -260Q210 -260 171 -252Q132 -244 103 -227.5Q74 -211 57 -184.5Q40 -158 40 -121Q40 -73 72 -39.5Q104 -6 162 5Q114 11 88 32Q62 53 62 89Q62 130 94.5 151Q127 172 170 177Q116 192 88 234Q60 276 60 330Q60 369 74.5 399.5Q89 430 114 452Q139 474 172.5 485.5Q206 497 243 497Q265 497 283.5 494.5Q302 492 322 487Q421 487 481.5 487Q542 487 576.5 488Q611 489 625 491Q639 493 645 497L655 492V15Q672 10 689.5 0.5Q707 -9 721 -25Q735 -41 744 -64Q753 -87 753 -119Q753 -157 740 -183.5Q727 -210 705.5 -227Q684 -244 655.5 -252Q627 -260 597 -260ZM243 184Q309 184 348 222.5Q387 261 387 330Q387 401 348 438.5Q309 476 243 476Q213 476 187 466.5Q161 457 141.5 438.5Q122 420 111 392.5Q100 365 100 330Q100 261 139 222.5Q178 184 243 184ZM597 -237Q622 -237 645.5 -230.5Q669 -224 687 -209.5Q705 -195 716 -173Q727 -151 727 -121Q727 -92 717.5 -70Q708 -48 692.5 -33Q677 -18 657 -9.5Q637 -1 616 0V465L352 468Q393 444 410 408.5Q427 373 427 330Q427 299 416 269Q405 239 382.5 215.5Q360 192 325 177.5Q290 163 243 163Q169 163 130.5 148.5Q92 134 92 97Q92 81 98.5 68.5Q105 56 123.5 47Q142 38 174.5 33Q207 28 259 28Q375 28 425.5 -6.5Q476 -41 476 -106Q476 -151 455 -182Q479 -212 517 -224.5Q555 -237 597 -237ZM262 -235Q303 -235 337.5 -227.5Q372 -220 397 -205Q422 -190 436 -167Q450 -144 450 -112Q450 -90 441 -70Q432 -50 409.5 -35Q387 -20 348.5 -11.5Q310 -3 252 -3H193Q129 -14 101.5 -44Q74 -74 74 -116Q74 -149 90 -172Q106 -195 132.5 -209Q159 -223 192.5 -229Q226 -235 262 -235Z" glyph-name="g_j.alt" horiz-adv-x="749" /><glyph d="M480 42Q465 27 446 17.5Q427 8 406.5 2.5Q386 -3 366 -5.5Q346 -8 330 -8Q255 -8 202 15.5Q149 39 115.5 78Q82 117 66.5 168.5Q51 220 51 276Q51 331 68 382Q85 433 117.5 472Q150 511 197.5 534.5Q245 558 307 558Q365 558 410.5 539.5Q456 521 477 491L490 557H510V384H486Q486 422 472 450.5Q458 479 434 498Q410 517 378 526Q346 535 309 535Q258 535 218 516Q178 497 149.5 463Q121 429 106 381Q91 333 91 276Q91 213 108 164.5Q125 116 156.5 82.5Q188 49 232 32Q276 15 330 15Q345 15 364 17.5Q383 20 402.5 26Q422 32 440 42Q458 52 473 67V215H364V237H586V215H511V-8H492ZM647 0V22H729V528H647V550H851V528H768V22H851V0Z" glyph-name="g_j.alt.sc" horiz-adv-x="884" /><glyph d="M480 42Q465 27 446 17.5Q427 8 406.5 2.5Q386 -3 366 -5.5Q346 -8 330 -8Q255 -8 202 15.5Q149 39 115.5 78Q82 117 66.5 168.5Q51 220 51 276Q51 331 68 382Q85 433 117.5 472Q150 511 197.5 534.5Q245 558 307 558Q365 558 410.5 539.5Q456 521 477 491L490 557H510V384H486Q486 422 472 450.5Q458 479 434 498Q410 517 378 526Q346 535 309 535Q258 535 218 516Q178 497 149.5 463Q121 429 106 381Q91 333 91 276Q91 213 108 164.5Q125 116 156.5 82.5Q188 49 232 32Q276 15 330 15Q345 15 364 17.5Q383 20 402.5 26Q422 32 440 42Q458 52 473 67V215H364V237H586V215H511V-8H492ZM647 0V22H729V528H647V550H851V528H768V22H851V0Z" glyph-name="g_j.sc" horiz-adv-x="884" /><glyph d="M322 -10Q298 -10 281 -7Q264 -4 252 -1Q239 3 230 8V32Q239 26 251 22Q263 18 278.5 15Q294 12 316 12Q351 12 376 23Q401 34 417 52Q433 70 440 93.5Q447 117 447 142Q447 180 434 205.5Q421 231 401.5 249Q382 267 359.5 280.5Q337 294 317.5 309Q298 324 285 343Q272 362 272 391Q272 423 292 445.5Q312 468 336 492Q360 516 380 548Q400 580 400 631Q400 678 370.5 707.5Q341 737 287 737Q248 737 222 723Q196 709 180.5 685Q165 661 158.5 630Q152 599 152 565V0H43V23H113V464H43V487H113V549Q113 592 122 630.5Q131 669 152 697.5Q173 726 206.5 743Q240 760 289 760Q362 760 401.5 725Q441 690 441 631Q441 581 418.5 548.5Q396 516 369 491Q342 466 319.5 443.5Q297 421 297 391Q297 367 311 351Q325 335 346 321Q367 307 392 293Q417 279 438 259.5Q459 240 473 212Q487 184 487 143Q487 74 445 32Q403 -10 322 -10Z" glyph-name="germandbls" horiz-adv-x="533" unicode="&#223;" /><glyph d="M333 -10Q311 -10 295.5 -8.5Q280 -7 270 -5Q258 -3 250 0V23Q258 20 269 18Q280 16 294 14.5Q308 13 327 13Q390 13 426.5 50Q463 87 463 153Q463 191 451 225.5Q439 260 414.5 289Q390 318 352.5 339.5Q315 361 263 373V394L455 727H159V0H34V23H120V464H34V487H120V750H484V727L289 389Q392 361 448 299Q504 237 504 155Q504 82 462.5 36Q421 -10 333 -10Z" glyph-name="germandbls.alt" horiz-adv-x="551" /><glyph d="M167 672Q135 698 122 712Q109 726 109 734Q109 752 130 752Q141 752 153.5 739.5Q166 727 186 699L256 601H237Z" glyph-name="grave" horiz-adv-x="366" unicode="`" /><glyph d="M139 814Q116 834 104 846Q92 858 92 866Q92 874 97 879Q102 884 113 884Q125 884 137 871Q149 858 169 835L249 740H226Z" glyph-name="grave.cap" horiz-adv-x="348" /><glyph d="M78 150 371 337 78 522V555L404 346V327L78 118Z" glyph-name="greater" horiz-adv-x="452" unicode="&gt;" /><glyph d="M57 60 350 247 57 432V465L383 256V237L57 28Z" glyph-name="greater.old" horiz-adv-x="415" /><glyph d="M75 142 333 289 75 433V463L366 297V280L75 113Z" glyph-name="greater.sc" horiz-adv-x="404" /><glyph d="M172 150 465 337 172 522V555L498 346V327L172 118Z" glyph-name="greater.tln" horiz-adv-x="640" /><glyph d="M166 60 459 247 166 432V465L492 256V237L166 28Z" glyph-name="greater.ton" horiz-adv-x="640" /><glyph d="M266 39 43 247V266L266 452V430L95 257L266 61ZM391 81 205 248V266L391 412V390L254 257L391 103Z" glyph-name="guillemotleft" horiz-adv-x="454" unicode="&#171;" /><glyph d="M272 119 49 327V346L272 532V510L101 337L272 141ZM397 161 211 328V346L397 492V470L260 337L397 183Z" glyph-name="guillemotleft.cap" horiz-adv-x="465" /><glyph d="M243 100 42 268V283L243 433V413L90 275L243 120ZM355 133 187 268V283L355 402V381L233 275L355 153Z" glyph-name="guillemotleft.sc" horiz-adv-x="430" /><glyph d="M359 39 136 247V266L359 452V430L188 257L359 61ZM484 81 298 248V266L484 412V390L347 257L484 103Z" glyph-name="guillemotleft.tln" horiz-adv-x="640" /><glyph d="M360 257 188 430V452L411 266V247L188 39V61ZM200 257 63 390V412L249 266V248L63 81V103Z" glyph-name="guillemotright" horiz-adv-x="454" unicode="&#187;" /><glyph d="M366 337 194 510V532L417 346V327L194 119V141ZM206 337 69 470V492L255 346V328L69 161V183Z" glyph-name="guillemotright.cap" horiz-adv-x="465" /><glyph d="M322 275 169 413V433L369 283V268L169 100V120ZM178 275 56 381V402L224 283V268L56 133V153Z" glyph-name="guillemotright.sc" horiz-adv-x="412" /><glyph d="M453 257 281 430V452L504 266V247L281 39V61ZM293 257 156 390V412L342 266V248L156 81V103Z" glyph-name="guillemotright.tln" horiz-adv-x="640" /><glyph d="M26 0V23H112V727H26V750Q61 750 82.5 750.5Q104 751 116 752Q128 753 133 755Q138 757 142 760L151 754V597Q151 497 149 440Q147 383 143 363Q150 390 163 414Q176 438 196 456.5Q216 475 244.5 486Q273 497 310 497Q391 497 437 448.5Q483 400 483 293V23H569V0H360V23H444V293Q444 386 404 427Q364 468 298 468Q232 468 191.5 424.5Q151 381 151 285V23H235V0Z" glyph-name="h" horiz-adv-x="589" unicode="h" /><glyph d="M106 601 170 706Q187 739 198.5 752.5Q210 766 221 766Q242 766 242 749Q242 738 230.5 723.5Q219 709 190 679L125 601ZM228 601 308 699Q329 725 342.5 738.5Q356 752 369 752Q388 752 388 734Q388 725 374.5 711Q361 697 328 672L247 601Z" glyph-name="hungarumlaut" horiz-adv-x="499" unicode="&#733;" /><glyph d="M113 740H88L156 848Q170 870 180 883Q190 896 200 896Q220 896 220 877Q220 869 211 857.5Q202 846 187 827ZM242 740H216L294 839Q312 861 324 873Q336 885 345 885Q356 885 360.5 879Q365 873 365 865Q365 857 354 846Q343 835 326 818Z" glyph-name="hungarumlaut.cap" horiz-adv-x="457" /><glyph d="M71 315H369V289H71Z" glyph-name="hyphen" horiz-adv-x="440" unicode="-" /><glyph d="M74 354H372V328H74Z" glyph-name="hyphen.cap" horiz-adv-x="446" /><glyph d="M67 295H365V269H67Z" glyph-name="hyphen.sc" horiz-adv-x="433" /><glyph d="M171 315H469V289H171Z" glyph-name="hyphen.tln" horiz-adv-x="640" /><glyph d="M162 23H248V0H37V23H123V464H37V487Q71 487 91.5 487.5Q112 488 124 489Q136 490 141.5 492Q147 494 151 497L162 492ZM169 651Q169 643 162.5 631Q156 619 136 619Q117 619 110.5 631Q104 643 104 651Q104 659 110.5 671.5Q117 684 136 684Q156 684 162.5 671.5Q169 659 169 651Z" glyph-name="i" horiz-adv-x="277" unicode="i" /><glyph d="M162 23H248V0H37V23H123V464H37V487Q71 487 91.5 487.5Q112 488 124 489Q136 490 141.5 492Q147 494 151 497L162 492ZM169 651Q169 643 162.5 631Q156 619 136 619Q117 619 110.5 631Q104 643 104 651Q104 659 110.5 671.5Q117 684 136 684Q156 684 162.5 671.5Q169 659 169 651Z" glyph-name="i.TRK" horiz-adv-x="277" /><glyph d="M162 23H248V0H37V23H123V464H37V487Q71 487 91.5 487.5Q112 488 124 489Q136 490 141.5 492Q147 494 151 497L162 492ZM169 651Q169 643 162.5 631Q156 619 136 619Q117 619 110.5 631Q104 643 104 651Q104 659 110.5 671.5Q117 684 136 684Q156 684 162.5 671.5Q169 659 169 651Z" glyph-name="i.dot" horiz-adv-x="277" /><glyph d="M135 601 205 699Q225 727 237.5 739.5Q250 752 261 752Q282 752 282 734Q282 726 269 712Q256 698 224 672L154 601ZM162 23H248V0H37V23H123V464H37V487Q71 487 91.5 487.5Q112 488 124 489Q136 490 141.5 492Q147 494 151 497L162 492Z" glyph-name="iacute" horiz-adv-x="277" unicode="&#237;" /><glyph d="M395 601 465 699Q485 727 497.5 739.5Q510 752 521 752Q542 752 542 734Q542 726 529 712Q516 698 485 672L414 601ZM149 601 219 699Q239 727 251.5 739.5Q264 752 275 752Q296 752 296 734Q296 726 283 712Q270 698 238 672L168 601ZM162 23H248V0H37V23H123V464H37V487Q71 487 91.5 487.5Q112 488 124 489Q136 490 141.5 492Q147 494 151 497L162 492ZM293 -260Q233 -260 200.5 -228Q168 -196 168 -151Q168 -133 177 -124.5Q186 -116 199 -116Q213 -116 220 -123.5Q227 -131 227 -143Q227 -170 196 -175Q205 -209 231 -223.5Q257 -238 292 -238Q349 -238 370.5 -196.5Q392 -155 392 -59V464H306V487Q341 487 361.5 487.5Q382 488 394 489Q406 490 411.5 492Q417 494 421 497L431 492V-46Q431 -159 399.5 -209.5Q368 -260 293 -260Z" glyph-name="iacute_jacute" horiz-adv-x="523" /><glyph d="M162 23H248V0H37V23H123V464H37V487Q71 487 91.5 487.5Q112 488 124 489Q136 490 141.5 492Q147 494 151 497L162 492ZM397 -260Q334 -260 300 -230Q266 -200 266 -158Q266 -143 274 -134Q282 -125 295 -125Q311 -125 317.5 -133Q324 -141 324 -152Q324 -179 294 -182Q304 -214 333 -226Q362 -238 395 -238Q417 -238 437 -231.5Q457 -225 472 -211Q487 -197 496 -175Q505 -153 505 -122Q505 -92 495.5 -70Q486 -48 470.5 -32.5Q455 -17 435 -9Q415 -1 394 0V464H308V487Q364 487 388.5 488.5Q413 490 423 497L433 492V16Q451 11 469 0.5Q487 -10 501 -27Q515 -44 523.5 -67.5Q532 -91 532 -122Q532 -158 521 -184.5Q510 -211 491 -227.5Q472 -244 447.5 -252Q423 -260 397 -260ZM398 601 468 699Q488 727 500.5 739.5Q513 752 524 752Q545 752 545 734Q545 726 532 712Q519 698 487 672L417 601ZM118 601 188 699Q208 727 220.5 739.5Q233 752 244 752Q265 752 265 734Q265 726 252 712Q239 698 207 672L137 601Z" glyph-name="iacute_jacute.alt" horiz-adv-x="528" /><glyph d="M467 590H446L517 665Q534 683 545.5 694Q557 705 568 705Q578 705 583 700Q588 695 588 688Q588 677 545 646ZM154 590H133L204 665Q221 683 232.5 694Q244 705 255 705Q265 705 270 700Q275 695 275 688Q275 677 232 646ZM42 226V247H124V528H42V550H245V528H163V247H245V226ZM482 198Q482 99 438 45.5Q394 -8 297 -8Q252 -8 218 3.5Q184 15 162 33Q140 51 129 73.5Q118 96 118 118Q118 151 149 151Q162 151 169.5 143.5Q177 136 177 124Q177 111 168 104Q159 97 145 95Q152 72 168.5 56.5Q185 41 205.5 32Q226 23 248.5 19Q271 15 289 15Q372 15 407.5 59.5Q443 104 443 198V528H357V550H564V528H482Z" glyph-name="iacute_jacute.alt.sc" horiz-adv-x="599" /><glyph d="M575 590H553L624 665Q642 683 653.5 694Q665 705 676 705Q686 705 690.5 700Q695 695 695 688Q695 677 653 646ZM165 590H143L214 665Q232 683 243.5 694Q255 705 266 705Q276 705 280.5 700Q285 695 285 688Q285 676 243 646ZM49 0V22H131V528H49V550H253V528H170V22H253V0ZM582 182Q582 93 549 42.5Q516 -8 433 -8Q396 -8 369 3Q342 14 324 31Q306 48 297 68.5Q288 89 288 108Q288 140 319 140Q347 140 347 114Q347 101 338.5 93.5Q330 86 317 84Q328 46 360.5 30.5Q393 15 430 15Q494 15 519 54.5Q544 94 544 175V528H458V550H665V528H582Z" glyph-name="iacute_jacute.sc" horiz-adv-x="701" /><glyph d="M-4 602 125 754H139L264 602H241L132 717L19 602ZM162 23H248V0H37V23H123V464H37V487Q71 487 91.5 487.5Q112 488 124 489Q136 490 141.5 492Q147 494 151 497L162 492Z" glyph-name="icircumflex" horiz-adv-x="277" unicode="&#238;" /><glyph d="M84 651Q84 643 77 631Q70 619 51 619Q31 619 24.5 631Q18 643 18 651Q18 659 24.5 671.5Q31 684 51 684Q70 684 77 671.5Q84 659 84 651ZM252 651Q252 643 245 631Q238 619 219 619Q199 619 192.5 631Q186 643 186 651Q186 659 192.5 671.5Q199 684 219 684Q238 684 245 671.5Q252 659 252 651ZM162 23H248V0H37V23H123V464H37V487Q71 487 91.5 487.5Q112 488 124 489Q136 490 141.5 492Q147 494 151 497L162 492Z" glyph-name="idieresis" horiz-adv-x="277" unicode="&#239;" /><glyph d="M162 23H248V0H37V23H123V464H37V487Q71 487 91.5 487.5Q112 488 124 489Q136 490 141.5 492Q147 494 151 497L162 492ZM57 672Q25 698 12 712Q-1 726 -1 734Q-1 752 20 752Q31 752 43.5 739.5Q56 727 76 699L146 601H127Z" glyph-name="igrave" horiz-adv-x="277" unicode="&#236;" /><glyph d="M174 651Q174 643 167.5 631Q161 619 141 619Q122 619 115.5 631Q109 643 109 651Q109 659 115.5 671.5Q122 684 141 684Q161 684 167.5 671.5Q174 659 174 651ZM28 -260Q-32 -260 -64.5 -229Q-97 -198 -97 -150Q-97 -133 -88.5 -124.5Q-80 -116 -67 -116Q-52 -116 -45 -124Q-38 -132 -38 -143Q-38 -157 -46 -166.5Q-54 -176 -69 -177Q-58 -209 -33 -223.5Q-8 -238 26 -238Q83 -238 105 -196.5Q127 -155 127 -59V464H41V487Q76 487 96.5 487.5Q117 488 128.5 489Q140 490 145.5 492Q151 494 155 497L166 492V-46Q166 -159 134.5 -209.5Q103 -260 28 -260Z" glyph-name="j" horiz-adv-x="258" unicode="j" /><glyph d="M160 651Q160 643 153.5 631Q147 619 127 619Q108 619 101.5 631Q95 643 95 651Q95 659 101.5 671.5Q108 684 127 684Q147 684 153.5 671.5Q160 659 160 651ZM115 -260Q52 -260 18 -230Q-16 -200 -16 -158Q-16 -143 -8 -134Q0 -125 13 -125Q29 -125 35.5 -133Q42 -141 42 -152Q42 -179 12 -182Q22 -214 51 -226Q80 -238 113 -238Q135 -238 155 -231.5Q175 -225 190 -211Q205 -197 214 -175Q223 -153 223 -122Q223 -92 213.5 -70Q204 -48 188.5 -32.5Q173 -17 153 -9Q133 -1 112 0V464H26V487Q82 487 106.5 488.5Q131 490 141 497L151 492V16Q169 11 187 0.5Q205 -10 219 -27Q233 -44 241.5 -67.5Q250 -91 250 -122Q250 -158 239 -184.5Q228 -211 209 -227.5Q190 -244 165.5 -252Q141 -260 115 -260Z" glyph-name="j.alt" horiz-adv-x="245" /><glyph d="M26 0V23H112V727H26V750Q59 750 80 750.5Q101 751 113.5 752Q126 753 132 755Q138 757 142 760L151 754V185L408 464H312V487H526V464H440L277 286L491 23H555V0H356V23H444L252 259L151 150V23H235V0Z" glyph-name="k" horiz-adv-x="557" unicode="k" /><glyph d="M439 464H151V185ZM26 0V23H112V727H26V750Q59 750 80 750.5Q101 751 113.5 752Q126 753 132 755Q138 757 142 760L151 754V487H473V465L282 280L491 23H555V0H356V23H443L255 254L151 153V23H235V0Z" glyph-name="k.alt" horiz-adv-x="546" /><glyph d="M29 23H115V727H29V750Q62 750 83 750.5Q104 751 116.5 752Q129 753 135 755Q141 757 144 760L154 754V23H240V0H29Z" glyph-name="l" horiz-adv-x="269" unicode="l" /><glyph d="M47 327V346L373 555V523L81 337L373 150V118Z" glyph-name="less" horiz-adv-x="452" unicode="&lt;" /><glyph d="M32 237V256L358 465V433L66 247L358 60V28Z" glyph-name="less.old" horiz-adv-x="415" /><glyph d="M39 274V290L330 456V428L73 283L330 137V107Z" glyph-name="less.sc" horiz-adv-x="405" /><glyph d="M141 327V346L467 555V523L175 337L467 150V118Z" glyph-name="less.tln" horiz-adv-x="640" /><glyph d="M147 237V256L473 465V433L181 247L473 60V28Z" glyph-name="less.ton" horiz-adv-x="640" /><glyph d="M475 186V319H84V345H501V186Z" glyph-name="logicalnot" horiz-adv-x="576" unicode="&#172;" /><glyph d="M472 136V269H81V295H498V136Z" glyph-name="logicalnot.old" horiz-adv-x="571" /><glyph d="M434 160V267H86V291H458V160Z" glyph-name="logicalnot.sc" horiz-adv-x="532" /><glyph d="M507 186V319H116V345H533V186Z" glyph-name="logicalnot.tln" horiz-adv-x="640" /><glyph d="M508 136V269H117V295H534V136Z" glyph-name="logicalnot.ton" horiz-adv-x="640" /><glyph d="M34 23H120V464H34V487Q66 487 84.5 487.5Q103 488 113.5 489Q124 490 129 492Q134 494 138 497L150 492V377Q164 434 202 465.5Q240 497 304 497Q355 497 395 470Q435 443 445 376Q459 437 498.5 467Q538 497 600 497Q632 497 659.5 487Q687 477 707.5 455.5Q728 434 739.5 399Q751 364 751 313V23H837V0H633V23H712V306Q712 395 677 433Q642 471 586 471Q529 471 492 432Q455 393 455 302V23H534V0H337V23H416V306Q416 395 380 433Q344 471 288 471Q262 471 238.5 462Q215 453 197.5 432.5Q180 412 169.5 380Q159 348 159 302V23H238V0H34Z" glyph-name="m" horiz-adv-x="858" unicode="m" /><glyph d="M71 664H303V639H71Z" glyph-name="macron" horiz-adv-x="374" unicode="&#175;" /><glyph d="M71 803H303V778H71Z" glyph-name="macron.cap" horiz-adv-x="374" /><glyph d="M74 347H500V320H74Z" glyph-name="minus" horiz-adv-x="574" unicode="&#8722;" /><glyph d="M71 267H497V240H71Z" glyph-name="minus.old" horiz-adv-x="569" /><glyph d="M67 292H441V267H67Z" glyph-name="minus.sc" horiz-adv-x="508" /><glyph d="M107 347H533V320H107Z" glyph-name="minus.tln" horiz-adv-x="640" /><glyph d="M107 267H533V240H107Z" glyph-name="minus.ton" horiz-adv-x="640" /><glyph d="M158 -163Q158 -174 152 -183.5Q146 -193 129 -193Q112 -193 105.5 -183.5Q99 -174 99 -163Q99 -156 100 -150Q101 -144 102.5 -132Q104 -120 105.5 -98Q107 -76 108.5 -37.5Q110 1 111 60Q112 119 112 206V464H26V487Q60 487 80.5 487.5Q101 488 113 489Q125 490 131 492Q137 494 140 497L151 492V204Q151 107 189 63Q227 19 296 19Q362 19 403 64Q444 109 444 209V464H354V487Q387 487 408.5 487Q430 487 443 488Q456 489 462.5 491Q469 493 472 497L483 492V27H569V4Q540 4 521.5 3.5Q503 3 491 1.5Q479 0 473 -2.5Q467 -5 462 -10L452 -4V124Q445 96 432.5 71.5Q420 47 399.5 29Q379 11 351 0.5Q323 -10 285 -10Q230 -10 190.5 12.5Q151 35 131 83Q133 -1 137 -46Q141 -91 146 -114Q151 -137 154.5 -145Q158 -153 158 -163Z" glyph-name="mu" horiz-adv-x="594" unicode="&#181;" /><glyph d="M228 310 84 167 67 185 210 328 67 470 86 489 230 347 373 489 390 471 247 329 392 185 373 166Z" glyph-name="multiply" horiz-adv-x="460" unicode="&#215;" /><glyph d="M227 226 83 83 66 101 209 244 66 386 85 405 229 263 372 405 389 387 246 245 391 101 372 82Z" glyph-name="multiply.old" horiz-adv-x="458" /><glyph d="M197 260 86 144 71 160 182 275 72 389 88 406 199 293 309 406 324 390 214 277 327 161 310 143Z" glyph-name="multiply.sc" horiz-adv-x="397" /><glyph d="M319 310 175 167 158 185 301 328 158 470 177 489 321 347 464 489 481 471 338 329 483 185 464 166Z" glyph-name="multiply.tln" horiz-adv-x="640" /><glyph d="M319 226 175 83 158 101 301 244 158 386 177 405 321 263 464 405 481 387 338 245 483 101 464 82Z" glyph-name="multiply.ton" horiz-adv-x="640" /><glyph d="M243 0H34V23H120V464H34V487Q67 487 86 487.5Q105 488 115.5 489Q126 490 131 492Q136 494 140 497L151 492V366Q158 392 171 415.5Q184 439 204 457Q224 475 252.5 486Q281 497 318 497Q399 497 445 448.5Q491 400 491 293V23H577V0H368V23H452V293Q452 386 412 427Q372 468 306 468Q239 468 199 425Q159 382 159 285V23H243Z" glyph-name="n" horiz-adv-x="596" unicode="n" /><glyph d="M456 476Q456 520 442.5 556.5Q429 593 405 619.5Q381 646 348 661Q315 676 276 676Q235 676 201.5 660.5Q168 645 144.5 618Q121 591 108 554.5Q95 518 95 476Q95 433 108 396.5Q121 360 144.5 334.5Q168 309 201.5 294.5Q235 280 275 280Q313 280 346 294Q379 308 403.5 333.5Q428 359 442 395.5Q456 432 456 476ZM258 14Q308 14 346.5 33Q385 52 411 96Q437 140 450 213.5Q463 287 463 395Q453 358 432.5 332Q412 306 385 289Q358 272 327.5 264Q297 256 267 256Q218 256 178.5 272Q139 288 111 317.5Q83 347 68 387.5Q53 428 53 476Q53 521 68.5 561.5Q84 602 112.5 633Q141 664 182 682Q223 700 274 700Q317 700 357.5 685Q398 670 430 635.5Q462 601 481.5 545.5Q501 490 501 409Q501 300 487 220.5Q473 141 443.5 90Q414 39 368.5 14.5Q323 -10 259 -10Q216 -10 183.5 1.5Q151 13 128.5 30.5Q106 48 94.5 68.5Q83 89 83 106Q83 141 115 141Q131 141 139 132.5Q147 124 147 111Q147 88 121 78Q135 49 173.5 31.5Q212 14 258 14Z" glyph-name="nine" horiz-adv-x="563" unicode="9" /><glyph d="M311 160Q311 216 277 250.5Q243 285 192 285Q138 285 105.5 249.5Q73 214 73 160Q73 105 104 72.5Q135 40 191 40Q242 40 276.5 72Q311 104 311 160ZM178 -135Q246 -135 281.5 -80Q317 -25 317 103Q310 82 296 66Q282 50 263.5 39.5Q245 29 224.5 23.5Q204 18 183 18Q117 18 76.5 57Q36 96 36 160Q36 190 46.5 216.5Q57 243 77.5 263Q98 283 126.5 295Q155 307 191 307Q221 307 249.5 296.5Q278 286 300 263Q322 240 335.5 202.5Q349 165 349 111Q349 -23 309 -90Q269 -157 180 -157Q150 -157 127 -149.5Q104 -142 88.5 -130.5Q73 -119 65 -105Q57 -91 57 -78Q57 -51 82 -51Q106 -51 106 -75Q106 -83 101 -90Q96 -97 88 -99Q97 -116 121.5 -125.5Q146 -135 178 -135Z" glyph-name="nine.inferior" horiz-adv-x="394" /><glyph d="M445 275Q445 319 432 355.5Q419 392 395.5 418.5Q372 445 339.5 460Q307 475 268 475Q227 475 194.5 459.5Q162 444 139 417Q116 390 104 353.5Q92 317 92 275Q92 232 104.5 195.5Q117 159 139.5 133.5Q162 108 195 93.5Q228 79 268 79Q306 79 338.5 93Q371 107 394.5 132.5Q418 158 431.5 194.5Q445 231 445 275ZM250 -157Q298 -157 335.5 -141.5Q373 -126 399 -86Q425 -46 438.5 23Q452 92 452 199Q443 162 423.5 135Q404 108 379 91Q354 74 324 65.5Q294 57 264 57Q215 57 175.5 73Q136 89 108.5 117.5Q81 146 66 186.5Q51 227 51 275Q51 320 66 360.5Q81 401 108.5 431Q136 461 176 479Q216 497 267 497Q310 497 350 482.5Q390 468 420.5 434Q451 400 469.5 345Q488 290 488 209Q488 102 473.5 27.5Q459 -47 429.5 -93Q400 -139 355 -159.5Q310 -180 250 -180Q210 -180 178.5 -168.5Q147 -157 125 -140Q103 -123 92 -103Q81 -83 81 -66Q81 -51 88.5 -41.5Q96 -32 111 -32Q141 -32 141 -60Q141 -70 135.5 -78Q130 -86 116 -91Q131 -123 169.5 -140Q208 -157 250 -157Z" glyph-name="nine.old" horiz-adv-x="544" /><glyph d="M411 376Q411 447 368.5 491Q326 535 252 535Q216 535 186.5 522.5Q157 510 136 488.5Q115 467 103.5 438Q92 409 92 376Q92 342 103.5 314Q115 286 136 265.5Q157 245 186 233.5Q215 222 251 222Q285 222 314.5 232.5Q344 243 365.5 262.5Q387 282 399 311Q411 340 411 376ZM242 15Q288 15 321 31Q354 47 375 82.5Q396 118 406.5 174Q417 230 418 310Q408 280 389.5 259Q371 238 347.5 225Q324 212 297 206Q270 200 243 200Q200 200 164.5 213Q129 226 104 249.5Q79 273 65.5 305.5Q52 338 52 376Q52 412 66 445Q80 478 105.5 503Q131 528 168 543Q205 558 251 558Q290 558 327 545.5Q364 533 392 506Q420 479 437 437Q454 395 454 335Q454 244 443.5 179Q433 114 408 72.5Q383 31 343.5 11.5Q304 -8 245 -8Q205 -8 174 1Q143 10 122 24Q101 38 90 54.5Q79 71 79 86Q79 118 109 118Q123 118 130.5 110Q138 102 138 91Q138 71 114 63Q128 41 163 28Q198 15 242 15Z" glyph-name="nine.sc" horiz-adv-x="513" /><glyph d="M311 750Q311 806 277 840.5Q243 875 192 875Q138 875 105.5 839.5Q73 804 73 750Q73 695 104 662.5Q135 630 191 630Q242 630 276.5 662Q311 694 311 750ZM178 455Q246 455 281.5 510.5Q317 566 317 693Q310 672 296 656Q282 640 263.5 629.5Q245 619 224.5 613.5Q204 608 183 608Q117 608 76.5 647Q36 686 36 750Q36 780 46.5 806.5Q57 833 77.5 853Q98 873 126.5 885Q155 897 191 897Q221 897 249.5 886.5Q278 876 300 853Q322 830 335.5 792.5Q349 755 349 701Q349 567 309 500Q269 433 180 433Q150 433 127 440.5Q104 448 88.5 459.5Q73 471 65 485Q57 499 57 512Q57 539 82 539Q106 539 106 515Q106 507 101 500Q96 493 88 491Q97 474 121.5 464.5Q146 455 178 455Z" glyph-name="nine.superior" horiz-adv-x="394" /><glyph d="M494 476Q494 520 480.5 556.5Q467 593 443 619.5Q419 646 386 661Q353 676 314 676Q273 676 240 660.5Q207 645 183.5 618Q160 591 147 554.5Q134 518 134 476Q134 433 147 396.5Q160 360 183 334.5Q206 309 239.5 294.5Q273 280 313 280Q351 280 384 294Q417 308 441.5 333.5Q466 359 480 395.5Q494 432 494 476ZM296 14Q346 14 384 29.5Q422 45 447.5 87Q473 129 486 203Q499 277 499 395Q489 358 468.5 332Q448 306 422 289Q396 272 365.5 264Q335 256 305 256Q256 256 216.5 272Q177 288 149 317.5Q121 347 106 387.5Q91 428 91 476Q91 521 106.5 561.5Q122 602 150.5 633Q179 664 220 682Q261 700 312 700Q355 700 395.5 685Q436 670 468 635.5Q500 601 519.5 545.5Q539 490 539 409Q539 290 525 209.5Q511 129 481.5 80.5Q452 32 406.5 11Q361 -10 297 -10Q254 -10 221.5 1.5Q189 13 166.5 30.5Q144 48 132.5 68.5Q121 89 121 106Q121 141 154 141Q168 141 176.5 132.5Q185 124 185 111Q185 88 159 78Q173 49 212 31.5Q251 14 296 14Z" glyph-name="nine.tln" horiz-adv-x="640" /><glyph d="M494 275Q494 319 481 355.5Q468 392 444.5 418.5Q421 445 388.5 460Q356 475 317 475Q276 475 243.5 459.5Q211 444 188 417Q165 390 153 353.5Q141 317 141 275Q141 232 153.5 195.5Q166 159 188.5 133.5Q211 108 244 93.5Q277 79 317 79Q355 79 387.5 93Q420 107 443.5 132.5Q467 158 480.5 194.5Q494 231 494 275ZM299 -157Q347 -157 384.5 -141.5Q422 -126 448 -86Q474 -46 487.5 23Q501 92 501 199Q492 162 472.5 135Q453 108 428 91Q403 74 373 65.5Q343 57 313 57Q264 57 224.5 73Q185 89 157.5 117.5Q130 146 115 186.5Q100 227 100 275Q100 320 115 360.5Q130 401 157.5 431Q185 461 225 479Q265 497 316 497Q359 497 399 482.5Q439 468 469.5 434Q500 400 518.5 345Q537 290 537 209Q537 102 522.5 27.5Q508 -47 478.5 -93Q449 -139 404 -159.5Q359 -180 299 -180Q259 -180 227.5 -168.5Q196 -157 174 -140Q152 -123 141 -103Q130 -83 130 -66Q130 -51 137.5 -41.5Q145 -32 160 -32Q190 -32 190 -60Q190 -70 184.5 -78Q179 -86 165 -91Q180 -123 218.5 -140Q257 -157 299 -157Z" glyph-name="nine.ton" horiz-adv-x="640" /><glyph glyph-name="nonbreakingspace.narrow" horiz-adv-x="190" unicode="&#8239;" /><glyph glyph-name="nonmarkingreturn" horiz-adv-x="250" unicode="" /><glyph d="M243 0H34V23H120V464H34V487Q67 487 86 487.5Q105 488 115.5 489Q126 490 131 492Q136 494 140 497L151 492V366Q158 392 171 415.5Q184 439 204 457Q224 475 252.5 486Q281 497 318 497Q399 497 445 448.5Q491 400 491 293V23H577V0H368V23H452V293Q452 386 412 427Q372 468 306 468Q239 468 199 425Q159 382 159 285V23H243ZM367 622Q343 622 326.5 633.5Q310 645 296 659Q282 673 267.5 684.5Q253 696 233 696Q183 696 183 626H164Q164 671 181 699Q198 727 236 727Q261 727 278 715.5Q295 704 309 690Q323 676 337.5 664.5Q352 653 371 653Q401 653 410.5 674Q420 695 420 723H439Q439 670 421.5 646Q404 622 367 622Z" glyph-name="ntilde" horiz-adv-x="596" unicode="&#241;" /><glyph d="M447 442H239L182 229H390ZM383 203H175L121 0H93L147 203H41V229H154L211 442H80V468H218L276 690H304L246 468H453L512 690H540L481 468H589V442H475L418 229H550V203H411L357 0H329Z" glyph-name="numbersign" horiz-adv-x="631" unicode="#" /><glyph d="M402 317H237L185 179H350ZM340 154H175L117 0H89L147 154H43V179H157L209 317H82V342H218L273 487H301L246 342H411L466 487H494L439 342H549V317H430L378 179H510V154H368L310 0H282Z" glyph-name="numbersign.old" horiz-adv-x="591" /><glyph d="M403 351H219L169 185H353ZM346 160H162L115 0H88L135 160H41V185H143L193 351H76V375H200L252 550H278L226 375H410L462 550H489L436 375H532V351H429L380 185H498V160H373L325 0H298Z" glyph-name="numbersign.sc" horiz-adv-x="573" /><glyph d="M444 446H243L190 233H391ZM384 207H184L133 0H105L156 207H54V233H162L215 446H93V472H221L275 690H303L249 472H449L503 690H531L477 472H585V446H472L419 233H546V207H412L362 0H334Z" glyph-name="numbersign.tln" horiz-adv-x="640" /><glyph d="M426 317H261L209 179H374ZM364 154H199L141 0H113L171 154H67V179H181L233 317H106V342H242L297 487H325L270 342H435L490 487H518L463 342H573V317H454L402 179H534V154H392L334 0H306Z" glyph-name="numbersign.ton" horiz-adv-x="640" /><glyph d="M268 -10Q219 -10 179 9Q139 28 110.5 62Q82 96 66.5 142.5Q51 189 51 244Q51 299 66.5 345.5Q82 392 110.5 425.5Q139 459 179 478Q219 497 268 497Q317 497 357.5 478Q398 459 426.5 425.5Q455 392 470.5 345.5Q486 299 486 244Q486 189 470.5 142.5Q455 96 426.5 62Q398 28 357.5 9Q317 -10 268 -10ZM268 474Q226 474 193 456.5Q160 439 137.5 408Q115 377 103.5 335Q92 293 92 244Q92 195 103.5 153Q115 111 137.5 80Q160 49 193 31Q226 13 268 13Q310 13 343 30.5Q376 48 398.5 79Q421 110 433 152.5Q445 195 445 244Q445 293 433 335Q421 377 398.5 408Q376 439 343 456.5Q310 474 268 474Z" glyph-name="o" horiz-adv-x="537" unicode="o" /><glyph d="M268 -10Q219 -10 179 9Q139 28 110.5 62Q82 96 66.5 142.5Q51 189 51 244Q51 299 66.5 345.5Q82 392 110.5 425.5Q139 459 179 478Q219 497 268 497Q317 497 357.5 478Q398 459 426.5 425.5Q455 392 470.5 345.5Q486 299 486 244Q486 189 470.5 142.5Q455 96 426.5 62Q398 28 357.5 9Q317 -10 268 -10ZM268 474Q226 474 193 456.5Q160 439 137.5 408Q115 377 103.5 335Q92 293 92 244Q92 195 103.5 153Q115 111 137.5 80Q160 49 193 31Q226 13 268 13Q310 13 343 30.5Q376 48 398.5 79Q421 110 433 152.5Q445 195 445 244Q445 293 433 335Q421 377 398.5 408Q376 439 343 456.5Q310 474 268 474ZM252 601 322 699Q342 727 354.5 739.5Q367 752 378 752Q399 752 399 734Q399 726 386 712Q373 698 341 672L271 601Z" glyph-name="oacute" horiz-adv-x="537" unicode="&#243;" /><glyph d="M268 602 314 708Q335 761 355 761Q365 761 370.5 756Q376 751 376 743Q376 733 366.5 719Q357 705 338 680L288 602ZM268 -10Q219 -10 179 9Q139 28 110.5 62Q82 96 66.5 142.5Q51 189 51 244Q51 299 66.5 345.5Q82 392 110.5 425.5Q139 459 179 478Q219 497 268 497Q317 497 357.5 478Q398 459 426.5 425.5Q455 392 470.5 345.5Q486 299 486 244Q486 189 470.5 142.5Q455 96 426.5 62Q398 28 357.5 9Q317 -10 268 -10ZM268 474Q226 474 193 456.5Q160 439 137.5 408Q115 377 103.5 335Q92 293 92 244Q92 195 103.5 153Q115 111 137.5 80Q160 49 193 31Q226 13 268 13Q310 13 343 30.5Q376 48 398.5 79Q421 110 433 152.5Q445 195 445 244Q445 293 433 335Q421 377 398.5 408Q376 439 343 456.5Q310 474 268 474Z" glyph-name="oacute.pl" horiz-adv-x="537" /><glyph d="M133 602 262 754H276L401 602H378L269 717L156 602ZM268 -10Q219 -10 179 9Q139 28 110.5 62Q82 96 66.5 142.5Q51 189 51 244Q51 299 66.5 345.5Q82 392 110.5 425.5Q139 459 179 478Q219 497 268 497Q317 497 357.5 478Q398 459 426.5 425.5Q455 392 470.5 345.5Q486 299 486 244Q486 189 470.5 142.5Q455 96 426.5 62Q398 28 357.5 9Q317 -10 268 -10ZM268 474Q226 474 193 456.5Q160 439 137.5 408Q115 377 103.5 335Q92 293 92 244Q92 195 103.5 153Q115 111 137.5 80Q160 49 193 31Q226 13 268 13Q310 13 343 30.5Q376 48 398.5 79Q421 110 433 152.5Q445 195 445 244Q445 293 433 335Q421 377 398.5 408Q376 439 343 456.5Q310 474 268 474Z" glyph-name="ocircumflex" horiz-adv-x="537" unicode="&#244;" /><glyph d="M268 -10Q219 -10 179 9Q139 28 110.5 62Q82 96 66.5 142.5Q51 189 51 244Q51 299 66.5 345.5Q82 392 110.5 425.5Q139 459 179 478Q219 497 268 497Q317 497 357.5 478Q398 459 426.5 425.5Q455 392 470.5 345.5Q486 299 486 244Q486 189 470.5 142.5Q455 96 426.5 62Q398 28 357.5 9Q317 -10 268 -10ZM268 474Q226 474 193 456.5Q160 439 137.5 408Q115 377 103.5 335Q92 293 92 244Q92 195 103.5 153Q115 111 137.5 80Q160 49 193 31Q226 13 268 13Q310 13 343 30.5Q376 48 398.5 79Q421 110 433 152.5Q445 195 445 244Q445 293 433 335Q421 377 398.5 408Q376 439 343 456.5Q310 474 268 474ZM217 651Q217 643 210 631Q203 619 184 619Q164 619 157.5 631Q151 643 151 651Q151 659 157.5 671.5Q164 684 184 684Q203 684 210 671.5Q217 659 217 651ZM385 651Q385 643 378 631Q371 619 352 619Q332 619 325.5 631Q319 643 319 651Q319 659 325.5 671.5Q332 684 352 684Q371 684 378 671.5Q385 659 385 651Z" glyph-name="odieresis" horiz-adv-x="537" unicode="&#246;" /></font>
</defs>
</svg>
