<?xml version="1.0" standalone="no"?><!DOCTYPE svg PUBLIC "-//W3C//DTD SVG 1.1//EN" "http://www.w3.org/Graphics/SVG/1.1/DTD/svg11.dtd" ><svg version="1.1" xmlns="http://www.w3.org/2000/svg"><defs><font horiz-adv-x="0" id="font"><font-face ascent="750" bbox="-173 -281 2722 1103" cap-height="690" descent="-250" font-family="KazimirText RBC" font-stretch="normal" font-style="normal" font-weight="700" units-per-em="1000" x-height="512" /><missing-glyph d="M86 650H749V0H86ZM106 20H729V630H106ZM418 316 299 197 276 220 395 338 279 454 301 476 417 360 536 479 558 457 440 338 560 218 538 196Z" horiz-adv-x="835" /><glyph glyph-name=".null" horiz-adv-x="0" /><glyph d="M293 572 200 275H383ZM3 0V77H55L245 690H437L624 77H678V0H388V77H444L405 204H178L139 77H189V0Z" glyph-name="A" horiz-adv-x="680" unicode="A" /><glyph d="M288 542 202 275H370ZM3 0V77H55L226 613H150V690H519V613H448L613 77H666V0H377V77H431L392 204H180L139 77H189V0Z" glyph-name="A.alt" horiz-adv-x="670" /><glyph d="M256 438 183 225H325ZM4 0V72H52L190 478H130V550H475V478H419L552 72H598V0H330V72H375L347 159H160L131 72H170V0Z" glyph-name="A.alt.sc" horiz-adv-x="605" /><glyph d="M257 454 180 225H334ZM2 0V72H50L211 550H402L561 72H608V0H340V72H385L356 159H158L129 72H174V0Z" glyph-name="A.sc" horiz-adv-x="612" /><glyph d="M378 613 226 275H393V613ZM190 0H-8V77H51L292 613H224V690H872V469H782V496Q782 531 775.5 554Q769 577 754.5 590Q740 603 716 608Q692 613 657 613H575V386L743 399V300L575 313V77H665Q701 77 725 83.5Q749 90 763.5 105Q778 120 784 144Q790 168 790 203V226H880V0H327V77H393V204H194L137 77H190Z" glyph-name="AE" horiz-adv-x="928" unicode="&#198;" /><glyph d="M292 574 198 275H371ZM188 0H2V77H53L221 613H152V690H837V469H747V496Q747 531 740.5 554Q734 577 719.5 590Q705 603 681 608Q657 613 622 613H460L521 386H637V460H703V238H637V312H540L603 77H630Q667 77 691 83.5Q715 90 729.5 105Q744 120 749.5 144Q755 168 755 203V226H845V0H367V77H424L390 204H176L136 77H188Z" glyph-name="AE.alt" horiz-adv-x="892" /><glyph d="M182 225H323L258 439ZM175 0H3V72H48L191 478H130V550H759V366H673V389Q673 441 651 459.5Q629 478 567 478H421L473 312H568V369H630V186H568V243H494L547 72H571Q634 72 657 92Q680 112 680 167V188H766V0H323V72H371L344 159H158L127 72H175Z" glyph-name="AE.alt.sc" horiz-adv-x="809" /><glyph d="M345 478 223 236H354V478ZM189 0H-1V72H54L260 478H199V550H793V366H707V389Q707 441 684.5 459.5Q662 478 601 478H531V312L676 321V235L531 244V72H604Q666 72 690 92Q714 112 714 167V188H800V0H298V72H354V171H190L139 72H189Z" glyph-name="AE.sc" horiz-adv-x="843" /><glyph d="M436 778Q478 792 492.5 807Q507 822 507 839Q507 858 493 872.5Q479 887 444 887Q406 887 381.5 868Q357 849 336 821L278 740H341ZM293 572 200 275H383ZM3 0V77H55L245 690H437L624 77H678V0H388V77H444L405 204H178L139 77H189V0Z" glyph-name="Aacute" horiz-adv-x="680" unicode="&#193;" /><glyph d="M440 778Q482 792 496.5 807Q511 822 511 839Q511 858 497 872.5Q483 887 448 887Q410 887 385.5 868Q361 849 340 821L282 740H345ZM288 542 202 275H370ZM3 0V77H55L226 613H150V690H519V613H448L613 77H666V0H377V77H431L392 204H180L139 77H189V0Z" glyph-name="Aacute.alt" horiz-adv-x="670" /><glyph d="M308 591H248L298 651Q318 674 340.5 692.5Q363 711 401 711Q435 711 447.5 698Q460 685 460 668Q460 654 446.5 641Q433 628 393 616ZM256 438 183 225H325ZM4 0V72H52L190 478H130V550H475V478H419L552 72H598V0H330V72H375L347 159H160L131 72H170V0Z" glyph-name="Aacute.alt.sc" horiz-adv-x="605" /><glyph d="M304 591H244L295 651Q314 674 337.5 692.5Q361 711 397 711Q431 711 443 698Q455 685 455 668Q455 654 442 640.5Q429 627 388 616ZM257 454 180 225H334ZM2 0V72H50L211 550H402L561 72H608V0H340V72H385L356 159H158L129 72H174V0Z" glyph-name="Aacute.sc" horiz-adv-x="612" /><glyph d="M293 572 200 275H383ZM3 0V77H55L245 690H437L624 77H678V0H388V77H444L405 204H178L139 77H189V0ZM142 740 293 874H375L521 740H422L333 790L239 740Z" glyph-name="Acircumflex" horiz-adv-x="680" unicode="&#194;" /><glyph d="M139 740 290 874H372L518 740H419L330 790L236 740ZM288 542 202 275H370ZM3 0V77H55L226 613H150V690H519V613H448L613 77H666V0H377V77H431L392 204H180L139 77H189V0Z" glyph-name="Acircumflex.alt" horiz-adv-x="670" /><glyph d="M126 591 264 700H345L478 591H380L302 630L221 591ZM256 438 183 225H325ZM4 0V72H52L190 478H130V550H475V478H419L552 72H598V0H330V72H375L347 159H160L131 72H170V0Z" glyph-name="Acircumflex.alt.sc" horiz-adv-x="605" /><glyph d="M125 591 262 700H343L476 591H378L302 630L220 591ZM257 454 180 225H334ZM2 0V72H50L211 550H402L561 72H608V0H340V72H385L356 159H158L129 72H174V0Z" glyph-name="Acircumflex.sc" horiz-adv-x="612" /><glyph d="M293 572 200 275H383ZM3 0V77H55L245 690H437L624 77H678V0H388V77H444L405 204H178L139 77H189V0ZM305 815Q305 787 286 766Q267 745 232 745Q197 745 178.5 766Q160 787 160 815Q160 842 178.5 864.5Q197 887 232 887Q267 887 286 864.5Q305 842 305 815ZM506 815Q506 787 487.5 766Q469 745 434 745Q399 745 380.5 766Q362 787 362 815Q362 842 380.5 864.5Q399 887 434 887Q469 887 487.5 864.5Q506 842 506 815Z" glyph-name="Adieresis" horiz-adv-x="680" unicode="&#196;" /><glyph d="M288 542 202 275H370ZM3 0V77H55L226 613H150V690H519V613H448L613 77H666V0H377V77H431L392 204H180L139 77H189V0ZM302 815Q302 787 283 766Q264 745 229 745Q194 745 175.5 766Q157 787 157 815Q157 842 175.5 864.5Q194 887 229 887Q264 887 283 864.5Q302 842 302 815ZM503 815Q503 787 484.5 766Q466 745 431 745Q396 745 377.5 766Q359 787 359 815Q359 842 377.5 864.5Q396 887 431 887Q466 887 484.5 864.5Q503 842 503 815Z" glyph-name="Adieresis.alt" horiz-adv-x="670" /><glyph d="M277 661Q277 635 258.5 617Q240 599 208 599Q176 599 158.5 617Q141 635 141 661Q141 687 158.5 705.5Q176 724 208 724Q240 724 258.5 705.5Q277 687 277 661ZM460 661Q460 635 442 617Q424 599 392 599Q360 599 342.5 617Q325 635 325 661Q325 687 342.5 705.5Q360 724 392 724Q424 724 442 705.5Q460 687 460 661ZM256 438 183 225H325ZM4 0V72H52L190 478H130V550H475V478H419L552 72H598V0H330V72H375L347 159H160L131 72H170V0Z" glyph-name="Adieresis.alt.sc" horiz-adv-x="605" /><glyph d="M279 661Q279 635 261 617Q243 599 210 599Q179 599 161 617Q143 635 143 661Q143 687 161 705.5Q179 724 210 724Q243 724 261 705.5Q279 687 279 661ZM463 661Q463 635 445 617Q427 599 394 599Q363 599 345 617Q327 635 327 661Q327 687 345 705.5Q363 724 394 724Q427 724 445 705.5Q463 687 463 661ZM257 454 180 225H334ZM2 0V72H50L211 550H402L561 72H608V0H340V72H385L356 159H158L129 72H174V0Z" glyph-name="Adieresis.sc" horiz-adv-x="612" /><glyph d="M293 572 200 275H383ZM3 0V77H55L245 690H437L624 77H678V0H388V77H444L405 204H178L139 77H189V0ZM233 778Q191 792 176.5 807Q162 822 162 839Q162 858 176 872.5Q190 887 225 887Q263 887 287.5 868Q312 849 333 821L391 740H328Z" glyph-name="Agrave" horiz-adv-x="680" unicode="&#192;" /><glyph d="M231 778Q189 792 174.5 807Q160 822 160 839Q160 858 174 872.5Q188 887 223 887Q261 887 285.5 868Q310 849 331 821L389 740H326ZM288 542 202 275H370ZM3 0V77H55L226 613H150V690H519V613H448L613 77H666V0H377V77H431L392 204H180L139 77H189V0Z" glyph-name="Agrave.alt" horiz-adv-x="670" /><glyph d="M210 616Q169 627 155.5 640.5Q142 654 142 668Q142 685 155 698Q168 711 201 711Q239 711 261 693.5Q283 676 304 651L353 591H294ZM256 438 183 225H325ZM4 0V72H52L190 478H130V550H475V478H419L552 72H598V0H330V72H375L347 159H160L131 72H170V0Z" glyph-name="Agrave.alt.sc" horiz-adv-x="605" /><glyph d="M212 616Q171 628 157.5 641Q144 654 144 668Q144 685 156.5 698Q169 711 203 711Q240 711 263.5 692.5Q287 674 306 651L355 591H296ZM257 454 180 225H334ZM2 0V72H50L211 550H402L561 72H608V0H340V72H385L356 159H158L129 72H174V0Z" glyph-name="Agrave.sc" horiz-adv-x="612" /><glyph d="M293 572 200 275H383ZM3 0V77H55L245 690H437L624 77H678V0H388V77H444L405 204H178L139 77H189V0ZM336 728Q288 728 259 754.5Q230 781 230 823Q230 864 259 891Q288 918 336 918Q383 918 412 891Q441 864 441 823Q441 781 412 754.5Q383 728 336 728ZM336 786Q353 786 363.5 796.5Q374 807 374 823Q374 840 363.5 850Q353 860 336 860Q319 860 308 850Q297 840 297 823Q297 807 308 796.5Q319 786 336 786Z" glyph-name="Aring" horiz-adv-x="680" unicode="&#197;" /><glyph d="M288 542 202 275H370ZM3 0V77H55L226 613H150V690H519V613H448L613 77H666V0H377V77H431L392 204H180L139 77H189V0ZM336 734Q288 734 259 760.5Q230 787 230 829Q230 870 259 897Q288 924 336 924Q383 924 412 897Q441 870 441 829Q441 787 412 760.5Q383 734 336 734ZM336 792Q353 792 363.5 802.5Q374 813 374 829Q374 846 363.5 856Q353 866 336 866Q319 866 308 856Q297 846 297 829Q297 813 308 802.5Q319 792 336 792Z" glyph-name="Aring.alt" horiz-adv-x="670" /><glyph d="M303 581Q257 581 231.5 605.5Q206 630 206 664Q206 698 231.5 722.5Q257 747 303 747Q349 747 374.5 722.5Q400 698 400 664Q400 630 374.5 605.5Q349 581 303 581ZM303 633Q319 633 328 643Q337 653 337 664Q337 676 328 686Q319 696 303 696Q286 696 278 686Q270 676 270 664Q270 653 278 643Q286 633 303 633ZM256 438 183 225H325ZM4 0V72H52L190 478H130V550H475V478H419L552 72H598V0H330V72H375L347 159H160L131 72H170V0Z" glyph-name="Aring.alt.sc" horiz-adv-x="605" /><glyph d="M305 580Q260 580 234 605Q208 630 208 664Q208 697 234 722Q260 747 305 747Q351 747 377 722Q403 697 403 664Q403 630 377 605Q351 580 305 580ZM305 632Q322 632 330.5 642.5Q339 653 339 664Q339 675 330.5 685.5Q322 696 305 696Q289 696 280.5 685.5Q272 675 272 664Q272 653 280.5 642.5Q289 632 305 632ZM257 454 180 225H334ZM2 0V72H50L211 550H402L561 72H608V0H340V72H385L356 159H158L129 72H174V0Z" glyph-name="Aring.sc" horiz-adv-x="612" /><glyph d="M293 572 200 275H383ZM3 0V77H55L245 690H437L624 77H678V0H388V77H444L405 204H178L139 77H189V0ZM271 790Q251 790 241.5 778Q232 766 232 747H179Q179 811 201.5 844.5Q224 878 271 878Q293 878 310.5 871.5Q328 865 343 857Q358 849 371.5 842.5Q385 836 398 836Q418 836 426.5 848Q435 860 435 878H488Q488 815 470.5 781.5Q453 748 396 748Q375 748 358 754.5Q341 761 326 769Q311 777 297.5 783.5Q284 790 271 790Z" glyph-name="Atilde" horiz-adv-x="680" unicode="&#195;" /><glyph d="M274 790Q254 790 244.5 778Q235 766 235 747H182Q182 811 204.5 844.5Q227 878 274 878Q296 878 313.5 871.5Q331 865 346 857Q361 849 374.5 842.5Q388 836 401 836Q421 836 429.5 848Q438 860 438 878H491Q491 815 473.5 781.5Q456 748 399 748Q378 748 361 754.5Q344 761 329 769Q314 777 300.5 783.5Q287 790 274 790ZM288 542 202 275H370ZM3 0V77H55L226 613H150V690H519V613H448L613 77H666V0H377V77H431L392 204H180L139 77H189V0Z" glyph-name="Atilde.alt" horiz-adv-x="670" /><glyph d="M247 627Q230 627 221 618.5Q212 610 212 597H157Q157 708 246 708Q266 708 281.5 703.5Q297 699 310.5 693Q324 687 336 682.5Q348 678 360 678Q377 678 385 686Q393 694 393 708H448Q448 653 431 625Q414 597 358 597Q340 597 324.5 601.5Q309 606 295.5 612Q282 618 270 622.5Q258 627 247 627ZM256 438 183 225H325ZM4 0V72H52L190 478H130V550H475V478H419L552 72H598V0H330V72H375L347 159H160L131 72H170V0Z" glyph-name="Atilde.alt.sc" horiz-adv-x="605" /><glyph d="M250 627Q233 627 224 618.5Q215 610 215 597H160Q160 652 183 680Q206 708 249 708Q269 708 284.5 703.5Q300 699 313.5 693Q327 687 338.5 682.5Q350 678 362 678Q380 678 388 686Q396 694 396 708H451Q451 653 432 625Q413 597 361 597Q343 597 327.5 601.5Q312 606 298.5 612Q285 618 273 622.5Q261 627 250 627ZM257 454 180 225H334ZM2 0V72H50L211 550H402L561 72H608V0H340V72H385L356 159H158L129 72H174V0Z" glyph-name="Atilde.sc" horiz-adv-x="612" /><glyph d="M46 77H112V613H46V690H392Q446 690 493 679Q540 668 574 646.5Q608 625 627.5 593Q647 561 647 519Q647 452 600.5 410.5Q554 369 470 360Q511 355 548 343Q585 331 613 310.5Q641 290 657.5 261Q674 232 674 193Q674 99 609.5 49.5Q545 0 404 0H46ZM294 616V388H343Q399 388 433 416Q467 444 467 500Q467 557 433 586.5Q399 616 346 616ZM294 319V74H350Q413 74 451.5 104Q490 134 490 197Q490 259 449.5 289Q409 319 348 319Z" glyph-name="B" horiz-adv-x="709" unicode="B" /><glyph d="M42 72H98V478H42V550H364Q414 550 456 542Q498 534 528.5 517.5Q559 501 576 476.5Q593 452 593 420Q593 363 551.5 328.5Q510 294 430 287Q469 283 503 273.5Q537 264 562 248Q587 232 601.5 208.5Q616 185 616 153Q616 80 558.5 40Q501 0 373 0H42ZM275 481V314H314Q361 314 390 333.5Q419 353 419 398Q419 445 390 463Q361 481 310 481ZM275 249V69H328Q375 69 406.5 89Q438 109 438 159Q438 208 405 228.5Q372 249 325 249Z" glyph-name="B.sc" horiz-adv-x="647" /><glyph d="M479 40Q448 8 412.5 -1Q377 -10 332 -10Q263 -10 208.5 18Q154 46 116 94Q78 142 57.5 207Q37 272 37 345Q37 419 57.5 484Q78 549 116.5 597Q155 645 209 672.5Q263 700 329 700Q378 700 414 687Q450 674 474 653L510 699H588V454H498Q495 529 463.5 573.5Q432 618 369 618Q305 618 264.5 553Q224 488 224 345Q224 273 235 221Q246 169 265.5 136Q285 103 312 87.5Q339 72 372 72Q404 72 428 86Q452 100 468 123Q484 146 493 177Q502 208 503 241H593V-10H514Z" glyph-name="C" horiz-adv-x="641" unicode="C" /><glyph d="M425 32Q400 10 370 1Q340 -8 294 -8Q234 -8 186 13.5Q138 35 103.5 73Q69 111 50.5 162.5Q32 214 32 275Q32 337 50.5 388.5Q69 440 103.5 478Q138 516 186 537Q234 558 293 558Q337 558 369 549.5Q401 541 421 521L452 557H528V356H442Q439 414 413.5 448Q388 482 334 482Q279 482 246 431.5Q213 381 213 275Q213 165 247 116.5Q281 68 336 68Q363 68 383 78.5Q403 89 416.5 107Q430 125 437.5 148.5Q445 172 446 198H533V-8H456Z" glyph-name="C.sc" horiz-adv-x="575" /><glyph d="M355 -209Q293 -209 255 -191V-128Q266 -135 279.5 -139.5Q293 -144 310 -144Q346 -144 346 -116Q346 -98 329 -90Q312 -82 281 -82V-65L301 -8Q239 -2 190 28Q141 58 107 105.5Q73 153 55 214.5Q37 276 37 345Q37 419 57.5 484Q78 549 116.5 597Q155 645 209 672.5Q263 700 329 700Q378 700 414 687Q450 674 474 653L510 699H588V454H498Q495 529 463.5 573.5Q432 618 369 618Q305 618 264.5 553Q224 488 224 345Q224 273 235 221Q246 169 265.5 136Q285 103 312 87.5Q339 72 372 72Q404 72 428 86Q452 100 468 123Q484 146 493 177Q502 208 503 241H593V-10H514L479 40Q459 20 437.5 9.5Q416 -1 392 -6L380 -40Q420 -45 446.5 -65.5Q473 -86 473 -122Q473 -162 444 -185.5Q415 -209 355 -209Z" glyph-name="Ccedilla" horiz-adv-x="641" unicode="&#199;" /><glyph d="M319 -171Q289 -171 266 -167.5Q243 -164 225 -156V-98Q246 -111 274 -111Q305 -111 305 -90Q305 -76 289.5 -70.5Q274 -65 248 -65V-52L265 -7Q212 -2 169 21.5Q126 45 95.5 82.5Q65 120 48.5 169Q32 218 32 275Q32 337 50.5 388.5Q69 440 103.5 478Q138 516 186 537Q234 558 293 558Q337 558 369 549.5Q401 541 421 521L452 557H528V356H442Q439 414 413.5 448Q388 482 334 482Q279 482 246 431.5Q213 381 213 275Q213 165 247 116.5Q281 68 336 68Q363 68 383 78.5Q403 89 416.5 107Q430 125 437.5 148.5Q445 172 446 198H533V-8H456L425 32Q394 6 354 -3L343 -31Q379 -36 403 -52.5Q427 -69 427 -99Q427 -131 400.5 -151Q374 -171 319 -171Z" glyph-name="Ccedilla.sc" horiz-adv-x="575" /><glyph d="M46 0V77H112V613H46V690H344Q438 690 506 660.5Q574 631 617.5 582.5Q661 534 682 472.5Q703 411 703 346Q703 282 682.5 219.5Q662 157 618 108.5Q574 60 506 30Q438 0 343 0ZM294 77H344Q376 77 407 91Q438 105 462 137Q486 169 501 220Q516 271 516 346Q516 421 501 472Q486 523 462 554.5Q438 586 407 599.5Q376 613 344 613H294Z" glyph-name="D" horiz-adv-x="739" unicode="D" /><glyph d="M42 0V72H98V478H42V550H309Q398 550 460.5 527.5Q523 505 562.5 467Q602 429 620 379.5Q638 330 638 276Q638 222 620 172.5Q602 123 563 84.5Q524 46 461 23Q398 0 308 0ZM275 72H312Q342 72 368 82.5Q394 93 413.5 117Q433 141 444.5 180Q456 219 456 276Q456 332 444.5 370.5Q433 409 413.5 433Q394 457 367.5 467.5Q341 478 312 478H275Z" glyph-name="D.sc" horiz-adv-x="670" /><glyph d="M46 77H112V613H46V690H591V469H501V496Q501 531 494.5 554Q488 577 473.5 590Q459 603 435 608Q411 613 376 613H294V386L462 399V300L294 313V77H384Q420 77 444 83.5Q468 90 482.5 105Q497 120 503 144Q509 168 509 203V226H599V0H46Z" glyph-name="E" horiz-adv-x="647" unicode="E" /><glyph d="M46 0V77H112V613H46V690H591V473H501V496Q501 531 494.5 554Q488 577 473.5 590Q459 603 435 608Q411 613 376 613H294V386H390V460H457V238H390V312H294V77H384Q420 77 444 83.5Q468 90 482.5 105Q497 120 503 144Q509 168 509 203V222H599V0Z" glyph-name="E.alt" horiz-adv-x="645" /><glyph d="M42 0V72H98V478H42V550H537V368H451V389Q451 441 428.5 459.5Q406 478 345 478H275V312H352V369H414V186H352V243H275V72H348Q410 72 434 92Q458 112 458 167V187H544V0Z" glyph-name="E.alt.sc" horiz-adv-x="587" /><glyph d="M42 72H98V478H42V550H537V366H451V389Q451 441 428.5 459.5Q406 478 345 478H275V312L419 321V235L275 244V72H348Q410 72 434 92Q458 112 458 167V188H544V0H42Z" glyph-name="E.sc" horiz-adv-x="587" /><glyph d="M46 77H112V613H46V690H591V469H501V496Q501 531 494.5 554Q488 577 473.5 590Q459 603 435 608Q411 613 376 613H294V386L462 399V300L294 313V77H384Q420 77 444 83.5Q468 90 482.5 105Q497 120 503 144Q509 168 509 203V226H599V0H46ZM431 778Q473 792 487.5 807Q502 822 502 839Q502 858 488 872.5Q474 887 439 887Q401 887 376.5 868Q352 849 331 821L273 740H336Z" glyph-name="Eacute" horiz-adv-x="647" unicode="&#201;" /><glyph d="M447 778Q489 792 503.5 807Q518 822 518 839Q518 858 504 872.5Q490 887 455 887Q417 887 392.5 868Q368 849 347 821L289 740H352ZM46 0V77H112V613H46V690H591V473H501V496Q501 531 494.5 554Q488 577 473.5 590Q459 603 435 608Q411 613 376 613H294V386H390V460H457V238H390V312H294V77H384Q420 77 444 83.5Q468 90 482.5 105Q497 120 503 144Q509 168 509 203V222H599V0Z" glyph-name="Eacute.alt" horiz-adv-x="645" /><glyph d="M318 591H259L309 651Q327 674 350.5 692.5Q374 711 411 711Q445 711 457.5 698Q470 685 470 668Q470 654 457 641Q444 628 403 616ZM42 0V72H98V478H42V550H537V368H451V389Q451 441 428.5 459.5Q406 478 345 478H275V312H352V369H414V186H352V243H275V72H348Q410 72 434 92Q458 112 458 167V187H544V0Z" glyph-name="Eacute.alt.sc" horiz-adv-x="587" /><glyph d="M303 591H244L294 651Q312 674 335.5 692.5Q359 711 397 711Q430 711 442.5 698Q455 685 455 668Q455 654 441.5 641Q428 628 387 616ZM42 72H98V478H42V550H537V366H451V389Q451 441 428.5 459.5Q406 478 345 478H275V312L419 321V235L275 244V72H348Q410 72 434 92Q458 112 458 167V188H544V0H42Z" glyph-name="Eacute.sc" horiz-adv-x="587" /><glyph d="M46 77H112V613H46V690H591V469H501V496Q501 531 494.5 554Q488 577 473.5 590Q459 603 435 608Q411 613 376 613H294V386L462 399V300L294 313V77H384Q420 77 444 83.5Q468 90 482.5 105Q497 120 503 144Q509 168 509 203V226H599V0H46ZM144 740 295 874H377L523 740H424L335 790L241 740Z" glyph-name="Ecircumflex" horiz-adv-x="647" unicode="&#202;" /><glyph d="M142 740 293 874H375L521 740H422L333 790L239 740ZM46 0V77H112V613H46V690H591V473H501V496Q501 531 494.5 554Q488 577 473.5 590Q459 603 435 608Q411 613 376 613H294V386H390V460H457V238H390V312H294V77H384Q420 77 444 83.5Q468 90 482.5 105Q497 120 503 144Q509 168 509 203V222H599V0Z" glyph-name="Ecircumflex.alt" horiz-adv-x="645" /><glyph d="M126 591 263 700H344L478 591H379L303 630L221 591ZM42 0V72H98V478H42V550H537V368H451V389Q451 441 428.5 459.5Q406 478 345 478H275V312H352V369H414V186H352V243H275V72H348Q410 72 434 92Q458 112 458 167V187H544V0Z" glyph-name="Ecircumflex.alt.sc" horiz-adv-x="587" /><glyph d="M125 591 261 700H342L475 591H377L301 630L220 591ZM42 72H98V478H42V550H537V366H451V389Q451 441 428.5 459.5Q406 478 345 478H275V312L419 321V235L275 244V72H348Q410 72 434 92Q458 112 458 167V188H544V0H42Z" glyph-name="Ecircumflex.sc" horiz-adv-x="587" /><glyph d="M46 77H112V613H46V690H591V469H501V496Q501 531 494.5 554Q488 577 473.5 590Q459 603 435 608Q411 613 376 613H294V386L462 399V300L294 313V77H384Q420 77 444 83.5Q468 90 482.5 105Q497 120 503 144Q509 168 509 203V226H599V0H46ZM306 815Q306 787 287 766Q268 745 233 745Q198 745 179.5 766Q161 787 161 815Q161 842 179.5 864.5Q198 887 233 887Q268 887 287 864.5Q306 842 306 815ZM507 815Q507 787 488.5 766Q470 745 435 745Q400 745 381.5 766Q363 787 363 815Q363 842 381.5 864.5Q400 887 435 887Q470 887 488.5 864.5Q507 842 507 815Z" glyph-name="Edieresis" horiz-adv-x="647" unicode="&#203;" /><glyph d="M306 815Q306 787 287 766Q268 745 233 745Q198 745 179.5 766Q161 787 161 815Q161 842 179.5 864.5Q198 887 233 887Q268 887 287 864.5Q306 842 306 815ZM507 815Q507 787 488.5 766Q470 745 435 745Q400 745 381.5 766Q363 787 363 815Q363 842 381.5 864.5Q400 887 435 887Q470 887 488.5 864.5Q507 842 507 815ZM46 0V77H112V613H46V690H591V473H501V496Q501 531 494.5 554Q488 577 473.5 590Q459 603 435 608Q411 613 376 613H294V386H390V460H457V238H390V312H294V77H384Q420 77 444 83.5Q468 90 482.5 105Q497 120 503 144Q509 168 509 203V222H599V0Z" glyph-name="Edieresis.alt" horiz-adv-x="645" /><glyph d="M277 661Q277 635 258.5 617Q240 599 208 599Q176 599 158.5 617Q141 635 141 661Q141 687 158.5 705.5Q176 724 208 724Q240 724 258.5 705.5Q277 687 277 661ZM460 661Q460 635 442 617Q424 599 392 599Q360 599 342.5 617Q325 635 325 661Q325 687 342.5 705.5Q360 724 392 724Q424 724 442 705.5Q460 687 460 661ZM42 0V72H98V478H42V550H537V368H451V389Q451 441 428.5 459.5Q406 478 345 478H275V312H352V369H414V186H352V243H275V72H348Q410 72 434 92Q458 112 458 167V187H544V0Z" glyph-name="Edieresis.alt.sc" horiz-adv-x="587" /><glyph d="M458 661Q458 635 440.5 617Q423 599 390 599Q358 599 340.5 617Q323 635 323 661Q323 687 340.5 705.5Q358 724 390 724Q423 724 440.5 705.5Q458 687 458 661ZM275 661Q275 635 257 617Q239 599 206 599Q174 599 156.5 617Q139 635 139 661Q139 687 156.5 705.5Q174 724 206 724Q239 724 257 705.5Q275 687 275 661ZM42 72H98V478H42V550H537V366H451V389Q451 441 428.5 459.5Q406 478 345 478H275V312L419 321V235L275 244V72H348Q410 72 434 92Q458 112 458 167V188H544V0H42Z" glyph-name="Edieresis.sc" horiz-adv-x="587" /><glyph d="M46 77H112V613H46V690H591V469H501V496Q501 531 494.5 554Q488 577 473.5 590Q459 603 435 608Q411 613 376 613H294V386L462 399V300L294 313V77H384Q420 77 444 83.5Q468 90 482.5 105Q497 120 503 144Q509 168 509 203V226H599V0H46ZM244 778Q202 792 187.5 807Q173 822 173 839Q173 858 187 872.5Q201 887 236 887Q274 887 298.5 868Q323 849 344 821L402 740H339Z" glyph-name="Egrave" horiz-adv-x="647" unicode="&#200;" /><glyph d="M46 0V77H112V613H46V690H591V473H501V496Q501 531 494.5 554Q488 577 473.5 590Q459 603 435 608Q411 613 376 613H294V386H390V460H457V238H390V312H294V77H384Q420 77 444 83.5Q468 90 482.5 105Q497 120 503 144Q509 168 509 203V222H599V0ZM250 778Q208 792 193.5 807Q179 822 179 839Q179 858 193 872.5Q207 887 242 887Q280 887 304.5 868Q329 849 350 821L408 740H345Z" glyph-name="Egrave.alt" horiz-adv-x="645" /><glyph d="M229 611Q189 622 175 635Q161 648 161 662Q161 679 173.5 692Q186 705 220 705Q258 705 281 686.5Q304 668 323 645L372 586H313ZM42 0V72H98V478H42V550H537V368H451V389Q451 441 428.5 459.5Q406 478 345 478H275V312H352V369H414V186H352V243H275V72H348Q410 72 434 92Q458 112 458 167V187H544V0Z" glyph-name="Egrave.alt.sc" horiz-adv-x="587" /><glyph d="M223 616Q182 628 168.5 641Q155 654 155 668Q155 685 168 698Q181 711 214 711Q252 711 275 692.5Q298 674 317 651L367 591H308ZM42 72H98V478H42V550H537V366H451V389Q451 441 428.5 459.5Q406 478 345 478H275V312L419 321V235L275 244V72H348Q410 72 434 92Q458 112 458 167V188H544V0H42Z" glyph-name="Egrave.sc" horiz-adv-x="587" /><glyph d="M46 0V77H112V314H43V391H112V613H46V690H344Q438 690 506 660.5Q574 631 617.5 582.5Q661 534 682 472.5Q703 411 703 346Q703 282 682.5 219.5Q662 157 618 108.5Q574 60 506 30Q438 0 343 0ZM344 77Q376 77 407 91Q438 105 462 137Q486 169 501 220Q516 271 516 346Q516 421 501 472Q486 523 462 554.5Q438 586 407 599.5Q376 613 344 613H294V391H407V314H294V77Z" glyph-name="Eth" horiz-adv-x="739" unicode="&#208;" /><glyph d="M43 0V72H99V244H40V317H99V478H43V550H310Q399 550 461.5 527.5Q524 505 563.5 467Q603 429 621 379.5Q639 330 639 276Q639 222 621 172.5Q603 123 564 84.5Q525 46 462 23Q399 0 309 0ZM313 72Q343 72 369 82.5Q395 93 414.5 117Q434 141 445.5 180Q457 219 457 276Q457 332 445.5 370.5Q434 409 414.5 433Q395 457 368.5 467.5Q342 478 313 478H276V317H365V244H276V72Z" glyph-name="Eth.sc" horiz-adv-x="670" /><glyph d="M46 0V77H112V613H46V690H580V469H490V496Q490 531 483.5 554Q477 577 462.5 590Q448 603 424 608Q400 613 365 613H294V384L463 397V298L294 311V77H389V0Z" glyph-name="F" horiz-adv-x="602" unicode="F" /><glyph d="M46 0V77H112V613H46V690H585V473H495V496Q495 531 488.5 554Q482 577 467.5 590Q453 603 429 608Q405 613 370 613H294V384H390V460H457V238H390V310H294V77H389V0Z" glyph-name="F.alt" horiz-adv-x="607" /><glyph d="M42 0V72H98V478H42V550H537V368H451V389Q451 441 428.5 459.5Q406 478 344 478H275V309H352V369H414V186H352V240H275V72H356V0Z" glyph-name="F.alt.sc" horiz-adv-x="556" /><glyph d="M42 0V72H98V478H42V550H527V366H441V389Q441 441 419 459.5Q397 478 335 478H275V309L420 317V232L275 241V72H356V0Z" glyph-name="F.sc" horiz-adv-x="547" /><glyph d="M507 34Q484 14 444.5 2Q405 -10 356 -10Q275 -10 215 19Q155 48 115.5 96.5Q76 145 56.5 209.5Q37 274 37 345Q37 415 58.5 479.5Q80 544 119 593Q158 642 213.5 671Q269 700 338 700Q381 700 418 691Q455 682 486 653L522 699H600V450H511Q507 528 475.5 573Q444 618 378 618Q345 618 317 602Q289 586 268.5 552Q248 518 236 467Q224 416 224 345Q224 270 236 218Q248 166 269.5 133.5Q291 101 319.5 86.5Q348 72 381 72Q402 72 423.5 76Q445 80 457 91V252H388V329H659V252H604V-10H544Z" glyph-name="G" horiz-adv-x="684" unicode="G" /><glyph d="M452 29Q429 10 396 1Q363 -8 315 -8Q243 -8 190 15Q137 38 102 77Q67 116 49.5 167Q32 218 32 275Q32 331 51 382.5Q70 434 105.5 473Q141 512 191 535Q241 558 303 558Q351 558 382.5 548.5Q414 539 432 522L463 557H538V356H453Q451 416 424 449Q397 482 343 482Q286 482 249.5 430.5Q213 379 213 275Q213 217 223 177.5Q233 138 251 113.5Q269 89 293.5 78.5Q318 68 347 68Q364 68 380.5 71Q397 74 408 81V182H351V255H588V182H542V-8H485Z" glyph-name="G.sc" horiz-adv-x="611" /><glyph d="M46 77H112V613H46V690H353V613H294V391H518V613H459V690H766V613H700V77H766V0H459V77H518V314H294V77H353V0H46Z" glyph-name="H" horiz-adv-x="812" unicode="H" /><glyph d="M42 72H98V478H42V550H324V478H275V317H458V478H409V550H691V478H635V72H691V0H409V72H458V245H275V72H324V0H42Z" glyph-name="H.sc" horiz-adv-x="733" /><glyph d="M46 0V77H112V613H46V690H359V613H294V77H359V0Z" glyph-name="I" horiz-adv-x="405" unicode="I" /><glyph d="M42 0V72H98V478H42V550H331V478H275V72H331V0Z" glyph-name="I.sc" horiz-adv-x="372" /><glyph d="M298 778Q340 792 354.5 807Q369 822 369 839Q369 858 355 872.5Q341 887 306 887Q268 887 243.5 868Q219 849 198 821L140 740H203ZM46 0V77H112V613H46V690H359V613H294V77H359V0Z" glyph-name="Iacute" horiz-adv-x="405" unicode="&#205;" /><glyph d="M185 591H126L176 651Q194 674 217.5 692.5Q241 711 278 711Q312 711 324.5 698Q337 685 337 668Q337 654 324 641Q311 628 270 616ZM42 0V72H98V478H42V550H331V478H275V72H331V0Z" glyph-name="Iacute.sc" horiz-adv-x="372" /><glyph d="M315 778Q357 792 371.5 807Q386 822 386 839Q386 858 372 872.5Q358 887 323 887Q285 887 260.5 868Q236 849 215 821L157 740H220ZM802 778Q844 792 858.5 807Q873 822 873 839Q873 858 859 872.5Q845 887 810 887Q772 887 747.5 868Q723 849 702 821L644 740H707ZM46 0V77H112V613H46V690H359V613H294V77H359V0ZM797 230Q797 103 742.5 46.5Q688 -10 581 -10Q535 -10 498.5 1.5Q462 13 436 33Q410 53 396 80Q382 107 382 138Q382 180 405.5 203.5Q429 227 467 227Q503 227 525 205.5Q547 184 547 150Q547 96 506 82Q508 76 519.5 71Q531 66 554 66Q592 66 603.5 87.5Q615 109 615 154V613H545V690H862V613H797Z" glyph-name="Iacute_Jacute" horiz-adv-x="894" /><glyph d="M648 591H589L638 651Q657 674 680 692.5Q703 711 741 711Q775 711 787.5 698Q800 685 800 671Q800 655 785.5 641Q771 627 719 614ZM206 591H146L196 651Q215 674 238.5 692.5Q262 711 298 711Q332 711 344.5 699.5Q357 688 357 671Q357 664 354.5 656.5Q352 649 344 642Q336 635 321 628Q306 621 280 615ZM42 0V72H98V478H42V550H331V478H275V72H331V0ZM734 185Q734 82 680.5 37Q627 -8 529 -8Q493 -8 460.5 0.5Q428 9 404 24.5Q380 40 366 63.5Q352 87 352 117Q352 153 374.5 173.5Q397 194 432 194Q467 194 488 176.5Q509 159 509 127Q509 107 500.5 93.5Q492 80 484 75Q491 64 516 64Q538 64 547.5 81.5Q557 99 557 147V478H498V550H790V478H734Z" glyph-name="Iacute_Jacute.sc" horiz-adv-x="819" /><glyph d="M10 740 161 874H243L389 740H290L201 790L107 740ZM46 0V77H112V613H46V690H359V613H294V77H359V0Z" glyph-name="Icircumflex" horiz-adv-x="405" unicode="&#206;" /><glyph d="M10 591 148 700H229L362 591H264L187 630L105 591ZM42 0V72H98V478H42V550H331V478H275V72H331V0Z" glyph-name="Icircumflex.sc" horiz-adv-x="372" /><glyph d="M174 815Q174 787 155 766Q136 745 101 745Q66 745 47.5 766Q29 787 29 815Q29 842 47.5 864.5Q66 887 101 887Q136 887 155 864.5Q174 842 174 815ZM375 815Q375 787 356.5 766Q338 745 303 745Q268 745 249.5 766Q231 787 231 815Q231 842 249.5 864.5Q268 887 303 887Q338 887 356.5 864.5Q375 842 375 815ZM46 0V77H112V613H46V690H359V613H294V77H359V0Z" glyph-name="Idieresis" horiz-adv-x="405" unicode="&#207;" /><glyph d="M165 661Q165 635 147 617Q129 599 97 599Q65 599 47 617Q29 635 29 661Q29 687 47 705.5Q65 724 97 724Q129 724 147 705.5Q165 687 165 661ZM343 661Q343 635 325 617Q307 599 275 599Q243 599 225 617Q207 635 207 661Q207 687 225 705.5Q243 724 275 724Q307 724 325 705.5Q343 687 343 661ZM42 0V72H98V478H42V550H331V478H275V72H331V0Z" glyph-name="Idieresis.sc" horiz-adv-x="372" /><glyph d="M46 0V77H112V613H46V690H359V613H294V77H359V0ZM111 778Q69 792 54.5 807Q40 822 40 839Q40 858 54 872.5Q68 887 103 887Q141 887 165.5 868Q190 849 211 821L269 740H206Z" glyph-name="Igrave" horiz-adv-x="405" unicode="&#204;" /><glyph d="M107 616Q66 628 52.5 641Q39 654 39 668Q39 685 51.5 698Q64 711 98 711Q135 711 158.5 692.5Q182 674 201 651L250 591H191ZM42 0V72H98V478H42V550H331V478H275V72H331V0Z" glyph-name="Igrave.sc" horiz-adv-x="372" /><glyph d="M440 239Q440 108 383.5 49Q327 -10 211 -10Q161 -10 123 2Q85 14 59 34.5Q33 55 20 82Q7 109 7 138Q7 180 31 203.5Q55 227 93 227Q130 227 151.5 205.5Q173 184 173 152Q173 122 157.5 107Q142 92 122 87Q127 79 141.5 72.5Q156 66 182 66Q227 66 242.5 92.5Q258 119 258 170V613H189V690H506V613H440Z" glyph-name="J" horiz-adv-x="538" unicode="J" /><glyph d="M409 185Q409 82 355.5 37Q302 -8 204 -8Q164 -8 128 0.5Q92 9 65 24.5Q38 40 22.5 63.5Q7 87 7 117Q7 153 29.5 173.5Q52 194 87 194Q122 194 143 176.5Q164 159 164 127Q164 107 155.5 93.5Q147 80 139 75Q144 72 154 68Q164 64 181 64Q208 64 220 81.5Q232 99 232 147V478H173V550H465V478H409Z" glyph-name="J.sc" horiz-adv-x="495" /><glyph d="M46 0V77H112V613H46V690H351V613H294V352L531 613H466V690H708V613H638L478 438L701 77H742V0H450V77H499L359 306L294 235V77H351V0Z" glyph-name="K" horiz-adv-x="743" unicode="K" /><glyph d="M294 333 584 613H294ZM46 0V77H112V613H46V690H695V613L482 408L706 77H747V0H455V77H500L358 287L294 226V77H351V0Z" glyph-name="K.alt" horiz-adv-x="747" /><glyph d="M275 274 524 478H275ZM42 0V72H98V478H42V550H640V478L457 328L641 72H679V0H407V72H443L330 223L275 178V72H322V0Z" glyph-name="K.alt.sc" horiz-adv-x="683" /><glyph d="M42 0V72H98V478H42V550H322V478H275V283L476 478H423V550H645V478H581L444 346L638 72H677V0H403V72H442L328 233L275 182V72H322V0Z" glyph-name="K.sc" horiz-adv-x="681" /><glyph d="M46 77H112V613H46V690H367V613H294V77H389Q443 77 468.5 105Q494 133 494 209V232H584V0H46Z" glyph-name="L" horiz-adv-x="607" unicode="L" /><glyph d="M42 72H98V478H42V550H338V478H275V72H356Q399 72 422 92.5Q445 113 445 174V195H531V0H42Z" glyph-name="L.sc" horiz-adv-x="553" /><glyph d="M265 0H46V77H112V613H46V690H332L462 326L592 690H879V613H814V77H879V0H569V77H632V561L465 91H371L203 562V77H265Z" glyph-name="M" horiz-adv-x="926" unicode="M" /><glyph d="M265 0H46V77H112V613H46V690H373V613H311L464 287L615 613H555V690H879V613H814V77H879V0H569V77H632V451L465 91H371L203 448V77H265Z" glyph-name="M.alt" horiz-adv-x="926" /><glyph d="M236 0H42V72H98V478H42V550H342V478H290L417 257L541 478H492V550H790V478H734V72H790V0H504V72H557V335L410 73H332L184 332V72H236Z" glyph-name="M.alt.sc" horiz-adv-x="832" /><glyph d="M236 0H42V72H98V478H42V550H306L415 275L524 550H790V478H734V72H790V0H504V72H557V430L416 73H326L184 430V72H236Z" glyph-name="M.sc" horiz-adv-x="832" /><glyph d="M545 -5 203 461V77H268V0H46V77H112V613H46V690H229L540 267V613H474V690H696V613H631V-5Z" glyph-name="N" horiz-adv-x="732" unicode="N" /><glyph d="M268 0H46V77H112V613H46V690H229L534 371V613H468V690H690V613H625V77H690V0H468V77H534V148L203 493V77H268Z" glyph-name="N.alt" horiz-adv-x="737" /><glyph d="M239 0H42V72H98V478H42V550H207L474 321V478H418V550H616V478H560V72H616V0H418V72H474V115L184 363V72H239Z" glyph-name="N.alt.sc" horiz-adv-x="658" /><glyph d="M239 0H42V72H98V478H42V550H207L481 234V478H424V550H622V478H566V-4H484L184 341V72H239Z" glyph-name="N.sc" horiz-adv-x="655" /><glyph d="M545 -5 203 461V77H268V0H46V77H112V613H46V690H229L540 267V613H474V690H696V613H631V-5ZM317 790Q297 790 287.5 778Q278 766 278 747H225Q225 811 247.5 844.5Q270 878 317 878Q339 878 356.5 871.5Q374 865 389 857Q404 849 417.5 842.5Q431 836 444 836Q464 836 472.5 848Q481 860 481 878H534Q534 815 516.5 781.5Q499 748 442 748Q421 748 404 754.5Q387 761 372 769Q357 777 343.5 783.5Q330 790 317 790Z" glyph-name="Ntilde" horiz-adv-x="732" unicode="&#209;" /><glyph d="M449 736Q425 736 404.5 745Q384 754 366 765Q348 776 332 785Q316 794 301 794Q280 794 271.5 779.5Q263 765 263 740H202Q202 809 225 848.5Q248 888 302 888Q327 888 348 879Q369 870 387 858.5Q405 847 421.5 838Q438 829 453 829Q472 829 480 843.5Q488 858 488 884H549Q549 850 545 822.5Q541 795 530 775.5Q519 756 499.5 746Q480 736 449 736ZM268 0H46V77H112V613H46V690H229L534 371V613H468V690H690V613H625V77H690V0H468V77H534V148L203 493V77H268Z" glyph-name="Ntilde.alt" horiz-adv-x="737" /><glyph d="M264 627Q246 627 237.5 618Q229 609 229 595H173Q173 710 263 710Q283 710 299.5 704.5Q316 699 329.5 693Q343 687 355.5 681.5Q368 676 380 676Q397 676 405 685Q413 694 413 708H469Q469 652 452 623Q435 594 379 594Q360 594 344 599Q328 604 314 610.5Q300 617 288 622Q276 627 264 627ZM239 0H42V72H98V478H42V550H207L474 321V478H418V550H616V478H560V72H616V0H418V72H474V115L184 363V72H239Z" glyph-name="Ntilde.alt.sc" horiz-adv-x="658" /><glyph d="M284 627Q267 627 258.5 618.5Q250 610 250 597H194Q194 652 218 680Q242 708 284 708Q304 708 319.5 703.5Q335 699 348 693Q361 687 373 682.5Q385 678 397 678Q414 678 422 686Q430 694 430 708H485Q485 653 466.5 625Q448 597 396 597Q378 597 362.5 601.5Q347 606 333.5 612Q320 618 307.5 622.5Q295 627 284 627ZM239 0H42V72H98V478H42V550H207L481 234V478H424V550H622V478H566V-4H484L184 341V72H239Z" glyph-name="Ntilde.sc" horiz-adv-x="655" /><glyph d="M681 345Q681 281 662 217Q643 153 603.5 103Q564 53 503 21.5Q442 -10 359 -10Q276 -10 215 21.5Q154 53 114.5 103Q75 153 56 217Q37 281 37 345Q37 410 56 473.5Q75 537 114.5 587Q154 637 215 668.5Q276 700 359 700Q442 700 503 668.5Q564 637 603.5 587Q643 537 662 473.5Q681 410 681 345ZM224 345Q224 202 261 137Q298 72 359 72Q418 72 456 137Q494 202 494 345Q494 488 456 553Q418 618 359 618Q298 618 261 553Q224 488 224 345Z" glyph-name="O" horiz-adv-x="718" unicode="O" /><glyph d="M614 275Q614 224 597 173Q580 122 544 82Q508 42 453 17Q398 -8 323 -8Q248 -8 193 17Q138 42 102 82Q66 122 49 173Q32 224 32 275Q32 326 49 377Q66 428 102 468Q138 508 193 533Q248 558 323 558Q398 558 453 533Q508 508 544 468Q580 428 597 377Q614 326 614 275ZM214 275Q214 167 243 117.5Q272 68 323 68Q374 68 403 117.5Q432 167 432 275Q432 382 403 432Q374 482 323 482Q272 482 243 432Q214 382 214 275Z" glyph-name="O.sc" horiz-adv-x="646" /><glyph d="M681 345Q681 281 662 217Q643 153 603.5 103Q564 53 503 21.5Q442 -10 359 -10Q276 -10 215 21.5Q154 53 114.5 103Q75 153 56 217Q37 281 37 345Q37 410 56 473.5Q75 537 114.5 587Q154 637 215 668.5Q276 700 359 700Q442 700 503 668.5Q564 637 603.5 587Q643 537 662 473.5Q681 410 681 345ZM224 345Q224 202 261 137Q298 72 359 72Q418 72 456 137Q494 202 494 345Q494 488 456 553Q418 618 359 618Q298 618 261 553Q224 488 224 345ZM471 778Q513 792 527.5 807Q542 822 542 839Q542 858 528 872.5Q514 887 479 887Q441 887 416.5 868Q392 849 371 821L313 740H376Z" glyph-name="Oacute" horiz-adv-x="718" unicode="&#211;" /><glyph d="M681 345Q681 281 662 217Q643 153 603.5 103Q564 53 503 21.5Q442 -10 359 -10Q276 -10 215 21.5Q154 53 114.5 103Q75 153 56 217Q37 281 37 345Q37 410 56 473.5Q75 537 114.5 587Q154 637 215 668.5Q276 700 359 700Q442 700 503 668.5Q564 637 603.5 587Q643 537 662 473.5Q681 410 681 345ZM224 345Q224 202 261 137Q298 72 359 72Q418 72 456 137Q494 202 494 345Q494 488 456 553Q418 618 359 618Q298 618 261 553Q224 488 224 345ZM328 740 349 827Q359 865 376.5 887Q394 909 426 909Q453 909 466 896Q479 883 479 864Q479 845 468.5 826Q458 807 440 791L392 740Z" glyph-name="Oacute.pl" horiz-adv-x="718" /><glyph d="M293 591 309 648Q320 691 337 709Q354 727 384 727Q410 727 421.5 716Q433 705 433 688Q433 669 419.5 653Q406 637 387 623L353 591ZM614 275Q614 224 597 173Q580 122 544 82Q508 42 453 17Q398 -8 323 -8Q248 -8 193 17Q138 42 102 82Q66 122 49 173Q32 224 32 275Q32 326 49 377Q66 428 102 468Q138 508 193 533Q248 558 323 558Q398 558 453 533Q508 508 544 468Q580 428 597 377Q614 326 614 275ZM214 275Q214 167 243 117.5Q272 68 323 68Q374 68 403 117.5Q432 167 432 275Q432 382 403 432Q374 482 323 482Q272 482 243 432Q214 382 214 275Z" glyph-name="Oacute.pl.sc" horiz-adv-x="646" /><glyph d="M334 591H275L325 651Q343 674 366.5 692.5Q390 711 427 711Q461 711 473.5 698Q486 685 486 668Q486 654 472.5 641Q459 628 418 616ZM614 275Q614 224 597 173Q580 122 544 82Q508 42 453 17Q398 -8 323 -8Q248 -8 193 17Q138 42 102 82Q66 122 49 173Q32 224 32 275Q32 326 49 377Q66 428 102 468Q138 508 193 533Q248 558 323 558Q398 558 453 533Q508 508 544 468Q580 428 597 377Q614 326 614 275ZM214 275Q214 167 243 117.5Q272 68 323 68Q374 68 403 117.5Q432 167 432 275Q432 382 403 432Q374 482 323 482Q272 482 243 432Q214 382 214 275Z" glyph-name="Oacute.sc" horiz-adv-x="646" /><glyph d="M681 345Q681 281 662 217Q643 153 603.5 103Q564 53 503 21.5Q442 -10 359 -10Q276 -10 215 21.5Q154 53 114.5 103Q75 153 56 217Q37 281 37 345Q37 410 56 473.5Q75 537 114.5 587Q154 637 215 668.5Q276 700 359 700Q442 700 503 668.5Q564 637 603.5 587Q643 537 662 473.5Q681 410 681 345ZM224 345Q224 202 261 137Q298 72 359 72Q418 72 456 137Q494 202 494 345Q494 488 456 553Q418 618 359 618Q298 618 261 553Q224 488 224 345ZM167 740 318 874H400L546 740H447L358 790L264 740Z" glyph-name="Ocircumflex" horiz-adv-x="718" unicode="&#212;" /><glyph d="M145 591 283 700H364L497 591H399L322 630L241 591ZM614 275Q614 224 597 173Q580 122 544 82Q508 42 453 17Q398 -8 323 -8Q248 -8 193 17Q138 42 102 82Q66 122 49 173Q32 224 32 275Q32 326 49 377Q66 428 102 468Q138 508 193 533Q248 558 323 558Q398 558 453 533Q508 508 544 468Q580 428 597 377Q614 326 614 275ZM214 275Q214 167 243 117.5Q272 68 323 68Q374 68 403 117.5Q432 167 432 275Q432 382 403 432Q374 482 323 482Q272 482 243 432Q214 382 214 275Z" glyph-name="Ocircumflex.sc" horiz-adv-x="646" /><glyph d="M681 345Q681 281 662 217Q643 153 603.5 103Q564 53 503 21.5Q442 -10 359 -10Q276 -10 215 21.5Q154 53 114.5 103Q75 153 56 217Q37 281 37 345Q37 410 56 473.5Q75 537 114.5 587Q154 637 215 668.5Q276 700 359 700Q442 700 503 668.5Q564 637 603.5 587Q643 537 662 473.5Q681 410 681 345ZM224 345Q224 202 261 137Q298 72 359 72Q418 72 456 137Q494 202 494 345Q494 488 456 553Q418 618 359 618Q298 618 261 553Q224 488 224 345ZM331 815Q331 787 312 766Q293 745 258 745Q223 745 204.5 766Q186 787 186 815Q186 842 204.5 864.5Q223 887 258 887Q293 887 312 864.5Q331 842 331 815ZM532 815Q532 787 513.5 766Q495 745 460 745Q425 745 406.5 766Q388 787 388 815Q388 842 406.5 864.5Q425 887 460 887Q495 887 513.5 864.5Q532 842 532 815Z" glyph-name="Odieresis" horiz-adv-x="718" unicode="&#214;" /><glyph d="M300 661Q300 635 282.5 617Q265 599 232 599Q200 599 182.5 617Q165 635 165 661Q165 687 182.5 705.5Q200 724 232 724Q265 724 282.5 705.5Q300 687 300 661ZM484 661Q484 635 466.5 617Q449 599 416 599Q385 599 367 617Q349 635 349 661Q349 687 367 705.5Q385 724 416 724Q449 724 466.5 705.5Q484 687 484 661ZM614 275Q614 224 597 173Q580 122 544 82Q508 42 453 17Q398 -8 323 -8Q248 -8 193 17Q138 42 102 82Q66 122 49 173Q32 224 32 275Q32 326 49 377Q66 428 102 468Q138 508 193 533Q248 558 323 558Q398 558 453 533Q508 508 544 468Q580 428 597 377Q614 326 614 275ZM214 275Q214 167 243 117.5Q272 68 323 68Q374 68 403 117.5Q432 167 432 275Q432 382 403 432Q374 482 323 482Q272 482 243 432Q214 382 214 275Z" glyph-name="Odieresis.sc" horiz-adv-x="646" /><glyph d="M681 345Q681 281 662 217Q643 153 603.5 103Q564 53 503 21.5Q442 -10 359 -10Q276 -10 215 21.5Q154 53 114.5 103Q75 153 56 217Q37 281 37 345Q37 410 56 473.5Q75 537 114.5 587Q154 637 215 668.5Q276 700 359 700Q442 700 503 668.5Q564 637 603.5 587Q643 537 662 473.5Q681 410 681 345ZM224 345Q224 202 261 137Q298 72 359 72Q418 72 456 137Q494 202 494 345Q494 488 456 553Q418 618 359 618Q298 618 261 553Q224 488 224 345ZM246 778Q204 792 189.5 807Q175 822 175 839Q175 858 189 872.5Q203 887 238 887Q276 887 300.5 868Q325 849 346 821L404 740H341Z" glyph-name="Ograve" horiz-adv-x="718" unicode="&#210;" /><glyph d="M225 616Q184 628 170 641Q156 654 156 668Q156 685 169.5 698Q183 711 216 711Q253 711 276.5 692.5Q300 674 318 651L369 591H308ZM614 275Q614 224 597 173Q580 122 544 82Q508 42 453 17Q398 -8 323 -8Q248 -8 193 17Q138 42 102 82Q66 122 49 173Q32 224 32 275Q32 326 49 377Q66 428 102 468Q138 508 193 533Q248 558 323 558Q398 558 453 533Q508 508 544 468Q580 428 597 377Q614 326 614 275ZM214 275Q214 167 243 117.5Q272 68 323 68Q374 68 403 117.5Q432 167 432 275Q432 382 403 432Q374 482 323 482Q272 482 243 432Q214 382 214 275Z" glyph-name="Ograve.sc" horiz-adv-x="646" /><glyph d="M226 345Q226 312 228 283Q230 254 234 230L463 543Q445 581 419 599.5Q393 618 361 618Q300 618 263 553Q226 488 226 345ZM361 72Q420 72 458 137Q496 202 496 345Q496 413 487 462L258 148Q275 109 301.5 90.5Q328 72 361 72ZM361 -10Q306 -10 261 4Q216 18 181 42L122 -38H39L130 87Q83 139 61 207Q39 275 39 345Q39 410 58 473.5Q77 537 116.5 587Q156 637 217 668.5Q278 700 361 700Q415 700 460 686.5Q505 673 540 648L599 729H682L591 604Q638 552 660.5 484Q683 416 683 345Q683 281 664 217Q645 153 605.5 103Q566 53 505 21.5Q444 -10 361 -10Z" glyph-name="Oslash" horiz-adv-x="721" unicode="&#216;" /><glyph d="M215 275Q215 252 216.5 232.5Q218 213 220 196L408 424Q380 482 324 482Q273 482 244 432Q215 382 215 275ZM324 68Q375 68 404 117.5Q433 167 433 275Q433 298 431.5 317.5Q430 337 428 354L240 126Q268 68 324 68ZM324 -8Q275 -8 235 2.5Q195 13 163 33L111 -30H34L116 69Q73 111 53 165Q33 219 33 275Q33 326 50 377Q67 428 103 468Q139 508 194 533Q249 558 324 558Q373 558 413 547.5Q453 537 485 518L537 581H615L532 481Q575 439 595 385Q615 331 615 275Q615 224 598 173Q581 122 545 82Q509 42 454 17Q399 -8 324 -8Z" glyph-name="Oslash.sc" horiz-adv-x="648" /><glyph d="M681 345Q681 281 662 217Q643 153 603.5 103Q564 53 503 21.5Q442 -10 359 -10Q276 -10 215 21.5Q154 53 114.5 103Q75 153 56 217Q37 281 37 345Q37 410 56 473.5Q75 537 114.5 587Q154 637 215 668.5Q276 700 359 700Q442 700 503 668.5Q564 637 603.5 587Q643 537 662 473.5Q681 410 681 345ZM224 345Q224 202 261 137Q298 72 359 72Q418 72 456 137Q494 202 494 345Q494 488 456 553Q418 618 359 618Q298 618 261 553Q224 488 224 345ZM297 790Q277 790 267.5 778Q258 766 258 747H205Q205 811 227.5 844.5Q250 878 297 878Q319 878 336.5 871.5Q354 865 369 857Q384 849 397.5 842.5Q411 836 424 836Q444 836 452.5 848Q461 860 461 878H514Q514 815 496.5 781.5Q479 748 422 748Q401 748 384 754.5Q367 761 352 769Q337 777 323.5 783.5Q310 790 297 790Z" glyph-name="Otilde" horiz-adv-x="718" unicode="&#213;" /><glyph d="M269 627Q251 627 242.5 618.5Q234 610 234 597H179Q179 652 202 680Q225 708 267 708Q287 708 302.5 703.5Q318 699 331.5 693Q345 687 356.5 682.5Q368 678 380 678Q397 678 405 686Q413 694 413 708H469Q469 653 450.5 625Q432 597 380 597Q362 597 346.5 601.5Q331 606 317.5 612Q304 618 292 622.5Q280 627 269 627ZM614 275Q614 224 597 173Q580 122 544 82Q508 42 453 17Q398 -8 323 -8Q248 -8 193 17Q138 42 102 82Q66 122 49 173Q32 224 32 275Q32 326 49 377Q66 428 102 468Q138 508 193 533Q248 558 323 558Q398 558 453 533Q508 508 544 468Q580 428 597 377Q614 326 614 275ZM214 275Q214 167 243 117.5Q272 68 323 68Q374 68 403 117.5Q432 167 432 275Q432 382 403 432Q374 482 323 482Q272 482 243 432Q214 382 214 275Z" glyph-name="Otilde.sc" horiz-adv-x="646" /><glyph d="M46 77H112V613H46V690H338Q419 690 478 674Q537 658 575.5 629.5Q614 601 632.5 563Q651 525 651 480Q651 435 631.5 395.5Q612 356 573.5 326.5Q535 297 478 280Q421 263 346 263H294V77H369V0H46ZM294 613V340H334Q464 340 464 481Q464 545 430.5 579Q397 613 333 613Z" glyph-name="P" horiz-adv-x="665" unicode="P" /><glyph d="M42 72H98V478H42V550H311Q385 550 438.5 536.5Q492 523 527 499.5Q562 476 579 444.5Q596 413 596 378Q596 341 578 308.5Q560 276 525 252Q490 228 438.5 214Q387 200 319 200H275V72H340V0H42ZM275 478V273H309Q361 273 387.5 297.5Q414 322 414 378Q414 478 308 478Z" glyph-name="P.sc" horiz-adv-x="608" /><glyph d="M549 -111Q443 -111 404 -7Q383 -10 359 -10Q276 -10 215 21.5Q154 53 114.5 103Q75 153 56 217Q37 281 37 345Q37 410 56 473.5Q75 537 114.5 587Q154 637 215 668.5Q276 700 359 700Q442 700 503 668.5Q564 637 603.5 587Q643 537 662 473.5Q681 410 681 345Q681 298 671 251Q661 204 640 162Q619 120 587.5 84.5Q556 49 513 26Q524 -7 534 -20.5Q544 -34 561 -34Q579 -34 589 -17Q599 0 599 52H667Q667 19 661.5 -10.5Q656 -40 642.5 -62.5Q629 -85 606.5 -98Q584 -111 549 -111ZM347 251Q390 251 419 233Q448 215 470 168Q481 200 487.5 244Q494 288 494 345Q494 488 456 553Q418 618 359 618Q298 618 261 553Q224 488 224 345Q224 249 242 187Q256 214 281.5 232.5Q307 251 347 251ZM359 72Q372 72 384 75Q372 133 359.5 155Q347 177 318 177Q301 177 289 162.5Q277 148 272 119Q306 72 359 72Z" glyph-name="Q" horiz-adv-x="718" unicode="Q" /><glyph d="M513 -127Q407 -127 385 -9Q378 -10 372 -10Q366 -10 359 -10Q276 -10 215 21.5Q154 53 114.5 103Q75 153 56 217Q37 281 37 345Q37 410 56 473.5Q75 537 114.5 587Q154 637 215 668.5Q276 700 359 700Q442 700 503 668.5Q564 637 603.5 587Q643 537 662 473.5Q681 410 681 345Q681 295 669.5 245.5Q658 196 635 152Q612 108 576 72.5Q540 37 492 16Q497 -22 505.5 -36Q514 -50 529 -50Q549 -50 559 -29.5Q569 -9 569 48H635Q635 12 629.5 -19.5Q624 -51 610.5 -75Q597 -99 573 -113Q549 -127 513 -127ZM351 296Q408 296 435 267Q462 238 474 179Q494 244 494 345Q494 488 456 553Q418 618 359 618Q298 618 261 553Q224 488 224 345Q224 262 238 203Q247 246 276 271Q305 296 351 296ZM359 72Q364 72 368 72.5Q372 73 377 74Q372 154 363.5 188Q355 222 326 222Q305 222 295 203Q285 184 285 161Q285 119 305 95.5Q325 72 359 72Z" glyph-name="Q.alt" horiz-adv-x="718" /><glyph d="M461 -94Q377 -94 352 -7Q345 -8 338 -8Q331 -8 323 -8Q248 -8 193 17Q138 42 102 82Q66 122 49 173Q32 224 32 275Q32 326 49 377Q66 428 102 468Q138 508 193 533Q248 558 323 558Q398 558 453 533Q508 508 544 468Q580 428 597 377Q614 326 614 275Q614 235 603.5 195.5Q593 156 572 120.5Q551 85 518.5 57Q486 29 442 12Q447 -10 455 -16.5Q463 -23 474 -23Q492 -23 500 -8Q508 7 508 46H567Q567 18 562 -7Q557 -32 545 -51.5Q533 -71 512.5 -82.5Q492 -94 461 -94ZM318 249Q365 249 387 225.5Q409 202 420 162Q432 207 432 275Q432 382 403 432Q374 482 323 482Q272 482 243 432Q214 382 214 275Q214 213 224 173Q240 249 318 249ZM323 68Q328 68 332 68.5Q336 69 341 70Q335 132 327.5 157.5Q320 183 295 183Q278 183 271 168Q264 153 264 136Q264 104 282 86Q300 68 323 68Z" glyph-name="Q.alt.sc" horiz-adv-x="646" /><glyph d="M490 -88Q442 -88 413.5 -66.5Q385 -45 368 -5Q347 -8 323 -8Q248 -8 193 17Q138 42 102 82Q66 122 49 173Q32 224 32 275Q32 326 49 377Q66 428 102 468Q138 508 193 533Q248 558 323 558Q398 558 453 533Q508 508 544 468Q580 428 597 377Q614 326 614 275Q614 238 605.5 201.5Q597 165 579 131.5Q561 98 533.5 70.5Q506 43 468 24Q477 -3 485.5 -11.5Q494 -20 508 -20Q522 -20 530 -7Q538 6 538 45H597Q597 18 592 -6Q587 -30 575 -48.5Q563 -67 542.5 -77.5Q522 -88 490 -88ZM315 212Q353 212 378 199Q403 186 420 163Q432 207 432 275Q432 382 403 432Q374 482 323 482Q272 482 243 432Q214 382 214 275Q214 243 217 216.5Q220 190 225 168Q238 188 260 200Q282 212 315 212ZM323 68Q336 68 346 71Q334 114 321.5 130.5Q309 147 290 147Q272 147 262.5 135Q253 123 251 106Q277 68 323 68Z" glyph-name="Q.sc" horiz-adv-x="646" /><glyph d="M608 -10Q522 -10 480.5 34.5Q439 79 423 179Q417 213 410 236Q403 259 392.5 273.5Q382 288 367 294Q352 300 329 300H294V77H353V0H46V77H112V613H46V690H356Q505 690 576 642.5Q647 595 647 510Q647 444 598 398.5Q549 353 444 341Q487 331 515.5 318.5Q544 306 563 286.5Q582 267 593 237.5Q604 208 611 163Q621 109 629 91Q637 73 652 73Q669 73 674.5 94Q680 115 680 159H748Q748 76 714 33Q680 -10 608 -10ZM294 613V377H337Q400 377 432.5 406.5Q465 436 465 492Q465 613 338 613Z" glyph-name="R" horiz-adv-x="728" unicode="R" /><glyph d="M547 -8Q468 -8 430.5 27Q393 62 380 138Q374 166 368.5 185Q363 204 354 216Q345 228 332 233Q319 238 299 238H275V72H325V0H42V72H98V478H42V550H328Q465 550 529 512Q593 474 593 408Q593 354 548 318Q503 282 405 272Q449 262 476.5 252Q504 242 521 227.5Q538 213 546.5 191.5Q555 170 561 137Q569 94 576.5 81.5Q584 69 596 69Q609 69 613.5 84Q618 99 618 132H682Q682 62 649.5 27Q617 -8 547 -8ZM275 478V298H315Q363 298 390 321.5Q417 345 417 387Q417 434 390.5 456Q364 478 316 478Z" glyph-name="R.sc" horiz-adv-x="663" /><glyph d="M360 -10Q302 -10 253 1Q204 12 164 41L130 -10H50V233H140Q143 196 158 167.5Q173 139 195.5 119Q218 99 245.5 88.5Q273 78 303 78Q351 78 372.5 99.5Q394 121 394 154Q394 202 359 231Q324 260 253 285Q203 304 165.5 323.5Q128 343 103.5 368Q79 393 66.5 425.5Q54 458 54 502Q54 544 70 580.5Q86 617 115.5 643.5Q145 670 186.5 685Q228 700 279 700Q321 700 364 692Q407 684 447 654L477 700H556V460H466Q462 505 449 534Q436 563 417 580.5Q398 598 374.5 605Q351 612 327 612Q288 612 260.5 590Q233 568 233 526Q233 501 243 483Q253 465 273 450.5Q293 436 322 424Q351 412 390 398Q423 386 456 370.5Q489 355 515 331.5Q541 308 557.5 273.5Q574 239 574 188Q574 149 561.5 113Q549 77 523 49.5Q497 22 456.5 6Q416 -10 360 -10Z" glyph-name="S" horiz-adv-x="617" unicode="S" /><glyph d="M330 -8Q277 -8 231.5 2Q186 12 150 40L122 -8H44V190H129Q133 162 146.5 140.5Q160 119 179 105Q198 91 222 83.5Q246 76 271 76Q309 76 327 89.5Q345 103 345 125Q345 161 313 180.5Q281 200 223 220Q178 237 145 253.5Q112 270 90.5 291Q69 312 58 338Q47 364 47 399Q47 434 61.5 463.5Q76 493 102.5 514Q129 535 166.5 546.5Q204 558 250 558Q284 558 325 552.5Q366 547 402 521L428 558H505V363H420Q417 398 405 419.5Q393 441 376 453Q359 465 339 469.5Q319 474 300 474Q270 474 246.5 461.5Q223 449 223 418Q223 382 256.5 363Q290 344 359 322Q388 313 416.5 300Q445 287 468 268Q491 249 505.5 221Q520 193 520 154Q520 121 510 91.5Q500 62 477.5 40Q455 18 419 5Q383 -8 330 -8Z" glyph-name="S.sc" horiz-adv-x="559" /><glyph d="M171 77H247V614H216Q186 614 166.5 608.5Q147 603 135.5 588.5Q124 574 119.5 550Q115 526 115 489V457H25V690H650V457H560V489Q560 527 555 551Q550 575 538.5 589Q527 603 507.5 608.5Q488 614 459 614H429V77H504V0H171Z" glyph-name="T" horiz-adv-x="675" unicode="T" /><glyph d="M152 72H217V479H194Q144 479 126 458.5Q108 438 108 383V353H23V550H588V353H502V383Q502 439 484.5 459Q467 479 417 479H394V72H459V0H152Z" glyph-name="T.sc" horiz-adv-x="611" /><glyph d="M333 562Q491 562 571 508Q651 454 651 357Q651 258 570 200Q489 142 341 142H294V77H360V0H45V77H112V613H45V690H361V613H294V562ZM464 358Q464 422 427 453.5Q390 485 327 485H294V219H326Q390 219 427 252.5Q464 286 464 358Z" glyph-name="Thorn" horiz-adv-x="671" unicode="&#222;" /><glyph d="M307 444Q453 444 524 399.5Q595 355 595 281Q595 203 522 157.5Q449 112 315 112H275V70H331V0H41V70H98V481H41V550H332V481H275V444ZM414 282Q414 329 383.5 350.5Q353 372 301 372H275V185H300Q352 185 383 207Q414 229 414 282Z" glyph-name="Thorn.sc" horiz-adv-x="612" /><glyph d="M627 245Q627 117 562 53.5Q497 -10 376 -10Q314 -10 262.5 6.5Q211 23 174 55Q137 87 116.5 135Q96 183 96 246V613H31V690H338V613H278V236Q278 152 311 113Q344 74 410 74Q476 74 506 115Q536 156 536 239V613H477V690H693V613H627Z" glyph-name="U" horiz-adv-x="725" unicode="U" /><glyph d="M565 214Q565 98 505.5 45Q446 -8 339 -8Q284 -8 237 5Q190 18 156 45.5Q122 73 103 114.5Q84 156 84 213V478H29V550H318V478H261V201Q261 132 290 100.5Q319 69 373 69Q428 69 454 101Q480 133 480 202V478H425V550H622V478H565Z" glyph-name="U.sc" horiz-adv-x="650" /><glyph d="M627 245Q627 117 562 53.5Q497 -10 376 -10Q314 -10 262.5 6.5Q211 23 174 55Q137 87 116.5 135Q96 183 96 246V613H31V690H338V613H278V236Q278 152 311 113Q344 74 410 74Q476 74 506 115Q536 156 536 239V613H477V690H693V613H627ZM512 778Q554 792 568.5 807Q583 822 583 839Q583 858 569 872.5Q555 887 520 887Q482 887 457.5 868Q433 849 412 821L354 740H417Z" glyph-name="Uacute" horiz-adv-x="725" unicode="&#218;" /><glyph d="M379 591H319L369 651Q388 674 411.5 692.5Q435 711 471 711Q505 711 517.5 698Q530 685 530 668Q530 654 517 641Q504 628 463 616ZM565 214Q565 98 505.5 45Q446 -8 339 -8Q284 -8 237 5Q190 18 156 45.5Q122 73 103 114.5Q84 156 84 213V478H29V550H318V478H261V201Q261 132 290 100.5Q319 69 373 69Q428 69 454 101Q480 133 480 202V478H425V550H622V478H565Z" glyph-name="Uacute.sc" horiz-adv-x="650" /><glyph d="M627 245Q627 117 562 53.5Q497 -10 376 -10Q314 -10 262.5 6.5Q211 23 174 55Q137 87 116.5 135Q96 183 96 246V613H31V690H338V613H278V236Q278 152 311 113Q344 74 410 74Q476 74 506 115Q536 156 536 239V613H477V690H693V613H627ZM191 740 342 874H424L570 740H471L382 790L288 740Z" glyph-name="Ucircumflex" horiz-adv-x="725" unicode="&#219;" /><glyph d="M168 591 305 700H386L519 591H421L345 630L264 591ZM565 214Q565 98 505.5 45Q446 -8 339 -8Q284 -8 237 5Q190 18 156 45.5Q122 73 103 114.5Q84 156 84 213V478H29V550H318V478H261V201Q261 132 290 100.5Q319 69 373 69Q428 69 454 101Q480 133 480 202V478H425V550H622V478H565Z" glyph-name="Ucircumflex.sc" horiz-adv-x="650" /><glyph d="M627 245Q627 117 562 53.5Q497 -10 376 -10Q314 -10 262.5 6.5Q211 23 174 55Q137 87 116.5 135Q96 183 96 246V613H31V690H338V613H278V236Q278 152 311 113Q344 74 410 74Q476 74 506 115Q536 156 536 239V613H477V690H693V613H627ZM355 815Q355 787 336 766Q317 745 282 745Q247 745 228.5 766Q210 787 210 815Q210 842 228.5 864.5Q247 887 282 887Q317 887 336 864.5Q355 842 355 815ZM556 815Q556 787 537.5 766Q519 745 484 745Q449 745 430.5 766Q412 787 412 815Q412 842 430.5 864.5Q449 887 484 887Q519 887 537.5 864.5Q556 842 556 815Z" glyph-name="Udieresis" horiz-adv-x="725" unicode="&#220;" /><glyph d="M320 661Q320 635 302 617Q284 599 251 599Q219 599 201.5 617Q184 635 184 661Q184 687 201.5 705.5Q219 724 251 724Q284 724 302 705.5Q320 687 320 661ZM503 661Q503 635 485.5 617Q468 599 436 599Q404 599 386 617Q368 635 368 661Q368 687 386 705.5Q404 724 436 724Q468 724 485.5 705.5Q503 687 503 661ZM565 214Q565 98 505.5 45Q446 -8 339 -8Q284 -8 237 5Q190 18 156 45.5Q122 73 103 114.5Q84 156 84 213V478H29V550H318V478H261V201Q261 132 290 100.5Q319 69 373 69Q428 69 454 101Q480 133 480 202V478H425V550H622V478H565Z" glyph-name="Udieresis.sc" horiz-adv-x="650" /><glyph d="M627 245Q627 117 562 53.5Q497 -10 376 -10Q314 -10 262.5 6.5Q211 23 174 55Q137 87 116.5 135Q96 183 96 246V613H31V690H338V613H278V236Q278 152 311 113Q344 74 410 74Q476 74 506 115Q536 156 536 239V613H477V690H693V613H627ZM290 778Q248 792 233.5 807Q219 822 219 839Q219 858 233 872.5Q247 887 282 887Q320 887 344.5 868Q369 849 390 821L448 740H385Z" glyph-name="Ugrave" horiz-adv-x="725" unicode="&#217;" /><glyph d="M265 616Q224 628 210.5 641Q197 654 197 668Q197 685 210 698Q223 711 257 711Q293 711 316.5 692.5Q340 674 358 651L409 591H349ZM565 214Q565 98 505.5 45Q446 -8 339 -8Q284 -8 237 5Q190 18 156 45.5Q122 73 103 114.5Q84 156 84 213V478H29V550H318V478H261V201Q261 132 290 100.5Q319 69 373 69Q428 69 454 101Q480 133 480 202V478H425V550H622V478H565Z" glyph-name="Ugrave.sc" horiz-adv-x="650" /><glyph d="M611 613 427 0H246L61 613H1V690H298V613H239L382 138L525 613H470V690H670V613Z" glyph-name="V" horiz-adv-x="673" unicode="V" /><glyph d="M547 478 393 0H212L57 478H2V550H282V478H229L347 113L465 478H416V550H599V478Z" glyph-name="V.sc" horiz-adv-x="604" /><glyph d="M469 462 363 0H184L62 613H4V690H282V613H229L322 148L446 690H572L696 145L789 613H739V690H929V613H874L752 0H574Z" glyph-name="W" horiz-adv-x="935" unicode="W" /><glyph d="M478 379 375 0H195L57 613H-2V690H268V613H226L338 122L446 519L425 613H341V690H672V613H577L685 128L792 613H746V690H922V613H875L740 0H564Z" glyph-name="W.alt" horiz-adv-x="931" /><glyph d="M427 294 344 0H170L56 478H5V550H252V478H220L309 107L396 415L379 478H314V550H610V478H527L622 113L707 478H673V550H830V478H788L676 0H505Z" glyph-name="W.alt.sc" horiz-adv-x="844" /><glyph d="M420 336 332 0H158L55 478H5V550H266V478H218L292 131L402 550H522L630 136L704 478H656V550H831V478H783L680 0H508Z" glyph-name="W.sc" horiz-adv-x="837" /><glyph d="M14 0V77H73L265 329L62 613H16V690H323V613H264L384 445L512 613H455V690H670V613H612L433 377L647 77H691V0H388V77H446L315 260L176 77H240V0Z" glyph-name="X" horiz-adv-x="697" unicode="X" /><glyph d="M19 0V72H75L238 260L61 478H15V550H307V478H261L357 360L459 478H416V550H612V478H560L406 301L592 72H635V0H346V72H392L287 201L175 72H227V0Z" glyph-name="X.sc" horiz-adv-x="642" /><glyph d="M491 0H178V77H244V282L46 613H-4V690H298V613H243L376 391L499 613H451V690H652V613H605L426 291V77H491Z" glyph-name="Y" horiz-adv-x="661" unicode="Y" /><glyph d="M446 0H160V72H215V221L40 478H-3V550H283V478H238L347 317L448 478H405V550H589V478H549L392 228V72H446Z" glyph-name="Y.sc" horiz-adv-x="599" /><glyph d="M491 0H178V77H244V282L46 613H-4V690H298V613H243L376 391L499 613H451V690H652V613H605L426 291V77H491ZM477 778Q519 792 533.5 807Q548 822 548 839Q548 858 534 872.5Q520 887 485 887Q447 887 422.5 868Q398 849 377 821L319 740H382Z" glyph-name="Yacute" horiz-adv-x="661" unicode="&#221;" /><glyph d="M349 591H289L339 651Q358 674 381.5 692.5Q405 711 441 711Q475 711 487.5 698Q500 685 500 668Q500 654 487 641Q474 628 433 616ZM446 0H160V72H215V221L40 478H-3V550H283V478H238L347 317L448 478H405V550H589V478H549L392 228V72H446Z" glyph-name="Yacute.sc" horiz-adv-x="599" /><glyph d="M40 0V63L373 613H259Q225 613 201.5 608.5Q178 604 164 591.5Q150 579 143.5 555Q137 531 137 492V454H47V690H564V627L231 77H376Q412 77 433 83.5Q454 90 464.5 105Q475 120 478 145Q481 170 481 208V240H571V0Z" glyph-name="Z" horiz-adv-x="610" unicode="Z" /><glyph d="M42 0V63L403 563H253Q219 563 196.5 558Q174 553 161.5 540Q149 527 144 505.5Q139 484 139 451V414H49V690H554V627L193 127H375Q408 127 427.5 134.5Q447 142 456.5 157Q466 172 469 195Q472 218 472 249V281H562V0Z" glyph-name="Z.alt" horiz-adv-x="604" /><glyph d="M37 0V57L354 436H229Q199 436 180 432.5Q161 429 149.5 419Q138 409 133.5 391Q129 373 129 345V318H44V550H501V493L185 116H336Q366 116 383 121Q400 126 408.5 137Q417 148 419.5 166.5Q422 185 422 213V238H508V0Z" glyph-name="Z.alt.sc" horiz-adv-x="546" /><glyph d="M35 0V57L321 478H232Q202 478 182 474.5Q162 471 150 461Q138 451 132.5 433Q127 415 127 385V357H41V550H511V493L225 72H325Q363 72 384 76.5Q405 81 416 92.5Q427 104 429.5 123.5Q432 143 432 173V197H518V0Z" glyph-name="Z.sc" horiz-adv-x="552" /><glyph d="M501 -10Q436 -10 401.5 18Q367 46 359 96Q336 42 295 16Q254 -10 189 -10Q114 -10 72.5 27.5Q31 65 31 131Q31 167 45.5 199Q60 231 93 254Q126 277 180.5 290.5Q235 304 314 304H346V345Q346 408 316.5 432.5Q287 457 243 457Q219 457 203 452.5Q187 448 177 442Q193 433 199.5 418Q206 403 206 389Q206 363 188.5 344Q171 325 131 325Q91 325 73 344.5Q55 364 55 390Q55 420 72 445Q89 470 120 487.5Q151 505 194.5 515Q238 525 292 525Q399 525 461 477.5Q523 430 523 320V133Q523 104 529.5 92.5Q536 81 550 81Q564 81 571 97Q578 113 578 158H638Q638 77 606.5 33.5Q575 -10 501 -10ZM272 90Q306 90 326 119.5Q346 149 346 195V250H317Q274 250 243 230.5Q212 211 212 164Q212 127 228 108.5Q244 90 272 90Z" glyph-name="a" horiz-adv-x="629" unicode="a" /><glyph d="M501 -10Q436 -10 401.5 18Q367 46 359 96Q336 42 295 16Q254 -10 189 -10Q114 -10 72.5 27.5Q31 65 31 131Q31 167 45.5 199Q60 231 93 254Q126 277 180.5 290.5Q235 304 314 304H346V345Q346 408 316.5 432.5Q287 457 243 457Q219 457 203 452.5Q187 448 177 442Q193 433 199.5 418Q206 403 206 389Q206 363 188.5 344Q171 325 131 325Q91 325 73 344.5Q55 364 55 390Q55 420 72 445Q89 470 120 487.5Q151 505 194.5 515Q238 525 292 525Q399 525 461 477.5Q523 430 523 320V133Q523 104 529.5 92.5Q536 81 550 81Q564 81 571 97Q578 113 578 158H638Q638 77 606.5 33.5Q575 -10 501 -10ZM272 90Q306 90 326 119.5Q346 149 346 195V250H317Q274 250 243 230.5Q212 211 212 164Q212 127 228 108.5Q244 90 272 90ZM252 613 306 698Q339 748 368.5 764Q398 780 432 780Q470 780 484.5 765.5Q499 751 499 731Q499 722 495.5 713Q492 704 481.5 694Q471 684 451 673Q431 662 398 648L310 613Z" glyph-name="aacute" horiz-adv-x="629" unicode="&#225;" /><glyph d="M501 -10Q436 -10 401.5 18Q367 46 359 96Q336 42 295 16Q254 -10 189 -10Q114 -10 72.5 27.5Q31 65 31 131Q31 167 45.5 199Q60 231 93 254Q126 277 180.5 290.5Q235 304 314 304H346V345Q346 408 316.5 432.5Q287 457 243 457Q219 457 203 452.5Q187 448 177 442Q193 433 199.5 418Q206 403 206 389Q206 363 188.5 344Q171 325 131 325Q91 325 73 344.5Q55 364 55 390Q55 420 72 445Q89 470 120 487.5Q151 505 194.5 515Q238 525 292 525Q399 525 461 477.5Q523 430 523 320V133Q523 104 529.5 92.5Q536 81 550 81Q564 81 571 97Q578 113 578 158H638Q638 77 606.5 33.5Q575 -10 501 -10ZM272 90Q306 90 326 119.5Q346 149 346 195V250H317Q274 250 243 230.5Q212 211 212 164Q212 127 228 108.5Q244 90 272 90ZM111 612 278 787H329L491 612H415L303 688L187 612Z" glyph-name="acircumflex" horiz-adv-x="629" unicode="&#226;" /><glyph d="M59 613 113 698Q146 748 175.5 764Q205 780 239 780Q277 780 291.5 765.5Q306 751 306 731Q306 722 302.5 713Q299 704 288.5 694Q278 684 258 673Q238 662 205 648L117 613Z" glyph-name="acute" horiz-adv-x="365" unicode="&#180;" /><glyph d="M120 740H57L115 821Q136 849 160.5 868Q185 887 223 887Q258 887 272 872.5Q286 858 286 839Q286 822 271.5 807Q257 792 215 778Z" glyph-name="acute.cap" horiz-adv-x="351" /><glyph d="M62 601 83 682Q97 739 119.5 765Q142 791 180 791Q209 791 223 777.5Q237 764 237 744Q237 724 220 702Q203 680 165 644L120 601Z" glyph-name="acute.pl" horiz-adv-x="300" /><glyph d="M77 740 98 827Q108 865 125.5 887Q143 909 175 909Q202 909 215 896Q228 883 228 864Q228 845 217.5 826Q207 807 189 791L141 740Z" glyph-name="acute.uc.pl" horiz-adv-x="289" /><glyph d="M501 -10Q436 -10 401.5 18Q367 46 359 96Q336 42 295 16Q254 -10 189 -10Q114 -10 72.5 27.5Q31 65 31 131Q31 167 45.5 199Q60 231 93 254Q126 277 180.5 290.5Q235 304 314 304H346V345Q346 408 316.5 432.5Q287 457 243 457Q219 457 203 452.5Q187 448 177 442Q193 433 199.5 418Q206 403 206 389Q206 363 188.5 344Q171 325 131 325Q91 325 73 344.5Q55 364 55 390Q55 420 72 445Q89 470 120 487.5Q151 505 194.5 515Q238 525 292 525Q399 525 461 477.5Q523 430 523 320V133Q523 104 529.5 92.5Q536 81 550 81Q564 81 571 97Q578 113 578 158H638Q638 77 606.5 33.5Q575 -10 501 -10ZM272 90Q306 90 326 119.5Q346 149 346 195V250H317Q274 250 243 230.5Q212 211 212 164Q212 127 228 108.5Q244 90 272 90ZM270 685Q270 654 249.5 630.5Q229 607 189 607Q150 607 129.5 630.5Q109 654 109 685Q109 715 129.5 740Q150 765 189 765Q229 765 249.5 740Q270 715 270 685ZM480 685Q480 654 460 630.5Q440 607 399 607Q360 607 339.5 630.5Q319 654 319 685Q319 715 339.5 740Q360 765 399 765Q440 765 460 740Q480 715 480 685Z" glyph-name="adieresis" horiz-adv-x="629" unicode="&#228;" /><glyph d="M618 -10Q542 -10 480 20Q418 50 384 111Q365 55 318 22.5Q271 -10 194 -10Q115 -10 73 27.5Q31 65 31 131Q31 168 45.5 198Q60 228 93 249.5Q126 271 180.5 283Q235 295 314 295H346V345Q346 408 316 432.5Q286 457 243 457Q215 457 197 451.5Q179 446 171 438Q190 433 198 418Q206 403 206 389Q206 363 188.5 344Q171 325 131 325Q91 325 73 344.5Q55 364 55 390Q55 420 72 445Q89 470 120 487.5Q151 505 194.5 515Q238 525 292 525Q401 525 455 475Q487 499 526 512Q565 525 608 525Q672 525 719.5 505.5Q767 486 798 453Q829 420 844 375.5Q859 331 859 280V241H524V228Q524 150 558.5 110Q593 70 656 70Q716 70 746.5 97.5Q777 125 793 167L853 146Q844 113 825.5 84.5Q807 56 778.5 35Q750 14 710.5 2Q671 -10 618 -10ZM606 455Q562 455 544 412.5Q526 370 524 295H680Q680 330 676.5 359.5Q673 389 665 410Q657 431 642.5 443Q628 455 606 455ZM272 90Q312 90 329 122Q346 154 346 213V242H317Q295 242 276 238.5Q257 235 242.5 226Q228 217 220 201Q212 185 212 159Q212 126 228 108Q244 90 272 90Z" glyph-name="ae" horiz-adv-x="889" unicode="&#230;" /><glyph d="M501 -10Q436 -10 401.5 18Q367 46 359 96Q336 42 295 16Q254 -10 189 -10Q114 -10 72.5 27.5Q31 65 31 131Q31 167 45.5 199Q60 231 93 254Q126 277 180.5 290.5Q235 304 314 304H346V345Q346 408 316.5 432.5Q287 457 243 457Q219 457 203 452.5Q187 448 177 442Q193 433 199.5 418Q206 403 206 389Q206 363 188.5 344Q171 325 131 325Q91 325 73 344.5Q55 364 55 390Q55 420 72 445Q89 470 120 487.5Q151 505 194.5 515Q238 525 292 525Q399 525 461 477.5Q523 430 523 320V133Q523 104 529.5 92.5Q536 81 550 81Q564 81 571 97Q578 113 578 158H638Q638 77 606.5 33.5Q575 -10 501 -10ZM272 90Q306 90 326 119.5Q346 149 346 195V250H317Q274 250 243 230.5Q212 211 212 164Q212 127 228 108.5Q244 90 272 90ZM208 648Q175 662 155 673Q135 684 124.5 694Q114 704 110.5 713Q107 722 107 731Q107 751 123 765.5Q139 780 177 780Q211 780 237.5 766.5Q264 753 290 712L354 613H296Z" glyph-name="agrave" horiz-adv-x="629" unicode="&#224;" /><glyph d="M640 -10Q603 -10 570.5 -1Q538 8 499 34Q457 10 412 0Q367 -10 298 -10Q238 -10 190 0Q142 10 108 30.5Q74 51 55.5 82.5Q37 114 37 156Q37 223 77 265.5Q117 308 194 346Q165 381 144.5 407.5Q124 434 111 457Q98 480 92 501Q86 522 86 544Q86 582 104.5 611Q123 640 156 660Q189 680 233.5 690Q278 700 329 700Q381 700 426 689.5Q471 679 504.5 660Q538 641 557 614Q576 587 576 554Q576 524 564 499Q552 474 527 451Q502 428 464 404.5Q426 381 373 355Q390 336 410 314.5Q430 293 453 267Q482 234 504.5 209Q527 184 546 164Q569 195 585.5 232.5Q602 270 608 314H542V391H763V314H694Q682 248 657 198Q632 148 600 111Q627 80 645.5 73.5Q664 67 681 67Q707 67 719 89.5Q731 112 731 174H799Q799 132 791 98Q783 64 764 40Q745 16 714.5 3Q684 -10 640 -10ZM261 552Q261 511 280.5 476.5Q300 442 325 409Q363 437 381 473.5Q399 510 399 552Q399 585 383 608.5Q367 632 330 632Q295 632 278 609Q261 586 261 552ZM348 67Q374 67 395 72Q416 77 435 85Q411 108 383 136.5Q355 165 322 202Q302 225 285 244.5Q268 264 253 281Q228 263 217.5 235.5Q207 208 207 181Q207 150 218 128Q229 106 248 92.5Q267 79 292.5 73Q318 67 348 67Z" glyph-name="ampersand" horiz-adv-x="823" unicode="&amp;" /><glyph d="M681 -10Q646 -10 610 -2Q574 6 529 37Q440 -10 319 -10Q258 -10 207 0.5Q156 11 119.5 31Q83 51 63 81.5Q43 112 43 152Q43 180 52 205.5Q61 231 82 259.5Q103 288 137 321Q171 354 222 396L61 611V690H601V611L389 429L559 207Q570 191 580 177Q604 209 622 247.5Q640 286 650 331H576V408H803V331H730Q696 198 626 116Q654 83 671.5 75Q689 67 711 67Q743 67 758 96Q773 125 773 198H841Q841 155 834.5 117Q828 79 810.5 50.5Q793 22 762 6Q731 -10 681 -10ZM484 611H250L340 493ZM381 67Q425 67 470 87Q443 113 413 147Q383 181 348 227L277 322Q244 281 234.5 250Q225 219 225 192Q225 159 237 135Q249 111 270 96Q291 81 319.5 74Q348 67 381 67Z" glyph-name="ampersand.alt" horiz-adv-x="872" /><glyph d="M612 -8Q573 -8 540 -1.5Q507 5 469 28Q391 -8 287 -8Q232 -8 186.5 -1Q141 6 108 21.5Q75 37 57 61.5Q39 86 39 121Q39 144 46 164Q53 184 71 205.5Q89 227 120 252Q151 277 198 309L56 477V550H545V477L363 335Q421 267 453 230Q485 193 500.5 175Q516 157 519 153.5Q522 150 523 149Q543 172 558.5 201Q574 230 582 264H516V336H723V264H658Q628 161 567 97Q589 74 603 69Q617 64 635 64Q662 64 674 87Q686 110 686 172H751Q751 136 745.5 103.5Q740 71 725 46Q710 21 683 6.5Q656 -8 612 -8ZM441 482H236L314 391ZM349 64Q380 64 410 73Q399 83 386 95.5Q373 108 354.5 127.5Q336 147 311 176Q286 205 250 247Q225 223 217.5 203Q210 183 210 159Q210 107 248 85.5Q286 64 349 64Z" glyph-name="ampersand.alt.sc" horiz-adv-x="779" /><glyph d="M300 455Q276 455 261 442.5Q246 430 236.5 408Q227 386 223 357Q219 328 218 295H374Q374 326 371.5 354.5Q369 383 360.5 405.5Q352 428 337.5 441.5Q323 455 300 455ZM450 70Q549 70 616.5 110.5Q684 151 707 235H218Q218 191 235.5 160Q253 129 284.5 109Q316 89 358.5 79.5Q401 70 450 70ZM781 235Q769 186 743 141.5Q717 97 672.5 63Q628 29 564.5 9.5Q501 -10 415 -10Q328 -10 258.5 7.5Q189 25 140.5 59Q92 93 66 143.5Q40 194 40 259Q40 321 59.5 370Q79 419 114 453.5Q149 488 198 506.5Q247 525 306 525Q367 525 413 506Q459 487 490 455Q521 423 536.5 381.5Q552 340 552 295H716Q717 300 717 306Q717 312 717 318Q717 363 707.5 400.5Q698 438 681 462Q658 436 618 436Q589 436 566 454.5Q543 473 542 507Q542 527 549.5 541Q557 555 569 563.5Q581 572 596 576Q611 580 626 580Q668 580 699 558.5Q730 537 750.5 501Q771 465 781 419Q791 373 791 325Q791 317 791 310Q791 303 790 295H867V235Z" glyph-name="ampersand.old" horiz-adv-x="885" /><glyph d="M592 -8Q563 -8 532 -1Q501 6 468 26Q429 8 378 0Q327 -8 275 -8Q223 -8 178.5 -1Q134 6 102 21.5Q70 37 51.5 62.5Q33 88 33 124Q33 175 69 209Q105 243 184 278Q154 305 133 326.5Q112 348 99 366.5Q86 385 80.5 402Q75 419 75 438Q75 467 92.5 489Q110 511 141 526.5Q172 542 213 550Q254 558 302 558Q352 558 394 549Q436 540 467 524.5Q498 509 515 487.5Q532 466 532 441Q532 417 521 398Q510 379 487.5 361.5Q465 344 430 325.5Q395 307 348 285Q365 268 384.5 248.5Q404 229 424 209.5Q444 190 463.5 172.5Q483 155 499 142Q519 162 533.5 190Q548 218 555 244H498V316H705V244H640Q626 201 603.5 160.5Q581 120 558 96Q578 77 593.5 70.5Q609 64 623 64Q644 64 658 80.5Q672 97 672 145H737Q737 111 729.5 82.5Q722 54 705 34Q688 14 660.5 3Q633 -8 592 -8ZM245 440Q245 414 259.5 389Q274 364 300 336Q331 357 346 383.5Q361 410 361 438Q361 461 348 478.5Q335 496 303 496Q276 496 260.5 481Q245 466 245 440ZM323 62Q343 62 363 65.5Q383 69 396 76Q379 89 359.5 106.5Q340 124 319 144Q298 164 277.5 184.5Q257 205 239 223Q216 207 207 186.5Q198 166 198 140Q198 99 231.5 80.5Q265 62 323 62Z" glyph-name="ampersand.sc" horiz-adv-x="760" /><glyph d="M506 -10Q480 -10 454.5 -2Q429 6 397 30Q365 10 327 0Q289 -10 241 -10Q196 -10 158.5 -0.5Q121 9 93.5 28.5Q66 48 50.5 78.5Q35 109 35 152Q35 184 44 211Q53 238 68 261Q83 284 102.5 304Q122 324 144 342Q107 400 90.5 445Q74 490 74 531Q74 574 88 606Q102 638 126 659Q150 680 183 690Q216 700 255 700Q295 700 328.5 690.5Q362 681 386 663Q410 645 423.5 617.5Q437 590 437 554Q437 524 426.5 499.5Q416 475 396 451.5Q376 428 348.5 405Q321 382 286 355Q301 333 318.5 308.5Q336 284 357 256Q376 232 391 211.5Q406 191 419 174Q432 204 439.5 239.5Q447 275 449 314H399V385H586V314H536Q531 252 516 200Q501 148 474 106Q494 83 505 76.5Q516 70 527 70Q547 70 556 90Q565 110 565 162H621Q621 125 615.5 93Q610 61 597 38.5Q584 16 562 3Q540 -10 506 -10ZM206 556Q206 525 215.5 493Q225 461 245 423Q274 452 289 484.5Q304 517 304 556Q304 591 292 612Q280 633 255 633Q229 633 217.5 612Q206 591 206 556ZM290 67Q317 67 343 81Q305 122 257 186Q240 208 224.5 228Q209 248 195 267Q184 247 180 226Q176 205 176 178Q176 118 207.5 92.5Q239 67 290 67Z" glyph-name="ampersand.tln" horiz-adv-x="640" /><glyph d="M226 455Q211 455 200 442.5Q189 430 181.5 408Q174 386 170.5 357Q167 328 166 295H277Q277 326 275.5 354.5Q274 383 268 405.5Q262 428 252 441.5Q242 455 226 455ZM325 70Q400 70 444 113.5Q488 157 502 235H166Q166 151 209.5 110.5Q253 70 325 70ZM576 235Q568 186 549 142Q530 98 497.5 64Q465 30 416.5 10Q368 -10 301 -10Q167 -10 95 59Q23 128 23 259Q23 321 37.5 370Q52 419 79 453.5Q106 488 144.5 506.5Q183 525 231 525Q279 525 314 506Q349 487 371 455Q393 423 403.5 381.5Q414 340 414 295H509V318Q509 365 503.5 397Q498 429 490 452Q475 442 452 442Q426 442 405.5 460Q385 478 384 510Q384 547 405 563.5Q426 580 455 580Q488 580 512 560Q536 540 551.5 505.5Q567 471 575 424.5Q583 378 583 325Q583 317 583 310Q583 303 582 295H627V235Z" glyph-name="ampersand.ton" horiz-adv-x="640" /><glyph d="M501 -10Q436 -10 401.5 18Q367 46 359 96Q336 42 295 16Q254 -10 189 -10Q114 -10 72.5 27.5Q31 65 31 131Q31 167 45.5 199Q60 231 93 254Q126 277 180.5 290.5Q235 304 314 304H346V345Q346 408 316.5 432.5Q287 457 243 457Q219 457 203 452.5Q187 448 177 442Q193 433 199.5 418Q206 403 206 389Q206 363 188.5 344Q171 325 131 325Q91 325 73 344.5Q55 364 55 390Q55 420 72 445Q89 470 120 487.5Q151 505 194.5 515Q238 525 292 525Q399 525 461 477.5Q523 430 523 320V133Q523 104 529.5 92.5Q536 81 550 81Q564 81 571 97Q578 113 578 158H638Q638 77 606.5 33.5Q575 -10 501 -10ZM272 90Q306 90 326 119.5Q346 149 346 195V250H317Q274 250 243 230.5Q212 211 212 164Q212 127 228 108.5Q244 90 272 90ZM308 598Q259 598 227.5 627.5Q196 657 196 705Q196 752 227.5 782Q259 812 308 812Q358 812 389.5 782Q421 752 421 705Q421 657 389.5 627.5Q358 598 308 598ZM308 662Q328 662 340 673.5Q352 685 352 705Q352 725 340 736.5Q328 748 308 748Q289 748 277 736.5Q265 725 265 705Q265 685 277 673.5Q289 662 308 662Z" glyph-name="aring" horiz-adv-x="629" unicode="&#229;" /><glyph d="M216 593 120 384H38L180 690H258L399 384H313Z" glyph-name="asciicircum" horiz-adv-x="436" unicode="^" /><glyph d="M318 593 222 384H140L282 690H360L501 384H415Z" glyph-name="asciicircum.tln" horiz-adv-x="640" /><glyph d="M528 391Q528 357 523.5 322Q519 287 505 259.5Q491 232 463.5 214.5Q436 197 389 197Q343 197 314 213.5Q285 230 265 249.5Q245 269 228.5 285.5Q212 302 189 302Q159 302 145.5 277Q132 252 132 205H57Q57 240 63 274.5Q69 309 85.5 337Q102 365 130.5 382Q159 399 205 399Q249 399 276.5 382.5Q304 366 324.5 346.5Q345 327 362.5 310.5Q380 294 404 294Q433 294 443 318.5Q453 343 453 391Z" glyph-name="asciitilde" horiz-adv-x="583" unicode="~" /><glyph d="M556 391Q556 357 551.5 322Q547 287 533 259.5Q519 232 491.5 214.5Q464 197 417 197Q371 197 342 213.5Q313 230 293 249.5Q273 269 256.5 285.5Q240 302 217 302Q187 302 173.5 277Q160 252 160 205H85Q85 240 91 274.5Q97 309 113.5 337Q130 365 158.5 382Q187 399 233 399Q277 399 304.5 382.5Q332 366 352.5 346.5Q373 327 390.5 310.5Q408 294 432 294Q461 294 471 318.5Q481 343 481 391Z" glyph-name="asciitilde.tln" horiz-adv-x="640" /><glyph d="M216 528 176 618Q167 639 168.5 654.5Q170 670 178.5 680Q187 690 200.5 695Q214 700 227 700Q240 700 253.5 695.5Q267 691 275.5 681Q284 671 286 655.5Q288 640 279 618L240 528ZM200 505 103 515Q80 517 67.5 527Q55 537 50.5 550.5Q46 564 47.5 578Q49 592 55 602Q61 613 72.5 621Q84 629 98 631.5Q112 634 127.5 627.5Q143 621 157 601L211 525ZM256 505 244 525 299 601Q313 620 328 626.5Q343 633 357 631Q371 629 382.5 621Q394 613 400 603Q406 593 408.5 578.5Q411 564 406 550.5Q401 537 388.5 527Q376 517 352 515ZM154 402Q141 384 126 378.5Q111 373 97.5 375.5Q84 378 73.5 386.5Q63 395 57 405Q51 416 49 430Q47 444 51.5 456.5Q56 469 68 478.5Q80 488 103 491L199 502L211 480ZM354 490Q376 488 388 478Q400 468 404 454.5Q408 441 406 427.5Q404 414 398 404Q392 394 381 385.5Q370 377 356.5 374.5Q343 372 328.5 378.5Q314 385 300 403L243 478L256 499ZM281 384Q290 364 287.5 349.5Q285 335 276 325.5Q267 316 253.5 311.5Q240 307 227 307Q213 307 199.5 312Q186 317 177.5 326.5Q169 336 167 350.5Q165 365 174 385L215 477H240Z" glyph-name="asterisk" horiz-adv-x="455" unicode="*" /><glyph d="M190 416 156 491Q147 509 148.5 521.5Q150 534 157.5 542Q165 550 176.5 554Q188 558 200 558Q212 558 223.5 554Q235 550 242.5 542Q250 534 251.5 521Q253 508 245 491L210 416ZM173 396 91 404Q71 406 60 414.5Q49 423 45 434Q41 445 42.5 456.5Q44 468 49 477Q54 486 64 493Q74 500 86 501.5Q98 503 111.5 497.5Q125 492 137 475L183 413ZM228 396 217 413 264 475Q275 491 288 496.5Q301 502 313.5 500.5Q326 499 336 492.5Q346 486 352 477Q357 468 359 456.5Q361 445 356.5 433.5Q352 422 341 414Q330 406 310 404ZM135 309Q123 294 110.5 289Q98 284 86.5 286Q75 288 65.5 295Q56 302 51 311Q46 320 44 332Q42 344 46 354.5Q50 365 60.5 373Q71 381 90 383L172 391L183 373ZM312 382Q331 381 341 372.5Q351 364 354.5 352.5Q358 341 356.5 329.5Q355 318 350 310Q345 301 335.5 295Q326 289 314.5 287.5Q303 286 290 291.5Q277 297 265 312L217 373L228 389ZM247 293Q255 277 252.5 265Q250 253 242 245Q234 237 222.5 233.5Q211 230 200 230Q188 230 176 234Q164 238 156.5 246Q149 254 148 266Q147 278 155 294L190 371H210Z" glyph-name="asterisk.sc" horiz-adv-x="401" /><glyph d="M308 528 268 618Q259 639 260.5 654.5Q262 670 270.5 680Q279 690 292.5 695Q306 700 319 700Q332 700 345.5 695.5Q359 691 367.5 681Q376 671 378 655.5Q380 640 371 618L332 528ZM292 505 195 515Q172 517 159.5 527Q147 537 142.5 550.5Q138 564 139.5 578Q141 592 147 602Q153 613 164.5 621Q176 629 190 631.5Q204 634 219.5 627.5Q235 621 249 601L303 525ZM348 505 336 525 391 601Q405 620 420 626.5Q435 633 449 631Q463 629 474.5 621Q486 613 492 603Q498 593 500.5 578.5Q503 564 498 550.5Q493 537 480.5 527Q468 517 444 515ZM246 402Q233 384 218 378.5Q203 373 189.5 375.5Q176 378 165.5 386.5Q155 395 149 405Q143 416 141 430Q139 444 143.5 456.5Q148 469 160 478.5Q172 488 195 491L291 502L303 480ZM446 490Q468 488 480 478Q492 468 496 454.5Q500 441 498 427.5Q496 414 490 404Q484 394 473 385.5Q462 377 448.5 374.5Q435 372 420.5 378.5Q406 385 392 403L335 478L348 499ZM373 384Q382 364 379.5 349.5Q377 335 368 325.5Q359 316 345.5 311.5Q332 307 319 307Q305 307 291.5 312Q278 317 269.5 326.5Q261 336 259 350.5Q257 365 266 385L307 477H332Z" glyph-name="asterisk.tln" horiz-adv-x="640" /><glyph d="M518 -213Q412 -213 323.5 -188.5Q235 -164 171.5 -112.5Q108 -61 73 18Q38 97 38 206Q38 304 74 386Q110 468 175 526.5Q240 585 330 617.5Q420 650 529 650Q641 650 723.5 622Q806 594 860 544Q914 494 940 425.5Q966 357 966 275Q966 212 954 160Q942 108 915.5 70Q889 32 848 11Q807 -10 749 -10Q676 -10 633 19Q590 48 579 91Q569 68 555.5 49Q542 30 523.5 17Q505 4 479.5 -3Q454 -10 419 -10Q377 -10 342 4Q307 18 283 46.5Q259 75 248.5 119Q238 163 244 223Q250 278 270 319.5Q290 361 321 389Q352 417 391.5 431Q431 445 476 445Q525 445 561 428Q597 411 615 383L714 445H744L713 176Q710 153 710 132.5Q710 112 716 97Q722 82 735 73Q748 64 770 64Q815 64 846 113.5Q877 163 877 268Q877 414 790.5 493.5Q704 573 523 573Q439 573 367 548Q295 523 241.5 475.5Q188 428 158 360Q128 292 128 206Q128 116 156.5 51Q185 -14 236.5 -55.5Q288 -97 360.5 -116.5Q433 -136 521 -136Q584 -136 645 -126.5Q706 -117 767 -86L786 -156Q748 -182 681.5 -197.5Q615 -213 518 -213ZM464 64Q484 64 499.5 75.5Q515 87 527 107Q539 127 546.5 153.5Q554 180 558 211Q567 287 556 329Q545 371 502 371Q462 371 437.5 330Q413 289 405 223Q401 189 401.5 160Q402 131 408.5 109.5Q415 88 428.5 76Q442 64 464 64Z" glyph-name="at" horiz-adv-x="1009" unicode="@" /><glyph d="M521 -83Q415 -83 326.5 -58.5Q238 -34 174.5 17.5Q111 69 76 148Q41 227 41 336Q41 434 77 516Q113 598 178 656.5Q243 715 333 747.5Q423 780 532 780Q644 780 726.5 752Q809 724 863 674Q917 624 943 555.5Q969 487 969 405Q969 342 957 290Q945 238 918.5 200Q892 162 851 141Q810 120 752 120Q679 120 636 149Q593 178 582 221Q572 198 558.5 179Q545 160 526.5 147Q508 134 482.5 127Q457 120 422 120Q380 120 345 134Q310 148 286 176.5Q262 205 251.5 249Q241 293 247 353Q253 408 273 449.5Q293 491 324 519Q355 547 394.5 561Q434 575 479 575Q528 575 564 558Q600 541 618 513L717 575H747L716 306Q713 283 713 262.5Q713 242 719 227Q725 212 738 203Q751 194 773 194Q818 194 849 243.5Q880 293 880 398Q880 544 793.5 623.5Q707 703 526 703Q442 703 370 678Q298 653 244.5 605.5Q191 558 161 490Q131 422 131 336Q131 246 159.5 181Q188 116 239.5 74.5Q291 33 363.5 13.5Q436 -6 524 -6Q587 -6 648 3.5Q709 13 770 44L789 -26Q751 -52 684.5 -67.5Q618 -83 521 -83ZM467 194Q487 194 502.5 205.5Q518 217 530 237Q542 257 549.5 283.5Q557 310 561 341Q570 417 559 459Q548 501 505 501Q465 501 440.5 460Q416 419 408 353Q404 319 404.5 290Q405 261 411.5 239.5Q418 218 431.5 206Q445 194 467 194Z" glyph-name="at.cap" horiz-adv-x="1001" /><glyph d="M390 -8Q315 -8 250.5 6.5Q186 21 139.5 53Q93 85 66.5 136Q40 187 40 260Q40 328 66.5 383Q93 438 141 477Q189 516 256.5 537Q324 558 406 558Q561 558 646 493.5Q731 429 731 317Q731 228 689 175.5Q647 123 562 123Q506 123 475.5 144.5Q445 166 438 190Q421 155 390.5 139Q360 123 319 123Q289 123 263 132.5Q237 142 218.5 161.5Q200 181 191.5 210.5Q183 240 187 280Q192 318 208 346Q224 374 247.5 392.5Q271 411 300 420Q329 429 358 429Q422 429 458 393L547 428H568L545 249Q541 218 546 199Q551 180 580 180Q615 180 635 214Q655 248 655 311Q655 360 637 394.5Q619 429 585.5 451.5Q552 474 505 484.5Q458 495 400 495Q341 495 289 480Q237 465 198.5 435.5Q160 406 137.5 362Q115 318 115 260Q115 204 136.5 165Q158 126 195.5 102Q233 78 284 67.5Q335 57 393 57Q439 57 486.5 62.5Q534 68 579 86L593 27Q564 10 512.5 1Q461 -8 390 -8ZM354 177Q380 177 396 203Q412 229 418 272Q425 318 417.5 345Q410 372 384 372Q359 372 341.5 346.5Q324 321 317 280Q310 237 319 207Q328 177 354 177Z" glyph-name="at.sc" horiz-adv-x="764" /><glyph d="M322 -213Q168 -213 88 -111.5Q8 -10 8 182Q8 274 31.5 358.5Q55 443 99.5 508Q144 573 209.5 611.5Q275 650 359 650Q430 650 481 623Q532 596 564 551Q596 506 611 446Q626 386 626 320Q626 257 619 197.5Q612 138 594 92Q576 46 544 18Q512 -10 462 -10Q408 -10 387 17.5Q366 45 360 89Q347 44 318.5 17Q290 -10 245 -10Q188 -10 158 44Q128 98 139 204Q145 261 160.5 306Q176 351 198.5 382Q221 413 248 429Q275 445 305 445Q345 445 364.5 426Q384 407 392 385L449 445H490L457 157Q455 139 453.5 122Q452 105 454 92Q456 79 461.5 71.5Q467 64 479 64Q499 64 513 84.5Q527 105 536 140Q545 175 549 222Q553 269 553 321Q553 378 542 426Q531 474 507 509Q483 544 444 564Q405 584 349 584Q288 584 238 551Q188 518 153.5 462.5Q119 407 100 334.5Q81 262 81 182Q81 22 143.5 -63Q206 -148 325 -148Q363 -148 402.5 -139Q442 -130 484 -97L503 -156Q480 -180 435 -196.5Q390 -213 322 -213ZM283 64Q327 64 345 211Q355 287 350 329Q345 371 324 371Q298 371 283 330Q268 289 260 223Q256 189 254.5 160Q253 131 255 109.5Q257 88 264 76Q271 64 283 64Z" glyph-name="at.tln" horiz-adv-x="640" /><glyph d="M501 -10Q436 -10 401.5 18Q367 46 359 96Q336 42 295 16Q254 -10 189 -10Q114 -10 72.5 27.5Q31 65 31 131Q31 167 45.5 199Q60 231 93 254Q126 277 180.5 290.5Q235 304 314 304H346V345Q346 408 316.5 432.5Q287 457 243 457Q219 457 203 452.5Q187 448 177 442Q193 433 199.5 418Q206 403 206 389Q206 363 188.5 344Q171 325 131 325Q91 325 73 344.5Q55 364 55 390Q55 420 72 445Q89 470 120 487.5Q151 505 194.5 515Q238 525 292 525Q399 525 461 477.5Q523 430 523 320V133Q523 104 529.5 92.5Q536 81 550 81Q564 81 571 97Q578 113 578 158H638Q638 77 606.5 33.5Q575 -10 501 -10ZM272 90Q306 90 326 119.5Q346 149 346 195V250H317Q274 250 243 230.5Q212 211 212 164Q212 127 228 108.5Q244 90 272 90ZM375 608Q351 608 330.5 617Q310 626 292 637Q274 648 258 657Q242 666 227 666Q206 666 197.5 651.5Q189 637 189 612H128Q128 681 151 720.5Q174 760 228 760Q253 760 274 751Q295 742 313 730.5Q331 719 347.5 710Q364 701 379 701Q398 701 406 715.5Q414 730 414 756H475Q475 722 471 694.5Q467 667 456 647.5Q445 628 425.5 618Q406 608 375 608Z" glyph-name="atilde" horiz-adv-x="629" unicode="&#227;" /><glyph d="M339 73Q433 73 431 257Q431 348 408.5 395Q386 442 339 442Q294 442 269.5 396.5Q245 351 245 263V243Q245 163 269 118Q293 73 339 73ZM68 670H10V747Q72 747 111 747.5Q150 748 173 749.5Q196 751 208 753.5Q220 756 228 760L245 750V638Q245 601 245 572.5Q245 544 244.5 520Q244 496 242.5 474.5Q241 453 239 429Q260 477 302.5 501Q345 525 396 525Q443 525 482.5 506Q522 487 551 452.5Q580 418 596.5 369Q613 320 613 259Q613 198 596 148.5Q579 99 549.5 63.5Q520 28 479 9Q438 -10 390 -10Q346 -10 304.5 6.5Q263 23 231 63L101 -10H68Z" glyph-name="b" horiz-adv-x="647" unicode="b" /><glyph d="M464 -100 24 760H129L569 -100Z" glyph-name="backslash" horiz-adv-x="592" unicode="\" /><glyph d="M461 -70 21 790H126L566 -70Z" glyph-name="backslash.cap" horiz-adv-x="587" /><glyph d="M422 -60 29 626H131L523 -60Z" glyph-name="backslash.sc" horiz-adv-x="545" /><glyph d="M488 -100 48 760H153L593 -100Z" glyph-name="backslash.tln" horiz-adv-x="640" /><glyph d="M85 -250V840H174V-250Z" glyph-name="bar" horiz-adv-x="258" unicode="|" /><glyph d="M87 -200V890H176V-200Z" glyph-name="bar.cap" horiz-adv-x="262" /><glyph d="M276 -250V840H365V-250Z" glyph-name="bar.tln" horiz-adv-x="640" /><glyph d="M376 -260Q288 -260 236 -239Q184 -218 157 -184Q130 -150 122 -106.5Q114 -63 114 -18Q114 8 115 34Q116 60 116 84Q116 114 112.5 140Q109 166 97 185.5Q85 205 63.5 216Q42 227 6 227V301Q41 301 62.5 311Q84 321 95.5 338.5Q107 356 111 380Q115 404 115 431Q115 456 113.5 482.5Q112 509 112 536Q112 578 120 618.5Q128 659 155.5 690.5Q183 722 235.5 741Q288 760 376 760V683Q328 683 310 652.5Q292 622 288 576.5Q284 531 285 477.5Q286 424 276.5 377.5Q267 331 238.5 298.5Q210 266 146 263Q210 259 239 224.5Q268 190 277.5 140.5Q287 91 286 34Q285 -23 289 -71Q293 -119 311 -151Q329 -183 376 -183Z" glyph-name="braceleft" horiz-adv-x="404" unicode="{" /><glyph d="M383 -180Q295 -180 243 -159Q191 -138 164 -104Q137 -70 129 -26.5Q121 17 121 62Q121 88 122 114Q123 140 123 164Q123 194 119.5 220Q116 246 104 265.5Q92 285 70.5 296Q49 307 13 307V381Q48 381 69.5 391Q91 401 102.5 418.5Q114 436 118 460Q122 484 122 511Q122 536 120.5 562.5Q119 589 119 616Q119 658 127 698.5Q135 739 162.5 770.5Q190 802 242.5 821Q295 840 383 840V763Q335 763 317 732.5Q299 702 295 656.5Q291 611 292 557.5Q293 504 283.5 457.5Q274 411 245.5 378.5Q217 346 153 343Q217 339 246 304.5Q275 270 284.5 220.5Q294 171 293 114Q292 57 296 9Q300 -39 318 -71Q336 -103 383 -103Z" glyph-name="braceleft.cap" horiz-adv-x="415" /><glyph d="M359 -137Q276 -137 227.5 -120Q179 -103 154 -75.5Q129 -48 122 -12.5Q115 23 115 59Q115 78 116 96.5Q117 115 117 132Q117 156 114 177Q111 198 100.5 213Q90 228 71 237Q52 246 19 246V315Q51 315 70 323Q89 331 99.5 345Q110 359 113 378Q116 397 116 419Q116 437 115 455.5Q114 474 114 494Q114 528 121 561Q128 594 153.5 619.5Q179 645 227.5 660.5Q276 676 359 676V603Q317 603 302 579.5Q287 556 284 521Q281 486 282.5 445Q284 404 274 368Q264 332 234.5 307Q205 282 142 280Q206 277 235 250Q264 223 274.5 184.5Q285 146 284 102.5Q283 59 286 21.5Q289 -16 303.5 -40.5Q318 -65 359 -65Z" glyph-name="braceleft.sc" horiz-adv-x="396" /><glyph d="M494 -260Q406 -260 354 -239Q302 -218 275 -184Q248 -150 240 -106.5Q232 -63 232 -18Q232 8 233 34Q234 60 234 84Q234 114 230.5 140Q227 166 215 185.5Q203 205 181.5 216Q160 227 124 227V301Q159 301 180.5 311Q202 321 213.5 338.5Q225 356 229 380Q233 404 233 431Q233 456 231.5 482.5Q230 509 230 536Q230 578 238 618.5Q246 659 273.5 690.5Q301 722 353.5 741Q406 760 494 760V683Q446 683 428 652.5Q410 622 406 576.5Q402 531 403 477.5Q404 424 394.5 377.5Q385 331 356.5 298.5Q328 266 264 263Q328 259 357 224.5Q386 190 395.5 140.5Q405 91 404 34Q403 -23 407 -71Q411 -119 429 -151Q447 -183 494 -183Z" glyph-name="braceleft.tln" horiz-adv-x="640" /><glyph d="M28 -183Q75 -183 93 -151Q111 -119 115 -71Q119 -23 118 34Q117 91 126.5 140.5Q136 190 165 224.5Q194 259 258 263Q194 266 165.5 298.5Q137 331 127.5 377.5Q118 424 119.5 477.5Q121 531 116.5 576.5Q112 622 94 652.5Q76 683 28 683V760Q117 760 169 741Q221 722 249 690.5Q277 659 285 619Q293 579 293 537Q293 509 291.5 482.5Q290 456 290 430Q290 403 293.5 379Q297 355 308.5 338Q320 321 341.5 311Q363 301 398 301V227Q362 227 340.5 216Q319 205 307 186Q295 167 291.5 141Q288 115 288 85Q288 60 289.5 33.5Q291 7 291 -19Q291 -64 283 -107.5Q275 -151 248 -185Q221 -219 169 -239.5Q117 -260 28 -260Z" glyph-name="braceright" horiz-adv-x="404" unicode="}" /><glyph d="M32 -103Q79 -103 97 -71Q115 -39 119 9Q123 57 122 114Q121 171 130.5 220.5Q140 270 169 304.5Q198 339 262 343Q198 346 169.5 378.5Q141 411 131.5 457.5Q122 504 123.5 557.5Q125 611 120.5 656.5Q116 702 98 732.5Q80 763 32 763V840Q121 840 173 821Q225 802 253 770.5Q281 739 289 699Q297 659 297 617Q297 589 295.5 562.5Q294 536 294 510Q294 483 297.5 459Q301 435 312.5 418Q324 401 345.5 391Q367 381 402 381V307Q366 307 344.5 296Q323 285 311 266Q299 247 295.5 221Q292 195 292 165Q292 140 293.5 113.5Q295 87 295 61Q295 16 287 -27.5Q279 -71 252 -105Q225 -139 173 -159.5Q121 -180 32 -180Z" glyph-name="braceright.cap" horiz-adv-x="415" /><glyph d="M36 -65Q77 -65 91.5 -40.5Q106 -16 109 21Q112 58 111.5 102Q111 146 121 184.5Q131 223 160.5 250Q190 277 253 280Q190 282 161 307Q132 332 122 368Q112 404 113 445Q114 486 111 521Q108 556 93 579.5Q78 603 36 603V676Q119 676 167.5 660.5Q216 645 241 619.5Q266 594 273.5 561.5Q281 529 281 495Q281 475 280 456Q279 437 279 419Q279 397 282 378Q285 359 295.5 345Q306 331 325 323Q344 315 376 315V246Q343 246 323.5 237Q304 228 293.5 212.5Q283 197 280 176Q277 155 277 131Q277 114 278 96Q279 78 279 59Q279 23 272 -12.5Q265 -48 240.5 -75.5Q216 -103 167.5 -120Q119 -137 36 -137Z" glyph-name="braceright.sc" horiz-adv-x="396" /><glyph d="M146 -183Q193 -183 211 -151Q229 -119 233 -71Q237 -23 236 34Q235 91 244.5 140.5Q254 190 283 224.5Q312 259 376 263Q312 266 283.5 298.5Q255 331 245.5 377.5Q236 424 237.5 477.5Q239 531 234.5 576.5Q230 622 212 652.5Q194 683 146 683V760Q235 760 287 741Q339 722 367 690.5Q395 659 403 619Q411 579 411 537Q411 509 409.5 482.5Q408 456 408 430Q408 403 411.5 379Q415 355 426.5 338Q438 321 459.5 311Q481 301 516 301V227Q480 227 458.5 216Q437 205 425 186Q413 167 409.5 141Q406 115 406 85Q406 60 407.5 33.5Q409 7 409 -19Q409 -64 401 -107.5Q393 -151 366 -185Q339 -219 287 -239.5Q235 -260 146 -260Z" glyph-name="braceright.tln" horiz-adv-x="640" /><glyph d="M85 -250V750H406V673H267V-173H406V-250Z" glyph-name="bracketleft" horiz-adv-x="427" unicode="[" /><glyph d="M87 -170V830H408V753H269V-93H408V-170Z" glyph-name="bracketleft.cap" horiz-adv-x="431" /><glyph d="M88 -124V673H390V600H265V-52H390V-124Z" glyph-name="bracketleft.sc" horiz-adv-x="418" /><glyph d="M192 -250V750H513V673H374V-173H513V-250Z" glyph-name="bracketleft.tln" horiz-adv-x="640" /><glyph d="M22 -173H161V673H22V750H343V-250H22Z" glyph-name="bracketright" horiz-adv-x="427" unicode="]" /><glyph d="M24 -93H163V753H24V830H345V-170H24Z" glyph-name="bracketright.cap" horiz-adv-x="431" /><glyph d="M29 -52H153V600H29V673H330V-124H29Z" glyph-name="bracketright.sc" horiz-adv-x="417" /><glyph d="M128 -173H267V673H128V750H449V-250H128Z" glyph-name="bracketright.tln" horiz-adv-x="640" /><glyph d="M213 697Q251 697 269 716Q287 735 291 769H356Q356 740 350 711Q344 682 328 658.5Q312 635 284.5 620.5Q257 606 213 606Q171 606 141.5 620.5Q112 635 94 658.5Q76 682 68 711Q60 740 60 769H125Q131 735 153 716Q175 697 213 697Z" glyph-name="breve" horiz-adv-x="416" unicode="&#728;" /><glyph d="M192 832Q230 832 248.5 848.5Q267 865 272 890H339Q339 864 333.5 837.5Q328 811 312 789.5Q296 768 269 754.5Q242 741 198 741Q155 741 125 754.5Q95 768 76.5 789.5Q58 811 50 837.5Q42 864 42 890H110Q115 865 135.5 848.5Q156 832 192 832Z" glyph-name="breve.cap" horiz-adv-x="381" /><glyph d="M84 400V840H173V400ZM84 -250V190H173V-250Z" glyph-name="brokenbar" horiz-adv-x="256" unicode="&#166;" /><glyph d="M276 400V840H365V400ZM276 -250V190H365V-250Z" glyph-name="brokenbar.tln" horiz-adv-x="640" /><glyph d="M502 150Q482 66 427.5 28Q373 -10 287 -10Q235 -10 188.5 7Q142 24 107.5 58Q73 92 52.5 141.5Q32 191 32 257Q32 323 52.5 373.5Q73 424 108.5 457.5Q144 491 191 508Q238 525 290 525Q337 525 374.5 514Q412 503 438 485Q464 467 478 443Q492 419 492 393Q492 356 473 334.5Q454 313 417 313Q381 313 360.5 330.5Q340 348 340 376Q340 396 348 413Q356 430 375 437Q356 448 323 448Q270 448 242 399Q214 350 214 257Q214 160 245 114Q276 68 332 68Q415 68 441 171Z" glyph-name="c" horiz-adv-x="523" unicode="c" /><glyph d="M772 -10Q691 -10 644 36Q597 82 597 188V435H530V496Q602 496 627.5 518.5Q653 541 653 581Q653 623 624.5 653.5Q596 684 535 684Q500 684 472 671Q444 658 425 635.5Q406 613 397 581.5Q388 550 391 513Q439 499 462.5 472Q486 445 486 413Q486 379 467.5 363Q449 347 421 347Q373 347 348.5 373Q324 399 314 447Q263 442 238.5 392Q214 342 214 258Q214 170 241.5 119Q269 68 329 68Q374 68 400 93Q426 118 440 171L501 150Q481 73 430.5 31.5Q380 -10 295 -10Q238 -10 190 8Q142 26 107 60Q72 94 52 144Q32 194 32 257Q32 325 56 375.5Q80 426 119 459Q158 492 207.5 508.5Q257 525 308 525Q309 578 326.5 621.5Q344 665 376 696Q408 727 452 743.5Q496 760 549 760Q596 760 636.5 748.5Q677 737 707 712.5Q737 688 754 648.5Q771 609 771 553V512H933V435H774V202Q774 144 785.5 111.5Q797 79 828 79Q860 79 871.5 114Q883 149 883 206H946Q946 103 906.5 46.5Q867 -10 772 -10Z" glyph-name="c_t" horiz-adv-x="962" /><glyph d="M763 -10Q735 -10 704 -3.5Q673 3 647.5 22Q622 41 605.5 75.5Q589 110 589 166V435H518V512H589Q589 547 584 578Q579 609 566 632.5Q553 656 530 670Q507 684 471 684Q411 684 384 645.5Q357 607 357 542Q357 536 357 530.5Q357 525 358 520Q419 509 448 480Q477 451 477 412Q477 379 458.5 361.5Q440 344 405 344Q363 344 334 367Q305 390 291 441Q256 427 235 380Q214 333 214 257Q214 160 245 114Q276 68 332 68Q415 68 441 171L502 150Q482 66 427.5 28Q373 -10 287 -10Q235 -10 188.5 7Q142 24 107.5 58Q73 92 52.5 141.5Q32 191 32 257Q32 322 51.5 371Q71 420 105 453.5Q139 487 183.5 505Q228 523 279 525Q278 531 278 537.5Q278 544 278 552Q278 605 293.5 644Q309 683 336 709Q363 735 399.5 747.5Q436 760 477 760Q550 760 601 728.5Q652 697 684 622L786 760L825 750Q806 704 786 646Q766 588 766 512H935V435H766V193Q766 132 777.5 105.5Q789 79 820 79Q838 79 849 92Q860 105 865.5 124.5Q871 144 872.5 166Q874 188 874 206H936Q936 165 930 126Q924 87 905 57Q886 27 852.5 8.5Q819 -10 763 -10Z" glyph-name="c_t.alt" horiz-adv-x="956" /><glyph d="M425 32Q400 10 370 1Q340 -8 294 -8Q234 -8 186 13.5Q138 35 103.5 73Q69 111 50.5 162.5Q32 214 32 275Q32 337 50.5 388.5Q69 440 103.5 478Q138 516 186 537Q234 558 293 558Q337 558 369 549.5Q401 541 421 521L452 557H528V356H442Q439 414 413.5 448Q388 482 334 482Q279 482 246 431.5Q213 381 213 275Q213 165 247 116.5Q281 68 336 68Q363 68 383 78.5Q403 89 416.5 107Q430 125 437.5 148.5Q445 172 446 198H533V-8H456ZM708 72H773V479H750Q700 479 682 458.5Q664 438 664 383V353H579V550H1144V353H1058V383Q1058 439 1040.5 459Q1023 479 973 479H950V72H1015V0H708Z" glyph-name="c_t.alt.sc" horiz-adv-x="1165" /><glyph d="M425 32Q400 10 370 1Q340 -8 294 -8Q234 -8 186 13.5Q138 35 103.5 73Q69 111 50.5 162.5Q32 214 32 275Q32 337 50.5 388.5Q69 440 103.5 478Q138 516 186 537Q234 558 293 558Q337 558 369 549.5Q401 541 421 521L452 557H528V356H442Q439 414 413.5 448Q388 482 334 482Q279 482 246 431.5Q213 381 213 275Q213 165 247 116.5Q281 68 336 68Q363 68 383 78.5Q403 89 416.5 107Q430 125 437.5 148.5Q445 172 446 198H533V-8H456ZM708 72H773V479H750Q700 479 682 458.5Q664 438 664 383V353H579V550H1144V353H1058V383Q1058 439 1040.5 459Q1023 479 973 479H950V72H1015V0H708Z" glyph-name="c_t.sc" horiz-adv-x="1165" /><glyph d="M116 787 232 711 344 787H420L258 612H207L40 787Z" glyph-name="caron" horiz-adv-x="460" unicode="&#711;" /><glyph d="M124 874 218 824 307 874H406L260 740H178L27 874Z" glyph-name="caron.cap" horiz-adv-x="416" /><glyph d="M295 -209Q233 -209 195 -191V-128Q206 -135 219.5 -139.5Q233 -144 250 -144Q286 -144 286 -116Q286 -98 269 -90Q252 -82 221 -82V-65L241 -7Q197 0 158.5 20.5Q120 41 92 74Q64 107 48 153Q32 199 32 257Q32 323 52.5 373.5Q73 424 108.5 457.5Q144 491 191 508Q238 525 290 525Q337 525 374.5 514Q412 503 438 485Q464 467 478 443Q492 419 492 393Q492 356 473 334.5Q454 313 417 313Q381 313 360.5 330.5Q340 348 340 376Q340 396 348 413Q356 430 375 437Q356 448 323 448Q270 448 242 399Q214 350 214 257Q214 160 245 114Q276 68 332 68Q415 68 441 171L502 150Q485 78 441.5 39.5Q398 1 331 -7L320 -40Q360 -45 386.5 -65.5Q413 -86 413 -122Q413 -162 384 -185.5Q355 -209 295 -209Z" glyph-name="ccedilla" horiz-adv-x="523" unicode="&#231;" /><glyph d="M180 -209Q118 -209 80 -191V-128Q91 -135 104.5 -139.5Q118 -144 135 -144Q171 -144 171 -116Q171 -98 154 -90Q137 -82 106 -82V-65L132 10H222L205 -40Q245 -45 271.5 -65.5Q298 -86 298 -122Q298 -162 269 -185.5Q240 -209 180 -209Z" glyph-name="cedilla" horiz-adv-x="367" unicode="&#184;" /><glyph d="M509 230Q492 155 446 117Q400 79 329 72V-20H269V71Q221 75 179 94Q137 113 106 146.5Q75 180 57 228Q39 276 39 337Q39 399 57 446.5Q75 494 106.5 527.5Q138 561 179.5 580.5Q221 600 269 604V691H329V604Q369 600 400.5 588Q432 576 454 558.5Q476 541 487.5 519Q499 497 499 473Q499 436 480 414.5Q461 393 424 393Q388 393 367.5 410.5Q347 428 347 456Q347 476 355 493Q363 510 382 517Q363 528 330 528Q277 528 249 479Q221 430 221 337Q221 240 252 194Q283 148 339 148Q422 148 448 251Z" glyph-name="cent" horiz-adv-x="546" unicode="&#162;" /><glyph d="M507 150Q490 75 444 37Q398 -1 327 -8V-100H267V-9Q219 -5 177 14Q135 33 104 66.5Q73 100 55 148Q37 196 37 257Q37 319 55 366.5Q73 414 104.5 447.5Q136 481 177.5 500.5Q219 520 267 524V611H327V524Q367 520 398.5 508Q430 496 452 478.5Q474 461 485.5 439Q497 417 497 393Q497 356 478 334.5Q459 313 422 313Q386 313 365.5 330.5Q345 348 345 376Q345 396 353 413Q361 430 380 437Q361 448 328 448Q275 448 247 399Q219 350 219 257Q219 160 250 114Q281 68 337 68Q420 68 446 171Z" glyph-name="cent.old" horiz-adv-x="537" /><glyph d="M465 189Q449 129 408 98Q367 67 301 61V-8H244V61Q200 64 162 79.5Q124 95 96 122Q68 149 52 187.5Q36 226 36 275Q36 325 52 363.5Q68 402 96 429Q124 456 162 471.5Q200 487 244 490V558H301V490Q376 484 416 454Q456 424 456 381Q456 352 439 332.5Q422 313 387 313Q353 313 334.5 329Q316 345 316 369Q316 383 321 395Q326 407 338 415Q326 419 307 419Q259 419 236 380.5Q213 342 213 275Q213 207 239 170.5Q265 134 314 134Q384 134 406 209Z" glyph-name="cent.sc" horiz-adv-x="498" /><glyph d="M556 230Q539 155 493 117Q447 79 376 72V-20H316V71Q268 75 226 94Q184 113 153 146.5Q122 180 104 228Q86 276 86 337Q86 399 104 446.5Q122 494 153.5 527.5Q185 561 226.5 580.5Q268 600 316 604V691H376V604Q416 600 447.5 588Q479 576 501 558.5Q523 541 534.5 519Q546 497 546 473Q546 436 527 414.5Q508 393 471 393Q435 393 414.5 410.5Q394 428 394 456Q394 476 402 493Q410 510 429 517Q410 528 377 528Q324 528 296 479Q268 430 268 337Q268 240 299 194Q330 148 386 148Q469 148 495 251Z" glyph-name="cent.tln" horiz-adv-x="640" /><glyph d="M557 150Q540 75 494 37Q448 -1 377 -8V-100H317V-9Q269 -5 227 14Q185 33 154 66.5Q123 100 105 148Q87 196 87 257Q87 319 105 366.5Q123 414 154.5 447.5Q186 481 227.5 500.5Q269 520 317 524V611H377V524Q417 520 448.5 508Q480 496 502 478.5Q524 461 535.5 439Q547 417 547 393Q547 356 528 334.5Q509 313 472 313Q436 313 415.5 330.5Q395 348 395 376Q395 396 403 413Q411 430 430 437Q411 448 378 448Q325 448 297 399Q269 350 269 257Q269 160 300 114Q331 68 387 68Q470 68 496 171Z" glyph-name="cent.ton" horiz-adv-x="640" /><glyph d="M34 612 201 787H252L414 612H338L226 688L110 612Z" glyph-name="circumflex" horiz-adv-x="448" unicode="&#710;" /><glyph d="M39 740 190 874H272L418 740H319L230 790L136 740Z" glyph-name="circumflex.cap" horiz-adv-x="458" /><glyph d="M223 376Q223 346 202 322Q181 298 139 298Q97 298 76 322Q55 346 55 376Q55 408 76 433Q97 458 139 458Q181 458 202 433Q223 408 223 376ZM223 68Q223 38 202 14Q181 -10 139 -10Q97 -10 76 14Q55 38 55 68Q55 100 76 125Q97 150 139 150Q181 150 202 125Q223 100 223 68Z" glyph-name="colon" horiz-adv-x="277" unicode=":" /><glyph d="M404 376Q404 346 383 322Q362 298 320 298Q278 298 257 322Q236 346 236 376Q236 408 257 433Q278 458 320 458Q362 458 383 433Q404 408 404 376ZM404 68Q404 38 383 14Q362 -10 320 -10Q278 -10 257 14Q236 38 236 68Q236 100 257 125Q278 150 320 150Q362 150 383 125Q404 100 404 68Z" glyph-name="colon.tln" horiz-adv-x="640" /><glyph d="M58 -89Q90 -82 109.5 -63.5Q129 -45 133 -13Q94 -8 68.5 11Q43 30 43 68Q43 83 48 98Q53 113 63.5 124.5Q74 136 89.5 143.5Q105 151 126 151Q173 151 195.5 121Q218 91 218 46Q218 13 209 -18.5Q200 -50 180.5 -76Q161 -102 130.5 -120.5Q100 -139 58 -146Z" glyph-name="comma" horiz-adv-x="264" unicode="," /><glyph d="M247 -89Q279 -82 298.5 -63.5Q318 -45 322 -13Q283 -8 257.5 11Q232 30 232 68Q232 83 237 98Q242 113 252.5 124.5Q263 136 278.5 143.5Q294 151 315 151Q362 151 384.5 121Q407 91 407 46Q407 13 398 -18.5Q389 -50 369.5 -76Q350 -102 319.5 -120.5Q289 -139 247 -146Z" glyph-name="comma.tln" horiz-adv-x="640" /><glyph d="M386 -10Q311 -10 247.5 18.5Q184 47 138 95.5Q92 144 66 210Q40 276 40 351Q40 426 66.5 490Q93 554 139.5 600.5Q186 647 249 673.5Q312 700 386 700Q460 700 523.5 673.5Q587 647 633.5 600.5Q680 554 706.5 490Q733 426 733 351Q733 276 706.5 210Q680 144 633.5 95.5Q587 47 523.5 18.5Q460 -10 386 -10ZM386 65Q442 65 490.5 86.5Q539 108 574.5 146Q610 184 630 236.5Q650 289 650 350Q650 411 630 461.5Q610 512 574.5 548.5Q539 585 490.5 605Q442 625 386 625Q329 625 281 605Q233 585 197.5 548.5Q162 512 142 461.5Q122 411 122 350Q122 289 141.5 236.5Q161 184 196 146Q231 108 279.5 86.5Q328 65 386 65ZM454 180Q437 162 417 156Q397 150 373 150Q335 150 305 166.5Q275 183 254.5 211Q234 239 223 275Q212 311 212 350Q212 389 223 425Q234 461 254.5 488Q275 515 305 531.5Q335 548 372 548Q425 548 452 518L470 548H519V407H461Q458 447 442.5 471Q427 495 394 495Q360 495 340 458.5Q320 422 320 350Q320 274 341 238.5Q362 203 397 203Q429 203 444.5 230Q460 257 463 294H522V150H473Z" glyph-name="copyright" horiz-adv-x="772" unicode="&#169;" /><glyph d="M304 -10Q245 -10 196 11.5Q147 33 112 69.5Q77 106 57.5 155.5Q38 205 38 262Q38 319 58 367Q78 415 113.5 450Q149 485 197.5 505Q246 525 304 525Q362 525 411 505Q460 485 496 450Q532 415 552 367Q572 319 572 262Q572 205 552 155.5Q532 106 496 69.5Q460 33 411 11.5Q362 -10 304 -10ZM304 54Q348 54 383.5 69.5Q419 85 445 113Q471 141 485 178.5Q499 216 499 261Q499 306 485 342.5Q471 379 445 405Q419 431 383.5 445.5Q348 460 304 460Q261 460 225 445.5Q189 431 163.5 405Q138 379 124 342.5Q110 306 110 261Q110 216 124 178.5Q138 141 163.5 113Q189 85 224.5 69.5Q260 54 304 54ZM352 136Q330 114 293 114Q265 114 243 126Q221 138 205.5 158.5Q190 179 181.5 205.5Q173 232 173 261Q173 290 181.5 316Q190 342 205.5 362.5Q221 383 243 395Q265 407 292 407Q313 407 327 401Q341 395 350 385L364 407H404V300H356Q354 329 343.5 346Q333 363 309 363Q284 363 273.5 337.5Q263 312 263 261Q263 207 274 182.5Q285 158 311 158Q334 158 344.5 177Q355 196 357 222H406V114H366Z" glyph-name="copyright.old" horiz-adv-x="609" /><glyph d="M330 -8Q267 -8 213.5 14Q160 36 121 75Q82 114 60 166.5Q38 219 38 280Q38 341 60.5 392Q83 443 122 480Q161 517 214.5 537.5Q268 558 330 558Q393 558 447 537.5Q501 517 540 480Q579 443 601.5 392Q624 341 624 280Q624 219 601.5 166.5Q579 114 540 75Q501 36 447 14Q393 -8 330 -8ZM330 52Q380 52 421.5 69Q463 86 493.5 116Q524 146 541 188Q558 230 558 279Q558 328 541 368.5Q524 409 493.5 437.5Q463 466 421.5 482Q380 498 330 498Q281 498 239.5 482Q198 466 167.5 437.5Q137 409 120 368.5Q103 328 103 279Q103 230 120 188Q137 146 167 116Q197 86 238.5 69Q280 52 330 52ZM382 145Q355 123 315 123Q284 123 259.5 135.5Q235 148 217.5 169.5Q200 191 191 219.5Q182 248 182 279Q182 311 191.5 339Q201 367 218 388Q235 409 259.5 421Q284 433 315 433Q340 433 355 426.5Q370 420 381 412L396 433H441V321H388Q386 350 374.5 368Q363 386 337 386Q309 386 293.5 359.5Q278 333 278 279Q278 221 293.5 196Q309 171 337 171Q363 171 375.5 191.5Q388 212 390 238H442V123H397Z" glyph-name="copyright.sc" horiz-adv-x="661" /><glyph d="M319 -10Q260 -10 211 11.5Q162 33 127 69.5Q92 106 72.5 155.5Q53 205 53 262Q53 319 73 367Q93 415 128.5 450Q164 485 212.5 505Q261 525 319 525Q377 525 426 505Q475 485 511 450Q547 415 567 367Q587 319 587 262Q587 205 567 155.5Q547 106 511 69.5Q475 33 426 11.5Q377 -10 319 -10ZM319 54Q363 54 398.5 69.5Q434 85 460 113Q486 141 500 178.5Q514 216 514 261Q514 306 500 342.5Q486 379 460 405Q434 431 398.5 445.5Q363 460 319 460Q276 460 240 445.5Q204 431 178.5 405Q153 379 139 342.5Q125 306 125 261Q125 216 139 178.5Q153 141 178.5 113Q204 85 239.5 69.5Q275 54 319 54ZM367 136Q345 114 308 114Q280 114 258 126Q236 138 220.5 158.5Q205 179 196.5 205.5Q188 232 188 261Q188 290 196.5 316Q205 342 220.5 362.5Q236 383 258 395Q280 407 307 407Q328 407 342 401Q356 395 365 385L379 407H419V300H371Q369 329 358.5 346Q348 363 324 363Q299 363 288.5 337.5Q278 312 278 261Q278 207 289 182.5Q300 158 326 158Q349 158 359.5 177Q370 196 372 222H421V114H381Z" glyph-name="copyright.tln" horiz-adv-x="640" /><glyph d="M319 -10Q260 -10 211 11.5Q162 33 127 69.5Q92 106 72.5 155.5Q53 205 53 262Q53 319 73 367Q93 415 128.5 450Q164 485 212.5 505Q261 525 319 525Q377 525 426 505Q475 485 511 450Q547 415 567 367Q587 319 587 262Q587 205 567 155.5Q547 106 511 69.5Q475 33 426 11.5Q377 -10 319 -10ZM319 54Q363 54 398.5 69.5Q434 85 460 113Q486 141 500 178.5Q514 216 514 261Q514 306 500 342.5Q486 379 460 405Q434 431 398.5 445.5Q363 460 319 460Q276 460 240 445.5Q204 431 178.5 405Q153 379 139 342.5Q125 306 125 261Q125 216 139 178.5Q153 141 178.5 113Q204 85 239.5 69.5Q275 54 319 54ZM367 136Q345 114 308 114Q280 114 258 126Q236 138 220.5 158.5Q205 179 196.5 205.5Q188 232 188 261Q188 290 196.5 316Q205 342 220.5 362.5Q236 383 258 395Q280 407 307 407Q328 407 342 401Q356 395 365 385L379 407H419V300H371Q369 329 358.5 346Q348 363 324 363Q299 363 288.5 337.5Q278 312 278 261Q278 207 289 182.5Q300 158 326 158Q349 158 359.5 177Q370 196 372 222H421V114H381Z" glyph-name="copyright.ton" horiz-adv-x="640" /><glyph d="M364 150Q323 125 275 125Q250 125 227 132Q204 139 184 151L100 68L43 127L125 208Q97 253 97 305Q97 329 103.5 353.5Q110 378 124 398L43 478L102 539L185 457Q205 471 228 477.5Q251 484 275 484Q326 484 367 458L449 539L506 480L426 401Q455 357 455 305Q455 252 427 208L506 129L447 68ZM275 396Q237 396 212 368.5Q187 341 187 302Q187 263 212 235Q237 207 275 207Q313 207 339.5 234.5Q366 262 366 302Q366 341 339.5 368.5Q313 396 275 396Z" glyph-name="currency" horiz-adv-x="549" unicode="&#164;" /><glyph d="M312 128Q295 120 277.5 114.5Q260 109 240 109Q219 109 200 114.5Q181 120 164 130L94 61L45 112L114 182Q90 217 90 260Q90 300 113 332L45 398L96 451L165 385Q200 405 240 405Q280 405 314 385L383 451L432 400L365 335Q390 301 390 260Q390 217 366 181L432 114L381 61ZM240 329Q208 330 187.5 309Q167 288 167 257Q167 227 187.5 206.5Q208 186 240 185Q272 185 292.5 205.5Q313 226 313 257Q313 288 292.5 308.5Q272 329 240 329Z" glyph-name="currency.sc" horiz-adv-x="477" /><glyph d="M410 150Q369 125 321 125Q296 125 273 132Q250 139 230 151L146 68L89 127L171 208Q143 253 143 305Q143 329 149.5 353.5Q156 378 170 398L89 478L148 539L231 457Q251 471 274 477.5Q297 484 321 484Q372 484 413 458L495 539L552 480L472 401Q501 357 501 305Q501 252 473 208L552 129L493 68ZM321 396Q283 396 258 368.5Q233 341 233 302Q233 263 258 235Q283 207 321 207Q359 207 385.5 234.5Q412 262 412 302Q412 341 385.5 368.5Q359 396 321 396Z" glyph-name="currency.tln" horiz-adv-x="640" /><glyph d="M235 600Q147 600 95 631Q43 662 43 721Q43 759 64 780Q85 801 118 801Q151 801 171.5 781.5Q192 762 192 733Q192 710 182.5 695.5Q173 681 157 673Q165 665 184.5 658Q204 651 236 651Q268 651 287.5 658Q307 665 315 673Q280 689 280 733Q280 762 299.5 781.5Q319 801 353 801Q385 801 407 780Q429 759 429 721Q429 661 376 630.5Q323 600 235 600Z" glyph-name="cyrbreve" horiz-adv-x="488" unicode="&#63188;" /><glyph d="M245 731Q158 731 109 759Q60 787 60 838Q60 870 80 889Q100 908 132 908Q170 908 187 889Q204 870 204 846Q204 812 175 797Q186 789 204 786Q222 783 245 783Q269 783 287 785.5Q305 788 316 796Q287 813 287 846Q287 870 305 889Q323 908 360 908Q393 908 412 889Q431 870 431 838Q431 787 382 759Q333 731 245 731Z" glyph-name="cyrbreve.cap" horiz-adv-x="492" /><glyph d="M579 81H637V5Q585 5 550 4.5Q515 4 492.5 2Q470 0 456.5 -3Q443 -6 434 -10L415 0V99Q392 38 350.5 14Q309 -10 263 -10Q222 -10 181 6.5Q140 23 107 56.5Q74 90 53.5 140Q33 190 33 257Q33 322 53.5 372Q74 422 107 456Q140 490 181.5 507.5Q223 525 264 525Q317 525 355.5 502Q394 479 408 443Q406 496 403.5 538Q401 580 401 625V670H343V747Q403 747 441.5 747.5Q480 748 504 749.5Q528 751 541 753.5Q554 756 561 760L579 750ZM312 442Q267 442 241.5 394.5Q216 347 215 256Q214 165 240.5 119Q267 73 312 73Q355 73 378.5 118.5Q402 164 402 251V271Q402 356 378.5 399Q355 442 312 442Z" glyph-name="d" horiz-adv-x="662" unicode="d" /><glyph d="M177 433Q144 433 118 443.5Q92 454 74 472Q56 490 46.5 514.5Q37 539 37 566Q37 593 47 617.5Q57 642 75 660.5Q93 679 119 690Q145 701 177 701Q209 701 234.5 690.5Q260 680 278 661.5Q296 643 306 618.5Q316 594 316 566Q316 539 306 514.5Q296 490 278 472Q260 454 234.5 443.5Q209 433 177 433ZM177 489Q212 489 233 511.5Q254 534 253 566Q252 600 231.5 622.5Q211 645 177 645Q142 645 121.5 623Q101 601 101 566Q101 534 121.5 511.5Q142 489 177 489Z" glyph-name="degree" horiz-adv-x="352" unicode="&#176;" /><glyph d="M321 433Q288 433 262 443.5Q236 454 218 472Q200 490 190.5 514.5Q181 539 181 566Q181 593 191 617.5Q201 642 219 660.5Q237 679 263 690Q289 701 321 701Q353 701 378.5 690.5Q404 680 422 661.5Q440 643 450 618.5Q460 594 460 566Q460 539 450 514.5Q440 490 422 472Q404 454 378.5 443.5Q353 433 321 433ZM321 489Q356 489 377 511.5Q398 534 397 566Q396 600 375.5 622.5Q355 645 321 645Q286 645 265.5 623Q245 601 245 566Q245 534 265.5 511.5Q286 489 321 489Z" glyph-name="degree.tln" horiz-adv-x="640" /><glyph d="M250 686Q250 655 229.5 631.5Q209 608 169 608Q130 608 109.5 631.5Q89 655 89 686Q89 716 109.5 741Q130 766 169 766Q209 766 229.5 741Q250 716 250 686ZM460 686Q460 655 440 631.5Q420 608 379 608Q340 608 319.5 631.5Q299 655 299 686Q299 716 319.5 741Q340 766 379 766Q420 766 440 741Q460 716 460 686Z" glyph-name="dieresis" horiz-adv-x="517" unicode="&#168;" /><glyph d="M187 815Q187 787 168 766Q149 745 114 745Q79 745 60.5 766Q42 787 42 815Q42 842 60.5 864.5Q79 887 114 887Q149 887 168 864.5Q187 842 187 815ZM388 815Q388 787 369.5 766Q351 745 316 745Q281 745 262.5 766Q244 787 244 815Q244 842 262.5 864.5Q281 887 316 887Q351 887 369.5 864.5Q388 842 388 815Z" glyph-name="dieresis.cap" horiz-adv-x="430" /><glyph d="M346 519Q346 489 325 465Q304 441 262 441Q220 441 199 465Q178 489 178 519Q178 551 199 576Q220 601 262 601Q304 601 325 576Q346 551 346 519ZM477 385V306H41V385ZM346 171Q346 141 325 117Q304 93 262 93Q220 93 199 117Q178 141 178 171Q178 203 199 228Q220 253 262 253Q304 253 325 228Q346 203 346 171Z" glyph-name="divide" horiz-adv-x="517" unicode="&#247;" /><glyph d="M342 429Q342 399 321 375Q300 351 258 351Q216 351 195 375Q174 399 174 429Q174 461 195 486Q216 511 258 511Q300 511 321 486Q342 461 342 429ZM473 295V216H37V295ZM342 81Q342 51 321 27Q300 3 258 3Q216 3 195 27Q174 51 174 81Q174 113 195 138Q216 163 258 163Q300 163 321 138Q342 113 342 81Z" glyph-name="divide.old" horiz-adv-x="509" /><glyph d="M312 419Q312 393 293.5 372.5Q275 352 236 352Q198 352 179 372.5Q160 393 160 419Q160 448 179 469.5Q198 491 236 491Q275 491 293.5 469.5Q312 448 312 419ZM425 311V241H39V311ZM312 131Q312 104 293.5 83.5Q275 63 236 63Q198 63 179 83.5Q160 104 160 131Q160 159 179 180.5Q198 202 236 202Q275 202 293.5 180.5Q312 159 312 131Z" glyph-name="divide.sc" horiz-adv-x="464" /><glyph d="M408 519Q408 489 387 465Q366 441 324 441Q282 441 261 465Q240 489 240 519Q240 551 261 576Q282 601 324 601Q366 601 387 576Q408 551 408 519ZM539 385V306H103V385ZM408 171Q408 141 387 117Q366 93 324 93Q282 93 261 117Q240 141 240 171Q240 203 261 228Q282 253 324 253Q366 253 387 228Q408 203 408 171Z" glyph-name="divide.tln" horiz-adv-x="640" /><glyph d="M408 429Q408 399 387 375Q366 351 324 351Q282 351 261 375Q240 399 240 429Q240 461 261 486Q282 511 324 511Q366 511 387 486Q408 461 408 429ZM539 295V216H103V295ZM408 81Q408 51 387 27Q366 3 324 3Q282 3 261 27Q240 51 240 81Q240 113 261 138Q282 163 324 163Q366 163 387 138Q408 113 408 81Z" glyph-name="divide.ton" horiz-adv-x="640" /><glyph d="M277 -110H202V1Q125 19 82.5 56.5Q40 94 40 139Q40 181 64.5 201Q89 221 126 221Q162 221 184.5 201.5Q207 182 207 150Q207 136 200 121.5Q193 107 173 96Q202 82 231.5 78.5Q261 75 287 75Q341 75 363.5 95.5Q386 116 386 151Q386 203 351 231Q316 259 245 284Q195 303 157.5 322.5Q120 342 95 367.5Q70 393 57.5 425.5Q45 458 45 502Q45 566 86 614.5Q127 663 202 685V801H277V699Q290 701 303.5 700.5Q317 700 331 700V801H406V692Q484 678 524.5 642.5Q565 607 565 557Q565 515 541 496Q517 477 482 477Q447 477 422.5 496Q398 515 398 547Q398 561 405 576.5Q412 592 428 604Q405 616 378.5 617.5Q352 619 334 619Q283 619 254 596.5Q225 574 225 529Q225 503 235 484Q245 465 264.5 450.5Q284 436 314 424Q344 412 383 398Q416 386 448.5 370.5Q481 355 507 331Q533 307 549.5 271.5Q566 236 566 184Q566 118 527 67.5Q488 17 406 -2V-110H331V-11Q317 -11 303.5 -11Q290 -11 277 -10Z" glyph-name="dollar" horiz-adv-x="608" unicode="$" /><glyph d="M296 -10Q285 -10 275.5 -10Q266 -10 258 -9V-100H197V-3Q119 8 79.5 39Q40 70 40 114Q40 147 60 168.5Q80 190 117 190Q154 190 172.5 172Q191 154 191 128Q191 117 186.5 104Q182 91 168 80Q192 71 213.5 69Q235 67 254 67Q342 67 342 121Q342 155 308.5 176.5Q275 198 198 222Q122 245 83.5 278.5Q45 312 45 374Q45 431 86.5 467.5Q128 504 197 518V611H258V525H296V611H356V519Q432 508 471 478Q510 448 510 404Q510 369 490.5 348Q471 327 434 327Q396 327 376 345Q356 363 356 390Q356 401 360 414Q364 427 377 439Q360 445 340.5 446.5Q321 448 306 448Q260 448 237.5 431.5Q215 415 215 394Q215 376 224.5 363.5Q234 351 252 340.5Q270 330 296 320.5Q322 311 356 299Q385 289 413 276.5Q441 264 463 246.5Q485 229 498.5 204Q512 179 512 143Q512 83 473 44Q434 5 356 -6V-100H296Z" glyph-name="dollar.old" horiz-adv-x="554" /><glyph d="M254 -88H187V-1Q117 10 78.5 38Q40 66 40 111Q40 146 63 162.5Q86 179 120 179Q156 179 177 163.5Q198 148 198 117Q198 105 193 95Q188 85 183 81Q209 68 261 68Q302 68 322 83Q342 98 342 124Q342 163 310.5 183Q279 203 221 223Q179 238 146 254Q113 270 90.5 290.5Q68 311 56.5 337Q45 363 45 398Q45 453 81.5 491.5Q118 530 187 547V638H254V557Q268 559 280.5 558.5Q293 558 307 558V638H374V552Q449 541 483.5 512.5Q518 484 518 444Q518 406 496.5 389.5Q475 373 442 373Q407 373 384 388.5Q361 404 361 435Q361 448 366.5 456.5Q372 465 380 469Q366 477 346 479.5Q326 482 309 482Q269 482 245 467Q221 452 221 420Q221 383 253.5 361.5Q286 340 357 318Q386 309 414.5 296.5Q443 284 466 265.5Q489 247 503.5 219.5Q518 192 518 152Q518 96 484.5 55.5Q451 15 374 0V-88H307V-8Q293 -8 280 -8.5Q267 -9 254 -7Z" glyph-name="dollar.sc" horiz-adv-x="562" /><glyph d="M292 -110H217V1Q140 19 97.5 56.5Q55 94 55 139Q55 181 79.5 201Q104 221 141 221Q177 221 199.5 201.5Q222 182 222 150Q222 136 215 121.5Q208 107 188 96Q217 82 246.5 78.5Q276 75 302 75Q356 75 378.5 95.5Q401 116 401 151Q401 203 366 231Q331 259 260 284Q210 303 172.5 322.5Q135 342 110 367.5Q85 393 72.5 425.5Q60 458 60 502Q60 566 101 614.5Q142 663 217 685V801H292V699Q305 701 318.5 700.5Q332 700 346 700V801H421V692Q499 678 539.5 642.5Q580 607 580 557Q580 515 556 496Q532 477 497 477Q462 477 437.5 496Q413 515 413 547Q413 561 420 576.5Q427 592 443 604Q420 616 393.5 617.5Q367 619 349 619Q298 619 269 596.5Q240 574 240 529Q240 503 250 484Q260 465 279.5 450.5Q299 436 329 424Q359 412 398 398Q431 386 463.5 370.5Q496 355 522 331Q548 307 564.5 271.5Q581 236 581 184Q581 118 542 67.5Q503 17 421 -2V-110H346V-11Q332 -11 318.5 -11Q305 -11 292 -10Z" glyph-name="dollar.tln" horiz-adv-x="640" /><glyph d="M339 -10Q328 -10 318.5 -10Q309 -10 301 -9V-100H240V-3Q162 8 122.5 39Q83 70 83 114Q83 147 103 168.5Q123 190 160 190Q197 190 215.5 172Q234 154 234 128Q234 117 229.5 104Q225 91 211 80Q235 71 256.5 69Q278 67 297 67Q385 67 385 121Q385 155 351.5 176.5Q318 198 241 222Q165 245 126.5 278.5Q88 312 88 374Q88 431 129.5 467.5Q171 504 240 518V611H301V525H339V611H399V519Q475 508 514 478Q553 448 553 404Q553 369 533.5 348Q514 327 477 327Q439 327 419 345Q399 363 399 390Q399 401 403 414Q407 427 420 439Q403 445 383.5 446.5Q364 448 349 448Q303 448 280.5 431.5Q258 415 258 394Q258 376 267.5 363.5Q277 351 295 340.5Q313 330 339 320.5Q365 311 399 299Q428 289 456 276.5Q484 264 506 246.5Q528 229 541.5 204Q555 179 555 143Q555 83 516 44Q477 5 399 -6V-100H339Z" glyph-name="dollar.ton" horiz-adv-x="640" /><glyph d="M244 686Q244 655 223.5 631.5Q203 608 163 608Q124 608 103 631.5Q82 655 82 686Q82 716 103 741Q124 766 163 766Q203 766 223.5 741Q244 716 244 686Z" glyph-name="dotaccent" horiz-adv-x="331" unicode="&#729;" /><glyph d="M145 745Q112 745 91 765Q70 785 70 817Q70 850 91 870.5Q112 891 145 891Q180 891 200.5 870.5Q221 850 221 817Q221 785 200.5 765Q180 745 145 745Z" glyph-name="dotaccent.cap" horiz-adv-x="291" /><glyph d="M273 77H331V0H37V77H96V435H37V512Q94 512 133 512.5Q172 513 196.5 514.5Q221 516 234.5 518.5Q248 521 255 525L273 515Z" glyph-name="dotlessi" horiz-adv-x="357" unicode="&#305;" /><glyph d="M304 -10Q246 -10 196.5 7.5Q147 25 110.5 59Q74 93 53 143.5Q32 194 32 259Q32 321 53 370Q74 419 110 453.5Q146 488 193.5 506.5Q241 525 294 525Q358 525 405.5 505.5Q453 486 484 453Q515 420 530 375.5Q545 331 545 280V241H210V228Q210 150 245 110Q280 70 343 70Q402 70 432.5 97.5Q463 125 479 167L539 146Q530 113 512 84.5Q494 56 465.5 35Q437 14 397 2Q357 -10 304 -10ZM292 455Q249 455 230.5 413Q212 371 210 295H366Q366 330 363 359.5Q360 389 351.5 410Q343 431 328.5 443Q314 455 292 455Z" glyph-name="e" horiz-adv-x="576" unicode="e" /><glyph d="M304 -10Q246 -10 196.5 7.5Q147 25 110.5 59Q74 93 53 143.5Q32 194 32 259Q32 321 53 370Q74 419 110 453.5Q146 488 193.5 506.5Q241 525 294 525Q358 525 405.5 505.5Q453 486 484 453Q515 420 530 375.5Q545 331 545 280V241H210V228Q210 150 245 110Q280 70 343 70Q402 70 432.5 97.5Q463 125 479 167L539 146Q530 113 512 84.5Q494 56 465.5 35Q437 14 397 2Q357 -10 304 -10ZM292 455Q249 455 230.5 413Q212 371 210 295H366Q366 330 363 359.5Q360 389 351.5 410Q343 431 328.5 443Q314 455 292 455ZM244 613 298 698Q331 748 360.5 764Q390 780 424 780Q462 780 476.5 765.5Q491 751 491 731Q491 722 487.5 713Q484 704 473.5 694Q463 684 443 673Q423 662 390 648L302 613Z" glyph-name="eacute" horiz-adv-x="576" unicode="&#233;" /><glyph d="M304 -10Q246 -10 196.5 7.5Q147 25 110.5 59Q74 93 53 143.5Q32 194 32 259Q32 321 53 370Q74 419 110 453.5Q146 488 193.5 506.5Q241 525 294 525Q358 525 405.5 505.5Q453 486 484 453Q515 420 530 375.5Q545 331 545 280V241H210V228Q210 150 245 110Q280 70 343 70Q402 70 432.5 97.5Q463 125 479 167L539 146Q530 113 512 84.5Q494 56 465.5 35Q437 14 397 2Q357 -10 304 -10ZM292 455Q249 455 230.5 413Q212 371 210 295H366Q366 330 363 359.5Q360 389 351.5 410Q343 431 328.5 443Q314 455 292 455ZM102 612 269 787H320L482 612H406L294 688L178 612Z" glyph-name="ecircumflex" horiz-adv-x="576" unicode="&#234;" /><glyph d="M304 -10Q246 -10 196.5 7.5Q147 25 110.5 59Q74 93 53 143.5Q32 194 32 259Q32 321 53 370Q74 419 110 453.5Q146 488 193.5 506.5Q241 525 294 525Q358 525 405.5 505.5Q453 486 484 453Q515 420 530 375.5Q545 331 545 280V241H210V228Q210 150 245 110Q280 70 343 70Q402 70 432.5 97.5Q463 125 479 167L539 146Q530 113 512 84.5Q494 56 465.5 35Q437 14 397 2Q357 -10 304 -10ZM292 455Q249 455 230.5 413Q212 371 210 295H366Q366 330 363 359.5Q360 389 351.5 410Q343 431 328.5 443Q314 455 292 455ZM270 685Q270 654 249.5 630.5Q229 607 189 607Q150 607 129.5 630.5Q109 654 109 685Q109 715 129.5 740Q150 765 189 765Q229 765 249.5 740Q270 715 270 685ZM480 685Q480 654 460 630.5Q440 607 399 607Q360 607 339.5 630.5Q319 654 319 685Q319 715 339.5 740Q360 765 399 765Q440 765 460 740Q480 715 480 685Z" glyph-name="edieresis" horiz-adv-x="576" unicode="&#235;" /><glyph d="M304 -10Q246 -10 196.5 7.5Q147 25 110.5 59Q74 93 53 143.5Q32 194 32 259Q32 321 53 370Q74 419 110 453.5Q146 488 193.5 506.5Q241 525 294 525Q358 525 405.5 505.5Q453 486 484 453Q515 420 530 375.5Q545 331 545 280V241H210V228Q210 150 245 110Q280 70 343 70Q402 70 432.5 97.5Q463 125 479 167L539 146Q530 113 512 84.5Q494 56 465.5 35Q437 14 397 2Q357 -10 304 -10ZM292 455Q249 455 230.5 413Q212 371 210 295H366Q366 330 363 359.5Q360 389 351.5 410Q343 431 328.5 443Q314 455 292 455ZM204 648Q171 662 151 673Q131 684 120.5 694Q110 704 106.5 713Q103 722 103 731Q103 751 119 765.5Q135 780 173 780Q207 780 233.5 766.5Q260 753 286 712L350 613H292Z" glyph-name="egrave" horiz-adv-x="576" unicode="&#232;" /><glyph d="M331 -10Q257 -10 202.5 6Q148 22 112 49Q76 76 58.5 111.5Q41 147 41 186Q41 219 50 246.5Q59 274 81 296.5Q103 319 138.5 336.5Q174 354 227 367Q140 390 102 431.5Q64 473 64 528Q64 565 82.5 596.5Q101 628 135.5 651Q170 674 219.5 687Q269 700 330 700Q392 700 441.5 687Q491 674 526 651Q561 628 579.5 596.5Q598 565 598 528Q598 473 560 431Q522 389 440 367Q541 342 581.5 296.5Q622 251 622 186Q622 147 604.5 111.5Q587 76 551 49Q515 22 460.5 6Q406 -10 331 -10ZM331 399Q366 399 390 432Q414 465 414 522Q414 568 390 599.5Q366 631 330 631Q292 631 270 599Q248 567 248 521Q248 465 271 432Q294 399 331 399ZM331 59Q376 59 406 94Q436 129 435 189Q433 259 406 295Q379 331 331 331Q285 331 257 295.5Q229 260 228 190Q227 130 256.5 94.5Q286 59 331 59Z" glyph-name="eight" horiz-adv-x="662" unicode="8" /><glyph d="M248 -157Q192 -157 151 -147Q110 -137 83 -119.5Q56 -102 43 -78.5Q30 -55 30 -29Q30 16 60 45Q90 74 164 89Q101 104 73 130.5Q45 157 45 194Q45 245 98.5 276Q152 307 247 307Q341 307 395.5 276Q450 245 450 194Q450 157 422 130Q394 103 334 89Q405 75 434.5 45.5Q464 16 464 -29Q464 -55 451 -78.5Q438 -102 411.5 -119.5Q385 -137 344.5 -147Q304 -157 248 -157ZM248 115Q271 115 285 134Q299 153 299 186Q299 215 285.5 233.5Q272 252 247 252Q221 252 208 233Q195 214 195 186Q195 153 208.5 134Q222 115 248 115ZM248 -102Q276 -102 294 -80Q312 -58 312 -20Q312 17 294.5 39Q277 61 248 61Q219 61 201.5 39Q184 17 183 -21Q183 -59 201 -80.5Q219 -102 248 -102Z" glyph-name="eight.inferior" horiz-adv-x="495" /><glyph d="M322 -10Q247 -10 193.5 6Q140 22 105.5 49Q71 76 55 111.5Q39 147 39 186Q39 219 47.5 246.5Q56 274 76.5 296.5Q97 319 132 336.5Q167 354 220 367Q133 390 97.5 431.5Q62 473 62 528Q62 565 79.5 596.5Q97 628 130 651Q163 674 211 687Q259 700 321 700Q383 700 431.5 687Q480 674 513.5 651Q547 628 564.5 596.5Q582 565 582 528Q582 473 547.5 431Q513 389 431 367Q481 354 514.5 336.5Q548 319 568 296.5Q588 274 596.5 246.5Q605 219 605 186Q605 147 589 111.5Q573 76 538.5 49Q504 22 450.5 6Q397 -10 322 -10ZM322 398Q358 398 380 431.5Q402 465 402 522Q402 568 380.5 600.5Q359 633 321 633Q282 633 261.5 600Q241 567 241 521Q241 466 262.5 432Q284 398 322 398ZM322 57Q369 57 396.5 93Q424 129 423 189Q422 259 396.5 295.5Q371 332 322 332Q274 332 248 296Q222 260 221 190Q220 130 247.5 93.5Q275 57 322 57Z" glyph-name="eight.old" horiz-adv-x="644" /><glyph d="M306 -8Q236 -8 185.5 4.5Q135 17 102 38.5Q69 60 53.5 88.5Q38 117 38 148Q38 175 46.5 197Q55 219 74.5 237Q94 255 127 269Q160 283 208 293Q129 311 93.5 343.5Q58 376 58 421Q58 482 122.5 520Q187 558 305 558Q423 558 488 520Q553 482 553 421Q553 376 518 343Q483 310 408 293Q499 273 535.5 237Q572 201 572 148Q572 117 556.5 88.5Q541 60 508.5 38.5Q476 17 426 4.5Q376 -8 306 -8ZM306 321Q335 321 354 345.5Q373 370 373 414Q373 449 354.5 472.5Q336 496 305 496Q271 496 254 472Q237 448 237 413Q237 371 254.5 346Q272 321 306 321ZM306 54Q344 54 368 81Q392 108 391 152Q390 204 368.5 232Q347 260 306 260Q264 260 242 232.5Q220 205 219 152Q219 108 242.5 81Q266 54 306 54Z" glyph-name="eight.sc" horiz-adv-x="610" /><glyph d="M248 427Q192 427 151 437Q110 447 83 464.5Q56 482 43 505.5Q30 529 30 555Q30 600 60 629Q90 658 164 673Q101 688 73 714.5Q45 741 45 778Q45 829 98.5 860Q152 891 247 891Q341 891 395.5 860Q450 829 450 778Q450 741 422 714Q394 687 334 673Q405 659 434.5 629.5Q464 600 464 555Q464 529 451 505.5Q438 482 411.5 464.5Q385 447 344.5 437Q304 427 248 427ZM248 699Q271 699 285 718Q299 737 299 770Q299 799 285.5 817.5Q272 836 247 836Q221 836 208 817Q195 798 195 770Q195 737 208.5 718Q222 699 248 699ZM248 482Q276 482 294 504Q312 526 312 564Q312 601 294.5 623Q277 645 248 645Q219 645 201.5 623Q184 601 183 563Q183 525 201 503.5Q219 482 248 482Z" glyph-name="eight.superior" horiz-adv-x="495" /><glyph d="M320 -10Q249 -10 196.5 6Q144 22 109.5 49Q75 76 58 111.5Q41 147 41 186Q41 219 50.5 246.5Q60 274 81.5 296.5Q103 319 139 336.5Q175 354 228 367Q141 390 102.5 431.5Q64 473 64 528Q64 565 82 596.5Q100 628 133 651Q166 674 213 687Q260 700 319 700Q378 700 425.5 687Q473 674 506.5 651Q540 628 558 596.5Q576 565 576 528Q576 473 537.5 431Q499 389 417 367Q518 342 558.5 296.5Q599 251 599 186Q599 147 582 111.5Q565 76 530.5 49Q496 22 443.5 6Q391 -10 320 -10ZM320 399Q352 399 374.5 432Q397 465 397 522Q397 568 374.5 599.5Q352 631 319 631Q284 631 263.5 599Q243 567 243 521Q243 466 264 432.5Q285 399 320 399ZM320 59Q362 59 390.5 94Q419 129 418 189Q417 259 391 295Q365 331 320 331Q276 331 249.5 295.5Q223 260 222 190Q221 130 249.5 94.5Q278 59 320 59Z" glyph-name="eight.tln" horiz-adv-x="640" /><glyph d="M320 -10Q249 -10 197.5 6Q146 22 113 49Q80 76 64 111.5Q48 147 48 186Q48 219 56.5 246.5Q65 274 86 296.5Q107 319 142 336.5Q177 354 230 367Q143 390 107.5 431.5Q72 473 72 528Q72 565 88.5 596.5Q105 628 136.5 651Q168 674 214 687Q260 700 319 700Q378 700 424 687Q470 674 502 651Q534 628 551 596.5Q568 565 568 528Q568 473 533.5 431Q499 389 417 367Q467 354 500.5 336.5Q534 319 554 296.5Q574 274 582.5 246.5Q591 219 591 186Q591 147 575.5 111.5Q560 76 527 49Q494 22 442.5 6Q391 -10 320 -10ZM320 398Q354 398 374 431.5Q394 465 394 522Q394 568 374 600.5Q354 633 319 633Q282 633 263.5 600Q245 567 245 521Q245 466 264.5 432Q284 398 320 398ZM320 57Q364 57 390 93Q416 129 415 189Q414 259 390 295.5Q366 332 320 332Q275 332 250.5 296Q226 260 225 190Q223 130 249.5 93.5Q276 57 320 57Z" glyph-name="eight.ton" horiz-adv-x="640" /><glyph d="M60 468H456V389H60ZM60 308H456V229H60Z" glyph-name="equal" horiz-adv-x="515" unicode="=" /><glyph d="M57 388H453V309H57ZM57 228H453V149H57Z" glyph-name="equal.old" horiz-adv-x="510" /><glyph d="M58 380H400V310H58ZM58 246H400V176H58Z" glyph-name="equal.sc" horiz-adv-x="458" /><glyph d="M122 468H518V389H122ZM122 308H518V229H122Z" glyph-name="equal.tln" horiz-adv-x="640" /><glyph d="M122 388H518V309H122ZM122 228H518V149H122Z" glyph-name="equal.ton" horiz-adv-x="640" /><glyph d="M313 -10Q246 -10 193.5 11.5Q141 33 105 70Q69 107 50 156Q31 205 31 259Q31 313 50 361.5Q69 410 105 446Q141 482 193.5 503.5Q246 525 313 525Q352 525 383 514Q374 544 359.5 570.5Q345 597 325 619L253 563H158L278 656Q231 686 156 693V760Q209 757 257 744Q305 731 347 710L405 755H500L401 678Q489 617 539.5 521.5Q590 426 590 311Q590 237 572 177.5Q554 118 518.5 76.5Q483 35 431.5 12.5Q380 -10 313 -10ZM313 67Q361 67 384.5 123.5Q408 180 408 308Q408 339 406.5 369Q405 399 401 428Q385 439 367.5 443.5Q350 448 331 448Q271 448 242 396Q213 344 213 259Q213 169 239 118Q265 67 313 67Z" glyph-name="eth" horiz-adv-x="628" unicode="&#240;" /><glyph d="M138 206Q138 291 123.5 347.5Q109 404 91.5 445.5Q74 487 59.5 520.5Q45 554 45 591Q45 618 56 638Q67 658 84 672Q101 686 123.5 693Q146 700 168 700Q191 700 213 693Q235 686 252 672Q269 658 280 638Q291 618 291 591Q291 553 277 519.5Q263 486 246.5 445Q230 404 216 347.5Q202 291 202 206ZM252 68Q252 38 231 14Q210 -10 168 -10Q126 -10 105 14Q84 38 84 68Q84 100 105 125Q126 150 168 150Q210 150 231 125Q252 100 252 68Z" glyph-name="exclam" horiz-adv-x="337" unicode="!" /><glyph d="M136 168Q136 233 121.5 274Q107 315 90 345Q73 375 58.5 401Q44 427 44 462Q44 487 54.5 505Q65 523 82 535Q99 547 120.5 552.5Q142 558 164 558Q186 558 207.5 552.5Q229 547 246 535Q263 523 273.5 505Q284 487 284 462Q284 426 270.5 400Q257 374 240.5 344Q224 314 210 273.5Q196 233 196 168ZM242 61Q242 32 221.5 12Q201 -8 164 -8Q128 -8 107 12Q86 32 86 61Q86 91 107 112Q128 133 164 133Q201 133 221.5 112Q242 91 242 61Z" glyph-name="exclam.sc" horiz-adv-x="330" /><glyph d="M290 206Q290 291 275.5 347.5Q261 404 243.5 445.5Q226 487 211.5 520.5Q197 554 197 591Q197 618 208 638Q219 658 236 672Q253 686 275.5 693Q298 700 320 700Q343 700 365 693Q387 686 404 672Q421 658 432 638Q443 618 443 591Q443 553 429 519.5Q415 486 398.5 445Q382 404 368 347.5Q354 291 354 206ZM404 68Q404 38 383 14Q362 -10 320 -10Q278 -10 257 14Q236 38 236 68Q236 100 257 125Q278 150 320 150Q362 150 383 125Q404 100 404 68Z" glyph-name="exclam.tln" horiz-adv-x="640" /><glyph d="M194 309Q194 224 208.5 167.5Q223 111 240.5 69.5Q258 28 272.5 -5.5Q287 -39 287 -76Q287 -103 276 -123Q265 -143 248 -157Q231 -171 209 -178Q187 -185 164 -185Q142 -185 119.5 -178Q97 -171 80 -157Q63 -143 52 -123Q41 -103 41 -76Q41 -38 55 -4.5Q69 29 85.5 70Q102 111 116 167.5Q130 224 130 309ZM80 447Q80 477 101 501Q122 525 164 525Q206 525 227 501Q248 477 248 447Q248 415 227 390Q206 365 164 365Q122 365 101 390Q80 415 80 447Z" glyph-name="exclamdown" horiz-adv-x="326" unicode="&#161;" /><glyph d="M204 484Q204 399 218.5 342.5Q233 286 250.5 244.5Q268 203 282.5 170Q297 137 297 99Q297 72 286 52Q275 32 258 18Q241 4 219 -3Q197 -10 174 -10Q152 -10 129.5 -3Q107 4 90 18Q73 32 62 52Q51 72 51 99Q51 137 65 170.5Q79 204 95.5 245Q112 286 126 342.5Q140 399 140 484ZM90 622Q90 652 111 676Q132 700 174 700Q216 700 237 676Q258 652 258 622Q258 590 237 565Q216 540 174 540Q132 540 111 565Q90 590 90 622Z" glyph-name="exclamdown.cap" horiz-adv-x="347" /><glyph d="M196 382Q196 317 210 276.5Q224 236 240.5 206Q257 176 270.5 150Q284 124 284 88Q284 63 273.5 45Q263 27 246 15Q229 3 207.5 -2.5Q186 -8 164 -8Q142 -8 120.5 -2.5Q99 3 82 15Q65 27 54.5 45Q44 63 44 88Q44 123 58.5 149Q73 175 90 205Q107 235 121.5 276Q136 317 136 382ZM242 489Q242 459 221.5 438Q201 417 164 417Q128 417 107 438Q86 459 86 489Q86 518 107 538Q128 558 164 558Q201 558 221.5 538Q242 518 242 489Z" glyph-name="exclamdown.sc" horiz-adv-x="330" /><glyph d="M351 309Q351 224 365.5 167.5Q380 111 397.5 69.5Q415 28 429.5 -5.5Q444 -39 444 -76Q444 -103 433 -123Q422 -143 405 -157Q388 -171 366 -178Q344 -185 321 -185Q299 -185 276.5 -178Q254 -171 237 -157Q220 -143 209 -123Q198 -103 198 -76Q198 -38 212 -4.5Q226 29 242.5 70Q259 111 273 167.5Q287 224 287 309ZM237 447Q237 477 258 501Q279 525 321 525Q363 525 384 501Q405 477 405 447Q405 415 384 390Q363 365 321 365Q279 365 258 390Q237 415 237 447Z" glyph-name="exclamdown.tln" horiz-adv-x="640" /><glyph d="M347 0H36V77H95V435H36V512H96V528Q96 589 113.5 632.5Q131 676 162 704.5Q193 733 235 746.5Q277 760 326 760Q404 760 451 731Q498 702 498 654Q498 624 481.5 601Q465 578 423 578Q381 578 363.5 599Q346 620 346 643Q346 674 369 690Q364 691 360.5 691.5Q357 692 353 692Q335 692 320 685.5Q305 679 294.5 663Q284 647 278 620.5Q272 594 272 554V512H394V435H272V77H347Z" glyph-name="f" horiz-adv-x="408" unicode="f" /><glyph d="M359 0H36V77H95V435H36V512H133Q116 516 96 524Q76 532 58.5 546Q41 560 29.5 581Q18 602 18 631Q18 688 66.5 724Q115 760 209 760Q306 760 356 728Q406 696 406 648Q406 618 388.5 595Q371 572 329 572Q286 572 267.5 594Q249 616 249 639Q249 654 253 665Q257 676 264 684Q253 686 242 687.5Q231 689 217 689Q169 689 142 669.5Q115 650 115 615Q115 565 188 538.5Q261 512 396 512V435H272V77H359Z" glyph-name="f.alt" horiz-adv-x="412" /><glyph d="M713 73Q806 73 806 257Q806 348 783 395Q760 442 714 442Q669 442 644.5 396.5Q620 351 620 263V243Q620 163 644 118Q668 73 713 73ZM443 684Q436 688 421 690Q406 692 389 692Q362 692 340.5 685.5Q319 679 304 663Q289 647 280.5 620.5Q272 594 272 554V512H377V435H272V77H344V0H36V77H95V435H36V512H96V525Q96 586 115 630Q134 674 167.5 703Q201 732 246 746Q291 760 342 760Q372 760 395 758Q418 756 438 753.5Q458 751 476 749Q494 747 514 747Q553 747 571.5 750Q590 753 602 760L620 750V638Q620 601 620 572.5Q620 544 619.5 520Q619 496 617.5 474Q616 452 614 428Q634 476 677 500.5Q720 525 771 525Q818 525 857.5 506Q897 487 926 452.5Q955 418 971.5 369Q988 320 988 259Q988 198 971 148.5Q954 99 924.5 63.5Q895 28 854 9Q813 -10 765 -10Q722 -10 681.5 6Q641 22 609 60L476 -10H443Z" glyph-name="f_b" horiz-adv-x="1021" /><glyph d="M719 73Q812 73 812 257Q812 348 789 395Q766 442 720 442Q675 442 650 396.5Q625 351 625 263V243Q625 163 649 118Q673 73 719 73ZM511 746Q535 746 551 747Q567 748 577.5 750Q588 752 595 754.5Q602 757 608 760L625 750V638Q625 601 625 572.5Q625 544 624.5 520Q624 496 623 474Q622 452 620 428Q640 476 682.5 500.5Q725 525 776 525Q823 525 863 506Q903 487 932 452.5Q961 418 977.5 369Q994 320 994 259Q994 198 977 148.5Q960 99 930.5 63.5Q901 28 860 9Q819 -10 771 -10Q727 -10 686.5 6Q646 22 614 60L482 -10H448V674Q425 680 386 684.5Q347 689 295 690Q217 689 169 670.5Q121 652 121 614Q121 565 192.5 538.5Q264 512 396 512V436H272V78H338V1H36V78H95V436H36V512H133Q117 516 97.5 524Q78 532 61 546Q44 560 33 580.5Q22 601 22 630Q22 692 87 726Q152 760 289 761Q331 761 362 758.5Q393 756 417.5 753Q442 750 464 748Q486 746 511 746Z" glyph-name="f_b.alt" horiz-adv-x="1027" /><glyph d="M42 0V72H98V478H42V550H537V368H451V389Q451 441 428.5 459.5Q406 478 344 478H275V309H352V369H414V186H352V240H275V72H356V0ZM584 72H640V478H584V550H906Q956 550 998 542Q1040 534 1070.5 517.5Q1101 501 1118 476.5Q1135 452 1135 420Q1135 363 1093.5 328.5Q1052 294 972 287Q1011 283 1045 273.5Q1079 264 1104 248Q1129 232 1143.5 208.5Q1158 185 1158 153Q1158 80 1100.5 40Q1043 0 915 0H584ZM817 481V314H856Q903 314 932 333.5Q961 353 961 398Q961 445 932 463Q903 481 852 481ZM817 249V69H870Q917 69 948.5 89Q980 109 980 159Q980 208 947 228.5Q914 249 867 249Z" glyph-name="f_b.alt.sc" horiz-adv-x="1189" /><glyph d="M42 0V72H98V478H42V550H527V366H441V389Q441 441 419 459.5Q397 478 335 478H275V309L420 317V232L275 241V72H356V0ZM575 72H631V478H575V550H897Q947 550 989 542Q1031 534 1061.5 517.5Q1092 501 1109 476.5Q1126 452 1126 420Q1126 363 1084.5 328.5Q1043 294 963 287Q1002 283 1036 273.5Q1070 264 1095 248Q1120 232 1134.5 208.5Q1149 185 1149 153Q1149 80 1091.5 40Q1034 0 906 0H575ZM808 481V314H847Q894 314 923 333.5Q952 353 952 398Q952 445 923 463Q894 481 843 481ZM808 249V69H861Q908 69 939.5 89Q971 109 971 159Q971 208 938 228.5Q905 249 858 249Z" glyph-name="f_b.sc" horiz-adv-x="1179" /><glyph d="M444 528Q444 566 451 597.5Q458 629 471 654Q455 661 435.5 663.5Q416 666 394 666Q340 666 306 635.5Q272 605 272 538V512H444ZM36 0V77H95V435H36V512H96V529Q96 583 116.5 623Q137 663 172 689Q207 715 253.5 727.5Q300 740 351 740Q407 740 447.5 732Q488 724 516 709Q546 735 586.5 747.5Q627 760 674 760Q752 760 799 731Q846 702 846 654Q846 624 829.5 601Q813 578 771 578Q729 578 711.5 599Q694 620 694 643Q694 674 717 690Q712 691 708.5 691.5Q705 692 701 692Q683 692 668 685.5Q653 679 642.5 663Q632 647 626 620.5Q620 594 620 554V512H742V435H620V77H695V0H384V77H443V435H272V77H328V0Z" glyph-name="f_f" horiz-adv-x="756" unicode="&#64256;" /><glyph d="M487 512Q470 516 449.5 524Q429 532 411.5 546Q394 560 382.5 580.5Q371 601 371 629Q371 638 372 646.5Q373 655 375 663Q345 674 315 675Q285 676 256 676Q194 676 159.5 658Q125 640 125 603Q125 555 194 533.5Q263 512 392 512ZM36 0V77H95V435H36V512H133Q117 516 98.5 522.5Q80 529 64 541Q48 553 37 572Q26 591 26 619Q26 679 81 712.5Q136 746 233 746Q271 746 298.5 744.5Q326 743 347.5 740.5Q369 738 386 734Q403 730 419 724Q446 743 483.5 751.5Q521 760 563 760Q661 760 710.5 728.5Q760 697 760 646Q760 617 742 594.5Q724 572 682 572Q661 572 646 578.5Q631 585 621.5 595Q612 605 607.5 617.5Q603 630 603 642Q603 668 616 686Q606 688 595 689Q584 690 570 690Q470 690 470 613Q470 565 543 538.5Q616 512 750 512V435H625V77H713V0H390V77H448V435H272V77H338V0Z" glyph-name="f_f.alt" horiz-adv-x="766" /><glyph d="M42 0V72H98V478H42V550H537V368H451V389Q451 441 428.5 459.5Q406 478 344 478H275V309H352V369H414V186H352V240H275V72H356V0ZM584 0V72H640V478H584V550H1079V368H993V389Q993 441 970.5 459.5Q948 478 886 478H817V309H894V369H956V186H894V240H817V72H898V0Z" glyph-name="f_f.alt.sc" horiz-adv-x="1097" /><glyph d="M42 0V72H98V478H42V550H527V366H441V389Q441 441 419 459.5Q397 478 335 478H275V309L420 317V232L275 241V72H356V0ZM575 0V72H631V478H575V550H1060V366H974V389Q974 441 952 459.5Q930 478 868 478H808V309L953 317V232L808 241V72H889V0Z" glyph-name="f_f.sc" horiz-adv-x="1080" /><glyph d="M444 529Q444 566 453 596Q462 626 479 651Q461 659 439 662.5Q417 666 394 666Q340 666 306 635.5Q272 605 272 538V512H444ZM36 0V77H95V435H36V512H96V529Q96 583 116.5 623Q137 663 172 689Q207 715 253.5 727.5Q300 740 351 740Q410 740 454 730.5Q498 721 529 704Q567 732 615.5 746Q664 760 717 760Q768 760 811 751Q854 742 885 725.5Q916 709 933.5 686.5Q951 664 951 636Q951 606 933 584.5Q915 563 872 563Q829 563 810.5 584Q792 605 792 630Q792 650 798 662.5Q804 675 813 682Q802 687 788.5 689.5Q775 692 755 692Q728 692 703.5 685Q679 678 660.5 661Q642 644 631 615Q620 586 620 542V512H722Q790 512 833 513Q876 514 901 515.5Q926 517 937.5 519.5Q949 522 955 525L968 515V77H1026V0H734V77H791V435H620V77H676V0H384V77H443V435H272V77H328V0Z" glyph-name="f_f_i" horiz-adv-x="1052" unicode="&#64259;" /><glyph d="M493 512Q474 516 453.5 524Q433 532 416 545.5Q399 559 387.5 579Q376 599 376 626Q376 644 384 662Q352 673 318.5 674.5Q285 676 256 676Q194 676 159.5 658Q125 640 125 603Q125 555 195 533.5Q265 512 396 512ZM36 0V77H95V435H36V512H133Q117 516 98.5 522.5Q80 529 64 541Q48 553 37 572Q26 591 26 619Q26 679 81 712.5Q136 746 233 746Q271 746 300.5 744.5Q330 743 354.5 739.5Q379 736 399.5 731Q420 726 441 718Q481 739 538.5 749.5Q596 760 665 760Q757 760 816 750Q875 740 908.5 723Q942 706 955 684Q968 662 968 638Q968 608 949 584.5Q930 561 888 561Q848 561 828.5 582.5Q809 604 809 632Q809 646 812.5 657Q816 668 821 676Q798 682 763 685.5Q728 689 680 689Q640 689 605 684.5Q570 680 544 670.5Q518 661 502.5 646Q487 631 487 611Q487 587 508.5 568.5Q530 550 567 537.5Q604 525 655 518.5Q706 512 764 512Q815 512 849.5 512.5Q884 513 906.5 514.5Q929 516 942 518.5Q955 521 962 525L979 515V77H1038V0H746V77H802V435H626V77H692V0H390V77H449V435H272V77H338V0Z" glyph-name="f_f_i.alt" horiz-adv-x="1064" /><glyph d="M42 0V72H98V478H42V550H537V368H451V389Q451 441 428.5 459.5Q406 478 344 478H275V309H352V369H414V186H352V240H275V72H356V0ZM1127 0V72H1183V478H1127V550H1416V478H1360V72H1416V0ZM584 0V72H640V478H584V550H1079V368H993V389Q993 441 970.5 459.5Q948 478 886 478H817V309H894V369H956V186H894V240H817V72H898V0Z" glyph-name="f_f_i.alt.sc" horiz-adv-x="1457" /><glyph d="M42 0V72H98V478H42V550H527V366H441V389Q441 441 419 459.5Q397 478 335 478H275V309L420 317V232L275 241V72H356V0ZM575 0V72H631V478H575V550H1060V366H974V389Q974 441 952 459.5Q930 478 868 478H808V309L953 317V232L808 241V72H889V0ZM1108 0V72H1164V478H1108V550H1397V478H1341V72H1397V0Z" glyph-name="f_f_i.sc" horiz-adv-x="1438" /><glyph d="M444 529Q444 565 453 595.5Q462 626 478 650Q461 658 439 662Q417 666 394 666Q340 666 306 635.5Q272 605 272 538V512H444ZM753 -260Q668 -260 620 -225.5Q572 -191 572 -137Q572 -104 593 -81.5Q614 -59 652 -59Q690 -59 710 -80Q730 -101 730 -130Q730 -149 723.5 -162.5Q717 -176 706 -186Q711 -188 718 -189Q725 -190 733 -190Q770 -190 780.5 -154.5Q791 -119 791 -36V435H620V77H676V0H384V77H443V435H272V77H328V0H36V77H95V435H36V512H96V529Q96 583 116.5 623Q137 663 172 689Q207 715 253.5 727.5Q300 740 351 740Q469 740 528 703Q566 732 615 746Q664 760 717 760Q768 760 811 751Q854 742 885 725.5Q916 709 933.5 686.5Q951 664 951 636Q951 606 933 584.5Q915 563 872 563Q829 563 810.5 584Q792 605 792 628Q792 648 798 661Q804 674 813 682Q802 687 788 689.5Q774 692 755 692Q728 692 703.5 685Q679 678 660.5 661Q642 644 631 615Q620 586 620 542V512H721Q778 512 818 512.5Q858 513 885 514.5Q912 516 927.5 518.5Q943 521 950 525L968 515V0Q968 -59 958 -106.5Q948 -154 923 -188.5Q898 -223 857 -241.5Q816 -260 753 -260Z" glyph-name="f_f_j" horiz-adv-x="1036" /><glyph d="M493 512Q474 516 453.5 524Q433 532 416 546Q399 560 387.5 580.5Q376 601 376 629Q376 645 382 660Q350 669 316 672.5Q282 676 256 676Q194 676 159.5 658Q125 640 125 603Q125 555 195 533.5Q265 512 396 512ZM852 -260Q770 -260 721 -228Q672 -196 672 -143Q672 -108 692.5 -85.5Q713 -63 752 -63Q790 -63 810.5 -83Q831 -103 831 -132Q831 -170 803 -190Q818 -195 838 -195Q878 -195 901.5 -172Q925 -149 925 -104Q925 -52 889 -26Q853 0 802 0V435H626V77H692V0H390V77H449V435H272V77H338V0H36V77H95V435H36V512H133Q117 516 98.5 522.5Q80 529 64 541Q48 553 37 572Q26 591 26 619Q26 679 82.5 712.5Q139 746 245 746Q313 746 359.5 737.5Q406 729 440 718Q480 739 538 749.5Q596 760 665 760Q753 760 812 750Q871 740 906.5 723Q942 706 957 683.5Q972 661 972 636Q972 606 951.5 583.5Q931 561 888 561Q846 561 824.5 582.5Q803 604 803 633Q803 660 816 676Q792 682 758.5 685.5Q725 689 680 689Q640 689 605 684.5Q570 680 544 670.5Q518 661 502.5 647Q487 633 487 613Q487 589 508.5 570Q530 551 567 538.5Q604 526 654 519Q704 512 761 512Q813 512 848.5 512.5Q884 513 906.5 514.5Q929 516 941.5 518.5Q954 521 961 525L979 515V10Q1011 -7 1028 -37.5Q1045 -68 1045 -106Q1045 -138 1032.5 -166Q1020 -194 995.5 -215Q971 -236 935 -248Q899 -260 852 -260Z" glyph-name="f_f_j.alt" horiz-adv-x="1050" /><glyph d="M42 0V72H98V478H42V550H537V368H451V389Q451 441 428.5 459.5Q406 478 344 478H275V309H352V369H414V186H352V240H275V72H356V0ZM1427 186Q1427 83 1373.5 38Q1320 -7 1222 -7Q1182 -7 1146 1.5Q1110 10 1083 25.5Q1056 41 1040.5 64.5Q1025 88 1025 118Q1025 154 1047.5 174.5Q1070 195 1105 195Q1140 195 1161 177.5Q1182 160 1182 128Q1182 108 1173.5 94.5Q1165 81 1157 76Q1162 73 1172 69Q1182 65 1199 65Q1226 65 1238 82.5Q1250 100 1250 148V479H1191V551H1483V479H1427ZM584 0V72H640V478H584V550H1079V368H993V389Q993 441 970.5 459.5Q948 478 886 478H817V309H894V369H956V186H894V240H817V72H898V0Z" glyph-name="f_f_j.alt.sc" horiz-adv-x="1513" /><glyph d="M42 0V72H98V478H42V550H527V366H441V389Q441 441 419 459.5Q397 478 335 478H275V309L420 317V232L275 241V72H356V0ZM575 0V72H631V478H575V550H1060V366H974V389Q974 441 952 459.5Q930 478 868 478H808V309L953 317V232L808 241V72H889V0ZM1409 185Q1409 82 1355.5 37Q1302 -8 1204 -8Q1164 -8 1128 0.5Q1092 9 1065 24.5Q1038 40 1022.5 63.5Q1007 87 1007 117Q1007 153 1029.5 173.5Q1052 194 1087 194Q1122 194 1143 176.5Q1164 159 1164 127Q1164 107 1155.5 93.5Q1147 80 1139 75Q1144 72 1154 68Q1164 64 1181 64Q1208 64 1220 81.5Q1232 99 1232 147V478H1173V550H1465V478H1409Z" glyph-name="f_f_j.sc" horiz-adv-x="1495" /><glyph d="M444 526Q444 559 452 591.5Q460 624 475 651Q458 659 436.5 662.5Q415 666 394 666Q340 666 306 635.5Q272 605 272 538V512H444ZM36 0V77H95V435H36V512H96V529Q96 583 116.5 623Q137 663 172 689Q207 715 253.5 727.5Q300 740 351 740Q407 740 450 731.5Q493 723 522 707Q554 734 597.5 747Q641 760 690 760Q720 760 743 758Q766 756 786 753.5Q806 751 824 749Q842 747 862 747Q901 747 919.5 750Q938 753 950 760L968 750V77H1026V0H734V77H791V685Q783 688 768.5 690Q754 692 737 692Q710 692 688.5 685.5Q667 679 652 663Q637 647 628.5 620.5Q620 594 620 554V512H725V435H620V77H676V0H384V77H443V435H272V77H328V0Z" glyph-name="f_f_l" horiz-adv-x="1052" unicode="&#64260;" /><glyph d="M487 512Q471 516 451.5 524Q432 532 415 546Q398 560 387 580.5Q376 601 376 629Q376 647 380 659Q348 669 315.5 672.5Q283 676 256 676Q194 676 159.5 658Q125 640 125 603Q125 555 195 533.5Q265 512 396 512ZM36 0V77H95V435H36V512H133Q117 516 98.5 522.5Q80 529 64 541Q48 553 37 572Q26 591 26 619Q26 649 41.5 672.5Q57 696 84.5 712.5Q112 729 151.5 737.5Q191 746 239 746Q306 746 350 738Q394 730 429 719Q496 760 643 760Q685 760 715.5 758Q746 756 770.5 753Q795 750 816 748Q837 746 860 746Q900 746 923 749Q946 752 962 760L979 750V77H1038V0H746V77H802V673Q779 680 740 684.5Q701 689 649 689Q571 689 523 670.5Q475 652 475 613Q475 565 546.5 538.5Q618 512 750 512V435H626V77H692V0H390V77H449V435H272V77H338V0Z" glyph-name="f_f_l.alt" horiz-adv-x="1064" /><glyph d="M42 0V72H98V478H42V550H537V368H451V389Q451 441 428.5 459.5Q406 478 344 478H275V309H352V369H414V186H352V240H275V72H356V0ZM584 1V73H640V479H584V551H1079V369H993V390Q993 442 970.5 460.5Q948 479 886 479H817V310H894V370H956V187H894V241H817V73H898V1ZM1127 73H1183V479H1127V551H1423V479H1360V73H1441Q1484 73 1507 93.5Q1530 114 1530 175V196H1616V1H1127Z" glyph-name="f_f_l.alt.sc" horiz-adv-x="1638" /><glyph d="M42 0V72H98V478H42V550H527V366H441V389Q441 441 419 459.5Q397 478 335 478H275V309L420 317V232L275 241V72H356V0ZM575 0V72H631V478H575V550H1060V366H974V389Q974 441 952 459.5Q930 478 868 478H808V309L953 317V232L808 241V72H889V0ZM1108 72H1164V478H1108V550H1404V478H1341V72H1422Q1465 72 1488 92.5Q1511 113 1511 174V195H1597V0H1108Z" glyph-name="f_f_l.sc" horiz-adv-x="1619" /><glyph d="M443 685Q436 687 421 689.5Q406 692 389 692Q362 692 340.5 685.5Q319 679 304 663Q289 647 280.5 620.5Q272 594 272 554V512H377V435H272V77H328V0H36V77H95V435H36V512H96V527Q96 587 115 631Q134 675 167.5 703.5Q201 732 246 746Q291 760 342 760Q372 760 395 758Q418 756 438 753.5Q458 751 476 749Q494 747 514 747Q553 747 571.5 750Q590 753 602 760L620 750V631Q620 571 614.5 512.5Q609 454 600 400Q620 454 664.5 489.5Q709 525 780 525Q819 525 852 514Q885 503 909.5 479Q934 455 948 417Q962 379 962 325V77H1021V0H738V77H785V299Q785 362 763 385.5Q741 409 703 409Q664 409 642 382Q620 355 620 291V77H667V0H384V77H443Z" glyph-name="f_h" horiz-adv-x="1045" /><glyph d="M625 631Q625 571 623 517.5Q621 464 612 410Q632 464 673.5 494.5Q715 525 786 525Q825 525 858 514Q891 503 915.5 479Q940 455 954 417Q968 379 968 325V77H1026V0H743V77H791V299Q791 362 769 385.5Q747 409 709 409Q670 409 647.5 382Q625 355 625 291V77H673V0H390V77H448V674Q424 680 385.5 684Q347 688 295 689Q217 688 169 669.5Q121 651 121 613Q121 564 192.5 537.5Q264 511 396 512V435H272V77H338V0H36V77H95V435H36V512H133Q117 516 97.5 524Q78 532 61 545.5Q44 559 33 579.5Q22 600 22 629Q22 691 87 725Q152 759 289 760Q331 760 361.5 757.5Q392 755 416 752.5Q440 750 461 748Q482 746 506 746Q546 746 569 749Q592 752 608 760L625 750Z" glyph-name="f_h.alt" horiz-adv-x="1051" /><glyph d="M42 0V72H98V478H42V550H537V368H451V389Q451 441 428.5 459.5Q406 478 344 478H275V309H352V369H414V186H352V240H275V72H356V0ZM584 72H640V478H584V550H866V478H817V317H1000V478H951V550H1233V478H1177V72H1233V0H951V72H1000V245H817V72H866V0H584Z" glyph-name="f_h.alt.sc" horiz-adv-x="1276" /><glyph d="M42 0V72H98V478H42V550H527V366H441V389Q441 441 419 459.5Q397 478 335 478H275V309L420 317V232L275 241V72H356V0ZM575 72H631V478H575V550H857V478H808V317H991V478H942V550H1224V478H1168V72H1224V0H942V72H991V245H808V72H857V0H575Z" glyph-name="f_h.sc" horiz-adv-x="1266" /><glyph d="M686 648Q686 618 666.5 597Q647 576 612 576Q577 576 557 597Q537 618 537 648Q537 679 557 701Q577 723 612 723Q647 723 666.5 701Q686 679 686 648ZM36 0V77H95V435H36V512H96V529Q96 589 115 632.5Q134 676 166 704.5Q198 733 240.5 746.5Q283 760 329 760Q418 760 461 730Q504 700 504 649Q504 614 483 595Q462 576 430 576Q395 576 376 595.5Q357 615 357 642Q357 660 363 672Q369 684 378 692Q359 692 340 685Q321 678 306 661Q291 644 281.5 615Q272 586 272 542V512H374Q442 512 485 513Q528 514 553 515.5Q578 517 589.5 519.5Q601 522 607 525L620 515V77H678V0H386V77H443V435H272V77H328V0Z" glyph-name="f_idieresis" horiz-adv-x="704" /><glyph d="M720 652Q720 622 700 599.5Q680 577 639 577Q600 577 579.5 599.5Q559 622 559 652Q559 683 579.5 705.5Q600 728 639 728Q680 728 700 705.5Q720 683 720 652ZM410 512Q461 512 495.5 512.5Q530 513 552.5 514.5Q575 516 588 518.5Q601 521 608 525L625 515V77H684V0H392V77H448V435H272V77H338V0H36V77H95V435H36V512H139Q120 516 99.5 524Q79 532 62 546Q45 560 33.5 580.5Q22 601 22 629Q22 662 42.5 686.5Q63 711 97 727.5Q131 744 176 752Q221 760 269 760Q339 760 387 751.5Q435 743 465 728Q495 713 508.5 693Q522 673 522 650Q522 621 503 599Q484 577 444 577Q402 577 381.5 598.5Q361 620 361 646Q361 667 368 684Q351 686 332.5 687.5Q314 689 293 689Q219 689 176 670.5Q133 652 133 613Q133 589 154.5 570Q176 551 213 538.5Q250 526 301 519Q352 512 410 512Z" glyph-name="f_idieresis.alt" horiz-adv-x="710" /><glyph d="M42 0V72H98V478H42V550H537V368H451V389Q451 441 428.5 459.5Q406 478 344 478H275V309H352V369H414V186H352V240H275V72H356V0ZM707 661Q707 635 689 617Q671 599 639 599Q607 599 589 617Q571 635 571 661Q571 687 589 705.5Q607 724 639 724Q671 724 689 705.5Q707 687 707 661ZM885 661Q885 635 867 617Q849 599 817 599Q785 599 767 617Q749 635 749 661Q749 687 767 705.5Q785 724 817 724Q849 724 867 705.5Q885 687 885 661ZM584 0V72H640V478H584V550H873V478H817V72H873V0Z" glyph-name="f_idieresis.alt.sc" horiz-adv-x="915" /><glyph d="M42 0V72H98V478H42V550H527V366H441V389Q441 441 419 459.5Q397 478 335 478H275V309L420 317V232L275 241V72H356V0ZM698 661Q698 635 680 617Q662 599 630 599Q598 599 580 617Q562 635 562 661Q562 687 580 705.5Q598 724 630 724Q662 724 680 705.5Q698 687 698 661ZM876 661Q876 635 858 617Q840 599 808 599Q776 599 758 617Q740 635 740 661Q740 687 758 705.5Q776 724 808 724Q840 724 858 705.5Q876 687 876 661ZM575 0V72H631V478H575V550H864V478H808V72H864V0Z" glyph-name="f_idieresis.sc" horiz-adv-x="905" /><glyph d="M405 -260Q320 -260 272 -225.5Q224 -191 224 -137Q224 -104 245 -81.5Q266 -59 304 -59Q342 -59 362 -80Q382 -101 382 -130Q382 -149 375.5 -162.5Q369 -176 358 -186Q363 -188 370 -189Q377 -190 385 -190Q422 -190 432.5 -154.5Q443 -119 443 -36V435H272V77H328V0H36V77H95V435H36V512H96V529Q96 588 119 631Q142 674 180 703Q218 732 267 746Q316 760 369 760Q420 760 463 751Q506 742 537 725.5Q568 709 585.5 686.5Q603 664 603 636Q603 606 585 584.5Q567 563 524 563Q481 563 462.5 584Q444 605 444 628Q444 648 450 661Q456 674 465 682Q454 687 440 689.5Q426 692 407 692Q380 692 355.5 685Q331 678 312.5 661Q294 644 283 615Q272 586 272 542V512H373Q430 512 470 512.5Q510 513 537 514.5Q564 516 579.5 518.5Q595 521 602 525L620 515V0Q620 -59 610 -106.5Q600 -154 575 -188.5Q550 -223 509 -241.5Q468 -260 405 -260Z" glyph-name="f_j" horiz-adv-x="688" /><glyph d="M498 -260Q416 -260 367 -228Q318 -196 318 -143Q318 -108 338.5 -85.5Q359 -63 398 -63Q436 -63 456.5 -83Q477 -103 477 -132Q477 -170 449 -190Q464 -195 484 -195Q524 -195 547.5 -172Q571 -149 571 -104Q571 -52 535 -26Q499 0 448 0V435H272V77H338V0H36V77H95V435H36V512H139Q120 516 99.5 524Q79 532 62 546Q45 560 33.5 580.5Q22 601 22 629Q22 662 44.5 686.5Q67 711 106.5 727.5Q146 744 198.5 752Q251 760 311 760Q399 760 458 750Q517 740 552.5 723Q588 706 603 683.5Q618 661 618 636Q618 606 597.5 583.5Q577 561 534 561Q492 561 470.5 582.5Q449 604 449 633Q449 660 462 676Q438 682 404.5 685.5Q371 689 326 689Q286 689 251 684.5Q216 680 190 670.5Q164 661 148.5 647Q133 633 133 613Q133 589 154.5 570Q176 551 213 538.5Q250 526 300 519Q350 512 407 512Q459 512 494.5 512.5Q530 513 552.5 514.5Q575 516 587.5 518.5Q600 521 607 525L625 515V10Q657 -7 674 -37.5Q691 -68 691 -106Q691 -138 678.5 -166Q666 -194 641.5 -215Q617 -236 581 -248Q545 -260 498 -260Z" glyph-name="f_j.alt" horiz-adv-x="696" /><glyph d="M42 0V72H98V478H42V550H537V368H451V389Q451 441 428.5 459.5Q406 478 344 478H275V309H352V369H414V186H352V240H275V72H356V0ZM885 185Q885 82 831.5 37Q778 -8 680 -8Q640 -8 604 0.5Q568 9 541 24.5Q514 40 498.5 63.5Q483 87 483 117Q483 153 505.5 173.5Q528 194 563 194Q598 194 619 176.5Q640 159 640 127Q640 107 631.5 93.5Q623 80 615 75Q620 72 630 68Q640 64 657 64Q684 64 696 81.5Q708 99 708 147V478H649V550H941V478H885Z" glyph-name="f_j.alt.sc" horiz-adv-x="971" /><glyph d="M42 0V72H98V478H42V550H527V366H441V389Q441 441 419 459.5Q397 478 335 478H275V309L420 317V232L275 241V72H356V0ZM876 185Q876 82 822.5 37Q769 -8 671 -8Q631 -8 595 0.5Q559 9 532 24.5Q505 40 489.5 63.5Q474 87 474 117Q474 153 496.5 173.5Q519 194 554 194Q589 194 610 176.5Q631 159 631 127Q631 107 622.5 93.5Q614 80 606 75Q611 72 621 68Q631 64 648 64Q675 64 687 81.5Q699 99 699 147V478H640V550H932V478H876Z" glyph-name="f_j.sc" horiz-adv-x="962" /><glyph d="M328 0H36V77H95V435H36V512H96V527Q96 587 115 631Q134 675 167.5 703.5Q201 732 246 746Q291 760 342 760Q372 760 395 758Q418 756 438 753.5Q458 751 476 749Q494 747 514 747Q553 747 571.5 750Q590 753 602 760L620 750V266L801 435H735V512H995V435H914L801 329L987 77H1029V0H737V77H782L679 216L620 161V77H678V0H386V77H443V685Q436 687 421 689.5Q406 692 389 692Q362 692 340.5 685.5Q319 679 304 663Q289 647 280.5 620.5Q272 594 272 554V512H377V435H272V77H328Z" glyph-name="f_k" horiz-adv-x="1030" /><glyph d="M338 0H36V77H95V435H36V512H133Q117 516 97.5 524Q78 532 61 546Q44 560 33 580.5Q22 601 22 629Q22 692 87 726Q152 760 289 760Q331 760 361.5 758Q392 756 416.5 753Q441 750 462 748Q483 746 506 746Q546 746 569 749Q592 752 608 760L625 750V512H990V443L818 305L993 77H1035V0H742V77H796L697 208L625 150V77H672V0H392V77H448V673Q425 680 386 684.5Q347 689 295 689Q217 689 169 670.5Q121 652 121 613Q121 565 192.5 538.5Q264 512 396 512V435H272V77H338ZM856 435H625V250Z" glyph-name="f_k.alt" horiz-adv-x="1036" /><glyph d="M42 0V72H98V478H42V550H537V368H451V389Q451 441 428.5 459.5Q406 478 344 478H275V309H352V369H414V186H352V240H275V72H356V0ZM817 274 1066 478H817ZM584 0V72H640V478H584V550H1182V478L999 328L1183 72H1221V0H949V72H985L872 223L817 178V72H864V0Z" glyph-name="f_k.alt.sc" horiz-adv-x="1225" /><glyph d="M42 0V72H98V478H42V550H527V366H441V389Q441 441 419 459.5Q397 478 335 478H275V309L420 317V232L275 241V72H356V0ZM575 0V72H631V478H575V550H855V478H808V283L1009 478H956V550H1178V478H1114L977 346L1171 72H1210V0H936V72H975L861 233L808 182V72H855V0Z" glyph-name="f_k.sc" horiz-adv-x="1214" /><glyph d="M269 436V76H343V0H40V76H91V436H40V512H92V525Q92 585 113 629.5Q134 674 170.5 703Q207 732 256 746Q305 760 361 760Q411 760 455 750Q499 740 532 718Q565 696 584 661.5Q603 627 603 578V512H766V436H606V196Q606 138 618.5 108.5Q631 79 662 79Q693 79 704.5 113.5Q716 148 716 206H778Q778 105 740 47.5Q702 -10 609 -10Q521 -10 475 34Q429 78 429 182V436ZM381 512Q436 512 459.5 538Q483 564 483 606Q483 646 459 669Q435 692 391 692Q366 692 344 684Q322 676 305.5 658Q289 640 279 610Q269 580 269 535V512Z" glyph-name="f_t" horiz-adv-x="794" /><glyph d="M622 -10Q594 -10 563 -3.5Q532 3 506.5 22Q481 41 464.5 75.5Q448 110 448 166V435H272V77H338V0H36V77H95V435H36V512H133Q116 516 96 524Q76 532 58.5 546Q41 560 29.5 580.5Q18 601 18 629Q18 690 74.5 725Q131 760 235 760Q342 760 416.5 728Q491 696 539 615L645 760L684 750Q665 704 645 646Q625 588 625 512H794V435H625V193Q625 132 636.5 105.5Q648 79 679 79Q697 79 708 92Q719 105 724.5 124.5Q730 144 731.5 166Q733 188 733 206H795Q795 165 789 126Q783 87 764 57Q745 27 711.5 8.5Q678 -10 622 -10ZM448 512Q448 545 438.5 577Q429 609 405.5 634Q382 659 343.5 674Q305 689 246 689Q186 689 150.5 668.5Q115 648 115 613Q115 565 188 538.5Q261 512 396 512Z" glyph-name="f_t.alt" horiz-adv-x="816" /><glyph d="M42 0V72H98V478H42V550H537V368H451V389Q451 441 428.5 459.5Q406 478 344 478H275V309H352V369H414V186H352V240H275V72H356V0ZM717 72H782V479H759Q709 479 691 458.5Q673 438 673 383V353H588V550H1153V353H1067V383Q1067 439 1049.5 459Q1032 479 982 479H959V72H1024V0H717Z" glyph-name="f_t.alt.sc" horiz-adv-x="1174" /><glyph d="M42 0V72H98V478H42V550H527V366H441V389Q441 441 419 459.5Q397 478 335 478H275V309L420 317V232L275 241V72H356V0ZM707 72H772V479H749Q699 479 681 458.5Q663 438 663 383V353H578V550H1143V353H1057V383Q1057 439 1039.5 459Q1022 479 972 479H949V72H1014V0H707Z" glyph-name="f_t.sc" horiz-adv-x="1164" /><glyph d="M36 0V77H95V435H36V512H96V529Q96 588 119 631Q142 674 180 703Q218 732 267 746Q316 760 369 760Q420 760 463 751Q506 742 537 725.5Q568 709 585.5 686.5Q603 664 603 636Q603 606 585 584.5Q567 563 524 563Q481 563 462.5 584Q444 605 444 630Q444 650 450 662.5Q456 675 465 682Q454 687 440.5 689.5Q427 692 407 692Q380 692 355.5 685Q331 678 312.5 661Q294 644 283 615Q272 586 272 542V512H374Q442 512 485 513Q528 514 553 515.5Q578 517 589.5 519.5Q601 522 607 525L620 515V77H678V0H386V77H443V435H272V77H328V0Z" glyph-name="fi" horiz-adv-x="704" unicode="&#64257;" /><glyph d="M410 512Q461 512 495.5 512.5Q530 513 552.5 514.5Q575 516 588 518.5Q601 521 608 525L625 515V77H684V0H392V77H448V435H272V77H338V0H36V77H95V435H36V512H139Q120 516 99.5 524Q79 532 62 545.5Q45 559 33.5 579Q22 599 22 626Q22 660 44.5 685.5Q67 711 106.5 727.5Q146 744 198.5 752Q251 760 311 760Q403 760 462 750Q521 740 554.5 723Q588 706 601 684Q614 662 614 638Q614 608 595 584.5Q576 561 534 561Q494 561 474.5 582.5Q455 604 455 632Q455 646 458.5 657Q462 668 467 676Q444 682 409 685.5Q374 689 326 689Q286 689 251 684.5Q216 680 190 670.5Q164 661 148.5 646Q133 631 133 611Q133 587 154.5 568.5Q176 550 213 537.5Q250 525 301 518.5Q352 512 410 512Z" glyph-name="fi.alt" horiz-adv-x="710" /><glyph d="M42 0V72H98V478H42V550H537V368H451V389Q451 441 428.5 459.5Q406 478 344 478H275V309H352V369H414V186H352V240H275V72H356V0ZM584 0V72H640V478H584V550H873V478H817V72H873V0Z" glyph-name="fi.alt.sc" horiz-adv-x="915" /><glyph d="M42 0V72H98V478H42V550H527V366H441V389Q441 441 419 459.5Q397 478 335 478H275V309L420 317V232L275 241V72H356V0ZM575 0V72H631V478H575V550H864V478H808V72H864V0Z" glyph-name="fi.sc" horiz-adv-x="905" /><glyph d="M276 -10Q221 -10 176.5 0.5Q132 11 101 30Q70 49 53 76Q36 103 36 136Q36 172 58 195.5Q80 219 122 219Q161 219 182 197Q203 175 203 146Q203 127 194.5 111Q186 95 166 84Q184 75 202.5 72Q221 69 238 69Q296 69 324.5 108Q353 147 353 219Q353 293 320 327Q287 361 230 361Q196 361 171 347.5Q146 334 135 315H69L98 690H500V581H176L163 409Q216 440 294 440Q360 440 406.5 421.5Q453 403 482.5 373Q512 343 526 304Q540 265 540 224Q540 183 526 141Q512 99 480.5 65.5Q449 32 398.5 11Q348 -10 276 -10Z" glyph-name="five" horiz-adv-x="573" unicode="5" /><glyph d="M198 -157Q117 -157 72 -130Q27 -103 27 -61Q27 -35 44 -19Q61 -3 91 -3Q120 -3 136 -17Q152 -31 152 -53Q152 -62 148 -72.5Q144 -83 133 -93Q143 -97 152.5 -98Q162 -99 173 -99Q204 -99 220 -76.5Q236 -54 236 -12Q236 33 215.5 53.5Q195 74 160 74Q135 74 119.5 65Q104 56 96 44H48L68 300H361V212H130L122 118Q142 129 165.5 133Q189 137 213 137Q261 137 294.5 125Q328 113 349 93Q370 73 379.5 48Q389 23 389 -4Q389 -31 380 -58.5Q371 -86 349 -107.5Q327 -129 290 -143Q253 -157 198 -157Z" glyph-name="five.inferior" horiz-adv-x="414" /><glyph d="M249 -180Q203 -180 163 -170.5Q123 -161 94 -144Q65 -127 48.5 -102Q32 -77 32 -45Q32 -6 53 18Q74 42 113 42Q149 42 169.5 21Q190 0 190 -33Q190 -48 183.5 -65Q177 -82 157 -95Q174 -103 190.5 -104.5Q207 -106 222 -106Q279 -106 306.5 -64Q334 -22 334 49Q334 117 302.5 152.5Q271 188 217 188Q182 188 157 174.5Q132 161 121 141H58L87 512H475V412H162L148 233Q179 250 212.5 256Q246 262 278 262Q341 262 386 244Q431 226 460 196.5Q489 167 502.5 129Q516 91 516 50Q516 9 503 -32Q490 -73 459 -106Q428 -139 377 -159.5Q326 -180 249 -180Z" glyph-name="five.old" horiz-adv-x="543" /><glyph d="M221 60Q269 60 292.5 89.5Q316 119 316 173Q316 227 288 252.5Q260 278 209 278Q177 278 155.5 267.5Q134 257 125 244H65L88 550H462V449H163L153 329Q179 340 209 345.5Q239 351 270 351Q330 351 373 336Q416 321 443.5 297Q471 273 484.5 242Q498 211 498 179Q498 146 486 112.5Q474 79 445.5 52.5Q417 26 370 9Q323 -8 254 -8Q150 -8 91.5 23Q33 54 33 110Q33 142 54.5 162.5Q76 183 115 183Q154 183 173 163.5Q192 144 192 117Q192 104 185.5 91Q179 78 162 71Q184 60 221 60Z" glyph-name="five.sc" horiz-adv-x="530" /><glyph d="M198 427Q117 427 72 454Q27 481 27 523Q27 549 44 565Q61 581 91 581Q120 581 136 567Q152 553 152 531Q152 522 148 511.5Q144 501 133 491Q143 487 152.5 486Q162 485 173 485Q204 485 220 507.5Q236 530 236 572Q236 617 215.5 637.5Q195 658 160 658Q135 658 119.5 649Q104 640 96 628H48L68 884H361V796H130L122 702Q142 713 165.5 717Q189 721 213 721Q261 721 294.5 709Q328 697 349 677Q370 657 379.5 632Q389 607 389 580Q389 553 380 525.5Q371 498 349 476.5Q327 455 290 441Q253 427 198 427Z" glyph-name="five.superior" horiz-adv-x="414" /><glyph d="M309 -10Q254 -10 209.5 0.5Q165 11 134 30Q103 49 86 76Q69 103 69 136Q69 172 91 195.5Q113 219 155 219Q194 219 215 197Q236 175 236 146Q236 127 227.5 111Q219 95 199 84Q217 75 235.5 72Q254 69 271 69Q329 69 357.5 108Q386 147 386 219Q386 293 353 327Q320 361 263 361Q229 361 204 347.5Q179 334 168 315H102L131 690H533V581H209L196 409Q249 440 327 440Q393 440 439.5 421.5Q486 403 515.5 373Q545 343 559 304Q573 265 573 224Q573 183 559 141Q545 99 513.5 65.5Q482 32 431.5 11Q381 -10 309 -10Z" glyph-name="five.tln" horiz-adv-x="640" /><glyph d="M298 -180Q252 -180 212 -170.5Q172 -161 143 -144Q114 -127 97.5 -102Q81 -77 81 -45Q81 -6 102 18Q123 42 162 42Q198 42 218.5 21Q239 0 239 -33Q239 -48 232.5 -65Q226 -82 206 -95Q223 -103 239.5 -104.5Q256 -106 271 -106Q328 -106 355.5 -64Q383 -22 383 49Q383 117 351.5 152.5Q320 188 266 188Q231 188 206 174.5Q181 161 170 141H107L136 512H524V412H211L197 233Q228 250 261.5 256Q295 262 327 262Q390 262 435 244Q480 226 509 196.5Q538 167 551.5 129Q565 91 565 50Q565 9 552 -32Q539 -73 508 -106Q477 -139 426 -159.5Q375 -180 298 -180Z" glyph-name="five.ton" horiz-adv-x="640" /><glyph d="M678 77V0H386V77H443V685Q435 688 420.5 690Q406 692 389 692Q362 692 340.5 685.5Q319 679 304 663Q289 647 280.5 620.5Q272 594 272 554V512H377V435H272V77H328V0H36V77H95V435H36V512H96V526Q96 586 115 630.5Q134 675 167.5 703.5Q201 732 246 746Q291 760 342 760Q372 760 395 758Q418 756 438 753.5Q458 751 476 749Q494 747 514 747Q553 747 571.5 750Q590 753 602 760L620 750V77Z" glyph-name="fl" horiz-adv-x="704" unicode="&#64258;" /><glyph d="M448 673Q425 680 386 684.5Q347 689 295 689Q217 689 169 670.5Q121 652 121 613Q121 565 192.5 538.5Q264 512 396 512V435H272V77H338V0H36V77H95V435H36V512H133Q117 516 97.5 524Q78 532 61 546Q44 560 33 580.5Q22 601 22 629Q22 692 87 726Q152 760 289 760Q331 760 361.5 758Q392 756 416.5 753Q441 750 462 748Q483 746 506 746Q546 746 569 749Q592 752 608 760L625 750V77H684V0H392V77H448Z" glyph-name="fl.alt" horiz-adv-x="710" /><glyph d="M42 0V72H98V478H42V550H537V368H451V389Q451 441 428.5 459.5Q406 478 344 478H275V309H352V369H414V186H352V240H275V72H356V0ZM584 72H640V478H584V550H880V478H817V72H898Q941 72 964 92.5Q987 113 987 174V195H1073V0H584Z" glyph-name="fl.alt.sc" horiz-adv-x="1095" /><glyph d="M42 0V72H98V478H42V550H527V366H441V389Q441 441 419 459.5Q397 478 335 478H275V309L420 317V232L275 241V72H356V0ZM579 72H635V478H579V550H875V478H812V72H893Q936 72 959 92.5Q982 113 982 174V195H1068V0H579Z" glyph-name="fl.sc" horiz-adv-x="1090" /><glyph d="M255 0V77H324V191H15V248L349 690H506V267H572V191H506V77H572V0ZM324 530 124 267H324Z" glyph-name="four" horiz-adv-x="616" unicode="4" /><glyph d="M179 -150V-87H222V-32H12V17L240 300H372V31H414V-32H372V-87H414V-150ZM222 181 101 31H222Z" glyph-name="four.inferior" horiz-adv-x="448" /><glyph d="M324 -170V0H16V58L349 525H501V77H584V0H501V-170ZM324 77V366L118 77Z" glyph-name="four.old" horiz-adv-x="610" /><glyph d="M232 0V72H291V143H17V199L313 550H468V215H523V143H468V72H523V0ZM291 408 128 215H291Z" glyph-name="four.sc" horiz-adv-x="566" /><glyph d="M179 434V497H222V552H12V601L240 884H372V615H414V552H372V497H414V434ZM222 765 101 615H222Z" glyph-name="four.superior" horiz-adv-x="448" /><glyph d="M267 0V77H336V191H27V248L361 690H518V267H584V191H518V77H584V0ZM336 530 136 267H336Z" glyph-name="four.tln" horiz-adv-x="640" /><glyph d="M338 -170V0H30V58L363 525H515V77H598V0H515V-170ZM338 77V366L132 77Z" glyph-name="four.ton" horiz-adv-x="640" /><glyph d="M286 222Q318 222 338.5 250.5Q359 279 359 342Q359 405 338.5 434.5Q318 464 286 464Q254 464 233.5 434.5Q213 405 213 342Q213 279 233.5 250.5Q254 222 286 222ZM584 -73Q584 -114 568 -148.5Q552 -183 516.5 -207.5Q481 -232 424.5 -246Q368 -260 287 -260Q236 -260 189 -253.5Q142 -247 107 -231Q72 -215 51 -190Q30 -165 30 -127Q30 -89 57.5 -59Q85 -29 134 -13Q99 -2 75 18.5Q51 39 51 82Q51 124 78 149Q105 174 149 185Q98 206 68 245.5Q38 285 38 342Q38 387 57.5 421Q77 455 111 478Q145 501 190 513Q235 525 286 525Q308 525 337.5 521Q367 517 386 512H593V438L482 450Q515 430 525 401.5Q535 373 535 342Q535 303 519.5 270Q504 237 473 213Q442 189 395.5 175.5Q349 162 286 162Q225 162 200.5 154.5Q176 147 176 125Q176 107 199 96.5Q222 86 287 86Q445 86 514.5 44Q584 2 584 -73ZM316 -191Q388 -191 428 -170.5Q468 -150 468 -108Q468 -91 459 -77Q450 -63 425 -53.5Q400 -44 356 -38.5Q312 -33 241 -33H217Q197 -44 185 -64Q173 -84 173 -107Q173 -132 184 -148.5Q195 -165 214 -174.5Q233 -184 259.5 -187.5Q286 -191 316 -191Z" glyph-name="g" horiz-adv-x="605" unicode="g" /><glyph d="M823 687Q823 656 802.5 632.5Q782 609 741 609Q702 609 681.5 632.5Q661 656 661 687Q661 718 681.5 742.5Q702 767 741 767Q782 767 802.5 742.5Q823 718 823 687ZM642 -260Q594 -260 557.5 -249Q521 -238 498 -218Q462 -238 410.5 -249Q359 -260 287 -260Q236 -260 189 -253.5Q142 -247 107 -231Q72 -215 51 -190Q30 -165 30 -127Q30 -89 57.5 -59Q85 -29 134 -13Q99 -2 75 18.5Q51 39 51 82Q51 122 77 148.5Q103 175 148 186Q97 207 67.5 246Q38 285 38 342Q38 387 57.5 421Q77 455 111 478Q145 501 190 513Q235 525 286 525Q308 525 337.5 521Q367 517 386 512Q518 512 601.5 512.5Q685 513 733.5 514.5Q782 516 802.5 518.5Q823 521 830 525L848 515V0Q848 -59 839.5 -106.5Q831 -154 808 -188.5Q785 -223 745 -241.5Q705 -260 642 -260ZM286 222Q318 222 338.5 250.5Q359 279 359 342Q359 405 338.5 434.5Q318 464 286 464Q254 464 233.5 434.5Q213 405 213 342Q213 279 233.5 250.5Q254 222 286 222ZM600 -196Q623 -196 637 -186.5Q651 -177 658.5 -157.5Q666 -138 668.5 -108Q671 -78 671 -36V431L492 447Q515 426 525 399.5Q535 373 535 342Q535 303 519.5 270Q504 237 473 213Q442 189 395.5 175.5Q349 162 286 162Q225 162 200.5 154.5Q176 147 176 125Q176 107 199 96.5Q222 86 287 86Q445 86 514.5 44Q584 2 584 -73Q584 -103 575.5 -129.5Q567 -156 549 -177Q557 -185 571 -190.5Q585 -196 600 -196ZM316 -191Q388 -191 428 -170.5Q468 -150 468 -108Q468 -91 459 -77Q450 -63 425 -53.5Q400 -44 356 -38.5Q312 -33 241 -33H217Q197 -44 185 -64Q173 -84 173 -107Q173 -132 184 -148.5Q195 -165 214 -174.5Q233 -184 259.5 -187.5Q286 -191 316 -191Z" glyph-name="g_j" horiz-adv-x="916" /><glyph d="M815 687Q815 656 794.5 632.5Q774 609 731 609Q689 609 668 632.5Q647 656 647 687Q647 718 668 742.5Q689 767 731 767Q774 767 794.5 742.5Q815 718 815 687ZM696 -260Q630 -260 585 -249.5Q540 -239 503 -216Q468 -236 415 -248Q362 -260 287 -260Q236 -260 189 -253.5Q142 -247 107 -231Q72 -215 51 -190Q30 -165 30 -127Q30 -89 57.5 -59Q85 -29 134 -13Q99 -2 75 18.5Q51 39 51 82Q51 120 76 146Q101 172 147 185Q93 208 65.5 248Q38 288 38 342Q38 387 57.5 421Q77 455 111 478Q145 501 190 513Q235 525 286 525Q308 525 337.5 521Q367 517 386 512Q522 512 603.5 512.5Q685 513 729 514.5Q773 516 790 518.5Q807 521 814 525L832 515V10Q864 -7 881 -37.5Q898 -68 898 -106Q898 -138 885 -166Q872 -194 846.5 -215Q821 -236 783.5 -248Q746 -260 696 -260ZM286 222Q318 222 338.5 250.5Q359 279 359 342Q359 405 338.5 434.5Q318 464 286 464Q254 464 233.5 434.5Q213 405 213 342Q213 279 233.5 250.5Q254 222 286 222ZM668 -194Q721 -194 749.5 -170.5Q778 -147 778 -102Q778 -52 742 -26Q706 0 655 0V432L492 447Q515 426 525 399.5Q535 373 535 342Q535 303 519.5 270Q504 237 473 213Q442 189 395.5 175.5Q349 162 286 162Q225 162 200.5 154.5Q176 147 176 124Q176 107 199 96.5Q222 86 287 86Q445 86 514.5 44Q584 2 584 -73Q584 -95 578.5 -119Q573 -143 556 -168Q583 -184 611 -189Q639 -194 668 -194ZM316 -191Q388 -191 428 -170.5Q468 -150 468 -108Q468 -91 459 -77Q450 -63 425 -53.5Q400 -44 356 -38.5Q312 -33 241 -33H217Q197 -44 185 -64Q173 -84 173 -107Q173 -132 184 -148.5Q195 -165 214 -174.5Q233 -184 259.5 -187.5Q286 -191 316 -191Z" glyph-name="g_j.alt" horiz-adv-x="902" /><glyph d="M452 29Q429 10 396 1Q363 -8 315 -8Q243 -8 190 15Q137 38 102 77Q67 116 49.5 167Q32 218 32 275Q32 331 51 382.5Q70 434 105.5 473Q141 512 191 535Q241 558 303 558Q351 558 382.5 548.5Q414 539 432 522L463 557H538V356H453Q451 416 424 449Q397 482 343 482Q286 482 249.5 430.5Q213 379 213 275Q213 217 223 177.5Q233 138 251 113.5Q269 89 293.5 78.5Q318 68 347 68Q364 68 380.5 71Q397 74 408 81V182H351V255H588V182H542V-8H485ZM637 0V72H693V478H637V550H926V478H870V72H926V0Z" glyph-name="g_j.alt.sc" horiz-adv-x="962" /><glyph d="M452 29Q429 10 396 1Q363 -8 315 -8Q243 -8 190 15Q137 38 102 77Q67 116 49.5 167Q32 218 32 275Q32 331 51 382.5Q70 434 105.5 473Q141 512 191 535Q241 558 303 558Q351 558 382.5 548.5Q414 539 432 522L463 557H538V356H453Q451 416 424 449Q397 482 343 482Q286 482 249.5 430.5Q213 379 213 275Q213 217 223 177.5Q233 138 251 113.5Q269 89 293.5 78.5Q318 68 347 68Q364 68 380.5 71Q397 74 408 81V182H351V255H588V182H542V-8H485ZM637 0V72H693V478H637V550H926V478H870V72H926V0Z" glyph-name="g_j.sc" horiz-adv-x="962" /><glyph d="M444 -10Q416 -10 394.5 -8.5Q373 -7 358 -5Q340 -3 326 0V73Q331 71 339 70Q345 68 353 67Q361 66 372 66Q410 66 430.5 94.5Q451 123 451 168Q451 214 432.5 240Q414 266 392.5 287Q371 308 352.5 331.5Q334 355 334 397Q334 427 346.5 447.5Q359 468 373.5 489Q388 510 400.5 536Q413 562 413 602Q413 637 397.5 660Q382 683 348 683Q306 683 289 653.5Q272 624 272 569V0H36V77H95V435H36V512H95V525Q95 582 113.5 626Q132 670 165.5 699.5Q199 729 246 744.5Q293 760 350 760Q475 760 535 720.5Q595 681 595 612Q595 578 581.5 553.5Q568 529 547.5 510Q527 491 503 476.5Q479 462 458.5 449.5Q438 437 424.5 424.5Q411 412 411 397Q411 381 427.5 369Q444 357 468.5 345.5Q493 334 522 320Q551 306 575.5 285Q600 264 616.5 233.5Q633 203 633 159Q633 82 586 36Q539 -10 444 -10Z" glyph-name="germandbls" horiz-adv-x="656" unicode="&#223;" /><glyph d="M434 -11Q406 -11 386 -9.5Q366 -8 352 -6Q337 -3 326 0V74Q332 72 340 70Q347 68 356 67Q365 66 377 66Q413 66 432 95Q451 124 451 175Q451 233 422 281Q393 329 321 361V401L512 673H272V0H36V77H95V435H36V512H95V750H607V666L433 419Q536 377 584.5 315.5Q633 254 633 175Q633 90 585.5 39.5Q538 -11 434 -11Z" glyph-name="germandbls.alt" horiz-adv-x="662" /><glyph d="M160 648Q127 662 107 673Q87 684 76.5 694Q66 704 62.5 713Q59 722 59 731Q59 751 75 765.5Q91 780 129 780Q163 780 189.5 766.5Q216 753 242 712L306 613H248Z" glyph-name="grave" horiz-adv-x="365" unicode="`" /><glyph d="M127 778Q85 792 70.5 807Q56 822 56 839Q56 858 70 872.5Q84 887 119 887Q157 887 181.5 868Q206 849 227 821L285 740H222Z" glyph-name="grave.cap" horiz-adv-x="351" /><glyph d="M66 211 283 347 66 482V581L392 372V327L66 118Z" glyph-name="greater" horiz-adv-x="424" unicode="&gt;" /><glyph d="M52 121 269 257 52 392V491L378 282V237L52 28Z" glyph-name="greater.old" horiz-adv-x="403" /><glyph d="M61 180 251 281 61 382V471L352 304V265L61 98Z" glyph-name="greater.sc" horiz-adv-x="382" /><glyph d="M174 211 391 347 174 482V581L500 372V327L174 118Z" glyph-name="greater.tln" horiz-adv-x="640" /><glyph d="M170 121 387 257 170 392V491L496 282V237L170 28Z" glyph-name="greater.ton" horiz-adv-x="640" /><glyph d="M305 14 27 252V286L305 501V440L190 269L305 75ZM501 53 253 253V285L501 462V401L407 269L501 114Z" glyph-name="guillemotleft" horiz-adv-x="552" unicode="&#171;" /><glyph d="M314 94 36 332V366L314 581V520L199 349L314 155ZM510 133 262 333V365L510 542V481L416 349L510 194Z" glyph-name="guillemotleft.cap" horiz-adv-x="571" /><glyph d="M285 56 31 250V277L285 453V396L175 263L285 113ZM464 87 236 251V276L464 422V365L372 263L464 144Z" glyph-name="guillemotleft.sc" horiz-adv-x="523" /><glyph d="M349 14 71 252V286L349 501V440L234 269L349 75ZM545 53 297 253V285L545 462V401L451 269L545 114Z" glyph-name="guillemotleft.tln" horiz-adv-x="640" /><glyph d="M361 266 246 440V501L524 286V252L246 14V75ZM145 266 50 401V462L299 285V253L50 53V114Z" glyph-name="guillemotright" horiz-adv-x="552" unicode="&#187;" /><glyph d="M372 346 257 520V581L535 366V332L257 94V155ZM156 346 61 481V542L310 365V333L61 133V194Z" glyph-name="guillemotright.cap" horiz-adv-x="571" /><glyph d="M348 260 238 396V453L492 277V250L238 56V113ZM151 260 59 365V422L288 276V251L59 87V144Z" glyph-name="guillemotright.sc" horiz-adv-x="523" /><glyph d="M405 266 290 440V501L568 286V252L290 14V75ZM189 266 94 401V462L343 285V253L94 53V114Z" glyph-name="guillemotright.tln" horiz-adv-x="640" /><glyph d="M26 0V77H84V670H26V747Q88 747 126.5 747.5Q165 748 188.5 749.5Q212 751 224 753.5Q236 756 243 760L261 750V631Q261 571 258 516.5Q255 462 245 408Q265 462 307.5 493.5Q350 525 421 525Q460 525 493 514Q526 503 550.5 479Q575 455 589 417Q603 379 603 325V77H662V0H379V77H426V299Q426 362 404.5 385.5Q383 409 345 409Q305 409 283 382Q261 355 261 291V77H309V0Z" glyph-name="h" horiz-adv-x="686" unicode="h" /><glyph d="M71 613 101 699Q120 757 141 784Q162 811 198 811Q227 811 242 796.5Q257 782 257 759Q257 736 243 711Q229 686 187 654L133 613ZM223 613 282 698Q314 745 342 762.5Q370 780 405 780Q437 780 454.5 768.5Q472 757 472 733Q472 707 450.5 688.5Q429 670 373 648L280 613Z" glyph-name="hungarumlaut" horiz-adv-x="552" unicode="&#733;" /><glyph d="M122 740H57L93 833Q109 878 128 901.5Q147 925 176 925Q205 925 218 911Q231 897 231 876Q230 853 216 833.5Q202 814 176 790ZM268 740H203L261 825Q284 857 310 875Q336 893 368 893Q396 893 412 879.5Q428 866 428 846Q428 826 411.5 811.5Q395 797 366 785Z" glyph-name="hungarumlaut.cap" horiz-adv-x="479" /><glyph d="M57 356H355V269H57Z" glyph-name="hyphen" horiz-adv-x="411" unicode="-" /><glyph d="M59 395H357V308H59Z" glyph-name="hyphen.cap" horiz-adv-x="416" /><glyph d="M58 336H356V249H58Z" glyph-name="hyphen.sc" horiz-adv-x="414" /><glyph d="M171 356H469V269H171Z" glyph-name="hyphen.tln" horiz-adv-x="640" /><glyph d="M273 77H331V0H37V77H96V435H37V512Q94 512 133 512.5Q172 513 196.5 514.5Q221 516 234.5 518.5Q248 521 255 525L273 515ZM257 686Q257 655 236.5 631.5Q216 608 176 608Q137 608 116 631.5Q95 655 95 686Q95 716 116 741Q137 766 176 766Q216 766 236.5 741Q257 716 257 686Z" glyph-name="i" horiz-adv-x="357" unicode="i" /><glyph d="M273 77H331V0H37V77H96V435H37V512Q94 512 133 512.5Q172 513 196.5 514.5Q221 516 234.5 518.5Q248 521 255 525L273 515ZM257 686Q257 655 236.5 631.5Q216 608 176 608Q137 608 116 631.5Q95 655 95 686Q95 716 116 741Q137 766 176 766Q216 766 236.5 741Q257 716 257 686Z" glyph-name="i.TRK" horiz-adv-x="357" /><glyph d="M273 77H331V0H37V77H96V435H37V512Q94 512 133 512.5Q172 513 196.5 514.5Q221 516 234.5 518.5Q248 521 255 525L273 515ZM257 686Q257 655 236.5 631.5Q216 608 176 608Q137 608 116 631.5Q95 655 95 686Q95 716 116 741Q137 766 176 766Q216 766 236.5 741Q257 716 257 686Z" glyph-name="i.dot" horiz-adv-x="357" /><glyph d="M118 613 172 698Q205 748 234.5 764Q264 780 298 780Q336 780 350.5 765.5Q365 751 365 731Q365 722 361.5 713Q358 704 347.5 694Q337 684 317 673Q297 662 264 648L176 613ZM273 77H331V0H37V77H96V435H37V512Q94 512 133 512.5Q172 513 196.5 514.5Q221 516 234.5 518.5Q248 521 255 525L273 515Z" glyph-name="iacute" horiz-adv-x="357" unicode="&#237;" /><glyph d="M449 601 503 686Q535 736 564.5 752Q594 768 628 768Q666 768 680.5 754Q695 740 695 720Q695 711 691.5 702Q688 693 677.5 682.5Q667 672 647 661Q627 650 594 636L506 601ZM128 601 182 686Q214 736 244 752Q274 768 307 768Q345 768 359.5 754Q374 740 374 720Q374 711 370.5 702Q367 693 356.5 682.5Q346 672 326 661Q306 650 273 636L185 601ZM273 77H331V0H37V77H96V435H37V512Q94 512 133 512.5Q172 513 196.5 514.5Q221 516 234.5 518.5Q248 521 255 525L273 515ZM389 -260Q350 -260 317 -251.5Q284 -243 260.5 -227Q237 -211 223.5 -188.5Q210 -166 210 -139Q210 -104 230.5 -81.5Q251 -59 288 -59Q325 -59 345 -80Q365 -101 365 -130Q365 -150 359 -163.5Q353 -177 343 -186Q355 -191 371 -191Q406 -191 417.5 -155.5Q429 -120 429 -52V435H371V512Q428 512 466.5 512.5Q505 513 529.5 514.5Q554 516 567.5 518.5Q581 521 588 525L606 515V0Q606 -62 595 -110.5Q584 -159 558.5 -192Q533 -225 491.5 -242.5Q450 -260 389 -260Z" glyph-name="iacute_jacute" horiz-adv-x="674" /><glyph d="M273 77H331V0H37V77H96V435H37V512Q94 512 133 512.5Q172 513 196.5 514.5Q221 516 234.5 518.5Q248 521 255 525L273 515ZM498 -260Q416 -260 367 -228Q318 -196 318 -143Q318 -108 338.5 -85.5Q359 -63 398 -63Q436 -63 456.5 -83Q477 -103 477 -132Q477 -170 449 -190Q464 -195 484 -195Q524 -195 547.5 -172Q571 -149 571 -104Q571 -52 535 -26Q499 0 448 0V435H390V512Q447 512 485.5 512.5Q524 513 548.5 514.5Q573 516 586.5 518.5Q600 521 607 525L625 515V10Q657 -7 674 -37.5Q691 -68 691 -106Q691 -138 678.5 -166Q666 -194 641.5 -215Q617 -236 581 -248Q545 -260 498 -260ZM440 613 494 698Q527 748 556.5 764Q586 780 620 780Q658 780 672.5 765.5Q687 751 687 731Q687 722 683.5 713Q680 704 669.5 694Q659 684 639 673Q619 662 586 648L498 613ZM89 613 143 698Q176 748 205.5 764Q235 780 269 780Q307 780 321.5 765.5Q336 751 336 731Q336 722 332.5 713Q329 704 318.5 694Q308 684 288 673Q268 662 235 648L147 613Z" glyph-name="iacute_jacute.alt" horiz-adv-x="696" /><glyph d="M501 591H441L492 651Q510 674 533.5 692.5Q557 711 594 711Q627 711 640 698Q653 685 653 668Q653 654 639.5 641Q626 628 586 616ZM186 591H127L177 651Q195 674 218.5 692.5Q242 711 279 711Q313 711 325.5 698Q338 685 338 668Q338 654 324.5 641Q311 628 271 616ZM31 235V307H87V478H31V550H320V478H264V307H320V235ZM591 255Q591 114 527 53Q463 -8 337 -8Q284 -8 240.5 2Q197 12 166.5 31Q136 50 119.5 76Q103 102 103 134Q103 171 125.5 191.5Q148 212 183 212Q222 212 241.5 194Q261 176 261 150Q261 124 248 111Q235 98 220 91Q231 81 252.5 76Q274 71 302 71Q331 71 352 79.5Q373 88 386.5 109Q400 130 407 165Q414 200 414 253V478H354V550H646V478H591Z" glyph-name="iacute_jacute.alt.sc" horiz-adv-x="681" /><glyph d="M648 591H589L638 651Q657 674 680 692.5Q703 711 741 711Q775 711 787.5 698Q800 685 800 671Q800 655 785.5 641Q771 627 719 614ZM206 591H146L196 651Q215 674 238.5 692.5Q262 711 298 711Q332 711 344.5 699.5Q357 688 357 671Q357 664 354.5 656.5Q352 649 344 642Q336 635 321 628Q306 621 280 615ZM42 0V72H98V478H42V550H331V478H275V72H331V0ZM734 185Q734 82 680.5 37Q627 -8 529 -8Q493 -8 460.5 0.5Q428 9 404 24.5Q380 40 366 63.5Q352 87 352 117Q352 153 374.5 173.5Q397 194 432 194Q467 194 488 176.5Q509 159 509 127Q509 107 500.5 93.5Q492 80 484 75Q491 64 516 64Q538 64 547.5 81.5Q557 99 557 147V478H498V550H790V478H734Z" glyph-name="iacute_jacute.sc" horiz-adv-x="819" /><glyph d="M-19 612 148 787H199L361 612H285L173 688L57 612ZM273 77H331V0H37V77H96V435H37V512Q94 512 133 512.5Q172 513 196.5 514.5Q221 516 234.5 518.5Q248 521 255 525L273 515Z" glyph-name="icircumflex" horiz-adv-x="357" unicode="&#238;" /><glyph d="M153 685Q153 654 132.5 630.5Q112 607 72 607Q33 607 12.5 630.5Q-8 654 -8 685Q-8 715 12.5 740Q33 765 72 765Q112 765 132.5 740Q153 715 153 685ZM363 685Q363 654 343 630.5Q323 607 282 607Q243 607 222.5 630.5Q202 654 202 685Q202 715 222.5 740Q243 765 282 765Q323 765 343 740Q363 715 363 685ZM273 77H331V0H37V77H96V435H37V512Q94 512 133 512.5Q172 513 196.5 514.5Q221 516 234.5 518.5Q248 521 255 525L273 515Z" glyph-name="idieresis" horiz-adv-x="357" unicode="&#239;" /><glyph d="M273 77H331V0H37V77H96V435H37V512Q94 512 133 512.5Q172 513 196.5 514.5Q221 516 234.5 518.5Q248 521 255 525L273 515ZM105 648Q72 662 52 673Q32 684 21.5 694Q11 704 7.5 713Q4 722 4 731Q4 751 20 765.5Q36 780 74 780Q108 780 134.5 766.5Q161 753 187 712L251 613H193Z" glyph-name="igrave" horiz-adv-x="357" unicode="&#236;" /><glyph d="M257 686Q257 655 236.5 631.5Q216 608 176 608Q137 608 116 631.5Q95 655 95 686Q95 716 116 741Q137 766 176 766Q216 766 236.5 741Q257 716 257 686ZM56 -260Q17 -260 -16 -251.5Q-49 -243 -72.5 -227Q-96 -211 -109.5 -188.5Q-123 -166 -123 -139Q-123 -104 -102.5 -81.5Q-82 -59 -45 -59Q-8 -59 12 -80Q32 -101 32 -130Q32 -167 9 -187Q18 -191 37 -191Q74 -191 85 -155.5Q96 -120 96 -52V435H38V512Q95 512 133.5 512.5Q172 513 196.5 514.5Q221 516 234.5 518.5Q248 521 255 525L273 515V0Q273 -62 262 -110.5Q251 -159 225.5 -192Q200 -225 158.5 -242.5Q117 -260 56 -260Z" glyph-name="j" horiz-adv-x="341" unicode="j" /><glyph d="M239 686Q239 655 218.5 631.5Q198 608 158 608Q119 608 98 631.5Q77 655 77 686Q77 716 98 741Q119 766 158 766Q198 766 218.5 741Q239 716 239 686ZM134 -260Q52 -260 3 -228Q-46 -196 -46 -143Q-46 -108 -25.5 -85.5Q-5 -63 34 -63Q72 -63 92.5 -83Q113 -103 113 -132Q113 -170 85 -190Q100 -195 120 -195Q160 -195 183.5 -172Q207 -149 207 -104Q207 -52 171 -26Q135 0 84 0V435H26V512Q83 512 121.5 512.5Q160 513 184.5 514.5Q209 516 222.5 518.5Q236 521 243 525L261 515V10Q293 -7 310 -37.5Q327 -68 327 -106Q327 -138 314.5 -166Q302 -194 277.5 -215Q253 -236 217 -248Q181 -260 134 -260Z" glyph-name="j.alt" horiz-adv-x="331" /><glyph d="M26 0V77H84V670H26V747Q88 747 126.5 747.5Q165 748 188.5 749.5Q212 751 224 753.5Q236 756 243 760L261 750V267L441 435H376V512H636V435H555L442 328L627 77H670V0H378V77H426L323 217L261 159V77H306V0Z" glyph-name="k" horiz-adv-x="671" unicode="k" /><glyph d="M492 435H261V251ZM26 0V77H84V670H26V747Q87 747 126.5 747.5Q166 748 190 749.5Q214 751 225.5 753.5Q237 756 243 760L261 750V512H626V443L453 304L627 77H670V0H378V77H435L335 209L261 150V77H306V0Z" glyph-name="k.alt" horiz-adv-x="672" /><glyph d="M26 77H85V670H26V747Q88 747 127 747.5Q166 748 189.5 749.5Q213 751 225 753.5Q237 756 244 760L262 750V77H320V0H26Z" glyph-name="l" horiz-adv-x="347" unicode="l" /><glyph d="M33 327V372L359 581V488L141 354L359 217V118Z" glyph-name="less" horiz-adv-x="424" unicode="&lt;" /><glyph d="M25 237V282L351 491V398L133 264L351 127V28Z" glyph-name="less.old" horiz-adv-x="403" /><glyph d="M29 265V304L320 471V388L132 289L320 186V98Z" glyph-name="less.sc" horiz-adv-x="382" /><glyph d="M141 327V372L467 581V488L249 354L467 217V118Z" glyph-name="less.tln" horiz-adv-x="640" /><glyph d="M144 237V282L470 491V398L252 264L470 127V28Z" glyph-name="less.ton" horiz-adv-x="640" /><glyph d="M427 185V305H59V384H505V185Z" glyph-name="logicalnot" horiz-adv-x="568" unicode="&#172;" /><glyph d="M423 135V255H55V334H501V135Z" glyph-name="logicalnot.old" horiz-adv-x="561" /><glyph d="M383 159V252H59V322H456V159Z" glyph-name="logicalnot.sc" horiz-adv-x="516" /><glyph d="M463 185V305H95V384H541V185Z" glyph-name="logicalnot.tln" horiz-adv-x="640" /><glyph d="M464 135V255H96V334H542V135Z" glyph-name="logicalnot.ton" horiz-adv-x="640" /><glyph d="M36 77H95V435H36V512Q94 512 128.5 512.5Q163 513 183 514.5Q203 516 212.5 518.5Q222 521 230 525L251 515V405Q272 460 317 492.5Q362 525 432 525Q479 525 521.5 499.5Q564 474 580 415Q600 465 644 495Q688 525 757 525Q792 525 822 514.5Q852 504 874 481Q896 458 908.5 421.5Q921 385 921 334V77H979V0H701V77H744V300Q744 359 726.5 386.5Q709 414 672 414Q596 414 596 296V77H639V0H376V77H419V300Q419 359 401.5 386.5Q384 414 346 414Q311 414 291.5 385Q272 356 272 296V77H314V0H36Z" glyph-name="m" horiz-adv-x="1004" unicode="m" /><glyph d="M47 717H327V647H47Z" glyph-name="macron" horiz-adv-x="374" unicode="&#175;" /><glyph d="M41 842H321V772H41Z" glyph-name="macron.cap" horiz-adv-x="362" /><glyph d="M59 388H485V309H59Z" glyph-name="minus" horiz-adv-x="544" unicode="&#8722;" /><glyph d="M57 308H483V229H57Z" glyph-name="minus.old" horiz-adv-x="540" /><glyph d="M58 313H418V243H58Z" glyph-name="minus.sc" horiz-adv-x="476" /><glyph d="M107 388H533V309H107Z" glyph-name="minus.tln" horiz-adv-x="640" /><glyph d="M107 308H533V229H107Z" glyph-name="minus.ton" horiz-adv-x="640" /><glyph d="M204 -150Q204 -178 184 -202.5Q164 -227 124 -227Q83 -227 63.5 -202.5Q44 -178 44 -150Q44 -133 47 -120.5Q50 -108 54.5 -92Q59 -76 64 -54Q69 -32 73.5 3Q78 38 81 90Q84 142 84 217V435H26V512Q79 512 115.5 512Q152 512 177.5 513Q203 514 218.5 517Q234 520 244 525L261 515V225Q261 159 281 128.5Q301 98 343 98Q381 98 404 128Q427 158 427 230V435H364V512Q418 512 455.5 512Q493 512 518.5 513Q544 514 559.5 516.5Q575 519 585 525L604 515V81H662V4Q608 4 573 3.5Q538 3 515.5 1.5Q493 0 481 -3Q469 -6 461 -10L442 0V113Q421 55 380 22.5Q339 -10 269 -10Q237 -10 208.5 -3Q180 4 157 20Q161 -20 168.5 -43.5Q176 -67 184 -83.5Q192 -100 198 -114.5Q204 -129 204 -150Z" glyph-name="mu" horiz-adv-x="686" unicode="&#181;" /><glyph d="M237 286 98 149 45 203 183 340 45 477 103 535 241 398 380 536 433 481 295 344 434 207 376 149Z" glyph-name="multiply" horiz-adv-x="479" unicode="&#215;" /><glyph d="M234 202 95 65 42 119 180 256 42 393 100 451 238 314 377 452 430 397 292 260 431 123 373 65Z" glyph-name="multiply.old" horiz-adv-x="472" /><glyph d="M204 223 95 115 48 165 157 272 49 379 98 431 207 325 317 432 363 382 253 275 363 168 314 115Z" glyph-name="multiply.sc" horiz-adv-x="411" /><glyph d="M318 286 179 149 126 203 264 340 126 477 184 535 322 398 461 536 514 481 376 344 515 207 457 149Z" glyph-name="multiply.tln" horiz-adv-x="640" /><glyph d="M318 202 179 65 126 119 264 256 126 393 184 451 322 314 461 452 514 397 376 260 515 123 457 65Z" glyph-name="multiply.ton" horiz-adv-x="640" /><glyph d="M319 0H36V77H95V435H36V512Q95 512 130 512.5Q165 513 185.5 514.5Q206 516 215.5 518.5Q225 521 233 525L252 515V400Q272 454 317 489.5Q362 525 435 525Q473 525 505.5 514Q538 503 562 479Q586 455 600 417Q614 379 614 325V77H673V0H390V77H437V299Q437 362 415 385.5Q393 409 355 409Q316 409 294 382Q272 355 272 291V77H319Z" glyph-name="n" horiz-adv-x="697" unicode="n" /><glyph d="M422 476Q422 546 396 583.5Q370 621 324 621Q278 621 251.5 583.5Q225 546 225 476Q225 406 251.5 370.5Q278 335 324 335Q370 335 396 370.5Q422 406 422 476ZM281 69Q319 69 347 82.5Q375 96 393 126Q411 156 419.5 204.5Q428 253 428 323Q404 291 363.5 273.5Q323 256 268 256Q222 256 180 271Q138 286 106.5 314Q75 342 56.5 382Q38 422 38 473Q38 518 57 559Q76 600 112 631.5Q148 663 199.5 681.5Q251 700 315 700Q379 700 433 681Q487 662 526 621Q565 580 587 516Q609 452 609 361Q609 281 591 213Q573 145 534.5 95.5Q496 46 436.5 18Q377 -10 294 -10Q190 -10 131.5 25Q73 60 73 121Q73 161 97.5 180Q122 199 157 199Q190 199 215 180.5Q240 162 240 128Q240 95 220 78Q228 74 245.5 71.5Q263 69 281 69Z" glyph-name="nine" horiz-adv-x="653" unicode="9" /><glyph d="M300 160Q300 203 283.5 223Q267 243 241 243Q215 243 198 223Q181 203 181 160Q181 118 198 99Q215 80 241 80Q267 80 283.5 99Q300 118 300 160ZM210 -93Q261 -93 282.5 -59.5Q304 -26 304 53Q270 19 193 19Q161 19 131.5 28Q102 37 79 55Q56 73 42 98.5Q28 124 28 157Q28 188 42.5 215Q57 242 83.5 262.5Q110 283 148 295Q186 307 233 307Q336 307 394 253.5Q452 200 452 85Q452 31 439 -14Q426 -59 398.5 -90.5Q371 -122 328.5 -139.5Q286 -157 226 -157Q145 -157 99.5 -131.5Q54 -106 54 -65Q54 -36 72.5 -21.5Q91 -7 119 -7Q145 -7 164.5 -20.5Q184 -34 184 -60Q184 -69 181.5 -75Q179 -81 174 -88Q179 -90 190 -91.5Q201 -93 210 -93Z" glyph-name="nine.inferior" horiz-adv-x="484" /><glyph d="M401 303Q401 373 377 410.5Q353 448 307 448Q261 448 236.5 410.5Q212 373 212 303Q212 232 236.5 197Q261 162 307 162Q401 162 401 303ZM287 -180Q241 -180 200.5 -171Q160 -162 130 -145.5Q100 -129 83 -105Q66 -81 66 -51Q66 -14 88 5.5Q110 25 147 25Q179 25 201 7.5Q223 -10 223 -41Q223 -52 219 -66Q215 -80 202 -95Q222 -102 238 -102.5Q254 -103 268 -103Q304 -103 330.5 -89.5Q357 -76 375 -46Q393 -16 401.5 33.5Q410 83 410 155Q387 123 350 104Q313 85 257 85Q210 85 168.5 99.5Q127 114 96.5 142Q66 170 48 209.5Q30 249 30 300Q30 347 48 388Q66 429 100.5 459.5Q135 490 184.5 507.5Q234 525 297 525Q362 525 414.5 506.5Q467 488 504.5 447.5Q542 407 562.5 343Q583 279 583 188Q583 108 566 40.5Q549 -27 513 -76Q477 -125 421 -152.5Q365 -180 287 -180Z" glyph-name="nine.old" horiz-adv-x="622" /><glyph d="M377 379Q377 434 356 459.5Q335 485 298 485Q260 485 238.5 459.5Q217 434 217 379Q217 327 238.5 302Q260 277 298 277Q335 277 356 302Q377 327 377 379ZM277 -8Q232 -8 193.5 -0.5Q155 7 127.5 21Q100 35 84 55.5Q68 76 68 102Q68 137 91 154Q114 171 148 171Q182 171 204 155.5Q226 140 226 108Q226 86 214 70Q229 66 240 65.5Q251 65 261 65Q332 65 357.5 112.5Q383 160 383 251Q361 230 326.5 218Q292 206 242 206Q199 206 161.5 217Q124 228 96 250Q68 272 52 303.5Q36 335 36 376Q36 412 52.5 445Q69 478 101.5 503Q134 528 181 543Q228 558 288 558Q351 558 401 542.5Q451 527 486 494Q521 461 540 410Q559 359 559 288Q559 225 544.5 171Q530 117 497 77Q464 37 410 14.5Q356 -8 277 -8Z" glyph-name="nine.sc" horiz-adv-x="599" /><glyph d="M300 744Q300 787 283.5 807Q267 827 241 827Q215 827 198 807Q181 787 181 744Q181 702 198 683Q215 664 241 664Q267 664 283.5 683Q300 702 300 744ZM210 491Q261 491 282.5 524.5Q304 558 304 637Q270 603 193 603Q161 603 131.5 612Q102 621 79 639Q56 657 42 682.5Q28 708 28 741Q28 772 42.5 799Q57 826 83.5 846.5Q110 867 148 879Q186 891 233 891Q336 891 394 837.5Q452 784 452 669Q452 615 439 570Q426 525 398.5 493.5Q371 462 328.5 444.5Q286 427 226 427Q145 427 99.5 452.5Q54 478 54 519Q54 548 72.5 562.5Q91 577 119 577Q145 577 164.5 563.5Q184 550 184 524Q184 515 181.5 509Q179 503 174 496Q179 494 190 492.5Q201 491 210 491Z" glyph-name="nine.superior" horiz-adv-x="484" /><glyph d="M410 476Q410 546 385.5 583.5Q361 621 318 621Q274 621 249.5 583.5Q225 546 225 476Q225 406 249.5 370.5Q274 335 318 335Q361 335 385.5 370.5Q410 406 410 476ZM277 69Q313 69 339.5 82.5Q366 96 383 126Q400 156 408 204.5Q416 253 416 323Q393 292 356 274Q319 256 268 256Q222 256 180 271Q138 286 106.5 314Q75 342 56.5 382Q38 422 38 473Q38 518 56.5 559Q75 600 110 631.5Q145 663 195 681.5Q245 700 308 700Q371 700 424 681Q477 662 515.5 621Q554 580 575.5 516Q597 452 597 361Q597 281 579 213Q561 145 523.5 95.5Q486 46 427.5 18Q369 -10 288 -10Q188 -10 130.5 25Q73 60 73 119Q73 159 97.5 179Q122 199 158 199Q192 199 216 180.5Q240 162 240 128Q240 97 218 78Q226 74 243 71.5Q260 69 277 69Z" glyph-name="nine.tln" horiz-adv-x="640" /><glyph d="M411 303Q411 373 387 410.5Q363 448 317 448Q271 448 246.5 410.5Q222 373 222 303Q222 232 246.5 197Q271 162 317 162Q411 162 411 303ZM297 -180Q251 -180 210.5 -171Q170 -162 140 -145.5Q110 -129 93 -105Q76 -81 76 -51Q76 -14 98 5.5Q120 25 157 25Q189 25 211 7.5Q233 -10 233 -41Q233 -52 229 -66Q225 -80 212 -95Q232 -102 248 -102.5Q264 -103 278 -103Q314 -103 340.5 -89.5Q367 -76 385 -46Q403 -16 411.5 33.5Q420 83 420 155Q397 123 360 104Q323 85 267 85Q220 85 178.5 99.5Q137 114 106.5 142Q76 170 58 209.5Q40 249 40 300Q40 347 58 388Q76 429 110.5 459.5Q145 490 194.5 507.5Q244 525 307 525Q372 525 424.5 506.5Q477 488 514.5 447.5Q552 407 572.5 343Q593 279 593 188Q593 108 576 40.5Q559 -27 523 -76Q487 -125 431 -152.5Q375 -180 297 -180Z" glyph-name="nine.ton" horiz-adv-x="640" /><glyph glyph-name="nonbreakingspace.narrow" horiz-adv-x="167" unicode="&#8239;" /><glyph glyph-name="nonmarkingreturn" horiz-adv-x="250" unicode="" /><glyph d="M319 0H36V77H95V435H36V512Q95 512 130 512.5Q165 513 185.5 514.5Q206 516 215.5 518.5Q225 521 233 525L252 515V400Q272 454 317 489.5Q362 525 435 525Q473 525 505.5 514Q538 503 562 479Q586 455 600 417Q614 379 614 325V77H673V0H390V77H437V299Q437 362 415 385.5Q393 409 355 409Q316 409 294 382Q272 355 272 291V77H319ZM440 608Q416 608 395.5 617Q375 626 357 637Q339 648 323 657Q307 666 292 666Q271 666 262.5 651.5Q254 637 254 612H193Q193 681 216 720.5Q239 760 293 760Q318 760 339 751Q360 742 378 730.5Q396 719 412.5 710Q429 701 444 701Q463 701 471 715.5Q479 730 479 756H540Q540 722 536 694.5Q532 667 521 647.5Q510 628 490.5 618Q471 608 440 608Z" glyph-name="ntilde" horiz-adv-x="697" unicode="&#241;" /><glyph d="M428 409H294L254 260H388ZM366 170H232L187 0H86L132 170H33V260H154L194 409H72V498H218L269 690H370L319 498H453L504 690H604L553 498H654V409H529L489 260H615V170H467L421 0H321Z" glyph-name="numbersign" horiz-adv-x="688" unicode="#" /><glyph d="M381 302H277L245 213H349ZM319 134H215L166 0H77L126 134H31V213H156L188 302H70V381H218L266 512H355L307 381H411L459 512H548L500 381H593V302H470L438 213H554V134H408L359 0H270Z" glyph-name="numbersign.old" horiz-adv-x="624" /><glyph d="M386 320H271L239 212H354ZM329 128H214L176 0H80L117 128H32V212H142L174 320H67V403H199L242 549H339L296 403H410L454 549H550L507 403H594V320H483L450 212H560V128H426L388 0H291Z" glyph-name="numbersign.sc" horiz-adv-x="627" /><glyph d="M383 424H275L242 275H351ZM329 186H221L179 0H79L120 186H44V275H142L175 424H83V514H196L236 690H336L297 514H405L444 690H545L505 514H599V424H484L451 275H560V186H430L388 0H287Z" glyph-name="numbersign.tln" horiz-adv-x="640" /><glyph d="M389 302H285L253 213H357ZM327 134H223L174 0H85L134 134H39V213H164L196 302H78V381H226L274 512H363L315 381H419L467 512H556L508 381H601V302H478L446 213H562V134H416L367 0H278Z" glyph-name="numbersign.ton" horiz-adv-x="640" /><glyph d="M311 -10Q253 -10 202.5 7.5Q152 25 114 59.5Q76 94 54 144Q32 194 32 258Q32 323 54 373Q76 423 114 456.5Q152 490 202.5 507.5Q253 525 311 525Q367 525 417.5 507.5Q468 490 506 456.5Q544 423 566.5 373Q589 323 589 258Q589 193 566.5 143Q544 93 506 59Q468 25 417.5 7.5Q367 -10 311 -10ZM311 448Q260 448 237 395Q214 342 214 258Q214 216 219.5 181Q225 146 237 120.5Q249 95 267.5 81Q286 67 311 67Q361 67 384 120Q407 173 407 258Q407 342 384 395Q361 448 311 448Z" glyph-name="o" horiz-adv-x="621" unicode="o" /><glyph d="M311 -10Q253 -10 202.5 7.5Q152 25 114 59.5Q76 94 54 144Q32 194 32 258Q32 323 54 373Q76 423 114 456.5Q152 490 202.5 507.5Q253 525 311 525Q367 525 417.5 507.5Q468 490 506 456.5Q544 423 566.5 373Q589 323 589 258Q589 193 566.5 143Q544 93 506 59Q468 25 417.5 7.5Q367 -10 311 -10ZM311 448Q260 448 237 395Q214 342 214 258Q214 216 219.5 181Q225 146 237 120.5Q249 95 267.5 81Q286 67 311 67Q361 67 384 120Q407 173 407 258Q407 342 384 395Q361 448 311 448ZM257 613 311 698Q344 748 373.5 764Q403 780 437 780Q475 780 489.5 765.5Q504 751 504 731Q504 722 500.5 713Q497 704 486.5 694Q476 684 456 673Q436 662 403 648L315 613Z" glyph-name="oacute" horiz-adv-x="621" unicode="&#243;" /><glyph d="M278 601 299 682Q313 739 335.5 765Q358 791 396 791Q425 791 439 777.5Q453 764 453 744Q453 724 436 702Q419 680 381 644L336 601ZM311 -10Q253 -10 202.5 7.5Q152 25 114 59.5Q76 94 54 144Q32 194 32 258Q32 323 54 373Q76 423 114 456.5Q152 490 202.5 507.5Q253 525 311 525Q367 525 417.5 507.5Q468 490 506 456.5Q544 423 566.5 373Q589 323 589 258Q589 193 566.5 143Q544 93 506 59Q468 25 417.5 7.5Q367 -10 311 -10ZM311 448Q260 448 237 395Q214 342 214 258Q214 216 219.5 181Q225 146 237 120.5Q249 95 267.5 81Q286 67 311 67Q361 67 384 120Q407 173 407 258Q407 342 384 395Q361 448 311 448Z" glyph-name="oacute.pl" horiz-adv-x="621" /><glyph d="M123 612 290 787H341L503 612H427L315 688L199 612ZM311 -10Q253 -10 202.5 7.5Q152 25 114 59.5Q76 94 54 144Q32 194 32 258Q32 323 54 373Q76 423 114 456.5Q152 490 202.5 507.5Q253 525 311 525Q367 525 417.5 507.5Q468 490 506 456.5Q544 423 566.5 373Q589 323 589 258Q589 193 566.5 143Q544 93 506 59Q468 25 417.5 7.5Q367 -10 311 -10ZM311 448Q260 448 237 395Q214 342 214 258Q214 216 219.5 181Q225 146 237 120.5Q249 95 267.5 81Q286 67 311 67Q361 67 384 120Q407 173 407 258Q407 342 384 395Q361 448 311 448Z" glyph-name="ocircumflex" horiz-adv-x="621" unicode="&#244;" /><glyph d="M311 -10Q253 -10 202.5 7.5Q152 25 114 59.5Q76 94 54 144Q32 194 32 258Q32 323 54 373Q76 423 114 456.5Q152 490 202.5 507.5Q253 525 311 525Q367 525 417.5 507.5Q468 490 506 456.5Q544 423 566.5 373Q589 323 589 258Q589 193 566.5 143Q544 93 506 59Q468 25 417.5 7.5Q367 -10 311 -10ZM311 448Q260 448 237 395Q214 342 214 258Q214 216 219.5 181Q225 146 237 120.5Q249 95 267.5 81Q286 67 311 67Q361 67 384 120Q407 173 407 258Q407 342 384 395Q361 448 311 448ZM285 685Q285 654 264.5 630.5Q244 607 204 607Q165 607 144.5 630.5Q124 654 124 685Q124 715 144.5 740Q165 765 204 765Q244 765 264.5 740Q285 715 285 685ZM495 685Q495 654 475 630.5Q455 607 414 607Q375 607 354.5 630.5Q334 654 334 685Q334 715 354.5 740Q375 765 414 765Q455 765 475 740Q495 715 495 685Z" glyph-name="odieresis" horiz-adv-x="621" unicode="&#246;" /><glyph d="M260 0Q226 -9 211 -27Q196 -45 196 -67Q196 -110 247 -110Q279 -110 298 -94V-155Q284 -167 260 -176Q236 -185 196 -185Q136 -185 99 -160.5Q62 -136 62 -89Q62 -56 89 -31Q116 -6 167 0Z" glyph-name="ogonek" horiz-adv-x="360" unicode="&#731;" /><glyph d="M311 -10Q253 -10 202.5 7.5Q152 25 114 59.5Q76 94 54 144Q32 194 32 258Q32 323 54 373Q76 423 114 456.5Q152 490 202.5 507.5Q253 525 311 525Q367 525 417.5 507.5Q468 490 506 456.5Q544 423 566.5 373Q589 323 589 258Q589 193 566.5 143Q544 93 506 59Q468 25 417.5 7.5Q367 -10 311 -10ZM311 448Q260 448 237 395Q214 342 214 258Q214 216 219.5 181Q225 146 237 120.5Q249 95 267.5 81Q286 67 311 67Q361 67 384 120Q407 173 407 258Q407 342 384 395Q361 448 311 448ZM216 648Q183 662 163 673Q143 684 132.5 694Q122 704 118.5 713Q115 722 115 731Q115 751 131 765.5Q147 780 185 780Q219 780 245.5 766.5Q272 753 298 712L362 613H304Z" glyph-name="ograve" horiz-adv-x="621" unicode="&#242;" /><glyph d="M45 0V77H137V556H45V633Q139 633 199.5 649Q260 665 283 700H319V77H412V0Z" glyph-name="one" horiz-adv-x="438" unicode="1" /><glyph d="M34 -150V-87H94V199H34V263Q100 263 151 273.5Q202 284 219 307H244V-87H304V-150Z" glyph-name="one.inferior" horiz-adv-x="326" /><glyph d="M45 0V77H149V381H45V458Q92 458 123.5 462Q155 466 176.5 474.5Q198 483 211.5 495.5Q225 508 237 525H326V77H425V0Z" glyph-name="one.old" horiz-adv-x="444" /><glyph d="M44 0V72H123V432H44V505Q96 505 133 507.5Q170 510 196 516.5Q222 523 239 533.5Q256 544 268 558H300V72H381V0Z" glyph-name="one.sc" horiz-adv-x="410" /><glyph d="M33 434V497H93V783H33V847Q99 847 150 857.5Q201 868 218 891H243V497H303V434Z" glyph-name="one.superior" horiz-adv-x="326" /><glyph d="M117 0V77H245V556H117V633Q164 633 208.5 637Q253 641 289.5 649.5Q326 658 352.5 670.5Q379 683 391 700H427V77H556V0Z" glyph-name="one.tln" horiz-adv-x="640" /><glyph d="M144 0V77H248V381H144V458Q191 458 222.5 462Q254 466 275.5 474.5Q297 483 310.5 495.5Q324 508 336 525H425V77H524V0Z" glyph-name="one.ton" horiz-adv-x="640" /><glyph d="M44 240V292H109V581H44V633Q83 633 109 636Q135 639 152 647Q169 655 180.5 668Q192 681 204 700H244V292H309V240ZM194 0 654 690H751L291 0ZM607 0V49L666 97Q717 140 747 171.5Q777 203 792.5 228.5Q808 254 812.5 276Q817 298 817 322Q817 338 813.5 353.5Q810 369 800.5 381Q791 393 775.5 400.5Q760 408 736 408Q726 408 714 405Q702 402 694 396Q708 389 717 376Q726 363 726 343Q726 318 710.5 302Q695 286 664 286Q634 286 616.5 301Q599 316 599 348Q599 369 612 389Q625 409 649.5 425Q674 441 708 450.5Q742 460 784 460Q831 460 863.5 450Q896 440 916 423.5Q936 407 945.5 385.5Q955 364 955 342Q955 310 944 284Q933 258 910 231.5Q887 205 851.5 175.5Q816 146 766 107L728 77H837Q864 77 881 79Q898 81 907.5 87.5Q917 94 921 105Q925 116 925 134V156H977V0Z" glyph-name="onehalf" horiz-adv-x="1012" unicode="&#189;" /><glyph d="M44 240V292H110V581H44V633Q83 633 109 636Q135 639 152 647Q169 655 180.5 668Q192 681 204 700H244V292H310V240ZM195 0 655 690H752L292 0ZM670 0V52H730V118H503V163L744 450H865V173H926V118H865V52H926V0ZM730 173V343L588 173Z" glyph-name="onequarter" horiz-adv-x="958" unicode="&#188;" /><glyph d="M257 539Q199 539 194 583Q183 563 163 551Q143 539 110 539Q79 539 59.5 552Q40 565 40 592Q40 622 70 638Q100 654 157 662L188 666V683Q188 706 179.5 717Q171 728 146 728Q133 728 124.5 725.5Q116 723 112 720Q119 718 124 712.5Q129 707 129 696Q129 685 121.5 676Q114 667 91 667Q70 667 60.5 677.5Q51 688 51 699Q51 725 79.5 744Q108 763 163 763Q211 763 238.5 745Q266 727 266 687V599Q266 578 279 578Q287 578 290.5 587.5Q294 597 294 627H320Q320 585 307.5 562Q295 539 257 539ZM147 580Q162 580 175 593Q188 606 188 634V641L167 637Q143 633 132.5 624.5Q122 616 122 602Q122 580 147 580Z" glyph-name="ordfeminine" horiz-adv-x="353" unicode="&#170;" /><glyph d="M275 653Q275 626 265.5 605Q256 584 239.5 569Q223 554 201 546.5Q179 539 155 539Q104 539 70 569Q36 599 36 653Q36 704 70 733.5Q104 763 155 763Q179 763 201 755.5Q223 748 239.5 733.5Q256 719 265.5 699Q275 679 275 653ZM115 653Q115 613 124 593.5Q133 574 155 574Q196 574 196 653Q196 726 155 726Q133 726 124 707Q115 688 115 653Z" glyph-name="ordmasculine" horiz-adv-x="311" unicode="&#186;" /><glyph d="M214 258Q214 239 215 222Q216 205 218 189L381 402Q369 424 351.5 436Q334 448 311 448Q260 448 237 395Q214 342 214 258ZM311 67Q361 67 384 120Q407 173 407 258Q407 276 406 293Q405 310 403 325L241 113Q253 91 270.5 79Q288 67 311 67ZM311 -10Q235 -10 171 21L120 -46H39L117 57Q78 91 55 141.5Q32 192 32 258Q32 323 54 373Q76 423 114 456.5Q152 490 202.5 507.5Q253 525 311 525Q386 525 450 494L497 555H578L504 458Q543 424 566 374Q589 324 589 258Q589 193 566.5 143Q544 93 506 59Q468 25 417.5 7.5Q367 -10 311 -10Z" glyph-name="oslash" horiz-adv-x="621" unicode="&#248;" /><glyph d="M311 -10Q253 -10 202.5 7.5Q152 25 114 59.5Q76 94 54 144Q32 194 32 258Q32 323 54 373Q76 423 114 456.5Q152 490 202.5 507.5Q253 525 311 525Q367 525 417.5 507.5Q468 490 506 456.5Q544 423 566.5 373Q589 323 589 258Q589 193 566.5 143Q544 93 506 59Q468 25 417.5 7.5Q367 -10 311 -10ZM311 448Q260 448 237 395Q214 342 214 258Q214 216 219.5 181Q225 146 237 120.5Q249 95 267.5 81Q286 67 311 67Q361 67 384 120Q407 173 407 258Q407 342 384 395Q361 448 311 448ZM377 608Q353 608 332.5 617Q312 626 294 637Q276 648 260 657Q244 666 229 666Q208 666 199.5 651.5Q191 637 191 612H130Q130 681 153 720.5Q176 760 230 760Q255 760 276 751Q297 742 315 730.5Q333 719 349.5 710Q366 701 381 701Q400 701 408 715.5Q416 730 416 756H477Q477 722 473 694.5Q469 667 458 647.5Q447 628 427.5 618Q408 608 377 608Z" glyph-name="otilde" horiz-adv-x="621" unicode="&#245;" /><glyph d="M354 73Q399 73 423 119.5Q447 166 447 257Q447 348 423.5 395Q400 442 355 442Q310 442 285.5 396.5Q261 351 261 263V243Q261 159 285 116Q309 73 354 73ZM26 435V512Q85 512 120 512.5Q155 513 175 514.5Q195 516 204.5 518.5Q214 521 223 525L241 515V417Q264 472 309.5 498.5Q355 525 412 525Q458 525 497.5 506Q537 487 566.5 452.5Q596 418 612.5 369Q629 320 629 259Q629 198 612 148.5Q595 99 565 64Q535 29 495 9.5Q455 -10 408 -10Q360 -10 322 7.5Q284 25 261 56V-173H335V-250H26V-173H84V435Z" glyph-name="p" horiz-adv-x="662" unicode="p" /><glyph d="M210 -250V-176H281V246Q212 246 163.5 267Q115 288 84.5 320.5Q54 353 40 392Q26 431 26 467Q26 505 39.5 545Q53 585 83 617Q113 649 160.5 669.5Q208 690 277 690H599V616H529V-176H599V-250ZM370 616V-176H440V616Z" glyph-name="paragraph" horiz-adv-x="648" unicode="&#182;" /><glyph d="M476 0H391V481H334V0H249V208Q188 208 145.5 224Q103 240 76.5 264.5Q50 289 38 319.5Q26 350 26 379Q26 408 38 438.5Q50 469 76 494Q102 519 144.5 534.5Q187 550 248 550H535V481H476Z" glyph-name="paragraph.sc" horiz-adv-x="579" /><glyph d="M206 -250V-176H277V246Q208 246 159.5 267Q111 288 80.5 320.5Q50 353 36 392Q22 431 22 467Q22 505 35.5 545Q49 585 79 617Q109 649 156.5 669.5Q204 690 273 690H595V616H525V-176H595V-250ZM366 616V-176H436V616Z" glyph-name="paragraph.tln" horiz-adv-x="640" /><glyph d="M383 -260Q306 -230 241.5 -182Q177 -134 130.5 -70.5Q84 -7 58.5 70.5Q33 148 33 236Q33 326 59 407Q85 488 131.5 556Q178 624 242.5 676Q307 728 383 760L409 706Q382 689 349 656Q316 623 287.5 568Q259 513 239.5 431.5Q220 350 220 236Q220 134 239.5 59.5Q259 -15 287.5 -67.5Q316 -120 349 -153.5Q382 -187 409 -206Z" glyph-name="parenleft" horiz-adv-x="419" unicode="(" /><glyph d="M385 -180Q308 -150 243.5 -102Q179 -54 132.5 9.5Q86 73 60.5 150.5Q35 228 35 316Q35 406 61 487Q87 568 133.5 636Q180 704 244.5 756Q309 808 385 840L411 786Q384 769 351 736Q318 703 289.5 648Q261 593 241.5 511.5Q222 430 222 316Q222 214 241.5 139.5Q261 65 289.5 12.5Q318 -40 351 -73.5Q384 -107 411 -126Z" glyph-name="parenleft.cap" horiz-adv-x="423" /><glyph d="M357 -143Q286 -120 227 -83Q168 -46 125 4Q82 54 58.5 116.5Q35 179 35 252Q35 327 59 392Q83 457 126 510.5Q169 564 228 604.5Q287 645 357 670L381 620Q357 607 328 580.5Q299 554 274.5 510Q250 466 233.5 402.5Q217 339 217 252Q217 174 233.5 116.5Q250 59 274.5 17.5Q299 -24 327.5 -51Q356 -78 381 -94Z" glyph-name="parenleft.sc" horiz-adv-x="399" /><glyph d="M494 -260Q417 -230 352.5 -182Q288 -134 241.5 -70.5Q195 -7 169.5 70.5Q144 148 144 236Q144 326 170 407Q196 488 242.5 556Q289 624 353.5 676Q418 728 494 760L520 706Q493 689 460 656Q427 623 398.5 568Q370 513 350.5 431.5Q331 350 331 236Q331 134 350.5 59.5Q370 -15 398.5 -67.5Q427 -120 460 -153.5Q493 -187 520 -206Z" glyph-name="parenleft.tln" horiz-adv-x="640" /><glyph d="M10 -206Q37 -187 70 -153.5Q103 -120 131.5 -67.5Q160 -15 179.5 59.5Q199 134 199 236Q199 350 179.5 431.5Q160 513 131.5 568Q103 623 70 656Q37 689 10 706L36 760Q112 728 176 676Q240 624 286.5 556Q333 488 359.5 407Q386 326 386 236Q386 148 360 70.5Q334 -7 287.5 -70.5Q241 -134 177 -182Q113 -230 36 -260Z" glyph-name="parenright" horiz-adv-x="419" unicode=")" /><glyph d="M12 -126Q39 -107 72 -73.5Q105 -40 133.5 12.5Q162 65 181.5 139.5Q201 214 201 316Q201 430 181.5 511.5Q162 593 133.5 648Q105 703 72 736Q39 769 12 786L38 840Q114 808 178 756Q242 704 288.5 636Q335 568 361.5 487Q388 406 388 316Q388 228 362 150.5Q336 73 289.5 9.5Q243 -54 179 -102Q115 -150 38 -180Z" glyph-name="parenright.cap" horiz-adv-x="423" /><glyph d="M19 -98Q43 -82 71.5 -55Q100 -28 124.5 13.5Q149 55 165.5 112.5Q182 170 182 248Q182 335 165.5 398.5Q149 462 124.5 506Q100 550 71.5 576.5Q43 603 19 616L42 666Q112 641 171 600.5Q230 560 273 506.5Q316 453 340 388Q364 323 364 248Q364 175 340.5 112.5Q317 50 274.5 0Q232 -50 172.5 -87Q113 -124 42 -147Z" glyph-name="parenright.sc" horiz-adv-x="399" /><glyph d="M121 -206Q148 -187 181 -153.5Q214 -120 242.5 -67.5Q271 -15 290.5 59.5Q310 134 310 236Q310 350 290.5 431.5Q271 513 242.5 568Q214 623 181 656Q148 689 121 706L147 760Q223 728 287 676Q351 624 397.5 556Q444 488 470.5 407Q497 326 497 236Q497 148 471 70.5Q445 -7 398.5 -70.5Q352 -134 288 -182Q224 -230 147 -260Z" glyph-name="parenright.tln" horiz-adv-x="640" /><glyph d="M472 518Q472 475 453.5 441.5Q435 408 404 385Q373 362 332.5 349.5Q292 337 249 337Q206 337 166 349.5Q126 362 95.5 385Q65 408 46.5 441.5Q28 475 28 518Q28 561 46.5 594.5Q65 628 95.5 651.5Q126 675 166 687.5Q206 700 249 700Q292 700 332.5 687.5Q373 675 404 651.5Q435 628 453.5 594.5Q472 561 472 518ZM225 0 685 690H782L322 0ZM183 518Q183 459 199 430Q215 401 250 401Q318 401 318 518Q318 636 249 636Q214 636 198.5 606.5Q183 577 183 518ZM988 171Q988 128 969.5 94.5Q951 61 920 38Q889 15 848.5 2.5Q808 -10 765 -10Q722 -10 682 2.5Q642 15 611 38Q580 61 562 94.5Q544 128 544 171Q544 214 562 247.5Q580 281 611 304.5Q642 328 682 340.5Q722 353 765 353Q808 353 848.5 340.5Q889 328 920 304.5Q951 281 969.5 247.5Q988 214 988 171ZM698 171Q698 54 766 54Q833 54 833 171Q833 289 765 289Q698 289 698 171Z" glyph-name="percent" horiz-adv-x="1016" unicode="%" /></font>
</defs>
</svg>
