<?xml version="1.0" standalone="no"?><!DOCTYPE svg PUBLIC "-//W3C//DTD SVG 1.1//EN" "http://www.w3.org/Graphics/SVG/1.1/DTD/svg11.dtd" ><svg version="1.1" xmlns="http://www.w3.org/2000/svg"><defs><font horiz-adv-x="0" id="font"><font-face ascent="750" bbox="-120 -260 2615 1083" cap-height="690" descent="-250" font-family="KazimirText RBC" font-stretch="normal" font-style="normal" font-weight="100" units-per-em="1000" x-height="480" /><missing-glyph d="M122 650H785V0H122ZM142 20H765V630H142ZM454 316 335 197 312 220 431 338 315 454 337 476 453 360 572 479 594 457 476 338 596 218 574 196Z" horiz-adv-x="907" /><glyph glyph-name=".null" horiz-adv-x="0" /><glyph d="M315 673 168 240H466ZM0 0V10H80L310 690H320L558 10H638V0H464V10H547L470 230H165L90 10H173V0Z" glyph-name="A" horiz-adv-x="634" unicode="A" /><glyph d="M317 672 170 240H467ZM1 0V10H81L308 680H211V690H421V680H324L559 10H639V0H465V10H548L471 230H166L91 10H174V0Z" glyph-name="A.alt" horiz-adv-x="635" /><glyph d="M282 535 152 192H416ZM1 0V10H72L273 540H189V550H377V540H291L499 10H570V0H414V10H488L420 182H148L83 10H155V0Z" glyph-name="A.alt.sc" horiz-adv-x="567" /><glyph d="M281 535 151 192H415ZM0 0V10H71L276 550H286L498 10H569V0H413V10H487L419 182H147L82 10H154V0Z" glyph-name="A.sc" horiz-adv-x="565" /><glyph d="M399 680 196 236H449V680ZM181 0H-8V10H81L388 680H292V690H821V520H811V650Q811 667 805 673.5Q799 680 781 680H459V357H713V347H459V10H788Q805 10 811.5 16.5Q818 23 818 40V175H828V0H349V10H449V226H191L92 10H181Z" glyph-name="AE" horiz-adv-x="895" unicode="&#198;" /><glyph d="M317 672 170 240H467ZM1 0V10H81L308 680H211V690H787V520H777V650Q777 667 771 673.5Q765 680 747 680H324L437 357H672V454H682V249H672V347H441L559 10H754Q771 10 777.5 16.5Q784 23 784 40V175H794V0H406V10H548L471 230H166L91 10H174V0Z" glyph-name="AE.alt" horiz-adv-x="857" /><glyph d="M282 534 152 193H416ZM1 0V10H72L274 540H188V550H702V413H692V510Q692 528 686 534Q680 540 663 540H291L391 286H599V362H608V198H599V276H395L499 10H670Q686 10 692 17Q698 24 698 41V141H708V0H362V10H488L420 183H148L82 10H155V0Z" glyph-name="AE.alt.sc" horiz-adv-x="766" /><glyph d="M354 540 174 190H399V540ZM160 0H-8V10H71L344 540H259V550H732V413H722V510Q722 528 716.5 534Q711 540 694 540H409V286H635V276H409V10H700Q716 10 722 17Q728 24 728 41V141H738V0H310V10H399V180H169L81 10H160Z" glyph-name="AE.sc" horiz-adv-x="799" /><glyph d="M406 826Q426 848 440.5 860Q455 872 455 877Q455 884 447 884Q439 884 428.5 870Q418 856 398 834L314 740H326ZM315 673 168 240H466ZM0 0V10H80L310 690H320L558 10H638V0H464V10H547L470 230H165L90 10H173V0Z" glyph-name="Aacute" horiz-adv-x="634" unicode="&#193;" /><glyph d="M395 826Q415 848 429.5 860Q444 872 444 877Q444 884 436 884Q428 884 417.5 870Q407 856 387 834L303 740H315ZM317 672 170 240H467ZM1 0V10H81L308 680H211V690H421V680H324L559 10H639V0H465V10H548L471 230H166L91 10H174V0Z" glyph-name="Aacute.alt" horiz-adv-x="635" /><glyph d="M282 590H271L346 665Q363 682 373 693.5Q383 705 390 705Q398 705 398 697Q398 692 385 682.5Q372 673 354 656ZM282 535 152 192H416ZM1 0V10H72L273 540H189V550H377V540H291L499 10H570V0H414V10H488L420 182H148L83 10H155V0Z" glyph-name="Aacute.alt.sc" horiz-adv-x="567" /><glyph d="M292 590H281L356 665Q373 682 382.5 693.5Q392 705 400 705Q407 705 407 697Q407 692 394.5 682.5Q382 673 363 656ZM281 535 151 192H415ZM0 0V10H71L276 550H286L498 10H569V0H413V10H487L419 182H147L82 10H154V0Z" glyph-name="Aacute.sc" horiz-adv-x="565" /><glyph d="M315 673 168 240H466ZM0 0V10H80L310 690H320L558 10H638V0H464V10H547L470 230H165L90 10H173V0ZM203 740 312 872H322L427 740H414L317 863L216 740Z" glyph-name="Acircumflex" horiz-adv-x="634" unicode="&#194;" /><glyph d="M203 740 312 872H322L427 740H414L317 863L216 740ZM317 672 170 240H467ZM1 0V10H81L308 680H211V690H421V680H324L559 10H639V0H465V10H548L471 230H166L91 10H174V0Z" glyph-name="Acircumflex.alt" horiz-adv-x="635" /><glyph d="M184 590 279 695H289L386 590H374L284 687L196 590ZM282 535 152 192H416ZM1 0V10H72L273 540H189V550H377V540H291L499 10H570V0H414V10H488L420 182H148L83 10H155V0Z" glyph-name="Acircumflex.alt.sc" horiz-adv-x="567" /><glyph d="M179 590 273 695H283L381 590H369L278 687L191 590ZM281 535 151 192H415ZM0 0V10H71L276 550H286L498 10H569V0H413V10H487L419 182H147L82 10H154V0Z" glyph-name="Acircumflex.sc" horiz-adv-x="565" /><glyph d="M315 673 168 240H466ZM0 0V10H80L310 690H320L558 10H638V0H464V10H547L470 230H165L90 10H173V0ZM243 802Q243 798 239.5 792Q236 786 226 786Q216 786 212.5 792Q209 798 209 802Q209 807 212.5 813Q216 819 226 819Q236 819 239.5 813Q243 807 243 802ZM423 802Q423 798 419.5 792Q416 786 406 786Q396 786 392.5 792Q389 798 389 802Q389 807 392.5 813Q396 819 406 819Q416 819 419.5 813Q423 807 423 802Z" glyph-name="Adieresis" horiz-adv-x="634" unicode="&#196;" /><glyph d="M317 672 170 240H467ZM1 0V10H81L308 680H211V690H421V680H324L559 10H639V0H465V10H548L471 230H166L91 10H174V0ZM244 802Q244 798 240.5 792Q237 786 227 786Q217 786 213.5 792Q210 798 210 802Q210 807 213.5 813Q217 819 227 819Q237 819 240.5 813Q244 807 244 802ZM424 802Q424 798 420.5 792Q417 786 407 786Q397 786 393.5 792Q390 798 390 802Q390 807 393.5 813Q397 819 407 819Q417 819 420.5 813Q424 807 424 802Z" glyph-name="Adieresis.alt" horiz-adv-x="635" /><glyph d="M215 640Q215 635 211.5 630Q208 625 200 625Q192 625 188.5 630Q185 635 185 640Q185 645 188.5 650Q192 655 200 655Q208 655 211.5 650Q215 645 215 640ZM376 640Q376 635 372.5 630Q369 625 361 625Q353 625 349.5 630Q346 635 346 640Q346 645 349.5 650Q353 655 361 655Q369 655 372.5 650Q376 645 376 640ZM282 535 152 192H416ZM1 0V10H72L273 540H189V550H377V540H291L499 10H570V0H414V10H488L420 182H148L83 10H155V0Z" glyph-name="Adieresis.alt.sc" horiz-adv-x="567" /><glyph d="M217 640Q217 635 213.5 630Q210 625 202 625Q194 625 190.5 630Q187 635 187 640Q187 645 190.5 650Q194 655 202 655Q210 655 213.5 650Q217 645 217 640ZM378 640Q378 635 374.5 630Q371 625 363 625Q355 625 351.5 630Q348 635 348 640Q348 645 351.5 650Q355 655 363 655Q371 655 374.5 650Q378 645 378 640ZM281 535 151 192H415ZM0 0V10H71L276 550H286L498 10H569V0H413V10H487L419 182H147L82 10H154V0Z" glyph-name="Adieresis.sc" horiz-adv-x="565" /><glyph d="M315 673 168 240H466ZM0 0V10H80L310 690H320L558 10H638V0H464V10H547L470 230H165L90 10H173V0ZM226 826Q206 848 191.5 860Q177 872 177 877Q177 884 185 884Q193 884 203.5 870Q214 856 234 834L318 740H306Z" glyph-name="Agrave" horiz-adv-x="634" unicode="&#192;" /><glyph d="M241 826Q221 848 206.5 860Q192 872 192 877Q192 884 200 884Q208 884 218.5 870Q229 856 249 834L333 740H321ZM317 672 170 240H467ZM1 0V10H81L308 680H211V690H421V680H324L559 10H639V0H465V10H548L471 230H166L91 10H174V0Z" glyph-name="Agrave.alt" horiz-adv-x="635" /><glyph d="M216 656Q197 673 184.5 682.5Q172 692 172 697Q172 705 179 705Q187 705 196.5 693.5Q206 682 223 665L298 590H287ZM282 535 152 192H416ZM1 0V10H72L273 540H189V550H377V540H291L499 10H570V0H414V10H488L420 182H148L83 10H155V0Z" glyph-name="Agrave.alt.sc" horiz-adv-x="567" /><glyph d="M202 656Q184 673 171 682.5Q158 692 158 697Q158 705 166 705Q173 705 183 693.5Q193 682 210 665L285 590H274ZM281 535 151 192H415ZM0 0V10H71L276 550H286L498 10H569V0H413V10H487L419 182H147L82 10H154V0Z" glyph-name="Agrave.sc" horiz-adv-x="565" /><glyph d="M315 673 168 240H466ZM0 0V10H80L310 690H320L558 10H638V0H464V10H547L470 230H165L90 10H173V0ZM316 733Q280 733 253.5 754.5Q227 776 227 814Q227 852 253.5 873.5Q280 895 316 895Q351 895 378 873.5Q405 852 405 814Q405 776 378 754.5Q351 733 316 733ZM316 742Q348 742 371.5 761Q395 780 395 814Q395 848 371.5 867Q348 886 316 886Q284 886 260.5 867Q237 848 237 814Q237 780 260.5 761Q284 742 316 742Z" glyph-name="Aring" horiz-adv-x="634" unicode="&#197;" /><glyph d="M317 672 170 240H467ZM1 0V10H81L308 680H211V690H421V680H324L559 10H639V0H465V10H548L471 230H166L91 10H174V0ZM318 733Q282 733 255.5 754.5Q229 776 229 814Q229 852 255.5 873.5Q282 895 318 895Q353 895 380 873.5Q407 852 407 814Q407 776 380 754.5Q353 733 318 733ZM318 742Q350 742 373.5 761Q397 780 397 814Q397 848 373.5 867Q350 886 318 886Q286 886 262.5 867Q239 848 239 814Q239 780 262.5 761Q286 742 318 742Z" glyph-name="Aring.alt" horiz-adv-x="635" /><glyph d="M282 584Q254 584 235 602Q216 620 216 649Q216 678 235 696Q254 714 282 714Q309 714 328 696Q347 678 347 649Q347 620 328 602Q309 584 282 584ZM282 593Q305 593 321.5 608Q338 623 338 649Q338 673 321.5 689Q305 705 282 705Q258 705 242 689Q226 673 226 649Q226 623 242 608Q258 593 282 593ZM282 535 152 192H416ZM1 0V10H72L273 540H189V550H377V540H291L499 10H570V0H414V10H488L420 182H148L83 10H155V0Z" glyph-name="Aring.alt.sc" horiz-adv-x="567" /><glyph d="M279 584Q251 584 232 602Q213 620 213 649Q213 678 232 696Q251 714 279 714Q306 714 325 696Q344 678 344 649Q344 620 325 602Q306 584 279 584ZM279 593Q302 593 318.5 608Q335 623 335 649Q335 673 318.5 689Q302 705 279 705Q255 705 239 689Q223 673 223 649Q223 623 239 608Q255 593 279 593ZM281 535 151 192H415ZM0 0V10H71L276 550H286L498 10H569V0H413V10H487L419 182H147L82 10H154V0Z" glyph-name="Aring.sc" horiz-adv-x="565" /><glyph d="M315 673 168 240H466ZM0 0V10H80L310 690H320L558 10H638V0H464V10H547L470 230H165L90 10H173V0ZM251 840Q222 840 210 815.5Q198 791 198 756H188Q188 799 203.5 824.5Q219 850 251 850Q272 850 287 837Q302 824 316 808Q330 792 345.5 779Q361 766 382 766Q411 766 423 790Q435 814 435 850H445Q445 807 429.5 781.5Q414 756 382 756Q358 756 341 769Q324 782 310.5 798Q297 814 283 827Q269 840 251 840Z" glyph-name="Atilde" horiz-adv-x="634" unicode="&#195;" /><glyph d="M252 841Q223 841 211 816.5Q199 792 199 757H189Q189 800 204.5 825.5Q220 851 252 851Q273 851 288 838Q303 825 317 809Q331 793 346.5 780Q362 767 383 767Q412 767 424 791Q436 815 436 851H446Q446 808 430.5 782.5Q415 757 383 757Q359 757 342 770Q325 783 311.5 799Q298 815 284 828Q270 841 252 841ZM317 672 170 240H467ZM1 0V10H81L308 680H211V690H421V680H324L559 10H639V0H465V10H548L471 230H166L91 10H174V0Z" glyph-name="Atilde.alt" horiz-adv-x="635" /><glyph d="M224 668Q198 668 187.5 649Q177 630 177 602H167Q167 637 181 657.5Q195 678 224 678Q245 678 258.5 667.5Q272 657 283.5 645Q295 633 308 622.5Q321 612 341 612Q367 612 377.5 631Q388 650 388 678H398Q398 643 383.5 622.5Q369 602 341 602Q318 602 303.5 612.5Q289 623 278 635Q267 647 255 657.5Q243 668 224 668ZM282 535 152 192H416ZM1 0V10H72L273 540H189V550H377V540H291L499 10H570V0H414V10H488L420 182H148L83 10H155V0Z" glyph-name="Atilde.alt.sc" horiz-adv-x="567" /><glyph d="M225 668Q199 668 188.5 649Q178 630 178 602H168Q168 637 182 657.5Q196 678 225 678Q246 678 259.5 667.5Q273 657 284.5 645Q296 633 309 622.5Q322 612 342 612Q368 612 378.5 631Q389 650 389 678H399Q399 643 384.5 622.5Q370 602 342 602Q319 602 304.5 612.5Q290 623 279 635Q268 647 256 657.5Q244 668 225 668ZM281 535 151 192H415ZM0 0V10H71L276 550H286L498 10H569V0H413V10H487L419 182H147L82 10H154V0Z" glyph-name="Atilde.sc" horiz-adv-x="565" /><glyph d="M53 10H153V680H53V690H285Q412 690 470.5 645Q529 600 529 516Q529 478 516.5 450Q504 422 483.5 402.5Q463 383 437 371.5Q411 360 384 354Q416 349 448.5 338Q481 327 506.5 307.5Q532 288 548 258Q564 228 564 183Q564 92 502.5 46Q441 0 307 0H53ZM163 680V358H323Q417 358 468 402Q519 446 519 516Q519 552 507 582.5Q495 613 467 634.5Q439 656 394 668Q349 680 284 680ZM163 348V10H306Q386 10 434.5 26Q483 42 509.5 66.5Q536 91 545 122Q554 153 554 183Q554 225 537 256.5Q520 288 489 308Q458 328 416 338Q374 348 323 348Z" glyph-name="B" horiz-adv-x="620" unicode="B" /><glyph d="M50 10H139V540H50V550H247Q360 550 412.5 514Q465 478 465 411Q465 381 454 358.5Q443 336 424.5 320.5Q406 305 383 295.5Q360 286 336 283Q365 279 393.5 270Q422 261 444.5 245.5Q467 230 481.5 206Q496 182 496 147Q496 74 442.5 37Q389 0 267 0H50ZM149 540V286H280Q365 286 410 321Q455 356 455 411Q455 440 444 463.5Q433 487 408.5 504Q384 521 344 530.5Q304 540 246 540ZM149 276V10H266Q338 10 381.5 22.5Q425 35 448.5 54.5Q472 74 479 98.5Q486 123 486 147Q486 180 470.5 204.5Q455 229 427.5 244.5Q400 260 362.5 268Q325 276 281 276Z" glyph-name="B.sc" horiz-adv-x="547" /><glyph d="M534 112Q520 73 496 49.5Q472 26 444 12.5Q416 -1 386.5 -5.5Q357 -10 331 -10Q257 -10 205.5 20.5Q154 51 121.5 101Q89 151 74.5 215Q60 279 60 346Q60 414 76.5 477.5Q93 541 126 590.5Q159 640 209.5 670Q260 700 329 700Q489 700 533 582V699H543V498H533Q533 550 517 586.5Q501 623 473.5 646Q446 669 408.5 679.5Q371 690 329 690Q275 690 227.5 666.5Q180 643 145 598.5Q110 554 90 490.5Q70 427 70 346Q70 267 87.5 203Q105 139 139 94Q173 49 221.5 24.5Q270 0 332 0Q365 0 400.5 8Q436 16 466 37.5Q496 59 515 97.5Q534 136 534 196H544V-10H534Z" glyph-name="C" horiz-adv-x="610" unicode="C" /><glyph d="M478 90Q465 59 444 39.5Q423 20 399 9.5Q375 -1 349.5 -4.5Q324 -8 302 -8Q236 -8 189 16.5Q142 41 112.5 80.5Q83 120 69 171Q55 222 55 276Q55 330 69.5 381Q84 432 114 471Q144 510 189 534Q234 558 295 558Q364 558 410 533Q456 508 473 461V557H483V395H473Q473 436 459.5 465Q446 494 422 512.5Q398 531 365.5 539.5Q333 548 295 548Q247 548 205 529.5Q163 511 132 476Q101 441 83 390.5Q65 340 65 276Q65 213 81.5 162.5Q98 112 129 76Q160 40 204 21Q248 2 303 2Q331 2 362 9Q393 16 418.5 33.5Q444 51 461 81Q478 111 478 158H488V-8H478Z" glyph-name="C.sc" horiz-adv-x="546" /><glyph d="M345 -180Q323 -180 310 -173Q297 -166 292 -160V-146Q301 -157 313 -163.5Q325 -170 345 -170Q402 -170 402 -121Q402 -61 322 -61V-54L338 -10H331Q257 -10 205.5 20.5Q154 51 121.5 101Q89 151 74.5 215Q60 279 60 346Q60 414 76.5 477.5Q93 541 126 590.5Q159 640 209.5 670Q260 700 329 700Q489 700 533 582V699H543V498H533Q533 550 517 586.5Q501 623 473.5 646Q446 669 408.5 679.5Q371 690 329 690Q275 690 227.5 666.5Q180 643 145 598.5Q110 554 90 490.5Q70 427 70 346Q70 267 87.5 203Q105 139 139 94Q173 49 221.5 24.5Q270 0 332 0Q365 0 400.5 8Q436 16 466 37.5Q496 59 515 97.5Q534 136 534 196H544V-10H534V112Q521 76 500 53Q479 30 453.5 16.5Q428 3 400.5 -3Q373 -9 348 -10L333 -52Q370 -54 391 -70Q412 -86 412 -121Q412 -148 394.5 -164Q377 -180 345 -180Z" glyph-name="Ccedilla" horiz-adv-x="610" unicode="&#199;" /><glyph d="M309 -145Q289 -145 278 -140Q267 -135 262 -132V-119Q268 -126 280 -130.5Q292 -135 309 -135Q360 -135 360 -97Q360 -50 289 -50V-44L303 -8Q237 -8 190 16.5Q143 41 113 80.5Q83 120 69 171Q55 222 55 276Q55 330 69.5 381Q84 432 114 471Q144 510 189 534Q234 558 295 558Q364 558 410 533Q456 508 473 461V557H483V395H473Q473 436 459.5 465Q446 494 422 512.5Q398 531 365.5 539.5Q333 548 295 548Q247 548 205 529.5Q163 511 132 476Q101 441 83 390.5Q65 340 65 276Q65 213 81.5 162.5Q98 112 129 76Q160 40 204 21Q248 2 303 2Q331 2 362 9Q393 16 418.5 33.5Q444 51 461 81Q478 111 478 158H488V-8H478V90Q465 61 446 42Q427 23 404.5 12.5Q382 2 358.5 -2.5Q335 -7 313 -8L301 -41Q331 -43 350.5 -56Q370 -69 370 -96Q370 -119 354 -132Q338 -145 309 -145Z" glyph-name="Ccedilla.sc" horiz-adv-x="546" /><glyph d="M53 0V10H153V680H53V690H272Q355 690 417.5 663Q480 636 522 589.5Q564 543 585 480Q606 417 606 346Q606 275 585 212Q564 149 522.5 102Q481 55 418.5 27.5Q356 0 272 0ZM163 10H275Q351 10 410.5 35.5Q470 61 511.5 106Q553 151 574.5 212.5Q596 274 596 346Q596 416 574.5 477Q553 538 512 583Q471 628 411.5 654Q352 680 277 680H163Z" glyph-name="D" horiz-adv-x="665" unicode="D" /><glyph d="M50 0V10H139V540H50V550H246Q321 550 376.5 528Q432 506 469.5 468.5Q507 431 525.5 381.5Q544 332 544 276Q544 220 525.5 169.5Q507 119 470 81.5Q433 44 377 22Q321 0 246 0ZM149 10H248Q315 10 368 29.5Q421 49 458 84.5Q495 120 514.5 169Q534 218 534 276Q534 333 514.5 381Q495 429 458.5 464.5Q422 500 369.5 520Q317 540 250 540H149Z" glyph-name="D.sc" horiz-adv-x="597" /><glyph d="M53 10H153V680H53V690H525V520H515V650Q515 667 509 673.5Q503 680 485 680H163V357H417V347H163V10H492Q509 10 515.5 16.5Q522 23 522 40V175H532V0H53Z" glyph-name="E" horiz-adv-x="599" unicode="E" /><glyph d="M53 0V10H153V680H53V690H525V520H515V650Q515 667 509 673.5Q503 680 485 680H163V357H413V454H423V249H413V347H163V10H492Q509 10 515.5 16.5Q522 23 522 40V175H532V0Z" glyph-name="E.alt" horiz-adv-x="595" /><glyph d="M50 0V10H139V540H50V550H471V413H461V510Q461 528 455 534Q449 540 432 540H149V286H371V362H380V198H371V276H149V10H440Q456 10 462 17Q468 24 468 41V141H478V0Z" glyph-name="E.alt.sc" horiz-adv-x="535" /><glyph d="M50 10H139V540H50V550H471V413H461V510Q461 528 455 534Q449 540 432 540H149V286H375V276H149V10H440Q456 10 462 17Q468 24 468 41V141H478V0H50Z" glyph-name="E.sc" horiz-adv-x="539" /><glyph d="M53 10H153V680H53V690H525V520H515V650Q515 667 509 673.5Q503 680 485 680H163V357H417V347H163V10H492Q509 10 515.5 16.5Q522 23 522 40V175H532V0H53ZM402 826Q422 848 436.5 860Q451 872 451 877Q451 884 443 884Q435 884 424.5 870Q414 856 394 834L310 740H322Z" glyph-name="Eacute" horiz-adv-x="599" unicode="&#201;" /><glyph d="M402 826Q422 848 436.5 860Q451 872 451 877Q451 884 443 884Q435 884 424.5 870Q414 856 394 834L310 740H322ZM53 0V10H153V680H53V690H525V520H515V650Q515 667 509 673.5Q503 680 485 680H163V357H413V454H423V249H413V347H163V10H492Q509 10 515.5 16.5Q522 23 522 40V175H532V0Z" glyph-name="Eacute.alt" horiz-adv-x="595" /><glyph d="M290 590H279L354 665Q371 682 381 693.5Q391 705 398 705Q405 705 405 697Q405 692 392.5 682.5Q380 673 362 656ZM50 0V10H139V540H50V550H471V413H461V510Q461 528 455 534Q449 540 432 540H149V286H371V362H380V198H371V276H149V10H440Q456 10 462 17Q468 24 468 41V141H478V0Z" glyph-name="Eacute.alt.sc" horiz-adv-x="535" /><glyph d="M280 590H269L344 665Q361 682 370.5 693.5Q380 705 388 705Q395 705 395 697Q395 692 382.5 682.5Q370 673 351 656ZM50 10H139V540H50V550H471V413H461V510Q461 528 455 534Q449 540 432 540H149V286H375V276H149V10H440Q456 10 462 17Q468 24 468 41V141H478V0H50Z" glyph-name="Eacute.sc" horiz-adv-x="539" /><glyph d="M53 10H153V680H53V690H525V520H515V650Q515 667 509 673.5Q503 680 485 680H163V357H417V347H163V10H492Q509 10 515.5 16.5Q522 23 522 40V175H532V0H53ZM217 740 326 872H336L441 740H428L331 863L230 740Z" glyph-name="Ecircumflex" horiz-adv-x="599" unicode="&#202;" /><glyph d="M207 740 316 872H326L431 740H418L321 863L220 740ZM53 0V10H153V680H53V690H525V520H515V650Q515 667 509 673.5Q503 680 485 680H163V357H413V454H423V249H413V347H163V10H492Q509 10 515.5 16.5Q522 23 522 40V175H532V0Z" glyph-name="Ecircumflex.alt" horiz-adv-x="595" /><glyph d="M184 590 279 695H289L386 590H374L284 687L196 590ZM50 0V10H139V540H50V550H471V413H461V510Q461 528 455 534Q449 540 432 540H149V286H371V362H380V198H371V276H149V10H440Q456 10 462 17Q468 24 468 41V141H478V0Z" glyph-name="Ecircumflex.alt.sc" horiz-adv-x="535" /><glyph d="M185 590 280 695H289L386 590H374L284 687L197 590ZM50 10H139V540H50V550H471V413H461V510Q461 528 455 534Q449 540 432 540H149V286H375V276H149V10H440Q456 10 462 17Q468 24 468 41V141H478V0H50Z" glyph-name="Ecircumflex.sc" horiz-adv-x="539" /><glyph d="M53 10H153V680H53V690H525V520H515V650Q515 667 509 673.5Q503 680 485 680H163V357H417V347H163V10H492Q509 10 515.5 16.5Q522 23 522 40V175H532V0H53ZM247 802Q247 798 243.5 792Q240 786 230 786Q220 786 216.5 792Q213 798 213 802Q213 807 216.5 813Q220 819 230 819Q240 819 243.5 813Q247 807 247 802ZM427 802Q427 798 423.5 792Q420 786 410 786Q400 786 396.5 792Q393 798 393 802Q393 807 396.5 813Q400 819 410 819Q420 819 423.5 813Q427 807 427 802Z" glyph-name="Edieresis" horiz-adv-x="599" unicode="&#203;" /><glyph d="M237 802Q237 798 233.5 792Q230 786 220 786Q210 786 206.5 792Q203 798 203 802Q203 807 206.5 813Q210 819 220 819Q230 819 233.5 813Q237 807 237 802ZM417 802Q417 798 413.5 792Q410 786 400 786Q390 786 386.5 792Q383 798 383 802Q383 807 386.5 813Q390 819 400 819Q410 819 413.5 813Q417 807 417 802ZM53 0V10H153V680H53V690H525V520H515V650Q515 667 509 673.5Q503 680 485 680H163V357H413V454H423V249H413V347H163V10H492Q509 10 515.5 16.5Q522 23 522 40V175H532V0Z" glyph-name="Edieresis.alt" horiz-adv-x="595" /><glyph d="M226 640Q226 635 222.5 630Q219 625 211 625Q203 625 199.5 630Q196 635 196 640Q196 645 199.5 650Q203 655 211 655Q219 655 222.5 650Q226 645 226 640ZM387 640Q387 635 383.5 630Q380 625 372 625Q364 625 360.5 630Q357 635 357 640Q357 645 360.5 650Q364 655 372 655Q380 655 383.5 650Q387 645 387 640ZM50 0V10H139V540H50V550H471V413H461V510Q461 528 455 534Q449 540 432 540H149V286H371V362H380V198H371V276H149V10H440Q456 10 462 17Q468 24 468 41V141H478V0Z" glyph-name="Edieresis.alt.sc" horiz-adv-x="535" /><glyph d="M383 640Q383 635 379.5 630Q376 625 368 625Q360 625 356.5 630Q353 635 353 640Q353 645 356.5 650Q360 655 368 655Q376 655 379.5 650Q383 645 383 640ZM222 640Q222 635 218.5 630Q215 625 207 625Q199 625 195.5 630Q192 635 192 640Q192 645 195.5 650Q199 655 207 655Q215 655 218.5 650Q222 645 222 640ZM50 10H139V540H50V550H471V413H461V510Q461 528 455 534Q449 540 432 540H149V286H375V276H149V10H440Q456 10 462 17Q468 24 468 41V141H478V0H50Z" glyph-name="Edieresis.sc" horiz-adv-x="539" /><glyph d="M53 10H153V680H53V690H525V520H515V650Q515 667 509 673.5Q503 680 485 680H163V357H417V347H163V10H492Q509 10 515.5 16.5Q522 23 522 40V175H532V0H53ZM257 826Q237 848 222.5 860Q208 872 208 877Q208 884 216 884Q224 884 234.5 870Q245 856 265 834L349 740H337Z" glyph-name="Egrave" horiz-adv-x="599" unicode="&#200;" /><glyph d="M53 0V10H153V680H53V690H525V520H515V650Q515 667 509 673.5Q503 680 485 680H163V357H413V454H423V249H413V347H163V10H492Q509 10 515.5 16.5Q522 23 522 40V175H532V0ZM247 826Q227 848 212.5 860Q198 872 198 877Q198 884 206 884Q214 884 224.5 870Q235 856 255 834L339 740H327Z" glyph-name="Egrave.alt" horiz-adv-x="595" /><glyph d="M223 656Q204 673 191.5 682.5Q179 692 179 697Q179 705 186 705Q194 705 203.5 693.5Q213 682 230 665L305 590H294ZM50 0V10H139V540H50V550H471V413H461V510Q461 528 455 534Q449 540 432 540H149V286H371V362H380V198H371V276H149V10H440Q456 10 462 17Q468 24 468 41V141H478V0Z" glyph-name="Egrave.alt.sc" horiz-adv-x="535" /><glyph d="M231 656Q213 673 200.5 682.5Q188 692 188 697Q188 705 195 705Q202 705 212 693.5Q222 682 239 665L314 590H303ZM50 10H139V540H50V550H471V413H461V510Q461 528 455 534Q449 540 432 540H149V286H375V276H149V10H440Q456 10 462 17Q468 24 468 41V141H478V0H50Z" glyph-name="Egrave.sc" horiz-adv-x="539" /><glyph d="M53 0V10H153V347H43V357H153V680H53V690H272Q355 690 417.5 663Q480 636 522 589.5Q564 543 585 480Q606 417 606 346Q606 275 585 212Q564 149 522.5 102Q481 55 418.5 27.5Q356 0 272 0ZM275 10Q351 10 410.5 35.5Q470 61 511.5 106Q553 151 574.5 212.5Q596 274 596 346Q596 416 574.5 477Q553 538 512 583Q471 628 411.5 654Q352 680 277 680H163V357H337V347H163V10Z" glyph-name="Eth" horiz-adv-x="665" unicode="&#208;" /><glyph d="M50 0V10H139V276H50V286H139V540H50V550H246Q321 550 376.5 528Q432 506 469.5 468.5Q507 431 525.5 381.5Q544 332 544 276Q544 220 525.5 169.5Q507 119 470 81.5Q433 44 377 22Q321 0 246 0ZM248 10Q315 10 368 29.5Q421 49 458 84.5Q495 120 514.5 169Q534 218 534 276Q534 333 514.5 381Q495 429 458.5 464.5Q422 500 369.5 520Q317 540 250 540H149V286H304V276H149V10Z" glyph-name="Eth.sc" horiz-adv-x="597" /><glyph d="M53 0V10H153V680H53V690H505V520H495V650Q495 667 488.5 673.5Q482 680 465 680H163V357H407V347H163V10H273V0Z" glyph-name="F" horiz-adv-x="541" unicode="F" /><glyph d="M53 0V10H153V680H53V690H505V520H495V650Q495 667 488.5 673.5Q482 680 465 680H163V357H403V454H413V249H403V347H163V10H273V0Z" glyph-name="F.alt" horiz-adv-x="543" /><glyph d="M50 0V10H139V540H50V550H453V413H443V510Q443 527 437 533.5Q431 540 415 540H149V286H362V362H371V198H362V276H149V10H247V0Z" glyph-name="F.alt.sc" horiz-adv-x="489" /><glyph d="M50 0V10H139V540H50V550H453V413H443V510Q443 527 437 533.5Q431 540 415 540H149V286H366V276H149V10H247V0Z" glyph-name="F.sc" horiz-adv-x="487" /><glyph d="M554 72Q536 47 512 31Q488 15 462.5 6Q437 -3 411.5 -6.5Q386 -10 365 -10Q280 -10 221.5 19.5Q163 49 127 98.5Q91 148 75.5 212.5Q60 277 60 346Q60 414 77 477.5Q94 541 128.5 590.5Q163 640 215.5 670Q268 700 339 700Q418 700 472 671Q526 642 549 582V699H559V498H549Q549 554 531.5 590.5Q514 627 485 649.5Q456 672 418 681Q380 690 339 690Q282 690 233 666.5Q184 643 148 598.5Q112 554 91 490.5Q70 427 70 346Q70 267 89 203Q108 139 145 94Q182 49 237 24.5Q292 0 365 0Q383 0 407 3Q431 6 456.5 15Q482 24 507.5 41Q533 58 554 87V277H414V287H654V277H564V-10H554Z" glyph-name="G" horiz-adv-x="685" unicode="G" /><glyph d="M492 57Q476 39 455 27Q434 15 412 7Q390 -1 368 -4.5Q346 -8 328 -8Q255 -8 203 15.5Q151 39 118 78.5Q85 118 70 169.5Q55 221 55 276Q55 332 71 383Q87 434 118.5 473Q150 512 196.5 535Q243 558 304 558Q370 558 421 532Q472 506 492 458V557H501V395H492Q492 436 475.5 465Q459 494 432.5 512.5Q406 531 372.5 539.5Q339 548 304 548Q245 548 200.5 526Q156 504 126 466.5Q96 429 80.5 379.5Q65 330 65 276Q65 213 83 162.5Q101 112 135 76Q169 40 218 21Q267 2 328 2Q344 2 364.5 5Q385 8 407 15.5Q429 23 451 36Q473 49 491 69V220H367V230H582V220H501V-8H492Z" glyph-name="G.sc" horiz-adv-x="613" /><glyph d="M53 10H153V680H53V690H253V680H163V360H566V680H476V690H676V680H576V10H676V0H476V10H566V350H163V10H253V0H53Z" glyph-name="H" horiz-adv-x="729" unicode="H" /><glyph d="M50 10H139V540H50V550H229V540H149V288H507V540H427V550H606V540H517V10H606V0H427V10H507V278H149V10H229V0H50Z" glyph-name="H.sc" horiz-adv-x="656" /><glyph d="M53 0V10H153V680H53V690H263V680H163V10H263V0Z" glyph-name="I" horiz-adv-x="316" unicode="I" /><glyph d="M50 0V10H139V540H50V550H238V540H149V10H238V0Z" glyph-name="I.sc" horiz-adv-x="288" /><glyph d="M235 826Q255 848 269.5 860Q284 872 284 877Q284 884 276 884Q268 884 257.5 870Q247 856 227 834L143 740H155ZM53 0V10H153V680H53V690H263V680H163V10H263V0Z" glyph-name="Iacute" horiz-adv-x="316" unicode="&#205;" /><glyph d="M141 590H130L205 665Q222 682 232 693.5Q242 705 249 705Q256 705 256 697Q256 692 243.5 682.5Q231 673 213 656ZM50 0V10H139V540H50V550H238V540H149V10H238V0Z" glyph-name="Iacute.sc" horiz-adv-x="288" /><glyph d="M246 826Q266 848 280.5 860Q295 872 295 877Q295 884 287 884Q279 884 268.5 870Q258 856 238 834L154 740H166ZM726 826Q746 848 760.5 860Q775 872 775 877Q775 884 767 884Q759 884 748.5 870Q738 856 718 834L634 740H646ZM53 0V10H153V680H53V690H263V680H163V10H263V0ZM659 215Q659 164 652 122Q645 80 626 51Q607 22 575 6Q543 -10 493 -10Q450 -10 417 3.5Q384 17 362.5 38.5Q341 60 330 88Q319 116 319 144Q319 163 337 163Q354 163 354 146Q354 129 332 126Q337 86 356 61.5Q375 37 400 23.5Q425 10 450.5 5Q476 0 493 0Q539 0 569 14.5Q599 29 617 56.5Q635 84 642 124Q649 164 649 215V680H549V690H759V680H659Z" glyph-name="Iacute_Jacute" horiz-adv-x="797" /><glyph d="M569 590H558L633 665Q650 682 660 693.5Q670 705 677 705Q684 705 684 697Q684 692 671.5 682.5Q659 673 641 656ZM151 590H140L215 665Q232 682 242 693.5Q252 705 259 705Q266 705 266 697Q266 692 253.5 682.5Q241 673 223 656ZM50 0V10H139V540H50V550H238V540H149V10H238V0ZM567 182Q567 140 560.5 105.5Q554 71 538 45.5Q522 20 495 6Q468 -8 426 -8Q387 -8 360 4.5Q333 17 316 35Q299 53 291.5 74Q284 95 284 112Q284 131 300 131Q316 131 316 116Q316 100 296 97Q308 45 345.5 23.5Q383 2 426 2Q464 2 489.5 14.5Q515 27 530 50.5Q545 74 551 107Q557 140 557 181V540H468V550H656V540H567Z" glyph-name="Iacute_Jacute.sc" horiz-adv-x="692" /><glyph d="M44 740 153 872H163L268 740H255L158 863L57 740ZM53 0V10H153V680H53V690H263V680H163V10H263V0Z" glyph-name="Icircumflex" horiz-adv-x="316" unicode="&#206;" /><glyph d="M40 590 136 695H146L242 590H230L141 687L52 590ZM50 0V10H139V540H50V550H238V540H149V10H238V0Z" glyph-name="Icircumflex.sc" horiz-adv-x="288" /><glyph d="M85 802Q85 798 81.5 792Q78 786 68 786Q58 786 54.5 792Q51 798 51 802Q51 807 54.5 813Q58 819 68 819Q78 819 81.5 813Q85 807 85 802ZM265 802Q265 798 261.5 792Q258 786 248 786Q238 786 234.5 792Q231 798 231 802Q231 807 234.5 813Q238 819 248 819Q258 819 261.5 813Q265 807 265 802ZM53 0V10H153V680H53V690H263V680H163V10H263V0Z" glyph-name="Idieresis" horiz-adv-x="316" unicode="&#207;" /><glyph d="M77 640Q77 635 73.5 630Q70 625 62 625Q54 625 50.5 630Q47 635 47 640Q47 645 50.5 650Q54 655 62 655Q70 655 73.5 650Q77 645 77 640ZM238 640Q238 635 234.5 630Q231 625 223 625Q215 625 211.5 630Q208 635 208 640Q208 645 211.5 650Q215 655 223 655Q231 655 234.5 650Q238 645 238 640ZM50 0V10H139V540H50V550H238V540H149V10H238V0Z" glyph-name="Idieresis.sc" horiz-adv-x="288" /><glyph d="M53 0V10H153V680H53V690H263V680H163V10H263V0ZM87 826Q67 848 52.5 860Q38 872 38 877Q38 884 46 884Q54 884 64.5 870Q75 856 95 834L179 740H167Z" glyph-name="Igrave" horiz-adv-x="316" unicode="&#204;" /><glyph d="M80 656Q62 673 49 682.5Q36 692 36 697Q36 705 44 705Q51 705 61 693.5Q71 682 88 665L163 590H151ZM50 0V10H139V540H50V550H238V540H149V10H238V0Z" glyph-name="Igrave.sc" horiz-adv-x="288" /><glyph d="M362 215Q362 164 355 122Q348 80 329 51Q310 22 278 6Q246 -10 196 -10Q153 -10 120 3.5Q87 17 65.5 38.5Q44 60 33 88Q22 116 22 144Q22 163 40 163Q57 163 57 146Q57 129 35 126Q37 104 47.5 81.5Q58 59 78 41Q98 23 127 11.5Q156 0 196 0Q242 0 272 14.5Q302 29 320 56.5Q338 84 345 124Q352 164 352 215V680H252V690H462V680H362Z" glyph-name="J" horiz-adv-x="500" unicode="J" /><glyph d="M306 182Q306 140 299.5 105.5Q293 71 277 45.5Q261 20 234 6Q207 -8 165 -8Q126 -8 99 4.5Q72 17 55 35Q38 53 30.5 74Q23 95 23 112Q23 131 39 131Q55 131 55 116Q55 100 35 97Q47 45 84.5 23.5Q122 2 165 2Q203 2 228.5 14.5Q254 27 269 50.5Q284 74 290 107Q296 140 296 181V540H207V550H395V540H306Z" glyph-name="J.sc" horiz-adv-x="431" /><glyph d="M53 0V10H153V680H53V690H263V680H163V223L540 680H450V690H633V680H552L324 404L578 10H659V0H476V10H567L318 396L163 208V10H263V0Z" glyph-name="K" horiz-adv-x="666" unicode="K" /><glyph d="M163 222 560 680H163ZM53 0V10H153V680H53V690H572V680L324 394L578 10H659V0H476V10H567L317 386L163 207V10H263V0Z" glyph-name="K.alt" horiz-adv-x="647" /><glyph d="M149 179 499 540H149ZM50 0V10H139V540H50V550H513V540L293 313L519 10H591V0H427V10H508L286 307L149 165V10H238V0Z" glyph-name="K.alt.sc" horiz-adv-x="588" /><glyph d="M50 0V10H139V540H50V550H238V540H149V182L483 540H404V550H567V540H496L293 323L519 10H591V0H427V10H507L286 315L149 168V10H238V0Z" glyph-name="K.sc" horiz-adv-x="601" /><glyph d="M53 10H153V680H53V690H263V680H163V10H482Q499 10 505.5 17Q512 24 512 40V175H522V0H53Z" glyph-name="L" horiz-adv-x="556" unicode="L" /><glyph d="M50 10H139V540H50V550H238V540H149V10H431Q448 10 453.5 17Q459 24 459 41V141H469V0H50Z" glyph-name="L.sc" horiz-adv-x="502" /><glyph d="M253 0H53V10H153V680H53V690H166L437 105L708 690H820V680H720V10H820V0H620V10H710V669L442 91H432L163 669V10H253Z" glyph-name="M" horiz-adv-x="873" unicode="M" /><glyph d="M253 0H53V10H153V680H53V690H271V680H170L437 105L704 680H604V690H820V680H720V10H820V0H620V10H710V669L442 91H432L163 669V10H253Z" glyph-name="M.alt" horiz-adv-x="873" /><glyph d="M228 0H50V10H139V540H50V550H245V540H154L393 85L631 540H541V550H735V540H646V10H735V0H556V10H636V530L397 73H388L148 530V10H228Z" glyph-name="M.alt.sc" horiz-adv-x="785" /><glyph d="M228 0H50V10H139V540H50V550H149L393 85L636 550H735V540H646V10H735V0H556V10H636V530L397 73H388L148 530V10H228Z" glyph-name="M.sc" horiz-adv-x="785" /><glyph d="M263 0H53V10H153V680H53V690H163L578 14V680H478V690H688V680H588V-5H578L163 671V10H263Z" glyph-name="N" horiz-adv-x="732" unicode="N" /><glyph d="M263 0H53V10H153V680H53V690H163L578 170V680H478V690H688V680H588V10H688V0H478V10H578V155L163 675V10H263Z" glyph-name="N.alt" horiz-adv-x="741" /><glyph d="M237 0H50V10H139V540H50V550H148L518 143V540H429V550H617V540H528V10H617V0H429V10H518V129L148 536V10H237Z" glyph-name="N.alt.sc" horiz-adv-x="667" /><glyph d="M237 0H50V10H139V540H50V550H148L518 12V540H429V550H617V540H528V-4H518L148 534V10H237Z" glyph-name="N.sc" horiz-adv-x="659" /><glyph d="M263 0H53V10H153V680H53V690H163L578 14V680H478V690H688V680H588V-5H578L163 671V10H263ZM295 841Q266 841 254 816.5Q242 792 242 757H232Q232 800 247.5 825.5Q263 851 295 851Q316 851 331 838Q346 825 360 809Q374 793 389.5 780Q405 767 426 767Q455 767 467 791Q479 815 479 851H489Q489 808 473.5 782.5Q458 757 426 757Q402 757 385 770Q368 783 354.5 799Q341 815 327 828Q313 841 295 841Z" glyph-name="Ntilde" horiz-adv-x="732" unicode="&#209;" /><glyph d="M441 759Q417 759 402 771.5Q387 784 374 799.5Q361 815 346.5 827.5Q332 840 310 840Q283 840 268 822Q253 804 253 763H243Q243 802 259 826Q275 850 310 850Q334 850 350 837.5Q366 825 379 809.5Q392 794 406 781.5Q420 769 441 769Q459 769 470 775.5Q481 782 487.5 793Q494 804 496 817.5Q498 831 498 846H508Q508 795 489 777Q470 759 441 759ZM263 0H53V10H153V680H53V690H163L578 170V680H478V690H688V680H588V10H688V0H478V10H578V155L163 675V10H263Z" glyph-name="Ntilde.alt" horiz-adv-x="741" /><glyph d="M277 668Q251 668 240.5 649Q230 630 230 602H220Q220 637 234 657.5Q248 678 277 678Q298 678 311.5 667.5Q325 657 336.5 645Q348 633 361 622.5Q374 612 394 612Q420 612 430.5 631Q441 650 441 678H451Q451 643 436.5 622.5Q422 602 394 602Q371 602 356.5 612.5Q342 623 331 635Q320 647 308 657.5Q296 668 277 668ZM237 0H50V10H139V540H50V550H148L518 143V540H429V550H617V540H528V10H617V0H429V10H518V129L148 536V10H237Z" glyph-name="Ntilde.alt.sc" horiz-adv-x="667" /><glyph d="M284 668Q258 668 247.5 649Q237 630 237 602H227Q227 637 241 657.5Q255 678 284 678Q305 678 318.5 667.5Q332 657 343.5 645Q355 633 368 622.5Q381 612 401 612Q427 612 437.5 631Q448 650 448 678H458Q458 643 443.5 622.5Q429 602 401 602Q378 602 363.5 612.5Q349 623 338 635Q327 647 315 657.5Q303 668 284 668ZM237 0H50V10H139V540H50V550H148L518 12V540H429V550H617V540H528V-4H518L148 534V10H237Z" glyph-name="Ntilde.sc" horiz-adv-x="659" /><glyph d="M605 345Q605 269 585.5 204Q566 139 530.5 91.5Q495 44 445 17Q395 -10 333 -10Q270 -10 219.5 17Q169 44 133.5 91.5Q98 139 79 204Q60 269 60 345Q60 421 79 486Q98 551 133.5 598.5Q169 646 219.5 673Q270 700 333 700Q395 700 445 673Q495 646 530.5 598.5Q566 551 585.5 486Q605 421 605 345ZM70 345Q70 273 88 210.5Q106 148 139.5 101Q173 54 222 27Q271 0 333 0Q395 0 443.5 27Q492 54 525.5 101Q559 148 577 210.5Q595 273 595 345Q595 416 577 479Q559 542 525.5 589Q492 636 443.5 663Q395 690 333 690Q271 690 222 663Q173 636 139.5 589Q106 542 88 479Q70 416 70 345Z" glyph-name="O" horiz-adv-x="665" unicode="O" /><glyph d="M541 276Q541 214 524 161.5Q507 109 475 71.5Q443 34 398.5 13Q354 -8 298 -8Q243 -8 198 13Q153 34 121 71.5Q89 109 72 161.5Q55 214 55 276Q55 338 72 389.5Q89 441 121 478.5Q153 516 198 537Q243 558 298 558Q354 558 398.5 537Q443 516 475 478.5Q507 441 524 389.5Q541 338 541 276ZM65 276Q65 218 81 167.5Q97 117 127 80.5Q157 44 200.5 23Q244 2 298 2Q352 2 395.5 23Q439 44 469 80.5Q499 117 515 167.5Q531 218 531 276Q531 334 515 384Q499 434 469 470.5Q439 507 395.5 527.5Q352 548 298 548Q244 548 200.5 527.5Q157 507 127 470.5Q97 434 81 384Q65 334 65 276Z" glyph-name="O.sc" horiz-adv-x="596" /><glyph d="M605 345Q605 269 585.5 204Q566 139 530.5 91.5Q495 44 445 17Q395 -10 333 -10Q270 -10 219.5 17Q169 44 133.5 91.5Q98 139 79 204Q60 269 60 345Q60 421 79 486Q98 551 133.5 598.5Q169 646 219.5 673Q270 700 333 700Q395 700 445 673Q495 646 530.5 598.5Q566 551 585.5 486Q605 421 605 345ZM70 345Q70 273 88 210.5Q106 148 139.5 101Q173 54 222 27Q271 0 333 0Q395 0 443.5 27Q492 54 525.5 101Q559 148 577 210.5Q595 273 595 345Q595 416 577 479Q559 542 525.5 589Q492 636 443.5 663Q395 690 333 690Q271 690 222 663Q173 636 139.5 589Q106 542 88 479Q70 416 70 345ZM408 826Q428 848 442.5 860Q457 872 457 877Q457 884 449 884Q441 884 430.5 870Q420 856 400 834L316 740H328Z" glyph-name="Oacute" horiz-adv-x="665" unicode="&#211;" /><glyph d="M605 345Q605 269 585.5 204Q566 139 530.5 91.5Q495 44 445 17Q395 -10 333 -10Q270 -10 219.5 17Q169 44 133.5 91.5Q98 139 79 204Q60 269 60 345Q60 421 79 486Q98 551 133.5 598.5Q169 646 219.5 673Q270 700 333 700Q395 700 445 673Q495 646 530.5 598.5Q566 551 585.5 486Q605 421 605 345ZM70 345Q70 273 88 210.5Q106 148 139.5 101Q173 54 222 27Q271 0 333 0Q395 0 443.5 27Q492 54 525.5 101Q559 148 577 210.5Q595 273 595 345Q595 416 577 479Q559 542 525.5 589Q492 636 443.5 663Q395 690 333 690Q271 690 222 663Q173 636 139.5 589Q106 542 88 479Q70 416 70 345ZM325 740 379 846Q390 868 395 882Q400 896 408 896Q417 896 417 889Q417 882 409.5 871Q402 860 390 838L337 740Z" glyph-name="Oacute.pl" horiz-adv-x="665" /><glyph d="M292 590 340 674Q349 692 354 703.5Q359 715 366 715Q374 715 374 708Q374 702 367.5 693Q361 684 350 667L303 590ZM541 276Q541 214 524 161.5Q507 109 475 71.5Q443 34 398.5 13Q354 -8 298 -8Q243 -8 198 13Q153 34 121 71.5Q89 109 72 161.5Q55 214 55 276Q55 338 72 389.5Q89 441 121 478.5Q153 516 198 537Q243 558 298 558Q354 558 398.5 537Q443 516 475 478.5Q507 441 524 389.5Q541 338 541 276ZM65 276Q65 218 81 167.5Q97 117 127 80.5Q157 44 200.5 23Q244 2 298 2Q352 2 395.5 23Q439 44 469 80.5Q499 117 515 167.5Q531 218 531 276Q531 334 515 384Q499 434 469 470.5Q439 507 395.5 527.5Q352 548 298 548Q244 548 200.5 527.5Q157 507 127 470.5Q97 434 81 384Q65 334 65 276Z" glyph-name="Oacute.pl.sc" horiz-adv-x="596" /><glyph d="M295 590H284L359 665Q376 682 386 693.5Q396 705 403 705Q410 705 410 697Q410 692 397.5 682.5Q385 673 367 656ZM541 276Q541 214 524 161.5Q507 109 475 71.5Q443 34 398.5 13Q354 -8 298 -8Q243 -8 198 13Q153 34 121 71.5Q89 109 72 161.5Q55 214 55 276Q55 338 72 389.5Q89 441 121 478.5Q153 516 198 537Q243 558 298 558Q354 558 398.5 537Q443 516 475 478.5Q507 441 524 389.5Q541 338 541 276ZM65 276Q65 218 81 167.5Q97 117 127 80.5Q157 44 200.5 23Q244 2 298 2Q352 2 395.5 23Q439 44 469 80.5Q499 117 515 167.5Q531 218 531 276Q531 334 515 384Q499 434 469 470.5Q439 507 395.5 527.5Q352 548 298 548Q244 548 200.5 527.5Q157 507 127 470.5Q97 434 81 384Q65 334 65 276Z" glyph-name="Oacute.sc" horiz-adv-x="596" /><glyph d="M605 345Q605 269 585.5 204Q566 139 530.5 91.5Q495 44 445 17Q395 -10 333 -10Q270 -10 219.5 17Q169 44 133.5 91.5Q98 139 79 204Q60 269 60 345Q60 421 79 486Q98 551 133.5 598.5Q169 646 219.5 673Q270 700 333 700Q395 700 445 673Q495 646 530.5 598.5Q566 551 585.5 486Q605 421 605 345ZM70 345Q70 273 88 210.5Q106 148 139.5 101Q173 54 222 27Q271 0 333 0Q395 0 443.5 27Q492 54 525.5 101Q559 148 577 210.5Q595 273 595 345Q595 416 577 479Q559 542 525.5 589Q492 636 443.5 663Q395 690 333 690Q271 690 222 663Q173 636 139.5 589Q106 542 88 479Q70 416 70 345ZM219 740 328 872H338L443 740H430L333 863L232 740Z" glyph-name="Ocircumflex" horiz-adv-x="665" unicode="&#212;" /><glyph d="M202 590 297 695H307L404 590H392L302 687L214 590ZM541 276Q541 214 524 161.5Q507 109 475 71.5Q443 34 398.5 13Q354 -8 298 -8Q243 -8 198 13Q153 34 121 71.5Q89 109 72 161.5Q55 214 55 276Q55 338 72 389.5Q89 441 121 478.5Q153 516 198 537Q243 558 298 558Q354 558 398.5 537Q443 516 475 478.5Q507 441 524 389.5Q541 338 541 276ZM65 276Q65 218 81 167.5Q97 117 127 80.5Q157 44 200.5 23Q244 2 298 2Q352 2 395.5 23Q439 44 469 80.5Q499 117 515 167.5Q531 218 531 276Q531 334 515 384Q499 434 469 470.5Q439 507 395.5 527.5Q352 548 298 548Q244 548 200.5 527.5Q157 507 127 470.5Q97 434 81 384Q65 334 65 276Z" glyph-name="Ocircumflex.sc" horiz-adv-x="596" /><glyph d="M605 345Q605 269 585.5 204Q566 139 530.5 91.5Q495 44 445 17Q395 -10 333 -10Q270 -10 219.5 17Q169 44 133.5 91.5Q98 139 79 204Q60 269 60 345Q60 421 79 486Q98 551 133.5 598.5Q169 646 219.5 673Q270 700 333 700Q395 700 445 673Q495 646 530.5 598.5Q566 551 585.5 486Q605 421 605 345ZM70 345Q70 273 88 210.5Q106 148 139.5 101Q173 54 222 27Q271 0 333 0Q395 0 443.5 27Q492 54 525.5 101Q559 148 577 210.5Q595 273 595 345Q595 416 577 479Q559 542 525.5 589Q492 636 443.5 663Q395 690 333 690Q271 690 222 663Q173 636 139.5 589Q106 542 88 479Q70 416 70 345ZM260 802Q260 798 256.5 792Q253 786 243 786Q233 786 229.5 792Q226 798 226 802Q226 807 229.5 813Q233 819 243 819Q253 819 256.5 813Q260 807 260 802ZM440 802Q440 798 436.5 792Q433 786 423 786Q413 786 409.5 792Q406 798 406 802Q406 807 409.5 813Q413 819 423 819Q433 819 436.5 813Q440 807 440 802Z" glyph-name="Odieresis" horiz-adv-x="665" unicode="&#214;" /><glyph d="M236 640Q236 635 232.5 630Q229 625 221 625Q213 625 209.5 630Q206 635 206 640Q206 645 209.5 650Q213 655 221 655Q229 655 232.5 650Q236 645 236 640ZM397 640Q397 635 393.5 630Q390 625 382 625Q374 625 370.5 630Q367 635 367 640Q367 645 370.5 650Q374 655 382 655Q390 655 393.5 650Q397 645 397 640ZM541 276Q541 214 524 161.5Q507 109 475 71.5Q443 34 398.5 13Q354 -8 298 -8Q243 -8 198 13Q153 34 121 71.5Q89 109 72 161.5Q55 214 55 276Q55 338 72 389.5Q89 441 121 478.5Q153 516 198 537Q243 558 298 558Q354 558 398.5 537Q443 516 475 478.5Q507 441 524 389.5Q541 338 541 276ZM65 276Q65 218 81 167.5Q97 117 127 80.5Q157 44 200.5 23Q244 2 298 2Q352 2 395.5 23Q439 44 469 80.5Q499 117 515 167.5Q531 218 531 276Q531 334 515 384Q499 434 469 470.5Q439 507 395.5 527.5Q352 548 298 548Q244 548 200.5 527.5Q157 507 127 470.5Q97 434 81 384Q65 334 65 276Z" glyph-name="Odieresis.sc" horiz-adv-x="596" /><glyph d="M605 345Q605 269 585.5 204Q566 139 530.5 91.5Q495 44 445 17Q395 -10 333 -10Q270 -10 219.5 17Q169 44 133.5 91.5Q98 139 79 204Q60 269 60 345Q60 421 79 486Q98 551 133.5 598.5Q169 646 219.5 673Q270 700 333 700Q395 700 445 673Q495 646 530.5 598.5Q566 551 585.5 486Q605 421 605 345ZM70 345Q70 273 88 210.5Q106 148 139.5 101Q173 54 222 27Q271 0 333 0Q395 0 443.5 27Q492 54 525.5 101Q559 148 577 210.5Q595 273 595 345Q595 416 577 479Q559 542 525.5 589Q492 636 443.5 663Q395 690 333 690Q271 690 222 663Q173 636 139.5 589Q106 542 88 479Q70 416 70 345ZM262 826Q242 848 227.5 860Q213 872 213 877Q213 884 221 884Q229 884 239.5 870Q250 856 270 834L354 740H342Z" glyph-name="Ograve" horiz-adv-x="665" unicode="&#210;" /><glyph d="M235 656Q217 673 204.5 682.5Q192 692 192 697Q192 705 199 705Q206 705 216 693.5Q226 682 243 665L318 590H307ZM541 276Q541 214 524 161.5Q507 109 475 71.5Q443 34 398.5 13Q354 -8 298 -8Q243 -8 198 13Q153 34 121 71.5Q89 109 72 161.5Q55 214 55 276Q55 338 72 389.5Q89 441 121 478.5Q153 516 198 537Q243 558 298 558Q354 558 398.5 537Q443 516 475 478.5Q507 441 524 389.5Q541 338 541 276ZM65 276Q65 218 81 167.5Q97 117 127 80.5Q157 44 200.5 23Q244 2 298 2Q352 2 395.5 23Q439 44 469 80.5Q499 117 515 167.5Q531 218 531 276Q531 334 515 384Q499 434 469 470.5Q439 507 395.5 527.5Q352 548 298 548Q244 548 200.5 527.5Q157 507 127 470.5Q97 434 81 384Q65 334 65 276Z" glyph-name="Ograve.sc" horiz-adv-x="596" /><glyph d="M72 345Q72 263 94.5 194Q117 125 161 77L525 592Q491 638 443.5 664Q396 690 335 690Q273 690 224 663Q175 636 141.5 589Q108 542 90 479Q72 416 72 345ZM335 0Q397 0 445.5 27Q494 54 527.5 101Q561 148 579 210.5Q597 273 597 345Q597 415 580 476Q563 537 531 584L167 70Q199 37 241.5 18.5Q284 0 335 0ZM335 -10Q283 -10 239.5 8.5Q196 27 162 62L91 -38H80L155 68Q110 117 86 188Q62 259 62 345Q62 421 81 486Q100 551 135.5 598.5Q171 646 221.5 673Q272 700 335 700Q397 700 446.5 674Q496 648 531 600L615 719H626L537 593Q571 545 589 482Q607 419 607 345Q607 269 587.5 204Q568 139 532.5 91.5Q497 44 447 17Q397 -10 335 -10Z" glyph-name="Oslash" horiz-adv-x="680" unicode="&#216;" /><glyph d="M68 276Q68 211 87.5 157Q107 103 144 66L453 490Q424 518 386 533Q348 548 301 548Q247 548 203.5 527.5Q160 507 130 470.5Q100 434 84 384Q68 334 68 276ZM301 2Q355 2 398.5 23Q442 44 472 80.5Q502 117 518 167.5Q534 218 534 276Q534 341 514.5 394Q495 447 459 485L149 60Q178 32 216 17Q254 2 301 2ZM301 -8Q253 -8 213.5 7.5Q174 23 143 51L84 -30H74L137 57Q99 95 78.5 151Q58 207 58 276Q58 338 75 389.5Q92 441 124 478.5Q156 516 201 537Q246 558 301 558Q349 558 388.5 542.5Q428 527 459 498L514 574H524L465 493Q503 455 523.5 399.5Q544 344 544 276Q544 214 527 161.5Q510 109 478 71.5Q446 34 401.5 13Q357 -8 301 -8Z" glyph-name="Oslash.sc" horiz-adv-x="601" /><glyph d="M605 345Q605 269 585.5 204Q566 139 530.5 91.5Q495 44 445 17Q395 -10 333 -10Q270 -10 219.5 17Q169 44 133.5 91.5Q98 139 79 204Q60 269 60 345Q60 421 79 486Q98 551 133.5 598.5Q169 646 219.5 673Q270 700 333 700Q395 700 445 673Q495 646 530.5 598.5Q566 551 585.5 486Q605 421 605 345ZM70 345Q70 273 88 210.5Q106 148 139.5 101Q173 54 222 27Q271 0 333 0Q395 0 443.5 27Q492 54 525.5 101Q559 148 577 210.5Q595 273 595 345Q595 416 577 479Q559 542 525.5 589Q492 636 443.5 663Q395 690 333 690Q271 690 222 663Q173 636 139.5 589Q106 542 88 479Q70 416 70 345ZM269 841Q240 841 228 816.5Q216 792 216 757H206Q206 800 221.5 825.5Q237 851 269 851Q290 851 305 838Q320 825 334 809Q348 793 363.5 780Q379 767 400 767Q429 767 441 791Q453 815 453 851H463Q463 808 447.5 782.5Q432 757 400 757Q376 757 359 770Q342 783 328.5 799Q315 815 301 828Q287 841 269 841Z" glyph-name="Otilde" horiz-adv-x="665" unicode="&#213;" /><glyph d="M245 668Q219 668 208.5 649Q198 630 198 602H188Q188 637 202 657.5Q216 678 245 678Q266 678 279.5 667.5Q293 657 304.5 645Q316 633 329 622.5Q342 612 362 612Q388 612 398.5 631Q409 650 409 678H419Q419 643 404.5 622.5Q390 602 362 602Q339 602 324.5 612.5Q310 623 299 635Q288 647 276 657.5Q264 668 245 668ZM541 276Q541 214 524 161.5Q507 109 475 71.5Q443 34 398.5 13Q354 -8 298 -8Q243 -8 198 13Q153 34 121 71.5Q89 109 72 161.5Q55 214 55 276Q55 338 72 389.5Q89 441 121 478.5Q153 516 198 537Q243 558 298 558Q354 558 398.5 537Q443 516 475 478.5Q507 441 524 389.5Q541 338 541 276ZM65 276Q65 218 81 167.5Q97 117 127 80.5Q157 44 200.5 23Q244 2 298 2Q352 2 395.5 23Q439 44 469 80.5Q499 117 515 167.5Q531 218 531 276Q531 334 515 384Q499 434 469 470.5Q439 507 395.5 527.5Q352 548 298 548Q244 548 200.5 527.5Q157 507 127 470.5Q97 434 81 384Q65 334 65 276Z" glyph-name="Otilde.sc" horiz-adv-x="596" /><glyph d="M53 10H153V680H53V690H278Q347 690 396.5 675.5Q446 661 478 634.5Q510 608 525 571.5Q540 535 540 491Q540 403 478 352Q416 301 281 301H163V10H267V0H53ZM163 680V311H284Q413 311 471.5 360Q530 409 530 491Q530 532 515.5 567Q501 602 471 627Q441 652 394 666Q347 680 282 680Z" glyph-name="P" horiz-adv-x="582" unicode="P" /><glyph d="M50 10H139V540H50V550H251Q312 550 356.5 537.5Q401 525 429.5 503.5Q458 482 471.5 452Q485 422 485 387Q485 317 429.5 273Q374 229 253 229H149V10H241V0H50ZM149 540V239H256Q371 239 423 280.5Q475 322 475 387Q475 419 462.5 447Q450 475 423 495.5Q396 516 354 528Q312 540 254 540Z" glyph-name="P.sc" horiz-adv-x="524" /><glyph d="M498 -111Q456 -111 436 -85.5Q416 -60 402 0Q371 -10 333 -10Q285 -10 245 5.5Q205 21 172 50Q118 98 89 174Q60 250 60 345Q60 421 79 486Q98 551 133.5 598.5Q169 646 219.5 673Q270 700 333 700Q395 700 445 673Q495 646 530.5 598.5Q566 551 585.5 486Q605 421 605 345Q605 282 591.5 226.5Q578 171 553 126.5Q528 82 492.5 50Q457 18 412 3Q426 -56 444.5 -78.5Q463 -101 498 -101Q538 -101 555 -63.5Q572 -26 572 32H582Q582 -30 563 -70.5Q544 -111 498 -111ZM404 40Q407 25 410 13Q454 28 488.5 59.5Q523 91 546.5 134.5Q570 178 582.5 231.5Q595 285 595 345Q595 416 577 479Q559 542 525.5 589Q492 636 443.5 663Q395 690 333 690Q271 690 222 663Q173 636 139.5 589Q106 542 88 479Q70 416 70 345Q70 256 96.5 182Q123 108 174 61Q186 115 213 143.5Q240 172 285 172Q306 172 324.5 166.5Q343 161 358 146Q373 131 384.5 105.5Q396 80 404 40ZM333 0Q369 0 400 9Q398 16 397 22.5Q396 29 394 37Q380 111 352.5 136.5Q325 162 285 162Q242 162 217.5 133.5Q193 105 183 54Q213 28 250.5 14Q288 0 333 0Z" glyph-name="Q" horiz-adv-x="665" unicode="Q" /><glyph d="M519 -138Q494 -138 477 -126.5Q460 -115 449 -95Q438 -75 431.5 -49Q425 -23 421 6Q401 -2 378.5 -6Q356 -10 333 -10Q270 -10 219.5 17Q169 44 133.5 91.5Q98 139 79 204Q60 269 60 345Q60 421 79 486Q98 551 133.5 598.5Q169 646 219.5 673Q270 700 333 700Q395 700 445 673Q495 646 530.5 598.5Q566 551 585.5 486Q605 421 605 345Q605 285 593 232Q581 179 558 135.5Q535 92 502.5 60Q470 28 429 10Q434 -18 440 -43Q446 -68 456 -87Q466 -106 481.5 -117Q497 -128 519 -128Q538 -128 554 -121Q570 -114 581.5 -97Q593 -80 599.5 -51Q606 -22 606 22H616Q616 -25 609.5 -55.5Q603 -86 590.5 -104.5Q578 -123 560 -130.5Q542 -138 519 -138ZM70 345Q70 284 83 229.5Q96 175 120.5 130.5Q145 86 181 55Q217 24 263 10Q237 27 228 56Q219 85 219 120Q219 171 245.5 204.5Q272 238 322 238Q350 238 367.5 222.5Q385 207 396 181.5Q407 156 413 123.5Q419 91 423 57Q425 47 425.5 38Q426 29 428 20Q468 38 499 69.5Q530 101 551.5 143.5Q573 186 584 237Q595 288 595 345Q595 416 577 479Q559 542 525.5 589Q492 636 443.5 663Q395 690 333 690Q271 690 222 663Q173 636 139.5 589Q106 542 88 479Q70 416 70 345ZM333 0Q377 0 419 16Q417 25 416.5 34.5Q416 44 414 54Q410 87 404.5 118.5Q399 150 389.5 174Q380 198 364 213Q348 228 322 228Q276 228 252.5 196.5Q229 165 229 120Q229 95 233.5 73Q238 51 249.5 35Q261 19 281.5 9.5Q302 0 333 0Z" glyph-name="Q.alt" horiz-adv-x="665" /><glyph d="M465 -111Q443 -111 427.5 -102Q412 -93 402 -77Q392 -61 386 -40Q380 -19 376 4Q340 -8 298 -8Q243 -8 198 13Q153 34 121 71.5Q89 109 72 161.5Q55 214 55 276Q55 338 72 389.5Q89 441 121 478.5Q153 516 198 537Q243 558 298 558Q354 558 398.5 537Q443 516 475 478.5Q507 441 524 389.5Q541 338 541 276Q541 178 499.5 107Q458 36 386 8Q390 -15 395.5 -34.5Q401 -54 410 -69Q419 -84 432.5 -92.5Q446 -101 465 -101Q499 -101 520 -76.5Q541 -52 541 18H551Q551 -56 528.5 -83.5Q506 -111 465 -111ZM65 276Q65 227 76.5 183Q88 139 110 104.5Q132 70 164 45.5Q196 21 236 10Q212 24 203 47Q194 70 194 99Q194 139 216.5 163.5Q239 188 277 188Q304 188 321.5 176.5Q339 165 351 145.5Q363 126 369.5 100.5Q376 75 380 46Q381 38 382 31.5Q383 25 384 18Q454 46 492.5 115Q531 184 531 276Q531 334 515 384Q499 434 469 470.5Q439 507 395.5 527.5Q352 548 298 548Q244 548 200.5 527.5Q157 507 127 470.5Q97 434 81 384Q65 334 65 276ZM298 2Q339 2 375 14Q373 21 372.5 27Q372 33 371 39Q367 67 361 92.5Q355 118 344.5 137Q334 156 317.5 167Q301 178 277 178Q242 178 223 156Q204 134 204 99Q204 59 223.5 30.5Q243 2 298 2Z" glyph-name="Q.alt.sc" horiz-adv-x="596" /><glyph d="M447 -88Q412 -88 393 -67.5Q374 -47 360 0Q330 -8 298 -8Q243 -8 198 13Q153 34 121 71.5Q89 109 72 161.5Q55 214 55 276Q55 338 72 389.5Q89 441 121 478.5Q153 516 198 537Q243 558 298 558Q354 558 398.5 537Q443 516 475 478.5Q507 441 524 389.5Q541 338 541 276Q541 173 495.5 100Q450 27 371 3Q385 -43 401.5 -60.5Q418 -78 447 -78Q482 -78 497 -49.5Q512 -21 512 26H522Q522 -24 505 -56Q488 -88 447 -88ZM363 33Q365 28 366 22.5Q367 17 368 12Q407 24 437 48.5Q467 73 488 107.5Q509 142 520 185Q531 228 531 276Q531 334 515 384Q499 434 469 470.5Q439 507 395.5 527.5Q352 548 298 548Q244 548 200.5 527.5Q157 507 127 470.5Q97 434 81 384Q65 334 65 276Q65 204 88.5 145.5Q112 87 157 50Q168 87 192 113.5Q216 140 257 140Q295 140 321.5 118Q348 96 363 33ZM298 2Q314 2 329 4Q344 6 358 9Q356 14 355.5 19Q355 24 353 29Q339 89 315.5 109.5Q292 130 257 130Q238 130 222 122.5Q206 115 194.5 102.5Q183 90 175.5 74.5Q168 59 165 44Q221 2 298 2Z" glyph-name="Q.sc" horiz-adv-x="596" /><glyph d="M569 -10Q548 -10 533 -1Q518 8 506.5 28.5Q495 49 484 82Q473 115 459 162Q444 211 429.5 244Q415 277 395.5 297Q376 317 348.5 325.5Q321 334 280 334H163V10H241V0H53V10H153V680H53V690H282Q350 690 397.5 677.5Q445 665 474 642Q503 619 516 587.5Q529 556 529 517Q529 485 519 454Q509 423 486 398Q463 373 424.5 357Q386 341 330 338Q357 334 376.5 323.5Q396 313 412 293Q428 273 441 241.5Q454 210 468 163Q482 115 492.5 84Q503 53 514 34Q525 15 538 7.5Q551 0 569 0Q611 0 623 35Q635 70 635 144H646Q646 67 631.5 28.5Q617 -10 569 -10ZM163 680V344H282Q358 344 404.5 360.5Q451 377 476.5 402.5Q502 428 510.5 458.5Q519 489 519 517Q519 554 506.5 584Q494 614 466.5 635.5Q439 657 394 668.5Q349 680 284 680Z" glyph-name="R" horiz-adv-x="655" unicode="R" /><glyph d="M511 -8Q492 -8 479 -1Q466 6 456.5 22.5Q447 39 437.5 65Q428 91 416 128Q403 167 389 193.5Q375 220 356 236Q337 252 311 259Q285 266 247 266H149V10H219V0H50V10H139V540H50V550H255Q316 550 358 540Q400 530 426 511.5Q452 493 463.5 467.5Q475 442 475 411Q475 386 466 361.5Q457 337 436.5 317.5Q416 298 382 285Q348 272 298 270Q322 266 340.5 257.5Q359 249 374 233Q389 217 401.5 192Q414 167 426 130Q438 93 447.5 68.5Q457 44 466 29Q475 14 485.5 8Q496 2 511 2Q548 2 557.5 30Q567 58 567 115H577Q577 54 565 23Q553 -8 511 -8ZM149 540V276H255Q323 276 364 289Q405 302 427.5 321.5Q450 341 457.5 365Q465 389 465 411Q465 440 454 464Q443 488 418.5 505Q394 522 354 531Q314 540 257 540Z" glyph-name="R.sc" horiz-adv-x="587" /><glyph d="M316 -10Q264 -10 224 2Q184 14 154.5 34Q125 54 106 79.5Q87 105 78 133V-10H68V203H78Q78 154 97 116Q116 78 148.5 52.5Q181 27 224 13.5Q267 0 316 0Q368 0 404 12Q440 24 462.5 44.5Q485 65 495.5 91.5Q506 118 506 148Q506 183 495.5 211Q485 239 460 262Q435 285 393 303Q351 321 288 336Q242 347 202.5 361Q163 375 134 396.5Q105 418 88.5 450.5Q72 483 72 531Q72 567 85.5 598Q99 629 125.5 651.5Q152 674 190 687Q228 700 277 700Q357 700 414.5 665Q472 630 490 563V700H500V490H490Q490 552 468.5 591Q447 630 415 652Q383 674 346 682Q309 690 277 690Q183 690 132.5 646Q82 602 82 531Q82 484 98.5 453Q115 422 143.5 401.5Q172 381 210.5 368.5Q249 356 293 345Q358 330 401 311Q444 292 469.5 268Q495 244 505.5 214.5Q516 185 516 148Q516 118 506 90Q496 62 473 39.5Q450 17 411.5 3.5Q373 -10 316 -10Z" glyph-name="S" horiz-adv-x="578" unicode="S" /><glyph d="M284 -8Q238 -8 202 2Q166 12 140 28Q114 44 97 64Q80 84 72 104V-8H62V163H72Q72 124 89 94Q106 64 134.5 43.5Q163 23 202 12.5Q241 2 284 2Q330 2 362 11.5Q394 21 414 37Q434 53 443 74.5Q452 96 452 120Q452 148 443 170Q434 192 411.5 209.5Q389 227 352 241Q315 255 259 267Q218 276 182.5 286.5Q147 297 121 314Q95 331 80.5 357Q66 383 66 422Q66 481 113.5 519.5Q161 558 249 558Q318 558 369 530.5Q420 503 438 453V558H448V389H438Q438 438 419 469Q400 500 372 517.5Q344 535 311 541.5Q278 548 249 548Q166 548 121 512.5Q76 477 76 422Q76 385 90.5 360.5Q105 336 130.5 320.5Q156 305 190.5 295Q225 285 264 276Q321 264 359.5 249.5Q398 235 420.5 216.5Q443 198 452.5 174Q462 150 462 120Q462 96 453 73Q444 50 423.5 32Q403 14 369 3Q335 -8 284 -8Z" glyph-name="S.sc" horiz-adv-x="518" /><glyph d="M192 10H292V680H79Q60 680 54.5 674Q49 668 49 650V490H39V690H554V490H544V650Q544 668 539 674Q534 680 514 680H302V10H402V0H192Z" glyph-name="T" horiz-adv-x="593" unicode="T" /><glyph d="M174 10H263V540H75Q58 540 52.5 534Q47 528 47 510V391H37V550H498V391H488V510Q488 528 483.5 534Q479 540 460 540H273V10H362V0H174Z" glyph-name="T.sc" horiz-adv-x="535" /><glyph d="M212 580Q278 580 333 568Q388 556 428.5 530Q469 504 491.5 463Q514 422 514 364Q514 306 491.5 265Q469 224 428.5 198Q388 172 333 160Q278 148 212 148H163V10H263V0H53V10H153V680H53V690H263V680H163V580ZM504 364Q504 471 428.5 520.5Q353 570 213 570H163V158H213Q353 158 428.5 207.5Q504 257 504 364Z" glyph-name="Thorn" horiz-adv-x="561" unicode="&#222;" /><glyph d="M192 461Q253 461 303 451.5Q353 442 388 421.5Q423 401 442.5 368.5Q462 336 462 290Q462 244 442.5 211.5Q423 179 387.5 158Q352 137 302.5 127.5Q253 118 192 118H149V10H238V0H50V10H139V540H50V550H238V540H149V461ZM452 290Q452 374 385 412.5Q318 451 193 451H149V128H193Q318 128 385 167Q452 206 452 290Z" glyph-name="Thorn.sc" horiz-adv-x="505" /><glyph d="M585 242Q585 185 573.5 138.5Q562 92 535.5 59Q509 26 466.5 8Q424 -10 362 -10Q303 -10 260 8Q217 26 189.5 59Q162 92 148.5 139Q135 186 135 243V680H35V690H245V680H145V243Q145 128 200 64Q255 0 362 0Q421 0 461.5 16.5Q502 33 527 64Q552 95 563.5 140.5Q575 186 575 243V680H475V690H685V680H585Z" glyph-name="U" horiz-adv-x="721" unicode="U" /><glyph d="M525 195Q525 150 514.5 112.5Q504 75 480.5 48Q457 21 419 6.5Q381 -8 326 -8Q273 -8 234.5 6.5Q196 21 171.5 48Q147 75 135 112.5Q123 150 123 196V540H34V550H222V540H133V196Q133 105 181.5 54Q230 3 326 3Q378 3 414 16.5Q450 30 472.5 55Q495 80 505 115.5Q515 151 515 196V540H426V550H614V540H525Z" glyph-name="U.sc" horiz-adv-x="648" /><glyph d="M585 242Q585 185 573.5 138.5Q562 92 535.5 59Q509 26 466.5 8Q424 -10 362 -10Q303 -10 260 8Q217 26 189.5 59Q162 92 148.5 139Q135 186 135 243V680H35V690H245V680H145V243Q145 128 200 64Q255 0 362 0Q421 0 461.5 16.5Q502 33 527 64Q552 95 563.5 140.5Q575 186 575 243V680H475V690H685V680H585ZM446 826Q466 848 480.5 860Q495 872 495 877Q495 884 487 884Q479 884 468.5 870Q458 856 438 834L354 740H366Z" glyph-name="Uacute" horiz-adv-x="721" unicode="&#218;" /><glyph d="M330 590H319L394 665Q411 682 421 693.5Q431 705 438 705Q446 705 446 697Q446 692 433 682.5Q420 673 402 656ZM525 195Q525 150 514.5 112.5Q504 75 480.5 48Q457 21 419 6.5Q381 -8 326 -8Q273 -8 234.5 6.5Q196 21 171.5 48Q147 75 135 112.5Q123 150 123 196V540H34V550H222V540H133V196Q133 105 181.5 54Q230 3 326 3Q378 3 414 16.5Q450 30 472.5 55Q495 80 505 115.5Q515 151 515 196V540H426V550H614V540H525Z" glyph-name="Uacute.sc" horiz-adv-x="648" /><glyph d="M585 242Q585 185 573.5 138.5Q562 92 535.5 59Q509 26 466.5 8Q424 -10 362 -10Q303 -10 260 8Q217 26 189.5 59Q162 92 148.5 139Q135 186 135 243V680H35V690H245V680H145V243Q145 128 200 64Q255 0 362 0Q421 0 461.5 16.5Q502 33 527 64Q552 95 563.5 140.5Q575 186 575 243V680H475V690H685V680H585ZM249 740 358 872H368L473 740H460L363 863L262 740Z" glyph-name="Ucircumflex" horiz-adv-x="721" unicode="&#219;" /><glyph d="M225 590 320 695H329L426 590H414L324 684L237 590ZM525 195Q525 150 514.5 112.5Q504 75 480.5 48Q457 21 419 6.5Q381 -8 326 -8Q273 -8 234.5 6.5Q196 21 171.5 48Q147 75 135 112.5Q123 150 123 196V540H34V550H222V540H133V196Q133 105 181.5 54Q230 3 326 3Q378 3 414 16.5Q450 30 472.5 55Q495 80 505 115.5Q515 151 515 196V540H426V550H614V540H525Z" glyph-name="Ucircumflex.sc" horiz-adv-x="648" /><glyph d="M585 242Q585 185 573.5 138.5Q562 92 535.5 59Q509 26 466.5 8Q424 -10 362 -10Q303 -10 260 8Q217 26 189.5 59Q162 92 148.5 139Q135 186 135 243V680H35V690H245V680H145V243Q145 128 200 64Q255 0 362 0Q421 0 461.5 16.5Q502 33 527 64Q552 95 563.5 140.5Q575 186 575 243V680H475V690H685V680H585ZM289 802Q289 798 285.5 792Q282 786 272 786Q262 786 258.5 792Q255 798 255 802Q255 807 258.5 813Q262 819 272 819Q282 819 285.5 813Q289 807 289 802ZM469 802Q469 798 465.5 792Q462 786 452 786Q442 786 438.5 792Q435 798 435 802Q435 807 438.5 813Q442 819 452 819Q462 819 465.5 813Q469 807 469 802Z" glyph-name="Udieresis" horiz-adv-x="721" unicode="&#220;" /><glyph d="M262 640Q262 635 258.5 630Q255 625 247 625Q239 625 235.5 630Q232 635 232 640Q232 645 235.5 650Q239 655 247 655Q255 655 258.5 650Q262 645 262 640ZM423 640Q423 635 419.5 630Q416 625 408 625Q400 625 396.5 630Q393 635 393 640Q393 645 396.5 650Q400 655 408 655Q416 655 419.5 650Q423 645 423 640ZM525 195Q525 150 514.5 112.5Q504 75 480.5 48Q457 21 419 6.5Q381 -8 326 -8Q273 -8 234.5 6.5Q196 21 171.5 48Q147 75 135 112.5Q123 150 123 196V540H34V550H222V540H133V196Q133 105 181.5 54Q230 3 326 3Q378 3 414 16.5Q450 30 472.5 55Q495 80 505 115.5Q515 151 515 196V540H426V550H614V540H525Z" glyph-name="Udieresis.sc" horiz-adv-x="648" /><glyph d="M585 242Q585 185 573.5 138.5Q562 92 535.5 59Q509 26 466.5 8Q424 -10 362 -10Q303 -10 260 8Q217 26 189.5 59Q162 92 148.5 139Q135 186 135 243V680H35V690H245V680H145V243Q145 128 200 64Q255 0 362 0Q421 0 461.5 16.5Q502 33 527 64Q552 95 563.5 140.5Q575 186 575 243V680H475V690H685V680H585ZM294 826Q274 848 259.5 860Q245 872 245 877Q245 884 253 884Q261 884 271.5 870Q282 856 302 834L386 740H374Z" glyph-name="Ugrave" horiz-adv-x="721" unicode="&#217;" /><glyph d="M265 656Q247 673 234.5 682.5Q222 692 222 697Q222 705 229 705Q236 705 246 693.5Q256 682 273 665L348 590H337ZM525 195Q525 150 514.5 112.5Q504 75 480.5 48Q457 21 419 6.5Q381 -8 326 -8Q273 -8 234.5 6.5Q196 21 171.5 48Q147 75 135 112.5Q123 150 123 196V540H34V550H222V540H133V196Q133 105 181.5 54Q230 3 326 3Q378 3 414 16.5Q450 30 472.5 55Q495 80 505 115.5Q515 151 515 196V540H426V550H614V540H525Z" glyph-name="Ugrave.sc" horiz-adv-x="648" /><glyph d="M559 680 327 -10H317L76 680H-5V690H167V680H87L322 6L550 680H471V690H639V680Z" glyph-name="V" horiz-adv-x="639" unicode="V" /><glyph d="M500 540 293 -7H283L69 540H-3V550H151V540H79L288 7L490 540H421V550H572V540Z" glyph-name="V.sc" horiz-adv-x="572" /><glyph d="M466 671 271 -10H261L76 680H-4V690H167V680H87L267 10L461 690H471L671 -1L669 14L826 680H745V690H917V680H837L673 -10H663Z" glyph-name="W" horiz-adv-x="921" unicode="W" /><glyph d="M550 680H386L469 461ZM468 434 306 -10H296L75 680H-6V690H166V680H86L301 7L463 446L375 680H294V690H638V680H558L473 449L641 7L850 680H770V690H938V680H858L646 -10H636Z" glyph-name="W.alt" horiz-adv-x="937" /><glyph d="M488 540H346L418 370ZM418 344 274 -7H264L66 540H-5V550H149V540H77L270 8L413 357L335 540H262V550H570V540H498L423 357L572 7L756 540H687V550H837V540H766L577 -7H567Z" glyph-name="W.alt.sc" horiz-adv-x="837" /><glyph d="M419 530 244 -7H234L69 540H-2V550H151V540H79L239 10L415 550H423L597 11L738 540H666V550H820V540H748L602 -7H592Z" glyph-name="W.sc" horiz-adv-x="825" /><glyph d="M9 0V10H90L316 359L107 680H27V690H201V680H120L323 368L518 680H438V690H610V680H530L329 359L556 10H636V0H462V10H543L322 350L102 10H181V0Z" glyph-name="X" horiz-adv-x="642" unicode="X" /><glyph d="M13 0V10H85L287 286L101 540H29V550H185V540H113L293 293L467 540H396V550H550V540H479L299 285L501 10H573V0H417V10H489L293 277L97 10H167V0Z" glyph-name="X.sc" horiz-adv-x="583" /><glyph d="M413 0H203V10H303V303L77 680H-4V690H169V680H89L308 314L512 680H432V690H604V680H523L313 303V10H413Z" glyph-name="Y" horiz-adv-x="610" unicode="Y" /><glyph d="M370 0H182V10H271V241L60 540H-7V550H142V540H73L276 251L467 540H397V550H540V540H478L281 242V10H370Z" glyph-name="Y.sc" horiz-adv-x="548" /><glyph d="M413 0H203V10H303V303L77 680H-4V690H169V680H89L308 314L512 680H432V690H604V680H523L313 303V10H413ZM385 826Q405 848 419.5 860Q434 872 434 877Q434 884 426 884Q418 884 407.5 870Q397 856 377 834L293 740H305Z" glyph-name="Yacute" horiz-adv-x="610" unicode="&#221;" /><glyph d="M274 590H263L337 665Q355 682 364.5 693.5Q374 705 381 705Q389 705 389 697Q389 692 376.5 682.5Q364 673 345 656ZM370 0H182V10H271V241L60 540H-7V550H142V540H73L276 251L467 540H397V550H540V540H478L281 242V10H370Z" glyph-name="Yacute.sc" horiz-adv-x="548" /><glyph d="M48 0V10L492 680H96Q78 680 72 674Q66 668 66 650V520H56V690H504V680L60 10H467Q485 10 491 16.5Q497 23 497 40V175H507V0Z" glyph-name="Z" horiz-adv-x="557" unicode="Z" /><glyph d="M49 0V10L493 680H97Q79 680 73 674Q67 668 67 650V520H57V690H505V680L61 10H468Q486 10 492 16.5Q498 23 498 40V175H508V0Z" glyph-name="Z.alt" horiz-adv-x="559" /><glyph d="M46 0V10L442 540H91Q74 540 68.5 534Q63 528 63 510V411H53V550H454V540L58 10H418Q435 10 440.5 17Q446 24 446 41V143H456V0Z" glyph-name="Z.alt.sc" horiz-adv-x="504" /><glyph d="M45 0V10L441 540H90Q73 540 67.5 534Q62 528 62 510V411H52V550H453V540L57 10H417Q434 10 439.5 17Q445 24 445 41V143H455V0Z" glyph-name="Z.sc" horiz-adv-x="502" /><glyph d="M454 -10Q441 -10 428.5 -5.5Q416 -1 406 13.5Q396 28 391.5 55Q387 82 390 127Q382 88 364.5 62Q347 36 322.5 20Q298 4 267 -3Q236 -10 201 -10Q176 -10 150 -4Q124 2 102.5 17Q81 32 67 57Q53 82 53 120Q53 152 65.5 178.5Q78 205 107 224.5Q136 244 184 254.5Q232 265 303 265H389V305Q389 392 351.5 436Q314 480 233 480Q207 480 182 473Q157 466 136 452.5Q115 439 101 418.5Q87 398 83 371Q101 370 101 356Q101 351 97.5 346.5Q94 342 86 342Q71 342 71 358Q71 382 82 406Q93 430 114 448.5Q135 467 165 478.5Q195 490 233 490Q314 490 356.5 445Q399 400 399 310V89Q399 58 405 40.5Q411 23 419 14Q427 5 436.5 2.5Q446 0 453 0Q483 0 495.5 25Q508 50 508 110H518Q518 50 504.5 20Q491 -10 454 -10ZM201 0Q239 0 273 9Q307 18 332.5 40.5Q358 63 373.5 103Q389 143 389 204V255H303Q233 255 187 245Q141 235 113.5 217Q86 199 74.5 174Q63 149 63 120Q63 85 76 62Q89 39 109 25Q129 11 153.5 5.5Q178 0 201 0Z" glyph-name="a" horiz-adv-x="528" unicode="a" /><glyph d="M454 -10Q441 -10 428.5 -5.5Q416 -1 406 13.5Q396 28 391.5 55Q387 82 390 127Q382 88 364.5 62Q347 36 322.5 20Q298 4 267 -3Q236 -10 201 -10Q176 -10 150 -4Q124 2 102.5 17Q81 32 67 57Q53 82 53 120Q53 152 65.5 178.5Q78 205 107 224.5Q136 244 184 254.5Q232 265 303 265H389V305Q389 392 351.5 436Q314 480 233 480Q207 480 182 473Q157 466 136 452.5Q115 439 101 418.5Q87 398 83 371Q101 370 101 356Q101 351 97.5 346.5Q94 342 86 342Q71 342 71 358Q71 382 82 406Q93 430 114 448.5Q135 467 165 478.5Q195 490 233 490Q314 490 356.5 445Q399 400 399 310V89Q399 58 405 40.5Q411 23 419 14Q427 5 436.5 2.5Q446 0 453 0Q483 0 495.5 25Q508 50 508 110H518Q518 50 504.5 20Q491 -10 454 -10ZM201 0Q239 0 273 9Q307 18 332.5 40.5Q358 63 373.5 103Q389 143 389 204V255H303Q233 255 187 245Q141 235 113.5 217Q86 199 74.5 174Q63 149 63 120Q63 85 76 62Q89 39 109 25Q129 11 153.5 5.5Q178 0 201 0ZM244 601 318 695Q335 717 345 731Q355 745 362 745Q370 745 370 738Q370 733 357 721Q344 709 326 687L256 601Z" glyph-name="aacute" horiz-adv-x="528" unicode="&#225;" /><glyph d="M454 -10Q441 -10 428.5 -5.5Q416 -1 406 13.5Q396 28 391.5 55Q387 82 390 127Q382 88 364.5 62Q347 36 322.5 20Q298 4 267 -3Q236 -10 201 -10Q176 -10 150 -4Q124 2 102.5 17Q81 32 67 57Q53 82 53 120Q53 152 65.5 178.5Q78 205 107 224.5Q136 244 184 254.5Q232 265 303 265H389V305Q389 392 351.5 436Q314 480 233 480Q207 480 182 473Q157 466 136 452.5Q115 439 101 418.5Q87 398 83 371Q101 370 101 356Q101 351 97.5 346.5Q94 342 86 342Q71 342 71 358Q71 382 82 406Q93 430 114 448.5Q135 467 165 478.5Q195 490 233 490Q314 490 356.5 445Q399 400 399 310V89Q399 58 405 40.5Q411 23 419 14Q427 5 436.5 2.5Q446 0 453 0Q483 0 495.5 25Q508 50 508 110H518Q518 50 504.5 20Q491 -10 454 -10ZM201 0Q239 0 273 9Q307 18 332.5 40.5Q358 63 373.5 103Q389 143 389 204V255H303Q233 255 187 245Q141 235 113.5 217Q86 199 74.5 174Q63 149 63 120Q63 85 76 62Q89 39 109 25Q129 11 153.5 5.5Q178 0 201 0ZM127 602 244 744H254L367 602H354L249 734L140 602Z" glyph-name="acircumflex" horiz-adv-x="528" unicode="&#226;" /><glyph d="M118 601 192 695Q209 717 219 731Q229 745 236 745Q244 745 244 738Q244 733 231 721Q218 709 200 687L130 601Z" glyph-name="acute" horiz-adv-x="366" unicode="&#180;" /><glyph d="M123 740H111L195 834Q215 856 225.5 870Q236 884 244 884Q252 884 252 877Q252 872 237.5 860Q223 848 203 826Z" glyph-name="acute.cap" horiz-adv-x="348" /><glyph d="M105 602 159 708Q170 730 175 744Q180 758 188 758Q197 758 197 751Q197 744 189.5 733Q182 722 170 700L117 602Z" glyph-name="acute.pl" horiz-adv-x="302" /><glyph d="M105 740 159 846Q170 868 175 882Q180 896 188 896Q197 896 197 889Q197 882 189.5 871Q182 860 170 838L117 740Z" glyph-name="acute.uc.pl" horiz-adv-x="302" /><glyph d="M454 -10Q441 -10 428.5 -5.5Q416 -1 406 13.5Q396 28 391.5 55Q387 82 390 127Q382 88 364.5 62Q347 36 322.5 20Q298 4 267 -3Q236 -10 201 -10Q176 -10 150 -4Q124 2 102.5 17Q81 32 67 57Q53 82 53 120Q53 152 65.5 178.5Q78 205 107 224.5Q136 244 184 254.5Q232 265 303 265H389V305Q389 392 351.5 436Q314 480 233 480Q207 480 182 473Q157 466 136 452.5Q115 439 101 418.5Q87 398 83 371Q101 370 101 356Q101 351 97.5 346.5Q94 342 86 342Q71 342 71 358Q71 382 82 406Q93 430 114 448.5Q135 467 165 478.5Q195 490 233 490Q314 490 356.5 445Q399 400 399 310V89Q399 58 405 40.5Q411 23 419 14Q427 5 436.5 2.5Q446 0 453 0Q483 0 495.5 25Q508 50 508 110H518Q518 50 504.5 20Q491 -10 454 -10ZM201 0Q239 0 273 9Q307 18 332.5 40.5Q358 63 373.5 103Q389 143 389 204V255H303Q233 255 187 245Q141 235 113.5 217Q86 199 74.5 174Q63 149 63 120Q63 85 76 62Q89 39 109 25Q129 11 153.5 5.5Q178 0 201 0ZM170 640Q170 636 166.5 630Q163 624 153 624Q143 624 139.5 630Q136 636 136 640Q136 645 139.5 651Q143 657 153 657Q163 657 166.5 651Q170 645 170 640ZM320 640Q320 636 316.5 630Q313 624 303 624Q293 624 289.5 630Q286 636 286 640Q286 645 289.5 651Q293 657 303 657Q313 657 316.5 651Q320 645 320 640Z" glyph-name="adieresis" horiz-adv-x="528" unicode="&#228;" /><glyph d="M604 -10Q559 -10 524 3.5Q489 17 463.5 40.5Q438 64 421.5 96.5Q405 129 397 167Q391 118 372.5 84Q354 50 328 29Q302 8 269 -1Q236 -10 201 -10Q176 -10 150 -4Q124 2 102.5 17Q81 32 67 57Q53 82 53 120Q53 152 65.5 178.5Q78 205 107 224.5Q136 244 184 254.5Q232 265 303 265H389V305Q389 392 351.5 436Q314 480 233 480Q207 480 182 473Q157 466 136 452.5Q115 439 101 418.5Q87 398 83 371Q101 370 101 356Q101 351 97.5 346.5Q94 342 86 342Q71 342 71 358Q71 382 82 406Q93 430 114 448.5Q135 467 165 478.5Q195 490 233 490Q311 490 353.5 448Q396 406 399 323Q408 359 425.5 389.5Q443 420 467.5 442.5Q492 465 524.5 477.5Q557 490 596 490Q645 490 683 471Q721 452 747.5 420.5Q774 389 788 347Q802 305 802 260V255H400V251Q400 198 412.5 152Q425 106 450.5 72.5Q476 39 514.5 19.5Q553 0 604 0Q673 0 721 32.5Q769 65 789 139L799 136Q779 62 729.5 26Q680 -10 604 -10ZM596 480Q545 480 509 459.5Q473 439 449.5 407.5Q426 376 414 338Q402 300 400 265H792Q789 305 776.5 343.5Q764 382 740 412.5Q716 443 680 461.5Q644 480 596 480ZM201 0Q239 0 273 11Q307 22 332.5 46Q358 70 373.5 109Q389 148 389 204V255H303Q233 255 187 245Q141 235 113.5 217Q86 199 74.5 174Q63 149 63 120Q63 85 76 62Q89 39 109 25Q129 11 153.5 5.5Q178 0 201 0Z" glyph-name="ae" horiz-adv-x="854" unicode="&#230;" /><glyph d="M454 -10Q441 -10 428.5 -5.5Q416 -1 406 13.5Q396 28 391.5 55Q387 82 390 127Q382 88 364.5 62Q347 36 322.5 20Q298 4 267 -3Q236 -10 201 -10Q176 -10 150 -4Q124 2 102.5 17Q81 32 67 57Q53 82 53 120Q53 152 65.5 178.5Q78 205 107 224.5Q136 244 184 254.5Q232 265 303 265H389V305Q389 392 351.5 436Q314 480 233 480Q207 480 182 473Q157 466 136 452.5Q115 439 101 418.5Q87 398 83 371Q101 370 101 356Q101 351 97.5 346.5Q94 342 86 342Q71 342 71 358Q71 382 82 406Q93 430 114 448.5Q135 467 165 478.5Q195 490 233 490Q314 490 356.5 445Q399 400 399 310V89Q399 58 405 40.5Q411 23 419 14Q427 5 436.5 2.5Q446 0 453 0Q483 0 495.5 25Q508 50 508 110H518Q518 50 504.5 20Q491 -10 454 -10ZM201 0Q239 0 273 9Q307 18 332.5 40.5Q358 63 373.5 103Q389 143 389 204V255H303Q233 255 187 245Q141 235 113.5 217Q86 199 74.5 174Q63 149 63 120Q63 85 76 62Q89 39 109 25Q129 11 153.5 5.5Q178 0 201 0ZM188 687Q170 709 157 721Q144 733 144 738Q144 745 152 745Q159 745 169 731Q179 717 196 695L270 601H258Z" glyph-name="agrave" horiz-adv-x="528" unicode="&#224;" /><glyph d="M562 -10Q526 -10 496 8.5Q466 27 430 65Q391 27 343.5 8.5Q296 -10 242 -10Q191 -10 156 2Q121 14 98.5 34.5Q76 55 66 83.5Q56 112 56 145Q56 180 69 208Q82 236 102.5 260Q123 284 149 303.5Q175 323 202 341Q171 380 151 409Q131 438 119 461Q107 484 102.5 505Q98 526 98 549Q98 582 109.5 609.5Q121 637 141 657.5Q161 678 189.5 689Q218 700 251 700Q280 700 305.5 691.5Q331 683 350.5 665Q370 647 381 619.5Q392 592 392 553Q392 520 378.5 491.5Q365 463 342 437.5Q319 412 287 388Q255 364 217 340Q233 320 250.5 299Q268 278 288 252Q381 134 432 80Q477 126 505.5 193.5Q534 261 546 346H453V356H653V346H556Q543 254 513 186Q483 118 438 73Q461 49 478 35Q495 21 509 13Q523 5 536 2.5Q549 0 562 0Q618 0 638.5 42.5Q659 85 659 155H669Q669 120 664.5 90Q660 60 648 37.5Q636 15 615.5 2.5Q595 -10 562 -10ZM108 549Q108 523 114.5 500Q121 477 133.5 454Q146 431 165.5 405Q185 379 211 347Q246 370 277 393Q308 416 331 440.5Q354 465 368 492.5Q382 520 382 553Q382 579 375 603.5Q368 628 352 647.5Q336 667 311 678.5Q286 690 251 690Q217 690 190.5 678.5Q164 667 145.5 647.5Q127 628 117.5 602.5Q108 577 108 549ZM242 0Q297 0 342.5 18.5Q388 37 424 72Q395 104 359.5 147.5Q324 191 276 250Q256 274 239 294.5Q222 315 208 334Q181 316 155.5 296.5Q130 277 110 254Q90 231 78 204Q66 177 66 145Q66 105 79.5 77.5Q93 50 117 33Q141 16 173 8Q205 0 242 0Z" glyph-name="ampersand" horiz-adv-x="717" unicode="&amp;" /><glyph d="M592 -10Q553 -10 524.5 4.5Q496 19 462 60Q426 27 376 8.5Q326 -10 260 -10Q217 -10 181 -0.5Q145 9 118.5 28.5Q92 48 77 78Q62 108 62 149Q62 183 74 213Q86 243 104.5 270Q123 297 145.5 322.5Q168 348 190 373L228 417L62 680V690H469V680L241 417L327 281Q374 207 407 158Q440 109 465 77Q515 128 536.5 203Q558 278 557 366H457V376H657V366H568Q568 275 545 198Q522 121 471 69Q489 47 504 33.5Q519 20 533 12.5Q547 5 561 2.5Q575 0 592 0Q624 0 645 11.5Q666 23 679 43Q692 63 697.5 91Q703 119 703 153H713Q713 116 707 86Q701 56 687 34.5Q673 13 650 1.5Q627 -10 592 -10ZM457 680H74L236 425ZM259 0Q324 0 372.5 18Q421 36 456 68Q431 100 400 147.5Q369 195 325 264L233 409L199 369Q170 335 146.5 307.5Q123 280 106.5 254.5Q90 229 81 203.5Q72 178 72 149Q72 107 89 78.5Q106 50 133 32.5Q160 15 193 7.5Q226 0 259 0Z" glyph-name="ampersand.alt" horiz-adv-x="752" /><glyph d="M534 -8Q498 -8 472 4.5Q446 17 414 52Q382 24 338.5 8Q295 -8 237 -8Q199 -8 166.5 0Q134 8 110.5 23.5Q87 39 73.5 63Q60 87 60 119Q60 146 70.5 169.5Q81 193 98 215Q115 237 135.5 258.5Q156 280 175 301L207 334L60 542V550H424V540L220 332L298 223Q338 168 366 130Q394 92 416 67Q461 110 480.5 170Q500 230 503 290H414V300H592V290H513Q510 226 489 165Q468 104 423 60Q440 42 453.5 30.5Q467 19 479.5 12.5Q492 6 505.5 4Q519 2 534 2Q590 2 611 35Q632 68 632 122H642Q642 64 619 28Q596 -8 534 -8ZM412 540H73L214 341ZM237 2Q294 2 335.5 17.5Q377 33 408 60Q386 85 359 121.5Q332 158 295 210L214 325L184 295Q158 268 137 245.5Q116 223 101 202.5Q86 182 78 162Q70 142 70 119Q70 86 85 64Q100 42 124 28Q148 14 178 8Q208 2 237 2Z" glyph-name="ampersand.alt.sc" horiz-adv-x="681" /><glyph d="M265 480Q212 480 175.5 459.5Q139 439 116 407.5Q93 376 81.5 338Q70 300 68 265H440Q437 305 427 343.5Q417 382 396.5 412.5Q376 443 344 461.5Q312 480 265 480ZM358 0Q422 0 474.5 18Q527 36 565 69.5Q603 103 625.5 150Q648 197 653 255H68V251Q68 198 85.5 152Q103 106 139 72.5Q175 39 229.5 19.5Q284 0 358 0ZM663 255Q658 196 635.5 147.5Q613 99 574.5 64Q536 29 481.5 9.5Q427 -10 358 -10Q280 -10 223 10.5Q166 31 129.5 65.5Q93 100 75 146Q57 192 57 243Q57 293 70 337.5Q83 382 109 416Q135 450 174 470Q213 490 265 490Q312 490 346.5 471Q381 452 404 421Q427 390 438.5 349.5Q450 309 450 265H653Q654 270 654 275.5Q654 281 654 286Q654 322 647.5 357.5Q641 393 626.5 423Q612 453 590 474Q568 495 538 501Q535 480 518 480Q501 480 501 497Q501 515 521 515Q550 515 575.5 499.5Q601 484 621 454.5Q641 425 652.5 382.5Q664 340 664 286Q664 281 664 275.5Q664 270 663 265H761V255Z" glyph-name="ampersand.old" horiz-adv-x="793" /><glyph d="M507 -8Q475 -8 446 7.5Q417 23 390 51Q355 22 312 7Q269 -8 221 -8Q175 -8 143 1.5Q111 11 91 27.5Q71 44 62.5 66.5Q54 89 54 115Q54 142 65 163.5Q76 185 94 203.5Q112 222 135.5 238.5Q159 255 185 272Q157 303 139 326.5Q121 350 110.5 369.5Q100 389 96 406.5Q92 424 92 442Q92 496 129.5 527Q167 558 227 558Q253 558 276.5 551.5Q300 545 317.5 531.5Q335 518 345.5 496.5Q356 475 356 444Q356 417 344.5 394Q333 371 312 349.5Q291 328 262.5 308.5Q234 289 200 270Q224 244 250 214.5Q276 185 301.5 157Q327 129 350 105Q373 81 390 64Q429 100 455 154.5Q481 209 492 275H409V285H588V275H502Q478 131 397 58Q433 21 458 11.5Q483 2 507 2Q557 2 574.5 34.5Q592 67 592 124H602Q602 96 598 72Q594 48 583.5 30Q573 12 554.5 2Q536 -8 507 -8ZM102 442Q102 400 124.5 364Q147 328 194 277Q225 295 252.5 313.5Q280 332 301 352.5Q322 373 334 395.5Q346 418 346 444Q346 489 318.5 518.5Q291 548 227 548Q166 548 134 517.5Q102 487 102 442ZM221 2Q270 2 310.5 16.5Q351 31 383 57Q365 76 341 101.5Q317 127 291 155Q265 183 239.5 211.5Q214 240 192 265Q167 249 143.5 232.5Q120 216 102.5 198Q85 180 74.5 160Q64 140 64 115Q64 53 107.5 27.5Q151 2 221 2Z" glyph-name="ampersand.sc" horiz-adv-x="650" /><glyph d="M513 -10Q480 -10 451.5 12Q423 34 386 80Q320 -10 214 -10Q169 -10 139 4.5Q109 19 91 41.5Q73 64 65.5 91.5Q58 119 58 145Q58 177 69 204Q80 231 98.5 255.5Q117 280 140.5 301.5Q164 323 189 343Q162 382 144.5 412.5Q127 443 117 468Q107 493 103.5 514Q100 535 100 555Q100 587 110 613.5Q120 640 137.5 659.5Q155 679 179.5 689.5Q204 700 233 700Q258 700 280 692Q302 684 318.5 667.5Q335 651 344.5 625Q354 599 354 563Q354 529 342 499.5Q330 470 309.5 443.5Q289 417 261.5 392Q234 367 202 342Q216 322 232.5 300Q249 278 269 252Q307 201 335.5 163.5Q364 126 387 98Q417 143 437 206Q457 269 468 346H375V356H575V346H478Q467 261 445.5 197.5Q424 134 393 89Q414 63 430 46Q446 29 460 18.5Q474 8 486.5 4Q499 0 513 0Q581 0 581 155H591Q591 77 573.5 33.5Q556 -10 513 -10ZM110 555Q110 509 130.5 462Q151 415 197 350Q227 374 253.5 397.5Q280 421 300 446.5Q320 472 332 500.5Q344 529 344 563Q344 587 338 610Q332 633 318.5 650.5Q305 668 284 679Q263 690 233 690Q204 690 181 679Q158 668 142.5 649Q127 630 118.5 606Q110 582 110 555ZM214 0Q268 0 308.5 23Q349 46 380 88Q356 119 326 159.5Q296 200 257 251Q239 275 223.5 296Q208 317 194 336Q170 316 147 294.5Q124 273 106.5 249Q89 225 78.5 199.5Q68 174 68 145Q68 80 108 40Q148 0 214 0Z" glyph-name="ampersand.tln" horiz-adv-x="640" /><glyph d="M217 480Q175 480 146 459.5Q117 439 98.5 407.5Q80 376 71 338Q62 300 60 265H352Q349 305 341.5 343.5Q334 382 318.5 412.5Q303 443 278 461.5Q253 480 217 480ZM290 0Q339 0 378.5 18Q418 36 447.5 69.5Q477 103 494 150Q511 197 515 255H60V251Q60 198 74 152Q88 106 116.5 72.5Q145 39 188 19.5Q231 0 290 0ZM525 255Q521 196 504 147.5Q487 99 457.5 64Q428 29 386 9.5Q344 -10 290 -10Q228 -10 182.5 10.5Q137 31 107.5 65.5Q78 100 63.5 146Q49 192 49 243Q49 293 59.5 337.5Q70 382 91 416Q112 450 143.5 470Q175 490 217 490Q254 490 281 471Q308 452 326 421Q344 390 353 349.5Q362 309 362 265H516V286Q516 322 509.5 357.5Q503 393 488.5 423Q474 453 452 474Q430 495 400 501Q397 480 380 480Q363 480 363 497Q363 515 383 515Q410 515 435.5 499.5Q461 484 481 454.5Q501 425 513.5 382.5Q526 340 526 286V265H613V255Z" glyph-name="ampersand.ton" horiz-adv-x="640" /><glyph d="M454 -10Q441 -10 428.5 -5.5Q416 -1 406 13.5Q396 28 391.5 55Q387 82 390 127Q382 88 364.5 62Q347 36 322.5 20Q298 4 267 -3Q236 -10 201 -10Q176 -10 150 -4Q124 2 102.5 17Q81 32 67 57Q53 82 53 120Q53 152 65.5 178.5Q78 205 107 224.5Q136 244 184 254.5Q232 265 303 265H389V305Q389 392 351.5 436Q314 480 233 480Q207 480 182 473Q157 466 136 452.5Q115 439 101 418.5Q87 398 83 371Q101 370 101 356Q101 351 97.5 346.5Q94 342 86 342Q71 342 71 358Q71 382 82 406Q93 430 114 448.5Q135 467 165 478.5Q195 490 233 490Q314 490 356.5 445Q399 400 399 310V89Q399 58 405 40.5Q411 23 419 14Q427 5 436.5 2.5Q446 0 453 0Q483 0 495.5 25Q508 50 508 110H518Q518 50 504.5 20Q491 -10 454 -10ZM201 0Q239 0 273 9Q307 18 332.5 40.5Q358 63 373.5 103Q389 143 389 204V255H303Q233 255 187 245Q141 235 113.5 217Q86 199 74.5 174Q63 149 63 120Q63 85 76 62Q89 39 109 25Q129 11 153.5 5.5Q178 0 201 0ZM232 596Q195 596 171.5 620Q148 644 148 680Q148 717 171.5 740.5Q195 764 232 764Q269 764 292.5 740.5Q316 717 316 680Q316 644 292.5 620Q269 596 232 596ZM232 606Q264 606 285 626.5Q306 647 306 680Q306 713 285 733.5Q264 754 232 754Q200 754 179 733.5Q158 713 158 680Q158 647 179 626.5Q200 606 232 606Z" glyph-name="aring" horiz-adv-x="528" unicode="&#229;" /><glyph d="M203 679 66 384H56L198 690H208L349 384H339Z" glyph-name="asciicircum" horiz-adv-x="405" unicode="^" /><glyph d="M320 679 183 384H173L315 690H325L466 384H456Z" glyph-name="asciicircum.tln" horiz-adv-x="640" /><glyph d="M476 359Q476 290 451 259.5Q426 229 380 229Q342 229 317.5 249Q293 269 272.5 293Q252 317 230 337Q208 357 175 357Q133 357 111.5 324.5Q90 292 90 237H80Q80 307 105 337Q130 367 175 367Q211 367 234.5 347Q258 327 279 303Q300 279 322.5 259Q345 239 379 239Q396 239 411.5 243Q427 247 439 259.5Q451 272 458.5 296Q466 320 466 359Z" glyph-name="asciitilde" horiz-adv-x="553" unicode="~" /><glyph d="M519 359Q519 290 494 259.5Q469 229 423 229Q385 229 360.5 249Q336 269 315.5 293Q295 317 273 337Q251 357 218 357Q176 357 154.5 324.5Q133 292 133 237H123Q123 307 148 337Q173 367 218 367Q254 367 277.5 347Q301 327 322 303Q343 279 365.5 259Q388 239 422 239Q439 239 454.5 243Q470 247 482 259.5Q494 272 501.5 296Q509 320 509 359Z" glyph-name="asciitilde.tln" horiz-adv-x="640" /><glyph d="M191 578 181 681Q179 700 196 700Q213 700 211 681L201 578ZM207 569 202 577 283 642Q289 647 296 646.5Q303 646 307 640Q317 626 299 617ZM185 569 93 617Q87 620 83.5 626.5Q80 633 85 640Q89 646 96 646.5Q103 647 109 642L190 577ZM299 520Q306 516 309 510Q312 504 307 497Q303 491 295.5 490.5Q288 490 283 495L202 560L207 568ZM109 496Q103 491 96 491Q89 491 85 497Q80 504 83 510Q86 516 93 520L185 568L190 560ZM211 456Q213 437 196 437Q188 437 184 442.5Q180 448 181 456L191 559H201Z" glyph-name="asterisk" horiz-adv-x="381" unicode="*" /><glyph d="M174 459 165 540Q164 558 179 558Q195 558 193 540L183 459ZM169 452 87 488Q80 491 77.5 497Q75 503 79 508Q87 521 101 510L173 458ZM188 452 184 458 256 510Q271 520 279 508Q282 503 280 497Q278 491 271 488ZM271 414Q278 411 280 405Q282 399 280 394Q276 388 268.5 388Q261 388 256 392L184 444L188 451ZM101 393Q95 388 88.5 388.5Q82 389 78 395Q75 400 77.5 406Q80 412 87 415L169 451L173 444ZM193 362Q195 344 179 344Q172 344 168 349Q164 354 165 362L174 443H183Z" glyph-name="asterisk.sc" horiz-adv-x="358" /><glyph d="M315 578 305 681Q303 700 320 700Q337 700 335 681L325 578ZM331 569 326 577 407 642Q413 647 420 646.5Q427 646 431 640Q441 626 423 617ZM309 569 217 617Q211 620 207.5 626.5Q204 633 209 640Q213 646 220 646.5Q227 647 233 642L314 577ZM423 520Q430 516 433 510Q436 504 431 497Q427 491 419.5 490.5Q412 490 407 495L326 560L331 568ZM233 496Q227 491 220 491Q213 491 209 497Q204 504 207 510Q210 516 217 520L309 568L314 560ZM335 456Q337 437 320 437Q312 437 308 442.5Q304 448 305 456L315 559H325Z" glyph-name="asterisk.tln" horiz-adv-x="640" /><glyph d="M418 -213Q334 -213 267.5 -189Q201 -165 154.5 -116Q108 -67 83 8Q58 83 58 185Q58 281 87.5 363.5Q117 446 171.5 506.5Q226 567 302.5 602Q379 637 473 637Q574 637 638 606Q702 575 739.5 524.5Q777 474 791 409Q805 344 805 275Q805 223 797 172Q789 121 770 80.5Q751 40 721.5 15Q692 -10 648 -10Q598 -10 571 24.5Q544 59 546 128Q537 103 524 78Q511 53 491.5 33.5Q472 14 446 2Q420 -10 385 -10Q349 -10 321 6Q293 22 275.5 51.5Q258 81 251 123Q244 165 249 217Q254 262 269 301.5Q284 341 308 370.5Q332 400 365 416.5Q398 433 439 433Q489 433 525 401.5Q561 370 564 293L581 433H591L559 171Q548 84 571 42Q594 0 648 0Q685 0 712.5 20Q740 40 758.5 76.5Q777 113 786 163.5Q795 214 795 275Q795 342 781 405.5Q767 469 731 518Q695 567 632.5 597Q570 627 473 627Q380 627 305 592.5Q230 558 177.5 498.5Q125 439 96.5 358.5Q68 278 68 185Q68 86 92 13Q116 -60 161.5 -108Q207 -156 272 -179.5Q337 -203 418 -203Q497 -203 562 -187Q627 -171 679 -133L685 -141Q647 -167 581 -190Q515 -213 418 -213ZM385 0Q423 0 452.5 17Q482 34 503 62.5Q524 91 536.5 128Q549 165 553 205Q566 321 536 372Q506 423 439 423Q397 423 365 405.5Q333 388 311 359.5Q289 331 276.5 294Q264 257 259 217Q255 178 259 139Q263 100 278 69Q293 38 319 19Q345 0 385 0Z" glyph-name="at" horiz-adv-x="869" unicode="@" /><glyph d="M418 -83Q334 -83 267.5 -59Q201 -35 154.5 14Q108 63 83 138Q58 213 58 315Q58 411 87.5 493.5Q117 576 171.5 636.5Q226 697 302.5 732Q379 767 473 767Q574 767 638 736Q702 705 739.5 654.5Q777 604 791 539Q805 474 805 405Q805 353 797 302Q789 251 770 210.5Q751 170 721.5 145Q692 120 648 120Q598 120 571 154.5Q544 189 546 258Q537 233 524 208Q511 183 491.5 163.5Q472 144 446 132Q420 120 385 120Q349 120 321 136Q293 152 275.5 181.5Q258 211 251 253Q244 295 249 347Q254 392 269 431.5Q284 471 308 500.5Q332 530 365 546.5Q398 563 439 563Q489 563 525 531.5Q561 500 564 423L581 563H591L559 301Q548 214 571 172Q594 130 648 130Q685 130 712.5 150Q740 170 758.5 206.5Q777 243 786 293.5Q795 344 795 405Q795 472 781 535.5Q767 599 731 648Q695 697 632.5 727Q570 757 473 757Q380 757 305 722.5Q230 688 177.5 628.5Q125 569 96.5 488.5Q68 408 68 315Q68 216 92 143Q116 70 161.5 22Q207 -26 272 -49.5Q337 -73 418 -73Q497 -73 562 -57Q627 -41 679 -3L685 -11Q647 -37 581 -60Q515 -83 418 -83ZM385 130Q423 130 452.5 147Q482 164 503 192.5Q524 221 536.5 258Q549 295 553 335Q566 451 536 502Q506 553 439 553Q397 553 365 535.5Q333 518 311 489.5Q289 461 276.5 424Q264 387 259 347Q255 308 259 269Q263 230 278 199Q293 168 319 149Q345 130 385 130Z" glyph-name="at.cap" horiz-adv-x="852" /><glyph d="M327 -8Q200 -8 128.5 56.5Q57 121 57 257Q57 320 78.5 375Q100 430 140.5 470.5Q181 511 238 534.5Q295 558 367 558Q439 558 487 537.5Q535 517 563.5 483Q592 449 604 405Q616 361 616 315Q616 281 609 247Q602 213 587 186Q572 159 549 142.5Q526 126 493 126Q455 126 434.5 148.5Q414 171 416 216Q409 200 399.5 184Q390 168 375.5 155Q361 142 341.5 134Q322 126 296 126Q239 126 212.5 167Q186 208 194 277Q198 307 209 333.5Q220 360 238 379.5Q256 399 280.5 410Q305 421 336 421Q374 421 401.5 400.5Q429 380 431 329L443 421H452L429 246Q413 136 493 136Q548 136 577 185Q606 234 606 315Q606 360 595 402Q584 444 556.5 476.5Q529 509 483 528.5Q437 548 367 548Q298 548 242.5 525.5Q187 503 148 464Q109 425 88 372Q67 319 67 257Q67 124 136.5 63Q206 2 327 2Q386 2 434.5 13Q483 24 521 49L526 41Q497 22 448 7Q399 -8 327 -8ZM296 136Q325 136 346.5 147Q368 158 383.5 176.5Q399 195 408.5 219Q418 243 421 269Q430 345 408 378Q386 411 336 411Q305 411 281.5 400Q258 389 242 370.5Q226 352 216.5 327.5Q207 303 204 277Q201 251 203.5 226Q206 201 217 181Q228 161 247 148.5Q266 136 296 136Z" glyph-name="at.sc" horiz-adv-x="670" /><glyph d="M303 -213Q182 -213 112.5 -116.5Q43 -20 43 185Q43 281 65.5 363.5Q88 446 129 506.5Q170 567 228 602Q286 637 358 637Q429 637 474 606Q519 575 544.5 524.5Q570 474 580 409Q590 344 590 275Q590 223 583 172Q576 121 561 80.5Q546 40 522 15Q498 -10 463 -10Q422 -10 401 20.5Q380 51 382 120Q376 96 366.5 72.5Q357 49 343.5 31Q330 13 312 1.5Q294 -10 270 -10Q247 -10 228.5 6Q210 22 198.5 51.5Q187 81 183 123Q179 165 184 217Q189 262 200.5 301.5Q212 341 229 370.5Q246 400 270 416.5Q294 433 324 433Q354 433 376 406Q398 379 401 310L416 433H426L394 171Q383 79 402 39.5Q421 0 463 0Q493 0 515 20Q537 40 551.5 76.5Q566 113 573 163.5Q580 214 580 275Q580 342 570.5 405.5Q561 469 536 518Q511 567 468 597Q425 627 358 627Q288 627 231.5 592.5Q175 558 135 498.5Q95 439 74 358.5Q53 278 53 185Q53 -14 120 -108.5Q187 -203 303 -203Q367 -203 418 -188Q469 -173 514 -133L520 -141Q487 -171 434 -192Q381 -213 303 -213ZM270 0Q297 0 317 17Q337 34 351.5 62.5Q366 91 375 128Q384 165 388 205Q401 321 381.5 372Q362 423 324 423Q294 423 271.5 405.5Q249 388 233 359.5Q217 331 208 294Q199 257 194 217Q190 178 192 139Q194 100 203.5 69Q213 38 229.5 19Q246 0 270 0Z" glyph-name="at.tln" horiz-adv-x="640" /><glyph d="M454 -10Q441 -10 428.5 -5.5Q416 -1 406 13.5Q396 28 391.5 55Q387 82 390 127Q382 88 364.5 62Q347 36 322.5 20Q298 4 267 -3Q236 -10 201 -10Q176 -10 150 -4Q124 2 102.5 17Q81 32 67 57Q53 82 53 120Q53 152 65.5 178.5Q78 205 107 224.5Q136 244 184 254.5Q232 265 303 265H389V305Q389 392 351.5 436Q314 480 233 480Q207 480 182 473Q157 466 136 452.5Q115 439 101 418.5Q87 398 83 371Q101 370 101 356Q101 351 97.5 346.5Q94 342 86 342Q71 342 71 358Q71 382 82 406Q93 430 114 448.5Q135 467 165 478.5Q195 490 233 490Q314 490 356.5 445Q399 400 399 310V89Q399 58 405 40.5Q411 23 419 14Q427 5 436.5 2.5Q446 0 453 0Q483 0 495.5 25Q508 50 508 110H518Q518 50 504.5 20Q491 -10 454 -10ZM201 0Q239 0 273 9Q307 18 332.5 40.5Q358 63 373.5 103Q389 143 389 204V255H303Q233 255 187 245Q141 235 113.5 217Q86 199 74.5 174Q63 149 63 120Q63 85 76 62Q89 39 109 25Q129 11 153.5 5.5Q178 0 201 0ZM303 629Q279 629 264 641.5Q249 654 236 669.5Q223 685 208.5 697.5Q194 710 172 710Q145 710 130 692Q115 674 115 633H105Q105 672 121 696Q137 720 172 720Q196 720 212 707.5Q228 695 241 679.5Q254 664 268 651.5Q282 639 303 639Q321 639 332 645.5Q343 652 349.5 663Q356 674 358 687.5Q360 701 360 716H370Q370 665 351 647Q332 629 303 629Z" glyph-name="atilde" horiz-adv-x="528" unicode="&#227;" /><glyph d="M305 0Q351 0 387.5 17.5Q424 35 449.5 67Q475 99 488.5 143Q502 187 502 240Q502 293 488.5 337Q475 381 449.5 413Q424 445 387.5 462.5Q351 480 305 480Q262 480 225.5 464.5Q189 449 163 419Q137 389 122.5 344.5Q108 300 108 243V241Q108 189 122.5 145Q137 101 163 69Q189 37 225.5 18.5Q262 0 305 0ZM108 -10H98V740H3V750Q34 750 52 750.5Q70 751 79.5 752Q89 753 93 755Q97 757 100 760L108 757V324Q115 356 129.5 385.5Q144 415 167.5 438.5Q191 462 225 476Q259 490 305 490Q353 490 391.5 471.5Q430 453 456.5 419.5Q483 386 497.5 340Q512 294 512 240Q512 186 497.5 140Q483 94 456.5 60.5Q430 27 391.5 8.5Q353 -10 305 -10Q259 -10 225 5.5Q191 21 168 46Q145 71 130.5 101.5Q116 132 108 163Z" glyph-name="b" horiz-adv-x="567" unicode="b" /><glyph d="M466 -100 26 760H36L476 -100Z" glyph-name="backslash" horiz-adv-x="500" unicode="\" /><glyph d="M464 -70 24 790H34L474 -70Z" glyph-name="backslash.cap" horiz-adv-x="498" /><glyph d="M423 -60 32 626H44L435 -60Z" glyph-name="backslash.sc" horiz-adv-x="459" /><glyph d="M536 -100 96 760H106L546 -100Z" glyph-name="backslash.tln" horiz-adv-x="640" /><glyph d="M102 -250V840H112V-250Z" glyph-name="bar" horiz-adv-x="214" unicode="|" /><glyph d="M122 -200V890H132V-200Z" glyph-name="bar.cap" horiz-adv-x="254" /><glyph d="M315 -250V840H325V-250Z" glyph-name="bar.tln" horiz-adv-x="640" /><glyph d="M325 -260Q263 -260 226 -242.5Q189 -225 169 -195Q149 -165 143 -126Q137 -87 137 -44Q137 -11 138.5 22.5Q140 56 140 88Q140 123 135.5 154Q131 185 117.5 208Q104 231 79 244.5Q54 258 13 258V268Q54 268 78.5 280.5Q103 293 116.5 314Q130 335 134.5 363.5Q139 392 139 425Q139 457 137 490.5Q135 524 135 557Q135 597 141.5 634Q148 671 168 699Q188 727 225.5 743.5Q263 760 325 760V750Q266 750 230.5 734Q195 718 175.5 691Q156 664 150 628Q144 592 144 553Q144 521 146 487.5Q148 454 148 422Q148 391 144 363Q140 335 128 313.5Q116 292 93.5 278.5Q71 265 34 263Q72 260 94.5 245.5Q117 231 129.5 207.5Q142 184 146 154Q150 124 150 90Q150 58 148 24.5Q146 -9 146 -41Q146 -83 152 -120.5Q158 -158 176.5 -187Q195 -216 230.5 -233Q266 -250 325 -250Z" glyph-name="braceleft" horiz-adv-x="346" unicode="{" /><glyph d="M346 -180Q284 -180 247 -162.5Q210 -145 190 -115Q170 -85 164 -46Q158 -7 158 36Q158 69 159.5 102.5Q161 136 161 168Q161 203 156.5 234Q152 265 138.5 288Q125 311 100 324.5Q75 338 34 338V348Q75 348 99.5 360.5Q124 373 137.5 394Q151 415 155.5 443.5Q160 472 160 505Q160 537 158 570.5Q156 604 156 637Q156 677 162.5 714Q169 751 189 779Q209 807 246.5 823.5Q284 840 346 840V830Q287 830 251.5 814Q216 798 196.5 771Q177 744 171 708Q165 672 165 633Q165 601 167 567.5Q169 534 169 502Q169 471 165 443Q161 415 149 393.5Q137 372 114.5 358.5Q92 345 55 343Q93 340 115.5 325.5Q138 311 150.5 287.5Q163 264 167 234Q171 204 171 170Q171 138 169 104.5Q167 71 167 39Q167 -3 173 -40.5Q179 -78 197.5 -107Q216 -136 251.5 -153Q287 -170 346 -170Z" glyph-name="braceleft.cap" horiz-adv-x="370" /><glyph d="M314 -137Q259 -137 225.5 -123Q192 -109 174.5 -85Q157 -61 151.5 -30Q146 1 146 35Q146 61 147.5 87.5Q149 114 149 140Q149 168 145 192.5Q141 217 129 235.5Q117 254 94.5 264.5Q72 275 35 275V285Q71 285 93.5 295Q116 305 128 322Q140 339 144 361.5Q148 384 148 410Q148 435 146 462Q144 489 144 515Q144 547 150 576Q156 605 174 627.5Q192 650 225.5 663Q259 676 314 676V666Q262 666 230 653.5Q198 641 181 619.5Q164 598 158.5 570Q153 542 153 511Q153 484 155 456.5Q157 429 157 403Q157 379 153.5 357.5Q150 336 139.5 319.5Q129 303 109.5 292.5Q90 282 58 280Q90 278 110 266.5Q130 255 140.5 236.5Q151 218 154.5 194.5Q158 171 158 145Q158 119 156.5 91.5Q155 64 155 38Q155 5 160.5 -25Q166 -55 182.5 -77.5Q199 -100 230.5 -113.5Q262 -127 314 -127Z" glyph-name="braceleft.sc" horiz-adv-x="345" /><glyph d="M472 -260Q410 -260 373 -242.5Q336 -225 316 -195Q296 -165 290 -126Q284 -87 284 -44Q284 -11 285.5 22.5Q287 56 287 88Q287 123 282.5 154Q278 185 264.5 208Q251 231 226 244.5Q201 258 160 258V268Q201 268 225.5 280.5Q250 293 263.5 314Q277 335 281.5 363.5Q286 392 286 425Q286 457 284 490.5Q282 524 282 557Q282 597 288.5 634Q295 671 315 699Q335 727 372.5 743.5Q410 760 472 760V750Q413 750 377.5 734Q342 718 322.5 691Q303 664 297 628Q291 592 291 553Q291 521 293 487.5Q295 454 295 422Q295 391 291 363Q287 335 275 313.5Q263 292 240.5 278.5Q218 265 181 263Q219 260 241.5 245.5Q264 231 276.5 207.5Q289 184 293 154Q297 124 297 90Q297 58 295 24.5Q293 -9 293 -41Q293 -83 299 -120.5Q305 -158 323.5 -187Q342 -216 377.5 -233Q413 -250 472 -250Z" glyph-name="braceleft.tln" horiz-adv-x="640" /><glyph d="M21 -250Q80 -250 115.5 -233Q151 -216 169.5 -187Q188 -158 194 -120.5Q200 -83 200 -41Q200 -9 198 24.5Q196 58 196 90Q196 124 200 154Q204 184 216.5 207.5Q229 231 252 245.5Q275 260 312 263Q275 265 252.5 278.5Q230 292 218 313.5Q206 335 202 363Q198 391 198 422Q198 454 200 487.5Q202 521 202 553Q202 592 196 628Q190 664 170.5 691Q151 718 115.5 734Q80 750 21 750V760Q83 760 120.5 743.5Q158 727 178 699Q198 671 204.5 634Q211 597 211 557Q211 524 209 490.5Q207 457 207 425Q207 392 211.5 363.5Q216 335 229.5 314Q243 293 268 280.5Q293 268 333 268V258Q292 258 267 244.5Q242 231 228.5 208Q215 185 210.5 154Q206 123 206 88Q206 56 207.5 22.5Q209 -11 209 -44Q209 -87 203 -126Q197 -165 177 -195Q157 -225 120 -242.5Q83 -260 21 -260Z" glyph-name="braceright" horiz-adv-x="346" unicode="}" /><glyph d="M24 -170Q83 -170 118.5 -153Q154 -136 172.5 -107Q191 -78 197 -40.5Q203 -3 203 39Q203 71 201 104.5Q199 138 199 170Q199 204 203 234Q207 264 219.5 287.5Q232 311 255 325.5Q278 340 315 343Q278 345 255.5 358.5Q233 372 221 393.5Q209 415 205 443Q201 471 201 502Q201 534 203 567.5Q205 601 205 633Q205 672 199 708Q193 744 173.5 771Q154 798 118.5 814Q83 830 24 830V840Q86 840 123.5 823.5Q161 807 181 779Q201 751 207.5 714Q214 677 214 637Q214 604 212 570.5Q210 537 210 505Q210 472 214.5 443.5Q219 415 232.5 394Q246 373 271 360.5Q296 348 336 348V338Q295 338 270 324.5Q245 311 231.5 288Q218 265 213.5 234Q209 203 209 168Q209 136 210.5 102.5Q212 69 212 36Q212 -7 206 -46Q200 -85 180 -115Q160 -145 123 -162.5Q86 -180 24 -180Z" glyph-name="braceright.cap" horiz-adv-x="370" /><glyph d="M31 -127Q83 -127 114 -114Q145 -101 161.5 -78.5Q178 -56 183.5 -26.5Q189 3 189 35Q189 63 187.5 91.5Q186 120 186 146Q186 172 189.5 195.5Q193 219 203.5 237Q214 255 234 266.5Q254 278 286 280Q254 282 234.5 292.5Q215 303 204 319.5Q193 336 189.5 357.5Q186 379 186 403Q186 429 188.5 457Q191 485 191 512Q191 543 185.5 571Q180 599 163 620Q146 641 114.5 653.5Q83 666 31 666V676Q87 676 120.5 663Q154 650 172 627.5Q190 605 195.5 576.5Q201 548 201 516Q201 489 199 462Q197 435 197 409Q197 383 201 360.5Q205 338 217 321Q229 304 251 294.5Q273 285 309 285V275Q272 275 249.5 264.5Q227 254 215 235.5Q203 217 199 192.5Q195 168 195 140Q195 114 197 87.5Q199 61 199 34Q199 0 193.5 -31Q188 -62 170 -85.5Q152 -109 119 -123Q86 -137 31 -137Z" glyph-name="braceright.sc" horiz-adv-x="344" /><glyph d="M168 -250Q227 -250 262.5 -233Q298 -216 316.5 -187Q335 -158 341 -120.5Q347 -83 347 -41Q347 -9 345 24.5Q343 58 343 90Q343 124 347 154Q351 184 363.5 207.5Q376 231 399 245.5Q422 260 459 263Q422 265 399.5 278.5Q377 292 365 313.5Q353 335 349 363Q345 391 345 422Q345 454 347 487.5Q349 521 349 553Q349 592 343 628Q337 664 317.5 691Q298 718 262.5 734Q227 750 168 750V760Q230 760 267.5 743.5Q305 727 325 699Q345 671 351.5 634Q358 597 358 557Q358 524 356 490.5Q354 457 354 425Q354 392 358.5 363.5Q363 335 376.5 314Q390 293 415 280.5Q440 268 480 268V258Q439 258 414 244.5Q389 231 375.5 208Q362 185 357.5 154Q353 123 353 88Q353 56 354.5 22.5Q356 -11 356 -44Q356 -87 350 -126Q344 -165 324 -195Q304 -225 267 -242.5Q230 -260 168 -260Z" glyph-name="braceright.tln" horiz-adv-x="640" /><glyph d="M102 -250V750H252V740H112V-240H252V-250Z" glyph-name="bracketleft" horiz-adv-x="276" unicode="[" /><glyph d="M122 -170V830H272V820H132V-160H272V-170Z" glyph-name="bracketleft.cap" horiz-adv-x="302" /><glyph d="M120 -129V668H255V658H130V-119H255V-129Z" glyph-name="bracketleft.sc" horiz-adv-x="293" /><glyph d="M284 -250V750H434V740H294V-240H434V-250Z" glyph-name="bracketleft.tln" horiz-adv-x="640" /><glyph d="M24 -240H164V740H24V750H174V-250H24Z" glyph-name="bracketright" horiz-adv-x="276" unicode="]" /><glyph d="M30 -160H170V820H30V830H180V-170H30Z" glyph-name="bracketright.cap" horiz-adv-x="302" /><glyph d="M38 -119H163V658H38V668H173V-129H38Z" glyph-name="bracketright.sc" horiz-adv-x="293" /><glyph d="M206 -240H346V740H206V750H356V-250H206Z" glyph-name="bracketright.tln" horiz-adv-x="640" /><glyph d="M213 619Q258 619 277 647Q296 675 296 720H306Q306 701 302.5 681.5Q299 662 288.5 646Q278 630 260 619.5Q242 609 213 609Q183 609 163 619.5Q143 630 131.5 646Q120 662 115 681.5Q110 701 110 720H120Q120 677 144 648Q168 619 213 619Z" glyph-name="breve" horiz-adv-x="416" unicode="&#728;" /><glyph d="M193 762Q220 762 238.5 770.5Q257 779 269 794Q281 809 288 829Q295 849 298 872H308Q305 847 298 825Q291 803 278 787Q265 771 244.5 761.5Q224 752 193 752Q133 752 104 787Q75 822 68 872H78Q85 825 112 793.5Q139 762 193 762Z" glyph-name="breve.cap" horiz-adv-x="376" /><glyph d="M101 400V840H111V400ZM101 -250V190H111V-250Z" glyph-name="brokenbar" horiz-adv-x="212" unicode="&#166;" /><glyph d="M315 400V840H325V400ZM315 -250V190H325V-250Z" glyph-name="brokenbar.tln" horiz-adv-x="640" /><glyph d="M449 136Q424 56 374 23Q324 -10 262 -10Q216 -10 178 8.5Q140 27 112.5 60Q85 93 70 139Q55 185 55 240Q55 299 70.5 345.5Q86 392 114 424Q142 456 179.5 473Q217 490 262 490Q297 490 328 479.5Q359 469 382.5 450Q406 431 419.5 403.5Q433 376 433 342Q433 324 418 324Q410 324 406.5 328.5Q403 333 403 338Q403 353 423 353Q420 383 406 407Q392 431 370 447Q348 463 320 471.5Q292 480 262 480Q217 480 180.5 462.5Q144 445 118.5 413.5Q93 382 79 337.5Q65 293 65 240Q65 185 80 141Q95 97 121 65.5Q147 34 183.5 17Q220 0 262 0Q288 0 314 6.5Q340 13 363 28.5Q386 44 405.5 71Q425 98 439 140Z" glyph-name="c" horiz-adv-x="492" unicode="c" /><glyph d="M732 -10Q674 -10 639.5 29.5Q605 69 605 142V470H515V480H575Q592 480 598.5 485.5Q605 491 605 510V554Q605 609 598 646.5Q591 684 576.5 707Q562 730 539 740Q516 750 483 750Q420 750 387 708Q354 666 354 594Q354 554 360 525Q366 496 374 476Q394 469 406 460Q418 451 418 441Q418 428 405 428Q395 428 385.5 438.5Q376 449 368 467Q355 473 334.5 476.5Q314 480 282 480Q233 480 192.5 462.5Q152 445 124 413.5Q96 382 80.5 337.5Q65 293 65 240Q65 185 80 141Q95 97 121 65.5Q147 34 183.5 17Q220 0 262 0Q288 0 314 6.5Q340 13 363 28.5Q386 44 405.5 71Q425 98 439 140L449 136Q424 56 374 23Q324 -10 262 -10Q216 -10 178 8.5Q140 27 112.5 60Q85 93 70 139Q55 185 55 240Q55 299 72 345.5Q89 392 119.5 424Q150 456 191.5 473Q233 490 282 490Q305 490 325.5 487.5Q346 485 363 480Q355 503 349.5 533Q344 563 344 594Q344 669 378.5 714.5Q413 760 483 760Q519 760 544 749Q569 738 585 713Q601 688 608 649Q615 610 615 553V480H839V470H615V149Q615 77 647 38.5Q679 0 733 0Q788 0 817 34.5Q846 69 846 156H856Q856 67 826 28.5Q796 -10 732 -10Z" glyph-name="c_t" horiz-adv-x="880" /><glyph d="M732 -10Q674 -10 639.5 29.5Q605 69 605 142V470H515V480H605Q605 529 599 577Q593 625 577.5 663.5Q562 702 534.5 726Q507 750 464 750Q410 750 377 713Q344 676 344 604Q344 563 353.5 530Q363 497 373 477Q394 469 406 460Q418 451 418 441Q418 428 405 428Q395 428 385 439Q375 450 366 468Q352 473 332 476.5Q312 480 282 480Q233 480 192.5 462.5Q152 445 124 413.5Q96 382 80.5 337.5Q65 293 65 240Q65 185 80 141Q95 97 121 65.5Q147 34 183.5 17Q220 0 262 0Q288 0 314 6.5Q340 13 363 28.5Q386 44 405.5 71Q425 98 439 140L449 136Q424 56 374 23Q324 -10 262 -10Q216 -10 178 8.5Q140 27 112.5 60Q85 93 70 139Q55 185 55 240Q55 299 72 345.5Q89 392 119.5 424Q150 456 191.5 473Q233 490 282 490Q304 490 323.5 487.5Q343 485 360 481Q349 507 341.5 539.5Q334 572 334 604Q334 679 368.5 719.5Q403 760 464 760Q506 760 533 738.5Q560 717 576.5 686Q593 655 600.5 621Q608 587 611 562Q619 618 636 661.5Q653 705 686 755L693 750Q676 726 661.5 699Q647 672 636.5 639.5Q626 607 620.5 568Q615 529 615 480H839V470H615V149Q615 77 647 38.5Q679 0 733 0Q788 0 817 34.5Q846 69 846 156H856Q856 67 826 28.5Q796 -10 732 -10Z" glyph-name="c_t.alt" horiz-adv-x="880" /><glyph d="M478 90Q465 59 444 39.5Q423 20 399 9.5Q375 -1 349.5 -4.5Q324 -8 302 -8Q236 -8 189 16.5Q142 41 112.5 80.5Q83 120 69 171Q55 222 55 276Q55 330 69.5 381Q84 432 114 471Q144 510 189 534Q234 558 295 558Q364 558 410 533Q456 508 473 461V557H483V395H473Q473 436 459.5 465Q446 494 422 512.5Q398 531 365.5 539.5Q333 548 295 548Q247 548 205 529.5Q163 511 132 476Q101 441 83 390.5Q65 340 65 276Q65 213 81.5 162.5Q98 112 129 76Q160 40 204 21Q248 2 303 2Q331 2 362 9Q393 16 418.5 33.5Q444 51 461 81Q478 111 478 158H488V-8H478ZM725 10H814V540H626Q609 540 603.5 534Q598 528 598 510V391H588V550H1049V391H1039V510Q1039 528 1034.5 534Q1030 540 1011 540H824V10H913V0H725Z" glyph-name="c_t.alt.sc" horiz-adv-x="1086" /><glyph d="M478 90Q465 59 444 39.5Q423 20 399 9.5Q375 -1 349.5 -4.5Q324 -8 302 -8Q236 -8 189 16.5Q142 41 112.5 80.5Q83 120 69 171Q55 222 55 276Q55 330 69.5 381Q84 432 114 471Q144 510 189 534Q234 558 295 558Q364 558 410 533Q456 508 473 461V557H483V395H473Q473 436 459.5 465Q446 494 422 512.5Q398 531 365.5 539.5Q333 548 295 548Q247 548 205 529.5Q163 511 132 476Q101 441 83 390.5Q65 340 65 276Q65 213 81.5 162.5Q98 112 129 76Q160 40 204 21Q248 2 303 2Q331 2 362 9Q393 16 418.5 33.5Q444 51 461 81Q478 111 478 158H488V-8H478ZM725 10H814V540H626Q609 540 603.5 534Q598 528 598 510V391H588V550H1049V391H1039V510Q1039 528 1034.5 534Q1030 540 1011 540H824V10H913V0H725Z" glyph-name="c_t.sc" horiz-adv-x="1086" /><glyph d="M117 743 226 611 331 743H344L231 601H221L104 743Z" glyph-name="caron" horiz-adv-x="448" unicode="&#711;" /><glyph d="M115 872 216 749 313 872H326L221 740H211L102 872Z" glyph-name="caron.cap" horiz-adv-x="428" /><glyph d="M267 -180Q245 -180 232 -173Q219 -166 214 -160V-146Q223 -157 235 -163.5Q247 -170 267 -170Q324 -170 324 -121Q324 -61 244 -61V-54L259 -10Q214 -10 176.5 9Q139 28 112 61Q85 94 70 140Q55 186 55 240Q55 299 70.5 345.5Q86 392 114 424Q142 456 179.5 473Q217 490 262 490Q297 490 328 479.5Q359 469 382.5 450Q406 431 419.5 403.5Q433 376 433 342Q433 324 418 324Q410 324 406.5 328.5Q403 333 403 338Q403 353 423 353Q420 383 406 407Q392 431 370 447Q348 463 320 471.5Q292 480 262 480Q217 480 180.5 462.5Q144 445 118.5 413.5Q93 382 79 337.5Q65 293 65 240Q65 185 80 141Q95 97 121 65.5Q147 34 183.5 17Q220 0 262 0Q288 0 314 6.5Q340 13 363 28.5Q386 44 405.5 71Q425 98 439 140L449 136Q424 58 376.5 25Q329 -8 270 -10L255 -52Q292 -54 313 -70Q334 -86 334 -121Q334 -148 316.5 -164Q299 -180 267 -180Z" glyph-name="ccedilla" horiz-adv-x="492" unicode="&#231;" /><glyph d="M173 -180Q151 -180 138 -173Q125 -166 120 -160V-146Q129 -157 141 -163.5Q153 -170 173 -170Q230 -170 230 -121Q230 -61 150 -61V-54L169 0H179L161 -52Q198 -54 219 -70Q240 -86 240 -121Q240 -148 222.5 -164Q205 -180 173 -180Z" glyph-name="cedilla" horiz-adv-x="367" unicode="&#184;" /><glyph d="M452 216Q427 136 377 103Q327 70 268 70V-20H258V70Q213 72 176.5 91Q140 110 113.5 143Q87 176 72.5 221Q58 266 58 320Q58 378 73 424Q88 470 115 502Q142 534 178.5 551.5Q215 569 258 570V662H268V570Q303 570 333.5 559.5Q364 549 386.5 529.5Q409 510 422.5 483Q436 456 436 422Q436 404 421 404Q413 404 409.5 408.5Q406 413 406 418Q406 433 426 433Q423 463 409 487Q395 511 373.5 527Q352 543 324.5 551.5Q297 560 268 560V80Q294 80 319.5 87Q345 94 367.5 109.5Q390 125 409.5 152Q429 179 442 220ZM68 320Q68 266 82.5 222.5Q97 179 122.5 148Q148 117 182.5 99.5Q217 82 258 80V560Q215 559 179.5 540.5Q144 522 119.5 490.5Q95 459 81.5 415.5Q68 372 68 320Z" glyph-name="cent" horiz-adv-x="503" unicode="&#162;" /><glyph d="M449 136Q424 56 374 23Q324 -10 265 -10V-100H255V-10Q210 -9 173.5 10.5Q137 30 110.5 63Q84 96 69.5 141Q55 186 55 240Q55 298 70 344Q85 390 112 422Q139 454 175.5 471.5Q212 489 255 490V582H265V490Q300 490 330.5 479.5Q361 469 383.5 449.5Q406 430 419.5 403Q433 376 433 342Q433 324 418 324Q410 324 406.5 328.5Q403 333 403 338Q403 353 423 353Q420 383 406 407Q392 431 370.5 447Q349 463 321.5 471.5Q294 480 265 480V0Q291 0 316.5 7Q342 14 364.5 29.5Q387 45 406.5 72Q426 99 439 140ZM65 240Q65 186 79.5 142.5Q94 99 119.5 68Q145 37 179.5 19.5Q214 2 255 0V480Q212 479 176.5 460.5Q141 442 116.5 410.5Q92 379 78.5 335.5Q65 292 65 240Z" glyph-name="cent.old" horiz-adv-x="491" /><glyph d="M406 190Q383 125 339 99Q295 73 242 73V-8H232V73Q192 75 159.5 90Q127 105 103.5 131.5Q80 158 67 194Q54 230 54 273Q54 320 67.5 356.5Q81 393 105 418.5Q129 444 161.5 458Q194 472 232 473V558H242V473Q307 472 349.5 442Q392 412 392 356Q392 339 378 339Q364 339 364 352Q364 367 382 367Q379 391 366.5 409Q354 427 335 439Q316 451 292 457Q268 463 242 463V83Q265 83 288 88.5Q311 94 331 106.5Q351 119 368 140Q385 161 397 193ZM64 273Q64 230 77 195.5Q90 161 112.5 136.5Q135 112 165.5 98Q196 84 232 83V463Q194 462 163 447.5Q132 433 110 408Q88 383 76 348.5Q64 314 64 273Z" glyph-name="cent.sc" horiz-adv-x="454" /><glyph d="M520 216Q495 136 445 103Q395 70 336 70V-20H326V70Q281 72 244.5 91Q208 110 181.5 143Q155 176 140.5 221Q126 266 126 320Q126 378 141 424Q156 470 183 502Q210 534 246.5 551.5Q283 569 326 570V662H336V570Q371 570 401.5 559.5Q432 549 454.5 529.5Q477 510 490.5 483Q504 456 504 422Q504 404 489 404Q481 404 477.5 408.5Q474 413 474 418Q474 433 494 433Q491 463 477 487Q463 511 441.5 527Q420 543 392.5 551.5Q365 560 336 560V80Q362 80 387.5 87Q413 94 435.5 109.5Q458 125 477.5 152Q497 179 510 220ZM136 320Q136 266 150.5 222.5Q165 179 190.5 148Q216 117 250.5 99.5Q285 82 326 80V560Q283 559 247.5 540.5Q212 522 187.5 490.5Q163 459 149.5 415.5Q136 372 136 320Z" glyph-name="cent.tln" horiz-adv-x="640" /><glyph d="M520 136Q495 56 445 23Q395 -10 336 -10V-100H326V-10Q281 -9 244.5 10.5Q208 30 181.5 63Q155 96 140.5 141Q126 186 126 240Q126 298 141 344Q156 390 183 422Q210 454 246.5 471.5Q283 489 326 490V582H336V490Q371 490 401.5 479.5Q432 469 454.5 449.5Q477 430 490.5 403Q504 376 504 342Q504 324 489 324Q481 324 477.5 328.5Q474 333 474 338Q474 353 494 353Q491 383 477 407Q463 431 441.5 447Q420 463 392.5 471.5Q365 480 336 480V0Q362 0 387.5 7Q413 14 435.5 29.5Q458 45 477.5 72Q497 99 510 140ZM136 240Q136 186 150.5 142.5Q165 99 190.5 68Q216 37 250.5 19.5Q285 2 326 0V480Q283 479 247.5 460.5Q212 442 187.5 410.5Q163 379 149.5 335.5Q136 292 136 240Z" glyph-name="cent.ton" horiz-adv-x="640" /><glyph d="M104 601 221 743H231L344 601H331L226 733L117 601Z" glyph-name="circumflex" horiz-adv-x="448" unicode="&#710;" /><glyph d="M102 740 211 872H221L326 740H313L216 863L115 740Z" glyph-name="circumflex.cap" horiz-adv-x="428" /><glyph d="M108 314Q108 310 104.5 304Q101 298 91 298Q81 298 77.5 304Q74 310 74 314Q74 319 77.5 325Q81 331 91 331Q101 331 104.5 325Q108 319 108 314ZM108 6Q108 2 104.5 -4Q101 -10 91 -10Q81 -10 77.5 -4Q74 2 74 6Q74 11 77.5 17Q81 23 91 23Q101 23 104.5 17Q108 11 108 6Z" glyph-name="colon" horiz-adv-x="182" unicode=":" /><glyph d="M337 314Q337 310 333.5 304Q330 298 320 298Q310 298 306.5 304Q303 310 303 314Q303 319 306.5 325Q310 331 320 331Q330 331 333.5 325Q337 319 337 314ZM337 6Q337 2 333.5 -4Q330 -10 320 -10Q310 -10 306.5 -4Q303 2 303 6Q303 11 306.5 17Q310 23 320 23Q330 23 333.5 17Q337 11 337 6Z" glyph-name="colon.tln" horiz-adv-x="640" /><glyph d="M49 -78Q69 -67 78.5 -47Q88 -27 88 -10Q75 -10 70.5 -4.5Q66 1 66 7Q66 23 83 23Q93 23 96.5 16Q100 9 100 0Q100 -22 90 -47Q80 -72 49 -90Z" glyph-name="comma" horiz-adv-x="165" unicode="," /><glyph d="M290 -78Q310 -67 319.5 -47Q329 -27 329 -10Q316 -10 311.5 -4.5Q307 1 307 7Q307 23 324 23Q334 23 337.5 16Q341 9 341 0Q341 -22 331 -47Q321 -72 290 -90Z" glyph-name="comma.tln" horiz-adv-x="640" /><glyph d="M404 -10Q329 -10 265.5 18.5Q202 47 156 95.5Q110 144 84 210Q58 276 58 351Q58 426 84.5 490Q111 554 157.5 600.5Q204 647 267 673.5Q330 700 404 700Q478 700 541.5 673.5Q605 647 651.5 600.5Q698 554 724.5 490Q751 426 751 351Q751 276 724.5 210Q698 144 651.5 95.5Q605 47 541.5 18.5Q478 -10 404 -10ZM404 0Q475 0 536 26Q597 52 643 99Q689 146 715 210.5Q741 275 741 351Q741 427 715 489.5Q689 552 643 596.5Q597 641 536 665.5Q475 690 404 690Q334 690 272.5 665.5Q211 641 165.5 596.5Q120 552 94 489.5Q68 427 68 351Q68 275 93.5 210.5Q119 146 164 99Q209 52 270.5 26Q332 0 404 0ZM517 209Q510 187 496.5 173Q483 159 466.5 151Q450 143 432.5 140Q415 137 400 137Q357 137 326 155Q295 173 275 202.5Q255 232 246 270Q237 308 237 348Q237 389 247.5 426.5Q258 464 278.5 493.5Q299 523 329.5 540.5Q360 558 399 558Q446 558 476.5 537.5Q507 517 516 488V558H526V439H516Q516 495 482 521.5Q448 548 399 548Q369 548 341.5 535Q314 522 293 496.5Q272 471 259.5 433.5Q247 396 247 348Q247 254 288.5 200.5Q330 147 400 147Q420 147 440.5 151.5Q461 156 478 168.5Q495 181 506 203Q517 225 517 259H527V137H517Z" glyph-name="copyright" horiz-adv-x="809" unicode="&#169;" /><glyph d="M304 -10Q250 -10 204.5 9.5Q159 29 126 63.5Q93 98 74.5 144.5Q56 191 56 245Q56 298 75 343Q94 388 127 420.5Q160 453 205.5 471.5Q251 490 304 490Q357 490 402.5 471.5Q448 453 481 420.5Q514 388 533 343Q552 298 552 245Q552 191 533 144.5Q514 98 481 63.5Q448 29 402.5 9.5Q357 -10 304 -10ZM304 0Q356 0 399.5 19.5Q443 39 474.5 72Q506 105 524 149.5Q542 194 542 245Q542 295 524 338Q506 381 474.5 412.5Q443 444 399.5 462Q356 480 304 480Q252 480 208.5 462Q165 444 133.5 412.5Q102 381 84 338Q66 295 66 245Q66 194 83.5 149.5Q101 105 132.5 72Q164 39 208 19.5Q252 0 304 0ZM375 150Q366 124 343 115.5Q320 107 300 107Q273 107 253 118.5Q233 130 220.5 149Q208 168 202 192.5Q196 217 196 242Q196 268 203 292Q210 316 223 335Q236 354 255.5 365Q275 376 300 376Q329 376 349 364.5Q369 353 375 336V376H385V300H375Q375 336 351 351Q327 366 300 366Q282 366 265.5 358Q249 350 235.5 334.5Q222 319 214 296Q206 273 206 242Q206 182 232.5 149.5Q259 117 300 117Q311 117 324 119.5Q337 122 348 129Q359 136 367 149.5Q375 163 375 185H386V107H375Z" glyph-name="copyright.old" horiz-adv-x="608" /><glyph d="M335 -8Q274 -8 223 13Q172 34 135 72Q98 110 77 163Q56 216 56 280Q56 343 77 394.5Q98 446 135.5 482.5Q173 519 224 538.5Q275 558 335 558Q395 558 446.5 538.5Q498 519 535.5 482.5Q573 446 594 394.5Q615 343 615 280Q615 216 594 163Q573 110 535.5 72Q498 34 446.5 13Q395 -8 335 -8ZM335 2Q392 2 441.5 22Q491 42 527 78Q563 114 584 165.5Q605 217 605 280Q605 342 584 392Q563 442 527 476.5Q491 511 441.5 529.5Q392 548 335 548Q278 548 229 529.5Q180 511 143.5 476.5Q107 442 86.5 392Q66 342 66 280Q66 217 86.5 165.5Q107 114 143 78Q179 42 228 22Q277 2 335 2ZM425 165Q419 148 408 137Q397 126 384 120Q371 114 357 111.5Q343 109 330 109Q295 109 270 123.5Q245 138 229.5 161.5Q214 185 206.5 215.5Q199 246 199 277Q199 309 207.5 339.5Q216 370 232.5 393.5Q249 417 273.5 431Q298 445 329 445Q367 445 391.5 429Q416 413 424 391V445H434V348H424Q424 393 397 414Q370 435 330 435Q306 435 284 424.5Q262 414 245.5 394Q229 374 219 344.5Q209 315 209 277Q209 203 241.5 161Q274 119 331 119Q347 119 363.5 123Q380 127 393.5 136.5Q407 146 416 163.5Q425 181 425 208H435V109H425Z" glyph-name="copyright.sc" horiz-adv-x="671" /><glyph d="M320 -10Q266 -10 220.5 9.5Q175 29 142 63.5Q109 98 90.5 144.5Q72 191 72 245Q72 298 91 343Q110 388 143 420.5Q176 453 221.5 471.5Q267 490 320 490Q373 490 418.5 471.5Q464 453 497 420.5Q530 388 549 343Q568 298 568 245Q568 191 549 144.5Q530 98 497 63.5Q464 29 418.5 9.5Q373 -10 320 -10ZM320 0Q372 0 415.5 19.5Q459 39 490.5 72Q522 105 540 149.5Q558 194 558 245Q558 295 540 338Q522 381 490.5 412.5Q459 444 415.5 462Q372 480 320 480Q268 480 224.5 462Q181 444 149.5 412.5Q118 381 100 338Q82 295 82 245Q82 194 99.5 149.5Q117 105 148.5 72Q180 39 224 19.5Q268 0 320 0ZM391 150Q382 124 359 115.5Q336 107 316 107Q289 107 269 118.5Q249 130 236.5 149Q224 168 218 192.5Q212 217 212 242Q212 268 219 292Q226 316 239 335Q252 354 271.5 365Q291 376 316 376Q345 376 365 364.5Q385 353 391 336V376H401V300H391Q391 336 367 351Q343 366 316 366Q298 366 281.5 358Q265 350 251.5 334.5Q238 319 230 296Q222 273 222 242Q222 182 248.5 149.5Q275 117 316 117Q327 117 340 119.5Q353 122 364 129Q375 136 383 149.5Q391 163 391 185H402V107H391Z" glyph-name="copyright.tln" horiz-adv-x="640" /><glyph d="M320 -10Q266 -10 220.5 9.5Q175 29 142 63.5Q109 98 90.5 144.5Q72 191 72 245Q72 298 91 343Q110 388 143 420.5Q176 453 221.5 471.5Q267 490 320 490Q373 490 418.5 471.5Q464 453 497 420.5Q530 388 549 343Q568 298 568 245Q568 191 549 144.5Q530 98 497 63.5Q464 29 418.5 9.5Q373 -10 320 -10ZM320 0Q372 0 415.5 19.5Q459 39 490.5 72Q522 105 540 149.5Q558 194 558 245Q558 295 540 338Q522 381 490.5 412.5Q459 444 415.5 462Q372 480 320 480Q268 480 224.5 462Q181 444 149.5 412.5Q118 381 100 338Q82 295 82 245Q82 194 99.5 149.5Q117 105 148.5 72Q180 39 224 19.5Q268 0 320 0ZM391 150Q382 124 359 115.5Q336 107 316 107Q289 107 269 118.5Q249 130 236.5 149Q224 168 218 192.5Q212 217 212 242Q212 268 219 292Q226 316 239 335Q252 354 271.5 365Q291 376 316 376Q345 376 365 364.5Q385 353 391 336V376H401V300H391Q391 336 367 351Q343 366 316 366Q298 366 281.5 358Q265 350 251.5 334.5Q238 319 230 296Q222 273 222 242Q222 182 248.5 149.5Q275 117 316 117Q327 117 340 119.5Q353 122 364 129Q375 136 383 149.5Q391 163 391 185H402V107H391Z" glyph-name="copyright.ton" horiz-adv-x="640" /><glyph d="M334 186Q315 168 290.5 157.5Q266 147 237 147Q208 147 183 157.5Q158 168 140 186L80 126L73 133L133 193Q97 232 97 290Q97 349 133 388L73 448L80 455L140 395Q178 433 237 433Q266 433 290.5 422.5Q315 412 334 394L394 455L401 448L341 388Q358 368 368 343.5Q378 319 378 290Q378 261 368.5 237Q359 213 342 193L401 133L394 126ZM237 423Q209 423 185 412.5Q161 402 143.5 384Q126 366 116.5 342Q107 318 107 290Q107 263 116.5 238.5Q126 214 143.5 196Q161 178 185 167.5Q209 157 237 157Q264 157 288 167.5Q312 178 330 196Q348 214 358 238Q368 262 368 290Q368 318 358 342Q348 366 330 384Q312 402 288 412.5Q264 423 237 423Z" glyph-name="currency" horiz-adv-x="474" unicode="&#164;" /><glyph d="M289 196Q256 166 210 166Q163 166 131 196L82 148L76 155L125 204Q96 235 96 281Q96 328 125 359L76 408L82 415L131 367Q163 397 210 397Q233 397 253 389Q273 381 289 367L338 415L344 408L295 359Q325 327 325 281Q325 258 317.5 239Q310 220 296 204L344 155L338 148ZM210 387Q163 387 134.5 356Q106 325 106 281Q106 238 134.5 207Q163 176 210 176Q232 176 251 184.5Q270 193 284.5 207Q299 221 307 240Q315 259 315 281Q315 303 307 322Q299 341 284.5 355.5Q270 370 251 378.5Q232 387 210 387Z" glyph-name="currency.sc" horiz-adv-x="421" /><glyph d="M417 186Q398 168 373.5 157.5Q349 147 320 147Q291 147 266 157.5Q241 168 223 186L163 126L156 133L216 193Q180 232 180 290Q180 349 216 388L156 448L163 455L223 395Q261 433 320 433Q349 433 373.5 422.5Q398 412 417 394L477 455L484 448L424 388Q441 368 451 343.5Q461 319 461 290Q461 261 451.5 237Q442 213 425 193L484 133L477 126ZM320 423Q292 423 268 412.5Q244 402 226.5 384Q209 366 199.5 342Q190 318 190 290Q190 263 199.5 238.5Q209 214 226.5 196Q244 178 268 167.5Q292 157 320 157Q347 157 371 167.5Q395 178 413 196Q431 214 441 238Q451 262 451 290Q451 318 441 342Q431 366 413 384Q395 402 371 412.5Q347 423 320 423Z" glyph-name="currency.tln" horiz-adv-x="640" /><glyph d="M353 690Q353 645 320.5 618Q288 591 230 591Q172 591 139.5 618Q107 645 107 690Q107 713 124 713Q141 713 141 696Q141 689 134.5 682Q128 675 118 681Q123 645 151.5 623Q180 601 230 601Q280 601 308.5 623Q337 645 342 681Q331 677 325 683.5Q319 690 319 696Q319 713 336 713Q353 713 353 690Z" glyph-name="cyrbreve" horiz-adv-x="498" unicode="&#63188;" /><glyph d="M331 841Q331 796 297.5 769Q264 742 213 742Q162 742 128.5 769Q95 796 95 841Q95 864 112 864Q129 864 129 847Q129 840 122.5 833Q116 826 106 832Q111 794 140.5 773Q170 752 213 752Q256 752 285.5 773Q315 794 320 832Q309 828 303 834.5Q297 841 297 847Q297 864 314 864Q331 864 331 841Z" glyph-name="cyrbreve.cap" horiz-adv-x="426" /><glyph d="M458 -7V165Q451 126 433.5 94Q416 62 390.5 39Q365 16 332.5 3Q300 -10 262 -10Q222 -10 184.5 5.5Q147 21 118 52.5Q89 84 72 130.5Q55 177 55 240Q55 299 71.5 345.5Q88 392 116 424Q144 456 181.5 473Q219 490 262 490Q303 490 336 477.5Q369 465 394 443.5Q419 422 435 392.5Q451 363 458 328V740H363V750Q392 750 409.5 750Q427 750 437.5 751Q448 752 452.5 754Q457 756 460 760L468 757V14H563V4Q531 4 513 3Q495 2 485.5 0.5Q476 -1 472 -3.5Q468 -6 465 -10ZM262 480Q220 480 183.5 463.5Q147 447 121 416Q95 385 80 340.5Q65 296 65 240Q65 175 83 129.5Q101 84 129.5 55Q158 26 193 13Q228 0 262 0Q303 0 338.5 17Q374 34 401 64.5Q428 95 443.5 138Q459 181 459 233V241Q459 298 443.5 342.5Q428 387 401.5 417.5Q375 448 339 464Q303 480 262 480Z" glyph-name="d" horiz-adv-x="588" unicode="d" /><glyph d="M197 433Q164 433 138 443.5Q112 454 94 472Q76 490 66.5 514.5Q57 539 57 566Q57 593 67 617.5Q77 642 95 660.5Q113 679 139 690Q165 701 197 701Q229 701 254.5 690.5Q280 680 298 661.5Q316 643 326 618.5Q336 594 336 566Q336 539 326 514.5Q316 490 298 472Q280 454 254.5 443.5Q229 433 197 433ZM197 443Q227 443 251 453Q275 463 292 479.5Q309 496 317.5 518.5Q326 541 326 566Q325 620 289.5 655.5Q254 691 197 691Q138 691 102.5 655.5Q67 620 67 566Q67 541 76.5 518.5Q86 496 103.5 479.5Q121 463 145 453Q169 443 197 443Z" glyph-name="degree" horiz-adv-x="392" unicode="&#176;" /><glyph d="M321 433Q288 433 262 443.5Q236 454 218 472Q200 490 190.5 514.5Q181 539 181 566Q181 593 191 617.5Q201 642 219 660.5Q237 679 263 690Q289 701 321 701Q353 701 378.5 690.5Q404 680 422 661.5Q440 643 450 618.5Q460 594 460 566Q460 539 450 514.5Q440 490 422 472Q404 454 378.5 443.5Q353 433 321 433ZM321 443Q351 443 375 453Q399 463 416 479.5Q433 496 441.5 518.5Q450 541 450 566Q449 620 413.5 655.5Q378 691 321 691Q262 691 226.5 655.5Q191 620 191 566Q191 541 200.5 518.5Q210 496 227.5 479.5Q245 463 269 453Q293 443 321 443Z" glyph-name="degree.tln" horiz-adv-x="640" /><glyph d="M184 640Q184 636 180.5 630Q177 624 167 624Q157 624 153.5 630Q150 636 150 640Q150 645 153.5 651Q157 657 167 657Q177 657 180.5 651Q184 645 184 640ZM334 640Q334 636 330.5 630Q327 624 317 624Q307 624 303.5 630Q300 636 300 640Q300 645 303.5 651Q307 657 317 657Q327 657 330.5 651Q334 645 334 640Z" glyph-name="dieresis" horiz-adv-x="484" unicode="&#168;" /><glyph d="M124 802Q124 798 120.5 792Q117 786 107 786Q97 786 93.5 792Q90 798 90 802Q90 807 93.5 813Q97 819 107 819Q117 819 120.5 813Q124 807 124 802ZM304 802Q304 798 300.5 792Q297 786 287 786Q277 786 273.5 792Q270 798 270 802Q270 807 273.5 813Q277 819 287 819Q297 819 300.5 813Q304 807 304 802Z" glyph-name="dieresis.cap" horiz-adv-x="394" /><glyph d="M282 474Q282 470 278.5 464Q275 458 265 458Q255 458 251.5 464Q248 470 248 474Q248 479 251.5 485Q255 491 265 491Q275 491 278.5 485Q282 479 282 474ZM453 310V300H77V310ZM282 126Q282 122 278.5 116Q275 110 265 110Q255 110 251.5 116Q248 122 248 126Q248 131 251.5 137Q255 143 265 143Q275 143 278.5 137Q282 131 282 126Z" glyph-name="divide" horiz-adv-x="530" unicode="&#247;" /><glyph d="M280 384Q280 380 276.5 374Q273 368 263 368Q253 368 249.5 374Q246 380 246 384Q246 389 249.5 395Q253 401 263 401Q273 401 276.5 395Q280 389 280 384ZM451 220V210H75V220ZM280 36Q280 32 276.5 26Q273 20 263 20Q253 20 249.5 26Q246 32 246 36Q246 41 249.5 47Q253 53 263 53Q273 53 276.5 47Q280 41 280 36Z" glyph-name="divide.old" horiz-adv-x="526" /><glyph d="M261 411Q261 407 257.5 401Q254 395 245 395Q236 395 232.5 401Q229 407 229 411Q229 416 232.5 421.5Q236 427 245 427Q254 427 257.5 421.5Q261 416 261 411ZM414 281V271H77V281ZM261 135Q261 130 257.5 124.5Q254 119 245 119Q236 119 232.5 124.5Q229 130 229 135Q229 140 232.5 145.5Q236 151 245 151Q254 151 257.5 145.5Q261 140 261 135Z" glyph-name="divide.sc" horiz-adv-x="491" /><glyph d="M337 474Q337 470 333.5 464Q330 458 320 458Q310 458 306.5 464Q303 470 303 474Q303 479 306.5 485Q310 491 320 491Q330 491 333.5 485Q337 479 337 474ZM508 310V300H132V310ZM337 126Q337 122 333.5 116Q330 110 320 110Q310 110 306.5 116Q303 122 303 126Q303 131 306.5 137Q310 143 320 143Q330 143 333.5 137Q337 131 337 126Z" glyph-name="divide.tln" horiz-adv-x="640" /><glyph d="M337 384Q337 380 333.5 374Q330 368 320 368Q310 368 306.5 374Q303 380 303 384Q303 389 306.5 395Q310 401 320 401Q330 401 333.5 395Q337 389 337 384ZM508 220V210H132V220ZM337 36Q337 32 333.5 26Q330 20 320 20Q310 20 306.5 26Q303 32 303 36Q303 41 306.5 47Q310 53 320 53Q330 53 333.5 47Q337 41 337 36Z" glyph-name="divide.ton" horiz-adv-x="640" /><glyph d="M275 345Q292 341 306.5 337Q321 333 335 328V683Q319 687 302.5 688.5Q286 690 269 690Q255 690 241.5 688.5Q228 687 215 685V361Q229 356 244 352.5Q259 349 275 345ZM74 531Q74 494 83.5 467.5Q93 441 110.5 421.5Q128 402 152 388.5Q176 375 205 365V683Q142 669 108 628.5Q74 588 74 531ZM280 0Q295 0 308.5 1.5Q322 3 335 5V318Q308 326 270 336Q256 340 242 343Q228 346 215 351V6Q250 0 280 0ZM478 148Q478 177 472 201Q466 225 451 245.5Q436 266 410 283Q384 300 345 314V6Q411 20 444.5 59.5Q478 99 478 148ZM280 -10Q247 -10 215 -4V-110H205V-2Q174 5 146 17.5Q118 30 98 48.5Q78 67 66 90.5Q54 114 54 143Q54 163 72 163Q89 163 89 146Q89 129 67 126Q72 100 85 80Q98 60 117 46Q136 32 159 22.5Q182 13 205 8V354Q174 365 148 379.5Q122 394 103.5 415Q85 436 74.5 464Q64 492 64 531Q64 591 100 635Q136 679 205 694V800H215V695Q228 697 241.5 698.5Q255 700 269 700Q304 700 335 694V800H345V691Q400 678 434.5 646Q469 614 469 564Q469 544 451 544Q434 544 434 561Q434 568 439.5 573.5Q445 579 456 581Q448 623 417.5 646.5Q387 670 345 681V325Q388 310 415.5 292.5Q443 275 459 253.5Q475 232 481.5 206Q488 180 488 148Q488 123 479.5 99Q471 75 453.5 54.5Q436 34 409 19Q382 4 345 -4V-110H335V-6Q322 -8 308.5 -9Q295 -10 280 -10Z" glyph-name="dollar" horiz-adv-x="542" unicode="$" /><glyph d="M226 242Q240 240 253.5 237Q267 234 279 231V475Q252 480 227 480Q214 480 202 479Q190 478 179 476V251Q190 249 201 246.5Q212 244 226 242ZM75 366Q75 351 78 335Q81 319 90.5 304.5Q100 290 119 277Q138 264 169 254V473Q123 462 99 433Q75 404 75 366ZM228 0Q259 0 279 4V220Q266 224 251.5 227.5Q237 231 220 233Q209 235 198.5 237Q188 239 179 241V5Q191 3 203 1.5Q215 0 228 0ZM374 111Q374 186 289 217V6Q335 17 354.5 44.5Q374 72 374 111ZM228 -10Q204 -10 179 -5V-100H169V-3Q119 10 88 44.5Q57 79 57 135Q57 153 72 153Q80 153 83.5 148.5Q87 144 87 139Q87 124 67 124Q70 76 98.5 47.5Q127 19 169 8V244Q134 254 113 268Q92 282 81.5 298.5Q71 315 68 332.5Q65 350 65 366Q65 408 92 439.5Q119 471 169 483V582H179V486Q190 488 202 489Q214 490 227 490Q252 490 279 485V582H289V482Q333 471 359.5 441.5Q386 412 386 367Q386 349 371 349Q363 349 359.5 353.5Q356 358 356 363Q356 378 376 378Q373 416 348.5 439Q324 462 289 472V227Q384 196 384 111Q384 71 363.5 39.5Q343 8 289 -4V-100H279V-6Q259 -10 228 -10Z" glyph-name="dollar.old" horiz-adv-x="446" /><glyph d="M254 276Q267 273 279 270.5Q291 268 302 265V544Q288 546 275 547Q262 548 248 548Q234 548 221.5 547Q209 546 198 544V290Q212 286 225.5 282.5Q239 279 254 276ZM75 422Q75 364 106.5 336Q138 308 188 293V542Q133 530 104 498.5Q75 467 75 422ZM258 2Q270 2 281 2.5Q292 3 302 4V254Q281 261 249 267Q222 273 198 279V7Q214 5 229 3.5Q244 2 258 2ZM434 120Q434 145 428.5 164.5Q423 184 409.5 199.5Q396 215 372 227.5Q348 240 312 251V6Q380 16 407 48Q434 80 434 120ZM258 -8Q242 -8 227 -6.5Q212 -5 198 -3V-88H188V-2Q130 9 93 38.5Q56 68 56 114Q56 133 72 133Q88 133 88 117Q88 102 68 99Q72 80 83.5 65Q95 50 111.5 39Q128 28 147.5 20.5Q167 13 188 9V282Q132 299 98.5 330Q65 361 65 422Q65 470 96.5 505Q128 540 188 552V638H198V554Q209 556 221.5 557Q234 558 248 558Q262 558 275.5 557Q289 556 302 554V638H312V552Q363 541 395 515.5Q427 490 427 449Q427 431 410 431Q394 431 394 447Q394 453 399 458Q404 463 414 465Q407 497 378.5 515.5Q350 534 312 542V262Q351 250 376.5 236.5Q402 223 417 205.5Q432 188 438 167Q444 146 444 120Q444 99 437.5 79Q431 59 415.5 42.5Q400 26 374.5 13.5Q349 1 312 -4V-88H302V-6Q292 -7 281 -7.5Q270 -8 258 -8Z" glyph-name="dollar.sc" horiz-adv-x="499" /><glyph d="M324 345Q341 341 355.5 337Q370 333 384 328V683Q368 687 351.5 688.5Q335 690 318 690Q304 690 290.5 688.5Q277 687 264 685V361Q278 356 293 352.5Q308 349 324 345ZM123 531Q123 494 132.5 467.5Q142 441 159.5 421.5Q177 402 201 388.5Q225 375 254 365V683Q191 669 157 628.5Q123 588 123 531ZM329 0Q344 0 357.5 1.5Q371 3 384 5V318Q357 326 319 336Q305 340 291 343Q277 346 264 351V6Q299 0 329 0ZM527 148Q527 177 521 201Q515 225 500 245.5Q485 266 459 283Q433 300 394 314V6Q460 20 493.5 59.5Q527 99 527 148ZM329 -10Q296 -10 264 -4V-110H254V-2Q223 5 195 17.5Q167 30 147 48.5Q127 67 115 90.5Q103 114 103 143Q103 163 121 163Q138 163 138 146Q138 129 116 126Q121 100 134 80Q147 60 166 46Q185 32 208 22.5Q231 13 254 8V354Q223 365 197 379.5Q171 394 152.5 415Q134 436 123.5 464Q113 492 113 531Q113 591 149 635Q185 679 254 694V800H264V695Q277 697 290.5 698.5Q304 700 318 700Q353 700 384 694V800H394V691Q449 678 483.5 646Q518 614 518 564Q518 544 500 544Q483 544 483 561Q483 568 488.5 573.5Q494 579 505 581Q497 623 466.5 646.5Q436 670 394 681V325Q437 310 464.5 292.5Q492 275 508 253.5Q524 232 530.5 206Q537 180 537 148Q537 123 528.5 99Q520 75 502.5 54.5Q485 34 458 19Q431 4 394 -4V-110H384V-6Q371 -8 357.5 -9Q344 -10 329 -10Z" glyph-name="dollar.tln" horiz-adv-x="640" /><glyph d="M323 242Q337 240 350.5 237Q364 234 376 231V475Q349 480 324 480Q311 480 299 479Q287 478 276 476V251Q287 249 298 246.5Q309 244 323 242ZM172 366Q172 351 175 335Q178 319 187.5 304.5Q197 290 216 277Q235 264 266 254V473Q220 462 196 433Q172 404 172 366ZM325 0Q356 0 376 4V220Q363 224 348.5 227.5Q334 231 317 233Q306 235 295.5 237Q285 239 276 241V5Q288 3 300 1.5Q312 0 325 0ZM471 111Q471 186 386 217V6Q432 17 451.5 44.5Q471 72 471 111ZM325 -10Q301 -10 276 -5V-100H266V-3Q216 10 185 44.5Q154 79 154 135Q154 153 169 153Q177 153 180.5 148.5Q184 144 184 139Q184 124 164 124Q167 76 195.5 47.5Q224 19 266 8V244Q231 254 210 268Q189 282 178.5 298.5Q168 315 165 332.5Q162 350 162 366Q162 408 189 439.5Q216 471 266 483V582H276V486Q287 488 299 489Q311 490 324 490Q349 490 376 485V582H386V482Q430 471 456.5 441.5Q483 412 483 367Q483 349 468 349Q460 349 456.5 353.5Q453 358 453 363Q453 378 473 378Q470 416 445.5 439Q421 462 386 472V227Q481 196 481 111Q481 71 460.5 39.5Q440 8 386 -4V-100H376V-6Q356 -10 325 -10Z" glyph-name="dollar.ton" horiz-adv-x="640" /><glyph d="M134 640Q134 636 130.5 630Q127 624 117 624Q107 624 103.5 630Q100 636 100 640Q100 645 103.5 651Q107 657 117 657Q127 657 130.5 651Q134 645 134 640Z" glyph-name="dotaccent" horiz-adv-x="287" unicode="&#729;" /><glyph d="M124 786Q114 786 110.5 792Q107 798 107 802Q107 807 110.5 813Q114 819 124 819Q134 819 137.5 813Q141 807 141 802Q141 798 137.5 792Q134 786 124 786Z" glyph-name="dotaccent.cap" horiz-adv-x="247" /><glyph d="M140 10H235V0H35V10H130V470H35V480Q67 480 85.5 480.5Q104 481 113.5 482Q123 483 127 485Q131 487 133 490L140 487Z" glyph-name="dotlessi" horiz-adv-x="263" unicode="&#305;" /><glyph d="M270 -10Q215 -10 174.5 10.5Q134 31 107.5 65.5Q81 100 68 146Q55 192 55 243Q55 293 69 337.5Q83 382 109 416Q135 450 174 470Q213 490 262 490Q311 490 349 471Q387 452 413.5 420.5Q440 389 454 347Q468 305 468 260V255H66V251Q66 198 78.5 152Q91 106 116.5 72.5Q142 39 180.5 19.5Q219 0 270 0Q339 0 387 32.5Q435 65 455 139L465 136Q445 62 395.5 26Q346 -10 270 -10ZM262 480Q211 480 175 459.5Q139 439 115.5 407.5Q92 376 80 338Q68 300 66 265H458Q455 305 442.5 343.5Q430 382 406 412.5Q382 443 346 461.5Q310 480 262 480Z" glyph-name="e" horiz-adv-x="520" unicode="e" /><glyph d="M270 -10Q215 -10 174.5 10.5Q134 31 107.5 65.5Q81 100 68 146Q55 192 55 243Q55 293 69 337.5Q83 382 109 416Q135 450 174 470Q213 490 262 490Q311 490 349 471Q387 452 413.5 420.5Q440 389 454 347Q468 305 468 260V255H66V251Q66 198 78.5 152Q91 106 116.5 72.5Q142 39 180.5 19.5Q219 0 270 0Q339 0 387 32.5Q435 65 455 139L465 136Q445 62 395.5 26Q346 -10 270 -10ZM262 480Q211 480 175 459.5Q139 439 115.5 407.5Q92 376 80 338Q68 300 66 265H458Q455 305 442.5 343.5Q430 382 406 412.5Q382 443 346 461.5Q310 480 262 480ZM263 601 337 695Q354 717 364 731Q374 745 381 745Q389 745 389 738Q389 733 376 721Q363 709 345 687L275 601Z" glyph-name="eacute" horiz-adv-x="520" unicode="&#233;" /><glyph d="M270 -10Q215 -10 174.5 10.5Q134 31 107.5 65.5Q81 100 68 146Q55 192 55 243Q55 293 69 337.5Q83 382 109 416Q135 450 174 470Q213 490 262 490Q311 490 349 471Q387 452 413.5 420.5Q440 389 454 347Q468 305 468 260V255H66V251Q66 198 78.5 152Q91 106 116.5 72.5Q142 39 180.5 19.5Q219 0 270 0Q339 0 387 32.5Q435 65 455 139L465 136Q445 62 395.5 26Q346 -10 270 -10ZM262 480Q211 480 175 459.5Q139 439 115.5 407.5Q92 376 80 338Q68 300 66 265H458Q455 305 442.5 343.5Q430 382 406 412.5Q382 443 346 461.5Q310 480 262 480ZM142 602 259 744H269L382 602H369L264 734L155 602Z" glyph-name="ecircumflex" horiz-adv-x="520" unicode="&#234;" /><glyph d="M270 -10Q215 -10 174.5 10.5Q134 31 107.5 65.5Q81 100 68 146Q55 192 55 243Q55 293 69 337.5Q83 382 109 416Q135 450 174 470Q213 490 262 490Q311 490 349 471Q387 452 413.5 420.5Q440 389 454 347Q468 305 468 260V255H66V251Q66 198 78.5 152Q91 106 116.5 72.5Q142 39 180.5 19.5Q219 0 270 0Q339 0 387 32.5Q435 65 455 139L465 136Q445 62 395.5 26Q346 -10 270 -10ZM262 480Q211 480 175 459.5Q139 439 115.5 407.5Q92 376 80 338Q68 300 66 265H458Q455 305 442.5 343.5Q430 382 406 412.5Q382 443 346 461.5Q310 480 262 480ZM207 640Q207 636 203.5 630Q200 624 190 624Q180 624 176.5 630Q173 636 173 640Q173 645 176.5 651Q180 657 190 657Q200 657 203.5 651Q207 645 207 640ZM357 640Q357 636 353.5 630Q350 624 340 624Q330 624 326.5 630Q323 636 323 640Q323 645 326.5 651Q330 657 340 657Q350 657 353.5 651Q357 645 357 640Z" glyph-name="edieresis" horiz-adv-x="520" unicode="&#235;" /><glyph d="M270 -10Q215 -10 174.5 10.5Q134 31 107.5 65.5Q81 100 68 146Q55 192 55 243Q55 293 69 337.5Q83 382 109 416Q135 450 174 470Q213 490 262 490Q311 490 349 471Q387 452 413.5 420.5Q440 389 454 347Q468 305 468 260V255H66V251Q66 198 78.5 152Q91 106 116.5 72.5Q142 39 180.5 19.5Q219 0 270 0Q339 0 387 32.5Q435 65 455 139L465 136Q445 62 395.5 26Q346 -10 270 -10ZM262 480Q211 480 175 459.5Q139 439 115.5 407.5Q92 376 80 338Q68 300 66 265H458Q455 305 442.5 343.5Q430 382 406 412.5Q382 443 346 461.5Q310 480 262 480ZM189 687Q171 709 158 721Q145 733 145 738Q145 745 153 745Q160 745 170 731Q180 717 197 695L271 601H259Z" glyph-name="egrave" horiz-adv-x="520" unicode="&#232;" /><glyph d="M274 -10Q215 -10 174 7Q133 24 107.5 51Q82 78 70.5 112.5Q59 147 59 181Q59 215 70.5 246Q82 277 104 302Q126 327 157.5 344Q189 361 229 367Q193 376 166.5 393Q140 410 122.5 431.5Q105 453 97 478Q89 503 89 528Q89 562 101 593Q113 624 136.5 648Q160 672 194.5 686Q229 700 273 700Q317 700 351.5 686Q386 672 410 648Q434 624 446.5 593Q459 562 459 528Q459 503 450.5 478Q442 453 424 431Q406 409 378.5 392.5Q351 376 314 367Q355 361 387.5 343.5Q420 326 442.5 300.5Q465 275 477 244Q489 213 489 181Q489 147 476 112.5Q463 78 437 51Q411 24 370.5 7Q330 -10 274 -10ZM274 372Q312 372 344.5 385Q377 398 400 420Q423 442 436 470Q449 498 449 528Q449 561 437 590.5Q425 620 402 642Q379 664 346.5 677Q314 690 273 690Q231 690 199 677Q167 664 144.5 642Q122 620 110.5 590.5Q99 561 99 528Q99 498 111.5 469.5Q124 441 147 419.5Q170 398 202.5 385Q235 372 274 372ZM274 0Q325 0 364 16Q403 32 428.5 57.5Q454 83 466.5 115.5Q479 148 479 181Q479 220 462 253Q445 286 417 310Q389 334 352 347.5Q315 361 274 361Q229 361 191.5 347Q154 333 127 309Q100 285 84.5 252Q69 219 69 181Q69 147 80.5 114.5Q92 82 116.5 56.5Q141 31 180 15.5Q219 0 274 0Z" glyph-name="eight" horiz-adv-x="547" unicode="8" /><glyph d="M189 -157Q149 -157 120.5 -146Q92 -135 74.5 -117Q57 -99 49 -76.5Q41 -54 41 -31Q41 12 71.5 46Q102 80 157 88Q107 101 84 131.5Q61 162 61 194Q61 216 69.5 236.5Q78 257 94 272.5Q110 288 134 297.5Q158 307 188 307Q218 307 242 297.5Q266 288 282.5 272.5Q299 257 308 236.5Q317 216 317 194Q317 162 293 131Q269 100 218 88Q275 80 306 45.5Q337 11 337 -31Q337 -54 328 -76.5Q319 -99 301 -117Q283 -135 255 -146Q227 -157 189 -157ZM189 93Q215 93 236.5 101.5Q258 110 273.5 124Q289 138 298 156.5Q307 175 307 194Q307 236 275 266.5Q243 297 188 297Q132 297 101.5 266.5Q71 236 71 194Q71 174 79.5 156Q88 138 103.5 124Q119 110 141 101.5Q163 93 189 93ZM189 -147Q224 -147 250 -137Q276 -127 293 -111Q310 -95 318.5 -74Q327 -53 327 -31Q327 -6 315.5 15.5Q304 37 285.5 52Q267 67 242 75Q217 83 189 83Q129 83 90 51Q51 19 51 -31Q51 -54 59 -74.5Q67 -95 83.5 -111.5Q100 -128 126 -137.5Q152 -147 189 -147Z" glyph-name="eight.inferior" horiz-adv-x="377" /><glyph d="M271 -10Q212 -10 171 7Q130 24 104.5 51Q79 78 67.5 112.5Q56 147 56 181Q56 215 67.5 246Q79 277 101 302Q123 327 154.5 344Q186 361 226 367Q190 376 163.5 393Q137 410 119.5 431.5Q102 453 94 478Q86 503 86 528Q86 562 98 593Q110 624 133.5 648Q157 672 191.5 686Q226 700 270 700Q314 700 348.5 686Q383 672 407 648Q431 624 443.5 593Q456 562 456 528Q456 503 447.5 478Q439 453 421 431Q403 409 375.5 392.5Q348 376 311 367Q352 361 384.5 343.5Q417 326 439.5 300.5Q462 275 474 244Q486 213 486 181Q486 147 473 112.5Q460 78 434 51Q408 24 367.5 7Q327 -10 271 -10ZM271 372Q309 372 341.5 385Q374 398 397 420Q420 442 433 470Q446 498 446 528Q446 561 434 590.5Q422 620 399 642Q376 664 343.5 677Q311 690 270 690Q228 690 196 677Q164 664 141.5 642Q119 620 107.5 590.5Q96 561 96 528Q96 498 108.5 469.5Q121 441 144 419.5Q167 398 199.5 385Q232 372 271 372ZM271 0Q322 0 361 16Q400 32 425.5 57.5Q451 83 463.5 115.5Q476 148 476 181Q476 220 459 253Q442 286 414 310Q386 334 349 347.5Q312 361 271 361Q226 361 188.5 347Q151 333 124 309Q97 285 81.5 252Q66 219 66 181Q66 147 77.5 114.5Q89 82 113.5 56.5Q138 31 177 15.5Q216 0 271 0Z" glyph-name="eight.old" horiz-adv-x="542" /><glyph d="M248 -8Q195 -8 158.5 5.5Q122 19 99 41Q76 63 66 90Q56 117 56 145Q56 172 66.5 196.5Q77 221 96.5 241.5Q116 262 144 275.5Q172 289 208 293Q175 299 151.5 312Q128 325 113 342.5Q98 360 90.5 380.5Q83 401 83 421Q83 448 94 473Q105 498 126 516.5Q147 535 177.5 546.5Q208 558 248 558Q287 558 318 546.5Q349 535 370.5 516.5Q392 498 403 473Q414 448 414 421Q414 401 406 380.5Q398 360 382.5 342.5Q367 325 342.5 312Q318 299 285 293Q321 289 350 275Q379 261 399.5 240.5Q420 220 430.5 195.5Q441 171 441 145Q441 117 429.5 90Q418 63 394.5 41Q371 19 334.5 5.5Q298 -8 248 -8ZM248 298Q284 298 313 308Q342 318 362 335.5Q382 353 393 375Q404 397 404 421Q404 447 394 470Q384 493 364 510.5Q344 528 315 538Q286 548 248 548Q209 548 180 538Q151 528 131.5 510.5Q112 493 102.5 470Q93 447 93 421Q93 397 103.5 374.5Q114 352 134 335Q154 318 183 308Q212 298 248 298ZM248 2Q296 2 330.5 14Q365 26 387.5 46.5Q410 67 420.5 92.5Q431 118 431 145Q431 176 416.5 202.5Q402 229 377.5 248Q353 267 320 277.5Q287 288 248 288Q207 288 173.5 277Q140 266 116 246.5Q92 227 79 201Q66 175 66 145Q66 118 75.5 92.5Q85 67 106.5 46.5Q128 26 163 14Q198 2 248 2Z" glyph-name="eight.sc" horiz-adv-x="496" /><glyph d="M189 433Q149 433 120.5 444Q92 455 74.5 473Q57 491 49 513.5Q41 536 41 559Q41 602 71.5 636Q102 670 157 678Q107 691 84 721.5Q61 752 61 784Q61 806 69.5 826.5Q78 847 94 862.5Q110 878 134 887.5Q158 897 188 897Q218 897 242 887.5Q266 878 282.5 862.5Q299 847 308 826.5Q317 806 317 784Q317 752 293 721Q269 690 218 678Q275 670 306 635.5Q337 601 337 559Q337 536 328 513.5Q319 491 301 473Q283 455 255 444Q227 433 189 433ZM189 683Q215 683 236.5 691.5Q258 700 273.5 714Q289 728 298 746.5Q307 765 307 784Q307 826 275 856.5Q243 887 188 887Q132 887 101.5 856.5Q71 826 71 784Q71 764 79.5 746Q88 728 103.5 714Q119 700 141 691.5Q163 683 189 683ZM189 443Q224 443 250 453Q276 463 293 479Q310 495 318.5 516Q327 537 327 559Q327 585 315.5 606Q304 627 285.5 642Q267 657 242 665Q217 673 189 673Q129 673 90 641Q51 609 51 559Q51 537 59 516Q67 495 83.5 478.5Q100 462 126 452.5Q152 443 189 443Z" glyph-name="eight.superior" horiz-adv-x="377" /><glyph d="M320 -10Q261 -10 220 7Q179 24 153.5 51Q128 78 116.5 112.5Q105 147 105 181Q105 215 116.5 246Q128 277 150 302Q172 327 203.5 344Q235 361 275 367Q239 376 212.5 393Q186 410 168.5 431.5Q151 453 143 478Q135 503 135 528Q135 562 147 593Q159 624 182.5 648Q206 672 240.5 686Q275 700 319 700Q363 700 397.5 686Q432 672 456 648Q480 624 492.5 593Q505 562 505 528Q505 503 496.5 478Q488 453 470 431Q452 409 424.5 392.5Q397 376 360 367Q401 361 433.5 343.5Q466 326 488.5 300.5Q511 275 523 244Q535 213 535 181Q535 147 522 112.5Q509 78 483 51Q457 24 416.5 7Q376 -10 320 -10ZM320 372Q358 372 390.5 385Q423 398 446 420Q469 442 482 470Q495 498 495 528Q495 561 483 590.5Q471 620 448 642Q425 664 392.5 677Q360 690 319 690Q277 690 245 677Q213 664 190.5 642Q168 620 156.5 590.5Q145 561 145 528Q145 498 157.5 469.5Q170 441 193 419.5Q216 398 248.5 385Q281 372 320 372ZM320 0Q371 0 410 16Q449 32 474.5 57.5Q500 83 512.5 115.5Q525 148 525 181Q525 220 508 253Q491 286 463 310Q435 334 398 347.5Q361 361 320 361Q275 361 237.5 347Q200 333 173 309Q146 285 130.5 252Q115 219 115 181Q115 147 126.5 114.5Q138 82 162.5 56.5Q187 31 226 15.5Q265 0 320 0Z" glyph-name="eight.tln" horiz-adv-x="640" /><glyph d="M320 -10Q261 -10 220 7Q179 24 153.5 51Q128 78 116.5 112.5Q105 147 105 181Q105 215 116.5 246Q128 277 150 302Q172 327 203.5 344Q235 361 275 367Q239 376 212.5 393Q186 410 168.5 431.5Q151 453 143 478Q135 503 135 528Q135 562 147 593Q159 624 182.5 648Q206 672 240.5 686Q275 700 319 700Q363 700 397.5 686Q432 672 456 648Q480 624 492.5 593Q505 562 505 528Q505 503 496.5 478Q488 453 470 431Q452 409 424.5 392.5Q397 376 360 367Q401 361 433.5 343.5Q466 326 488.5 300.5Q511 275 523 244Q535 213 535 181Q535 147 522 112.5Q509 78 483 51Q457 24 416.5 7Q376 -10 320 -10ZM320 372Q358 372 390.5 385Q423 398 446 420Q469 442 482 470Q495 498 495 528Q495 561 483 590.5Q471 620 448 642Q425 664 392.5 677Q360 690 319 690Q277 690 245 677Q213 664 190.5 642Q168 620 156.5 590.5Q145 561 145 528Q145 498 157.5 469.5Q170 441 193 419.5Q216 398 248.5 385Q281 372 320 372ZM320 0Q371 0 410 16Q449 32 474.5 57.5Q500 83 512.5 115.5Q525 148 525 181Q525 220 508 253Q491 286 463 310Q435 334 398 347.5Q361 361 320 361Q275 361 237.5 347Q200 333 173 309Q146 285 130.5 252Q115 219 115 181Q115 147 126.5 114.5Q138 82 162.5 56.5Q187 31 226 15.5Q265 0 320 0Z" glyph-name="eight.ton" horiz-adv-x="640" /><glyph d="M77 414H473V404H77ZM77 254H473V244H77Z" glyph-name="equal" horiz-adv-x="550" unicode="=" /><glyph d="M74 334H470V324H74ZM74 174H470V164H74Z" glyph-name="equal.old" horiz-adv-x="544" /><glyph d="M76 353H430V343H76ZM76 225H430V215H76Z" glyph-name="equal.sc" horiz-adv-x="506" /><glyph d="M122 414H518V404H122ZM122 254H518V244H122Z" glyph-name="equal.tln" horiz-adv-x="640" /><glyph d="M122 334H518V324H122ZM122 174H518V164H122Z" glyph-name="equal.ton" horiz-adv-x="640" /><glyph d="M263 -10Q210 -10 170.5 11Q131 32 105 67Q79 102 66.5 147Q54 192 54 241Q54 286 67 330.5Q80 375 107 410.5Q134 446 174.5 468Q215 490 270 490Q328 490 375 468.5Q422 447 450 408Q435 484 398 553.5Q361 623 301 674L188 578H174L294 679Q264 704 227.5 722Q191 740 149 750V760Q194 750 232.5 731Q271 712 303 686L384 755H398L310 681Q350 647 380 603.5Q410 560 430 511Q450 462 460 409Q470 356 470 303Q470 233 458 175Q446 117 420.5 76Q395 35 356 12.5Q317 -10 263 -10ZM263 0Q316 0 353.5 22.5Q391 45 414.5 85.5Q438 126 449 181.5Q460 237 460 303Q460 324 458.5 345Q457 366 453 386Q396 480 270 480Q217 480 178 458Q139 436 113.5 401.5Q88 367 76 324.5Q64 282 64 241Q64 196 75.5 152.5Q87 109 111.5 75.5Q136 42 173.5 21Q211 0 263 0Z" glyph-name="eth" horiz-adv-x="544" unicode="&#240;" /><glyph d="M110 194Q110 304 109 380.5Q108 457 106 508.5Q104 560 102.5 590.5Q101 621 99 638.5Q97 656 96 664.5Q95 673 95 680Q95 691 102 696Q109 701 115 701Q121 701 128 696Q135 691 135 680Q135 673 134 664.5Q133 656 131 638.5Q129 621 127.5 590Q126 559 124 508Q122 457 121 380Q120 303 120 194ZM132 6Q132 2 128.5 -4Q125 -10 115 -10Q105 -10 101.5 -4Q98 2 98 6Q98 11 101.5 17Q105 23 115 23Q125 23 128.5 17Q132 11 132 6Z" glyph-name="exclam" horiz-adv-x="230" unicode="!" /><glyph d="M112 155Q112 281 109.5 353Q107 425 104.5 463Q102 501 99.5 514.5Q97 528 97 538Q97 548 102.5 553Q108 558 116 558Q124 558 129.5 553Q135 548 135 538Q135 528 133 514.5Q131 501 128 463Q125 425 123 353Q121 281 121 155ZM131 7Q131 2 127.5 -3Q124 -8 116 -8Q108 -8 104.5 -3Q101 2 101 7Q101 12 104.5 17Q108 22 116 22Q124 22 127.5 17Q131 12 131 7Z" glyph-name="exclam.sc" horiz-adv-x="232" /><glyph d="M315 194Q315 304 314 380.5Q313 457 311 508.5Q309 560 307.5 590.5Q306 621 304 638.5Q302 656 301 664.5Q300 673 300 680Q300 691 307 696Q314 701 320 701Q326 701 333 696Q340 691 340 680Q340 673 339 664.5Q338 656 336 638.5Q334 621 332.5 590Q331 559 329 508Q327 457 326 380Q325 303 325 194ZM337 6Q337 2 333.5 -4Q330 -10 320 -10Q310 -10 306.5 -4Q303 2 303 6Q303 11 306.5 17Q310 23 320 23Q330 23 333.5 17Q337 11 337 6Z" glyph-name="exclam.tln" horiz-adv-x="640" /><glyph d="M99 286Q99 177 100 100.5Q101 24 103 -28Q105 -80 106.5 -110Q108 -140 110 -158Q112 -176 113 -184Q114 -192 114 -200Q114 -211 107 -216Q100 -221 94 -221Q88 -221 81 -216Q74 -211 74 -200Q74 -193 75 -184.5Q76 -176 78 -158.5Q80 -141 81.5 -110Q83 -79 85 -28Q87 23 88 100Q89 177 89 286ZM77 474Q77 478 80.5 484Q84 490 94 490Q104 490 107.5 484Q111 478 111 474Q111 469 107.5 463Q104 457 94 457Q84 457 80.5 463Q77 469 77 474Z" glyph-name="exclamdown" horiz-adv-x="188" unicode="&#161;" /><glyph d="M138 496Q138 387 139 310.5Q140 234 142 182Q144 130 145.5 100Q147 70 149 52Q151 34 152 26Q153 18 153 10Q153 -1 146 -6Q139 -11 133 -11Q127 -11 120 -6Q113 -1 113 10Q113 18 114 26.5Q115 35 117 52Q119 69 120.5 100Q122 131 124 182.5Q126 234 127 310.5Q128 387 128 496ZM116 684Q116 688 119.5 694Q123 700 133 700Q143 700 146.5 694Q150 688 150 684Q150 679 146.5 673Q143 667 133 667Q123 667 119.5 673Q116 679 116 684Z" glyph-name="exclamdown.cap" horiz-adv-x="266" /><glyph d="M119 395Q119 269 121 197Q123 125 126 87Q129 49 131 35.5Q133 22 133 12Q133 2 127.5 -3Q122 -8 114 -8Q106 -8 100.5 -3Q95 2 95 12Q95 22 97.5 35.5Q100 49 102.5 87Q105 125 107.5 197Q110 269 110 395ZM129 543Q129 538 125.5 533Q122 528 114 528Q106 528 102.5 533Q99 538 99 543Q99 548 102.5 553Q106 558 114 558Q122 558 125.5 553Q129 548 129 543Z" glyph-name="exclamdown.sc" horiz-adv-x="228" /><glyph d="M325 286Q325 177 326 100.5Q327 24 329 -28Q331 -80 332.5 -110Q334 -140 336 -158Q338 -176 339 -184Q340 -192 340 -200Q340 -211 333 -216Q326 -221 320 -221Q314 -221 307 -216Q300 -211 300 -200Q300 -193 301 -184.5Q302 -176 304 -158.5Q306 -141 307.5 -110Q309 -79 311 -28Q313 23 314 100Q315 177 315 286ZM303 474Q303 478 306.5 484Q310 490 320 490Q330 490 333.5 484Q337 478 337 474Q337 469 333.5 463Q330 457 320 457Q310 457 306.5 463Q303 469 303 474Z" glyph-name="exclamdown.tln" horiz-adv-x="640" /><glyph d="M256 0H32V10H127V470H32V480H127V552Q127 614 139 654Q151 694 172 717.5Q193 741 221 750.5Q249 760 281 760Q340 760 370.5 730Q401 700 401 658Q401 641 386 641Q371 641 371 655Q371 663 378 667Q385 671 390 671Q382 714 351 732Q320 750 281 750Q250 750 223.5 741Q197 732 178 709.5Q159 687 148 649Q137 611 137 552V480H284V470H137V10H256Z" glyph-name="f" horiz-adv-x="307" unicode="f" /><glyph d="M237 0H32V10H127V470H32V480H186Q123 491 85 528Q47 565 47 634Q47 670 60 694Q73 718 92 733Q111 748 133.5 754Q156 760 174 760Q233 760 265.5 730Q298 700 298 658Q298 641 283 641Q268 641 268 655Q268 663 275 667Q282 671 287 671Q279 714 246 732Q213 750 174 750Q123 750 90 718.5Q57 687 57 634Q57 594 72.5 564.5Q88 535 116 516.5Q144 498 182.5 489Q221 480 267 480V470H137V10H237Z" glyph-name="f.alt" horiz-adv-x="288" /><glyph d="M594 0Q640 0 676.5 17.5Q713 35 738.5 67Q764 99 777.5 143Q791 187 791 240Q791 293 777.5 337Q764 381 738.5 413Q713 445 676.5 462.5Q640 480 594 480Q551 480 514.5 464.5Q478 449 452 419Q426 389 411.5 344.5Q397 300 397 243V241Q397 189 411.5 145Q426 101 452 69Q478 37 514.5 18.5Q551 0 594 0ZM397 -10H387V745Q361 749 338 749.5Q315 750 297 750Q221 750 179 706Q137 662 137 556V480H257V470H137V10H232V0H32V10H127V470H32V480H127V551Q127 611 139.5 651Q152 691 174.5 715Q197 739 228.5 749.5Q260 760 297 760Q322 760 342 758.5Q362 757 373 757Q385 757 389 760L397 757V324Q404 356 418.5 385.5Q433 415 456.5 438.5Q480 462 514 476Q548 490 594 490Q642 490 680.5 471.5Q719 453 745.5 419.5Q772 386 786.5 340Q801 294 801 240Q801 186 786.5 140Q772 94 745.5 60.5Q719 27 680.5 8.5Q642 -10 594 -10Q548 -10 514 5.5Q480 21 457 46Q434 71 419.5 101.5Q405 132 397 163Z" glyph-name="f_b" horiz-adv-x="856" /><glyph d="M594 0Q640 0 676.5 17.5Q713 35 738.5 67Q764 99 777.5 143Q791 187 791 240Q791 293 777.5 337Q764 381 738.5 413Q713 445 676.5 462.5Q640 480 594 480Q551 480 514.5 464.5Q478 449 452 419Q426 389 411.5 344.5Q397 300 397 243V241Q397 189 411.5 145Q426 101 452 69Q478 37 514.5 18.5Q551 0 594 0ZM397 -10H387V742Q382 743 367.5 744Q353 745 332 746.5Q311 748 286.5 749Q262 750 237 750Q201 750 168.5 743.5Q136 737 111.5 722.5Q87 708 72 684.5Q57 661 57 628Q57 555 119 517.5Q181 480 290 480V470H137V10H217V0H32V10H127V470H32V480H200Q127 493 87 530.5Q47 568 47 628Q47 663 62.5 688Q78 713 104 729Q130 745 164.5 752.5Q199 760 237 760Q248 760 266 759.5Q284 759 302.5 758Q321 757 336 756.5Q351 756 355 756Q367 756 376 755.5Q385 755 390 760L397 757V324Q404 356 418.5 385.5Q433 415 456.5 438.5Q480 462 514 476Q548 490 594 490Q642 490 680.5 471.5Q719 453 745.5 419.5Q772 386 786.5 340Q801 294 801 240Q801 186 786.5 140Q772 94 745.5 60.5Q719 27 680.5 8.5Q642 -10 594 -10Q548 -10 514 5.5Q480 21 457 46Q434 71 419.5 101.5Q405 132 397 163Z" glyph-name="f_b.alt" horiz-adv-x="856" /><glyph d="M50 0V10H139V540H50V550H453V413H443V510Q443 527 437 533.5Q431 540 415 540H149V286H362V362H371V198H362V276H149V10H247V0ZM550 10H639V540H550V550H747Q860 550 912.5 514Q965 478 965 411Q965 381 954 358.5Q943 336 924.5 320.5Q906 305 883 295.5Q860 286 836 283Q865 279 893.5 270Q922 261 944.5 245.5Q967 230 981.5 206Q996 182 996 147Q996 74 942.5 37Q889 0 767 0H550ZM649 540V286H780Q865 286 910 321Q955 356 955 411Q955 440 944 463.5Q933 487 908.5 504Q884 521 844 530.5Q804 540 746 540ZM649 276V10H766Q838 10 881.5 22.5Q925 35 948.5 54.5Q972 74 979 98.5Q986 123 986 147Q986 180 970.5 204.5Q955 229 927.5 244.5Q900 260 862.5 268Q825 276 781 276Z" glyph-name="f_b.alt.sc" horiz-adv-x="1047" /><glyph d="M50 0V10H139V540H50V550H453V413H443V510Q443 527 437 533.5Q431 540 415 540H149V286H366V276H149V10H247V0ZM540 10H629V540H540V550H737Q850 550 902.5 514Q955 478 955 411Q955 381 944 358.5Q933 336 914.5 320.5Q896 305 873 295.5Q850 286 826 283Q855 279 883.5 270Q912 261 934.5 245.5Q957 230 971.5 206Q986 182 986 147Q986 74 932.5 37Q879 0 757 0H540ZM639 540V286H770Q855 286 900 321Q945 356 945 411Q945 440 934 463.5Q923 487 898.5 504Q874 521 834 530.5Q794 540 736 540ZM639 276V10H756Q828 10 871.5 22.5Q915 35 938.5 54.5Q962 74 969 98.5Q976 123 976 147Q976 180 960.5 204.5Q945 229 917.5 244.5Q890 260 852.5 268Q815 276 771 276Z" glyph-name="f_b.sc" horiz-adv-x="1037" /><glyph d="M387 552Q387 603 395.5 639.5Q404 676 418 700Q392 717 362 723.5Q332 730 307 730Q137 730 137 536V480H387ZM32 0V10H127V470H32V480H127V531Q127 643 175.5 691.5Q224 740 307 740Q332 740 365 732.5Q398 725 424 708Q445 737 475.5 748.5Q506 760 541 760Q600 760 630.5 730Q661 700 661 658Q661 641 646 641Q631 641 631 655Q631 663 638 667Q645 671 650 671Q642 714 611 732Q580 750 541 750Q510 750 483.5 741Q457 732 438 709.5Q419 687 408 649Q397 611 397 552V480H544V470H397V10H516V0H292V10H387V470H137V10H217V0Z" glyph-name="f_f" horiz-adv-x="567" unicode="&#64256;" /><glyph d="M443 480Q380 491 342 528Q304 565 304 634Q304 662 311.5 682Q319 702 332 717Q311 729 282 734.5Q253 740 218 740Q192 740 163.5 735Q135 730 111.5 716.5Q88 703 72.5 680Q57 657 57 621Q57 560 116 520Q175 480 293 480ZM32 0V10H127V470H32V480H190Q123 493 85 528.5Q47 564 47 621Q47 659 63 683.5Q79 708 104 723Q129 738 159.5 744Q190 750 218 750Q259 750 288 743.5Q317 737 339 724Q359 744 384.5 752Q410 760 431 760Q490 760 522.5 730Q555 700 555 658Q555 641 540 641Q525 641 525 655Q525 663 532 667Q539 671 544 671Q536 714 503 732Q470 750 431 750Q380 750 347 718.5Q314 687 314 634Q314 594 329.5 564.5Q345 535 373 516.5Q401 498 439.5 489Q478 480 524 480V470H394V10H494V0H289V10H384V470H137V10H217V0Z" glyph-name="f_f.alt" horiz-adv-x="545" /><glyph d="M50 0V10H139V540H50V550H453V413H443V510Q443 527 437 533.5Q431 540 415 540H149V286H362V362H371V198H362V276H149V10H247V0ZM550 0V10H639V540H550V550H953V413H943V510Q943 527 937 533.5Q931 540 915 540H649V286H862V362H871V198H862V276H649V10H747V0Z" glyph-name="f_f.alt.sc" horiz-adv-x="989" /><glyph d="M50 0V10H139V540H50V550H453V413H443V510Q443 527 437 533.5Q431 540 415 540H149V286H366V276H149V10H247V0ZM540 0V10H629V540H540V550H943V413H933V510Q933 527 927 533.5Q921 540 905 540H639V286H856V276H639V10H737V0Z" glyph-name="f_f.sc" horiz-adv-x="977" /><glyph d="M387 552Q387 603 395.5 639.5Q404 676 418 700Q392 717 362 723.5Q332 730 307 730Q137 730 137 536V480H387ZM32 0V10H127V470H32V480H127V531Q127 643 175.5 691.5Q224 740 307 740Q332 740 365 732.5Q398 725 424 708Q445 737 475.5 748.5Q506 760 541 760Q600 760 630.5 730Q661 700 661 658Q661 641 646 641Q631 641 631 655Q631 663 638 667Q645 671 650 671Q642 714 611 732Q580 750 541 750Q510 750 483.5 741Q457 732 438 709.5Q419 687 408 649Q397 611 397 552V480H532Q570 480 592.5 480Q615 480 627 481Q639 482 643.5 484Q648 486 650 490L657 487V10H752V0H552V10H647V470H397V10H477V0H292V10H387V470H137V10H217V0Z" glyph-name="f_f_i" horiz-adv-x="780" unicode="&#64259;" /><glyph d="M447 480Q380 493 342 528.5Q304 564 304 621Q304 652 314 675Q324 698 341 714Q318 728 287 734Q256 740 218 740Q192 740 163.5 735Q135 730 111.5 716.5Q88 703 72.5 680Q57 657 57 621Q57 560 116 520Q175 480 293 480ZM32 0V10H127V470H32V480H190Q123 493 85 528.5Q47 564 47 621Q47 659 63 683.5Q79 708 104 723Q129 738 159.5 744Q190 750 218 750Q263 750 294 743Q325 736 349 722Q375 743 409 751.5Q443 760 475 760Q565 760 610 730Q655 700 655 658Q655 641 640 641Q625 641 625 655Q625 663 632 667Q639 671 644 671Q639 692 623.5 707Q608 722 585.5 731.5Q563 741 534.5 745.5Q506 750 475 750Q449 750 420.5 744Q392 738 368.5 723.5Q345 709 329.5 684Q314 659 314 621Q314 560 372.5 520Q431 480 547 480Q582 480 612 481Q642 482 647 490L654 487V10H749V0H549V10H644V470H394V10H474V0H289V10H384V470H137V10H217V0Z" glyph-name="f_f_i.alt" horiz-adv-x="777" /><glyph d="M50 0V10H139V540H50V550H453V413H443V510Q443 527 437 533.5Q431 540 415 540H149V286H362V362H371V198H362V276H149V10H247V0ZM1050 0V10H1139V540H1050V550H1238V540H1149V10H1238V0ZM550 0V10H639V540H550V550H953V413H943V510Q943 527 937 533.5Q931 540 915 540H649V286H862V362H871V198H862V276H649V10H747V0Z" glyph-name="f_f_i.alt.sc" horiz-adv-x="1288" /><glyph d="M50 0V10H139V540H50V550H453V413H443V510Q443 527 437 533.5Q431 540 415 540H149V286H366V276H149V10H247V0ZM540 0V10H629V540H540V550H943V413H933V510Q933 527 927 533.5Q921 540 905 540H639V286H856V276H639V10H737V0ZM1030 0V10H1119V540H1030V550H1218V540H1129V10H1218V0Z" glyph-name="f_f_i.sc" horiz-adv-x="1268" /><glyph d="M387 552Q387 603 395.5 639.5Q404 676 418 700Q392 717 362 723.5Q332 730 307 730Q137 730 137 536V480H387ZM532 -260Q503 -260 480.5 -250.5Q458 -241 443 -225Q428 -209 420 -189Q412 -169 412 -148Q412 -131 427 -131Q442 -131 442 -145Q442 -153 435 -157Q428 -161 422 -161Q430 -206 461.5 -228Q493 -250 532 -250Q594 -250 620 -210Q646 -170 646 -72V470H397V10H477V0H292V10H387V470H137V10H217V0H32V10H127V470H32V480H127V531Q127 643 175.5 691.5Q224 740 307 740Q332 740 365 732.5Q398 725 424 708Q445 737 475.5 748.5Q506 760 541 760Q600 760 630.5 730Q661 700 661 658Q661 641 646 641Q631 641 631 655Q631 663 638 667Q645 671 650 671Q642 714 611 732Q580 750 541 750Q510 750 483.5 741Q457 732 438 709.5Q419 687 408 649Q397 611 397 552V480H531Q571 480 593 480.5Q615 481 626.5 482Q638 483 642 485Q646 487 649 490L656 487V-72Q656 -177 626.5 -218.5Q597 -260 532 -260Z" glyph-name="f_f_j" horiz-adv-x="754" /><glyph d="M450 480Q383 493 345 528.5Q307 564 307 621Q307 653 317 675.5Q327 698 344 715Q321 728 288.5 734Q256 740 218 740Q192 740 163.5 735Q135 730 111.5 716.5Q88 703 72.5 680Q57 657 57 621Q57 560 116 520Q175 480 293 480ZM639 -260Q580 -260 546.5 -230Q513 -200 513 -158Q513 -141 528 -141Q543 -141 543 -155Q543 -163 536 -167Q529 -171 524 -171Q532 -214 566 -232Q600 -250 639 -250Q660 -250 681 -243.5Q702 -237 718.5 -222.5Q735 -208 745 -185Q755 -162 755 -129Q755 -98 746 -74.5Q737 -51 722 -35Q707 -19 687.5 -10.5Q668 -2 647 0V470H397V10H497V0H292V10H387V470H137V10H217V0H32V10H127V470H32V480H190Q123 493 85 528.5Q47 564 47 621Q47 659 63 683.5Q79 708 104 723Q129 738 159.5 744Q190 750 218 750Q263 750 296.5 742.5Q330 735 353 722Q379 743 412.5 751.5Q446 760 478 760Q568 760 613 730Q658 700 658 658Q658 641 643 641Q628 641 628 655Q628 663 635 667Q642 671 647 671Q642 692 626.5 707Q611 722 588.5 731.5Q566 741 537.5 745.5Q509 750 478 750Q452 750 423.5 744Q395 738 371.5 723.5Q348 709 332.5 684Q317 659 317 621Q317 560 375.5 520Q434 480 550 480Q585 480 615 481Q645 482 650 490L657 487V10Q677 6 696.5 -3Q716 -12 731 -28.5Q746 -45 755.5 -70Q765 -95 765 -129Q765 -165 754 -190Q743 -215 725 -230.5Q707 -246 684.5 -253Q662 -260 639 -260Z" glyph-name="f_f_j.alt" horiz-adv-x="756" /><glyph d="M50 0V10H139V540H50V550H453V413H443V510Q443 527 437 533.5Q431 540 415 540H149V286H362V362H371V198H362V276H149V10H247V0ZM1236 183Q1236 141 1229.5 106.5Q1223 72 1207 46.5Q1191 21 1164 7Q1137 -7 1095 -7Q1056 -7 1029 5.5Q1002 18 985 36Q968 54 960.5 75Q953 96 953 113Q953 132 969 132Q985 132 985 117Q985 101 965 98Q977 46 1014.5 24.5Q1052 3 1095 3Q1133 3 1158.5 15.5Q1184 28 1199 51.5Q1214 75 1220 108Q1226 141 1226 182V541H1137V551H1325V541H1236ZM550 0V10H639V540H550V550H953V413H943V510Q943 527 937 533.5Q931 540 915 540H649V286H862V362H871V198H862V276H649V10H747V0Z" glyph-name="f_f_j.alt.sc" horiz-adv-x="1361" /><glyph d="M50 0V10H139V540H50V550H453V413H443V510Q443 527 437 533.5Q431 540 415 540H149V286H366V276H149V10H247V0ZM540 0V10H629V540H540V550H943V413H933V510Q933 527 927 533.5Q921 540 905 540H639V286H856V276H639V10H737V0ZM1217 182Q1217 140 1210.5 105.5Q1204 71 1188 45.5Q1172 20 1145 6Q1118 -8 1076 -8Q1037 -8 1010 4.5Q983 17 966 35Q949 53 941.5 74Q934 95 934 112Q934 131 950 131Q966 131 966 116Q966 100 946 97Q958 45 995.5 23.5Q1033 2 1076 2Q1114 2 1139.5 14.5Q1165 27 1180 50.5Q1195 74 1201 107Q1207 140 1207 181V540H1118V550H1306V540H1217Z" glyph-name="f_f_j.sc" horiz-adv-x="1342" /><glyph d="M387 551Q387 602 395.5 637.5Q404 673 421 698Q394 716 363.5 723Q333 730 307 730Q137 730 137 536V480H387ZM32 0V10H127V470H32V480H127V531Q127 643 175.5 691.5Q224 740 307 740Q333 740 367.5 732Q402 724 427 706Q450 735 483 747.5Q516 760 557 760Q582 760 602 758.5Q622 757 633 757Q645 757 649 760L657 757V10H752V0H552V10H647V745Q621 749 598 749.5Q575 750 557 750Q481 750 439 706Q397 662 397 556V480H517V470H397V10H477V0H292V10H387V470H137V10H217V0Z" glyph-name="f_f_l" horiz-adv-x="780" unicode="&#64260;" /><glyph d="M457 480Q384 493 344 530.5Q304 568 304 628Q304 656 314 677Q324 698 341 714Q318 728 287 734Q256 740 218 740Q192 740 163.5 735Q135 730 111.5 716.5Q88 703 72.5 680Q57 657 57 621Q57 560 116 520Q175 480 293 480ZM32 0V10H127V470H32V480H190Q123 493 85 528.5Q47 564 47 621Q47 659 63 683.5Q79 708 104 723Q129 738 159.5 744Q190 750 218 750Q263 750 294.5 742.5Q326 735 350 721Q377 741 414.5 750.5Q452 760 494 760Q505 760 523 759.5Q541 759 559.5 758Q578 757 593 756.5Q608 756 612 756Q624 756 633 755.5Q642 755 647 760L654 757V10H749V0H549V10H644V742Q639 743 624.5 744Q610 745 589 746.5Q568 748 543.5 749Q519 750 494 750Q458 750 425.5 743.5Q393 737 368.5 722.5Q344 708 329 684.5Q314 661 314 628Q314 555 376 517.5Q438 480 547 480V470H394V10H474V0H289V10H384V470H137V10H217V0Z" glyph-name="f_f_l.alt" horiz-adv-x="777" /><glyph d="M50 0V10H139V540H50V550H453V413H443V510Q443 527 437 533.5Q431 540 415 540H149V286H362V362H371V198H362V276H149V10H247V0ZM550 0V10H639V540H550V550H953V413H943V510Q943 527 937 533.5Q931 540 915 540H649V286H862V362H871V198H862V276H649V10H747V0ZM1050 10H1139V540H1050V550H1238V540H1149V10H1431Q1448 10 1453.5 17Q1459 24 1459 41V141H1469V0H1050Z" glyph-name="f_f_l.alt.sc" horiz-adv-x="1502" /><glyph d="M50 0V10H139V540H50V550H453V413H443V510Q443 527 437 533.5Q431 540 415 540H149V286H366V276H149V10H247V0ZM540 0V10H629V540H540V550H943V413H933V510Q933 527 927 533.5Q921 540 905 540H639V286H856V276H639V10H737V0ZM1030 10H1119V540H1030V550H1218V540H1129V10H1411Q1428 10 1433.5 17Q1439 24 1439 41V141H1449V0H1030Z" glyph-name="f_f_l.sc" horiz-adv-x="1482" /><glyph d="M217 0H32V10H127V470H32V480H127V551Q127 611 139.5 651Q152 691 174.5 715Q197 739 228.5 749.5Q260 760 297 760Q322 760 342 758.5Q362 757 373 757Q385 757 389 760L397 757V353Q402 379 413 403.5Q424 428 443.5 447.5Q463 467 492 478.5Q521 490 560 490Q641 490 687 440Q733 390 733 283V10H828V0H628V10H723V283Q723 387 678.5 433.5Q634 480 560 480Q487 480 442 433Q397 386 397 281V10H492V0H292V10H387V745Q361 749 338 749.5Q315 750 297 750Q221 750 179 706Q137 662 137 556V480H257V470H137V10H217Z" glyph-name="f_h" horiz-adv-x="844" /><glyph d="M217 0H32V10H127V470H32V480H200Q127 493 87 530.5Q47 568 47 628Q47 663 62.5 688Q78 713 104 729Q130 745 164.5 752.5Q199 760 237 760Q248 760 266 759.5Q284 759 302.5 758Q321 757 336 756.5Q351 756 355 756Q367 756 376 755.5Q385 755 390 760L397 757V353Q402 379 413 403.5Q424 428 443.5 447.5Q463 467 492 478.5Q521 490 560 490Q641 490 687 440Q733 390 733 283V10H828V0H628V10H723V283Q723 387 678.5 433.5Q634 480 560 480Q487 480 442 433Q397 386 397 281V10H492V0H292V10H387V742Q382 743 367.5 744Q353 745 332 746.5Q311 748 286.5 749Q262 750 237 750Q201 750 168.5 743.5Q136 737 111.5 722.5Q87 708 72 684.5Q57 661 57 628Q57 555 119 517.5Q181 480 290 480V470H137V10H217Z" glyph-name="f_h.alt" horiz-adv-x="844" /><glyph d="M50 0V10H139V540H50V550H453V413H443V510Q443 527 437 533.5Q431 540 415 540H149V286H362V362H371V198H362V276H149V10H247V0ZM550 10H639V540H550V550H729V540H649V288H1007V540H927V550H1106V540H1017V10H1106V0H927V10H1007V278H649V10H729V0H550Z" glyph-name="f_h.alt.sc" horiz-adv-x="1156" /><glyph d="M50 0V10H139V540H50V550H453V413H443V510Q443 527 437 533.5Q431 540 415 540H149V286H366V276H149V10H247V0ZM540 10H629V540H540V550H719V540H639V288H997V540H917V550H1096V540H1007V10H1096V0H917V10H997V278H639V10H719V0H540Z" glyph-name="f_h.sc" horiz-adv-x="1146" /><glyph d="M476 677Q476 673 472.5 667Q469 661 459 661Q449 661 445.5 667Q442 673 442 677Q442 682 445.5 688Q449 694 459 694Q469 694 472.5 688Q476 682 476 677ZM32 0V10H127V470H32V480H127V572Q127 630 137 666.5Q147 703 164 724Q181 745 203.5 752.5Q226 760 251 760Q295 760 318 736Q341 712 341 678Q341 661 326 661Q311 661 311 675Q311 683 317.5 687Q324 691 330 691Q324 723 301.5 736.5Q279 750 251 750Q227 750 206.5 742.5Q186 735 170.5 715.5Q155 696 146 661.5Q137 627 137 572V480H272Q310 480 332.5 480Q355 480 367 481Q379 482 383.5 484Q388 486 390 490L397 487V10H492V0H292V10H387V470H137V10H217V0Z" glyph-name="f_idieresis" horiz-adv-x="520" /><glyph d="M476 677Q476 673 472.5 667Q469 661 459 661Q449 661 445.5 667Q442 673 442 677Q442 682 445.5 688Q449 694 459 694Q469 694 472.5 688Q476 682 476 677ZM290 480Q325 480 355 481Q385 482 390 490L397 487V10H492V0H292V10H387V470H137V10H217V0H32V10H127V470H32V480H190Q123 493 85 529.5Q47 566 47 628Q47 666 61.5 691Q76 716 98 731.5Q120 747 146.5 753.5Q173 760 198 760Q224 760 248 755Q272 750 290 739.5Q308 729 319 714Q330 699 330 678Q330 661 315 661Q300 661 300 675Q300 683 307 687Q314 691 319 691Q313 711 298 723Q283 735 264.5 741Q246 747 227.5 748.5Q209 750 197 750Q175 750 150.5 744.5Q126 739 105 725Q84 711 70.5 687.5Q57 664 57 628Q57 562 112 521Q167 480 290 480Z" glyph-name="f_idieresis.alt" horiz-adv-x="520" /><glyph d="M50 0V10H139V540H50V550H453V413H443V510Q443 527 437 533.5Q431 540 415 540H149V286H362V362H371V198H362V276H149V10H247V0ZM577 640Q577 635 573.5 630Q570 625 562 625Q554 625 550.5 630Q547 635 547 640Q547 645 550.5 650Q554 655 562 655Q570 655 573.5 650Q577 645 577 640ZM738 640Q738 635 734.5 630Q731 625 723 625Q715 625 711.5 630Q708 635 708 640Q708 645 711.5 650Q715 655 723 655Q731 655 734.5 650Q738 645 738 640ZM550 0V10H639V540H550V550H738V540H649V10H738V0Z" glyph-name="f_idieresis.alt.sc" horiz-adv-x="788" /><glyph d="M50 0V10H139V540H50V550H453V413H443V510Q443 527 437 533.5Q431 540 415 540H149V286H366V276H149V10H247V0ZM567 640Q567 635 563.5 630Q560 625 552 625Q544 625 540.5 630Q537 635 537 640Q537 645 540.5 650Q544 655 552 655Q560 655 563.5 650Q567 645 567 640ZM728 640Q728 635 724.5 630Q721 625 713 625Q705 625 701.5 630Q698 635 698 640Q698 645 701.5 650Q705 655 713 655Q721 655 724.5 650Q728 645 728 640ZM540 0V10H629V540H540V550H728V540H639V10H728V0Z" glyph-name="f_idieresis.sc" horiz-adv-x="778" /><glyph d="M272 -260Q243 -260 220.5 -250.5Q198 -241 183 -225Q168 -209 160 -189Q152 -169 152 -148Q152 -131 167 -131Q182 -131 182 -145Q182 -153 175 -157Q168 -161 162 -161Q170 -206 201.5 -228Q233 -250 272 -250Q334 -250 360 -210Q386 -170 386 -72V470H137V10H217V0H32V10H127V470H32V480H127V552Q127 614 139 654Q151 694 172 717.5Q193 741 221 750.5Q249 760 281 760Q340 760 370.5 730Q401 700 401 658Q401 641 386 641Q371 641 371 655Q371 663 378 667Q385 671 390 671Q382 714 351 732Q320 750 281 750Q250 750 223.5 741Q197 732 178 709.5Q159 687 148 649Q137 611 137 552V480H271Q311 480 333 480.5Q355 481 366.5 482Q378 483 382 485Q386 487 389 490L396 487V-72Q396 -177 366.5 -218.5Q337 -260 272 -260Z" glyph-name="f_j" horiz-adv-x="494" /><glyph d="M290 480Q325 480 355 481Q385 482 390 490L397 487V10Q417 6 436.5 -3Q456 -12 471 -28.5Q486 -45 495.5 -70Q505 -95 505 -129Q505 -165 494 -190Q483 -215 465 -230.5Q447 -246 424.5 -253Q402 -260 379 -260Q320 -260 286.5 -230Q253 -200 253 -158Q253 -141 268 -141Q283 -141 283 -155Q283 -163 276 -167Q269 -171 264 -171Q272 -214 306 -232Q340 -250 379 -250Q400 -250 421 -243.5Q442 -237 458.5 -222.5Q475 -208 485 -185Q495 -162 495 -129Q495 -98 486 -74.5Q477 -51 462 -35Q447 -19 427.5 -10.5Q408 -2 387 0V470H137V10H237V0H32V10H127V470H32V480H190Q123 493 85 528.5Q47 564 47 621Q47 661 63 687.5Q79 714 104 730Q129 746 159.5 753Q190 760 218 760Q308 760 353 730Q398 700 398 658Q398 641 383 641Q368 641 368 655Q368 663 375 667Q382 671 387 671Q382 692 366.5 707Q351 722 328.5 731.5Q306 741 277.5 745.5Q249 750 218 750Q192 750 163.5 744Q135 738 111.5 723.5Q88 709 72.5 684Q57 659 57 621Q57 560 115.5 520Q174 480 290 480Z" glyph-name="f_j.alt" horiz-adv-x="496" /><glyph d="M50 0V10H139V540H50V550H453V413H443V510Q443 527 437 533.5Q431 540 415 540H149V286H362V362H371V198H362V276H149V10H247V0ZM737 182Q737 140 730.5 105.5Q724 71 708 45.5Q692 20 665 6Q638 -8 596 -8Q557 -8 530 4.5Q503 17 486 35Q469 53 461.5 74Q454 95 454 112Q454 131 470 131Q486 131 486 116Q486 100 466 97Q478 45 515.5 23.5Q553 2 596 2Q634 2 659.5 14.5Q685 27 700 50.5Q715 74 721 107Q727 140 727 181V540H638V550H826V540H737Z" glyph-name="f_j.alt.sc" horiz-adv-x="862" /><glyph d="M50 0V10H139V540H50V550H453V413H443V510Q443 527 437 533.5Q431 540 415 540H149V286H366V276H149V10H247V0ZM727 182Q727 140 720.5 105.5Q714 71 698 45.5Q682 20 655 6Q628 -8 586 -8Q547 -8 520 4.5Q493 17 476 35Q459 53 451.5 74Q444 95 444 112Q444 131 460 131Q476 131 476 116Q476 100 456 97Q468 45 505.5 23.5Q543 2 586 2Q624 2 649.5 14.5Q675 27 690 50.5Q705 74 711 107Q717 140 717 181V540H628V550H816V540H727Z" glyph-name="f_j.sc" horiz-adv-x="852" /><glyph d="M217 0H32V10H127V470H32V480H127V551Q127 611 139.5 651Q152 691 174.5 715Q197 739 228.5 749.5Q260 760 297 760Q322 760 342 758.5Q362 757 373 757Q385 757 389 760L397 757V161L674 470H568V480H782V470H688L516 280L740 10H811V0H626V10H727L509 272L397 148V10H492V0H292V10H387V745Q361 749 338 749.5Q315 750 297 750Q221 750 179 706Q137 662 137 556V480H257V470H137V10H217Z" glyph-name="f_k" horiz-adv-x="813" /><glyph d="M217 0H32V10H127V470H32V480H200Q127 493 87 530.5Q47 568 47 628Q47 663 62.5 688Q78 713 104 729Q130 745 164.5 752.5Q199 760 237 760Q248 760 266 759.5Q284 759 302.5 758Q321 757 336 756.5Q351 756 355 756Q367 756 376 755.5Q385 755 390 760L397 757V480H718V470L522 273L740 10H811V0H626V10H727L515 266L397 147V10H492V0H292V10H387V742Q382 743 367.5 744Q353 745 332 746.5Q311 748 286.5 749Q262 750 237 750Q201 750 168.5 743.5Q136 737 111.5 722.5Q87 708 72 684.5Q57 661 57 628Q57 555 119 517.5Q181 480 290 480V470H137V10H217ZM704 470H397V161Z" glyph-name="f_k.alt" horiz-adv-x="799" /><glyph d="M50 0V10H139V540H50V550H453V413H443V510Q443 527 437 533.5Q431 540 415 540H149V286H362V362H371V198H362V276H149V10H247V0ZM649 179 999 540H649ZM550 0V10H639V540H550V550H1013V540L793 313L1019 10H1091V0H927V10H1008L786 307L649 165V10H738V0Z" glyph-name="f_k.alt.sc" horiz-adv-x="1088" /><glyph d="M50 0V10H139V540H50V550H453V413H443V510Q443 527 437 533.5Q431 540 415 540H149V286H366V276H149V10H247V0ZM540 0V10H629V540H540V550H728V540H639V182L973 540H894V550H1057V540H986L783 323L1009 10H1081V0H917V10H997L776 315L639 168V10H728V0Z" glyph-name="f_k.sc" horiz-adv-x="1091" /><glyph d="M137 470V10H256V0H32V10H127V470H32V480H127V552Q127 614 138 654Q149 694 168 717.5Q187 741 212.5 750.5Q238 760 266 760Q330 760 363 720.5Q396 681 396 585V480H620V470H396V149Q396 77 428 38.5Q460 0 514 0Q569 0 598 34.5Q627 69 627 156H637Q637 67 607 28.5Q577 -10 513 -10Q455 -10 420.5 29.5Q386 69 386 142V470ZM356 480Q373 480 379.5 485.5Q386 491 386 510V585Q386 677 354.5 713.5Q323 750 266 750Q239 750 215.5 741Q192 732 174.5 709.5Q157 687 147 649Q137 611 137 552V480Z" glyph-name="f_t" horiz-adv-x="661" /><glyph d="M513 -10Q455 -10 420.5 29.5Q386 69 386 142V470H137V10H237V0H32V10H127V470H32V480H186Q123 491 85 528Q47 565 47 634Q47 670 61 694Q75 718 96.5 733Q118 748 144 754Q170 760 194 760Q249 760 285.5 741Q322 722 344.5 693.5Q367 665 377.5 630.5Q388 596 392 566Q397 594 403 617.5Q409 641 417.5 663Q426 685 438.5 707.5Q451 730 467 755L474 750Q457 726 442.5 699Q428 672 417.5 639.5Q407 607 401.5 568Q396 529 396 480H620V470H396V149Q396 77 428 38.5Q460 0 514 0Q569 0 598 34.5Q627 69 627 156H637Q637 67 607 28.5Q577 -10 513 -10ZM386 480Q386 528 379 576.5Q372 625 351.5 663.5Q331 702 293 726Q255 750 194 750Q130 750 93.5 718.5Q57 687 57 634Q57 594 73.5 564.5Q90 535 119.5 516.5Q149 498 190 489Q231 480 279 480Z" glyph-name="f_t.alt" horiz-adv-x="661" /><glyph d="M50 0V10H139V540H50V550H453V413H443V510Q443 527 437 533.5Q431 540 415 540H149V286H362V362H371V198H362V276H149V10H247V0ZM694 10H783V540H595Q578 540 572.5 534Q567 528 567 510V391H557V550H1018V391H1008V510Q1008 528 1003.5 534Q999 540 980 540H793V10H882V0H694Z" glyph-name="f_t.alt.sc" horiz-adv-x="1055" /><glyph d="M50 0V10H139V540H50V550H453V413H443V510Q443 527 437 533.5Q431 540 415 540H149V286H366V276H149V10H247V0ZM684 10H773V540H585Q568 540 562.5 534Q557 528 557 510V391H547V550H1008V391H998V510Q998 528 993.5 534Q989 540 970 540H783V10H872V0H684Z" glyph-name="f_t.sc" horiz-adv-x="1045" /><glyph d="M32 0V10H127V470H32V480H127V552Q127 614 139 654Q151 694 172 717.5Q193 741 221 750.5Q249 760 281 760Q340 760 370.5 730Q401 700 401 658Q401 641 386 641Q371 641 371 655Q371 663 378 667Q385 671 390 671Q382 714 351 732Q320 750 281 750Q250 750 223.5 741Q197 732 178 709.5Q159 687 148 649Q137 611 137 552V480H272Q310 480 332.5 480Q355 480 367 481Q379 482 383.5 484Q388 486 390 490L397 487V10H492V0H292V10H387V470H137V10H217V0Z" glyph-name="fi" horiz-adv-x="520" unicode="&#64257;" /><glyph d="M290 480Q325 480 355 481Q385 482 390 490L397 487V10H492V0H292V10H387V470H137V10H217V0H32V10H127V470H32V480H190Q123 493 85 528.5Q47 564 47 621Q47 661 63 687.5Q79 714 104 730Q129 746 159.5 753Q190 760 218 760Q308 760 353 730Q398 700 398 658Q398 641 383 641Q368 641 368 655Q368 663 375 667Q382 671 387 671Q382 692 366.5 707Q351 722 328.5 731.5Q306 741 277.5 745.5Q249 750 218 750Q192 750 163.5 744Q135 738 111.5 723.5Q88 709 72.5 684Q57 659 57 621Q57 560 115.5 520Q174 480 290 480Z" glyph-name="fi.alt" horiz-adv-x="520" /><glyph d="M50 0V10H139V540H50V550H453V413H443V510Q443 527 437 533.5Q431 540 415 540H149V286H362V362H371V198H362V276H149V10H247V0ZM550 0V10H639V540H550V550H738V540H649V10H738V0Z" glyph-name="fi.alt.sc" horiz-adv-x="788" /><glyph d="M50 0V10H139V540H50V550H453V413H443V510Q443 527 437 533.5Q431 540 415 540H149V286H366V276H149V10H247V0ZM540 0V10H629V540H540V550H728V540H639V10H728V0Z" glyph-name="fi.sc" horiz-adv-x="778" /><glyph d="M252 0Q300 0 337 16Q374 32 398.5 60.5Q423 89 436 128.5Q449 168 449 214Q449 259 435 296Q421 333 396 360Q371 387 336 402Q301 417 258 417Q198 417 153.5 393.5Q109 370 84 325H75L123 690H429V680H132L88 346Q111 382 155 404.5Q199 427 258 427Q304 427 341 411Q378 395 404.5 367Q431 339 445 300Q459 261 459 214Q459 166 446 125Q433 84 407 54Q381 24 342 7Q303 -10 252 -10Q209 -10 172 2.5Q135 15 108.5 36Q82 57 67 85Q52 113 52 143Q52 163 70 163Q87 163 87 146Q87 129 65 126Q71 92 91 68Q111 44 138 29Q165 14 195 7Q225 0 252 0Z" glyph-name="five" horiz-adv-x="511" unicode="5" /><glyph d="M174 -147Q240 -147 273 -108Q306 -69 306 -9Q306 50 271 85Q236 120 178 120Q137 120 107 105Q77 90 60 63H51L83 300H296V290H91L63 81Q78 103 108.5 116.5Q139 130 178 130Q210 130 235.5 119.5Q261 109 279 90Q297 71 306.5 46Q316 21 316 -9Q316 -40 307 -67Q298 -94 280 -114Q262 -134 235.5 -145.5Q209 -157 174 -157Q144 -157 118.5 -149.5Q93 -142 75 -128.5Q57 -115 46.5 -97.5Q36 -80 36 -60Q36 -43 50 -43Q63 -43 63 -57Q63 -71 47 -73Q52 -93 65.5 -107Q79 -121 97 -130Q115 -139 135.5 -143Q156 -147 174 -147Z" glyph-name="five.inferior" horiz-adv-x="353" /><glyph d="M244 -170Q341 -170 391 -112.5Q441 -55 441 38Q441 83 427 118Q413 153 388 177Q363 201 327.5 214Q292 227 250 227Q129 227 76 135H67L115 480H421V470H124L80 157Q112 200 152.5 218.5Q193 237 250 237Q342 237 396.5 184.5Q451 132 451 38Q451 -10 437.5 -50Q424 -90 398 -119Q372 -148 333 -164Q294 -180 244 -180Q201 -180 164.5 -167.5Q128 -155 101 -134Q74 -113 59 -85Q44 -57 44 -27Q44 -7 62 -7Q79 -7 79 -24Q79 -41 57 -44Q63 -79 84 -103Q105 -127 132 -142Q159 -157 189 -163.5Q219 -170 244 -170Z" glyph-name="five.old" horiz-adv-x="497" /><glyph d="M229 2Q315 2 359.5 50Q404 98 404 171Q404 243 357.5 287Q311 331 234 331Q125 331 80 260H71L114 550H388V540H122L83 278Q104 307 143.5 324Q183 341 235 341Q276 341 309.5 328Q343 315 366 292.5Q389 270 401.5 239Q414 208 414 171Q414 133 402.5 100.5Q391 68 367.5 44Q344 20 309.5 6Q275 -8 229 -8Q190 -8 157.5 2Q125 12 101.5 28.5Q78 45 64.5 67Q51 89 51 113Q51 132 68 132Q83 132 83 117Q83 101 63 98Q69 72 86.5 54Q104 36 128 24.5Q152 13 178.5 7.5Q205 2 229 2Z" glyph-name="five.sc" horiz-adv-x="465" /><glyph d="M175 443Q241 443 274 482Q307 521 307 581Q307 640 272 675Q237 710 179 710Q138 710 108 695Q78 680 61 653H52L84 890H297V880H92L64 671Q79 693 109.5 706.5Q140 720 179 720Q211 720 236.5 709.5Q262 699 280 680Q298 661 307.5 636Q317 611 317 581Q317 550 308 523Q299 496 281 476Q263 456 236.5 444.5Q210 433 175 433Q145 433 119.5 440.5Q94 448 76 461.5Q58 475 47.5 492.5Q37 510 37 530Q37 547 51 547Q64 547 64 533Q64 519 48 517Q53 498 66.5 484Q80 470 98 461Q116 452 136.5 447.5Q157 443 175 443Z" glyph-name="five.superior" horiz-adv-x="353" /><glyph d="M316 0Q364 0 401 16Q438 32 462.5 60.5Q487 89 500 128.5Q513 168 513 214Q513 259 499 296Q485 333 460 360Q435 387 400 402Q365 417 322 417Q262 417 217.5 393.5Q173 370 148 325H139L187 690H493V680H196L152 346Q175 382 219 404.5Q263 427 322 427Q368 427 405 411Q442 395 468.5 367Q495 339 509 300Q523 261 523 214Q523 166 510 125Q497 84 471 54Q445 24 406 7Q367 -10 316 -10Q273 -10 236 2.5Q199 15 172.5 36Q146 57 131 85Q116 113 116 143Q116 163 134 163Q151 163 151 146Q151 129 129 126Q135 92 155 68Q175 44 202 29Q229 14 259 7Q289 0 316 0Z" glyph-name="five.tln" horiz-adv-x="640" /><glyph d="M316 -170Q413 -170 463 -112.5Q513 -55 513 38Q513 83 499 118Q485 153 460 177Q435 201 399.5 214Q364 227 322 227Q201 227 148 135H139L187 480H493V470H196L152 157Q184 200 224.5 218.5Q265 237 322 237Q414 237 468.5 184.5Q523 132 523 38Q523 -10 509.5 -50Q496 -90 470 -119Q444 -148 405 -164Q366 -180 316 -180Q273 -180 236.5 -167.5Q200 -155 173 -134Q146 -113 131 -85Q116 -57 116 -27Q116 -7 134 -7Q151 -7 151 -24Q151 -41 129 -44Q135 -79 156 -103Q177 -127 204 -142Q231 -157 261 -163.5Q291 -170 316 -170Z" glyph-name="five.ton" horiz-adv-x="640" /><glyph d="M492 10V0H292V10H387V745Q361 749 338 749.5Q315 750 297 750Q221 750 179 706Q137 662 137 556V480H257V470H137V10H217V0H32V10H127V470H32V480H127V551Q127 611 139.5 651Q152 691 174.5 715Q197 739 228.5 749.5Q260 760 297 760Q322 760 342 758.5Q362 757 373 757Q385 757 389 760L397 757V10Z" glyph-name="fl" horiz-adv-x="520" unicode="&#64258;" /><glyph d="M387 742Q382 743 367.5 744Q353 745 332 746.5Q311 748 286.5 749Q262 750 237 750Q201 750 168.5 743.5Q136 737 111.5 722.5Q87 708 72 684.5Q57 661 57 628Q57 555 119 517.5Q181 480 290 480V470H137V10H217V0H32V10H127V470H32V480H200Q127 493 87 530.5Q47 568 47 628Q47 663 62.5 688Q78 713 104 729Q130 745 164.5 752.5Q199 760 237 760Q248 760 266 759.5Q284 759 302.5 758Q321 757 336 756.5Q351 756 355 756Q367 756 376 755.5Q385 755 390 760L397 757V10H492V0H292V10H387Z" glyph-name="fl.alt" horiz-adv-x="520" /><glyph d="M50 0V10H139V540H50V550H453V413H443V510Q443 527 437 533.5Q431 540 415 540H149V286H362V362H371V198H362V276H149V10H247V0ZM550 10H639V540H550V550H738V540H649V10H931Q948 10 953.5 17Q959 24 959 41V141H969V0H550Z" glyph-name="fl.alt.sc" horiz-adv-x="1002" /><glyph d="M50 0V10H139V540H50V550H453V413H443V510Q443 527 437 533.5Q431 540 415 540H149V286H366V276H149V10H247V0ZM550 10H639V540H550V550H738V540H649V10H931Q948 10 953.5 17Q959 24 959 41V141H969V0H550Z" glyph-name="fl.sc" horiz-adv-x="1002" /><glyph d="M274 0V10H384V225H24V235L384 700H394V235H494V225H394V10H494V0ZM384 684 36 235H384Z" glyph-name="four" horiz-adv-x="540" unicode="4" /><glyph d="M181 -150V-140H256V-25H10V-17L257 305H266V-15H333V-25H266V-140H333V-150ZM256 288 24 -15H256Z" glyph-name="four.inferior" horiz-adv-x="362" /><glyph d="M351 -170V0H21V10L351 490H361V10H461V0H361V-170ZM351 10V473L33 10Z" glyph-name="four.old" horiz-adv-x="486" /><glyph d="M252 0V10H350V168H29V177L350 557H360V178H449V168H360V10H449V0ZM350 542 43 178H350Z" glyph-name="four.sc" horiz-adv-x="496" /><glyph d="M181 440V450H256V565H10V573L257 895H266V575H333V565H266V450H333V440ZM256 878 24 575H256Z" glyph-name="four.superior" horiz-adv-x="362" /><glyph d="M324 0V10H434V225H74V235L434 700H444V235H544V225H444V10H544V0ZM434 684 86 235H434Z" glyph-name="four.tln" horiz-adv-x="640" /><glyph d="M421 -170V0H91V10L421 490H431V10H531V0H431V-170ZM421 10V473L103 10Z" glyph-name="four.ton" horiz-adv-x="640" /><glyph d="M239 177Q317 177 359.5 218.5Q402 260 402 329Q402 400 360 440.5Q318 481 239 480Q205 480 175 469.5Q145 459 123 439.5Q101 420 88.5 392Q76 364 76 329Q76 261 119.5 219Q163 177 239 177ZM465 -120Q465 -158 448.5 -184.5Q432 -211 403.5 -227.5Q375 -244 337 -252Q299 -260 255 -260Q213 -260 175 -252Q137 -244 108.5 -227.5Q80 -211 63 -184.5Q46 -158 46 -120Q46 -68 82.5 -34.5Q119 -1 182 6Q129 9 96 27.5Q63 46 63 90Q63 112 74.5 127.5Q86 143 104 153Q122 163 144.5 168Q167 173 189 174Q157 179 133.5 194Q110 209 95 230.5Q80 252 73 277.5Q66 303 66 329Q66 365 79 394.5Q92 424 115 445Q138 466 170 478Q202 490 239 490Q278 490 314 480H463V470H334Q378 445 395 408Q412 371 412 329Q412 302 403.5 273.5Q395 245 374.5 221.5Q354 198 321 182.5Q288 167 239 167Q161 167 117 149.5Q73 132 73 90Q73 71 81 56.5Q89 42 110 31.5Q131 21 168 15.5Q205 10 264 10Q370 10 417.5 -25Q465 -60 465 -120ZM255 -250Q294 -250 330 -243Q366 -236 394 -220.5Q422 -205 438.5 -180Q455 -155 455 -120Q455 -97 446.5 -75Q438 -53 416 -36.5Q394 -20 357 -10Q320 0 264 0H194Q125 -8 90.5 -40Q56 -72 56 -120Q56 -155 73 -180Q90 -205 117.5 -220.5Q145 -236 181 -243Q217 -250 255 -250Z" glyph-name="g" horiz-adv-x="479" unicode="g" /><glyph d="M647 690Q647 686 643.5 680Q640 674 630 674Q620 674 616.5 680Q613 686 613 690Q613 695 616.5 701Q620 707 630 707Q640 707 643.5 701Q647 695 647 690ZM516 -260Q483 -260 458.5 -248Q434 -236 420 -217Q391 -240 348.5 -250Q306 -260 255 -260Q213 -260 175 -252Q137 -244 108.5 -227.5Q80 -211 63 -184.5Q46 -158 46 -120Q46 -68 82.5 -34.5Q119 -1 182 6Q129 9 96 27.5Q63 46 63 90Q63 112 74.5 127.5Q86 143 104 153Q122 163 144.5 168Q167 173 189 174Q157 179 133.5 194Q110 209 95 230.5Q80 252 73 277.5Q66 303 66 329Q66 365 79 394.5Q92 424 115 445Q138 466 170 478Q202 490 239 490Q278 490 314 480Q427 480 489.5 480Q552 480 582.5 481Q613 482 621 484Q629 486 633 490L640 487V-72Q640 -177 610.5 -218.5Q581 -260 516 -260ZM239 177Q317 177 359.5 218.5Q402 260 402 329Q402 400 360 440.5Q318 481 239 480Q205 480 175 469.5Q145 459 123 439.5Q101 420 88.5 392Q76 364 76 329Q76 261 119.5 219Q163 177 239 177ZM516 -250Q578 -250 604 -210Q630 -170 630 -72V470H334Q378 445 395 408Q412 371 412 329Q412 302 403.5 273.5Q395 245 374.5 221.5Q354 198 321 182.5Q288 167 239 167Q161 167 117 149.5Q73 132 73 90Q73 71 81 56.5Q89 42 110 31.5Q131 21 168 15.5Q205 10 264 10Q370 10 417.5 -25Q465 -60 465 -120Q465 -149 455 -171Q445 -193 427 -210Q443 -230 466.5 -240Q490 -250 516 -250ZM255 -250Q294 -250 330 -243Q366 -236 394 -220.5Q422 -205 438.5 -180Q455 -155 455 -120Q455 -97 446.5 -75Q438 -53 416 -36.5Q394 -20 357 -10Q320 0 264 0H194Q125 -8 90.5 -40Q56 -72 56 -120Q56 -155 73 -180Q90 -205 117.5 -220.5Q145 -236 181 -243Q217 -250 255 -250Z" glyph-name="g_j" horiz-adv-x="738" /><glyph d="M647 690Q647 686 643.5 680Q640 674 630 674Q620 674 616.5 680Q613 686 613 690Q613 695 616.5 701Q620 707 630 707Q640 707 643.5 701Q647 695 647 690ZM596 -260Q536 -260 499.5 -242Q463 -224 441 -195Q415 -230 365.5 -245Q316 -260 255 -260Q213 -260 175 -252Q137 -244 108.5 -227.5Q80 -211 63 -184.5Q46 -158 46 -120Q46 -68 82.5 -34.5Q119 -1 182 6Q129 9 96 27.5Q63 46 63 90Q63 112 74.5 127.5Q86 143 104 153Q122 163 144.5 168Q167 173 189 174Q157 179 133.5 194Q110 209 95 230.5Q80 252 73 277.5Q66 303 66 329Q66 365 79 394.5Q92 424 115 445Q138 466 170 478Q202 490 239 490Q278 490 314 480Q406 480 464.5 479.5Q523 479 557.5 480Q592 481 607.5 483Q623 485 628 490L634 487V10Q654 6 673.5 -3Q693 -12 708 -28.5Q723 -45 732.5 -70Q742 -95 742 -129Q742 -165 729.5 -190Q717 -215 696 -230.5Q675 -246 649 -253Q623 -260 596 -260ZM239 177Q317 177 359.5 218.5Q402 260 402 329Q402 400 360 440.5Q318 481 239 480Q205 480 175 469.5Q145 459 123 439.5Q101 420 88.5 392Q76 364 76 329Q76 261 119.5 219Q163 177 239 177ZM596 -250Q621 -250 645 -243.5Q669 -237 688.5 -222.5Q708 -208 720 -185Q732 -162 732 -129Q732 -98 723 -74.5Q714 -51 699 -35Q684 -19 664.5 -10.5Q645 -2 624 0V470H334Q378 445 395 408Q412 371 412 329Q412 302 403.5 273.5Q395 245 374.5 221.5Q354 198 321 182.5Q288 167 239 167Q161 167 117 149.5Q73 132 73 90Q73 71 81 56.5Q89 42 110 31.5Q131 21 168 15.5Q205 10 264 10Q370 10 417.5 -25Q465 -60 465 -120Q465 -157 448 -185Q472 -220 510.5 -235Q549 -250 596 -250ZM255 -250Q294 -250 330 -243Q366 -236 394 -220.5Q422 -205 438.5 -180Q455 -155 455 -120Q455 -97 446.5 -75Q438 -53 416 -36.5Q394 -20 357 -10Q320 0 264 0H194Q125 -8 90.5 -40Q56 -72 56 -120Q56 -155 73 -180Q90 -205 117.5 -220.5Q145 -236 181 -243Q217 -250 255 -250Z" glyph-name="g_j.alt" horiz-adv-x="733" /><glyph d="M492 57Q476 39 455 27Q434 15 412 7Q390 -1 368 -4.5Q346 -8 328 -8Q255 -8 203 15.5Q151 39 118 78.5Q85 118 70 169.5Q55 221 55 276Q55 332 71 383Q87 434 118.5 473Q150 512 196.5 535Q243 558 304 558Q370 558 421 532Q472 506 492 458V557H501V395H492Q492 436 475.5 465Q459 494 432.5 512.5Q406 531 372.5 539.5Q339 548 304 548Q245 548 200.5 526Q156 504 126 466.5Q96 429 80.5 379.5Q65 330 65 276Q65 213 83 162.5Q101 112 135 76Q169 40 218 21Q267 2 328 2Q344 2 364.5 5Q385 8 407 15.5Q429 23 451 36Q473 49 491 69V220H367V230H582V220H501V-8H492ZM651 0V10H740V540H651V550H839V540H750V10H839V0Z" glyph-name="g_j.alt.sc" horiz-adv-x="871" /><glyph d="M492 57Q476 39 455 27Q434 15 412 7Q390 -1 368 -4.5Q346 -8 328 -8Q255 -8 203 15.5Q151 39 118 78.5Q85 118 70 169.5Q55 221 55 276Q55 332 71 383Q87 434 118.5 473Q150 512 196.5 535Q243 558 304 558Q370 558 421 532Q472 506 492 458V557H501V395H492Q492 436 475.5 465Q459 494 432.5 512.5Q406 531 372.5 539.5Q339 548 304 548Q245 548 200.5 526Q156 504 126 466.5Q96 429 80.5 379.5Q65 330 65 276Q65 213 83 162.5Q101 112 135 76Q169 40 218 21Q267 2 328 2Q344 2 364.5 5Q385 8 407 15.5Q429 23 451 36Q473 49 491 69V220H367V230H582V220H501V-8H492ZM651 0V10H740V540H651V550H839V540H750V10H839V0Z" glyph-name="g_j.sc" horiz-adv-x="871" /><glyph d="M301 -10Q276 -10 258 -6.5Q240 -3 228 1Q214 6 204 12V25Q213 18 227 13Q240 7 258 3.5Q276 0 301 0Q344 0 373 11.5Q402 23 420 42Q438 61 445.5 85Q453 109 453 134Q453 174 438.5 200.5Q424 227 402 245.5Q380 264 355 277.5Q330 291 308 305.5Q286 320 271.5 339Q257 358 257 387Q257 421 280 444.5Q303 468 331 493.5Q359 519 382 551.5Q405 584 405 635Q405 688 370.5 719Q336 750 277 750Q232 750 203 734Q174 718 157 691.5Q140 665 133 632Q126 599 126 565V0H46V10H116V470H46V480H116V566Q116 603 123.5 638Q131 673 149 700Q167 727 198 743.5Q229 760 277 760Q339 760 377 726Q415 692 415 635Q415 582 392 548.5Q369 515 341 489.5Q313 464 290 441.5Q267 419 267 387Q267 360 281.5 342.5Q296 325 318 311Q340 297 365 283Q390 269 412 250Q434 231 448.5 203.5Q463 176 463 134Q463 68 421 29Q379 -10 301 -10Z" glyph-name="germandbls" horiz-adv-x="512" unicode="&#223;" /><glyph d="M318 -10Q296 -10 280.5 -8.5Q265 -7 255 -5Q243 -3 235 0V10Q244 7 256 5Q267 3 282 1.5Q297 0 318 0Q392 0 435.5 39Q479 78 479 152Q479 230 424.5 287.5Q370 345 255 377V387L458 740H137V0H32V10H127V470H32V480H127V750H469V740L264 384Q379 349 434 291Q489 233 489 152Q489 79 447.5 34.5Q406 -10 318 -10Z" glyph-name="germandbls.alt" horiz-adv-x="540" /><glyph d="M164 687Q146 709 133 721Q120 733 120 738Q120 745 128 745Q135 745 145 731Q155 717 172 695L246 601H234Z" glyph-name="grave" horiz-adv-x="366" unicode="`" /><glyph d="M147 826Q127 848 112.5 860Q98 872 98 877Q98 884 106 884Q114 884 124.5 870Q135 856 155 834L239 740H227Z" glyph-name="grave.cap" horiz-adv-x="348" /><glyph d="M82 126 398 329 82 532V543L408 334V324L82 115Z" glyph-name="greater" horiz-adv-x="460" unicode="&gt;" /><glyph d="M58 36 374 239 58 442V453L384 244V234L58 25Z" glyph-name="greater.old" horiz-adv-x="418" /><glyph d="M78 134 357 294 78 453V465L369 299V289L78 122Z" glyph-name="greater.sc" horiz-adv-x="410" /><glyph d="M172 126 488 329 172 532V543L498 334V324L172 115Z" glyph-name="greater.tln" horiz-adv-x="640" /><glyph d="M165 36 481 239 165 442V453L491 244V234L165 25Z" glyph-name="greater.ton" horiz-adv-x="640" /><glyph d="M260 50 47 248V258L260 434V421L69 253L260 63ZM358 93 187 248V258L358 394V381L209 253L358 106Z" glyph-name="guillemotleft" horiz-adv-x="426" unicode="&#171;" /><glyph d="M262 130 49 328V338L262 514V501L71 333L262 143ZM360 173 189 328V338L360 474V461L211 333L360 186Z" glyph-name="guillemotleft.cap" horiz-adv-x="429" /><glyph d="M234 108 43 268V277L234 419V407L64 272L234 120ZM322 142 169 268V277L322 387V375L190 272L322 154Z" glyph-name="guillemotleft.sc" horiz-adv-x="401" /><glyph d="M367 50 154 248V258L367 434V421L176 253L367 63ZM465 93 294 248V258L465 394V381L316 253L465 106Z" glyph-name="guillemotleft.tln" horiz-adv-x="640" /><glyph d="M357 253 166 421V434L379 258V248L166 50V63ZM217 253 68 381V394L239 258V248L68 93V106Z" glyph-name="guillemotright" horiz-adv-x="426" unicode="&#187;" /><glyph d="M358 333 167 501V514L380 338V328L167 130V143ZM218 333 69 461V474L240 338V328L69 173V186Z" glyph-name="guillemotright.cap" horiz-adv-x="429" /><glyph d="M308 272 138 407V419L328 277V268L138 108V120ZM182 272 49 375V387L203 277V268L49 142V154Z" glyph-name="guillemotright.sc" horiz-adv-x="372" /><glyph d="M464 253 273 421V434L486 258V248L273 50V63ZM324 253 175 381V394L346 258V248L175 93V106Z" glyph-name="guillemotright.tln" horiz-adv-x="640" /><glyph d="M225 0H25V10H120V740H25V750Q58 750 76.5 750.5Q95 751 104.5 752Q114 753 117.5 755Q121 757 123 760L130 757V353Q135 379 146 403.5Q157 428 176.5 447.5Q196 467 225 478.5Q254 490 293 490Q374 490 420 440Q466 390 466 283V10H561V0H361V10H456V283Q456 387 411.5 433.5Q367 480 293 480Q220 480 175 433Q130 386 130 281V10H225Z" glyph-name="h" horiz-adv-x="577" unicode="h" /><glyph d="M112 601 188 706Q203 728 211 742Q219 756 227 756Q235 756 235 749Q235 743 224.5 731.5Q214 720 197 698L124 601ZM228 601 312 695Q332 717 342.5 731Q353 745 361 745Q369 745 369 738Q369 733 354.5 721Q340 709 320 687L240 601Z" glyph-name="hungarumlaut" horiz-adv-x="488" unicode="&#733;" /><glyph d="M104 740H92L168 845Q183 867 191 881Q199 895 207 895Q215 895 215 888Q215 882 204.5 870.5Q194 859 177 837ZM230 740H218L302 834Q322 856 332.5 870Q343 884 351 884Q359 884 359 877Q359 872 344.5 860Q330 848 310 826Z" glyph-name="hungarumlaut.cap" horiz-adv-x="456" /><glyph d="M74 301H372V291H74Z" glyph-name="hyphen" horiz-adv-x="446" unicode="-" /><glyph d="M77 340H375V330H77Z" glyph-name="hyphen.cap" horiz-adv-x="452" /><glyph d="M67 281H365V271H67Z" glyph-name="hyphen.sc" horiz-adv-x="432" /><glyph d="M171 301H469V291H171Z" glyph-name="hyphen.tln" horiz-adv-x="640" /><glyph d="M140 10H235V0H35V10H130V470H35V480Q67 480 85.5 480.5Q104 481 113.5 482Q123 483 127 485Q131 487 133 490L140 487ZM147 640Q147 636 143.5 630Q140 624 130 624Q120 624 116.5 630Q113 636 113 640Q113 645 116.5 651Q120 657 130 657Q140 657 143.5 651Q147 645 147 640Z" glyph-name="i" horiz-adv-x="263" unicode="i" /><glyph d="M140 10H235V0H35V10H130V470H35V480Q67 480 85.5 480.5Q104 481 113.5 482Q123 483 127 485Q131 487 133 490L140 487ZM147 640Q147 636 143.5 630Q140 624 130 624Q120 624 116.5 630Q113 636 113 640Q113 645 116.5 651Q120 657 130 657Q140 657 143.5 651Q147 645 147 640Z" glyph-name="i.TRK" horiz-adv-x="263" /><glyph d="M140 10H235V0H35V10H130V470H35V480Q67 480 85.5 480.5Q104 481 113.5 482Q123 483 127 485Q131 487 133 490L140 487ZM147 640Q147 636 143.5 630Q140 624 130 624Q120 624 116.5 630Q113 636 113 640Q113 645 116.5 651Q120 657 130 657Q140 657 143.5 651Q147 645 147 640Z" glyph-name="i.dot" horiz-adv-x="263" /><glyph d="M137 601 211 695Q228 717 238 731Q248 745 255 745Q263 745 263 738Q263 733 250 721Q237 709 219 687L149 601ZM140 10H235V0H35V10H130V470H35V480Q67 480 85.5 480.5Q104 481 113.5 482Q123 483 127 485Q131 487 133 490L140 487Z" glyph-name="iacute" horiz-adv-x="263" unicode="&#237;" /><glyph d="M390 601 464 695Q481 717 491 731Q501 745 508 745Q516 745 516 738Q516 733 503 721Q490 709 472 687L402 601ZM158 601 232 695Q249 717 259 731Q269 745 276 745Q284 745 284 738Q284 733 271 721Q258 709 240 687L170 601ZM140 10H235V0H35V10H130V470H35V480Q67 480 85.5 480.5Q104 481 113.5 482Q123 483 127 485Q131 487 133 490L140 487ZM278 -260Q249 -260 226.5 -250.5Q204 -241 189 -225Q174 -209 166 -189Q158 -169 158 -148Q158 -131 173 -131Q188 -131 188 -145Q188 -153 181 -157Q174 -161 168 -161Q176 -206 207.5 -228Q239 -250 278 -250Q340 -250 366 -210Q392 -170 392 -72V470H297V480Q330 480 348.5 480.5Q367 481 376.5 482Q386 483 389 485Q392 487 395 490L402 487V-72Q402 -177 372.5 -218.5Q343 -260 278 -260Z" glyph-name="iacute_jacute" horiz-adv-x="500" /><glyph d="M391 601 465 695Q482 717 492 731Q502 745 509 745Q517 745 517 738Q517 733 504 721Q491 709 473 687L403 601ZM140 10H235V0H35V10H130V470H35V480Q67 480 85.5 480.5Q104 481 113.5 482Q123 483 127 485Q131 487 133 490L140 487ZM390 -260Q331 -260 297.5 -230Q264 -200 264 -158Q264 -141 279 -141Q294 -141 294 -155Q294 -163 287 -167Q280 -171 275 -171Q283 -214 317 -232Q351 -250 390 -250Q411 -250 432 -243.5Q453 -237 469.5 -222.5Q486 -208 496 -185Q506 -162 506 -129Q506 -98 497 -74.5Q488 -51 473 -35Q458 -19 438.5 -10.5Q419 -2 398 0V470H303V480Q346 480 370 481.5Q394 483 402 490L408 487V8Q428 4 447.5 -5Q467 -14 482 -30.5Q497 -47 506.5 -71Q516 -95 516 -129Q516 -165 505 -190Q494 -215 476 -230.5Q458 -246 435.5 -253Q413 -260 390 -260ZM131 601 205 695Q222 717 232 731Q242 745 249 745Q257 745 257 738Q257 733 244 721Q231 709 213 687L143 601Z" glyph-name="iacute_jacute.alt" horiz-adv-x="507" /><glyph d="M478 590H467L542 665Q559 682 569 693.5Q579 705 586 705Q593 705 593 697Q593 692 580.5 682.5Q568 673 550 656ZM150 590H139L214 665Q231 682 241 693.5Q251 705 258 705Q265 705 265 697Q265 692 252.5 682.5Q240 673 222 656ZM43 230V240H132V540H43V550H231V540H142V240H231V230ZM476 191Q476 147 467 110.5Q458 74 437.5 47.5Q417 21 383 6.5Q349 -8 299 -8Q256 -8 223.5 3Q191 14 169.5 31Q148 48 137 70Q126 92 126 114Q126 134 143 134Q158 134 158 118Q158 103 138 100Q147 69 166.5 49.5Q186 30 210 19.5Q234 9 258 5.5Q282 2 299 2Q345 2 377 15Q409 28 428.5 53Q448 78 457 113Q466 148 466 191V540H377V550H565V540H476Z" glyph-name="iacute_jacute.alt.sc" horiz-adv-x="600" /><glyph d="M569 590H558L633 665Q650 682 660 693.5Q670 705 677 705Q684 705 684 697Q684 692 671.5 682.5Q659 673 641 656ZM151 590H140L215 665Q232 682 242 693.5Q252 705 259 705Q266 705 266 697Q266 692 253.5 682.5Q241 673 223 656ZM50 0V10H139V540H50V550H238V540H149V10H238V0ZM567 182Q567 140 560.5 105.5Q554 71 538 45.5Q522 20 495 6Q468 -8 426 -8Q387 -8 360 4.5Q333 17 316 35Q299 53 291.5 74Q284 95 284 112Q284 131 300 131Q316 131 316 116Q316 100 296 97Q308 45 345.5 23.5Q383 2 426 2Q464 2 489.5 14.5Q515 27 530 50.5Q545 74 551 107Q557 140 557 181V540H468V550H656V540H567Z" glyph-name="iacute_jacute.sc" horiz-adv-x="692" /><glyph d="M6 602 123 744H133L246 602H233L128 734L19 602ZM140 10H235V0H35V10H130V470H35V480Q67 480 85.5 480.5Q104 481 113.5 482Q123 483 127 485Q131 487 133 490L140 487Z" glyph-name="icircumflex" horiz-adv-x="263" unicode="&#238;" /><glyph d="M70 640Q70 636 66.5 630Q63 624 53 624Q43 624 39.5 630Q36 636 36 640Q36 645 39.5 651Q43 657 53 657Q63 657 66.5 651Q70 645 70 640ZM220 640Q220 636 216.5 630Q213 624 203 624Q193 624 189.5 630Q186 636 186 640Q186 645 189.5 651Q193 657 203 657Q213 657 216.5 651Q220 645 220 640ZM140 10H235V0H35V10H130V470H35V480Q67 480 85.5 480.5Q104 481 113.5 482Q123 483 127 485Q131 487 133 490L140 487Z" glyph-name="idieresis" horiz-adv-x="263" unicode="&#239;" /><glyph d="M140 10H235V0H35V10H130V470H35V480Q67 480 85.5 480.5Q104 481 113.5 482Q123 483 127 485Q131 487 133 490L140 487ZM46 687Q28 709 15 721Q2 733 2 738Q2 745 10 745Q17 745 27 731Q37 717 54 695L128 601H116Z" glyph-name="igrave" horiz-adv-x="263" unicode="&#236;" /><glyph d="M153 640Q153 636 149.5 630Q146 624 136 624Q126 624 122.5 630Q119 636 119 640Q119 645 122.5 651Q126 657 136 657Q146 657 149.5 651Q153 645 153 640ZM22 -260Q-7 -260 -29.5 -250.5Q-52 -241 -67 -225Q-82 -209 -90 -189Q-98 -169 -98 -148Q-98 -131 -83 -131Q-68 -131 -68 -145Q-68 -153 -75 -157Q-82 -161 -88 -161Q-80 -206 -48.5 -228Q-17 -250 22 -250Q84 -250 110 -210Q136 -170 136 -72V470H41V480Q74 480 92.5 480.5Q111 481 120.5 482Q130 483 133 485Q136 487 139 490L146 487V-72Q146 -177 116.5 -218.5Q87 -260 22 -260Z" glyph-name="j" horiz-adv-x="244" unicode="j" /><glyph d="M143 640Q143 636 139.5 630Q136 624 126 624Q116 624 112.5 630Q109 636 109 640Q109 645 112.5 651Q116 657 126 657Q136 657 139.5 651Q143 645 143 640ZM112 -260Q53 -260 19.5 -230Q-14 -200 -14 -158Q-14 -141 1 -141Q16 -141 16 -155Q16 -163 9 -167Q2 -171 -3 -171Q5 -214 39 -232Q73 -250 112 -250Q133 -250 154 -243.5Q175 -237 191.5 -222.5Q208 -208 218 -185Q228 -162 228 -129Q228 -98 219 -74.5Q210 -51 195 -35Q180 -19 160.5 -10.5Q141 -2 120 0V470H25V480Q68 480 92 481.5Q116 483 124 490L130 487V8Q150 4 169.5 -5Q189 -14 204 -30.5Q219 -47 228.5 -71Q238 -95 238 -129Q238 -165 227 -190Q216 -215 198 -230.5Q180 -246 157.5 -253Q135 -260 112 -260Z" glyph-name="j.alt" horiz-adv-x="229" /><glyph d="M25 0V10H120V740H25V750Q55 750 73 750.5Q91 751 101.5 752Q112 753 116.5 755Q121 757 123 760L130 757V161L407 470H301V480H515V470H420L249 280L473 10H544V0H359V10H461L243 273L130 147V10H225V0Z" glyph-name="k" horiz-adv-x="546" unicode="k" /><glyph d="M437 470H130V161ZM25 0V10H120V740H25V750Q55 750 73 750.5Q91 751 101.5 752Q112 753 116.5 755Q121 757 123 760L130 757V480H451V470L255 273L473 10H544V0H359V10H461L248 266L130 147V10H225V0Z" glyph-name="k.alt" horiz-adv-x="532" /><glyph d="M28 10H123V740H28V750Q58 750 76 750.5Q94 751 104.5 752Q115 753 119.5 755Q124 757 126 760L133 757V10H228V0H28Z" glyph-name="l" horiz-adv-x="256" unicode="l" /><glyph d="M52 324V334L378 543V532L62 329L378 126V115Z" glyph-name="less" horiz-adv-x="460" unicode="&lt;" /><glyph d="M34 234V244L360 453V442L44 239L360 36V25Z" glyph-name="less.old" horiz-adv-x="418" /><glyph d="M42 279V289L333 455V443L56 284L333 124V112Z" glyph-name="less.sc" horiz-adv-x="411" /><glyph d="M142 324V334L468 543V532L152 329L468 126V115Z" glyph-name="less.tln" horiz-adv-x="640" /><glyph d="M149 234V244L475 453V442L159 239L475 36V25Z" glyph-name="less.ton" horiz-adv-x="640" /><glyph d="M483 186V320H92V330H493V186Z" glyph-name="logicalnot" horiz-adv-x="570" unicode="&#172;" /><glyph d="M480 136V270H89V280H490V136Z" glyph-name="logicalnot.old" horiz-adv-x="565" /><glyph d="M444 168V276H95V286H454V168Z" glyph-name="logicalnot.sc" horiz-adv-x="531" /><glyph d="M518 186V320H127V330H528V186Z" glyph-name="logicalnot.tln" horiz-adv-x="640" /><glyph d="M519 136V270H128V280H529V136Z" glyph-name="logicalnot.ton" horiz-adv-x="640" /><glyph d="M32 10H127V470H32V480Q64 480 83 480.5Q102 481 111.5 482Q121 483 124.5 485Q128 487 130 490L137 487V365Q145 422 180 456Q215 490 280 490Q335 490 376 460.5Q417 431 429 357Q449 490 576 490Q608 490 636 480.5Q664 471 684.5 449Q705 427 717 391Q729 355 729 303V10H824V0H629V10H719V302Q719 353 707.5 387Q696 421 676 441.5Q656 462 630.5 471Q605 480 576 480Q547 480 521 471.5Q495 463 475.5 442Q456 421 444.5 386.5Q433 352 433 301V10H523V0H333V10H423V302Q423 353 411.5 387Q400 421 380 441.5Q360 462 334.5 471Q309 480 280 480Q252 480 226.5 471.5Q201 463 181 442.5Q161 422 149 387.5Q137 353 137 301V10H227V0H32Z" glyph-name="m" horiz-adv-x="842" unicode="m" /><glyph d="M75 652H299V642H75Z" glyph-name="macron" horiz-adv-x="374" unicode="&#175;" /><glyph d="M75 792H299V782H75Z" glyph-name="macron.cap" horiz-adv-x="374" /><glyph d="M77 330H503V320H77Z" glyph-name="minus" horiz-adv-x="580" unicode="&#8722;" /><glyph d="M74 250H500V240H74Z" glyph-name="minus.old" horiz-adv-x="574" /><glyph d="M67 286H448V275H67Z" glyph-name="minus.sc" horiz-adv-x="515" /><glyph d="M107 330H533V320H107Z" glyph-name="minus.tln" horiz-adv-x="640" /><glyph d="M107 250H533V240H107Z" glyph-name="minus.ton" horiz-adv-x="640" /><glyph d="M140 -167Q140 -173 136.5 -177.5Q133 -182 125 -182Q116 -182 113 -177.5Q110 -173 110 -167Q110 -163 110.5 -159.5Q111 -156 112.5 -146.5Q114 -137 115 -116.5Q116 -96 117.5 -57Q119 -18 119.5 44.5Q120 107 120 200V470H25V480Q58 480 76 480.5Q94 481 104 482Q114 483 117 485Q120 487 123 490L130 487V203Q130 96 174 48Q218 0 293 0Q368 0 412 49Q456 98 456 204V470H361V480Q393 480 411.5 480Q430 480 440 481Q450 482 453.5 484Q457 486 459 490L466 487V15H561V5Q531 5 513.5 5Q496 5 485.5 3.5Q475 2 470.5 -1Q466 -4 463 -10L456 -7V127Q452 101 441 76.5Q430 52 410.5 32.5Q391 13 362 1.5Q333 -10 293 -10Q230 -10 188.5 20Q147 50 130 113Q130 7 132 -47.5Q134 -102 135.5 -126.5Q137 -151 138.5 -156Q140 -161 140 -167Z" glyph-name="mu" horiz-adv-x="584" unicode="&#181;" /><glyph d="M222 314 80 172 73 179 215 322 73 464 80 471 222 329 364 471 371 464 229 322 373 177 366 170Z" glyph-name="multiply" horiz-adv-x="447" unicode="&#215;" /><glyph d="M222 230 80 88 73 95 215 238 73 380 80 387 222 245 364 387 371 380 229 238 373 93 366 86Z" glyph-name="multiply.old" horiz-adv-x="446" /><glyph d="M191 272 82 156 75 162 185 278 77 393 84 400 192 286 299 399 306 393 198 279 309 161 302 154Z" glyph-name="multiply.sc" horiz-adv-x="385" /><glyph d="M319 314 177 172 170 179 312 322 170 464 177 471 319 329 461 471 468 464 326 322 470 177 463 170Z" glyph-name="multiply.tln" horiz-adv-x="640" /><glyph d="M319 230 177 88 170 95 312 238 170 380 177 387 319 245 461 387 468 380 326 238 470 93 463 86Z" glyph-name="multiply.ton" horiz-adv-x="640" /><glyph d="M232 0H32V10H127V470H32V480Q65 480 83.5 480.5Q102 481 111.5 482Q121 483 124.5 485Q128 487 130 490L137 487V353Q142 379 153 403.5Q164 428 183.5 447.5Q203 467 232 478.5Q261 490 300 490Q381 490 427 440Q473 390 473 283V10H568V0H368V10H463V283Q463 387 418.5 433.5Q374 480 300 480Q227 480 182 433Q137 386 137 281V10H232Z" glyph-name="n" horiz-adv-x="584" unicode="n" /><glyph d="M466 476Q466 523 450.5 562.5Q435 602 408 630.5Q381 659 344.5 674.5Q308 690 266 690Q221 690 184 673.5Q147 657 121 628Q95 599 80.5 560Q66 521 66 476Q66 429 80.5 390Q95 351 121.5 323.5Q148 296 184.5 281Q221 266 265 266Q306 266 342.5 280.5Q379 295 406.5 322.5Q434 350 450 389Q466 428 466 476ZM261 0Q316 0 355.5 21Q395 42 420.5 91.5Q446 141 458 223Q470 305 470 426Q461 380 440 347.5Q419 315 390.5 295Q362 275 329.5 265.5Q297 256 265 256Q216 256 177.5 272Q139 288 112 317.5Q85 347 70.5 387.5Q56 428 56 476Q56 521 70.5 561.5Q85 602 112 633Q139 664 178 682Q217 700 266 700Q307 700 345.5 686Q384 672 414 641Q444 610 462 559.5Q480 509 480 436Q480 307 467 221Q454 135 427 83.5Q400 32 359 11Q318 -10 261 -10Q215 -10 182 3.5Q149 17 128 36Q107 55 97 75Q87 95 87 107Q87 127 105 127Q122 127 122 110Q122 102 116 97Q110 92 102 90Q118 49 162 24.5Q206 0 261 0Z" glyph-name="nine" horiz-adv-x="547" unicode="9" /><glyph d="M316 160Q316 190 305.5 215Q295 240 277 258.5Q259 277 234.5 287Q210 297 182 297Q152 297 127 286.5Q102 276 84 257Q66 238 56.5 213.5Q47 189 47 160Q47 100 82 64Q117 28 181 28Q209 28 233.5 37.5Q258 47 276.5 64Q295 81 305.5 105.5Q316 130 316 160ZM177 -147Q251 -147 285.5 -82.5Q320 -18 320 125Q314 98 299.5 77.5Q285 57 265.5 44Q246 31 224 24.5Q202 18 180 18Q113 18 75 57.5Q37 97 37 160Q37 190 47 216.5Q57 243 75.5 263Q94 283 121 295Q148 307 182 307Q210 307 236.5 297.5Q263 288 283.5 266.5Q304 245 316.5 210.5Q329 176 329 126Q329 -25 292.5 -91Q256 -157 177 -157Q146 -157 123.5 -148.5Q101 -140 86.5 -128Q72 -116 65 -102.5Q58 -89 58 -79Q58 -63 72 -63Q85 -63 85 -77Q85 -90 71 -93Q82 -116 110.5 -131.5Q139 -147 177 -147Z" glyph-name="nine.inferior" horiz-adv-x="378" /><glyph d="M468 266Q468 313 452.5 352.5Q437 392 410 420.5Q383 449 346.5 464.5Q310 480 268 480Q223 480 186 463.5Q149 447 123 418Q97 389 82.5 350Q68 311 68 266Q68 219 82.5 180Q97 141 123.5 113.5Q150 86 186.5 71Q223 56 267 56Q308 56 344.5 70.5Q381 85 408.5 112.5Q436 140 452 179Q468 218 468 266ZM258 -170Q311 -170 351 -153.5Q391 -137 418 -94Q445 -51 458.5 24Q472 99 472 216Q463 170 442 137.5Q421 105 392.5 85Q364 65 331.5 55.5Q299 46 267 46Q218 46 179.5 62Q141 78 114 107.5Q87 137 72.5 177.5Q58 218 58 266Q58 311 72.5 351.5Q87 392 114 423Q141 454 180 472Q219 490 268 490Q309 490 347.5 476Q386 462 416 431Q446 400 464 349.5Q482 299 482 226Q482 100 467.5 21Q453 -58 424.5 -102.5Q396 -147 354.5 -163.5Q313 -180 258 -180Q213 -180 181 -166.5Q149 -153 128.5 -134Q108 -115 98 -95Q88 -75 88 -63Q88 -43 106 -43Q123 -43 123 -60Q123 -68 117 -73Q111 -78 102 -80Q110 -101 125.5 -117.5Q141 -134 162 -146Q183 -158 207.5 -164Q232 -170 258 -170Z" glyph-name="nine.old" horiz-adv-x="541" /><glyph d="M421 375Q421 453 373 500.5Q325 548 243 548Q203 548 170 534Q137 520 114 496.5Q91 473 78 441.5Q65 410 65 375Q65 338 78 307.5Q91 277 114 254.5Q137 232 170 219.5Q203 207 242 207Q278 207 310.5 218Q343 229 367.5 250Q392 271 406.5 302.5Q421 334 421 375ZM245 2Q294 2 327.5 18Q361 34 382 72.5Q403 111 413.5 174.5Q424 238 425 334Q416 295 397 268.5Q378 242 353 226.5Q328 211 299.5 204Q271 197 242 197Q199 197 164 210.5Q129 224 105 248Q81 272 68 304.5Q55 337 55 375Q55 411 68 444Q81 477 105 502.5Q129 528 164 543Q199 558 243 558Q281 558 315.5 546.5Q350 535 376.5 511Q403 487 418.5 450Q434 413 434 362Q434 250 423.5 178Q413 106 390.5 65Q368 24 332 8Q296 -8 245 -8Q202 -8 171 2.5Q140 13 120.5 28Q101 43 92 59Q83 75 83 85Q83 104 99 104Q115 104 115 89Q115 76 97 71Q114 39 152.5 20.5Q191 2 245 2Z" glyph-name="nine.sc" horiz-adv-x="498" /><glyph d="M316 750Q316 780 305.5 805Q295 830 277 848.5Q259 867 234.5 877Q210 887 182 887Q152 887 127 876.5Q102 866 84 847Q66 828 56.5 803.5Q47 779 47 750Q47 690 82 654Q117 618 181 618Q209 618 233.5 627.5Q258 637 276.5 654Q295 671 305.5 695.5Q316 720 316 750ZM177 443Q251 443 285.5 507.5Q320 572 320 715Q314 688 299.5 667.5Q285 647 265.5 634Q246 621 224 614.5Q202 608 180 608Q113 608 75 647.5Q37 687 37 750Q37 780 47 806.5Q57 833 75.5 853Q94 873 121 885Q148 897 182 897Q210 897 236.5 887.5Q263 878 283.5 856.5Q304 835 316.5 800.5Q329 766 329 716Q329 565 292.5 499Q256 433 177 433Q146 433 123.5 441.5Q101 450 86.5 462Q72 474 65 487.5Q58 501 58 511Q58 527 72 527Q85 527 85 513Q85 500 71 497Q82 474 110.5 458.5Q139 443 177 443Z" glyph-name="nine.superior" horiz-adv-x="378" /><glyph d="M512 476Q512 523 496.5 562.5Q481 602 454 630.5Q427 659 390.5 674.5Q354 690 312 690Q267 690 230 673.5Q193 657 167 628Q141 599 126.5 560Q112 521 112 476Q112 429 126.5 390Q141 351 167.5 323.5Q194 296 230.5 281Q267 266 311 266Q352 266 388.5 280.5Q425 295 452.5 322.5Q480 350 496 389Q512 428 512 476ZM307 0Q362 0 401.5 15.5Q441 31 466.5 77Q492 123 504 206.5Q516 290 516 426Q507 380 486 347.5Q465 315 436.5 295Q408 275 375.5 265.5Q343 256 311 256Q262 256 223.5 272Q185 288 158 317.5Q131 347 116.5 387.5Q102 428 102 476Q102 521 116.5 561.5Q131 602 158 633Q185 664 224 682Q263 700 312 700Q353 700 391.5 686Q430 672 460 641Q490 610 508 559.5Q526 509 526 436Q526 292 513 204Q500 116 473 68.5Q446 21 405 5.5Q364 -10 307 -10Q261 -10 228 3.5Q195 17 174 36Q153 55 143 75Q133 95 133 107Q133 127 151 127Q168 127 168 110Q168 102 162 97Q156 92 147 90Q155 69 170.5 52.5Q186 36 207.5 24Q229 12 254.5 6Q280 0 307 0Z" glyph-name="nine.tln" horiz-adv-x="640" /><glyph d="M518 266Q518 313 502.5 352.5Q487 392 460 420.5Q433 449 396.5 464.5Q360 480 318 480Q273 480 236 463.5Q199 447 173 418Q147 389 132.5 350Q118 311 118 266Q118 219 132.5 180Q147 141 173.5 113.5Q200 86 236.5 71Q273 56 317 56Q358 56 394.5 70.5Q431 85 458.5 112.5Q486 140 502 179Q518 218 518 266ZM308 -170Q361 -170 401 -153.5Q441 -137 468 -94Q495 -51 508.5 24Q522 99 522 216Q513 170 492 137.5Q471 105 442.5 85Q414 65 381.5 55.5Q349 46 317 46Q268 46 229.5 62Q191 78 164 107.5Q137 137 122.5 177.5Q108 218 108 266Q108 311 122.5 351.5Q137 392 164 423Q191 454 230 472Q269 490 318 490Q359 490 397.5 476Q436 462 466 431Q496 400 514 349.5Q532 299 532 226Q532 100 517.5 21Q503 -58 474.5 -102.5Q446 -147 404.5 -163.5Q363 -180 308 -180Q263 -180 231 -166.5Q199 -153 178.5 -134Q158 -115 148 -95Q138 -75 138 -63Q138 -43 156 -43Q173 -43 173 -60Q173 -68 167 -73Q161 -78 152 -80Q160 -101 175.5 -117.5Q191 -134 212 -146Q233 -158 257.5 -164Q282 -170 308 -170Z" glyph-name="nine.ton" horiz-adv-x="640" /><glyph glyph-name="nonbreakingspace.narrow" horiz-adv-x="194" unicode="&#8239;" /><glyph glyph-name="nonmarkingreturn" horiz-adv-x="250" unicode="" /><glyph d="M232 0H32V10H127V470H32V480Q65 480 83.5 480.5Q102 481 111.5 482Q121 483 124.5 485Q128 487 130 490L137 487V353Q142 379 153 403.5Q164 428 183.5 447.5Q203 467 232 478.5Q261 490 300 490Q381 490 427 440Q473 390 473 283V10H568V0H368V10H463V283Q463 387 418.5 433.5Q374 480 300 480Q227 480 182 433Q137 386 137 281V10H232ZM352 629Q328 629 313 641.5Q298 654 285 669.5Q272 685 257.5 697.5Q243 710 221 710Q194 710 179 692Q164 674 164 633H154Q154 672 170 696Q186 720 221 720Q245 720 261 707.5Q277 695 290 679.5Q303 664 317 651.5Q331 639 352 639Q370 639 381 645.5Q392 652 398.5 663Q405 674 407 687.5Q409 701 409 716H419Q419 665 400 647Q381 629 352 629Z" glyph-name="ntilde" horiz-adv-x="584" unicode="&#241;" /><glyph d="M459 451H226L164 219H397ZM394 209H161L106 0H96L151 209H42V219H154L216 451H81V461H218L279 690H289L228 461H461L522 690H532L471 461H580V451H469L407 219H541V209H404L349 0H339Z" glyph-name="numbersign" horiz-adv-x="623" unicode="#" /><glyph d="M406 321H223L165 168H348ZM344 158H161L101 0H91L151 158H45V168H155L213 321H84V331H217L273 480H283L227 331H410L466 480H476L420 331H533V321H416L358 168H494V158H354L294 0H284Z" glyph-name="numbersign.old" horiz-adv-x="578" /><glyph d="M414 359H207L153 176H359ZM356 166H150L101 0H91L140 166H43V176H143L198 359H78V369H201L255 550H264L210 369H417L471 550H481L427 369H524V359H424L370 176H489V166H367L317 0H307Z" glyph-name="numbersign.sc" horiz-adv-x="567" /><glyph d="M467 451H234L172 219H405ZM402 209H169L114 0H104L159 209H50V219H162L224 451H89V461H226L287 690H297L236 461H469L530 690H540L479 461H588V451H477L415 219H549V209H412L357 0H347Z" glyph-name="numbersign.tln" horiz-adv-x="640" /><glyph d="M437 321H254L196 168H379ZM375 158H192L132 0H122L182 158H76V168H186L244 321H115V331H248L304 480H314L258 331H441L497 480H507L451 331H564V321H447L389 168H525V158H385L325 0H315Z" glyph-name="numbersign.ton" horiz-adv-x="640" /><glyph d="M262 -10Q212 -10 173.5 10Q135 30 108.5 64.5Q82 99 68.5 144Q55 189 55 240Q55 291 68.5 336Q82 381 108.5 415.5Q135 450 173.5 470Q212 490 262 490Q312 490 350.5 470Q389 450 415.5 415.5Q442 381 455.5 336Q469 291 469 240Q469 189 455.5 144Q442 99 415.5 64.5Q389 30 350.5 10Q312 -10 262 -10ZM262 480Q214 480 177.5 461Q141 442 116 409Q91 376 78 332.5Q65 289 65 240Q65 191 78 147.5Q91 104 116 71Q141 38 177.5 19Q214 0 262 0Q310 0 346.5 19Q383 38 408 71Q433 104 446 147.5Q459 191 459 240Q459 289 446 332.5Q433 376 408 409Q383 442 346.5 461Q310 480 262 480Z" glyph-name="o" horiz-adv-x="524" unicode="o" /></font>
</defs>
</svg>
