<?xml version="1.0" standalone="no"?><!DOCTYPE svg PUBLIC "-//W3C//DTD SVG 1.1//EN" "http://www.w3.org/Graphics/SVG/1.1/DTD/svg11.dtd" ><svg version="1.1" xmlns="http://www.w3.org/2000/svg"><defs><font horiz-adv-x="0" id="font"><font-face ascent="750" bbox="-220 -306 2905 1119" cap-height="690" descent="-250" font-family="KazimirText RBC" font-stretch="normal" font-style="italic" font-weight="900" units-per-em="1000" x-height="500" /><missing-glyph d="M83 650H746V0H83ZM103 20H726V630H103ZM415 316 296 197 273 220 392 338 276 454 298 476 414 360 533 479 555 457 437 338 557 218 535 196Z" horiz-adv-x="815" /><glyph glyph-name=".null" horiz-adv-x="0" /><glyph d="M304 550 203 286H340ZM156 0H-28L-16 100H29L255 690H530L611 100H653L641 0H306L318 100H366L353 196H169L132 100H168Z" glyph-name="A" horiz-adv-x="679" unicode="A" /><glyph d="M304 519 208 286H337ZM-29 0 -17 100H29L228 590H160L173 690H609L596 590H538L609 100H652L640 0H305L317 100H364L350 196H172L132 100H167L155 0Z" glyph-name="A.alt" horiz-adv-x="679" /><glyph d="M260 406 185 235H288ZM-27 0 -16 94H26L182 456H125L137 550H549L537 456H491L551 94H589L578 0H263L274 94H311L302 151H149L124 94H147L136 0Z" glyph-name="A.alt.sc" horiz-adv-x="618" /><glyph d="M258 431 178 235H290ZM135 0H-28L-17 94H21L206 550H479L553 94H588L577 0H263L274 94H313L304 151H143L120 94H146Z" glyph-name="A.sc" horiz-adv-x="614" /><glyph d="M415 590 242 286H384L421 590ZM163 0H-41L-29 100H28L307 590H236L249 690H962L933 453H818L821 484Q825 514 823.5 534Q822 554 812.5 566.5Q803 579 784 584.5Q765 590 733 590H666L642 395L787 410L772 285L631 300L606 100H665Q727 100 757 123.5Q787 147 795 214L799 242H914L884 0H294L306 100H361L373 196H191L136 100H175Z" glyph-name="AE" horiz-adv-x="956" unicode="&#198;" /><glyph d="M303 519 207 286H336ZM-30 0 -18 100H28L227 590H159L172 690H933L904 453H789L792 484Q796 514 794.5 534Q793 554 783.5 566.5Q774 579 755 584.5Q736 590 704 590H537L566 395H671L680 465H755L726 230H651L660 300H579L608 100H636Q698 100 728 123.5Q758 147 766 214L770 242H885L855 0H304L316 100H363L349 196H171L131 100H166L154 0Z" glyph-name="AE.alt" horiz-adv-x="927" /><glyph d="M253 392 185 235H282ZM-28 0 -16 94H25L181 456H121L133 550H838L814 351H703L707 379Q713 420 699.5 438Q686 456 633 456H485L509 320H600L607 374H677L653 178H583L589 231H525L549 94H586Q612 94 629.5 97.5Q647 101 658.5 110.5Q670 120 677 136Q684 152 687 177L691 203H802L777 0H260L271 94H308L297 151H148L124 94H147L136 0Z" glyph-name="AE.alt.sc" horiz-adv-x="846" /><glyph d="M223 235H340L367 456H365ZM151 0H-33L-22 94H28L261 456H197L209 550H867L843 351H732L735 380Q737 400 736 414.5Q735 429 727.5 438Q720 447 704.5 451.5Q689 456 662 456H607L590 320L711 334L698 218L580 231L563 94H605Q657 94 683 109.5Q709 125 716 175L720 203H831L806 0H266L277 94H323L330 151H169L132 94H162Z" glyph-name="AE.sc" horiz-adv-x="875" /><glyph d="M385 740H308L376 809Q389 822 403 836Q417 850 434 862Q451 874 472.5 882Q494 890 521 890Q553 890 568.5 878Q584 866 584 845Q584 817 563 797.5Q542 778 497 767ZM304 550 203 286H340ZM156 0H-28L-16 100H29L255 690H530L611 100H653L641 0H306L318 100H366L353 196H169L132 100H168Z" glyph-name="Aacute" horiz-adv-x="679" unicode="&#193;" /><glyph d="M394 740H317L385 809Q398 822 412 836Q426 850 443 862Q460 874 481.5 882Q503 890 530 890Q562 890 577.5 878Q593 866 593 845Q593 817 572 797.5Q551 778 506 767ZM304 519 208 286H337ZM-29 0 -17 100H29L228 590H160L173 690H609L596 590H538L609 100H652L640 0H305L317 100H364L350 196H172L132 100H167L155 0Z" glyph-name="Aacute.alt" horiz-adv-x="679" /><glyph d="M344 583H270L329 631Q341 641 354 654Q367 667 383.5 678Q400 689 421 697Q442 705 469 705Q528 705 528 667Q528 613 445 598ZM260 406 185 235H288ZM-27 0 -16 94H26L182 456H125L137 550H549L537 456H491L551 94H589L578 0H263L274 94H311L302 151H149L124 94H147L136 0Z" glyph-name="Aacute.alt.sc" horiz-adv-x="618" /><glyph d="M332 593H259L318 641Q330 651 343 664Q356 677 372.5 688Q389 699 409.5 707Q430 715 457 715Q516 715 516 677Q516 623 433 608ZM258 431 178 235H290ZM135 0H-28L-17 94H21L206 550H479L553 94H588L577 0H263L274 94H313L304 151H143L120 94H146Z" glyph-name="Aacute.sc" horiz-adv-x="614" /><glyph d="M304 550 203 286H340ZM156 0H-28L-16 100H29L255 690H530L611 100H653L641 0H306L318 100H366L353 196H169L132 100H168ZM395 790 318 740H201L351 876H467L578 740H461Z" glyph-name="Acircumflex" horiz-adv-x="679" unicode="&#194;" /><glyph d="M394 790 317 740H200L350 876H466L577 740H460ZM304 519 208 286H337ZM-29 0 -17 100H29L228 590H160L173 690H609L596 590H538L609 100H652L640 0H305L317 100H364L350 196H172L132 100H167L155 0Z" glyph-name="Acircumflex.alt" horiz-adv-x="679" /><glyph d="M344 624 281 586H166L298 695H413L514 586H398ZM260 406 185 235H288ZM-27 0 -16 94H26L182 456H125L137 550H549L537 456H491L551 94H589L578 0H263L274 94H311L302 151H149L124 94H147L136 0Z" glyph-name="Acircumflex.alt.sc" horiz-adv-x="618" /><glyph d="M342 634 280 596H165L297 705H412L513 596H397ZM258 431 178 235H290ZM135 0H-28L-17 94H21L206 550H479L553 94H588L577 0H263L274 94H313L304 151H143L120 94H146Z" glyph-name="Acircumflex.sc" horiz-adv-x="614" /><glyph d="M304 550 203 286H340ZM156 0H-28L-16 100H29L255 690H530L611 100H653L641 0H306L318 100H366L353 196H169L132 100H168ZM597 835Q597 795 570 769.5Q543 744 502 744Q467 744 445.5 764Q424 784 424 817Q424 857 451 882.5Q478 908 518 908Q553 908 575 888Q597 868 597 835ZM377 835Q377 795 350 769.5Q323 744 282 744Q247 744 225.5 764Q204 784 204 817Q204 857 231 882.5Q258 908 298 908Q333 908 355 888Q377 868 377 835Z" glyph-name="Adieresis" horiz-adv-x="679" unicode="&#196;" /><glyph d="M304 519 208 286H337ZM-29 0 -17 100H29L228 590H160L173 690H609L596 590H538L609 100H652L640 0H305L317 100H364L350 196H172L132 100H167L155 0ZM596 836Q596 796 569 770.5Q542 745 501 745Q466 745 444.5 765Q423 785 423 818Q423 858 450 883.5Q477 909 517 909Q552 909 574 889Q596 869 596 836ZM376 836Q376 796 349 770.5Q322 745 281 745Q246 745 224.5 765Q203 785 203 818Q203 858 230 883.5Q257 909 297 909Q332 909 354 889Q376 869 376 836Z" glyph-name="Adieresis.alt" horiz-adv-x="679" /><glyph d="M535 669Q535 630 508.5 607.5Q482 585 443 585Q410 585 389.5 601.5Q369 618 369 649Q368 687 394.5 710Q421 733 460 733Q492 733 513.5 716.5Q535 700 535 669ZM333 669Q333 630 306.5 607.5Q280 585 241 585Q208 585 187.5 601.5Q167 618 166 649Q166 687 192.5 710Q219 733 258 733Q290 733 311.5 716.5Q333 700 333 669ZM260 406 185 235H288ZM-27 0 -16 94H26L182 456H125L137 550H549L537 456H491L551 94H589L578 0H263L274 94H311L302 151H149L124 94H147L136 0Z" glyph-name="Adieresis.alt.sc" horiz-adv-x="618" /><glyph d="M534 686Q534 648 507.5 625Q481 602 442 602Q409 602 388 619Q367 636 367 667Q367 705 393.5 727.5Q420 750 458 750Q491 750 512.5 733.5Q534 717 534 686ZM332 686Q332 647 305.5 624.5Q279 602 240 602Q206 602 185.5 619Q165 636 165 667Q165 705 191.5 727.5Q218 750 256 750Q288 750 310 733.5Q332 717 332 686ZM258 431 178 235H290ZM135 0H-28L-17 94H21L206 550H479L553 94H588L577 0H263L274 94H313L304 151H143L120 94H146Z" glyph-name="Adieresis.sc" horiz-adv-x="614" /><glyph d="M304 550 203 286H340ZM156 0H-28L-16 100H29L255 690H530L611 100H653L641 0H306L318 100H366L353 196H169L132 100H168ZM277 767Q240 776 219.5 796Q199 816 199 839Q199 860 217 875Q235 890 270 890Q297 890 316.5 882.5Q336 875 351.5 863Q367 851 379.5 836.5Q392 822 403 809L463 740H386Z" glyph-name="Agrave" horiz-adv-x="679" unicode="&#192;" /><glyph d="M286 767Q249 776 228.5 796Q208 816 208 839Q208 860 226 875Q244 890 279 890Q306 890 325.5 882.5Q345 875 360.5 863Q376 851 388.5 836.5Q401 822 412 809L472 740H395ZM304 519 208 286H337ZM-29 0 -17 100H29L228 590H160L173 690H609L596 590H538L609 100H652L640 0H305L317 100H364L350 196H172L132 100H167L155 0Z" glyph-name="Agrave.alt" horiz-adv-x="679" /><glyph d="M250 598Q216 604 196 621.5Q176 639 176 661Q175 679 192 692Q209 705 242 705Q268 705 287.5 697.5Q307 690 322 678.5Q337 667 348.5 654.5Q360 642 370 631L423 583H350ZM260 406 185 235H288ZM-27 0 -16 94H26L182 456H125L137 550H549L537 456H491L551 94H589L578 0H263L274 94H311L302 151H149L124 94H147L136 0Z" glyph-name="Agrave.alt.sc" horiz-adv-x="618" /><glyph d="M239 608Q205 614 184.5 631.5Q164 649 164 671Q164 689 180.5 702Q197 715 231 715Q257 715 276.5 707.5Q296 700 311 688.5Q326 677 337.5 664.5Q349 652 359 641L412 593H339ZM258 431 178 235H290ZM135 0H-28L-17 94H21L206 550H479L553 94H588L577 0H263L274 94H313L304 151H143L120 94H146Z" glyph-name="Agrave.sc" horiz-adv-x="614" /><glyph d="M304 550 203 286H340ZM156 0H-28L-16 100H29L255 690H530L611 100H653L641 0H306L318 100H366L353 196H169L132 100H168ZM386 726Q335 726 307.5 752.5Q280 779 280 820Q280 871 315 903.5Q350 936 412 936Q463 936 490.5 909.5Q518 883 518 842Q518 791 483 758.5Q448 726 386 726ZM402 861Q383 861 373.5 851.5Q364 842 364 828Q364 817 372.5 809Q381 801 396 801Q415 801 424.5 810.5Q434 820 434 834Q434 845 425.5 853Q417 861 402 861Z" glyph-name="Aring" horiz-adv-x="679" unicode="&#197;" /><glyph d="M304 519 208 286H337ZM-29 0 -17 100H29L228 590H160L173 690H609L596 590H538L609 100H652L640 0H305L317 100H364L350 196H172L132 100H167L155 0ZM393 736Q342 736 314.5 762.5Q287 789 287 830Q287 881 322 913.5Q357 946 419 946Q470 946 497.5 919.5Q525 893 525 852Q525 801 490 768.5Q455 736 393 736ZM409 871Q390 871 380.5 861.5Q371 852 371 838Q371 827 379.5 819Q388 811 403 811Q422 811 431.5 820.5Q441 830 441 844Q441 855 432.5 863Q424 871 409 871Z" glyph-name="Aring.alt" horiz-adv-x="679" /><glyph d="M344 568Q296 568 270.5 591Q245 614 244 649Q244 694 276 721Q308 748 366 748Q414 748 439.5 725Q465 702 466 667Q466 622 434 595Q402 568 344 568ZM357 680Q340 680 332 673Q324 666 324 656Q324 648 331.5 642Q339 636 353 636Q370 636 378 643Q386 650 386 660Q386 668 378.5 674Q371 680 357 680ZM260 406 185 235H288ZM-27 0 -16 94H26L182 456H125L137 550H549L537 456H491L551 94H589L578 0H263L274 94H311L302 151H149L124 94H147L136 0Z" glyph-name="Aring.alt.sc" horiz-adv-x="618" /><glyph d="M335 582Q287 582 261 605Q235 628 235 663Q235 709 267.5 735.5Q300 762 357 762Q405 762 431 739Q457 716 457 681Q457 636 425 609Q393 582 335 582ZM348 694Q331 694 323 687Q315 680 315 670Q316 662 323 656Q330 650 344 650Q361 650 369 657Q377 664 377 674Q377 682 369.5 688Q362 694 348 694ZM258 431 178 235H290ZM135 0H-28L-17 94H21L206 550H479L553 94H588L577 0H263L274 94H313L304 151H143L120 94H146Z" glyph-name="Aring.sc" horiz-adv-x="614" /><glyph d="M304 550 203 286H340ZM156 0H-28L-16 100H29L255 690H530L611 100H653L641 0H306L318 100H366L353 196H169L132 100H168ZM467 748Q448 748 431 753.5Q414 759 399.5 765Q385 771 372.5 776.5Q360 782 348 782Q330 782 319 772Q308 762 306 747H241Q259 891 357 891Q378 891 395 885.5Q412 880 426.5 874Q441 868 453.5 862.5Q466 857 478 857Q497 857 507 866.5Q517 876 519 891H584Q580 855 572.5 828Q565 801 552 783.5Q539 766 518.5 757Q498 748 467 748Z" glyph-name="Atilde" horiz-adv-x="679" unicode="&#195;" /><glyph d="M450 748Q431 748 414 753.5Q397 759 382.5 765Q368 771 355.5 776.5Q343 782 331 782Q313 782 302 772Q291 762 289 747H224Q242 891 340 891Q361 891 378 885.5Q395 880 409.5 874Q424 868 436.5 862.5Q449 857 461 857Q480 857 490 866.5Q500 876 502 891H567Q563 855 555.5 828Q548 801 535 783.5Q522 766 501.5 757Q481 748 450 748ZM304 519 208 286H337ZM-29 0 -17 100H29L228 590H160L173 690H609L596 590H538L609 100H652L640 0H305L317 100H364L350 196H172L132 100H167L155 0Z" glyph-name="Atilde.alt" horiz-adv-x="679" /><glyph d="M395 597Q361 597 335 608Q309 619 289 619Q273 619 263.5 613Q254 607 253 596H190Q198 660 224 689.5Q250 719 295 719Q314 719 329 715.5Q344 712 357 708Q370 704 381.5 700.5Q393 697 404 697Q436 697 439 719H501Q494 656 472.5 626.5Q451 597 395 597ZM260 406 185 235H288ZM-27 0 -16 94H26L182 456H125L137 550H549L537 456H491L551 94H589L578 0H263L274 94H311L302 151H149L124 94H147L136 0Z" glyph-name="Atilde.alt.sc" horiz-adv-x="618" /><glyph d="M409 599Q375 599 349 610Q323 621 303 621Q287 621 277.5 615Q268 609 267 598H204Q212 662 238 691.5Q264 721 309 721Q328 721 343.5 717.5Q359 714 372 710Q385 706 396 702.5Q407 699 418 699Q450 699 453 721H516Q512 690 505.5 667Q499 644 487 629Q475 614 456.5 606.5Q438 599 409 599ZM258 431 178 235H290ZM135 0H-28L-17 94H21L206 550H479L553 94H588L577 0H263L274 94H313L304 151H143L120 94H146Z" glyph-name="Atilde.sc" horiz-adv-x="614" /><glyph d="M22 100H77L137 590H82L95 690H487Q537 690 581.5 681Q626 672 659 653.5Q692 635 711.5 606.5Q731 578 731 540Q731 505 718 474Q705 443 677.5 419Q650 395 608 379.5Q566 364 509 360Q554 355 592 344.5Q630 334 658 316Q686 298 702 272Q718 246 718 211Q718 114 637.5 57Q557 0 407 0H10ZM383 595 359 398H376Q398 398 417.5 407Q437 416 452 431.5Q467 447 475.5 467.5Q484 488 484 510Q484 534 476.5 550.5Q469 567 456.5 577Q444 587 428.5 591Q413 595 398 595ZM348 308 322 95H328Q354 95 379.5 102Q405 109 425 124Q445 139 457 162.5Q469 186 469 220Q469 245 460 261.5Q451 278 435.5 288.5Q420 299 399.5 303.5Q379 308 356 308Z" glyph-name="B" horiz-adv-x="750" unicode="B" /><glyph d="M17 94H62L106 456H61L73 550H443Q488 550 528 543Q568 536 598.5 520.5Q629 505 647 481Q665 457 665 422Q665 398 653.5 375Q642 352 617 333Q592 314 553.5 301.5Q515 289 461 287Q553 282 604.5 253.5Q656 225 656 167Q656 93 584 46.5Q512 0 377 0H5ZM347 461 331 324H346Q360 324 373.5 329.5Q387 335 398 345Q409 355 416 369Q423 383 423 401Q423 435 404.5 448Q386 461 360 461ZM320 239 302 89H311Q328 89 346 93Q364 97 378.5 107Q393 117 402.5 132.5Q412 148 412 172Q412 193 405.5 206Q399 219 387.5 226.5Q376 234 361.5 236.5Q347 239 332 239Z" glyph-name="B.sc" horiz-adv-x="688" /><glyph d="M465 -10 439 40Q409 17 377 3.5Q345 -10 291 -10Q232 -10 184.5 11Q137 32 104 70.5Q71 109 53 162.5Q35 216 35 282Q35 371 60.5 447.5Q86 524 131.5 580Q177 636 239.5 668Q302 700 376 700Q430 700 462.5 686Q495 672 511 654L548 699H653L622 443H507V464Q507 521 490.5 558Q474 595 427 595Q393 595 366 564Q339 533 320 483Q301 433 291 369.5Q281 306 281 241Q281 163 303 129Q325 95 365 95Q392 95 412.5 108.5Q433 122 447.5 144.5Q462 167 471.5 195Q481 223 487 252H602L570 -10Z" glyph-name="C" horiz-adv-x="643" unicode="C" /><glyph d="M407 -8 384 32Q363 16 334 4Q305 -8 254 -8Q202 -8 159.5 8Q117 24 86 53.5Q55 83 38 125.5Q21 168 21 221Q21 296 43.5 358Q66 420 107 464.5Q148 509 204.5 533.5Q261 558 329 558Q374 558 401.5 546.5Q429 535 440 521L472 557H575L550 346H439V360Q439 381 436 399.5Q433 418 426.5 431.5Q420 445 407.5 452.5Q395 460 375 460Q348 460 326.5 435.5Q305 411 291 371Q277 331 269.5 281.5Q262 232 262 182Q262 133 279.5 111.5Q297 90 328 90Q351 90 367 101Q383 112 394.5 129Q406 146 413 167Q420 188 424 208H536L509 -8Z" glyph-name="C.sc" horiz-adv-x="576" /><glyph d="M299 -218Q286 -218 269 -217.5Q252 -217 235.5 -215Q219 -213 203.5 -209.5Q188 -206 178 -200L188 -120Q203 -136 236 -136Q250 -136 261 -128.5Q272 -121 272 -110Q272 -93 257.5 -87.5Q243 -82 219 -82L221 -65L248 -7Q199 1 159.5 24.5Q120 48 92 85.5Q64 123 49.5 173Q35 223 35 282Q35 371 60.5 447.5Q86 524 131.5 580Q177 636 239.5 668Q302 700 376 700Q430 700 462.5 686Q495 672 511 654L548 699H653L622 443H507V464Q507 521 490.5 558Q474 595 427 595Q393 595 366 564Q339 533 320 483Q301 433 291 369.5Q281 306 281 241Q281 163 303 129Q325 95 365 95Q392 95 412.5 108.5Q433 122 447.5 144.5Q462 167 471.5 195Q481 223 487 252H602L570 -10H465L439 40Q422 27 405.5 17Q389 7 369 1L350 -40Q388 -45 413 -63Q438 -81 438 -116Q438 -161 400 -189.5Q362 -218 299 -218Z" glyph-name="Ccedilla" horiz-adv-x="643" unicode="&#199;" /><glyph d="M269 -180Q257 -180 241 -179.5Q225 -179 209 -177.5Q193 -176 178.5 -173Q164 -170 154 -165L163 -91Q171 -99 181.5 -101.5Q192 -104 206 -104Q217 -104 226.5 -98.5Q236 -93 235 -85Q235 -72 222.5 -68.5Q210 -65 190 -65L192 -52L215 -5Q127 6 74 65Q21 124 21 221Q21 296 43.5 358Q66 420 107 464.5Q148 509 204.5 533.5Q261 558 329 558Q374 558 401.5 546.5Q429 535 440 521L472 557H575L550 346H439V360Q439 381 436 399.5Q433 418 426.5 431.5Q420 445 407.5 452.5Q395 460 375 460Q348 460 326.5 435.5Q305 411 291 371Q277 331 269.5 281.5Q262 232 262 182Q262 133 279.5 111.5Q297 90 328 90Q351 90 367 101Q383 112 394.5 129Q406 146 413 167Q420 188 424 208H536L509 -8H407L384 32Q373 24 361.5 17Q350 10 334 4L316 -32Q351 -36 374 -50.5Q397 -65 397 -94Q397 -132 361.5 -156Q326 -180 269 -180Z" glyph-name="Ccedilla.sc" horiz-adv-x="576" /><glyph d="M10 0 22 100H77L137 590H82L95 690H417Q509 690 573 667Q637 644 677.5 605Q718 566 736.5 515Q755 464 755 408Q755 335 731.5 262Q708 189 657 130.5Q606 72 525 36Q444 0 330 0ZM322 100H355Q387 100 415 127.5Q443 155 463.5 201Q484 247 495.5 305.5Q507 364 507 426Q507 512 480 551Q453 590 415 590H382Z" glyph-name="D" horiz-adv-x="768" unicode="D" /><glyph d="M5 0 17 94H62L106 456H61L73 550H371Q455 550 513.5 532.5Q572 515 609.5 484.5Q647 454 664 413Q681 372 681 325Q681 273 661.5 215.5Q642 158 597 110Q552 62 479 31Q406 0 299 0ZM302 94H326Q351 94 371.5 116Q392 138 407 173.5Q422 209 430 253Q438 297 438 341Q438 401 418 428.5Q398 456 372 456H346Z" glyph-name="D.sc" horiz-adv-x="697" /><glyph d="M22 100H77L137 590H82L95 690H678L649 453H534L537 484Q541 514 539.5 534Q538 554 528.5 566.5Q519 579 500 584.5Q481 590 449 590H382L358 395L503 410L488 285L347 300L322 100H381Q443 100 473 123.5Q503 147 511 214L515 242H630L600 0H10Z" glyph-name="E" horiz-adv-x="672" unicode="E" /><glyph d="M10 0 22 100H77L137 590H82L95 690H678L649 453H534L537 484Q541 514 539.5 534Q538 554 528.5 566.5Q519 579 500 584.5Q481 590 449 590H382L358 395H416L425 465H500L471 230H396L405 300H347L322 100H381Q443 100 473 123.5Q503 147 511 214L515 242H630L600 0Z" glyph-name="E.alt" horiz-adv-x="672" /><glyph d="M5 0 17 94H62L106 456H61L73 550H607L582 351H471L474 378Q476 398 475 412.5Q474 427 466.5 436.5Q459 446 443.5 451Q428 456 401 456H346L330 320H369L376 374H445L421 178H351L358 231H319L302 94H357Q405 94 426 111Q447 128 455 177L459 203H570L545 0Z" glyph-name="E.alt.sc" horiz-adv-x="614" /><glyph d="M17 94H62L106 456H61L73 550H607L582 351H471L474 379Q476 400 475 414.5Q474 429 466.5 438Q459 447 443.5 451.5Q428 456 401 456H346L330 320L450 334L437 218L319 231L302 94H344Q396 94 421.5 110Q447 126 455 176L459 203H570L545 0H5Z" glyph-name="E.sc" horiz-adv-x="614" /><glyph d="M22 100H77L137 590H82L95 690H678L649 453H534L537 484Q541 514 539.5 534Q538 554 528.5 566.5Q519 579 500 584.5Q481 590 449 590H382L358 395L503 410L488 285L347 300L322 100H381Q443 100 473 123.5Q503 147 511 214L515 242H630L600 0H10ZM403 740H326L394 809Q407 822 421 836Q435 850 452 862Q469 874 490.5 882Q512 890 539 890Q571 890 586.5 878Q602 866 602 845Q602 817 581 797.5Q560 778 515 767Z" glyph-name="Eacute" horiz-adv-x="672" unicode="&#201;" /><glyph d="M403 740H326L394 809Q407 822 421 836Q435 850 452 862Q469 874 490.5 882Q512 890 539 890Q571 890 586.5 878Q602 866 602 845Q602 817 581 797.5Q560 778 515 767ZM10 0 22 100H77L137 590H82L95 690H678L649 453H534L537 484Q541 514 539.5 534Q538 554 528.5 566.5Q519 579 500 584.5Q481 590 449 590H382L358 395H416L425 465H500L471 230H396L405 300H347L322 100H381Q443 100 473 123.5Q503 147 511 214L515 242H630L600 0Z" glyph-name="Eacute.alt" horiz-adv-x="672" /><glyph d="M352 583H279L338 631Q350 641 363 654Q376 667 392.5 678Q409 689 429.5 697Q450 705 477 705Q535 705 537 667Q537 613 454 598ZM5 0 17 94H62L106 456H61L73 550H607L582 351H471L474 378Q476 398 475 412.5Q474 427 466.5 436.5Q459 446 443.5 451Q428 456 401 456H346L330 320H369L376 374H445L421 178H351L358 231H319L302 94H357Q405 94 426 111Q447 128 455 177L459 203H570L545 0Z" glyph-name="Eacute.alt.sc" horiz-adv-x="614" /><glyph d="M354 593H280L339 641Q351 651 364 664Q377 677 393.5 688Q410 699 431 707Q452 715 479 715Q538 715 538 677Q538 623 455 608ZM17 94H62L106 456H61L73 550H607L582 351H471L474 379Q476 400 475 414.5Q474 429 466.5 438Q459 447 443.5 451.5Q428 456 401 456H346L330 320L450 334L437 218L319 231L302 94H344Q396 94 421.5 110Q447 126 455 176L459 203H570L545 0H5Z" glyph-name="Eacute.sc" horiz-adv-x="614" /><glyph d="M22 100H77L137 590H82L95 690H678L649 453H534L537 484Q541 514 539.5 534Q538 554 528.5 566.5Q519 579 500 584.5Q481 590 449 590H382L358 395L503 410L488 285L347 300L322 100H381Q443 100 473 123.5Q503 147 511 214L515 242H630L600 0H10ZM408 790 331 740H214L364 876H480L591 740H474Z" glyph-name="Ecircumflex" horiz-adv-x="672" unicode="&#202;" /><glyph d="M411 790 334 740H217L367 876H483L594 740H477ZM10 0 22 100H77L137 590H82L95 690H678L649 453H534L537 484Q541 514 539.5 534Q538 554 528.5 566.5Q519 579 500 584.5Q481 590 449 590H382L358 395H416L425 465H500L471 230H396L405 300H347L322 100H381Q443 100 473 123.5Q503 147 511 214L515 242H630L600 0Z" glyph-name="Ecircumflex.alt" horiz-adv-x="672" /><glyph d="M360 624 298 586H182L315 695H430L530 586H415ZM5 0 17 94H62L106 456H61L73 550H607L582 351H471L474 378Q476 398 475 412.5Q474 427 466.5 436.5Q459 446 443.5 451Q428 456 401 456H346L330 320H369L376 374H445L421 178H351L358 231H319L302 94H357Q405 94 426 111Q447 128 455 177L459 203H570L545 0Z" glyph-name="Ecircumflex.alt.sc" horiz-adv-x="614" /><glyph d="M356 634 293 596H178L310 705H425L526 596H410ZM17 94H62L106 456H61L73 550H607L582 351H471L474 379Q476 400 475 414.5Q474 429 466.5 438Q459 447 443.5 451.5Q428 456 401 456H346L330 320L450 334L437 218L319 231L302 94H344Q396 94 421.5 110Q447 126 455 176L459 203H570L545 0H5Z" glyph-name="Ecircumflex.sc" horiz-adv-x="614" /><glyph d="M22 100H77L137 590H82L95 690H678L649 453H534L537 484Q541 514 539.5 534Q538 554 528.5 566.5Q519 579 500 584.5Q481 590 449 590H382L358 395L503 410L488 285L347 300L322 100H381Q443 100 473 123.5Q503 147 511 214L515 242H630L600 0H10ZM600 835Q600 795 573 769.5Q546 744 505 744Q470 744 448.5 764Q427 784 427 817Q427 857 454 882.5Q481 908 521 908Q556 908 578 888Q600 868 600 835ZM380 835Q380 795 353 769.5Q326 744 285 744Q250 744 228.5 764Q207 784 207 817Q207 857 234 882.5Q261 908 301 908Q336 908 358 888Q380 868 380 835Z" glyph-name="Edieresis" horiz-adv-x="672" unicode="&#203;" /><glyph d="M606 835Q606 795 579 769.5Q552 744 511 744Q476 744 454.5 764Q433 784 433 817Q433 857 460 882.5Q487 908 527 908Q562 908 584 888Q606 868 606 835ZM386 835Q386 795 359 769.5Q332 744 291 744Q256 744 234.5 764Q213 784 213 817Q213 857 240 882.5Q267 908 307 908Q342 908 364 888Q386 868 386 835ZM10 0 22 100H77L137 590H82L95 690H678L649 453H534L537 484Q541 514 539.5 534Q538 554 528.5 566.5Q519 579 500 584.5Q481 590 449 590H382L358 395H416L425 465H500L471 230H396L405 300H347L322 100H381Q443 100 473 123.5Q503 147 511 214L515 242H630L600 0Z" glyph-name="Edieresis.alt" horiz-adv-x="672" /><glyph d="M544 671Q544 633 517.5 610Q491 587 452 587Q419 587 398.5 604Q378 621 377 652Q377 690 403.5 712.5Q430 735 468 735Q501 735 522.5 718.5Q544 702 544 671ZM342 671Q342 633 315.5 610Q289 587 250 587Q217 587 196.5 604Q176 621 175 652Q175 690 201.5 712.5Q228 735 266 735Q299 735 320.5 718.5Q342 702 342 671ZM5 0 17 94H62L106 456H61L73 550H607L582 351H471L474 378Q476 398 475 412.5Q474 427 466.5 436.5Q459 446 443.5 451Q428 456 401 456H346L330 320H369L376 374H445L421 178H351L358 231H319L302 94H357Q405 94 426 111Q447 128 455 177L459 203H570L545 0Z" glyph-name="Edieresis.alt.sc" horiz-adv-x="614" /><glyph d="M538 686Q538 648 511.5 625Q485 602 446 602Q413 602 392 619Q371 636 371 667Q371 705 397.5 727.5Q424 750 462 750Q495 750 516.5 733.5Q538 717 538 686ZM336 686Q336 648 309.5 625Q283 602 244 602Q211 602 190 619Q169 636 169 667Q169 705 195.5 727.5Q222 750 260 750Q293 750 314 733.5Q335 717 336 686ZM17 94H62L106 456H61L73 550H607L582 351H471L474 379Q476 400 475 414.5Q474 429 466.5 438Q459 447 443.5 451.5Q428 456 401 456H346L330 320L450 334L437 218L319 231L302 94H344Q396 94 421.5 110Q447 126 455 176L459 203H570L545 0H5Z" glyph-name="Edieresis.sc" horiz-adv-x="614" /><glyph d="M22 100H77L137 590H82L95 690H678L649 453H534L537 484Q541 514 539.5 534Q538 554 528.5 566.5Q519 579 500 584.5Q481 590 449 590H382L358 395L503 410L488 285L347 300L322 100H381Q443 100 473 123.5Q503 147 511 214L515 242H630L600 0H10ZM310 767Q273 776 252.5 796Q232 816 232 839Q232 860 250 875Q268 890 303 890Q330 890 349.5 882.5Q369 875 384.5 863Q400 851 412.5 836.5Q425 822 436 809L496 740H419Z" glyph-name="Egrave" horiz-adv-x="672" unicode="&#200;" /><glyph d="M10 0 22 100H77L137 590H82L95 690H678L649 453H534L537 484Q541 514 539.5 534Q538 554 528.5 566.5Q519 579 500 584.5Q481 590 449 590H382L358 395H416L425 465H500L471 230H396L405 300H347L322 100H381Q443 100 473 123.5Q503 147 511 214L515 242H630L600 0ZM308 767Q271 776 250.5 796Q230 816 230 839Q230 860 248 875Q266 890 301 890Q328 890 347.5 882.5Q367 875 382.5 863Q398 851 410.5 836.5Q423 822 434 809L494 740H417Z" glyph-name="Egrave.alt" horiz-adv-x="672" /><glyph d="M268 598Q233 604 213 621.5Q193 639 193 661Q193 679 209.5 692Q226 705 260 705Q286 705 305.5 697.5Q325 690 340 678.5Q355 667 366.5 654.5Q378 642 388 631L441 583H367ZM5 0 17 94H62L106 456H61L73 550H607L582 351H471L474 378Q476 398 475 412.5Q474 427 466.5 436.5Q459 446 443.5 451Q428 456 401 456H346L330 320H369L376 374H445L421 178H351L358 231H319L302 94H357Q405 94 426 111Q447 128 455 177L459 203H570L545 0Z" glyph-name="Egrave.alt.sc" horiz-adv-x="614" /><glyph d="M270 608Q236 614 215.5 631.5Q195 649 195 671Q195 689 212 702Q229 715 262 715Q288 715 307.5 707.5Q327 700 342 688.5Q357 677 368.5 664.5Q380 652 390 641L443 593H370ZM17 94H62L106 456H61L73 550H607L582 351H471L474 379Q476 400 475 414.5Q474 429 466.5 438Q459 447 443.5 451.5Q428 456 401 456H346L330 320L450 334L437 218L319 231L302 94H344Q396 94 421.5 110Q447 126 455 176L459 203H570L545 0H5Z" glyph-name="Egrave.sc" horiz-adv-x="614" /><glyph d="M10 0 22 100H77L102 302H36L48 402H114L137 590H82L95 690H417Q509 690 573 667Q637 644 677.5 605Q718 566 736.5 515Q755 464 755 408Q755 335 731.5 262Q708 189 657 130.5Q606 72 525 36Q444 0 330 0ZM355 100Q387 100 415 127.5Q443 155 463.5 201Q484 247 495.5 305.5Q507 364 507 426Q507 512 480 551Q453 590 415 590H382L359 402H419L407 302H347L322 100Z" glyph-name="Eth" horiz-adv-x="767" unicode="&#208;" /><glyph d="M5 0 17 94H62L79 233H25L37 328H90L106 456H61L73 550H371Q455 550 513.5 532.5Q572 515 609.5 484.5Q647 454 664 413Q681 372 681 325Q681 273 661.5 215.5Q642 158 597 110Q552 62 479 31Q406 0 299 0ZM326 94Q351 94 371.5 116Q392 138 407 173.5Q422 209 430 253Q438 297 438 341Q438 401 418 428.5Q398 456 372 456H346L330 328H369L358 233H319L302 94Z" glyph-name="Eth.sc" horiz-adv-x="696" /><glyph d="M10 0 22 100H77L137 590H82L95 690H668L639 453H524L527 484Q531 514 529.5 534Q528 554 518.5 566.5Q509 579 490 584.5Q471 590 439 590H382L358 391L503 406L488 281L346 296L322 100H401L389 0Z" glyph-name="F" horiz-adv-x="631" unicode="F" /><glyph d="M10 0 22 100H77L137 590H82L95 690H668L639 453H524L527 484Q531 514 529.5 534Q528 554 518.5 566.5Q509 579 490 584.5Q471 590 439 590H382L358 391H416L425 465H500L471 230H396L404 296H346L322 100H401L389 0Z" glyph-name="F.alt" horiz-adv-x="631" /><glyph d="M5 0 17 94H62L106 456H61L73 550H598L574 351H462L465 378Q467 398 466 412.5Q465 427 457.5 437Q450 447 434.5 451.5Q419 456 392 456H346L330 316H369L376 374H445L421 178H351L357 227H318L302 94H367L356 0Z" glyph-name="F.alt.sc" horiz-adv-x="576" /><glyph d="M5 0 17 94H62L106 456H61L73 550H598L574 351H462L466 379Q469 399 467.5 413Q466 427 458.5 437Q451 447 435 451.5Q419 456 392 456H346L330 316L453 329L440 213L318 227L302 94H367L356 0Z" glyph-name="F.sc" horiz-adv-x="576" /><glyph d="M475 37Q452 20 413.5 5Q375 -10 310 -10Q241 -10 190 13.5Q139 37 104.5 77Q70 117 53 171Q36 225 36 286Q36 375 61.5 451Q87 527 132.5 582.5Q178 638 240.5 669Q303 700 377 700Q430 700 462 686Q494 672 511 653L549 699H654L623 443H508Q508 449 508.5 455Q509 461 509 467Q509 529 489.5 562Q470 595 428 595Q385 595 357 557.5Q329 520 312.5 466Q296 412 289.5 351.5Q283 291 283 244Q283 161 306 128Q329 95 366 95Q379 95 390 96Q401 97 410 102L427 242H367L380 342H665L652 242H612L581 -10H506Z" glyph-name="G" horiz-adv-x="674" unicode="G" /><glyph d="M419 32Q398 18 364 5Q330 -8 270 -8Q209 -8 162.5 10.5Q116 29 84.5 60.5Q53 92 37 134.5Q21 177 21 225Q21 300 43.5 361Q66 422 106 466Q146 510 201.5 534Q257 558 322 558Q372 558 398.5 545Q425 532 439 521L471 557H574L549 349H438V367Q438 417 423 438.5Q408 460 375 460Q338 460 316 429Q294 398 282 354.5Q270 311 266.5 264Q263 217 263 185Q263 128 281 109Q299 90 324 90Q336 90 346 92Q351 92 354 93L362 166H334L346 260H583L571 166H540L519 -8H447Z" glyph-name="G.sc" horiz-adv-x="601" /><glyph d="M22 100H77L137 590H82L95 690H440L427 590H382L359 402H509L532 590H487L500 690H845L832 590H777L717 100H772L760 0H415L427 100H472L497 302H347L322 100H367L355 0H10Z" glyph-name="H" horiz-adv-x="833" unicode="H" /><glyph d="M17 94H62L106 456H61L73 550H394L382 456H346L331 328H442L458 456H423L435 550H756L743 456H698L654 94H699L688 0H367L378 94H414L431 233H319L302 94H337L326 0H5Z" glyph-name="H.sc" horiz-adv-x="757" /><glyph d="M10 0 22 100H77L137 590H82L95 690H450L437 590H382L322 100H377L365 0Z" glyph-name="I" horiz-adv-x="438" unicode="I" /><glyph d="M5 0 17 94H62L106 456H61L73 550H404L392 456H346L302 94H348L336 0Z" glyph-name="I.sc" horiz-adv-x="405" /><glyph d="M264 740H187L255 809Q268 822 282 836Q296 850 313 862Q330 874 351.5 882Q373 890 400 890Q432 890 447.5 878Q463 866 463 845Q463 817 442 797.5Q421 778 376 767ZM10 0 22 100H77L137 590H82L95 690H450L437 590H382L322 100H377L365 0Z" glyph-name="Iacute" horiz-adv-x="438" unicode="&#205;" /><glyph d="M227 593H154L212 641Q224 651 237 664Q250 677 266.5 688Q283 699 304 707Q325 715 352 715Q411 715 411 677Q411 623 328 608ZM5 0 17 94H62L106 456H61L73 550H404L392 456H346L302 94H348L336 0Z" glyph-name="Iacute.sc" horiz-adv-x="405" /><glyph d="M267 740H190L258 809Q271 822 285 836Q299 850 316 862Q333 874 354.5 882Q376 890 403 890Q435 890 450.5 878Q466 866 466 845Q466 817 445 797.5Q424 778 379 767ZM807 740H730L798 809Q811 822 825 836Q839 850 856 862Q873 874 894.5 882Q916 890 943 890Q975 890 990.5 878Q1006 866 1006 845Q1006 817 985 797.5Q964 778 919 767ZM10 0 22 100H77L137 590H82L95 690H450L437 590H382L322 100H377L365 0ZM898 233Q883 108 812 49Q741 -10 610 -10Q562 -10 521 -1Q480 8 451 26Q422 44 405.5 71Q389 98 389 133Q389 185 420 220Q451 255 505 255Q547 255 571.5 232Q596 209 596 170Q596 144 583 123Q570 102 558 94Q561 90 569.5 87.5Q578 85 588 85Q615 85 626.5 102Q638 119 642 147L697 590H642L654 690H1009L997 590H942Z" glyph-name="Iacute_Jacute" horiz-adv-x="984" /><glyph d="M729 583H655L714 631Q726 641 739 654Q752 667 768.5 678Q785 689 806 697Q827 705 854 705Q913 705 913 667Q913 613 830 598ZM234 583H160L219 631Q231 641 244 654Q257 667 273.5 678Q290 689 311 697Q332 705 359 705Q418 705 418 667Q418 613 335 598ZM5 0 17 94H62L106 456H61L73 550H404L392 456H346L302 94H348L336 0ZM829 187Q818 87 752 39.5Q686 -8 564 -8Q473 -8 419 21.5Q365 51 365 112Q365 160 394 190.5Q423 221 474 221Q514 221 538 200Q562 179 562 143Q562 122 552.5 106.5Q543 91 532 83Q535 82 539 82Q546 80 551 80Q566 80 572.5 90.5Q579 101 581 121L623 456H578L590 550H919L908 456H863Z" glyph-name="Iacute_Jacute.sc" horiz-adv-x="907" /><glyph d="M276 790 199 740H82L232 876H348L459 740H342ZM10 0 22 100H77L137 590H82L95 690H450L437 590H382L322 100H377L365 0Z" glyph-name="Icircumflex" horiz-adv-x="438" unicode="&#206;" /><glyph d="M239 634 177 596H61L194 705H309L409 596H294ZM5 0 17 94H62L106 456H61L73 550H404L392 456H346L302 94H348L336 0Z" glyph-name="Icircumflex.sc" horiz-adv-x="405" /><glyph d="M484 835Q484 795 457 769.5Q430 744 389 744Q354 744 332.5 764Q311 784 311 817Q311 857 338 882.5Q365 908 405 908Q440 908 462 888Q484 868 484 835ZM264 835Q264 795 237 769.5Q210 744 169 744Q134 744 112.5 764Q91 784 91 817Q91 857 118 882.5Q145 908 185 908Q220 908 242 888Q264 868 264 835ZM10 0 22 100H77L137 590H82L95 690H450L437 590H382L322 100H377L365 0Z" glyph-name="Idieresis" horiz-adv-x="438" unicode="&#207;" /><glyph d="M437 685Q437 647 410.5 624Q384 601 345 601Q312 601 291 618Q270 635 270 666Q270 704 296.5 726.5Q323 749 361 749Q394 749 415.5 732.5Q437 716 437 685ZM235 685Q235 647 208.5 624Q182 601 143 601Q110 601 89 618Q68 635 68 666Q68 704 94.5 726.5Q121 749 159 749Q192 749 213 732.5Q234 716 235 685ZM5 0 17 94H62L106 456H61L73 550H404L392 456H346L302 94H348L336 0Z" glyph-name="Idieresis.sc" horiz-adv-x="405" /><glyph d="M10 0 22 100H77L137 590H82L95 690H450L437 590H382L322 100H377L365 0ZM167 767Q130 776 109.5 796Q89 816 89 839Q89 860 107 875Q125 890 160 890Q187 890 206.5 882.5Q226 875 241.5 863Q257 851 269.5 836.5Q282 822 293 809L353 740H276Z" glyph-name="Igrave" horiz-adv-x="438" unicode="&#204;" /><glyph d="M144 608Q109 614 89 631.5Q69 649 69 671Q68 689 85 702Q102 715 135 715Q161 715 180.5 707.5Q200 700 215 688.5Q230 677 241.5 664.5Q253 652 263 641L316 593H243ZM5 0 17 94H62L106 456H61L73 550H404L392 456H346L302 94H348L336 0Z" glyph-name="Igrave.sc" horiz-adv-x="405" /><glyph d="M494 233Q479 108 408 49Q337 -10 206 -10Q158 -10 117 -1Q76 8 47 26Q18 44 1.5 71Q-15 98 -15 133Q-15 185 16 220Q47 255 101 255Q143 255 167.5 232Q192 209 192 170Q192 144 179 123Q166 102 154 94Q157 90 165.5 87.5Q174 85 184 85Q211 85 222.5 102Q234 119 238 147L293 590H238L250 690H605L593 590H538Z" glyph-name="J" horiz-adv-x="580" unicode="J" /><glyph d="M458 193Q446 96 383.5 44Q321 -8 191 -8Q146 -8 107.5 0Q69 8 41.5 23Q14 38 -2 60.5Q-18 83 -18 112Q-18 160 11 190.5Q40 221 92 221Q131 221 155 200Q179 179 179 143Q179 122 170 105.5Q161 89 151 83Q152 82 155 82Q160 80 168 80Q203 80 208 114L250 456H206L217 550H547L536 456H490Z" glyph-name="J.sc" horiz-adv-x="535" /><glyph d="M10 0 22 100H77L137 590H82L95 690H435L422 590H382L357 389L578 590H510L523 690H811L798 590H725L554 435L729 100H772L760 0H418L430 100H472L382 277L339 237L322 100H362L350 0Z" glyph-name="K" horiz-adv-x="790" unicode="K" /><glyph d="M353 355 658 590H382ZM10 0 22 100H77L137 590H82L95 690H817L804 590L581 418L734 100H772L760 0H418L430 100H469L385 266L338 230L322 100H362L350 0Z" glyph-name="K.alt" horiz-adv-x="796" /><glyph d="M325 286 579 456H346ZM5 0 17 94H62L106 456H61L73 550H745L733 456L545 334L673 94H705L694 0H372L384 94H411L346 205L313 184L302 94H332L321 0Z" glyph-name="K.alt.sc" horiz-adv-x="732" /><glyph d="M5 0 17 94H62L106 456H61L73 550H389L376 456H346L328 316L513 456H452L464 550H733L721 456H655L511 346L674 94H707L696 0H374L385 94H416L338 215L316 198L302 94H332L321 0Z" glyph-name="K.sc" horiz-adv-x="728" /><glyph d="M22 100H77L137 590H82L95 690H457L444 590H382L322 100H381Q397 100 412.5 105Q428 110 441 124Q454 138 464 162Q474 186 479 224L482 252H597L566 0H10Z" glyph-name="L" horiz-adv-x="614" unicode="L" /><glyph d="M17 94H62L106 456H61L73 550H410L398 456H346L302 94H347Q357 94 369 97.5Q381 101 392 110.5Q403 120 412 138.5Q421 157 424 187L427 214H538L512 0H5Z" glyph-name="L.sc" horiz-adv-x="558" /><glyph d="M225 0H10L22 100H77L137 590H82L95 690H432L483 410L603 690H947L934 590H879L819 100H874L862 0H512L524 100H574L626 525L441 91H319L239 526L187 100H237Z" glyph-name="M" horiz-adv-x="935" unicode="M" /><glyph d="M225 0H10L22 100H77L137 590H82L95 690H454L441 590H393L475 363L616 590H574L587 690H947L934 590H879L819 100H874L862 0H512L524 100H574L609 379L441 91H319L221 371L187 100H237Z" glyph-name="M.alt" horiz-adv-x="935" /><glyph d="M196 0H5L17 94H62L106 456H61L73 550H405L393 456H354L423 322L527 456H494L507 550H840L828 456H782L738 94H784L772 0H446L458 94H498L520 265L390 73H271L186 249L167 94H207Z" glyph-name="M.alt.sc" horiz-adv-x="841" /><glyph d="M196 0H5L17 94H62L106 456H61L73 550H393L434 384L515 550H843L831 456H785L741 94H787L776 0H450L461 94H501L538 395L391 73H272L203 396L167 94H207Z" glyph-name="M.sc" horiz-adv-x="844" /><glyph d="M494 -5 222 384 187 100H242L230 0H10L22 100H77L137 590H82L94 690H286L535 337L567 590H512L524 690H744L732 590H677L604 -5Z" glyph-name="N" horiz-adv-x="721" unicode="N" /><glyph d="M230 0H10L22 100H77L137 590H82L95 690H287L540 449L557 590H502L515 690H735L722 590H667L607 100H662L650 0H430L442 100H497L505 161L227 423L187 100H242Z" glyph-name="N.alt" horiz-adv-x="723" /><glyph d="M201 0H5L17 94H62L106 456H61L73 550H247L474 399L481 456H435L447 550H643L631 456H585L541 94H587L575 0H380L391 94H436L441 129L192 295L167 94H212Z" glyph-name="N.alt.sc" horiz-adv-x="644" /><glyph d="M436 -4 188 266 167 94H212L201 0H5L17 94H62L106 456H61L72 550H246L475 302L494 456H448L459 550H655L644 456H598L542 -4Z" glyph-name="N.sc" horiz-adv-x="646" /><glyph d="M494 -5 222 384 187 100H242L230 0H10L22 100H77L137 590H82L94 690H286L535 337L567 590H512L524 690H744L732 590H677L604 -5ZM485 748Q466 748 449 753.5Q432 759 417.5 765Q403 771 390.5 776.5Q378 782 366 782Q348 782 337 772Q326 762 324 747H259Q277 891 375 891Q396 891 413 885.5Q430 880 444.5 874Q459 868 471.5 862.5Q484 857 496 857Q515 857 525 866.5Q535 876 537 891H602Q598 855 590.5 828Q583 801 570 783.5Q557 766 536.5 757Q516 748 485 748Z" glyph-name="Ntilde" horiz-adv-x="721" unicode="&#209;" /><glyph d="M503 735Q479 735 458 743.5Q437 752 419 762.5Q401 773 385 781.5Q369 790 355 790Q335 790 325.5 777Q316 764 312 739H233Q243 817 273.5 859.5Q304 902 367 902Q392 902 413.5 893.5Q435 885 453 874.5Q471 864 487 855.5Q503 847 518 847Q551 847 557 898H636Q631 859 623 829Q615 799 600 778Q585 757 562 746Q539 735 503 735ZM230 0H10L22 100H77L137 590H82L95 690H287L540 449L557 590H502L515 690H735L722 590H667L607 100H662L650 0H430L442 100H497L505 161L227 423L187 100H242Z" glyph-name="Ntilde.alt" horiz-adv-x="723" /><glyph d="M441 565Q419 565 399.5 571.5Q380 578 362.5 586Q345 594 330 600.5Q315 607 303 607Q286 607 278 598Q270 589 266 569H190Q198 637 226 673.5Q254 710 313 710Q336 710 356 703.5Q376 697 393 688.5Q410 680 425 673.5Q440 667 453 667Q481 667 487 705H563Q559 672 552 646Q545 620 531.5 602Q518 584 496 574.5Q474 565 441 565ZM201 0H5L17 94H62L106 456H61L73 550H247L474 399L481 456H435L447 550H643L631 456H585L541 94H587L575 0H380L391 94H436L441 129L192 295L167 94H212Z" glyph-name="Ntilde.alt.sc" horiz-adv-x="644" /><glyph d="M422 600Q387 600 361 611Q335 622 315 622Q300 622 290 616Q280 610 279 599H217Q225 663 250.5 692.5Q276 722 322 722Q341 722 356 718.5Q371 715 384 711Q397 707 408.5 703.5Q420 700 430 700Q461 700 466 722H528Q524 691 517.5 668Q511 645 499 630Q487 615 468.5 607.5Q450 600 422 600ZM436 -4 188 266 167 94H212L201 0H5L17 94H62L106 456H61L72 550H246L475 302L494 456H448L459 550H655L644 456H598L542 -4Z" glyph-name="Ntilde.sc" horiz-adv-x="646" /><glyph d="M417 700Q495 700 551 674.5Q607 649 643 607Q679 565 695.5 511Q712 457 712 399Q712 315 687 240.5Q662 166 613.5 110.5Q565 55 493.5 22.5Q422 -10 330 -10Q252 -10 196 15.5Q140 41 104 83Q68 125 51.5 179Q35 233 35 291Q35 375 60 449.5Q85 524 133.5 579.5Q182 635 253.5 667.5Q325 700 417 700ZM404 595Q371 595 347 560Q323 525 308 470.5Q293 416 286 350Q279 284 279 221Q279 95 343 95Q376 95 400 130Q424 165 439 219.5Q454 274 461 340Q468 406 468 469Q468 595 404 595Z" glyph-name="O" horiz-adv-x="726" unicode="O" /><glyph d="M363 558Q434 558 485 538Q536 518 569 485Q602 452 618 409.5Q634 367 634 321Q634 249 611.5 188.5Q589 128 545.5 84.5Q502 41 438 16.5Q374 -8 291 -8Q220 -8 169 12.5Q118 33 85 66Q52 99 36.5 141.5Q21 184 21 229Q21 298 43 358.5Q65 419 108.5 463Q152 507 216 532.5Q280 558 363 558ZM351 460Q325 460 307.5 431.5Q290 403 279.5 359.5Q269 316 264.5 264.5Q260 213 260 166Q260 90 304 90Q330 90 347.5 118Q365 146 375.5 189.5Q386 233 391 284.5Q396 336 396 384Q396 426 384 443Q372 460 351 460Z" glyph-name="O.sc" horiz-adv-x="652" /><glyph d="M417 700Q495 700 551 674.5Q607 649 643 607Q679 565 695.5 511Q712 457 712 399Q712 315 687 240.5Q662 166 613.5 110.5Q565 55 493.5 22.5Q422 -10 330 -10Q252 -10 196 15.5Q140 41 104 83Q68 125 51.5 179Q35 233 35 291Q35 375 60 449.5Q85 524 133.5 579.5Q182 635 253.5 667.5Q325 700 417 700ZM404 595Q371 595 347 560Q323 525 308 470.5Q293 416 286 350Q279 284 279 221Q279 95 343 95Q376 95 400 130Q424 165 439 219.5Q454 274 461 340Q468 406 468 469Q468 595 404 595ZM438 740H361L429 809Q442 822 456 836Q470 850 487 862Q504 874 525.5 882Q547 890 574 890Q606 890 621.5 878Q637 866 637 845Q637 817 616 797.5Q595 778 550 767Z" glyph-name="Oacute" horiz-adv-x="726" unicode="&#211;" /><glyph d="M417 700Q495 700 551 674.5Q607 649 643 607Q679 565 695.5 511Q712 457 712 399Q712 315 687 240.5Q662 166 613.5 110.5Q565 55 493.5 22.5Q422 -10 330 -10Q252 -10 196 15.5Q140 41 104 83Q68 125 51.5 179Q35 233 35 291Q35 375 60 449.5Q85 524 133.5 579.5Q182 635 253.5 667.5Q325 700 417 700ZM404 595Q371 595 347 560Q323 525 308 470.5Q293 416 286 350Q279 284 279 221Q279 95 343 95Q376 95 400 130Q424 165 439 219.5Q454 274 461 340Q468 406 468 469Q468 595 404 595ZM379 740 406 819Q422 864 444.5 887.5Q467 911 505 911Q539 911 552 895.5Q565 880 565 858Q565 834 548.5 812Q532 790 504 771L458 740Z" glyph-name="Oacute.pl" horiz-adv-x="726" /><glyph d="M326 593 349 658Q362 690 383 711Q404 732 440 732Q474 732 486 717Q498 702 498 682Q498 661 482.5 642Q467 623 441 611L401 593ZM363 558Q434 558 485 538Q536 518 569 485Q602 452 618 409.5Q634 367 634 321Q634 249 611.5 188.5Q589 128 545.5 84.5Q502 41 438 16.5Q374 -8 291 -8Q220 -8 169 12.5Q118 33 85 66Q52 99 36.5 141.5Q21 184 21 229Q21 298 43 358.5Q65 419 108.5 463Q152 507 216 532.5Q280 558 363 558ZM351 460Q325 460 307.5 431.5Q290 403 279.5 359.5Q269 316 264.5 264.5Q260 213 260 166Q260 90 304 90Q330 90 347.5 118Q365 146 375.5 189.5Q386 233 391 284.5Q396 336 396 384Q396 426 384 443Q372 460 351 460Z" glyph-name="Oacute.pl.sc" horiz-adv-x="652" /><glyph d="M383 593H310L368 641Q380 651 393 664Q406 677 422.5 688Q439 699 460 707Q481 715 508 715Q567 715 567 677Q567 623 484 608ZM363 558Q434 558 485 538Q536 518 569 485Q602 452 618 409.5Q634 367 634 321Q634 249 611.5 188.5Q589 128 545.5 84.5Q502 41 438 16.5Q374 -8 291 -8Q220 -8 169 12.5Q118 33 85 66Q52 99 36.5 141.5Q21 184 21 229Q21 298 43 358.5Q65 419 108.5 463Q152 507 216 532.5Q280 558 363 558ZM351 460Q325 460 307.5 431.5Q290 403 279.5 359.5Q269 316 264.5 264.5Q260 213 260 166Q260 90 304 90Q330 90 347.5 118Q365 146 375.5 189.5Q386 233 391 284.5Q396 336 396 384Q396 426 384 443Q372 460 351 460Z" glyph-name="Oacute.sc" horiz-adv-x="652" /><glyph d="M417 700Q495 700 551 674.5Q607 649 643 607Q679 565 695.5 511Q712 457 712 399Q712 315 687 240.5Q662 166 613.5 110.5Q565 55 493.5 22.5Q422 -10 330 -10Q252 -10 196 15.5Q140 41 104 83Q68 125 51.5 179Q35 233 35 291Q35 375 60 449.5Q85 524 133.5 579.5Q182 635 253.5 667.5Q325 700 417 700ZM404 595Q371 595 347 560Q323 525 308 470.5Q293 416 286 350Q279 284 279 221Q279 95 343 95Q376 95 400 130Q424 165 439 219.5Q454 274 461 340Q468 406 468 469Q468 595 404 595ZM419 790 342 740H225L375 876H491L602 740H485Z" glyph-name="Ocircumflex" horiz-adv-x="726" unicode="&#212;" /><glyph d="M362 634 299 596H184L316 705H431L532 596H416ZM363 558Q434 558 485 538Q536 518 569 485Q602 452 618 409.5Q634 367 634 321Q634 249 611.5 188.5Q589 128 545.5 84.5Q502 41 438 16.5Q374 -8 291 -8Q220 -8 169 12.5Q118 33 85 66Q52 99 36.5 141.5Q21 184 21 229Q21 298 43 358.5Q65 419 108.5 463Q152 507 216 532.5Q280 558 363 558ZM351 460Q325 460 307.5 431.5Q290 403 279.5 359.5Q269 316 264.5 264.5Q260 213 260 166Q260 90 304 90Q330 90 347.5 118Q365 146 375.5 189.5Q386 233 391 284.5Q396 336 396 384Q396 426 384 443Q372 460 351 460Z" glyph-name="Ocircumflex.sc" horiz-adv-x="652" /><glyph d="M417 700Q495 700 551 674.5Q607 649 643 607Q679 565 695.5 511Q712 457 712 399Q712 315 687 240.5Q662 166 613.5 110.5Q565 55 493.5 22.5Q422 -10 330 -10Q252 -10 196 15.5Q140 41 104 83Q68 125 51.5 179Q35 233 35 291Q35 375 60 449.5Q85 524 133.5 579.5Q182 635 253.5 667.5Q325 700 417 700ZM404 595Q371 595 347 560Q323 525 308 470.5Q293 416 286 350Q279 284 279 221Q279 95 343 95Q376 95 400 130Q424 165 439 219.5Q454 274 461 340Q468 406 468 469Q468 595 404 595ZM632 835Q632 795 605 769.5Q578 744 537 744Q502 744 480.5 764Q459 784 459 817Q459 857 486 882.5Q513 908 553 908Q588 908 610 888Q632 868 632 835ZM412 835Q412 795 385 769.5Q358 744 317 744Q282 744 260.5 764Q239 784 239 817Q239 857 266 882.5Q293 908 333 908Q368 908 390 888Q412 868 412 835Z" glyph-name="Odieresis" horiz-adv-x="726" unicode="&#214;" /><glyph d="M564 685Q564 647 538 624Q512 601 472 601Q439 601 418.5 618Q398 635 398 666Q398 704 424.5 726.5Q451 749 489 749Q521 749 542.5 732.5Q564 716 564 685ZM362 685Q362 647 336 624Q310 601 270 601Q237 601 216.5 618Q196 635 196 666Q196 703 222 726Q248 749 287 749Q319 749 340.5 732.5Q362 716 362 685ZM363 558Q434 558 485 538Q536 518 569 485Q602 452 618 409.5Q634 367 634 321Q634 249 611.5 188.5Q589 128 545.5 84.5Q502 41 438 16.5Q374 -8 291 -8Q220 -8 169 12.5Q118 33 85 66Q52 99 36.5 141.5Q21 184 21 229Q21 298 43 358.5Q65 419 108.5 463Q152 507 216 532.5Q280 558 363 558ZM351 460Q325 460 307.5 431.5Q290 403 279.5 359.5Q269 316 264.5 264.5Q260 213 260 166Q260 90 304 90Q330 90 347.5 118Q365 146 375.5 189.5Q386 233 391 284.5Q396 336 396 384Q396 426 384 443Q372 460 351 460Z" glyph-name="Odieresis.sc" horiz-adv-x="652" /><glyph d="M417 700Q495 700 551 674.5Q607 649 643 607Q679 565 695.5 511Q712 457 712 399Q712 315 687 240.5Q662 166 613.5 110.5Q565 55 493.5 22.5Q422 -10 330 -10Q252 -10 196 15.5Q140 41 104 83Q68 125 51.5 179Q35 233 35 291Q35 375 60 449.5Q85 524 133.5 579.5Q182 635 253.5 667.5Q325 700 417 700ZM404 595Q371 595 347 560Q323 525 308 470.5Q293 416 286 350Q279 284 279 221Q279 95 343 95Q376 95 400 130Q424 165 439 219.5Q454 274 461 340Q468 406 468 469Q468 595 404 595ZM320 767Q283 776 262.5 796Q242 816 242 839Q242 860 260 875Q278 890 313 890Q340 890 359.5 882.5Q379 875 394.5 863Q410 851 422.5 836.5Q435 822 446 809L506 740H429Z" glyph-name="Ograve" horiz-adv-x="726" unicode="&#210;" /><glyph d="M275 608Q241 614 221 631.5Q201 649 200 671Q200 689 217 702Q234 715 267 715Q293 715 312.5 707.5Q332 700 347 688.5Q362 677 373.5 664.5Q385 652 395 641L448 593H375ZM363 558Q434 558 485 538Q536 518 569 485Q602 452 618 409.5Q634 367 634 321Q634 249 611.5 188.5Q589 128 545.5 84.5Q502 41 438 16.5Q374 -8 291 -8Q220 -8 169 12.5Q118 33 85 66Q52 99 36.5 141.5Q21 184 21 229Q21 298 43 358.5Q65 419 108.5 463Q152 507 216 532.5Q280 558 363 558ZM351 460Q325 460 307.5 431.5Q290 403 279.5 359.5Q269 316 264.5 264.5Q260 213 260 166Q260 90 304 90Q330 90 347.5 118Q365 146 375.5 189.5Q386 233 391 284.5Q396 336 396 384Q396 426 384 443Q372 460 351 460Z" glyph-name="Ograve.sc" horiz-adv-x="652" /><glyph d="M405 595Q376 595 354.5 568.5Q333 542 318 499Q303 456 294 401.5Q285 347 282 291L468 505Q459 595 405 595ZM344 95Q372 95 393 120.5Q414 146 429 187Q444 228 453 280.5Q462 333 466 388L282 177Q292 95 344 95ZM331 -10Q277 -10 235 2Q193 14 160 35L96 -38H-4L103 85Q68 127 52 180.5Q36 234 36 291Q36 375 61 449.5Q86 524 134.5 579.5Q183 635 254.5 667.5Q326 700 418 700Q474 700 517.5 687Q561 674 595 651L662 729H762L650 600Q682 558 697.5 506.5Q713 455 713 399Q713 315 688 240.5Q663 166 614.5 110.5Q566 55 494.5 22.5Q423 -10 331 -10Z" glyph-name="Oslash" horiz-adv-x="728" unicode="&#216;" /><glyph d="M352 460Q332 460 317 442.5Q302 425 291.5 396Q281 367 274.5 330Q268 293 265 254L397 388Q396 428 384 444Q372 460 352 460ZM305 90Q325 90 339.5 107Q354 124 364.5 151.5Q375 179 382 215Q389 251 393 289L261 156Q264 90 305 90ZM292 -8Q244 -8 205 1.5Q166 11 136 28L78 -30H-16L82 70Q51 103 36.5 144Q22 185 22 229Q22 298 44 358.5Q66 419 109.5 463Q153 507 217 532.5Q281 558 364 558Q415 558 455 547.5Q495 537 526 519L587 581H681L578 477Q607 445 621 404.5Q635 364 635 321Q635 249 612.5 188.5Q590 128 546.5 84.5Q503 41 439 16.5Q375 -8 292 -8Z" glyph-name="Oslash.sc" horiz-adv-x="654" /><glyph d="M417 700Q495 700 551 674.5Q607 649 643 607Q679 565 695.5 511Q712 457 712 399Q712 315 687 240.5Q662 166 613.5 110.5Q565 55 493.5 22.5Q422 -10 330 -10Q252 -10 196 15.5Q140 41 104 83Q68 125 51.5 179Q35 233 35 291Q35 375 60 449.5Q85 524 133.5 579.5Q182 635 253.5 667.5Q325 700 417 700ZM404 595Q371 595 347 560Q323 525 308 470.5Q293 416 286 350Q279 284 279 221Q279 95 343 95Q376 95 400 130Q424 165 439 219.5Q454 274 461 340Q468 406 468 469Q468 595 404 595ZM481 748Q462 748 445 753.5Q428 759 413.5 765Q399 771 386.5 776.5Q374 782 362 782Q344 782 333 772Q322 762 320 747H255Q273 891 371 891Q392 891 409 885.5Q426 880 440.5 874Q455 868 467.5 862.5Q480 857 492 857Q511 857 521 866.5Q531 876 533 891H598Q594 855 586.5 828Q579 801 566 783.5Q553 766 532.5 757Q512 748 481 748Z" glyph-name="Otilde" horiz-adv-x="726" unicode="&#213;" /><glyph d="M419 600Q385 600 359 611Q333 622 313 622Q297 622 287 616Q277 610 276 599H214Q222 663 248 692.5Q274 722 319 722Q338 722 353 718.5Q368 715 381 711Q394 707 405.5 703.5Q417 700 427 700Q460 700 463 722H525Q518 659 496.5 629.5Q475 600 419 600ZM363 558Q434 558 485 538Q536 518 569 485Q602 452 618 409.5Q634 367 634 321Q634 249 611.5 188.5Q589 128 545.5 84.5Q502 41 438 16.5Q374 -8 291 -8Q220 -8 169 12.5Q118 33 85 66Q52 99 36.5 141.5Q21 184 21 229Q21 298 43 358.5Q65 419 108.5 463Q152 507 216 532.5Q280 558 363 558ZM351 460Q325 460 307.5 431.5Q290 403 279.5 359.5Q269 316 264.5 264.5Q260 213 260 166Q260 90 304 90Q330 90 347.5 118Q365 146 375.5 189.5Q386 233 391 284.5Q396 336 396 384Q396 426 384 443Q372 460 351 460Z" glyph-name="Otilde.sc" horiz-adv-x="652" /><glyph d="M22 100H77L137 590H82L95 690H424Q507 690 566 674.5Q625 659 662.5 632.5Q700 606 717 570.5Q734 535 734 494Q734 442 709 399Q684 356 638.5 324.5Q593 293 528 275.5Q463 258 382 258H341L322 100H387L375 0H10ZM382 590 353 358H371Q394 358 415 368Q436 378 451.5 396Q467 414 476 439Q485 464 485 495Q485 544 460.5 567Q436 590 400 590Z" glyph-name="P" horiz-adv-x="711" unicode="P" /><glyph d="M17 94H62L106 456H61L73 550H389Q466 550 519.5 537.5Q573 525 606 503Q639 481 653.5 452Q668 423 668 390Q668 345 646.5 309Q625 273 584.5 248Q544 223 486.5 210Q429 197 357 197H314L302 94H357L345 0H5ZM346 456 326 291H344Q379 291 401.5 317Q424 343 424 390Q424 427 407 441.5Q390 456 365 456Z" glyph-name="P.sc" horiz-adv-x="657" /><glyph d="M523 -111Q461 -111 429.5 -85.5Q398 -60 384 -7Q359 -10 330 -10Q252 -10 196 15.5Q140 41 104 83Q68 125 51.5 179Q35 233 35 291Q35 375 60 449.5Q85 524 133.5 579.5Q182 635 253.5 667.5Q325 700 417 700Q495 700 551 674.5Q607 649 643 607Q679 565 695.5 511Q712 457 712 399Q712 339 699.5 284Q687 229 662 182Q637 135 601 97Q565 59 517 34V32Q519 5 526 -6.5Q533 -18 547 -18Q565 -18 575 0Q585 18 591 66H676Q672 32 662.5 0Q653 -32 635.5 -57Q618 -82 590.5 -96.5Q563 -111 523 -111ZM404 595Q372 595 349 563.5Q326 532 311 481.5Q296 431 288.5 369Q281 307 279 246Q312 276 362 276Q388 276 409 270.5Q430 265 447 251Q458 302 463 358.5Q468 415 468 469Q468 595 404 595ZM343 95Q357 95 371 103Q367 150 358 171.5Q349 193 322 193Q315 193 303 187.5Q291 182 284 159Q297 95 343 95Z" glyph-name="Q" horiz-adv-x="726" unicode="Q" /><glyph d="M503 -111Q449 -111 417.5 -86Q386 -61 380 -7Q356 -10 330 -10Q252 -10 196 15.5Q140 41 104 83Q68 125 51.5 179Q35 233 35 291Q35 375 60 449.5Q85 524 133.5 579.5Q182 635 253.5 667.5Q325 700 417 700Q495 700 551 674.5Q607 649 643 607Q679 565 695.5 511Q712 457 712 399Q712 338 698.5 282Q685 226 659 178Q633 130 595 92Q557 54 507 29Q509 -1 515 -9.5Q521 -18 532 -18Q550 -18 560 0Q570 18 576 66H661Q657 32 647.5 0Q638 -32 620 -57Q602 -82 573.5 -96.5Q545 -111 503 -111ZM366 323Q422 323 455 293Q462 336 465 381Q468 426 468 469Q468 595 404 595Q376 595 354 569Q332 543 317 500.5Q302 458 293 404Q284 350 281 294Q298 308 319.5 315.5Q341 323 366 323ZM343 95Q364 95 381 109Q382 134 382 155Q382 176 379 191.5Q376 207 369 216Q362 225 348 225Q325 225 313 206Q301 187 301 161Q301 128 313.5 111.5Q326 95 343 95Z" glyph-name="Q.alt" horiz-adv-x="726" /><glyph d="M452 -79Q407 -79 379 -62Q351 -45 342 -5Q317 -8 291 -8Q220 -8 169 12.5Q118 33 85 66Q52 99 36.5 141.5Q21 184 21 229Q21 298 43 358.5Q65 419 108.5 463Q152 507 216 532.5Q280 558 363 558Q434 558 485 538Q536 518 569 485Q602 452 618 409.5Q634 367 634 321Q634 240 605.5 174.5Q577 109 523 64H597Q593 37 585 11.5Q577 -14 560.5 -34Q544 -54 517.5 -66.5Q491 -79 452 -79ZM351 460Q331 460 316.5 443Q302 426 291.5 398.5Q281 371 274 335Q267 299 264 261Q292 275 325 275Q363 275 389 261Q393 292 394.5 323.5Q396 355 396 384Q396 426 384 443Q372 460 351 460ZM304 90Q324 90 339 108Q340 142 334 165Q328 188 303 188Q283 188 274.5 171Q266 154 266 136Q266 113 278 101.5Q290 90 304 90ZM480 6Q495 6 502.5 18.5Q510 31 513 57Q488 38 460 25Q462 11 467 8.5Q472 6 480 6Z" glyph-name="Q.alt.sc" horiz-adv-x="652" /><glyph d="M466 -88Q413 -88 384.5 -67.5Q356 -47 343 -5Q318 -8 291 -8Q220 -8 169 12.5Q118 33 85 66Q52 99 36.5 141.5Q21 184 21 229Q21 298 43 358.5Q65 419 108.5 463Q152 507 216 532.5Q280 558 363 558Q434 558 485 538Q536 518 569 485Q602 452 618 409.5Q634 367 634 321Q634 221 592 145.5Q550 70 469 30Q473 7 479 1.5Q485 -4 493 -4Q509 -4 517 11Q525 26 530 64H612Q604 -6 568.5 -47Q533 -88 466 -88ZM351 460Q329 460 312.5 438.5Q296 417 285.5 383Q275 349 269 306.5Q263 264 261 221Q274 228 289 232Q304 236 323 236Q359 236 383 226Q390 264 393 305Q396 346 396 384Q396 426 384 443Q372 460 351 460ZM304 90Q315 90 328 98Q324 131 315.5 146.5Q307 162 289 162Q272 162 267.5 144.5Q263 127 269 113Q278 90 304 90Z" glyph-name="Q.sc" horiz-adv-x="652" /><glyph d="M784 170Q779 129 767.5 96Q756 63 735 39.5Q714 16 682 3Q650 -10 604 -10Q508 -10 462 36.5Q416 83 416 196Q416 217 414.5 235Q413 253 407.5 266Q402 279 391 286Q380 293 360 293H345L322 100H367L354 0H9L22 100H77L137 590H82L94 690H444Q599 690 668.5 647Q738 604 738 529Q738 493 723.5 461Q709 429 678.5 404Q648 379 600 362.5Q552 346 485 341Q530 332 562 319Q594 306 614.5 285.5Q635 265 644 236.5Q653 208 653 168Q653 125 658.5 114Q664 103 673 103Q683 103 688.5 116.5Q694 130 699 170ZM382 590 355 375H373Q402 375 424.5 386Q447 397 462.5 414.5Q478 432 486.5 454.5Q495 477 495 500Q495 548 469.5 569Q444 590 400 590Z" glyph-name="R" horiz-adv-x="766" unicode="R" /><glyph d="M716 142Q712 108 701.5 80.5Q691 53 671.5 33.5Q652 14 622.5 3Q593 -8 549 -8Q504 -8 470.5 1Q437 10 414.5 31Q392 52 380.5 87Q369 122 369 174Q369 200 362.5 214Q356 228 334 228H318L302 94H338L325 0H4L17 94H62L106 456H61L72 550H399Q544 550 608.5 515.5Q673 481 673 419Q673 390 660 365Q647 340 618.5 321Q590 302 546 289.5Q502 277 439 274Q526 260 563.5 229Q601 198 601 135Q601 115 604.5 107Q608 99 617 99Q625 99 628 109.5Q631 120 634 142ZM346 456 327 304H346Q384 304 410 328.5Q436 353 436 393Q436 425 416.5 440.5Q397 456 365 456Z" glyph-name="R.sc" horiz-adv-x="702" /><glyph d="M344 165Q344 200 318 222Q292 244 234 272Q152 311 111.5 355Q71 399 71 469Q71 525 92.5 568.5Q114 612 150 641Q186 670 232.5 685Q279 700 329 700Q369 700 415 692.5Q461 685 504 652L538 700H644L614 452H499Q498 466 497 478Q496 490 494 501Q488 532 476.5 550.5Q465 569 452 579Q439 589 424.5 592Q410 595 398 595Q363 595 344.5 573Q326 551 326 520Q326 498 333 482Q340 466 355 452.5Q370 439 394 427.5Q418 416 451 403Q477 392 503 377.5Q529 363 550 341.5Q571 320 584.5 289.5Q598 259 598 217Q598 168 583 126.5Q568 85 538.5 54.5Q509 24 465 7Q421 -10 362 -10Q300 -10 250.5 0.5Q201 11 151 41L116 -10H8L39 241H154Q155 230 156 220.5Q157 211 159 202Q172 148 204 121.5Q236 95 269 95Q309 95 326.5 117.5Q344 140 344 165Z" glyph-name="S" horiz-adv-x="641" unicode="S" /><glyph d="M543 180Q543 139 530 104.5Q517 70 491 45Q465 20 426 6Q387 -8 334 -8Q277 -8 231 -0.5Q185 7 137 33L108 -8H2L27 197H138Q142 146 171.5 118Q201 90 237 90Q263 90 278 102.5Q293 115 293 132Q293 154 270 170Q247 186 198 206Q122 238 86.5 275.5Q51 313 51 374Q51 418 70.5 452Q90 486 122 509.5Q154 533 196 545.5Q238 558 283 558Q318 558 361 553Q404 548 446 520L475 558H579L554 355H443Q440 410 417 435Q394 460 356 460Q330 460 316 447Q302 434 302 414Q302 387 327 368Q352 349 412 328Q433 320 456.5 309.5Q480 299 499 282Q518 265 530.5 240.5Q543 216 543 180Z" glyph-name="S.sc" horiz-adv-x="585" /><glyph d="M140 100H205L266 592H254Q209 592 188.5 565.5Q168 539 160 473L155 433H40L72 690H729L697 433H582L587 473Q595 540 581.5 566Q568 592 523 592H511L450 100H515L503 0H128Z" glyph-name="T" horiz-adv-x="695" unicode="T" /><glyph d="M121 94H176L221 458H215Q180 458 164 436.5Q148 415 141 367L136 330H25L52 550H653L625 330H514L519 367Q526 416 515 437Q504 458 472 458H461L416 94H470L459 0H110Z" glyph-name="T.sc" horiz-adv-x="634" /><glyph d="M365 0H10L22 100H77L137 590H82L95 690H451L438 590H383L380 560H408Q491 560 550 546Q609 532 647 507Q685 482 702.5 447Q720 412 720 370Q720 321 696.5 278Q673 235 627.5 203Q582 171 516.5 152.5Q451 134 367 134H326L322 100H377ZM366 460 339 234H357Q411 234 440 272Q469 310 469 370Q469 415 445 437.5Q421 460 384 460Z" glyph-name="Thorn" horiz-adv-x="717" unicode="&#222;" /><glyph d="M336 0H5L17 94H62L106 456H61L73 550H404L392 456H347L346 446H370Q447 446 502 434Q557 422 591.5 401.5Q626 381 642 353Q658 325 658 292Q658 254 637 220Q616 186 575.5 160.5Q535 135 475.5 120Q416 105 340 105H303L302 94H347ZM333 352 315 197H328Q370 197 391 225Q412 253 412 292Q412 322 392 337Q372 352 346 352Z" glyph-name="Thorn.sc" horiz-adv-x="661" /><glyph d="M600 238Q584 110 522.5 50Q461 -10 345 -10Q203 -10 134 60.5Q65 131 82 267L122 590H67L79 690H424L412 590H367L322 229Q317 190 320 164Q323 138 332 122.5Q341 107 355.5 101Q370 95 389 95Q407 95 423 101Q439 107 452 122.5Q465 138 474.5 164.5Q484 191 489 231L533 590H488L500 690H710L698 590H643Z" glyph-name="U" horiz-adv-x="685" unicode="U" /><glyph d="M531 189Q525 142 510 105Q495 68 468 43Q441 18 400.5 5Q360 -8 304 -8Q238 -8 189.5 9Q141 26 110.5 56.5Q80 87 68 128.5Q56 170 62 219L91 456H46L57 550H378L366 456H331L297 178Q292 133 303.5 111Q315 89 349 89Q384 89 401.5 108.5Q419 128 425 179L459 456H424L435 550H621L609 456H564Z" glyph-name="U.sc" horiz-adv-x="610" /><glyph d="M600 238Q584 110 522.5 50Q461 -10 345 -10Q203 -10 134 60.5Q65 131 82 267L122 590H67L79 690H424L412 590H367L322 229Q317 190 320 164Q323 138 332 122.5Q341 107 355.5 101Q370 95 389 95Q407 95 423 101Q439 107 452 122.5Q465 138 474.5 164.5Q484 191 489 231L533 590H488L500 690H710L698 590H643ZM464 740H387L455 809Q468 822 482 836Q496 850 513 862Q530 874 551.5 882Q573 890 600 890Q632 890 647.5 878Q663 866 663 845Q663 817 642 797.5Q621 778 576 767Z" glyph-name="Uacute" horiz-adv-x="685" unicode="&#218;" /><glyph d="M405 593H332L391 641Q403 651 416 664Q429 677 445.5 688Q462 699 482.5 707Q503 715 530 715Q589 715 589 677Q589 653 569 634.5Q549 616 506 608ZM531 189Q525 142 510 105Q495 68 468 43Q441 18 400.5 5Q360 -8 304 -8Q238 -8 189.5 9Q141 26 110.5 56.5Q80 87 68 128.5Q56 170 62 219L91 456H46L57 550H378L366 456H331L297 178Q292 133 303.5 111Q315 89 349 89Q384 89 401.5 108.5Q419 128 425 179L459 456H424L435 550H621L609 456H564Z" glyph-name="Uacute.sc" horiz-adv-x="610" /><glyph d="M600 238Q584 110 522.5 50Q461 -10 345 -10Q203 -10 134 60.5Q65 131 82 267L122 590H67L79 690H424L412 590H367L322 229Q317 190 320 164Q323 138 332 122.5Q341 107 355.5 101Q370 95 389 95Q407 95 423 101Q439 107 452 122.5Q465 138 474.5 164.5Q484 191 489 231L533 590H488L500 690H710L698 590H643ZM462 790 385 740H268L418 876H534L645 740H528Z" glyph-name="Ucircumflex" horiz-adv-x="685" unicode="&#219;" /><glyph d="M404 634 342 596H226L359 705H474L574 596H459ZM531 189Q525 142 510 105Q495 68 468 43Q441 18 400.5 5Q360 -8 304 -8Q238 -8 189.5 9Q141 26 110.5 56.5Q80 87 68 128.5Q56 170 62 219L91 456H46L57 550H378L366 456H331L297 178Q292 133 303.5 111Q315 89 349 89Q384 89 401.5 108.5Q419 128 425 179L459 456H424L435 550H621L609 456H564Z" glyph-name="Ucircumflex.sc" horiz-adv-x="610" /><glyph d="M600 238Q584 110 522.5 50Q461 -10 345 -10Q203 -10 134 60.5Q65 131 82 267L122 590H67L79 690H424L412 590H367L322 229Q317 190 320 164Q323 138 332 122.5Q341 107 355.5 101Q370 95 389 95Q407 95 423 101Q439 107 452 122.5Q465 138 474.5 164.5Q484 191 489 231L533 590H488L500 690H710L698 590H643ZM645 835Q645 795 618 769.5Q591 744 550 744Q515 744 493.5 764Q472 784 472 817Q472 857 499 882.5Q526 908 566 908Q601 908 623 888Q645 868 645 835ZM425 835Q425 795 398 769.5Q371 744 330 744Q295 744 273.5 764Q252 784 252 817Q252 857 279 882.5Q306 908 346 908Q381 908 403 888Q425 868 425 835Z" glyph-name="Udieresis" horiz-adv-x="685" unicode="&#220;" /><glyph d="M577 681Q577 642 550.5 619.5Q524 597 485 597Q451 597 430.5 614Q410 631 410 662Q410 700 436.5 722.5Q463 745 501 745Q533 745 555 728.5Q577 712 577 681ZM374 681Q374 642 348 619.5Q322 597 282 597Q249 597 228.5 614Q208 631 208 662Q208 700 234.5 722.5Q261 745 299 745Q331 745 352.5 728.5Q374 712 374 681ZM531 189Q525 142 510 105Q495 68 468 43Q441 18 400.5 5Q360 -8 304 -8Q238 -8 189.5 9Q141 26 110.5 56.5Q80 87 68 128.5Q56 170 62 219L91 456H46L57 550H378L366 456H331L297 178Q292 133 303.5 111Q315 89 349 89Q384 89 401.5 108.5Q419 128 425 179L459 456H424L435 550H621L609 456H564Z" glyph-name="Udieresis.sc" horiz-adv-x="610" /><glyph d="M600 238Q584 110 522.5 50Q461 -10 345 -10Q203 -10 134 60.5Q65 131 82 267L122 590H67L79 690H424L412 590H367L322 229Q317 190 320 164Q323 138 332 122.5Q341 107 355.5 101Q370 95 389 95Q407 95 423 101Q439 107 452 122.5Q465 138 474.5 164.5Q484 191 489 231L533 590H488L500 690H710L698 590H643ZM337 767Q300 776 279.5 796Q259 816 259 839Q259 860 277 875Q295 890 330 890Q357 890 376.5 882.5Q396 875 411.5 863Q427 851 439.5 836.5Q452 822 463 809L523 740H446Z" glyph-name="Ugrave" horiz-adv-x="685" unicode="&#217;" /><glyph d="M292 608Q258 614 238 631.5Q218 649 217 671Q217 689 234 702Q251 715 284 715Q310 715 329.5 707.5Q349 700 364 688.5Q379 677 390.5 664.5Q402 652 412 641L465 593H392ZM531 189Q525 142 510 105Q495 68 468 43Q441 18 400.5 5Q360 -8 304 -8Q238 -8 189.5 9Q141 26 110.5 56.5Q80 87 68 128.5Q56 170 62 219L91 456H46L57 550H378L366 456H331L297 178Q292 133 303.5 111Q315 89 349 89Q384 89 401.5 108.5Q419 128 425 179L459 456H424L435 550H621L609 456H564Z" glyph-name="Ugrave.sc" horiz-adv-x="610" /><glyph d="M644 590 426 0H170L92 590H42L55 690H391L378 590H331L380 153L540 590H497L510 690H703L690 590Z" glyph-name="V" horiz-adv-x="657" unicode="V" /><glyph d="M569 456 392 0H138L69 456H26L38 550H351L339 456H303L343 123L470 456H437L449 550H619L607 456Z" glyph-name="V.sc" horiz-adv-x="590" /><glyph d="M493 381 367 0H130L99 590H54L67 690H377L364 590H326L347 203L508 690H674L712 194L831 590H795L808 690H990L977 590H936L760 0H525Z" glyph-name="W" horiz-adv-x="954" unicode="W" /><glyph d="M494 388 367 0H130L99 590H54L67 690H377L364 590H326L347 197L475 590H424L437 690H746L733 590H682L712 194L831 590H795L808 690H990L977 590H936L760 0H525Z" glyph-name="W.alt" horiz-adv-x="954" /><glyph d="M433 329 328 0H97L73 456H37L49 550H339L327 456H296L310 192L394 456H376L389 550H657L645 456H623L642 188L724 456H696L708 550H873L860 456H826L688 0H458Z" glyph-name="W.alt.sc" horiz-adv-x="851" /><glyph d="M424 264 328 0H97L67 456H29L42 550H329L317 456H290L308 180L438 550H599L636 174L725 456H699L711 550H871L859 456H826L684 0H454Z" glyph-name="W.sc" horiz-adv-x="843" /><glyph d="M-20 0 -8 100H49L256 322L94 590H53L66 690H428L415 590H362L437 466L554 590H505L518 690H750L737 590H684L488 382L659 100H704L692 0H324L336 100H390L307 236L180 100H244L232 0Z" glyph-name="X" horiz-adv-x="723" unicode="X" /><glyph d="M219 0H-18L-7 94H44L224 256L74 456H39L51 550H395L383 456H337L401 370L490 456H449L462 550H680L668 456H621L452 302L608 94H648L636 0H285L296 94H345L275 187L176 94H230Z" glyph-name="X.sc" horiz-adv-x="671" /><glyph d="M488 0H148L160 100H208L230 274L81 590H35L48 690H407L394 590H344L434 399L559 590H509L522 690H734L721 590H681L476 283L453 100H500Z" glyph-name="Y" horiz-adv-x="692" unicode="Y" /><glyph d="M444 0H132L143 94H180L195 213L60 456H19L32 550H372L360 456H326L398 327L493 456H451L464 550H657L645 456H610L436 220L420 94H455Z" glyph-name="Y.sc" horiz-adv-x="631" /><glyph d="M488 0H148L160 100H208L230 274L81 590H35L48 690H407L394 590H344L434 399L559 590H509L522 690H734L721 590H681L476 283L453 100H500ZM461 740H384L452 809Q465 822 479 836Q493 850 510 862Q527 874 548.5 882Q570 890 597 890Q629 890 644.5 878Q660 866 660 845Q660 817 639 797.5Q618 778 573 767Z" glyph-name="Yacute" horiz-adv-x="692" unicode="&#221;" /><glyph d="M411 593H338L397 641Q409 651 422.5 664Q436 677 453 688Q470 699 490.5 707Q511 715 536 715Q596 715 596 674Q596 623 513 608ZM444 0H132L143 94H180L195 213L60 456H19L32 550H372L360 456H326L398 327L493 456H451L464 550H657L645 456H610L436 220L420 94H455Z" glyph-name="Yacute.sc" horiz-adv-x="631" /><glyph d="M2 0 12 78 362 590H300Q270 590 249.5 586Q229 582 215.5 570Q202 558 194 535.5Q186 513 182 477L177 443H62L93 690H626L616 612L266 100H358Q390 100 408.5 105Q427 110 437.5 123.5Q448 137 453.5 161Q459 185 463 223L467 252H582L551 0Z" glyph-name="Z" horiz-adv-x="615" unicode="Z" /><glyph d="M6 0 16 78 391 520H296Q266 520 245.5 516Q225 512 211 500Q197 488 189.5 465.5Q182 443 177 407L173 373H58L97 690H630L620 612L245 170H371Q403 170 421.5 175Q440 180 450.5 193.5Q461 207 466.5 231Q472 255 476 293L480 322H595L555 0Z" glyph-name="Z.alt" horiz-adv-x="625" /><glyph d="M0 0 10 71 311 387H255Q230 387 212 384Q194 381 182 371.5Q170 362 163.5 344Q157 326 153 296L150 272H39L73 550H558L549 479L248 163H322Q350 163 367.5 167Q385 171 395.5 182Q406 193 411.5 212Q417 231 421 261L424 283H536L500 0Z" glyph-name="Z.alt.sc" horiz-adv-x="564" /><glyph d="M-3 0 7 71 293 456H257Q232 456 215 453Q198 450 187 441Q176 432 170 415.5Q164 399 160 372L156 346H44L70 550H557L547 479L261 94H314Q341 94 358 99.5Q375 105 385.5 116Q396 127 401.5 144.5Q407 162 410 186L413 208H524L499 0Z" glyph-name="Z.sc" horiz-adv-x="557" /><glyph d="M539 -10Q477 -10 436 17.5Q395 45 386 103Q375 78 360.5 57.5Q346 37 325.5 22Q305 7 277.5 -1.5Q250 -10 213 -10Q179 -10 144.5 3.5Q110 17 82.5 44.5Q55 72 38 115Q21 158 21 217Q21 283 39.5 341Q58 399 91.5 442Q125 485 171.5 510Q218 535 274 535Q330 535 362.5 513Q395 491 412 449L443 520L649 519L602 133Q600 116 604 109Q608 102 616 102Q628 102 634 118.5Q640 135 646 175H723Q718 132 706 97.5Q694 63 672.5 39Q651 15 618.5 2.5Q586 -10 539 -10ZM342 425Q322 425 307 404.5Q292 384 282.5 351Q273 318 268 275.5Q263 233 263 188Q263 100 303 100Q332 100 349.5 138.5Q367 177 377 255L379 271Q389 349 378.5 387Q368 425 342 425Z" glyph-name="a" horiz-adv-x="724" unicode="a" /><glyph d="M539 -10Q477 -10 436 17.5Q395 45 386 103Q375 78 360.5 57.5Q346 37 325.5 22Q305 7 277.5 -1.5Q250 -10 213 -10Q179 -10 144.5 3.5Q110 17 82.5 44.5Q55 72 38 115Q21 158 21 217Q21 283 39.5 341Q58 399 91.5 442Q125 485 171.5 510Q218 535 274 535Q330 535 362.5 513Q395 491 412 449L443 520L649 519L602 133Q600 116 604 109Q608 102 616 102Q628 102 634 118.5Q640 135 646 175H723Q718 132 706 97.5Q694 63 672.5 39Q651 15 618.5 2.5Q586 -10 539 -10ZM342 425Q322 425 307 404.5Q292 384 282.5 351Q273 318 268 275.5Q263 233 263 188Q263 100 303 100Q332 100 349.5 138.5Q367 177 377 255L379 271Q389 349 378.5 387Q368 425 342 425ZM333 621 389 691Q435 750 475.5 770Q516 790 561 790Q607 790 622.5 775Q638 760 638 740Q638 713 610 691.5Q582 670 513 650L409 621Z" glyph-name="aacute" horiz-adv-x="724" unicode="&#225;" /><glyph d="M539 -10Q477 -10 436 17.5Q395 45 386 103Q375 78 360.5 57.5Q346 37 325.5 22Q305 7 277.5 -1.5Q250 -10 213 -10Q179 -10 144.5 3.5Q110 17 82.5 44.5Q55 72 38 115Q21 158 21 217Q21 283 39.5 341Q58 399 91.5 442Q125 485 171.5 510Q218 535 274 535Q330 535 362.5 513Q395 491 412 449L443 520L649 519L602 133Q600 116 604 109Q608 102 616 102Q628 102 634 118.5Q640 135 646 175H723Q718 132 706 97.5Q694 63 672.5 39Q651 15 618.5 2.5Q586 -10 539 -10ZM342 425Q322 425 307 404.5Q292 384 282.5 351Q273 318 268 275.5Q263 233 263 188Q263 100 303 100Q332 100 349.5 138.5Q367 177 377 255L379 271Q389 349 378.5 387Q368 425 342 425ZM192 621 392 797H465L616 621H514L417 690L294 621Z" glyph-name="acircumflex" horiz-adv-x="724" unicode="&#226;" /><glyph d="M114 621 170 691Q216 750 256.5 770Q297 790 342 790Q388 790 403.5 775Q419 760 419 740Q419 713 391 691.5Q363 670 294 650L190 621Z" glyph-name="acute" horiz-adv-x="371" unicode="&#180;" /><glyph d="M207 740H130L198 809Q211 822 225 836Q239 850 256 862Q273 874 294.5 882Q316 890 343 890Q375 890 390.5 878Q406 866 406 845Q406 817 385 797.5Q364 778 319 767Z" glyph-name="acute.cap" horiz-adv-x="343" /><glyph d="M114 601 124 644Q144 730 176.5 770Q209 810 267 810Q302 810 318.5 792.5Q335 775 335 747Q335 726 313.5 697Q292 668 238 633L190 601Z" glyph-name="acute.pl" horiz-adv-x="283" /><glyph d="M130 734 157 813Q173 858 195.5 881.5Q218 905 256 905Q290 905 303 889.5Q316 874 316 852Q316 828 299.5 806Q283 784 255 765L209 734Z" glyph-name="acute.uc.pl" horiz-adv-x="251" /><glyph d="M539 -10Q477 -10 436 17.5Q395 45 386 103Q375 78 360.5 57.5Q346 37 325.5 22Q305 7 277.5 -1.5Q250 -10 213 -10Q179 -10 144.5 3.5Q110 17 82.5 44.5Q55 72 38 115Q21 158 21 217Q21 283 39.5 341Q58 399 91.5 442Q125 485 171.5 510Q218 535 274 535Q330 535 362.5 513Q395 491 412 449L443 520L649 519L602 133Q600 116 604 109Q608 102 616 102Q628 102 634 118.5Q640 135 646 175H723Q718 132 706 97.5Q694 63 672.5 39Q651 15 618.5 2.5Q586 -10 539 -10ZM342 425Q322 425 307 404.5Q292 384 282.5 351Q273 318 268 275.5Q263 233 263 188Q263 100 303 100Q332 100 349.5 138.5Q367 177 377 255L379 271Q389 349 378.5 387Q368 425 342 425ZM605 709Q605 663 574.5 634Q544 605 498 605Q460 605 436.5 627Q413 649 413 685Q413 731 443.5 760Q474 789 520 789Q558 789 581.5 767Q605 745 605 709ZM375 709Q375 663 344.5 634Q314 605 268 605Q230 605 206.5 627Q183 649 183 685Q183 731 213.5 760Q244 789 290 789Q328 789 351.5 767Q375 745 375 709Z" glyph-name="adieresis" horiz-adv-x="724" unicode="&#228;" /><glyph d="M637 -10Q563 -10 507.5 19Q452 48 423 102Q398 53 353 21.5Q308 -10 230 -10Q130 -10 75.5 50Q21 110 21 217Q21 283 39.5 341Q58 399 91.5 442Q125 485 171.5 510Q218 535 274 535Q325 535 358 519Q391 503 411 471L441 520H521L515 474Q553 503 600.5 519Q648 535 704 535Q757 535 799.5 524Q842 513 872 492.5Q902 472 918 443Q934 414 934 378Q934 326 901.5 293Q869 260 820 241Q771 222 713.5 214.5Q656 207 606 207V197Q606 143 634 119Q662 95 708 95Q757 95 785.5 117.5Q814 140 837 181L912 153Q897 121 875.5 91.5Q854 62 821 39.5Q788 17 743 3.5Q698 -10 637 -10ZM677 444Q662 444 650.5 430Q639 416 630.5 392Q622 368 617 337Q612 306 609 273Q650 280 678.5 306.5Q707 333 707 392Q707 412 700.5 428Q694 444 677 444ZM303 100Q332 100 349.5 138.5Q367 177 377 255L379 271Q389 349 378.5 387Q368 425 342 425Q322 425 307 404.5Q292 384 282.5 351Q273 318 268 275.5Q263 233 263 188Q263 100 303 100Z" glyph-name="ae" horiz-adv-x="945" unicode="&#230;" /><glyph d="M539 -10Q477 -10 436 17.5Q395 45 386 103Q375 78 360.5 57.5Q346 37 325.5 22Q305 7 277.5 -1.5Q250 -10 213 -10Q179 -10 144.5 3.5Q110 17 82.5 44.5Q55 72 38 115Q21 158 21 217Q21 283 39.5 341Q58 399 91.5 442Q125 485 171.5 510Q218 535 274 535Q330 535 362.5 513Q395 491 412 449L443 520L649 519L602 133Q600 116 604 109Q608 102 616 102Q628 102 634 118.5Q640 135 646 175H723Q718 132 706 97.5Q694 63 672.5 39Q651 15 618.5 2.5Q586 -10 539 -10ZM342 425Q322 425 307 404.5Q292 384 282.5 351Q273 318 268 275.5Q263 233 263 188Q263 100 303 100Q332 100 349.5 138.5Q367 177 377 255L379 271Q389 349 378.5 387Q368 425 342 425ZM289 650Q256 660 235.5 670Q215 680 203.5 689.5Q192 699 188 708.5Q184 718 184 727Q184 752 209.5 771Q235 790 280 790Q325 790 355.5 774Q386 758 409 716L461 621H385Z" glyph-name="agrave" horiz-adv-x="724" unicode="&#224;" /><glyph d="M632 -10Q596 -10 565.5 -3.5Q535 3 499 27Q409 -10 298 -10Q236 -10 183.5 -2Q131 6 93.5 25Q56 44 35 74Q14 104 14 149Q14 182 25 209Q36 236 59 259.5Q82 283 117.5 304Q153 325 203 346Q155 408 135 449.5Q115 491 115 528Q115 568 137.5 599.5Q160 631 200 653.5Q240 676 294 688Q348 700 411 700Q466 700 513.5 691Q561 682 596.5 665Q632 648 652 623.5Q672 599 672 569Q672 537 657 510Q642 483 612 458.5Q582 434 537.5 410Q493 386 434 360Q452 338 473.5 313.5Q495 289 520 259Q537 239 551.5 222Q566 205 579 191Q617 241 633 301H573L585 401H822L810 301H743Q726 246 700 202Q674 158 641 123Q665 99 675.5 94.5Q686 90 699 90Q719 90 729 111.5Q739 133 747 187H832Q821 90 775 40Q729 -10 632 -10ZM340 532Q340 506 349 482Q358 458 378 431Q398 450 411.5 470.5Q425 491 432.5 510Q440 529 443 543.5Q446 558 446 565Q446 587 435.5 601Q425 615 402 615Q387 615 375.5 607.5Q364 600 356 588Q348 576 344 561.5Q340 547 340 532ZM364 90Q379 90 392.5 91.5Q406 93 420 95Q400 115 377.5 139Q355 163 329 194Q313 212 299.5 228.5Q286 245 272 261Q258 244 251 224.5Q244 205 244 181Q244 129 277 109.5Q310 90 364 90Z" glyph-name="ampersand" horiz-adv-x="855" unicode="&amp;" /><glyph d="M701 -10Q673 -10 637.5 -4Q602 2 555 34Q459 -10 340 -10Q273 -10 215 -2Q157 6 114.5 24.5Q72 43 48 74.5Q24 106 24 153Q24 187 34 213.5Q44 240 68 266Q92 292 132 321Q172 350 232 387L245 395L100 590L113 690H720L707 590L463 437L635 206Q658 232 677 263.5Q696 295 708 331H634L646 431H893L881 331H808Q763 211 690 132Q713 104 726.5 97Q740 90 758 90Q769 90 778.5 96.5Q788 103 796 118.5Q804 134 810.5 160.5Q817 187 822 227H907Q901 181 890.5 138Q880 95 858 62Q836 29 798.5 9.5Q761 -10 701 -10ZM558 590H350L416 502ZM415 90Q446 90 477 100Q452 125 425 156.5Q398 188 367 230L308 310Q277 264 277 212Q277 149 313 119.5Q349 90 415 90Z" glyph-name="ampersand.alt" horiz-adv-x="939" /><glyph d="M638 -8Q615 -8 583 -4.5Q551 -1 505 26Q422 -8 311 -8Q250 -8 195.5 -2.5Q141 3 100.5 18Q60 33 36.5 60Q13 87 13 129Q13 154 20.5 173Q28 192 47.5 211Q67 230 102 250.5Q137 271 191 298L212 309L73 457L85 550H649L637 457L416 339L571 166Q594 186 611 210.5Q628 235 639 264H573L584 358H811L800 264H735Q715 216 688.5 176.5Q662 137 630 105Q653 86 679 86Q703 86 720 111.5Q737 137 745 200H827Q821 152 809.5 113.5Q798 75 776 48Q754 21 720.5 6.5Q687 -8 638 -8ZM492 457H310L368 392ZM384 86Q404 86 421 90Q400 109 376.5 133Q353 157 327 188L278 239Q261 211 261 176Q261 133 292.5 109.5Q324 86 384 86Z" glyph-name="ampersand.alt.sc" horiz-adv-x="852" /><glyph d="M406 -10Q221 -10 126 53.5Q31 117 31 245Q31 295 50 346.5Q69 398 109 440Q149 482 211 508.5Q273 535 359 535Q420 535 466 518Q512 501 543 471.5Q574 442 590 404Q606 366 606 324Q606 310 604 300H751Q757 330 757 364Q757 390 753 413.5Q749 437 741 455Q712 432 671 432Q641 432 616 451Q591 470 591 505Q591 543 620 572Q649 601 703 601Q746 601 775 583Q804 565 822 535.5Q840 506 847.5 468.5Q855 431 855 392Q855 345 846 300H923L914 225H825Q804 174 769 131Q734 88 682.5 56.5Q631 25 562 7.5Q493 -10 406 -10ZM365 300Q368 321 370.5 342Q373 363 373 382Q373 409 366 426.5Q359 444 339 444Q308 444 296.5 405.5Q285 367 275 300ZM471 96Q561 96 626.5 128.5Q692 161 726 225H266V224Q266 183 282 158Q298 133 325.5 119Q353 105 390.5 100.5Q428 96 471 96Z" glyph-name="ampersand.old" horiz-adv-x="928" /><glyph d="M573 -8Q541 -8 514 -4Q487 0 454 17Q412 5 367 -1.5Q322 -8 273 -8Q216 -8 168 -2.5Q120 3 84.5 17.5Q49 32 29 57Q9 82 9 121Q9 173 47 208Q85 243 176 277Q131 326 112 360Q93 394 93 425Q93 457 114 482Q135 507 171.5 524Q208 541 258.5 549.5Q309 558 367 558Q418 558 463 551.5Q508 545 541.5 532Q575 519 594.5 500Q614 481 614 456Q614 404 560.5 367.5Q507 331 400 289Q417 273 436.5 255Q456 237 479 213Q494 200 507 190Q520 180 531 169Q558 201 567 232H516L527 326H744L733 232H674Q661 194 640 162.5Q619 131 591 106Q611 91 619 88.5Q627 86 638 86Q654 86 661 100Q668 114 674 157H756Q746 75 704.5 33.5Q663 -8 573 -8ZM312 424Q312 401 320 385.5Q328 370 345 355Q377 387 386 408Q395 429 395 448Q395 480 360 480Q335 480 323.5 460.5Q312 441 312 424ZM337 86Q350 86 360 88Q365 88 368 89Q352 103 334 118.5Q316 134 294 155Q280 166 268.5 176Q257 186 244 196Q232 179 232 153Q232 114 261 100Q290 86 337 86Z" glyph-name="ampersand.sc" horiz-adv-x="783" /><glyph d="M482 -10Q454 -10 428.5 -2.5Q403 5 373 29Q300 -10 200 -10Q165 -10 131.5 -3Q98 4 71.5 20.5Q45 37 29 65Q13 93 13 136Q13 170 23 199.5Q33 229 50.5 254.5Q68 280 90.5 302Q113 324 138 343Q113 392 102 430.5Q91 469 91 500Q91 557 109 595Q127 633 157 656.5Q187 680 227 690Q267 700 311 700Q396 700 443.5 665.5Q491 631 491 568Q491 535 480 507.5Q469 480 446.5 455Q424 430 391 405Q358 380 313 351Q342 301 383 248Q391 237 398.5 227Q406 217 414 209Q433 250 443 301H397L408 391H611L600 301H553Q525 197 478 127Q494 107 501.5 101.5Q509 96 517 96Q523 96 529 99.5Q535 103 540 112.5Q545 122 549.5 140Q554 158 557 187H622Q617 143 606.5 106.5Q596 70 579.5 44Q563 18 539 4Q515 -10 482 -10ZM259 524Q259 505 262.5 485Q266 465 272 444Q301 476 313.5 509Q326 542 326 572Q326 591 321 603Q316 615 302 615Q282 615 270.5 589Q259 563 259 524ZM284 90Q295 90 308 95Q297 107 286.5 120.5Q276 134 264 150Q247 172 233 192Q219 212 206 231Q193 199 193 169Q193 124 218 107Q243 90 284 90Z" glyph-name="ampersand.tln" horiz-adv-x="640" /><glyph d="M573 225Q542 116 470 53Q398 -10 271 -10Q214 -10 167.5 5Q121 20 88 49.5Q55 79 37 123.5Q19 168 19 228Q19 286 36.5 341.5Q54 397 87.5 440Q121 483 169.5 509Q218 535 279 535Q324 535 355.5 519.5Q387 504 407.5 477.5Q428 451 437 416Q446 381 446 342Q446 318 443 300H493Q499 344 499 395Q499 408 498.5 420Q498 432 497 443Q493 442 486 442Q460 442 439.5 460Q419 478 419 510Q419 547 442 574Q465 601 507 601Q533 601 550.5 589Q568 577 578.5 555.5Q589 534 593.5 505Q598 476 598 442Q598 404 595.5 368.5Q593 333 588 300H633L624 225ZM283 391Q283 414 278 429Q273 444 259 444Q248 444 239.5 431Q231 418 224.5 397.5Q218 377 213 351.5Q208 326 205 300H275Q278 324 280.5 347.5Q283 371 283 391ZM319 96Q375 96 414 129Q453 162 475 225H196Q191 153 224.5 124.5Q258 96 319 96Z" glyph-name="ampersand.ton" horiz-adv-x="640" /><glyph d="M539 -10Q477 -10 436 17.5Q395 45 386 103Q375 78 360.5 57.5Q346 37 325.5 22Q305 7 277.5 -1.5Q250 -10 213 -10Q179 -10 144.5 3.5Q110 17 82.5 44.5Q55 72 38 115Q21 158 21 217Q21 283 39.5 341Q58 399 91.5 442Q125 485 171.5 510Q218 535 274 535Q330 535 362.5 513Q395 491 412 449L443 520L649 519L602 133Q600 116 604 109Q608 102 616 102Q628 102 634 118.5Q640 135 646 175H723Q718 132 706 97.5Q694 63 672.5 39Q651 15 618.5 2.5Q586 -10 539 -10ZM342 425Q322 425 307 404.5Q292 384 282.5 351Q273 318 268 275.5Q263 233 263 188Q263 100 303 100Q332 100 349.5 138.5Q367 177 377 255L379 271Q389 349 378.5 387Q368 425 342 425ZM395 606Q350 606 320 635Q290 664 290 707Q290 734 299.5 757.5Q309 781 326 798.5Q343 816 367.5 826Q392 836 423 836Q468 836 498 807Q528 778 528 735Q528 708 519 684.5Q510 661 492.5 643.5Q475 626 450.5 616Q426 606 395 606ZM405 686Q422 686 433 696.5Q444 707 444 724Q444 738 435 747Q426 756 413 756Q396 756 385 745.5Q374 735 374 718Q374 704 383 695Q392 686 405 686Z" glyph-name="aring" horiz-adv-x="724" unicode="&#229;" /><glyph d="M262 574 150 384H47L227 690H330L433 384H326Z" glyph-name="asciicircum" horiz-adv-x="448" unicode="^" /><glyph d="M359 574 247 384H144L324 690H427L530 384H423Z" glyph-name="asciicircum.tln" horiz-adv-x="640" /><glyph d="M560 399Q556 365 546.5 327.5Q537 290 517.5 259.5Q498 229 464.5 209Q431 189 378 189Q329 189 303.5 204Q278 219 262.5 237Q247 255 235 270Q223 285 200 285Q173 285 158.5 261Q144 237 139 197H39Q43 232 54 269Q65 306 86.5 337Q108 368 143 387.5Q178 407 230 407Q277 407 301.5 392Q326 377 341 359Q356 341 368.5 326Q381 311 404 311Q430 311 442.5 334Q455 357 460 399Z" glyph-name="asciitilde" horiz-adv-x="588" unicode="~" /><glyph d="M586 399Q582 365 572.5 327.5Q563 290 543.5 259.5Q524 229 490.5 209Q457 189 404 189Q355 189 329.5 204Q304 219 288.5 237Q273 255 261 270Q249 285 226 285Q199 285 184.5 261Q170 237 165 197H65Q69 232 80 269Q91 306 112.5 337Q134 368 169 387.5Q204 407 256 407Q303 407 327.5 392Q352 377 367 359Q382 341 394.5 326Q407 311 430 311Q456 311 468.5 334Q481 357 486 399Z" glyph-name="asciitilde.tln" horiz-adv-x="640" /><glyph d="M286 508H259L224 608Q216 632 220 649.5Q224 667 235 678Q246 689 262.5 694.5Q279 700 295 700Q311 700 326 694.5Q341 689 350 678Q359 667 359 649.5Q359 632 345 608ZM253 504 237 481 130 489Q104 491 91.5 502.5Q79 514 76 529.5Q73 545 77 561.5Q81 578 89 590Q97 602 112 612Q127 622 144 624.5Q161 627 178 619.5Q195 612 207 589ZM300 481 290 504 358 589Q375 611 393.5 618.5Q412 626 428.5 624Q445 622 457.5 612.5Q470 603 476 591Q482 579 482.5 562.5Q483 546 475.5 530Q468 514 452 502.5Q436 491 409 489ZM175 366Q158 345 140.5 338.5Q123 332 108 335Q93 338 81.5 348Q70 358 65 370Q60 383 59.5 399.5Q59 416 65.5 431Q72 446 87 457Q102 468 128 470L236 478L247 454ZM408 469Q433 468 445 456Q457 444 460 428.5Q463 413 458.5 396.5Q454 380 446 369Q437 357 423 347.5Q409 338 393 335.5Q377 333 360.5 340Q344 347 331 368L282 451L300 475ZM241 260Q224 260 209 265.5Q194 271 185 281.5Q176 292 176 308.5Q176 325 189 347L251 450H278L316 346Q324 324 319 308Q314 292 302 281Q290 270 273.5 265Q257 260 241 260Z" glyph-name="asterisk" horiz-adv-x="485" unicode="*" /><glyph d="M248 392H223L189 479Q181 500 184.5 514.5Q188 529 198.5 539Q209 549 224 553.5Q239 558 255 558Q270 558 284.5 553.5Q299 549 307.5 539Q316 529 316 514Q316 499 303 479ZM217 388 203 369 103 374Q79 375 67 385Q55 395 52 409Q49 423 53 438Q57 453 64 463Q72 474 86 482.5Q100 491 116 493Q132 495 148 488.5Q164 482 175 462ZM261 369 252 388 313 462Q329 482 346 488.5Q363 495 378.5 493Q394 491 406 482.5Q418 474 424 464Q430 453 430 438Q430 423 423.5 409Q417 395 402 385Q387 375 362 374ZM147 269Q132 251 115.5 245.5Q99 240 84.5 242.5Q70 245 59.5 253.5Q49 262 44 273Q39 284 38.5 299Q38 314 44 327.5Q50 341 64 350.5Q78 360 102 361L202 366L212 345ZM362 360Q385 359 396 349Q407 339 410 325Q413 311 409.5 296.5Q406 282 398 272Q389 262 375.5 253.5Q362 245 347 242.5Q332 240 317 246.5Q302 253 290 271L245 342L261 363ZM208 177Q192 178 177.5 182.5Q163 187 154.5 196.5Q146 206 146 220Q146 234 158 253L216 342H241L278 252Q286 233 281.5 219Q277 205 266 195.5Q255 186 239 181.5Q223 177 208 177Z" glyph-name="asterisk.sc" horiz-adv-x="440" /><glyph d="M364 508H337L302 608Q294 632 298 649.5Q302 667 313 678Q324 689 340.5 694.5Q357 700 373 700Q389 700 404 694.5Q419 689 428 678Q437 667 437 649.5Q437 632 423 608ZM331 504 315 481 208 489Q182 491 169.5 502.5Q157 514 154 529.5Q151 545 155 561.5Q159 578 167 590Q175 602 190 612Q205 622 222 624.5Q239 627 256 619.5Q273 612 285 589ZM378 481 368 504 436 589Q453 611 471.5 618.5Q490 626 506.5 624Q523 622 535.5 612.5Q548 603 554 591Q560 579 560.5 562.5Q561 546 553.5 530Q546 514 530 502.5Q514 491 487 489ZM253 366Q236 345 218.5 338.5Q201 332 186 335Q171 338 159.5 348Q148 358 143 370Q138 383 137.5 399.5Q137 416 143.5 431Q150 446 165 457Q180 468 206 470L314 478L325 454ZM486 469Q511 468 523 456Q535 444 538 428.5Q541 413 536.5 396.5Q532 380 524 369Q515 357 501 347.5Q487 338 471 335.5Q455 333 438.5 340Q422 347 409 368L360 451L378 475ZM319 260Q302 260 287 265.5Q272 271 263 281.5Q254 292 254 308.5Q254 325 267 347L329 450H356L394 346Q402 324 397 308Q392 292 380 281Q368 270 351.5 265Q335 260 319 260Z" glyph-name="asterisk.tln" horiz-adv-x="640" /><glyph d="M758 -166Q716 -189 646 -201Q576 -213 479 -213Q386 -213 303 -192.5Q220 -172 157 -128Q94 -84 57.5 -15Q21 54 21 152Q21 251 59.5 343Q98 435 171 505.5Q244 576 349.5 618Q455 660 588 660Q807 660 917 570Q1027 480 1027 311Q1027 240 1009 181Q991 122 956 79.5Q921 37 869.5 13.5Q818 -10 751 -10Q690 -10 651 7.5Q612 25 591 53Q576 72 570 97Q555 70 539 50Q523 30 502 16.5Q481 3 454 -3.5Q427 -10 391 -10Q357 -10 326.5 -1Q296 8 273.5 27.5Q251 47 237.5 78Q224 109 224 154Q224 206 242.5 259Q261 312 297 355Q333 398 386.5 425.5Q440 453 510 453Q559 453 588.5 439.5Q618 426 637 397L791 453H821L756 180Q753 166 750.5 153Q748 140 748 128Q748 109 757 97Q766 85 789 85Q813 85 835 100.5Q857 116 873.5 145Q890 174 899.5 215.5Q909 257 909 309Q909 375 887 422.5Q865 470 823 500.5Q781 531 720 545.5Q659 560 582 560Q474 560 391 527.5Q308 495 251.5 439.5Q195 384 166 310Q137 236 137 153Q137 80 166 29Q195 -22 244 -53.5Q293 -85 358.5 -99Q424 -113 497 -113Q560 -113 621 -104.5Q682 -96 750 -73ZM434 135Q434 112 441.5 98.5Q449 85 468 85Q492 85 514 120.5Q536 156 552 215Q560 246 565 271.5Q570 297 570 316Q570 336 563 347Q556 358 538 358Q519 358 500.5 337Q482 316 467 283.5Q452 251 443 211.5Q434 172 434 135Z" glyph-name="at" horiz-adv-x="1059" unicode="@" /><glyph d="M780 -36Q738 -59 668 -71Q598 -83 501 -83Q408 -83 325 -62.5Q242 -42 179 2Q116 46 79.5 115Q43 184 43 282Q43 381 81.5 473Q120 565 193 635.5Q266 706 371.5 748Q477 790 610 790Q829 790 939 700Q1049 610 1049 441Q1049 370 1031 311Q1013 252 978 209.5Q943 167 891.5 143.5Q840 120 773 120Q712 120 673 137.5Q634 155 613 183Q598 202 592 227Q577 200 561 180Q545 160 524 146.5Q503 133 476 126.5Q449 120 413 120Q379 120 348.5 129Q318 138 295.5 157.5Q273 177 259.5 208Q246 239 246 284Q246 336 264.5 389Q283 442 319 485Q355 528 408.5 555.5Q462 583 532 583Q581 583 610.5 569.5Q640 556 659 527L813 583H843L778 310Q775 296 772.5 283Q770 270 770 258Q770 239 779 227Q788 215 811 215Q835 215 857 230.5Q879 246 895.5 275Q912 304 921.5 345.5Q931 387 931 439Q931 505 909 552.5Q887 600 845 630.5Q803 661 742 675.5Q681 690 604 690Q496 690 413 657.5Q330 625 273.5 569.5Q217 514 188 440Q159 366 159 283Q159 210 188 159Q217 108 266 76.5Q315 45 380.5 31Q446 17 519 17Q582 17 643 25.5Q704 34 772 57ZM456 265Q456 242 463.5 228.5Q471 215 490 215Q514 215 536 250.5Q558 286 574 345Q582 376 587 401.5Q592 427 592 446Q592 466 585 477Q578 488 560 488Q541 488 522.5 467Q504 446 489 413.5Q474 381 465 341.5Q456 302 456 265Z" glyph-name="at.cap" horiz-adv-x="1058" /><glyph d="M368 -8Q295 -8 229.5 4.5Q164 17 117 47.5Q70 78 46 128.5Q22 179 31 254Q40 329 76.5 385.5Q113 442 170.5 480.5Q228 519 303 538.5Q378 558 465 558Q542 558 604.5 544Q667 530 709.5 501Q752 472 772.5 428.5Q793 385 785 326Q772 217 716.5 169Q661 121 570 121Q507 121 476.5 144Q446 167 441 192Q418 154 382.5 137.5Q347 121 308 121Q278 121 251 129.5Q224 138 206 157Q188 176 182 206.5Q176 237 187 280Q197 322 218.5 351Q240 380 268 397.5Q296 415 326.5 423Q357 431 385 431Q421 431 446.5 422.5Q472 414 489 399L613 430H634L590 249Q588 239 585.5 228.5Q583 218 584 209.5Q585 201 590.5 195.5Q596 190 610 190Q636 190 660 219.5Q684 249 692 317Q698 367 681 399Q664 431 629.5 449.5Q595 468 547.5 475Q500 482 446 482Q388 482 333 469Q278 456 233.5 428.5Q189 401 160 357.5Q131 314 123 254Q117 201 135.5 165.5Q154 130 190 109Q226 88 276.5 79Q327 70 384 70Q430 70 479.5 74.5Q529 79 580 91L584 17Q554 4 497.5 -2Q441 -8 368 -8ZM366 186Q381 186 395.5 208Q410 230 422 272Q427 290 430.5 306Q434 322 435 334Q436 346 432.5 353.5Q429 361 419 361Q405 361 388.5 339.5Q372 318 361 280Q349 243 347.5 214.5Q346 186 366 186Z" glyph-name="at.sc" horiz-adv-x="804" /><glyph d="M451 -166Q427 -185 384.5 -199Q342 -213 275 -213Q203 -213 147.5 -188.5Q92 -164 55 -116Q18 -68 1 2.5Q-16 73 -9 166Q-3 265 28.5 354.5Q60 444 112 512Q164 580 234 620Q304 660 387 660Q480 660 535 622Q590 584 615.5 521.5Q641 459 641.5 379Q642 299 628 215Q619 167 603 126Q587 85 562 54.5Q537 24 503.5 7Q470 -10 427 -10Q388 -10 368.5 5Q349 20 341 46Q335 69 335 97Q320 47 287.5 18.5Q255 -10 212 -10Q160 -10 134.5 38.5Q109 87 129 194Q140 260 160.5 309Q181 358 207 390Q233 422 262 437.5Q291 453 317 453Q338 453 350.5 447Q363 441 370.5 432.5Q378 424 381.5 414.5Q385 405 387 397L458 453H508L458 180Q455 163 452 147Q449 131 447 117Q445 103 448 94Q451 85 460 85Q476 85 493.5 123Q511 161 522 220Q533 277 539 337.5Q545 398 533 447.5Q521 497 485.5 528.5Q450 560 378 560Q320 560 271 527.5Q222 495 184.5 440.5Q147 386 124 315Q101 244 96 166Q92 102 100.5 50Q109 -2 132 -39.5Q155 -77 193 -97.5Q231 -118 285 -118Q317 -118 353 -112Q389 -106 435 -78ZM275 227Q268 196 262.5 170Q257 144 255 125Q253 106 256 95.5Q259 85 268 85Q273 85 279 90.5Q285 96 292.5 111Q300 126 308 151Q316 176 324 215Q327 228 329.5 239Q332 250 334 261Q342 306 343 332Q344 358 331 358Q317 358 302 325.5Q287 293 275 227Z" glyph-name="at.tln" horiz-adv-x="640" /><glyph d="M539 -10Q477 -10 436 17.5Q395 45 386 103Q375 78 360.5 57.5Q346 37 325.5 22Q305 7 277.5 -1.5Q250 -10 213 -10Q179 -10 144.5 3.5Q110 17 82.5 44.5Q55 72 38 115Q21 158 21 217Q21 283 39.5 341Q58 399 91.5 442Q125 485 171.5 510Q218 535 274 535Q330 535 362.5 513Q395 491 412 449L443 520L649 519L602 133Q600 116 604 109Q608 102 616 102Q628 102 634 118.5Q640 135 646 175H723Q718 132 706 97.5Q694 63 672.5 39Q651 15 618.5 2.5Q586 -10 539 -10ZM342 425Q322 425 307 404.5Q292 384 282.5 351Q273 318 268 275.5Q263 233 263 188Q263 100 303 100Q332 100 349.5 138.5Q367 177 377 255L379 271Q389 349 378.5 387Q368 425 342 425ZM452 607Q428 607 407 615.5Q386 624 368 634.5Q350 645 334 653.5Q318 662 304 662Q284 662 274.5 649Q265 636 261 611H182Q192 689 222.5 731.5Q253 774 316 774Q341 774 362.5 765.5Q384 757 402 746.5Q420 736 436 727.5Q452 719 467 719Q500 719 506 770H585Q580 731 572 701Q564 671 549 650Q534 629 511 618Q488 607 452 607Z" glyph-name="atilde" horiz-adv-x="724" unicode="&#227;" /><glyph d="M328 100Q347 100 361.5 118.5Q376 137 386 169Q396 201 401.5 244.5Q407 288 407 338Q407 425 367 425Q337 425 320.5 387Q304 349 294 271L292 255Q283 180 291 140Q299 100 328 100ZM401 -10Q360 -10 320.5 3Q281 16 249 63L49 -10H19L99 645H49L62 745Q140 745 189 746Q238 747 267 748.5Q296 750 310 753Q324 756 334 760L352 750L339 642Q335 605 331.5 580Q328 555 325 534.5Q322 514 319 495.5Q316 477 311 453Q338 495 380 515Q422 535 467 535Q509 535 543 519.5Q577 504 601 475.5Q625 447 638 406.5Q651 366 651 316Q651 252 633.5 193Q616 134 583.5 89Q551 44 504.5 17Q458 -10 401 -10Z" glyph-name="b" horiz-adv-x="671" unicode="b" /><glyph d="M415 -100 81 760H206L540 -100Z" glyph-name="backslash" horiz-adv-x="603" unicode="\" /><glyph d="M417 -70 83 790H208L542 -70Z" glyph-name="backslash.cap" horiz-adv-x="601" /><glyph d="M380 -60 71 626H192L501 -60Z" glyph-name="backslash.sc" horiz-adv-x="558" /><glyph d="M434 -100 100 760H225L559 -100Z" glyph-name="backslash.tln" horiz-adv-x="640" /><glyph d="M14 -250 148 840H258L124 -250Z" glyph-name="bar" horiz-adv-x="264" unicode="|" /><glyph d="M16 -200 150 890H260L126 -200Z" glyph-name="bar.cap" horiz-adv-x="255" /><glyph d="M202 -250 336 840H446L312 -250Z" glyph-name="bar.tln" horiz-adv-x="640" /><glyph d="M348 -260Q255 -260 200 -241.5Q145 -223 116.5 -192.5Q88 -162 80.5 -122Q73 -82 75 -40Q77 -2 82.5 35.5Q88 73 90 106Q91 130 88 150Q85 170 74.5 185Q64 200 45 208Q26 216 -6 216L6 311Q41 311 63.5 320.5Q86 330 100 347Q114 364 120.5 387Q127 410 131 437Q135 466 138 498Q141 530 148 562Q158 607 176 643.5Q194 680 229.5 706Q265 732 323.5 746Q382 760 473 760L461 660Q440 660 425.5 651Q411 642 401.5 626.5Q392 611 386.5 590Q381 569 377 545Q372 516 367 483Q362 450 354 418Q346 388 333 360.5Q320 333 299 312Q278 291 246 278Q214 265 169 263Q214 260 242.5 245.5Q271 231 287 208Q303 185 309 155.5Q315 126 315 94Q315 59 311.5 23Q308 -13 306 -45Q304 -69 304.5 -90Q305 -111 310.5 -126.5Q316 -142 328 -151Q340 -160 360 -160Z" glyph-name="braceleft" horiz-adv-x="440" unicode="{" /><glyph d="M359 -180Q266 -180 211 -161.5Q156 -143 127.5 -112.5Q99 -82 91.5 -42Q84 -2 86 40Q88 78 93.5 115.5Q99 153 101 186Q102 210 99 230Q96 250 85.5 265Q75 280 56 288Q37 296 5 296L17 391Q52 391 74.5 400.5Q97 410 111 427Q125 444 131.5 467Q138 490 142 517Q146 546 149 578Q152 610 159 642Q169 687 187 723.5Q205 760 240.5 786Q276 812 334.5 826Q393 840 484 840L472 740Q451 740 436.5 731Q422 722 412.5 706.5Q403 691 397.5 670Q392 649 388 625Q383 596 378 563Q373 530 365 498Q357 468 344 440.5Q331 413 310 392Q289 371 257 358Q225 345 180 343Q225 340 253.5 325.5Q282 311 298 288Q314 265 320 235.5Q326 206 326 174Q326 139 322.5 103Q319 67 317 35Q315 11 315.5 -10Q316 -31 321.5 -46.5Q327 -62 339 -71Q351 -80 371 -80Z" glyph-name="braceleft.cap" horiz-adv-x="444" /><glyph d="M343 -127Q257 -127 205.5 -112Q154 -97 127 -72Q100 -47 92 -14.5Q84 18 85 52Q86 81 90 109.5Q94 138 94 164Q94 182 91 197Q88 212 78.5 223Q69 234 52 240Q35 246 7 246L18 335Q50 335 70 343Q90 351 102 364.5Q114 378 119.5 396.5Q125 415 128 436Q131 457 134 480Q137 503 142 523Q151 561 167.5 591Q184 621 217 642Q250 663 304 674.5Q358 686 443 686L431 591Q397 591 384.5 566Q372 541 366 508Q361 486 357 461Q353 436 345 410Q338 387 326.5 366Q315 345 295.5 328.5Q276 312 247 302Q218 292 177 290Q218 288 244 276.5Q270 265 285.5 247Q301 229 307.5 206Q314 183 315 158Q317 130 314.5 102Q312 74 311 48Q310 15 317 -9Q324 -33 355 -33Z" glyph-name="braceleft.sc" horiz-adv-x="425" /><glyph d="M448 -260Q355 -260 300 -241.5Q245 -223 216.5 -192.5Q188 -162 180.5 -122Q173 -82 175 -40Q177 -2 182.5 35.5Q188 73 190 106Q191 130 188 150Q185 170 174.5 185Q164 200 145 208Q126 216 94 216L106 311Q141 311 163.5 320.5Q186 330 200 347Q214 364 220.5 387Q227 410 231 437Q235 466 238 498Q241 530 248 562Q258 607 276 643.5Q294 680 329.5 706Q365 732 423.5 746Q482 760 573 760L561 660Q540 660 525.5 651Q511 642 501.5 626.5Q492 611 486.5 590Q481 569 477 545Q472 516 467 483Q462 450 454 418Q446 388 433 360.5Q420 333 399 312Q378 291 346 278Q314 265 269 263Q314 260 342.5 245.5Q371 231 387 208Q403 185 409 155.5Q415 126 415 94Q415 59 411.5 23Q408 -13 406 -45Q404 -69 404.5 -90Q405 -111 410.5 -126.5Q416 -142 428 -151Q440 -160 460 -160Z" glyph-name="braceleft.tln" horiz-adv-x="640" /><glyph d="M89 760Q182 760 237 741.5Q292 723 320.5 692.5Q349 662 356.5 622Q364 582 362 540Q360 502 354.5 464.5Q349 427 347 394Q346 370 349 350Q352 330 362.5 315Q373 300 392.5 292Q412 284 443 284L431 189Q396 189 373.5 179.5Q351 170 337 153Q323 136 316.5 113Q310 90 306 63Q302 34 299 2Q296 -30 289 -62Q279 -107 261 -143.5Q243 -180 207.5 -206Q172 -232 113.5 -246Q55 -260 -36 -260L-24 -160Q-3 -160 11.5 -151Q26 -142 35.5 -126.5Q45 -111 50.5 -90Q56 -69 60 -45Q65 -16 70 17Q75 50 83 82Q91 112 104 139.5Q117 167 138 188Q159 209 191 222Q223 235 268 237Q223 240 194.5 254.5Q166 269 150 292Q134 315 128 344.5Q122 374 122 406Q122 441 125.5 477Q129 513 131 545Q133 569 132.5 590Q132 611 126.5 626.5Q121 642 109 651Q97 660 77 660Z" glyph-name="braceright" horiz-adv-x="439" unicode="}" /><glyph d="M102 840Q195 840 250 821.5Q305 803 333.5 772.5Q362 742 369.5 702Q377 662 375 620Q373 582 367.5 544.5Q362 507 360 474Q359 450 362 430Q365 410 375.5 395Q386 380 405.5 372Q425 364 456 364L444 269Q409 269 386.5 259.5Q364 250 350 233Q336 216 329.5 193Q323 170 319 143Q315 114 312 82Q309 50 302 18Q292 -27 274 -63.5Q256 -100 220.5 -126Q185 -152 126.5 -166Q68 -180 -23 -180L-11 -80Q10 -80 24.5 -71Q39 -62 48.5 -46.5Q58 -31 63.5 -10Q69 11 73 35Q78 64 83 97Q88 130 96 162Q104 192 117 219.5Q130 247 151 268Q172 289 204 302Q236 315 281 317Q236 320 207.5 334.5Q179 349 163 372Q147 395 141 424.5Q135 454 135 486Q135 521 138.5 557Q142 593 144 625Q146 649 145.5 670Q145 691 139.5 706.5Q134 722 122 731Q110 740 90 740Z" glyph-name="braceright.cap" horiz-adv-x="443" /><glyph d="M86 686Q172 686 223.5 671Q275 656 302.5 631Q330 606 338 573.5Q346 541 345 506Q343 477 339.5 448.5Q336 420 335 395Q335 377 338 362Q341 347 351 336Q361 325 378 319Q395 313 423 313L412 224Q380 224 360 216Q340 208 328 194.5Q316 181 310 162.5Q304 144 301 123Q299 101 296 78Q293 55 288 35Q279 -3 262.5 -33Q246 -63 213 -84Q180 -105 125.5 -116Q71 -127 -13 -127L-2 -33Q15 -33 26 -26Q37 -19 44.5 -7.5Q52 4 56.5 19Q61 34 64 50Q69 73 72.5 98Q76 123 84 149Q91 172 103 193Q115 214 134.5 230.5Q154 247 182.5 257.5Q211 268 252 269Q212 271 185.5 282.5Q159 294 143.5 312Q128 330 121.5 352.5Q115 375 114 400Q113 429 115 457Q117 485 119 511Q121 543 113.5 567Q106 591 75 591Z" glyph-name="braceright.sc" horiz-adv-x="424" /><glyph d="M190 760Q283 760 338 741.5Q393 723 421.5 692.5Q450 662 457.5 622Q465 582 463 540Q461 502 455.5 464.5Q450 427 448 394Q447 370 450 350Q453 330 463.5 315Q474 300 493.5 292Q513 284 544 284L532 189Q497 189 474.5 179.5Q452 170 438 153Q424 136 417.5 113Q411 90 407 63Q403 34 400 2Q397 -30 390 -62Q380 -107 362 -143.5Q344 -180 308.5 -206Q273 -232 214.5 -246Q156 -260 65 -260L77 -160Q98 -160 112.5 -151Q127 -142 136.5 -126.5Q146 -111 151.5 -90Q157 -69 161 -45Q166 -16 171 17Q176 50 184 82Q192 112 205 139.5Q218 167 239 188Q260 209 292 222Q324 235 369 237Q324 240 295.5 254.5Q267 269 251 292Q235 315 229 344.5Q223 374 223 406Q223 441 226.5 477Q230 513 232 545Q234 569 233.5 590Q233 611 227.5 626.5Q222 642 210 651Q198 660 178 660Z" glyph-name="braceright.tln" horiz-adv-x="640" /><glyph d="M14 -250 137 750H521L509 650H370L271 -150H410L398 -250Z" glyph-name="bracketleft" horiz-adv-x="478" unicode="[" /><glyph d="M20 -170 143 830H527L515 730H376L277 -70H416L404 -170Z" glyph-name="bracketleft.cap" horiz-adv-x="476" /><glyph d="M29 -119 126 678H491L479 583H355L280 -25H404L393 -119Z" glyph-name="bracketleft.sc" horiz-adv-x="463" /><glyph d="M95 -250 218 750H602L590 650H451L352 -150H491L479 -250Z" glyph-name="bracketleft.tln" horiz-adv-x="640" /><glyph d="M-34 -150H105L204 650H65L77 750H461L338 -250H-46Z" glyph-name="bracketright" horiz-adv-x="478" unicode="]" /><glyph d="M-22 -70H117L216 730H77L89 830H473L350 -170H-34Z" glyph-name="bracketright.cap" horiz-adv-x="476" /><glyph d="M-11 -25H113L188 583H64L75 678H439L342 -119H-23Z" glyph-name="bracketright.sc" horiz-adv-x="463" /><glyph d="M47 -150H186L285 650H146L158 750H542L419 -250H35Z" glyph-name="bracketright.tln" horiz-adv-x="640" /><glyph d="M293 715Q325 715 342.5 730.5Q360 746 368 774H459Q455 746 445 716Q435 686 415 661.5Q395 637 362 621.5Q329 606 280 606Q232 606 201.5 621.5Q171 637 154.5 661.5Q138 686 133.5 716Q129 746 133 774H224Q226 746 243.5 730.5Q261 715 293 715Z" glyph-name="breve" horiz-adv-x="406" unicode="&#728;" /><glyph d="M299 850Q333 850 352 865.5Q371 881 378 904H464Q461 877 451.5 848Q442 819 422 795Q402 771 369.5 756Q337 741 288 741Q243 741 214 756Q185 771 169.5 795Q154 819 150 848Q146 877 149 904H234Q236 881 251.5 865.5Q267 850 299 850Z" glyph-name="breve.cap" horiz-adv-x="395" /><glyph d="M93 400 147 840H257L203 400ZM13 -250 67 190H177L123 -250Z" glyph-name="brokenbar" horiz-adv-x="262" unicode="&#166;" /><glyph d="M282 400 336 840H446L392 400ZM202 -250 256 190H366L312 -250Z" glyph-name="brokenbar.tln" horiz-adv-x="640" /><glyph d="M518 153Q489 68 429 29Q369 -10 266 -10Q214 -10 169 4.5Q124 19 91 48Q58 77 39 120Q20 163 20 219Q20 290 42 348.5Q64 407 104 448.5Q144 490 200 512.5Q256 535 323 535Q420 535 475 500.5Q530 466 530 401Q530 361 501.5 333Q473 305 425 305Q382 305 361.5 324.5Q341 344 341 375Q341 411 371 433Q367 434 364 434.5Q361 435 356 435Q332 435 315 413Q298 391 286.5 357Q275 323 269.5 282.5Q264 242 264 204Q264 92 348 92Q414 92 443 181Z" glyph-name="c" horiz-adv-x="538" unicode="c" /><glyph d="M785 -10Q679 -10 635.5 47.5Q592 105 606 219L631 420H581L591 500Q654 500 685.5 518.5Q717 537 722 575Q727 609 704.5 635.5Q682 662 624 662Q570 662 531.5 633.5Q493 605 476 558Q467 534 464 506Q496 489 513 462.5Q530 436 530 401Q530 366 509 341Q488 316 441 315Q413 315 393.5 325.5Q374 336 362.5 353Q351 370 347.5 390.5Q344 411 348 431Q324 421 307.5 396Q291 371 281.5 339.5Q272 308 268 272.5Q264 237 264 204Q264 92 348 92Q414 92 443 181L518 153Q489 68 429 29Q369 -10 266 -10Q214 -10 169 4.5Q124 19 91 48Q58 77 39 120Q20 163 20 219Q20 290 42 348.5Q64 407 104 448.5Q144 490 200 512.5Q256 535 323 535Q333 535 342 535Q351 535 360 534Q367 563 376 585Q406 666 470.5 713Q535 760 639 760Q767 760 833.5 704.5Q900 649 883 540L880 520H1036L1024 420H871L848 233Q841 177 846 143Q851 109 879 109Q908 109 921.5 143.5Q935 178 942 232H1017Q1002 112 947 51Q892 -10 785 -10Z" glyph-name="c_t" horiz-adv-x="1032" /><glyph d="M766 -10Q736 -10 702 -3.5Q668 3 640.5 23.5Q613 44 597.5 82Q582 120 590 182L619 420H563L575 520H631Q636 552 635.5 578Q635 604 626.5 622.5Q618 641 599.5 651Q581 661 549 661Q517 661 485.5 641Q454 621 439 573Q432 551 430 520Q478 505 504 475Q530 445 530 401Q530 366 503.5 340.5Q477 315 441 315Q399 315 368.5 339.5Q338 364 324 399Q312 385 301 362Q290 339 281.5 312Q273 285 268.5 256.5Q264 228 264 204Q264 92 348 92Q414 92 443 181L518 153Q489 68 429 29Q369 -10 266 -10Q214 -10 169 4.5Q124 19 91 48Q58 77 39 120Q20 163 20 219Q20 289 41.5 347Q63 405 102.5 447Q142 489 197 512Q252 535 319 535Q322 553 327 570Q332 587 338 603Q367 675 426 717.5Q485 760 568 760Q649 760 697.5 722.5Q746 685 774 606L909 770L958 750Q946 727 932.5 702.5Q919 678 907 650Q895 622 885.5 590Q876 558 871 520H1040L1028 420H859L834 218Q826 157 832.5 133.5Q839 110 867 110Q885 110 896.5 126Q908 142 914.5 163Q921 184 924 204Q927 224 928 232H1003Q998 191 986 148Q974 105 948.5 70Q923 35 879 12.5Q835 -10 766 -10Z" glyph-name="c_t.alt" horiz-adv-x="1023" /><glyph d="M407 -8 384 32Q363 16 334 4Q305 -8 254 -8Q202 -8 159.5 8Q117 24 86 53.5Q55 83 38 125.5Q21 168 21 221Q21 296 43.5 358Q66 420 107 464.5Q148 509 204.5 533.5Q261 558 329 558Q374 558 401.5 546.5Q429 535 440 521L472 557H575L550 346H439V360Q439 381 436 399.5Q433 418 426.5 431.5Q420 445 407.5 452.5Q395 460 375 460Q348 460 326.5 435.5Q305 411 291 371Q277 331 269.5 281.5Q262 232 262 182Q262 133 279.5 111.5Q297 90 328 90Q351 90 367 101Q383 112 394.5 129Q406 146 413 167Q420 188 424 208H536L509 -8ZM678 94H733L778 458H772Q737 458 721 436.5Q705 415 698 367L693 330H582L609 550H1210L1182 330H1071L1076 367Q1083 416 1072 437Q1061 458 1029 458H1018L973 94H1027L1016 0H667Z" glyph-name="c_t.alt.sc" horiz-adv-x="1188" /><glyph d="M407 -8 384 32Q363 16 334 4Q305 -8 254 -8Q202 -8 159.5 8Q117 24 86 53.5Q55 83 38 125.5Q21 168 21 221Q21 296 43.5 358Q66 420 107 464.5Q148 509 204.5 533.5Q261 558 329 558Q374 558 401.5 546.5Q429 535 440 521L472 557H575L550 346H439V360Q439 381 436 399.5Q433 418 426.5 431.5Q420 445 407.5 452.5Q395 460 375 460Q348 460 326.5 435.5Q305 411 291 371Q277 331 269.5 281.5Q262 232 262 182Q262 133 279.5 111.5Q297 90 328 90Q351 90 367 101Q383 112 394.5 129Q406 146 413 167Q420 188 424 208H536L509 -8ZM678 94H733L778 458H772Q737 458 721 436.5Q705 415 698 367L693 330H582L609 550H1210L1182 330H1071L1076 367Q1083 416 1072 437Q1061 458 1029 458H1018L973 94H1027L1016 0H667Z" glyph-name="c_t.sc" horiz-adv-x="1188" /><glyph d="M236 796 333 727 456 796H558L358 620H285L134 796Z" glyph-name="caron" horiz-adv-x="503" unicode="&#711;" /><glyph d="M524 876 374 740H258L147 876H264L330 826L407 876Z" glyph-name="caron.cap" horiz-adv-x="456" /><glyph d="M243 -218Q230 -218 213 -217.5Q196 -217 179.5 -215Q163 -213 147.5 -209.5Q132 -206 122 -200L132 -120Q147 -136 180 -136Q194 -136 205 -128.5Q216 -121 216 -110Q216 -93 201.5 -87.5Q187 -82 163 -82L165 -65L194 -2Q118 15 69 71Q20 127 20 219Q20 290 42 348.5Q64 407 104 448.5Q144 490 200 512.5Q256 535 323 535Q420 535 475 500.5Q530 466 530 401Q530 361 501.5 333Q473 305 425 305Q382 305 361.5 324.5Q341 344 341 375Q341 411 371 433Q367 434 364 434.5Q361 435 356 435Q332 435 315 413Q298 391 286.5 357Q275 323 269.5 282.5Q264 242 264 204Q264 92 348 92Q414 92 443 181L518 153Q492 78 442 39Q392 0 309 -8L294 -40Q332 -45 357 -63Q382 -81 382 -116Q382 -161 344 -189.5Q306 -218 243 -218Z" glyph-name="ccedilla" horiz-adv-x="538" unicode="&#231;" /><glyph d="M136 -218Q123 -218 106 -217.5Q89 -217 72.5 -215Q56 -213 40.5 -209.5Q25 -206 15 -200L25 -120Q40 -136 73 -136Q87 -136 98 -128.5Q109 -121 109 -110Q109 -93 94.5 -87.5Q80 -82 56 -82L58 -65L96 17H214L187 -40Q225 -45 250 -63Q275 -81 275 -116Q275 -161 237 -189.5Q199 -218 136 -218Z" glyph-name="cedilla" horiz-adv-x="329" unicode="&#184;" /><glyph d="M541 233Q515 157 464.5 118.5Q414 80 332 72L320 -20H245L257 71Q211 76 171.5 92.5Q132 109 103.5 137.5Q75 166 59 206.5Q43 247 43 299Q43 367 63.5 423.5Q84 480 121 521Q158 562 209.5 586Q261 610 323 614L333 697H408L398 612Q471 603 512 570Q553 537 553 481Q553 441 524.5 413Q496 385 448 385Q405 385 384.5 404.5Q364 424 364 455Q364 491 394 513Q390 514 387 514.5Q384 515 379 515Q355 515 338 493Q321 471 309.5 437Q298 403 292.5 362.5Q287 322 287 284Q287 172 371 172Q437 172 466 261Z" glyph-name="cent" horiz-adv-x="573" unicode="&#162;" /><glyph d="M530 153Q504 77 453.5 38.5Q403 0 321 -8L309 -100H234L246 -9Q200 -5 160.5 12Q121 29 92.5 57.5Q64 86 48 126.5Q32 167 32 219Q32 287 52.5 343.5Q73 400 110 441Q147 482 198.5 506Q250 530 312 534L322 617H397L387 532Q460 523 501 490Q542 457 542 401Q542 361 513.5 333Q485 305 437 305Q394 305 373.5 324.5Q353 344 353 375Q353 411 383 433Q379 434 376 434.5Q373 435 368 435Q344 435 327 413Q310 391 298.5 357Q287 323 281.5 282.5Q276 242 276 204Q276 92 360 92Q426 92 455 181Z" glyph-name="cent.old" horiz-adv-x="569" /><glyph d="M495 188Q471 123 426 93Q381 63 306 58L297 -16H225L234 57Q191 60 154 73Q117 86 90 109.5Q63 133 47.5 168Q32 203 32 251Q32 306 50.5 350Q69 394 102.5 425.5Q136 457 183 475Q230 493 287 496L295 560H367L359 494Q427 486 465 458.5Q503 431 503 383Q503 345 476 321Q449 297 404 297Q363 297 343.5 314Q324 331 324 358Q324 372 330 383Q336 394 346 403Q325 403 311 386.5Q297 370 288 344.5Q279 319 275 287.5Q271 256 271 227Q271 150 345 150Q372 150 391.5 164.5Q411 179 423 214Z" glyph-name="cent.sc" horiz-adv-x="530" /><glyph d="M574 233Q548 157 497.5 118.5Q447 80 365 72L353 -20H278L290 71Q244 76 204.5 92.5Q165 109 136.5 137.5Q108 166 92 206.5Q76 247 76 299Q76 367 96.5 423.5Q117 480 154 521Q191 562 242.5 586Q294 610 356 614L366 697H441L431 612Q504 603 545 570Q586 537 586 481Q586 441 557.5 413Q529 385 481 385Q438 385 417.5 404.5Q397 424 397 455Q397 491 427 513Q423 514 420 514.5Q417 515 412 515Q388 515 371 493Q354 471 342.5 437Q331 403 325.5 362.5Q320 322 320 284Q320 172 404 172Q470 172 499 261Z" glyph-name="cent.tln" horiz-adv-x="640" /><glyph d="M565 153Q539 77 488.5 38.5Q438 0 356 -8L344 -100H269L281 -9Q235 -5 195.5 12Q156 29 127.5 57.5Q99 86 83 126.5Q67 167 67 219Q67 287 87.5 343.5Q108 400 145 441Q182 482 233.5 506Q285 530 347 534L357 617H432L422 532Q495 523 536 490Q577 457 577 401Q577 361 548.5 333Q520 305 472 305Q429 305 408.5 324.5Q388 344 388 375Q388 411 418 433Q414 434 411 434.5Q408 435 403 435Q379 435 362 413Q345 391 333.5 357Q322 323 316.5 282.5Q311 242 311 204Q311 92 395 92Q461 92 490 181Z" glyph-name="cent.ton" horiz-adv-x="640" /><glyph d="M112 620 312 796H385L536 620H434L337 689L214 620Z" glyph-name="circumflex" horiz-adv-x="504" unicode="&#710;" /><glyph d="M324 790 247 740H130L280 876H396L507 740H390Z" glyph-name="circumflex.cap" horiz-adv-x="456" /><glyph d="M256 403Q256 356 225 327Q194 298 147 298Q107 298 83.5 320Q60 342 60 379Q60 425 91 454.5Q122 484 168 484Q207 484 231.5 461.5Q256 439 256 403ZM218 95Q218 48 187 19Q156 -10 109 -10Q69 -10 45.5 12Q22 34 22 71Q22 117 53 146.5Q84 176 130 176Q169 176 193.5 153.5Q218 131 218 95Z" glyph-name="colon" horiz-adv-x="284" unicode=":" /><glyph d="M434 403Q434 356 403 327Q372 298 325 298Q285 298 261.5 320Q238 342 238 379Q238 425 269 454.5Q300 484 346 484Q385 484 409.5 461.5Q434 439 434 403ZM396 95Q396 48 365 19Q334 -10 287 -10Q247 -10 223.5 12Q200 34 200 71Q200 117 231 146.5Q262 176 308 176Q347 176 371.5 153.5Q396 131 396 95Z" glyph-name="colon.tln" horiz-adv-x="640" /><glyph d="M17 -76Q52 -76 77 -59Q102 -42 109 -11Q70 -8 43.5 12Q17 32 17 74Q17 115 45 145.5Q73 176 121 176Q173 176 196.5 146Q220 116 220 72Q220 32 206 -6.5Q192 -45 165 -75.5Q138 -106 98.5 -125.5Q59 -145 8 -146Z" glyph-name="comma" horiz-adv-x="271" unicode="," /><glyph d="M196 -76Q231 -76 256 -59Q281 -42 288 -11Q249 -8 222.5 12Q196 32 196 74Q196 115 224 145.5Q252 176 300 176Q352 176 375.5 146Q399 116 399 72Q399 32 385 -6.5Q371 -45 344 -75.5Q317 -106 277.5 -125.5Q238 -145 187 -146Z" glyph-name="comma.tln" horiz-adv-x="640" /><glyph d="M436 700Q505 700 562 677.5Q619 655 660.5 615Q702 575 724.5 520Q747 465 747 399Q747 311 716.5 236Q686 161 632 106Q578 51 505.5 20.5Q433 -10 349 -10Q279 -10 222 14Q165 38 124.5 80Q84 122 62 179.5Q40 237 40 303Q40 381 67.5 453Q95 525 146.5 579.5Q198 634 271.5 667Q345 700 436 700ZM424 600Q361 600 311 575.5Q261 551 226.5 510.5Q192 470 173.5 418Q155 366 155 310Q155 262 169 221.5Q183 181 209 152Q235 123 273.5 106.5Q312 90 361 90Q423 90 473 115Q523 140 558 181.5Q593 223 612.5 276.5Q632 330 632 387Q632 434 617 473.5Q602 513 574.5 541Q547 569 509 584.5Q471 600 424 600ZM429 183Q413 172 396.5 165Q380 158 353 158Q323 158 298.5 170Q274 182 257 204Q240 226 231 255.5Q222 285 222 319Q222 363 236 403Q250 443 274 474Q298 505 330 523Q362 541 399 541Q427 541 444 534.5Q461 528 468 517L487 541H551L533 400H464Q466 433 458 455.5Q450 478 424 478Q404 478 389.5 461.5Q375 445 366 419Q357 393 352.5 360Q348 327 348 295Q348 256 359.5 239Q371 222 391 222Q420 222 434.5 247.5Q449 273 454 302H523L506 158H442Z" glyph-name="copyright" horiz-adv-x="766" unicode="&#169;" /><glyph d="M274 -10Q217 -10 171.5 8.5Q126 27 93.5 59Q61 91 44 134.5Q27 178 27 228Q27 290 48 346Q69 402 109 444Q149 486 207.5 510.5Q266 535 341 535Q398 535 443.5 516.5Q489 498 521.5 466Q554 434 571 390.5Q588 347 588 297Q588 235 567 179Q546 123 506 81Q466 39 407.5 14.5Q349 -10 274 -10ZM284 70Q335 70 374 88Q413 106 439.5 136.5Q466 167 479.5 207Q493 247 493 292Q493 364 451.5 409.5Q410 455 331 455Q280 455 241 437Q202 419 175.5 388.5Q149 358 135.5 318Q122 278 122 233Q122 161 163.5 115.5Q205 70 284 70ZM332 138Q321 130 308 124.5Q295 119 274 119Q249 119 228 130.5Q207 142 193 162Q179 182 173 208.5Q167 235 171 266Q175 297 187.5 323.5Q200 350 219 370Q238 390 261.5 401.5Q285 413 310 413Q331 413 344 408Q357 403 362 395L377 413H432L418 300H359Q360 325 354 342.5Q348 360 328 360Q307 360 296.5 338Q286 316 280 266Q273 212 278.5 192.5Q284 173 304 173Q326 173 336.5 192.5Q347 212 352 234H411L397 119H342Z" glyph-name="copyright.old" horiz-adv-x="615" /><glyph d="M379 558Q441 558 492.5 540.5Q544 523 581.5 491.5Q619 460 640 416.5Q661 373 661 322Q661 244 635 182.5Q609 121 562 79Q515 37 451 14.5Q387 -8 310 -8Q248 -8 196 11.5Q144 31 107 64.5Q70 98 49.5 143.5Q29 189 29 241Q29 306 52 363.5Q75 421 119 464Q163 507 228.5 532.5Q294 558 379 558ZM367 463Q309 463 267 444.5Q225 426 197 396Q169 366 155.5 327.5Q142 289 142 249Q142 214 154 184.5Q166 155 189 133Q212 111 245.5 99Q279 87 321 87Q375 87 417 104.5Q459 122 488 152Q517 182 532.5 222Q548 262 548 308Q548 343 534.5 371.5Q521 400 497 420Q473 440 440 451.5Q407 463 367 463ZM375 147Q362 142 349 136.5Q336 131 310 131Q259 131 226.5 165Q194 199 194 255Q194 290 205.5 321Q217 352 237.5 375.5Q258 399 286 413Q314 427 346 427Q371 427 385.5 422.5Q400 418 405 411L421 427H483L468 315H403Q404 338 398.5 354Q393 370 372 370Q355 370 343.5 358.5Q332 347 325.5 328.5Q319 310 316 286.5Q313 263 313 239Q313 209 322 199Q331 189 347 189Q371 189 382 208Q393 227 397 246H462L448 131H386Z" glyph-name="copyright.sc" horiz-adv-x="686" /><glyph d="M287 -10Q230 -10 184.5 8.5Q139 27 106.5 59Q74 91 57 134.5Q40 178 40 228Q40 290 61 346Q82 402 122 444Q162 486 220.5 510.5Q279 535 354 535Q411 535 456.5 516.5Q502 498 534.5 466Q567 434 584 390.5Q601 347 601 297Q601 235 580 179Q559 123 519 81Q479 39 420.5 14.5Q362 -10 287 -10ZM297 70Q348 70 387 88Q426 106 452.5 136.5Q479 167 492.5 207Q506 247 506 292Q506 364 464.5 409.5Q423 455 344 455Q293 455 254 437Q215 419 188.5 388.5Q162 358 148.5 318Q135 278 135 233Q135 161 176.5 115.5Q218 70 297 70ZM345 138Q334 130 321 124.5Q308 119 287 119Q262 119 241 130.5Q220 142 206 162Q192 182 186 208.5Q180 235 184 266Q188 297 200.5 323.5Q213 350 232 370Q251 390 274.5 401.5Q298 413 323 413Q344 413 357 408Q370 403 375 395L390 413H445L431 300H372Q373 325 367 342.5Q361 360 341 360Q320 360 309.5 338Q299 316 293 266Q286 212 291.5 192.5Q297 173 317 173Q339 173 349.5 192.5Q360 212 365 234H424L410 119H355Z" glyph-name="copyright.tln" horiz-adv-x="640" /><glyph d="M287 -10Q230 -10 184.5 8.5Q139 27 106.5 59Q74 91 57 134.5Q40 178 40 228Q40 290 61 346Q82 402 122 444Q162 486 220.5 510.5Q279 535 354 535Q411 535 456.5 516.5Q502 498 534.5 466Q567 434 584 390.5Q601 347 601 297Q601 235 580 179Q559 123 519 81Q479 39 420.5 14.5Q362 -10 287 -10ZM297 70Q348 70 387 88Q426 106 452.5 136.5Q479 167 492.5 207Q506 247 506 292Q506 364 464.5 409.5Q423 455 344 455Q293 455 254 437Q215 419 188.5 388.5Q162 358 148.5 318Q135 278 135 233Q135 161 176.5 115.5Q218 70 297 70ZM345 138Q334 130 321 124.5Q308 119 287 119Q262 119 241 130.5Q220 142 206 162Q192 182 186 208.5Q180 235 184 266Q188 297 200.5 323.5Q213 350 232 370Q251 390 274.5 401.5Q298 413 323 413Q344 413 357 408Q370 403 375 395L390 413H445L431 300H372Q373 325 367 342.5Q361 360 341 360Q320 360 309.5 338Q299 316 293 266Q286 212 291.5 192.5Q297 173 317 173Q339 173 349.5 192.5Q360 212 365 234H424L410 119H355Z" glyph-name="copyright.ton" horiz-adv-x="640" /><glyph d="M349 148Q305 126 260 126Q236 126 214 132.5Q192 139 173 150L74 62L15 129L113 216Q90 261 97 313Q103 363 133 405L59 489L139 560L214 475Q258 500 306 500Q355 500 394 475L489 560L548 493L454 409Q476 364 470 313Q466 286 456 262Q446 238 431 216L504 133L424 62ZM294 400Q258 400 230.5 374Q203 348 198 310Q193 273 214 246.5Q235 220 271 220Q289 220 305.5 227Q322 234 335.5 246Q349 258 358 274.5Q367 291 369 310Q374 348 351.5 374Q329 400 294 400Z" glyph-name="currency" horiz-adv-x="550" unicode="&#164;" /><glyph d="M265 338Q235 338 211.5 320.5Q188 303 183 275Q179 246 197 225.5Q215 205 247 205Q276 205 301.5 222.5Q327 240 331 268Q336 297 316 317.5Q296 338 265 338ZM315 137Q275 121 238 121Q217 121 197 126Q177 131 160 139L70 64L14 123L103 196Q82 233 88 280Q94 315 119 346L50 417L126 480L195 409Q235 428 275 428Q320 428 354 410L440 481L495 423L411 353Q431 315 426 270Q422 250 413.5 232.5Q405 215 392 198L460 128L384 65Z" glyph-name="currency.sc" horiz-adv-x="509" /><glyph d="M394 148Q350 126 305 126Q281 126 259 132.5Q237 139 218 150L119 62L60 129L158 216Q135 261 142 313Q148 363 178 405L104 489L184 560L259 475Q303 500 351 500Q400 500 439 475L534 560L593 493L499 409Q521 364 515 313Q511 286 501 262Q491 238 476 216L549 133L469 62ZM339 400Q303 400 275.5 374Q248 348 243 310Q238 273 259 246.5Q280 220 316 220Q334 220 350.5 227Q367 234 380.5 246Q394 258 403 274.5Q412 291 414 310Q419 348 396.5 374Q374 400 339 400Z" glyph-name="currency.tln" horiz-adv-x="640" /><glyph d="M329 607Q287 607 250 613.5Q213 620 185.5 634Q158 648 142 671Q126 694 126 728Q126 770 153.5 796Q181 822 223 822Q258 822 280 802Q302 782 302 749Q302 705 272 680Q279 674 293.5 670.5Q308 667 337 667Q358 667 374 671.5Q390 676 399 680Q390 689 386 702.5Q382 716 382 730Q382 774 410 798Q438 822 479 822Q514 822 536 802Q558 782 558 749Q558 715 541 688.5Q524 662 494 644Q464 626 422 616.5Q380 607 329 607Z" glyph-name="cyrbreve" horiz-adv-x="510" unicode="&#63188;" /><glyph d="M342 731Q300 731 263 736Q226 741 198.5 752.5Q171 764 155 783.5Q139 803 139 832Q139 874 166.5 900Q194 926 236 926Q271 926 293 906Q315 886 315 853Q315 820 286 799Q293 795 308 793Q323 791 350 791Q370 791 385.5 794Q401 797 410 800Q395 815 395 842Q395 880 423 903Q451 926 492 926Q527 926 549 906Q571 886 571 853Q571 795 509.5 763Q448 731 342 731Z" glyph-name="cyrbreve.cap" horiz-adv-x="510" /><glyph d="M540 -10Q483 -10 444 12.5Q405 35 391 83Q390 87 389 91Q388 95 387 100Q366 51 326.5 20.5Q287 -10 214 -10Q175 -10 140 3.5Q105 17 78.5 44.5Q52 72 36.5 115Q21 158 21 217Q21 283 39.5 341Q58 399 91.5 442Q125 485 172 510Q219 535 275 535Q335 535 365.5 512.5Q396 490 408 461Q410 487 411.5 507.5Q413 528 414.5 546.5Q416 565 417.5 584Q419 603 422 625L424 645H374L387 745Q462 745 510 746Q558 747 588 748.5Q618 750 634 753Q650 756 660 760L678 750L603 133Q601 116 605 109Q609 102 617 102Q629 102 635 118.5Q641 135 647 175H724Q719 132 707 97.5Q695 63 673.5 39Q652 15 619.5 2.5Q587 -10 540 -10ZM343 425Q323 425 308 404.5Q293 384 283 351Q273 318 268 275.5Q263 233 263 188Q263 100 304 100Q333 100 350.5 138.5Q368 177 378 255L380 271Q390 349 379.5 387Q369 425 343 425Z" glyph-name="d" horiz-adv-x="725" unicode="d" /><glyph d="M189 433Q129 433 96.5 466Q64 499 64 548Q64 578 74 605.5Q84 633 103.5 654Q123 675 153 688Q183 701 222 701Q284 701 315.5 669Q347 637 347 587Q347 558 337 530Q327 502 307.5 480.5Q288 459 258 446Q228 433 189 433ZM197 496Q215 496 229 503.5Q243 511 252.5 523Q262 535 267.5 549.5Q273 564 273 578Q273 604 258 621.5Q243 639 214 639Q196 639 182 631.5Q168 624 158 612.5Q148 601 143 586.5Q138 572 138 557Q138 531 153 513.5Q168 496 197 496Z" glyph-name="degree" horiz-adv-x="337" unicode="&#176;" /><glyph d="M340 433Q280 433 247.5 466Q215 499 215 548Q215 578 225 605.5Q235 633 254.5 654Q274 675 304 688Q334 701 373 701Q435 701 466.5 669Q498 637 498 587Q498 558 488 530Q478 502 458.5 480.5Q439 459 409 446Q379 433 340 433ZM348 496Q366 496 380 503.5Q394 511 403.5 523Q413 535 418.5 549.5Q424 564 424 578Q424 604 409 621.5Q394 639 365 639Q347 639 333 631.5Q319 624 309 612.5Q299 601 294 586.5Q289 572 289 557Q289 531 304 513.5Q319 496 348 496Z" glyph-name="degree.tln" horiz-adv-x="640" /><glyph d="M546 710Q546 664 515.5 635Q485 606 439 606Q401 606 377.5 628Q354 650 354 686Q354 732 384.5 761Q415 790 461 790Q499 790 522.5 768Q546 746 546 710ZM316 710Q316 664 285.5 635Q255 606 209 606Q171 606 147.5 628Q124 650 124 686Q124 732 154.5 761Q185 790 231 790Q269 790 292.5 768Q316 746 316 710Z" glyph-name="dieresis" horiz-adv-x="501" unicode="&#168;" /><glyph d="M532 835Q532 795 505 769.5Q478 744 437 744Q402 744 380.5 764Q359 784 359 817Q359 857 386 882.5Q413 908 453 908Q488 908 510 888Q532 868 532 835ZM312 835Q312 795 285 769.5Q258 744 217 744Q182 744 160.5 764Q139 784 139 817Q139 857 166 882.5Q193 908 233 908Q268 908 290 888Q312 868 312 835Z" glyph-name="dieresis.cap" horiz-adv-x="474" /><glyph d="M378 534Q378 487 347 458Q316 429 269 429Q229 429 205.5 451Q182 473 182 510Q182 556 213 585.5Q244 615 290 615Q329 615 353.5 592.5Q378 570 378 534ZM483 393 471 298H35L47 393ZM338 186Q338 139 307 110Q276 81 229 81Q189 81 165.5 103Q142 125 142 162Q142 208 173 237.5Q204 267 250 267Q289 267 313.5 244.5Q338 222 338 186Z" glyph-name="divide" horiz-adv-x="497" unicode="&#247;" /><glyph d="M362 444Q362 397 331 368Q300 339 253 339Q213 339 189.5 361Q166 383 166 420Q166 466 197 495.5Q228 525 274 525Q313 525 337.5 502.5Q362 480 362 444ZM467 303 455 208H19L31 303ZM322 96Q322 49 291 20Q260 -9 213 -9Q173 -9 149.5 13Q126 35 126 72Q126 118 157 147.5Q188 177 234 177Q273 177 297.5 154.5Q322 132 322 96Z" glyph-name="divide.old" horiz-adv-x="487" /><glyph d="M333 428Q332 386 303.5 360.5Q275 335 231 335Q193 335 170.5 354Q148 373 148 407Q148 448 177 473.5Q206 499 249 499Q286 499 310 479.5Q334 460 333 428ZM424 319 413 232H23L34 319ZM300 150Q300 108 271.5 82.5Q243 57 198 57Q161 57 138 76Q115 95 116 128Q117 170 145.5 195.5Q174 221 217 221Q254 221 277 201.5Q300 182 300 150Z" glyph-name="divide.sc" horiz-adv-x="444" /><glyph d="M449 534Q449 487 418 458Q387 429 340 429Q300 429 276.5 451Q253 473 253 510Q253 556 284 585.5Q315 615 361 615Q400 615 424.5 592.5Q449 570 449 534ZM554 393 542 298H106L118 393ZM409 186Q409 139 378 110Q347 81 300 81Q260 81 236.5 103Q213 125 213 162Q213 208 244 237.5Q275 267 321 267Q360 267 384.5 244.5Q409 222 409 186Z" glyph-name="divide.tln" horiz-adv-x="640" /><glyph d="M438 444Q438 397 407 368Q376 339 329 339Q289 339 265.5 361Q242 383 242 420Q242 466 273 495.5Q304 525 350 525Q389 525 413.5 502.5Q438 480 438 444ZM543 303 531 208H95L107 303ZM398 96Q398 49 367 20Q336 -9 289 -9Q249 -9 225.5 13Q202 35 202 72Q202 118 233 147.5Q264 177 310 177Q349 177 373.5 154.5Q398 132 398 96Z" glyph-name="divide.ton" horiz-adv-x="640" /><glyph d="M308 -12Q292 -12 280.5 -12Q269 -12 258 -11L246 -110H146L160 3Q91 20 53.5 51.5Q16 83 16 123Q16 171 46 199Q76 227 126 227Q169 227 196.5 208Q224 189 224 153Q224 121 208 99Q222 96 235.5 95.5Q249 95 260 95Q300 95 317.5 115.5Q335 136 335 166Q335 187 326.5 202Q318 217 303 228Q288 239 268 248.5Q248 258 225 269Q184 289 153.5 308.5Q123 328 103 351Q83 374 73 401.5Q63 429 63 464Q63 541 111 598Q159 655 243 681L258 802H358L345 699Q358 701 370 700.5Q382 700 395 700L408 802H508L494 689Q566 674 601.5 642.5Q637 611 637 569Q637 522 606.5 492.5Q576 463 526 463Q483 463 456 482Q429 501 429 536Q429 567 448 592Q434 595 422.5 595.5Q411 596 403 596Q363 596 340 571.5Q317 547 317 512Q317 477 346.5 456Q376 435 443 409Q469 398 495 383.5Q521 369 542 347Q563 325 576.5 295Q590 265 590 223Q590 136 543 79Q496 22 410 0L396 -110H296Z" glyph-name="dollar" horiz-adv-x="633" unicode="$" /><glyph d="M274 -10H254L243 -100H168L180 -5Q13 15 13 102Q13 120 19.5 137.5Q26 155 39 169Q52 183 71.5 191.5Q91 200 118 200Q161 200 181.5 180.5Q202 161 202 131Q202 111 193 94Q212 90 236 90Q267 90 284 101.5Q301 113 301 135Q301 161 269 179.5Q237 198 175 220Q114 243 80.5 275Q47 307 47 355Q47 422 96 469Q145 516 245 530L256 617H331L321 535H341L351 617H426L415 530Q496 521 538.5 493.5Q581 466 581 424Q581 382 554.5 353.5Q528 325 476 325Q432 325 411.5 344Q391 363 391 389Q391 413 403 432Q393 434 383 434.5Q373 435 362 435Q327 435 311 422.5Q295 410 295 391Q295 376 305 365.5Q315 355 331.5 345.5Q348 336 371 327Q394 318 419 307Q442 297 465 285.5Q488 274 507 258.5Q526 243 538 221Q550 199 550 168Q550 90 495.5 47.5Q441 5 349 -6L338 -100H263Z" glyph-name="dollar.old" horiz-adv-x="596" /><glyph d="M281 -10Q267 -10 257 -10Q247 -10 238 -9L228 -88H130L141 3Q79 16 45.5 40Q12 64 12 96Q12 141 40 163Q68 185 115 185Q157 185 183.5 168Q210 151 210 118Q210 103 207 94Q212 92 218 91Q224 90 233 90Q263 90 274.5 102.5Q286 115 286 132Q286 149 278 159Q270 169 256.5 176.5Q243 184 226 190.5Q209 197 191 205Q118 240 83.5 275.5Q49 311 49 363Q49 427 91 473.5Q133 520 207 542L219 639H317L307 557Q318 559 328.5 558.5Q339 558 350 558L360 639H458L447 548Q512 535 544 509.5Q576 484 576 452Q576 414 547 387Q518 360 471 360Q430 360 403.5 377Q377 394 377 425Q377 433 378 440.5Q379 448 384 456Q379 458 373 459.5Q367 461 358 461Q327 461 312.5 444Q298 427 299 407Q300 384 324 369Q348 354 408 333Q430 324 453 312Q476 300 494.5 282Q513 264 525 239Q537 214 537 181Q537 108 496 63Q455 18 380 1L369 -88H271Z" glyph-name="dollar.sc" horiz-adv-x="585" /><glyph d="M312 -12Q296 -12 284.5 -12Q273 -12 262 -11L250 -110H150L164 3Q95 20 57.5 51.5Q20 83 20 123Q20 171 50 199Q80 227 130 227Q173 227 200.5 208Q228 189 228 153Q228 121 212 99Q226 96 239.5 95.5Q253 95 264 95Q304 95 321.5 115.5Q339 136 339 166Q339 187 330.5 202Q322 217 307 228Q292 239 272 248.5Q252 258 229 269Q188 289 157.5 308.5Q127 328 107 351Q87 374 77 401.5Q67 429 67 464Q67 541 115 598Q163 655 247 681L262 802H362L349 699Q362 701 374 700.5Q386 700 399 700L412 802H512L498 689Q570 674 605.5 642.5Q641 611 641 569Q641 522 610.5 492.5Q580 463 530 463Q487 463 460 482Q433 501 433 536Q433 567 452 592Q438 595 426.5 595.5Q415 596 407 596Q367 596 344 571.5Q321 547 321 512Q321 477 350.5 456Q380 435 447 409Q473 398 499 383.5Q525 369 546 347Q567 325 580.5 295Q594 265 594 223Q594 136 547 79Q500 22 414 0L400 -110H300Z" glyph-name="dollar.tln" horiz-adv-x="640" /><glyph d="M296 -10H276L265 -100H190L202 -5Q35 15 35 102Q35 120 41.5 137.5Q48 155 61 169Q74 183 93.5 191.5Q113 200 140 200Q183 200 203.5 180.5Q224 161 224 131Q224 111 215 94Q234 90 258 90Q289 90 306 101.5Q323 113 323 135Q323 161 291 179.5Q259 198 197 220Q136 243 102.5 275Q69 307 69 355Q69 422 118 469Q167 516 267 530L278 617H353L343 535H363L373 617H448L437 530Q518 521 560.5 493.5Q603 466 603 424Q603 382 576.5 353.5Q550 325 498 325Q454 325 433.5 344Q413 363 413 389Q413 413 425 432Q415 434 405 434.5Q395 435 384 435Q349 435 333 422.5Q317 410 317 391Q317 376 327 365.5Q337 355 353.5 345.5Q370 336 393 327Q416 318 441 307Q464 297 487 285.5Q510 274 529 258.5Q548 243 560 221Q572 199 572 168Q572 90 517.5 47.5Q463 5 371 -6L360 -100H285Z" glyph-name="dollar.ton" horiz-adv-x="640" /><glyph d="M208 606Q170 606 146.5 628Q123 650 123 686Q123 732 153.5 761Q184 790 230 790Q268 790 291.5 768Q315 746 315 710Q315 664 284.5 635Q254 606 208 606Z" glyph-name="dotaccent" horiz-adv-x="271" unicode="&#729;" /><glyph d="M312 835Q312 795 285 769.5Q258 744 217 744Q182 744 160.5 764Q139 784 139 817Q139 857 166 882.5Q193 908 233 908Q268 908 290 888Q312 868 312 835Z" glyph-name="dotaccent.cap" horiz-adv-x="254" /><glyph d="M221 -10Q182 -10 148 0Q114 10 90 32.5Q66 55 55 91Q44 127 50 179L80 420H30L42 520Q126 520 175 520.5Q224 521 251.5 523Q279 525 291.5 528Q304 531 314 535L332 525L284 137Q282 117 286 109.5Q290 102 298 102Q310 102 316 118.5Q322 135 328 175H405Q400 132 388 97.5Q376 63 354.5 39Q333 15 300.5 2.5Q268 -10 221 -10Z" glyph-name="dotlessi" horiz-adv-x="405" unicode="&#305;" /><glyph d="M281 -10Q224 -10 176 5.5Q128 21 93.5 51Q59 81 40 124.5Q21 168 21 225Q21 295 44 352.5Q67 410 108 450.5Q149 491 207.5 513Q266 535 336 535Q451 535 514.5 492.5Q578 450 578 378Q578 326 545.5 293Q513 260 464 241Q415 222 357.5 214.5Q300 207 250 207V197Q250 143 278 119Q306 95 352 95Q401 95 429.5 117.5Q458 140 481 181L556 153Q541 121 519.5 91.5Q498 62 465 39.5Q432 17 387 3.5Q342 -10 281 -10ZM321 444Q306 444 294.5 430Q283 416 274.5 392Q266 368 261 337Q256 306 253 273Q294 280 322.5 306.5Q351 333 351 392Q351 412 344.5 428Q338 444 321 444Z" glyph-name="e" horiz-adv-x="589" unicode="e" /><glyph d="M281 -10Q224 -10 176 5.5Q128 21 93.5 51Q59 81 40 124.5Q21 168 21 225Q21 295 44 352.5Q67 410 108 450.5Q149 491 207.5 513Q266 535 336 535Q451 535 514.5 492.5Q578 450 578 378Q578 326 545.5 293Q513 260 464 241Q415 222 357.5 214.5Q300 207 250 207V197Q250 143 278 119Q306 95 352 95Q401 95 429.5 117.5Q458 140 481 181L556 153Q541 121 519.5 91.5Q498 62 465 39.5Q432 17 387 3.5Q342 -10 281 -10ZM321 444Q306 444 294.5 430Q283 416 274.5 392Q266 368 261 337Q256 306 253 273Q294 280 322.5 306.5Q351 333 351 392Q351 412 344.5 428Q338 444 321 444ZM279 621 335 691Q381 750 421.5 770Q462 790 507 790Q553 790 568.5 775Q584 760 584 740Q584 713 556 691.5Q528 670 459 650L355 621Z" glyph-name="eacute" horiz-adv-x="589" unicode="&#233;" /><glyph d="M281 -10Q224 -10 176 5.5Q128 21 93.5 51Q59 81 40 124.5Q21 168 21 225Q21 295 44 352.5Q67 410 108 450.5Q149 491 207.5 513Q266 535 336 535Q451 535 514.5 492.5Q578 450 578 378Q578 326 545.5 293Q513 260 464 241Q415 222 357.5 214.5Q300 207 250 207V197Q250 143 278 119Q306 95 352 95Q401 95 429.5 117.5Q458 140 481 181L556 153Q541 121 519.5 91.5Q498 62 465 39.5Q432 17 387 3.5Q342 -10 281 -10ZM321 444Q306 444 294.5 430Q283 416 274.5 392Q266 368 261 337Q256 306 253 273Q294 280 322.5 306.5Q351 333 351 392Q351 412 344.5 428Q338 444 321 444ZM144 621 344 797H417L568 621H466L369 690L246 621Z" glyph-name="ecircumflex" horiz-adv-x="589" unicode="&#234;" /><glyph d="M281 -10Q224 -10 176 5.5Q128 21 93.5 51Q59 81 40 124.5Q21 168 21 225Q21 295 44 352.5Q67 410 108 450.5Q149 491 207.5 513Q266 535 336 535Q451 535 514.5 492.5Q578 450 578 378Q578 326 545.5 293Q513 260 464 241Q415 222 357.5 214.5Q300 207 250 207V197Q250 143 278 119Q306 95 352 95Q401 95 429.5 117.5Q458 140 481 181L556 153Q541 121 519.5 91.5Q498 62 465 39.5Q432 17 387 3.5Q342 -10 281 -10ZM321 444Q306 444 294.5 430Q283 416 274.5 392Q266 368 261 337Q256 306 253 273Q294 280 322.5 306.5Q351 333 351 392Q351 412 344.5 428Q338 444 321 444ZM572 710Q572 664 541.5 635Q511 606 465 606Q427 606 403.5 628Q380 650 380 686Q380 732 410.5 761Q441 790 487 790Q525 790 548.5 768Q572 746 572 710ZM342 710Q342 664 311.5 635Q281 606 235 606Q197 606 173.5 628Q150 650 150 686Q150 732 180.5 761Q211 790 257 790Q295 790 318.5 768Q342 746 342 710Z" glyph-name="edieresis" horiz-adv-x="589" unicode="&#235;" /><glyph d="M281 -10Q224 -10 176 5.5Q128 21 93.5 51Q59 81 40 124.5Q21 168 21 225Q21 295 44 352.5Q67 410 108 450.5Q149 491 207.5 513Q266 535 336 535Q451 535 514.5 492.5Q578 450 578 378Q578 326 545.5 293Q513 260 464 241Q415 222 357.5 214.5Q300 207 250 207V197Q250 143 278 119Q306 95 352 95Q401 95 429.5 117.5Q458 140 481 181L556 153Q541 121 519.5 91.5Q498 62 465 39.5Q432 17 387 3.5Q342 -10 281 -10ZM321 444Q306 444 294.5 430Q283 416 274.5 392Q266 368 261 337Q256 306 253 273Q294 280 322.5 306.5Q351 333 351 392Q351 412 344.5 428Q338 444 321 444ZM257 650Q224 660 203.5 670Q183 680 171.5 689.5Q160 699 156 708.5Q152 718 152 727Q152 752 177.5 771Q203 790 248 790Q293 790 323.5 774Q354 758 377 716L429 621H353Z" glyph-name="egrave" horiz-adv-x="589" unicode="&#232;" /><glyph d="M674 212Q674 164 652.5 123.5Q631 83 587.5 53.5Q544 24 478.5 7Q413 -10 324 -10Q244 -10 187 3.5Q130 17 93.5 40.5Q57 64 40 96Q23 128 23 165Q23 202 34 233Q45 264 71 289.5Q97 315 139.5 334.5Q182 354 245 367Q160 388 122 423.5Q84 459 84 510Q84 549 105.5 584Q127 619 168 644.5Q209 670 270 685Q331 700 410 700Q548 700 622 658Q696 616 696 545Q696 483 648.5 436.5Q601 390 500 367Q595 345 634.5 307Q674 269 674 212ZM327 484Q327 448 339.5 427.5Q352 407 375 407Q389 407 402 418Q415 429 425.5 447.5Q436 466 442.5 489.5Q449 513 449 538Q449 571 436 593Q423 615 400 615Q382 615 368.5 602.5Q355 590 345.5 570.5Q336 551 331.5 528Q327 505 327 484ZM273 161Q273 122 288.5 98.5Q304 75 334 75Q355 75 372 89.5Q389 104 401 126.5Q413 149 419 176.5Q425 204 425 230Q425 275 411 299Q397 323 365 323Q344 323 327 310Q310 297 298 275Q286 253 279.5 223.5Q273 194 273 161Z" glyph-name="eight" horiz-adv-x="714" unicode="8" /><glyph d="M236 -157Q171 -157 125 -147.5Q79 -138 51 -120.5Q23 -103 11.5 -79.5Q0 -56 3 -29Q9 18 46 47Q83 76 163 89Q94 103 65.5 129Q37 155 42 194Q48 247 113 277Q178 307 291 307Q403 307 462 277Q521 247 515 194Q510 155 475 129Q440 103 371 89Q446 77 475 47.5Q504 18 498 -29Q491 -84 428.5 -120.5Q366 -157 236 -157ZM270 120Q305 120 313 181Q316 207 308.5 224Q301 241 283 241Q265 241 253.5 224Q242 207 239 181Q235 152 243.5 136Q252 120 270 120ZM244 -91Q264 -91 278 -71Q292 -51 297 -18Q301 14 292.5 35Q284 56 262 56Q240 56 226 35Q212 14 207 -19Q203 -51 213 -71Q223 -91 244 -91Z" glyph-name="eight.inferior" horiz-adv-x="547" /><glyph d="M316 -10Q231 -10 172 5.5Q113 21 78 47.5Q43 74 29.5 110Q16 146 21 186Q25 220 37.5 248Q50 276 74.5 298.5Q99 321 139 338Q179 355 237 367Q145 390 110 430Q75 470 82 528Q92 606 174 653Q256 700 402 700Q548 700 620 653Q692 606 682 528Q675 470 630.5 429Q586 388 492 367Q545 355 579 338Q613 321 632 298.5Q651 276 657 248Q663 220 659 186Q654 146 632 110Q610 74 568 47.5Q526 21 464 5.5Q402 -10 316 -10ZM367 407Q393 407 413 435.5Q433 464 440 518Q445 559 432 587Q419 615 392 615Q363 615 344.5 586.5Q326 558 321 517Q314 466 326 436.5Q338 407 367 407ZM326 75Q361 75 385 107.5Q409 140 415 191Q422 254 408.5 288.5Q395 323 357 323Q320 323 297.5 289Q275 255 267 192Q259 140 275 107.5Q291 75 326 75Z" glyph-name="eight.old" horiz-adv-x="698" /><glyph d="M618 170Q618 88 539.5 40Q461 -8 297 -8Q222 -8 169 2.5Q116 13 81.5 31.5Q47 50 31 76Q15 102 15 132Q15 162 24.5 186.5Q34 211 57 230.5Q80 250 118.5 265Q157 280 215 291Q137 308 100.5 336.5Q64 365 64 407Q64 472 140.5 515Q217 558 365 558Q496 558 565.5 525.5Q635 493 635 434Q635 383 592.5 345.5Q550 308 457 291Q545 274 581.5 246Q618 218 618 170ZM301 382Q301 356 310.5 342.5Q320 329 337 329Q348 329 358 337.5Q368 346 376 359.5Q384 373 389 390.5Q394 408 394 426Q394 449 383.5 464.5Q373 480 356 480Q342 480 331.5 470Q321 460 314.5 445Q308 430 304.5 413Q301 396 301 382ZM259 128Q259 102 271 86Q283 70 306 70Q322 70 335 81Q348 92 357 109.5Q366 127 370.5 148Q375 169 375 188Q375 252 329 252Q296 252 277.5 215.5Q259 179 259 128Z" glyph-name="eight.sc" horiz-adv-x="660" /><glyph d="M316 423Q251 423 205 432.5Q159 442 131 459.5Q103 477 91.5 500.5Q80 524 83 551Q89 598 126 627Q163 656 243 669Q174 683 145.5 709Q117 735 122 774Q128 827 193 857Q258 887 371 887Q483 887 542 857Q601 827 595 774Q590 735 555 709Q520 683 451 669Q526 657 555 627.5Q584 598 578 551Q571 496 508.5 459.5Q446 423 316 423ZM350 700Q385 700 393 761Q396 787 388.5 804Q381 821 363 821Q345 821 333.5 804Q322 787 319 761Q315 732 323.5 716Q332 700 350 700ZM324 489Q344 489 358 509Q372 529 377 562Q381 594 372.5 615Q364 636 342 636Q320 636 306 615Q292 594 287 561Q283 529 293 509Q303 489 324 489Z" glyph-name="eight.superior" horiz-adv-x="587" /><glyph d="M615 186Q610 146 588.5 110Q567 74 526.5 47.5Q486 21 426.5 5.5Q367 -10 287 -10Q207 -10 151.5 5.5Q96 21 62 47.5Q28 74 15 110Q2 146 7 186Q11 220 24 248Q37 276 63 298.5Q89 321 129.5 338Q170 355 228 367Q136 390 98.5 430Q61 470 68 528Q78 606 157 653Q236 700 373 700Q510 700 579 653Q648 606 638 528Q631 470 584 429Q537 388 443 367Q548 343 585.5 298.5Q623 254 615 186ZM302 517Q295 466 305 436.5Q315 407 338 407Q359 407 376.5 435.5Q394 464 401 518Q406 559 396 587Q386 615 363 615Q338 615 322.5 586.5Q307 558 302 517ZM248 192Q240 140 253.5 107.5Q267 75 297 75Q328 75 349 107.5Q370 140 376 191Q383 254 371.5 288.5Q360 323 328 323Q296 323 276 289Q256 255 248 192Z" glyph-name="eight.tln" horiz-adv-x="640" /><glyph d="M287 -10Q207 -10 152 5.5Q97 21 64.5 47.5Q32 74 19.5 110Q7 146 12 186Q16 220 28.5 248Q41 276 65.5 298.5Q90 321 130 338Q170 355 228 367Q136 390 101 430Q66 470 73 528Q83 606 159.5 653Q236 700 373 700Q510 700 576.5 653Q643 606 633 528Q626 470 581.5 429Q537 388 443 367Q496 355 530 338Q564 321 583 298.5Q602 276 608 248Q614 220 610 186Q605 146 584 110Q563 74 524 47.5Q485 21 426 5.5Q367 -10 287 -10ZM338 407Q359 407 376.5 435.5Q394 464 401 518Q406 559 396 587Q386 615 363 615Q338 615 322.5 586.5Q307 558 302 517Q295 466 305 436.5Q315 407 338 407ZM297 75Q328 75 349 107.5Q370 140 376 191Q383 254 371.5 288.5Q360 323 328 323Q296 323 276 289Q256 255 248 192Q240 140 253.5 107.5Q267 75 297 75Z" glyph-name="eight.ton" horiz-adv-x="640" /><glyph d="M78 476H474L463 381H67ZM59 316H455L443 221H47Z" glyph-name="equal" horiz-adv-x="500" unicode="=" /><glyph d="M65 396H461L450 301H54ZM46 236H442L430 141H34Z" glyph-name="equal.old" horiz-adv-x="493" /><glyph d="M64 385H418L408 298H55ZM49 257H403L392 171H38Z" glyph-name="equal.sc" horiz-adv-x="452" /><glyph d="M148 476H544L533 381H137ZM129 316H525L513 221H117Z" glyph-name="equal.tln" horiz-adv-x="640" /><glyph d="M138 396H534L523 301H127ZM119 236H515L503 141H107Z" glyph-name="equal.ton" horiz-adv-x="640" /><glyph d="M291 -10Q222 -10 171.5 9Q121 28 87 59.5Q53 91 36.5 133.5Q20 176 20 222Q20 291 43 348.5Q66 406 108 447.5Q150 489 209 512Q268 535 341 535Q365 535 384 532Q373 575 350 604L290 563H171L294 646Q246 669 169 670L181 760Q301 759 399 717L455 755H574L466 682Q543 631 587.5 550Q632 469 632 357Q632 280 608.5 213Q585 146 540.5 96.5Q496 47 433 18.5Q370 -10 291 -10ZM303 90Q320 90 336.5 111.5Q353 133 366 175Q379 217 387 277.5Q395 338 395 416V432Q383 435 371 435Q345 435 324.5 412.5Q304 390 290 353.5Q276 317 269 270Q262 223 262 173Q262 131 273.5 110.5Q285 90 303 90Z" glyph-name="eth" horiz-adv-x="644" unicode="&#240;" /><glyph d="M146 214Q153 269 148 306.5Q143 344 132.5 372Q122 400 108 421Q94 442 82.5 462.5Q71 483 64.5 506.5Q58 530 62 562Q67 601 86 627.5Q105 654 132 670Q159 686 189 693Q219 700 244 700Q270 700 298 693Q326 686 348.5 670Q371 654 384 627.5Q397 601 392 562Q388 529 376 505.5Q364 482 348 461.5Q332 441 313.5 420Q295 399 277.5 371.5Q260 344 246.5 306.5Q233 269 226 214ZM268 95Q268 48 237 19Q206 -10 159 -10Q119 -10 95.5 12Q72 34 72 71Q72 117 103 146.5Q134 176 180 176Q219 176 243.5 153.5Q268 131 268 95Z" glyph-name="exclam" horiz-adv-x="380" unicode="!" /><glyph d="M138 176Q143 218 137 245Q131 272 119.5 290Q108 308 93.5 321Q79 334 67 348Q55 362 47.5 380.5Q40 399 44 429Q49 467 68 492Q87 517 113.5 531.5Q140 546 169 552Q198 558 222 558Q246 558 273.5 552Q301 546 323.5 531.5Q346 517 359.5 492Q373 467 368 429Q365 399 353.5 380Q342 361 327 347Q312 333 294.5 320Q277 307 261 289Q245 271 233 244.5Q221 218 216 176ZM257 85Q257 40 228 16Q199 -8 155 -8Q117 -8 94.5 11Q72 30 72 64Q72 105 101 130.5Q130 156 173 156Q210 156 233.5 136.5Q257 117 257 85Z" glyph-name="exclam.sc" horiz-adv-x="372" /><glyph d="M276 214Q283 269 278 306.5Q273 344 262.5 372Q252 400 238 421Q224 442 212.5 462.5Q201 483 194.5 506.5Q188 530 192 562Q197 601 216 627.5Q235 654 262 670Q289 686 319 693Q349 700 374 700Q400 700 428 693Q456 686 478.5 670Q501 654 514 627.5Q527 601 522 562Q518 529 506 505.5Q494 482 478 461.5Q462 441 443.5 420Q425 399 407.5 371.5Q390 344 376.5 306.5Q363 269 356 214ZM398 95Q398 48 367 19Q336 -10 289 -10Q249 -10 225.5 12Q202 34 202 71Q202 117 233 146.5Q264 176 310 176Q349 176 373.5 153.5Q398 131 398 95Z" glyph-name="exclam.tln" horiz-adv-x="640" /><glyph d="M231 311Q224 257 229 219Q234 181 244.5 153Q255 125 269 104Q283 83 294.5 62.5Q306 42 312.5 19Q319 -4 315 -37Q311 -76 291.5 -102.5Q272 -129 245 -145Q218 -161 188.5 -168Q159 -175 133 -175Q108 -175 80 -168Q52 -161 29.5 -145Q7 -129 -6.5 -102.5Q-20 -76 -15 -37Q-11 -4 1 19.5Q13 43 29 63.5Q45 84 63.5 105Q82 126 99.5 153.5Q117 181 130.5 219Q144 257 151 311ZM109 430Q109 477 140 506Q171 535 218 535Q258 535 281.5 513Q305 491 305 454Q305 408 274 378.5Q243 349 197 349Q158 349 133.5 371.5Q109 394 109 430Z" glyph-name="exclamdown" horiz-adv-x="371" unicode="&#161;" /><glyph d="M257 476Q250 422 255 384Q260 346 270.5 318Q281 290 295 269Q309 248 320.5 227.5Q332 207 338.5 184Q345 161 341 128Q337 89 317.5 62.5Q298 36 271 20Q244 4 214.5 -3Q185 -10 159 -10Q134 -10 106 -3Q78 4 55.5 20Q33 36 20 62.5Q7 89 11 128Q15 161 27 184.5Q39 208 55 228.5Q71 249 89.5 270Q108 291 125.5 318.5Q143 346 156.5 384Q170 422 177 476ZM135 595Q135 642 166 671Q197 700 244 700Q284 700 307.5 678Q331 656 331 619Q331 573 300 543.5Q269 514 223 514Q184 514 159.5 536.5Q135 559 135 595Z" glyph-name="exclamdown.cap" horiz-adv-x="385" /><glyph d="M119 465Q120 507 148.5 532.5Q177 558 221 558Q259 558 281.5 539Q304 520 304 487Q304 445 275 419.5Q246 394 203 394Q166 394 142 413.5Q118 433 119 465ZM238 374Q233 332 239 305.5Q245 279 256.5 260.5Q268 242 282.5 229.5Q297 217 309 202.5Q321 188 328 169.5Q335 151 332 121Q328 83 308.5 58Q289 33 262.5 18.5Q236 4 207 -2Q178 -8 154 -8Q130 -8 102.5 -2Q75 4 52.5 19Q30 34 17 59Q4 84 8 121Q12 151 23 170Q34 189 49 203Q64 217 81.5 230Q99 243 115 261Q131 279 143 305.5Q155 332 160 374Z" glyph-name="exclamdown.sc" horiz-adv-x="372" /><glyph d="M365 311Q358 257 363 219Q368 181 378.5 153Q389 125 403 104Q417 83 428.5 62.5Q440 42 446.5 19Q453 -4 449 -37Q445 -76 425.5 -102.5Q406 -129 379 -145Q352 -161 322.5 -168Q293 -175 267 -175Q242 -175 214 -168Q186 -161 163.5 -145Q141 -129 128 -102.5Q115 -76 119 -37Q123 -4 135 19.5Q147 43 163 63.5Q179 84 197.5 105Q216 126 233.5 153.5Q251 181 264.5 219Q278 257 285 311ZM243 430Q243 477 274 506Q305 535 352 535Q392 535 415.5 513Q439 491 439 454Q439 408 408 378.5Q377 349 331 349Q292 349 267.5 371.5Q243 394 243 430Z" glyph-name="exclamdown.tln" horiz-adv-x="640" /><glyph d="M-22 -260Q-110 -260 -160.5 -234Q-211 -208 -211 -159Q-211 -118 -186 -90Q-161 -62 -111 -62Q-68 -62 -44.5 -83Q-21 -104 -21 -139Q-21 -159 -28 -174Q-4 -169 8 -145.5Q20 -122 24 -90L87 420H37L49 520H101L103 535Q110 588 134.5 629.5Q159 671 197.5 700Q236 729 285.5 744.5Q335 760 393 760Q481 760 531.5 734Q582 708 582 659Q582 618 557 590Q532 562 482 562Q439 562 415.5 583Q392 604 392 639Q392 659 399 674Q375 669 363 645.5Q351 622 347 590L339 520H456L444 420H327L270 -35Q263 -88 238.5 -129.5Q214 -171 175.5 -200Q137 -229 86.5 -244.5Q36 -260 -22 -260Z" glyph-name="f" horiz-adv-x="430" unicode="f" /><glyph d="M-22 -260Q-110 -260 -160.5 -234Q-211 -208 -211 -159Q-211 -118 -186 -90Q-161 -62 -111 -62Q-68 -62 -44.5 -83Q-21 -104 -21 -139Q-21 -149 -23.5 -158.5Q-26 -168 -31 -174Q-5 -170 7.5 -146Q20 -122 24 -90L87 420H37L49 520H153Q137 524 118 531Q99 538 83.5 549Q68 560 57.5 577Q47 594 47 619Q47 690 107 725Q167 760 284 760Q370 760 420 736.5Q470 713 470 653Q470 635 462 619Q454 603 440 590.5Q426 578 408 571Q390 564 370 564Q328 564 304 584Q280 604 280 640Q280 657 284 669Q279 670 274.5 670Q270 670 265 670Q223 670 200 654Q177 638 177 609Q177 567 253 543.5Q329 520 459 520L447 420H327L270 -35Q263 -88 238.5 -130Q214 -172 175.5 -201Q137 -230 86.5 -245Q36 -260 -22 -260Z" glyph-name="f.alt" horiz-adv-x="433" /><glyph d="M772 425Q742 425 725.5 387Q709 349 699 271L697 255Q688 180 696 140Q704 100 733 100Q752 100 766.5 118.5Q781 137 791 169Q801 201 806.5 244.5Q812 288 812 338Q812 425 772 425ZM-22 -260Q-110 -260 -160.5 -234Q-211 -208 -211 -159Q-211 -118 -186 -90Q-161 -62 -111 -62Q-68 -62 -44.5 -83Q-21 -104 -21 -139Q-21 -159 -28 -174Q-4 -169 8 -145.5Q20 -122 24 -90L87 420H37L49 520H101L103 535Q109 588 133.5 630Q158 672 196.5 701Q235 730 285.5 745Q336 760 394 760Q436 760 465.5 758Q495 756 519 753Q543 750 566 748Q589 746 618 746Q648 746 668.5 747Q689 748 702.5 750Q716 752 724.5 754.5Q733 757 739 760L757 750L744 642Q740 605 736.5 580Q733 555 730 534.5Q727 514 724 495.5Q721 477 716 453Q743 495 785 515Q827 535 872 535Q914 535 948 519.5Q982 504 1006 475.5Q1030 447 1043 406.5Q1056 366 1056 316Q1056 252 1038.5 193Q1021 134 988.5 89Q956 44 909.5 17Q863 -10 806 -10Q764 -10 725 5.5Q686 21 654 63L454 -10H424L506 662Q500 667 488 671Q476 675 459 675Q404 675 378.5 650.5Q353 626 345 567L339 520H456L444 420H327L270 -35Q263 -88 238.5 -129.5Q214 -171 175.5 -200Q137 -229 86.5 -244.5Q36 -260 -22 -260Z" glyph-name="f_b" horiz-adv-x="1076" /><glyph d="M783 425Q753 425 736 385.5Q719 346 708 255Q699 180 707 140Q715 100 744 100Q763 100 777.5 118.5Q792 137 802 169Q812 201 817.5 244.5Q823 288 823 338Q823 425 783 425ZM-22 -260Q-110 -260 -160.5 -234Q-211 -208 -211 -159Q-211 -118 -186 -90Q-161 -62 -111 -62Q-68 -62 -44.5 -83Q-21 -104 -21 -139Q-21 -157 -28 -174Q-3 -166 8.5 -142.5Q20 -119 24 -90L87 420H37L49 520H153Q134 525 112.5 532.5Q91 540 73 553Q55 566 44.5 586Q34 606 38 636Q42 664 59.5 687Q77 710 112 726Q147 742 202.5 751Q258 760 337 760Q389 760 424 757.5Q459 755 488.5 752.5Q518 750 546.5 747.5Q575 745 613 745Q652 745 676 746Q700 747 714.5 749.5Q729 752 736.5 754.5Q744 757 750 760L768 750L755 642Q751 605 747.5 580Q744 555 741 534.5Q738 514 735 495.5Q732 477 727 453Q754 495 796 515Q838 535 883 535Q925 535 959 519.5Q993 504 1017 475.5Q1041 447 1054 406.5Q1067 366 1067 316Q1067 252 1049.5 193Q1032 134 999.5 89Q967 44 920.5 17Q874 -10 817 -10Q775 -10 736 5.5Q697 21 665 63L465 -10H435L516 652Q484 661 437.5 665.5Q391 670 336 670Q253 670 212 654.5Q171 639 167 609Q162 569 232.5 544.5Q303 520 459 520L447 420H327L270 -35Q263 -88 238.5 -130Q214 -172 175.5 -201Q137 -230 86.5 -245Q36 -260 -22 -260Z" glyph-name="f_b.alt" horiz-adv-x="1087" /><glyph d="M5 0 17 94H62L106 456H61L73 550H598L574 351H462L465 378Q467 398 466 412.5Q465 427 457.5 437Q450 447 434.5 451.5Q419 456 392 456H346L330 316H369L376 374H445L421 178H351L357 227H318L302 94H367L356 0ZM590 94H635L679 456H634L646 550H1016Q1061 550 1101 543Q1141 536 1171.5 520.5Q1202 505 1220 481Q1238 457 1238 422Q1238 398 1226.5 375Q1215 352 1190 333Q1165 314 1126.5 301.5Q1088 289 1034 287Q1126 282 1177.5 253.5Q1229 225 1229 167Q1229 93 1157 46.5Q1085 0 950 0H578ZM920 461 904 324H919Q933 324 946.5 329.5Q960 335 971 345Q982 355 989 369Q996 383 996 401Q996 435 977.5 448Q959 461 933 461ZM893 239 875 89H884Q901 89 919 93Q937 97 951.5 107Q966 117 975.5 132.5Q985 148 985 172Q985 193 978.5 206Q972 219 960.5 226.5Q949 234 934.5 236.5Q920 239 905 239Z" glyph-name="f_b.alt.sc" horiz-adv-x="1261" /><glyph d="M5 0 17 94H62L106 456H61L73 550H598L574 351H462L466 379Q469 399 467.5 413Q466 427 458.5 437Q451 447 435 451.5Q419 456 392 456H346L330 316L453 329L440 213L318 227L302 94H367L356 0ZM581 94H626L670 456H625L637 550H1007Q1052 550 1092 543Q1132 536 1162.5 520.5Q1193 505 1211 481Q1229 457 1229 422Q1229 398 1217.5 375Q1206 352 1181 333Q1156 314 1117.5 301.5Q1079 289 1025 287Q1117 282 1168.5 253.5Q1220 225 1220 167Q1220 93 1148 46.5Q1076 0 941 0H569ZM911 461 895 324H910Q924 324 937.5 329.5Q951 335 962 345Q973 355 980 369Q987 383 987 401Q987 435 968.5 448Q950 461 924 461ZM884 239 866 89H875Q892 89 910 93Q928 97 942.5 107Q957 117 966.5 132.5Q976 148 976 172Q976 193 969.5 206Q963 219 951.5 226.5Q940 234 925.5 236.5Q911 239 896 239Z" glyph-name="f_b.sc" horiz-adv-x="1252" /><glyph d="M493 535Q500 589 528 634Q515 639 499.5 642Q484 645 464 645Q434 645 413 640.5Q392 636 377.5 625Q363 614 355 595Q347 576 343 547L339 520H491ZM326 -108Q379 -108 398 -85.5Q417 -63 424 -10L477 420H327L270 -35Q268 -49 265 -63Q262 -77 257 -90Q272 -98 289.5 -103Q307 -108 326 -108ZM208 -170Q168 -214 109 -237Q50 -260 -22 -260Q-110 -260 -160.5 -234Q-211 -208 -211 -159Q-211 -118 -186 -90Q-161 -62 -111 -62Q-68 -62 -44.5 -83Q-21 -104 -21 -139Q-21 -143 -21.5 -153Q-22 -163 -26 -174Q-3 -172 8.5 -146.5Q20 -121 24 -90L87 420H37L49 520H101L103 536Q108 584 132.5 622Q157 660 197.5 686Q238 712 292.5 726Q347 740 412 740Q472 740 517.5 728.5Q563 717 593 704Q631 731 679 745.5Q727 760 783 760Q871 760 921.5 734Q972 708 972 659Q972 618 947 590Q922 562 872 562Q829 562 805.5 583Q782 604 782 639Q782 644 782.5 653Q783 662 786 673Q765 668 753 645.5Q741 623 737 590L729 520H846L834 420H717L670 56Q661 -12 636 -61Q611 -110 571 -141.5Q531 -173 479 -188Q427 -203 364 -203Q310 -203 272 -193Q234 -183 208 -170Z" glyph-name="f_f" horiz-adv-x="820" unicode="&#64256;" /><glyph d="M543 520Q519 524 495 531.5Q471 539 451.5 551.5Q432 564 419.5 582.5Q407 601 407 626Q407 641 410 654Q379 660 336 660Q173 660 167 609Q162 569 232.5 544.5Q303 520 459 520ZM333 -100Q382 -100 400 -76.5Q418 -53 425 0L477 420H327L270 -35Q267 -61 260 -81Q274 -88 293 -94Q312 -100 333 -100ZM215 -163Q176 -211 114.5 -235.5Q53 -260 -22 -260Q-110 -260 -160.5 -234Q-211 -208 -211 -159Q-211 -118 -186 -90Q-161 -62 -111 -62Q-68 -62 -44.5 -83Q-21 -104 -21 -139Q-21 -148 -22 -156.5Q-23 -165 -26 -173Q-3 -168 8.5 -145Q20 -122 24 -90L87 420H37L49 520H153Q134 525 112.5 532.5Q91 540 73 553Q55 566 44.5 586Q34 606 38 636Q41 662 58.5 683Q76 704 111.5 719Q147 734 202.5 742Q258 750 337 750Q385 750 421.5 745Q458 740 486 733Q548 760 654 760Q690 760 726.5 754.5Q763 749 793 736.5Q823 724 841.5 703.5Q860 683 860 653Q860 617 834 590.5Q808 564 760 564Q718 564 694 584Q670 604 670 640Q670 655 673 668Q663 669 653.5 669.5Q644 670 635 670Q588 670 562.5 654Q537 638 537 609Q537 588 558.5 571.5Q580 555 620.5 543.5Q661 532 719 526Q777 520 849 520L837 420H717L667 32Q653 -78 578 -135.5Q503 -193 385 -193Q328 -193 286.5 -185Q245 -177 215 -163Z" glyph-name="f_f.alt" horiz-adv-x="823" /><glyph d="M5 0 17 94H62L106 456H61L73 550H598L574 351H462L465 378Q467 398 466 412.5Q465 427 457.5 437Q450 447 434.5 451.5Q419 456 392 456H346L330 316H369L376 374H445L421 178H351L357 227H318L302 94H367L356 0ZM578 0 590 94H635L679 456H634L646 550H1171L1147 351H1035L1038 378Q1040 398 1039 412.5Q1038 427 1030.5 437Q1023 447 1007.5 451.5Q992 456 965 456H919L903 316H942L949 374H1018L994 178H924L930 227H891L875 94H940L929 0Z" glyph-name="f_f.alt.sc" horiz-adv-x="1146" /><glyph d="M5 0 17 94H62L106 456H61L73 550H598L574 351H462L466 379Q469 399 467.5 413Q466 427 458.5 437Q451 447 435 451.5Q419 456 392 456H346L330 316L453 329L440 213L318 227L302 94H367L356 0ZM569 0 581 94H626L670 456H625L637 550H1162L1138 351H1026L1030 379Q1033 399 1031.5 413Q1030 427 1022.5 437Q1015 447 999 451.5Q983 456 956 456H910L894 316L1017 329L1004 213L882 227L866 94H931L920 0Z" glyph-name="f_f.sc" horiz-adv-x="1140" /><glyph d="M492 535Q498 586 532 632Q520 637 503 641Q486 645 464 645Q434 645 413 640.5Q392 636 377.5 625Q363 614 355 595Q347 576 343 547L339 520H490ZM326 -108Q379 -108 398.5 -85.5Q418 -63 424 -10L476 420H327L270 -35Q268 -49 265 -63Q262 -77 257 -90Q272 -98 289.5 -103Q307 -108 326 -108ZM364 -203Q310 -203 272 -193Q234 -183 208 -170Q168 -214 109 -237Q50 -260 -22 -260Q-110 -260 -160.5 -232.5Q-211 -205 -211 -148Q-211 -132 -205.5 -116.5Q-200 -101 -188 -89Q-176 -77 -157.5 -69.5Q-139 -62 -112 -62Q-71 -62 -46 -83Q-21 -104 -21 -139Q-21 -161 -28 -174Q-4 -169 8.5 -145.5Q21 -122 24 -90L87 420H37L49 520H101L103 534Q110 584 135 622.5Q160 661 200.5 687Q241 713 295 726.5Q349 740 414 740Q486 740 534 726.5Q582 713 609 699Q661 730 729 745Q797 760 875 760Q908 760 947 756.5Q986 753 1020.5 742Q1055 731 1078 710.5Q1101 690 1101 656Q1101 622 1073.5 594.5Q1046 567 995 567Q951 567 930.5 590.5Q910 614 910 642Q910 658 914 673Q906 674 898.5 674.5Q891 675 882 675Q855 675 830 668.5Q805 662 784.5 646Q764 630 749.5 603Q735 576 730 535L728 520H821Q905 520 954 520.5Q1003 521 1030.5 523Q1058 525 1070.5 528Q1083 531 1093 535L1111 525L1063 137Q1061 117 1065 109.5Q1069 102 1077 102Q1089 102 1095 118.5Q1101 135 1107 175H1184Q1179 132 1167 97.5Q1155 63 1133.5 39Q1112 15 1079.5 2.5Q1047 -10 1000 -10Q961 -10 927 0Q893 10 869 32.5Q845 55 834 91Q823 127 829 179L859 420H716L670 56Q661 -12 636 -61Q611 -110 571 -141.5Q531 -173 479 -188Q427 -203 364 -203Z" glyph-name="f_f_i" horiz-adv-x="1184" unicode="&#64259;" /><glyph d="M543 520Q528 524 511 530.5Q494 537 480 548.5Q466 560 456.5 576.5Q447 593 447 617Q447 634 451 646Q429 651 400 655.5Q371 660 336 660Q173 660 167 609Q162 569 232.5 544.5Q303 520 459 520ZM333 -100Q382 -100 400 -76.5Q418 -53 425 0L477 420H327L270 -35Q267 -61 260 -81Q274 -88 293 -94Q312 -100 333 -100ZM215 -163Q176 -211 114.5 -235.5Q53 -260 -22 -260Q-110 -260 -160.5 -234Q-211 -208 -211 -159Q-211 -118 -186 -90Q-161 -62 -111 -62Q-68 -62 -44.5 -83Q-21 -104 -21 -139Q-21 -160 -30 -176Q-6 -166 7 -143.5Q20 -121 24 -90L87 420H37L49 520H153Q134 525 112.5 532.5Q91 540 73 553Q55 566 44.5 586Q34 606 38 636Q41 662 58.5 683Q76 704 111.5 719Q147 734 202.5 742Q258 750 337 750Q406 750 454 740.5Q502 731 528 721Q571 741 631 750.5Q691 760 764 760Q819 760 878 755.5Q937 751 986.5 738.5Q1036 726 1068 704Q1100 682 1100 647Q1100 611 1077 584.5Q1054 558 1006 558Q959 558 934.5 578Q910 598 910 634Q910 641 910.5 646.5Q911 652 912 658Q885 663 849.5 666.5Q814 670 772 670Q688 670 637.5 654Q587 638 587 607Q587 567 657 543.5Q727 520 847 520Q925 520 970.5 520.5Q1016 521 1041.5 523Q1067 525 1079 528Q1091 531 1101 535L1119 525L1071 137Q1069 117 1073 109.5Q1077 102 1085 102Q1097 102 1103 118.5Q1109 135 1115 175H1192Q1187 132 1175 97.5Q1163 63 1141.5 39Q1120 15 1087.5 2.5Q1055 -10 1008 -10Q969 -10 935 0Q901 10 877 32.5Q853 55 842 91Q831 127 837 179L867 420H717L667 32Q653 -78 578 -135.5Q503 -193 385 -193Q328 -193 286.5 -185Q245 -177 215 -163Z" glyph-name="f_f_i.alt" horiz-adv-x="1192" /><glyph d="M5 0 17 94H62L106 456H61L73 550H598L574 351H462L465 378Q467 398 466 412.5Q465 427 457.5 437Q450 447 434.5 451.5Q419 456 392 456H346L330 316H369L376 374H445L421 178H351L357 227H318L302 94H367L356 0ZM1151 0 1163 94H1208L1252 456H1207L1219 550H1550L1538 456H1492L1448 94H1494L1482 0ZM578 0 590 94H635L679 456H634L646 550H1171L1147 351H1035L1038 378Q1040 398 1039 412.5Q1038 427 1030.5 437Q1023 447 1007.5 451.5Q992 456 965 456H919L903 316H942L949 374H1018L994 178H924L930 227H891L875 94H940L929 0Z" glyph-name="f_f_i.alt.sc" horiz-adv-x="1551" /><glyph d="M5 0 17 94H62L106 456H61L73 550H598L574 351H462L466 379Q469 399 467.5 413Q466 427 458.5 437Q451 447 435 451.5Q419 456 392 456H346L330 316L453 329L440 213L318 227L302 94H367L356 0ZM569 0 581 94H626L670 456H625L637 550H1162L1138 351H1026L1030 379Q1033 399 1031.5 413Q1030 427 1022.5 437Q1015 447 999 451.5Q983 456 956 456H910L894 316L1017 329L1004 213L882 227L866 94H931L920 0ZM1133 0 1145 94H1190L1234 456H1189L1201 550H1532L1520 456H1474L1430 94H1476L1464 0Z" glyph-name="f_f_i.sc" horiz-adv-x="1533" /><glyph d="M491 528Q499 589 528 632Q514 637 495 641Q476 645 451 645Q401 645 376 625.5Q351 606 343 547L339 520H490ZM322 -175Q372 -175 391 -147Q410 -119 417 -65L476 420H327L270 -35Q263 -94 232 -140Q249 -160 271.5 -167.5Q294 -175 322 -175ZM742 -180Q771 -180 781.5 -152.5Q792 -125 799 -72L858 420H716L659 -35Q658 -43 657 -49.5Q656 -56 654 -63Q698 -64 720 -85Q742 -106 742 -138Q742 -155 738.5 -165.5Q735 -176 731 -179Q733 -179 735 -180Q739 -180 742 -180ZM753 -260Q693 -260 645.5 -242.5Q598 -225 577 -190Q538 -224 484 -242Q430 -260 367 -260Q298 -260 250.5 -242Q203 -224 177 -198Q139 -228 88.5 -244Q38 -260 -22 -260Q-110 -260 -160.5 -234Q-211 -208 -211 -159Q-211 -118 -186 -90Q-161 -62 -111 -62Q-68 -62 -44.5 -83Q-21 -104 -21 -139Q-21 -149 -22.5 -158Q-24 -167 -28 -174Q-4 -169 8.5 -145.5Q21 -122 24 -90L87 420H37L49 520H101L102 529Q108 580 132.5 619Q157 658 197.5 685Q238 712 292.5 726Q347 740 412 740Q484 740 530 728.5Q576 717 603 702Q698 760 873 760Q917 760 958.5 753.5Q1000 747 1031.5 733.5Q1063 720 1082 700Q1101 680 1101 653Q1101 613 1075.5 590Q1050 567 1004 567Q956 567 933 590.5Q910 614 910 642Q910 651 912 657.5Q914 664 918 671Q913 673 904.5 674Q896 675 882 675Q855 675 830 668.5Q805 662 784 646Q763 630 748.5 602.5Q734 575 729 533L728 520H811Q885 520 935.5 521Q986 522 1019 523.5Q1052 525 1069.5 528Q1087 531 1095 535L1111 525L1047 0Q1040 -61 1021 -109.5Q1002 -158 967.5 -191.5Q933 -225 880.5 -242.5Q828 -260 753 -260Z" glyph-name="f_f_j" horiz-adv-x="1130" /><glyph d="M543 520Q528 524 511 530.5Q494 537 480 548.5Q466 560 456.5 576.5Q447 593 447 617Q447 631 452 646Q429 651 400 655.5Q371 660 336 660Q173 660 167 609Q162 569 232.5 544.5Q303 520 459 520ZM333 -100Q382 -100 400 -76.5Q418 -53 425 0L477 420H327L270 -35Q267 -61 260 -81Q274 -88 293 -94Q312 -100 333 -100ZM215 -163Q176 -211 114.5 -235.5Q53 -260 -22 -260Q-110 -260 -160.5 -234Q-211 -208 -211 -159Q-211 -118 -186 -90Q-161 -62 -111 -62Q-68 -62 -44.5 -83Q-21 -104 -21 -139Q-21 -159 -28 -173Q-1 -162 9.5 -140.5Q20 -119 24 -90L87 420H37L49 520H153Q134 525 112.5 532.5Q91 540 73 553Q55 566 44.5 586Q34 606 38 636Q41 662 58.5 683Q76 704 111.5 719Q147 734 202.5 742Q258 750 337 750Q408 750 456 740Q504 730 530 720Q574 740 634.5 750Q695 760 764 760Q829 760 889.5 755Q950 750 996.5 736.5Q1043 723 1071.5 700.5Q1100 678 1100 643Q1100 607 1077 580.5Q1054 554 1006 554Q959 554 934.5 574Q910 594 910 630Q910 644 913 654Q883 660 846 665Q809 670 772 670Q681 670 634 654Q587 638 587 607Q587 568 651.5 544Q716 520 830 520Q901 520 950 521Q999 522 1030.5 524.5Q1062 527 1079 530Q1096 533 1104 537L1120 527L1060 38Q1083 18 1092.5 -6.5Q1102 -31 1102 -58Q1102 -96 1089 -131.5Q1076 -167 1047 -195.5Q1018 -224 972.5 -241Q927 -258 862 -258Q818 -258 781 -250Q744 -242 717.5 -227Q691 -212 676.5 -189.5Q662 -167 662 -137Q662 -95 689.5 -65.5Q717 -36 771 -36Q816 -36 838 -58.5Q860 -81 860 -111Q860 -133 851.5 -149Q843 -165 830 -176Q840 -178 850 -178Q887 -178 910.5 -150Q934 -122 934 -83Q934 -41 902 -19.5Q870 2 816 2L867 420H717L667 32Q653 -78 578 -135.5Q503 -193 385 -193Q328 -193 286.5 -185Q245 -177 215 -163Z" glyph-name="f_f_j.alt" horiz-adv-x="1143" /><glyph d="M5 0 17 94H62L106 456H61L73 550H598L574 351H462L465 378Q467 398 466 412.5Q465 427 457.5 437Q450 447 434.5 451.5Q419 456 392 456H346L330 316H369L376 374H445L421 178H351L357 227H318L302 94H367L356 0ZM1550 194Q1538 97 1475.5 45Q1413 -7 1283 -7Q1238 -7 1199.5 1Q1161 9 1133.5 24Q1106 39 1090 61.5Q1074 84 1074 113Q1074 161 1103 191.5Q1132 222 1184 222Q1223 222 1247 201Q1271 180 1271 144Q1271 123 1262 106.5Q1253 90 1243 84Q1244 83 1247 83Q1252 81 1260 81Q1295 81 1300 115L1342 457H1298L1309 551H1639L1628 457H1582ZM578 0 590 94H635L679 456H634L646 550H1171L1147 351H1035L1038 378Q1040 398 1039 412.5Q1038 427 1030.5 437Q1023 447 1007.5 451.5Q992 456 965 456H919L903 316H942L949 374H1018L994 178H924L930 227H891L875 94H940L929 0Z" glyph-name="f_f_j.alt.sc" horiz-adv-x="1628" /><glyph d="M5 0 17 94H62L106 456H61L73 550H598L574 351H462L466 379Q469 399 467.5 413Q466 427 458.5 437Q451 447 435 451.5Q419 456 392 456H346L330 316L453 329L440 213L318 227L302 94H367L356 0ZM569 0 581 94H626L670 456H625L637 550H1162L1138 351H1026L1030 379Q1033 399 1031.5 413Q1030 427 1022.5 437Q1015 447 999 451.5Q983 456 956 456H910L894 316L1017 329L1004 213L882 227L866 94H931L920 0ZM1532 193Q1520 96 1457.5 44Q1395 -8 1265 -8Q1220 -8 1181.5 0Q1143 8 1115.5 23Q1088 38 1072 60.5Q1056 83 1056 112Q1056 160 1085 190.5Q1114 221 1166 221Q1205 221 1229 200Q1253 179 1253 143Q1253 122 1244 105.5Q1235 89 1225 83Q1226 82 1229 82Q1234 80 1242 80Q1277 80 1282 114L1324 456H1280L1291 550H1621L1610 456H1564Z" glyph-name="f_f_j.sc" horiz-adv-x="1609" /><glyph d="M491 529Q497 587 526 635Q514 639 499 642Q484 645 464 645Q434 645 413 640.5Q392 636 377.5 625Q363 614 355 595Q347 576 343 547L339 520H490ZM326 -108Q379 -108 398.5 -85.5Q418 -63 424 -10L476 420H327L270 -35Q268 -49 265 -63Q262 -77 257 -90Q272 -98 289.5 -103Q307 -108 326 -108ZM208 -170Q168 -214 109 -237Q50 -260 -22 -260Q-110 -260 -160.5 -234Q-211 -208 -211 -159Q-211 -118 -186 -90Q-161 -62 -111 -62Q-68 -62 -44.5 -83Q-21 -104 -21 -139Q-21 -144 -22 -154.5Q-23 -165 -26 -174Q-3 -168 8.5 -144.5Q20 -121 24 -90L87 420H37L49 520H101L102 529Q108 580 132.5 619Q157 658 197.5 685Q238 712 292.5 726Q347 740 412 740Q471 740 516 729Q561 718 591 704Q629 732 678 746Q727 760 783 760Q825 760 854.5 758Q884 756 908 753Q932 750 955 748Q978 746 1007 746Q1037 746 1057.5 747Q1078 748 1091.5 750Q1105 752 1113.5 754.5Q1122 757 1128 760L1146 750L1073 137Q1071 117 1075 109.5Q1079 102 1087 102Q1099 102 1105 118.5Q1111 135 1117 175H1194Q1189 132 1177 97.5Q1165 63 1143.5 39Q1122 15 1089.5 2.5Q1057 -10 1010 -10Q971 -10 937 0Q903 10 879 32.5Q855 55 844 91Q833 127 839 179L895 662Q889 667 877 671Q865 675 848 675Q793 675 767.5 650.5Q742 626 734 567L728 520H845L833 420H716L670 56Q661 -12 636 -61Q611 -110 571 -141.5Q531 -173 479 -188Q427 -203 364 -203Q310 -203 272 -193Q234 -183 208 -170Z" glyph-name="f_f_l" horiz-adv-x="1194" unicode="&#64260;" /><glyph d="M542 520Q523 525 501.5 532.5Q480 540 462 553Q444 566 433.5 586Q423 606 427 636L430 651Q410 655 386.5 657.5Q363 660 336 660Q173 660 167 609Q162 569 232.5 544.5Q303 520 459 520ZM333 -100Q382 -100 400 -76.5Q418 -53 425 0L476 420H327L270 -35Q267 -61 260 -81Q274 -88 293 -94Q312 -100 333 -100ZM215 -163Q176 -211 114.5 -235.5Q53 -260 -22 -260Q-110 -260 -160.5 -234Q-211 -208 -211 -159Q-211 -118 -186 -90Q-161 -62 -111 -62Q-68 -62 -44.5 -83Q-21 -104 -21 -139Q-21 -147 -22 -156Q-23 -165 -27 -173Q-4 -163 8 -141Q20 -119 24 -90L87 420H37L49 520H153Q134 525 112.5 532.5Q91 540 73 553Q55 566 44.5 586Q34 606 38 636Q41 662 58.5 683Q76 704 111.5 719Q147 734 202.5 742Q258 750 337 750Q394 750 435.5 743Q477 736 505 728Q540 744 594 752Q648 760 726 760Q778 760 813 757.5Q848 755 877.5 752.5Q907 750 935.5 747.5Q964 745 1002 745Q1041 745 1065 746Q1089 747 1103.5 749.5Q1118 752 1125.5 754.5Q1133 757 1139 760L1157 750L1083 137Q1081 117 1085 109.5Q1089 102 1097 102Q1109 102 1115 118.5Q1121 135 1127 175H1204Q1199 132 1187 97.5Q1175 63 1153.5 39Q1132 15 1099.5 2.5Q1067 -10 1020 -10Q981 -10 947 0Q913 10 889 32.5Q865 55 854 91Q843 127 849 179L906 652Q874 661 827 665.5Q780 670 725 670Q642 670 601 654.5Q560 639 556 609Q551 569 621.5 544.5Q692 520 848 520L836 420H716L667 32Q653 -78 578 -135.5Q503 -193 385 -193Q328 -193 286.5 -185Q245 -177 215 -163Z" glyph-name="f_f_l.alt" horiz-adv-x="1204" /><glyph d="M5 0 17 94H62L106 456H61L73 550H598L574 351H462L465 378Q467 398 466 412.5Q465 427 457.5 437Q450 447 434.5 451.5Q419 456 392 456H346L330 316H369L376 374H445L421 178H351L357 227H318L302 94H367L356 0ZM578 1 590 95H635L679 457H634L646 551H1171L1147 352H1035L1038 379Q1040 399 1039 413.5Q1038 428 1030.5 438Q1023 448 1007.5 452.5Q992 457 965 457H919L903 317H942L949 375H1018L994 179H924L930 228H891L875 95H940L929 1ZM1163 95H1208L1252 457H1207L1219 551H1556L1544 457H1492L1448 95H1493Q1503 95 1515 98.5Q1527 102 1538 111.5Q1549 121 1558 139.5Q1567 158 1570 188L1573 215H1684L1658 1H1151Z" glyph-name="f_f_l.alt.sc" horiz-adv-x="1703" /><glyph d="M5 0 17 94H62L106 456H61L73 550H598L574 351H462L466 379Q469 399 467.5 413Q466 427 458.5 437Q451 447 435 451.5Q419 456 392 456H346L330 316L453 329L440 213L318 227L302 94H367L356 0ZM569 0 581 94H626L670 456H625L637 550H1162L1138 351H1026L1030 379Q1033 399 1031.5 413Q1030 427 1022.5 437Q1015 447 999 451.5Q983 456 956 456H910L894 316L1017 329L1004 213L882 227L866 94H931L920 0ZM1145 94H1190L1234 456H1189L1201 550H1538L1526 456H1474L1430 94H1475Q1485 94 1497 97.5Q1509 101 1520 110.5Q1531 120 1540 138.5Q1549 157 1552 187L1555 214H1666L1640 0H1133Z" glyph-name="f_f_l.sc" horiz-adv-x="1686" /><glyph d="M-22 -260Q-110 -260 -160.5 -234Q-211 -208 -211 -159Q-211 -118 -186 -90Q-161 -62 -111 -62Q-68 -62 -44.5 -83Q-21 -104 -21 -139Q-21 -144 -22.5 -154.5Q-24 -165 -27 -174Q-4 -168 8 -144.5Q20 -121 24 -90L87 420H37L49 520H101L102 529Q108 585 132.5 628Q157 671 196 700Q235 729 285.5 744.5Q336 760 394 760Q436 760 465.5 758Q495 756 519 753Q543 750 566 748Q589 746 618 746Q648 746 668.5 747Q689 748 702.5 750Q716 752 724.5 754.5Q733 757 739 760L757 750L744 642Q739 602 734.5 571.5Q730 541 726 516.5Q722 492 717.5 471.5Q713 451 708 430Q739 481 780 508Q821 535 875 535Q952 535 996 491.5Q1040 448 1040 367Q1040 336 1034 302.5Q1028 269 1021.5 237Q1015 205 1009 177Q1003 149 1003 128Q1003 102 1018 102Q1030 102 1036 118.5Q1042 135 1048 175H1125Q1120 132 1108 97.5Q1096 63 1074.5 39Q1053 15 1020.5 2.5Q988 -10 941 -10Q863 -10 814.5 24.5Q766 59 766 132Q766 159 771 183.5Q776 208 781.5 232Q787 256 792 280Q797 304 797 329Q797 383 760 383Q736 383 722 363Q708 343 701 291L664 0H424L506 662Q500 667 488 671Q476 675 459 675Q404 675 378.5 650.5Q353 626 345 567L339 520H456L444 420H327L270 -35Q263 -88 238.5 -129.5Q214 -171 175.5 -200Q137 -229 86.5 -244.5Q36 -260 -22 -260Z" glyph-name="f_h" horiz-adv-x="1122" /><glyph d="M-22 -260Q-110 -260 -160.5 -234Q-211 -208 -211 -159Q-211 -118 -186 -90Q-161 -62 -111 -62Q-68 -62 -44.5 -83Q-21 -104 -21 -139Q-21 -159 -27 -174Q0 -164 10 -141.5Q20 -119 24 -90L87 420H37L49 520H153Q134 525 112.5 532.5Q91 540 73 553Q55 566 44.5 586Q34 606 38 636Q42 664 59.5 687Q77 710 112 726Q147 742 202.5 751Q258 760 337 760Q389 760 424 757.5Q459 755 488.5 752.5Q518 750 546.5 747.5Q575 745 613 745Q652 745 676 746Q700 747 714.5 749.5Q729 752 736.5 754.5Q744 757 750 760L768 750L755 642Q750 602 745.5 571.5Q741 541 737 516.5Q733 492 728.5 471.5Q724 451 719 430Q750 481 791 508Q832 535 886 535Q963 535 1007 491.5Q1051 448 1051 367Q1051 336 1045 302.5Q1039 269 1032.5 237Q1026 205 1020 177Q1014 149 1014 128Q1014 102 1029 102Q1041 102 1047 118.5Q1053 135 1059 175H1136Q1131 132 1119 97.5Q1107 63 1085.5 39Q1064 15 1031.5 2.5Q999 -10 952 -10Q874 -10 825.5 24.5Q777 59 777 132Q777 159 782 183.5Q787 208 792.5 232Q798 256 803 280Q808 304 808 329Q808 383 771 383Q747 383 733 363Q719 343 712 291L675 0H435L516 652Q484 661 437.5 665.5Q391 670 336 670Q253 670 212 654.5Q171 639 167 609Q162 569 232.5 544.5Q303 520 459 520L447 420H327L270 -35Q263 -88 238.5 -130Q214 -172 175.5 -201Q137 -230 86.5 -245Q36 -260 -22 -260Z" glyph-name="f_h.alt" horiz-adv-x="1133" /><glyph d="M5 0 17 94H62L106 456H61L73 550H598L574 351H462L465 378Q467 398 466 412.5Q465 427 457.5 437Q450 447 434.5 451.5Q419 456 392 456H346L330 316H369L376 374H445L421 178H351L357 227H318L302 94H367L356 0ZM590 94H635L679 456H634L646 550H967L955 456H919L904 328H1015L1031 456H996L1008 550H1329L1316 456H1271L1227 94H1272L1261 0H940L951 94H987L1004 233H892L875 94H910L899 0H578Z" glyph-name="f_h.alt.sc" horiz-adv-x="1330" /><glyph d="M5 0 17 94H62L106 456H61L73 550H598L574 351H462L466 379Q469 399 467.5 413Q466 427 458.5 437Q451 447 435 451.5Q419 456 392 456H346L330 316L453 329L440 213L318 227L302 94H367L356 0ZM581 94H626L670 456H625L637 550H958L946 456H910L895 328H1006L1022 456H987L999 550H1320L1307 456H1262L1218 94H1263L1252 0H931L942 94H978L995 233H883L866 94H901L890 0H569Z" glyph-name="f_h.sc" horiz-adv-x="1321" /><glyph d="M823 679Q823 633 792.5 604Q762 575 716 575Q678 575 654.5 597Q631 619 631 655Q631 701 661.5 730Q692 759 738 759Q776 759 799.5 737Q823 715 823 679ZM-22 -260Q-110 -260 -160.5 -234Q-211 -208 -211 -159Q-211 -118 -186 -90Q-161 -62 -111 -62Q-68 -62 -44.5 -83Q-21 -104 -21 -139Q-21 -144 -21.5 -154Q-22 -164 -24 -173Q-2 -166 9 -143Q20 -120 24 -90L87 420H37L49 520H101L106 563Q117 658 195 714Q273 770 405 770Q446 770 482 766.5Q518 763 544.5 752Q571 741 586.5 720.5Q602 700 602 666Q602 632 576.5 603.5Q551 575 504 575Q456 575 433.5 599Q411 623 411 652Q411 656 412 665.5Q413 675 415 685Q380 683 364.5 657.5Q349 632 344 575L339 520H432Q516 520 565 520.5Q614 521 641.5 523Q669 525 681.5 528Q694 531 704 535L722 525L674 137Q672 117 676 109.5Q680 102 688 102Q700 102 706 118.5Q712 135 718 175H795Q790 132 778 97.5Q766 63 744.5 39Q723 15 690.5 2.5Q658 -10 611 -10Q572 -10 538 0Q504 10 480 32.5Q456 55 445 91Q434 127 440 179L470 420H327L270 -35Q263 -88 238.5 -129.5Q214 -171 175.5 -200Q137 -229 86.5 -244.5Q36 -260 -22 -260Z" glyph-name="f_idieresis" horiz-adv-x="795" /><glyph d="M823 679Q823 633 792.5 604Q762 575 716 575Q678 575 654.5 597Q631 619 631 655Q631 701 661.5 730Q692 759 738 759Q776 759 799.5 737Q823 715 823 679ZM-22 -260Q-110 -260 -160.5 -234Q-211 -208 -211 -159Q-211 -118 -186 -90Q-161 -62 -111 -62Q-68 -62 -44.5 -83Q-21 -104 -21 -139Q-21 -159 -27 -174Q-4 -164 8 -142Q20 -120 24 -90L87 420H37L49 520H153Q138 524 121 530.5Q104 537 90 548.5Q76 560 66.5 576.5Q57 593 57 617Q57 695 128.5 733Q200 771 334 771Q376 771 420 767.5Q464 764 499.5 752.5Q535 741 557.5 720Q580 699 580 664Q580 628 553.5 601.5Q527 575 486 575Q439 575 414.5 595Q390 615 390 651Q390 665 393 677Q382 679 369 680Q356 681 342 681Q264 681 230.5 662Q197 643 197 607Q197 567 267 543.5Q337 520 457 520Q535 520 580.5 520.5Q626 521 651.5 523Q677 525 689 528Q701 531 711 535L729 525L681 137Q679 117 683 109.5Q687 102 695 102Q707 102 713 118.5Q719 135 725 175H802Q797 132 785 97.5Q773 63 751.5 39Q730 15 697.5 2.5Q665 -10 618 -10Q579 -10 545 0Q511 10 487 32.5Q463 55 452 91Q441 127 447 179L477 420H327L270 -35Q263 -88 238.5 -130Q214 -172 175.5 -201Q137 -230 86.5 -245Q36 -260 -22 -260Z" glyph-name="f_idieresis.alt" horiz-adv-x="802" /><glyph d="M5 0 17 94H62L106 456H61L73 550H598L574 351H462L465 378Q467 398 466 412.5Q465 427 457.5 437Q450 447 434.5 451.5Q419 456 392 456H346L330 316H369L376 374H445L421 178H351L357 227H318L302 94H367L356 0ZM1010 685Q1010 647 983.5 624Q957 601 918 601Q885 601 864 618Q843 635 843 666Q843 704 869.5 726.5Q896 749 934 749Q967 749 988.5 732.5Q1010 716 1010 685ZM808 685Q808 647 781.5 624Q755 601 716 601Q683 601 662 618Q641 635 641 666Q641 704 667.5 726.5Q694 749 732 749Q765 749 786 732.5Q807 716 808 685ZM578 0 590 94H635L679 456H634L646 550H977L965 456H919L875 94H921L909 0Z" glyph-name="f_idieresis.alt.sc" horiz-adv-x="978" /><glyph d="M5 0 17 94H62L106 456H61L73 550H598L574 351H462L466 379Q469 399 467.5 413Q466 427 458.5 437Q451 447 435 451.5Q419 456 392 456H346L330 316L453 329L440 213L318 227L302 94H367L356 0ZM1001 685Q1001 647 974.5 624Q948 601 909 601Q876 601 855 618Q834 635 834 666Q834 704 860.5 726.5Q887 749 925 749Q958 749 979.5 732.5Q1001 716 1001 685ZM799 685Q799 647 772.5 624Q746 601 707 601Q674 601 653 618Q632 635 632 666Q632 704 658.5 726.5Q685 749 723 749Q756 749 777 732.5Q798 716 799 685ZM569 0 581 94H626L670 456H625L637 550H968L956 456H910L866 94H912L900 0Z" glyph-name="f_idieresis.sc" horiz-adv-x="969" /><glyph d="M353 -180Q382 -180 392.5 -152.5Q403 -125 410 -72L469 420H327L270 -35Q269 -43 268 -49.5Q267 -56 265 -63Q309 -64 331 -85Q353 -106 353 -138Q353 -155 349.5 -165.5Q346 -176 342 -179Q344 -179 346 -180Q350 -180 353 -180ZM364 -260Q304 -260 256.5 -242.5Q209 -225 188 -190Q149 -224 95 -242Q41 -260 -22 -260Q-110 -260 -160.5 -232.5Q-211 -205 -211 -148Q-211 -132 -205.5 -116.5Q-200 -101 -188 -89Q-176 -77 -157 -69.5Q-138 -62 -111 -62Q-68 -62 -44.5 -83Q-21 -104 -21 -139Q-21 -158 -29 -174Q-5 -169 7.5 -145.5Q20 -122 24 -90L87 420H37L49 520H101L102 528Q116 645 213 702.5Q310 760 484 760Q528 760 569.5 753.5Q611 747 642.5 733.5Q674 720 693 700Q712 680 712 653Q712 613 686.5 590Q661 567 615 567Q567 567 544 590.5Q521 614 521 642Q521 651 523 657.5Q525 664 529 671Q524 673 515.5 674Q507 675 493 675Q466 675 441 668.5Q416 662 395 646Q374 630 359.5 602.5Q345 575 340 533L339 520H422Q496 520 546.5 521Q597 522 630 523.5Q663 525 680.5 528Q698 531 706 535L722 525L658 0Q651 -61 632 -109.5Q613 -158 578.5 -191.5Q544 -225 491.5 -242.5Q439 -260 364 -260Z" glyph-name="f_j" horiz-adv-x="741" /><glyph d="M474 -260Q430 -260 393 -252Q356 -244 329.5 -229Q303 -214 288.5 -191.5Q274 -169 274 -139Q274 -97 301.5 -67.5Q329 -38 383 -38Q428 -38 450 -60.5Q472 -83 472 -113Q472 -135 463.5 -151Q455 -167 442 -178Q452 -180 462 -180Q499 -180 522.5 -152Q546 -124 546 -85Q546 -43 514 -21.5Q482 0 428 0L479 420H327L270 -35Q263 -88 238.5 -130Q214 -172 175.5 -201Q137 -230 86.5 -245Q36 -260 -22 -260Q-110 -260 -160.5 -234Q-211 -208 -211 -159Q-211 -118 -186 -90Q-161 -62 -111 -62Q-68 -62 -44.5 -83Q-21 -104 -21 -139Q-21 -160 -27 -173Q-4 -164 8 -141.5Q20 -119 24 -90L87 420H37L49 520H153Q138 524 121 530.5Q104 537 90 548.5Q76 560 66.5 576.5Q57 593 57 617Q57 653 82 680Q107 707 150 724.5Q193 742 251 751Q309 760 374 760Q435 760 495 755Q555 750 603 736.5Q651 723 680.5 700.5Q710 678 710 643Q710 607 687 580.5Q664 554 616 554Q569 554 544.5 574Q520 594 520 630Q520 643 523 655Q494 661 457.5 665.5Q421 670 382 670Q298 670 247.5 654Q197 638 197 607Q197 567 267 543.5Q337 520 456 520Q523 520 569 521Q615 522 645 523.5Q675 525 692 528Q709 531 716 535L732 525L672 36Q695 16 704.5 -8.5Q714 -33 714 -60Q714 -98 701 -133.5Q688 -169 659 -197.5Q630 -226 584.5 -243Q539 -260 474 -260Z" glyph-name="f_j.alt" horiz-adv-x="755" /><glyph d="M5 0 17 94H62L106 456H61L73 550H598L574 351H462L465 378Q467 398 466 412.5Q465 427 457.5 437Q450 447 434.5 451.5Q419 456 392 456H346L330 316H369L376 374H445L421 178H351L357 227H318L302 94H367L356 0ZM977 193Q965 96 902.5 44Q840 -8 710 -8Q665 -8 626.5 0Q588 8 560.5 23Q533 38 517 60.5Q501 83 501 112Q501 160 530 190.5Q559 221 611 221Q650 221 674 200Q698 179 698 143Q698 122 689 105.5Q680 89 670 83Q671 82 674 82Q679 80 687 80Q722 80 727 114L769 456H725L736 550H1066L1055 456H1009Z" glyph-name="f_j.alt.sc" horiz-adv-x="1054" /><glyph d="M5 0 17 94H62L106 456H61L73 550H598L574 351H462L466 379Q469 399 467.5 413Q466 427 458.5 437Q451 447 435 451.5Q419 456 392 456H346L330 316L453 329L440 213L318 227L302 94H367L356 0ZM968 193Q956 96 893.5 44Q831 -8 701 -8Q656 -8 617.5 0Q579 8 551.5 23Q524 38 508 60.5Q492 83 492 112Q492 160 521 190.5Q550 221 602 221Q641 221 665 200Q689 179 689 143Q689 122 680 105.5Q671 89 661 83Q662 82 665 82Q670 80 678 80Q713 80 718 114L760 456H716L727 550H1057L1046 456H1000Z" glyph-name="f_j.sc" horiz-adv-x="1045" /><glyph d="M-22 -260Q-110 -260 -160.5 -234Q-211 -208 -211 -159Q-211 -118 -186 -90Q-161 -62 -111 -62Q-68 -62 -44.5 -83Q-21 -104 -21 -139Q-21 -151 -22.5 -159Q-24 -167 -26 -173Q-3 -167 8.5 -144Q20 -121 24 -90L87 420H37L49 520H101L102 529Q108 585 132.5 628Q157 671 196 700Q235 729 285.5 744.5Q336 760 394 760Q436 760 465.5 758Q495 756 519 753Q543 750 566 748Q589 746 618 746Q648 746 668.5 747Q689 748 702.5 750Q716 752 724.5 754.5Q733 757 739 760L757 750L744 642Q740 605 736.5 580Q733 555 730 534.5Q727 514 724 495.5Q721 477 716 453Q739 488 781 511.5Q823 535 889 535Q964 535 1010 502.5Q1056 470 1056 413Q1056 368 1025.5 329Q995 290 939 265L1018 100H1058L1046 0H805L713 203L718 251Q760 263 786 297Q812 331 812 375Q812 425 770 425Q741 425 725 389Q709 353 701 287L665 0H425L507 667Q501 670 488.5 672.5Q476 675 459 675Q404 675 378.5 650.5Q353 626 345 567L339 520H456L444 420H327L270 -35Q263 -88 238.5 -129.5Q214 -171 175.5 -200Q137 -229 86.5 -244.5Q36 -260 -22 -260Z" glyph-name="f_k" horiz-adv-x="1090" /><glyph d="M896 420H729L710 269ZM-22 -260Q-110 -260 -160.5 -234Q-211 -208 -211 -159Q-211 -118 -186 -90Q-161 -62 -111 -62Q-68 -62 -44.5 -83Q-21 -104 -21 -139Q-21 -160 -29 -174Q-5 -169 7.5 -145.5Q20 -122 24 -90L87 420H37L49 520H153Q134 525 112.5 532.5Q91 540 73 553Q55 566 44.5 586Q34 606 38 636Q42 664 59.5 687Q77 710 112 726Q147 742 202.5 751Q258 760 337 760Q389 760 424 757.5Q459 755 488.5 752.5Q518 750 546.5 747.5Q575 745 613 745Q652 745 676 746Q700 747 714.5 749.5Q729 752 736.5 754.5Q744 757 750 760L769 750L741 520H1086L1075 435L914 312L1031 100H1066L1054 0H835L738 177L695 143L677 0H437L516 652Q484 661 437.5 665.5Q391 670 336 670Q253 670 212 654.5Q171 639 167 609Q162 569 232.5 544.5Q303 520 459 520L447 420H327L270 -35Q263 -88 238.5 -130Q214 -172 175.5 -201Q137 -230 86.5 -245Q36 -260 -22 -260Z" glyph-name="f_k.alt" horiz-adv-x="1094" /><glyph d="M5 0 17 94H62L106 456H61L73 550H598L574 351H462L465 378Q467 398 466 412.5Q465 427 457.5 437Q450 447 434.5 451.5Q419 456 392 456H346L330 316H369L376 374H445L421 178H351L357 227H318L302 94H367L356 0ZM898 286 1152 456H919ZM578 0 590 94H635L679 456H634L646 550H1318L1306 456L1118 334L1246 94H1278L1267 0H945L957 94H984L919 205L886 184L875 94H905L894 0Z" glyph-name="f_k.alt.sc" horiz-adv-x="1305" /><glyph d="M5 0 17 94H62L106 456H61L73 550H598L574 351H462L466 379Q469 399 467.5 413Q466 427 458.5 437Q451 447 435 451.5Q419 456 392 456H346L330 316L453 329L440 213L318 227L302 94H367L356 0ZM569 0 581 94H626L670 456H625L637 550H953L940 456H910L892 316L1077 456H1016L1028 550H1297L1285 456H1219L1075 346L1238 94H1271L1260 0H938L949 94H980L902 215L880 198L866 94H896L885 0Z" glyph-name="f_k.sc" horiz-adv-x="1292" /><glyph d="M441 520Q470 520 489 525.5Q508 531 520.5 540.5Q533 550 539 561.5Q545 573 547 585Q553 630 529.5 652.5Q506 675 463 675Q412 675 382 648.5Q352 622 343 553L339 520ZM-22 -260Q-211 -260 -211 -157Q-211 -118 -186 -90Q-161 -62 -111 -62Q-68 -62 -44.5 -83Q-21 -104 -21 -139Q-21 -144 -22 -153.5Q-23 -163 -25 -174Q-2 -171 8.5 -150.5Q19 -130 23 -101L87 420H37L49 520H101L102 529Q108 585 137 628Q166 671 211.5 700Q257 729 317 744.5Q377 760 444 760Q505 760 557.5 748.5Q610 737 647 712.5Q684 688 703 648.5Q722 609 715 553L711 520H867L855 420H701L677 224Q670 167 677.5 138Q685 109 711 109Q738 109 752 143Q766 177 773 232H848Q834 117 781 53.5Q728 -10 624 -10Q506 -10 464 44.5Q422 99 435 210L461 420H327L274 0Q266 -65 241 -113.5Q216 -162 177.5 -194.5Q139 -227 88.5 -243.5Q38 -260 -22 -260Z" glyph-name="f_t" horiz-adv-x="863" /><glyph d="M499 520Q503 549 494.5 576Q486 603 463 624Q440 645 400.5 657.5Q361 670 302 670Q245 670 208 654.5Q171 639 167 609Q162 569 232.5 544.5Q303 520 459 520ZM-22 -260Q-110 -260 -160.5 -231.5Q-211 -203 -211 -148Q-211 -115 -186.5 -88.5Q-162 -62 -114 -62Q-69 -62 -45 -83Q-21 -104 -21 -139Q-21 -147 -22 -156Q-23 -165 -27 -173Q-4 -163 8 -141Q20 -119 24 -90L87 420H37L49 520H153Q134 525 112.5 532.5Q91 540 73 553Q55 566 44.5 586Q34 606 38 636Q46 693 110 726.5Q174 760 293 760Q425 760 510 717.5Q595 675 638 602L777 770L826 750Q814 727 800.5 702.5Q787 678 775 650Q763 622 753.5 590Q744 558 739 520H908L896 420H727L702 218Q694 157 700.5 133.5Q707 110 735 110Q753 110 764.5 126Q776 142 782.5 163Q789 184 792 204Q795 224 796 232H871Q866 191 854 148Q842 105 816.5 70Q791 35 747 12.5Q703 -10 634 -10Q604 -10 570 -3.5Q536 3 508.5 23.5Q481 44 465.5 82Q450 120 458 182L487 420H327L270 -35Q263 -88 238.5 -130Q214 -172 175.5 -201Q137 -230 86.5 -245Q36 -260 -22 -260Z" glyph-name="f_t.alt" horiz-adv-x="891" /><glyph d="M5 0 17 94H62L106 456H61L73 550H598L574 351H462L465 378Q467 398 466 412.5Q465 427 457.5 437Q450 447 434.5 451.5Q419 456 392 456H346L330 316H369L376 374H445L421 178H351L357 227H318L302 94H367L356 0ZM710 94H765L810 458H804Q769 458 753 436.5Q737 415 730 367L725 330H614L641 550H1242L1214 330H1103L1108 367Q1115 416 1104 437Q1093 458 1061 458H1050L1005 94H1059L1048 0H699Z" glyph-name="f_t.alt.sc" horiz-adv-x="1220" /><glyph d="M5 0 17 94H62L106 456H61L73 550H598L574 351H462L466 379Q469 399 467.5 413Q466 427 458.5 437Q451 447 435 451.5Q419 456 392 456H346L330 316L453 329L440 213L318 227L302 94H367L356 0ZM701 94H756L801 458H795Q760 458 744 436.5Q728 415 721 367L716 330H605L632 550H1233L1205 330H1094L1099 367Q1106 416 1095 437Q1084 458 1052 458H1041L996 94H1050L1039 0H690Z" glyph-name="f_t.sc" horiz-adv-x="1211" /><glyph d="M-22 -260Q-110 -260 -160.5 -234Q-211 -208 -211 -159Q-211 -118 -186 -90Q-161 -62 -111 -62Q-68 -62 -44.5 -83Q-21 -104 -21 -139Q-21 -144 -22.5 -155Q-24 -166 -27 -174Q-4 -169 8 -145.5Q20 -122 24 -90L87 420H37L49 520H101L102 528Q109 586 141.5 629.5Q174 673 225.5 702Q277 731 343.5 745.5Q410 760 486 760Q537 760 579 756.5Q621 753 650.5 742Q680 731 696 710.5Q712 690 712 656Q712 622 684.5 594.5Q657 567 606 567Q562 567 541.5 590.5Q521 614 521 642Q521 658 525 673Q517 674 509.5 674.5Q502 675 493 675Q466 675 441 668.5Q416 662 395 646Q374 630 359.5 602.5Q345 575 340 533L339 520H432Q516 520 565 520.5Q614 521 641.5 523Q669 525 681.5 528Q694 531 704 535L722 525L674 137Q672 117 676 109.5Q680 102 688 102Q700 102 706 118.5Q712 135 718 175H795Q790 132 778 97.5Q766 63 744.5 39Q723 15 690.5 2.5Q658 -10 611 -10Q572 -10 538 0Q504 10 480 32.5Q456 55 445 91Q434 127 440 179L470 420H327L270 -35Q263 -88 238.5 -129.5Q214 -171 175.5 -200Q137 -229 86.5 -244.5Q36 -260 -22 -260Z" glyph-name="fi" horiz-adv-x="795" unicode="&#64257;" /><glyph d="M-22 -260Q-110 -260 -160.5 -234Q-211 -208 -211 -159Q-211 -118 -186 -90Q-161 -62 -111 -62Q-68 -62 -44.5 -83Q-21 -104 -21 -139Q-21 -159 -27 -171Q1 -163 11.5 -138Q22 -113 24 -90L87 420H37L49 520H153Q138 524 121 530.5Q104 537 90 548.5Q76 560 66.5 576.5Q57 593 57 617Q57 653 82 680Q107 707 150 724.5Q193 742 251 751Q309 760 374 760Q435 760 495 755Q555 750 603 736.5Q651 723 680.5 700.5Q710 678 710 643Q710 607 686.5 580.5Q663 554 616 554Q569 554 544.5 574Q520 594 520 630Q520 644 523 656Q495 661 459.5 665.5Q424 670 382 670Q298 670 247.5 654Q197 638 197 607Q197 567 267 543.5Q337 520 457 520Q535 520 580.5 520.5Q626 521 651.5 523Q677 525 689 528Q701 531 711 535L729 525L681 137Q679 117 683 109.5Q687 102 695 102Q707 102 713 118.5Q719 135 725 175H802Q797 132 785 97.5Q773 63 751.5 39Q730 15 697.5 2.5Q665 -10 618 -10Q579 -10 545 0Q511 10 487 32.5Q463 55 452 91Q441 127 447 179L477 420H327L270 -35Q263 -88 238.5 -130Q214 -172 175.5 -201Q137 -230 86.5 -245Q36 -260 -22 -260Z" glyph-name="fi.alt" horiz-adv-x="802" /><glyph d="M5 0 17 94H62L106 456H61L73 550H598L574 351H462L465 378Q467 398 466 412.5Q465 427 457.5 437Q450 447 434.5 451.5Q419 456 392 456H346L330 316H369L376 374H445L421 178H351L357 227H318L302 94H367L356 0ZM578 0 590 94H635L679 456H634L646 550H977L965 456H919L875 94H921L909 0Z" glyph-name="fi.alt.sc" horiz-adv-x="978" /><glyph d="M5 0 17 94H62L106 456H61L73 550H598L574 351H462L466 379Q469 399 467.5 413Q466 427 458.5 437Q451 447 435 451.5Q419 456 392 456H346L330 316L453 329L440 213L318 227L302 94H367L356 0ZM569 0 581 94H626L670 456H625L637 550H968L956 456H910L866 94H912L900 0Z" glyph-name="fi.sc" horiz-adv-x="969" /><glyph d="M569 241Q569 198 550 153.5Q531 109 493 72.5Q455 36 398 13Q341 -10 264 -10Q138 -10 75.5 24Q13 58 13 123Q13 171 44 203.5Q75 236 131 236Q175 236 198 214.5Q221 193 221 157Q221 117 197 90H212Q239 90 259 103Q279 116 292 137Q305 158 311.5 184.5Q318 211 318 238Q318 293 294 316.5Q270 340 227 340Q195 340 173 327.5Q151 315 142 300H68L144 690H584L568 560H228L202 420Q234 432 266 436Q298 440 332 440Q394 440 438.5 424.5Q483 409 512 382Q541 355 555 318.5Q569 282 569 241Z" glyph-name="five" horiz-adv-x="597" unicode="5" /><glyph d="M148 -89Q160 -89 168.5 -80.5Q177 -72 182.5 -59Q188 -46 191 -30Q194 -14 194 2Q194 32 180 45.5Q166 59 141 59Q118 59 104 50.5Q90 42 84 31H28L81 300H407L394 194H148L133 123Q156 131 178.5 134Q201 137 224 137Q273 137 306.5 127Q340 117 360.5 99.5Q381 82 390 59.5Q399 37 399 13Q399 -19 387.5 -49.5Q376 -80 349 -104Q322 -128 278.5 -142.5Q235 -157 172 -157Q83 -157 40 -134Q-3 -111 -3 -72Q-3 -59 1.5 -45Q6 -31 16.5 -20Q27 -9 43 -2Q59 5 83 5Q116 5 133.5 -9Q151 -23 151 -47Q151 -59 146.5 -70.5Q142 -82 134 -87Q138 -89 148 -89Z" glyph-name="five.inferior" horiz-adv-x="438" /><glyph d="M209 -180Q109 -180 48 -147.5Q-13 -115 -13 -47Q-13 -26 -7 -6.5Q-1 13 11.5 28Q24 43 44.5 52Q65 61 94 61Q140 61 163 39.5Q186 18 186 -17Q186 -33 183.5 -49.5Q181 -66 167 -84Q172 -85 182 -85Q209 -85 229 -70.5Q249 -56 262 -32.5Q275 -9 281.5 20Q288 49 288 78Q288 126 265 150.5Q242 175 198 175Q166 175 144.5 162.5Q123 150 113 135H39L114 520H549L534 395H196L167 250Q199 262 233.5 266Q268 270 302 270Q367 270 411 254.5Q455 239 482.5 213.5Q510 188 522 154.5Q534 121 534 85Q534 31 515.5 -17Q497 -65 457.5 -101Q418 -137 356.5 -158.5Q295 -180 209 -180Z" glyph-name="five.old" horiz-adv-x="577" /><glyph d="M241 -8Q8 -8 8 99Q8 144 37 171.5Q66 199 120 199Q162 199 184 179Q206 159 206 127Q206 104 196 85Q234 88 252 115.5Q270 143 270 185Q270 222 249 240Q228 258 193 258Q166 258 147.5 248.5Q129 239 123 230H54L118 550H524L509 433H200L183 342Q210 347 234.5 349Q259 351 297 351Q353 351 394.5 338.5Q436 326 463 304Q490 282 503 253Q516 224 516 191Q516 156 499 120.5Q482 85 447.5 56.5Q413 28 361.5 10Q310 -8 241 -8Z" glyph-name="five.sc" horiz-adv-x="548" /><glyph d="M218 491Q230 491 238.5 499.5Q247 508 252.5 521Q258 534 261 550Q264 566 264 582Q264 612 250 625.5Q236 639 211 639Q188 639 174 630.5Q160 622 154 611H98L151 880H477L464 774H218L203 703Q226 711 248.5 714Q271 717 294 717Q343 717 376.5 707Q410 697 430.5 679.5Q451 662 460 639.5Q469 617 469 593Q469 562 457.5 531.5Q446 501 419 477Q392 453 348.5 438Q305 423 242 423Q153 423 110 446Q67 469 67 508Q67 522 71.5 535.5Q76 549 86.5 560Q97 571 113 578Q129 585 153 585Q186 585 203.5 571Q221 557 221 533Q221 521 216.5 509.5Q212 498 204 493Q208 491 218 491Z" glyph-name="five.superior" horiz-adv-x="478" /><glyph d="M591 241Q591 198 572 153.5Q553 109 515 72.5Q477 36 420 13Q363 -10 286 -10Q160 -10 97.5 24Q35 58 35 123Q35 171 66 203.5Q97 236 153 236Q197 236 220 214.5Q243 193 243 157Q243 117 219 90H234Q261 90 281 103Q301 116 314 137Q327 158 333.5 184.5Q340 211 340 238Q340 293 316 316.5Q292 340 249 340Q217 340 195 327.5Q173 315 164 300H90L166 690H606L590 560H250L224 420Q256 432 288 436Q320 440 354 440Q416 440 460.5 424.5Q505 409 534 382Q563 355 577 318.5Q591 282 591 241Z" glyph-name="five.tln" horiz-adv-x="640" /><glyph d="M241 -180Q141 -180 80 -147.5Q19 -115 19 -47Q19 -26 25 -6.5Q31 13 43.5 28Q56 43 76.5 52Q97 61 126 61Q172 61 195 39.5Q218 18 218 -17Q218 -33 215.5 -49.5Q213 -66 199 -84Q204 -85 214 -85Q241 -85 261 -70.5Q281 -56 294 -32.5Q307 -9 313.5 20Q320 49 320 78Q320 126 297 150.5Q274 175 230 175Q198 175 176.5 162.5Q155 150 145 135H71L146 520H581L566 395H228L199 250Q231 262 265.5 266Q300 270 334 270Q399 270 443 254.5Q487 239 514.5 213.5Q542 188 554 154.5Q566 121 566 85Q566 31 547.5 -17Q529 -65 489.5 -101Q450 -137 388.5 -158.5Q327 -180 241 -180Z" glyph-name="five.ton" horiz-adv-x="640" /><glyph d="M-22 -260Q-110 -260 -160.5 -234Q-211 -208 -211 -159Q-211 -118 -186 -90Q-161 -62 -111 -62Q-68 -62 -44.5 -83Q-21 -104 -21 -139Q-21 -145 -22 -155Q-23 -165 -26 -173Q-3 -167 8.5 -144Q20 -121 24 -90L87 420H37L49 520H101L102 529Q108 585 132.5 628Q157 671 196 700Q235 729 285.5 744.5Q336 760 394 760Q436 760 465.5 758Q495 756 519 753Q543 750 566 748Q589 746 618 746Q648 746 668.5 747Q689 748 702.5 750Q716 752 724.5 754.5Q733 757 739 760L757 750L684 137Q682 117 686 109.5Q690 102 698 102Q710 102 716 118.5Q722 135 728 175H805Q800 132 788 97.5Q776 63 754.5 39Q733 15 700.5 2.5Q668 -10 621 -10Q582 -10 548 0Q514 10 490 32.5Q466 55 455 91Q444 127 450 179L506 662Q500 667 488 671Q476 675 459 675Q404 675 378.5 650.5Q353 626 345 567L339 520H456L444 420H327L270 -35Q263 -88 238.5 -129.5Q214 -171 175.5 -200Q137 -229 86.5 -244.5Q36 -260 -22 -260Z" glyph-name="fl" horiz-adv-x="805" unicode="&#64258;" /><glyph d="M-22 -260Q-110 -260 -160.5 -234Q-211 -208 -211 -159Q-211 -118 -186 -90Q-161 -62 -111 -62Q-68 -62 -44.5 -83Q-21 -104 -21 -139Q-21 -159 -28 -174Q-4 -169 8 -145.5Q20 -122 24 -90L87 420H37L49 520H153Q134 525 112.5 532.5Q91 540 73 553Q55 566 44.5 586Q34 606 38 636Q42 664 59.5 687Q77 710 112 726Q147 742 202.5 751Q258 760 337 760Q389 760 424 757.5Q459 755 488.5 752.5Q518 750 546.5 747.5Q575 745 613 745Q652 745 676 746Q700 747 714.5 749.5Q729 752 736.5 754.5Q744 757 750 760L768 750L694 137Q692 117 696 109.5Q700 102 708 102Q720 102 726 118.5Q732 135 738 175H815Q810 132 798 97.5Q786 63 764.5 39Q743 15 710.5 2.5Q678 -10 631 -10Q592 -10 558 0Q524 10 500 32.5Q476 55 465 91Q454 127 460 179L517 652Q485 661 438 665.5Q391 670 336 670Q253 670 212 654.5Q171 639 167 609Q162 569 232.5 544.5Q303 520 459 520L447 420H327L270 -35Q263 -88 238.5 -130Q214 -172 175.5 -201Q137 -230 86.5 -245Q36 -260 -22 -260Z" glyph-name="fl.alt" horiz-adv-x="815" /><glyph d="M5 0 17 94H62L106 456H61L73 550H598L574 351H462L465 378Q467 398 466 412.5Q465 427 457.5 437Q450 447 434.5 451.5Q419 456 392 456H346L330 316H369L376 374H445L421 178H351L357 227H318L302 94H367L356 0ZM590 94H635L679 456H634L646 550H983L971 456H919L875 94H920Q930 94 942 97.5Q954 101 965 110.5Q976 120 985 138.5Q994 157 997 187L1000 214H1111L1085 0H578Z" glyph-name="fl.alt.sc" horiz-adv-x="1131" /><glyph d="M5 0 17 94H62L106 456H61L73 550H598L574 351H462L466 379Q469 399 467.5 413Q466 427 458.5 437Q451 447 435 451.5Q419 456 392 456H346L330 316L453 329L440 213L318 227L302 94H367L356 0ZM581 94H626L670 456H625L637 550H974L962 456H910L866 94H911Q921 94 933 97.5Q945 101 956 110.5Q967 120 976 138.5Q985 157 988 187L991 214H1102L1076 0H569Z" glyph-name="fl.sc" horiz-adv-x="1122" /><glyph d="M217 0 229 100H284L294 180H-1L9 258L382 690H602L551 280H606L594 180H539L529 100H584L572 0ZM333 493 148 280H306Z" glyph-name="four" horiz-adv-x="643" unicode="4" /><glyph d="M141 -150 151 -71H183L187 -39H-14L-6 24L247 300H429L397 40H432L422 -39H387L383 -71H418L408 -150ZM211 157 104 40H197Z" glyph-name="four.inferior" horiz-adv-x="479" /><glyph d="M260 -170 281 0H-19L-10 78L372 535H587L533 100H603L591 0H521L500 -170ZM293 100 323 342 121 100Z" glyph-name="four.old" horiz-adv-x="650" /><glyph d="M195 0 206 94H250L256 137H-4L6 212L329 550H547L507 231H553L541 137H496L490 94H536L525 0ZM292 390 139 231H267Z" glyph-name="four.sc" horiz-adv-x="595" /><glyph d="M211 430 221 509H253L257 541H56L64 604L317 880H499L467 620H502L492 541H457L453 509H488L478 430ZM281 737 174 620H267Z" glyph-name="four.superior" horiz-adv-x="499" /><glyph d="M215 0 227 100H282L292 180H-3L7 258L380 690H600L549 280H604L592 180H537L527 100H582L570 0ZM331 493 146 280H304Z" glyph-name="four.tln" horiz-adv-x="640" /><glyph d="M255 -170 276 0H-24L-15 78L367 535H582L528 100H598L586 0H516L495 -170ZM288 100 318 342 116 100Z" glyph-name="four.ton" horiz-adv-x="640" /><glyph d="M271 303Q271 271 279 252.5Q287 234 302 234Q317 234 328 248Q339 262 346.5 284.5Q354 307 357.5 335.5Q361 364 361 393Q361 427 353.5 447Q346 467 329 467Q315 467 304.5 453.5Q294 440 286.5 417.5Q279 395 275 365.5Q271 336 271 303ZM586 -50Q586 -93 567 -131Q548 -169 506.5 -197.5Q465 -226 398.5 -243Q332 -260 236 -260Q186 -260 140 -254.5Q94 -249 58.5 -235.5Q23 -222 1.5 -199Q-20 -176 -20 -140Q-20 -98 13.5 -70Q47 -42 112 -25Q94 -20 77 -13Q60 -6 47 4.5Q34 15 26 29Q18 43 18 62Q18 104 50.5 136Q83 168 146 185Q92 204 64.5 239.5Q37 275 37 325Q37 371 57.5 409.5Q78 448 117 476Q156 504 212 519.5Q268 535 339 535Q349 535 363.5 534Q378 533 393 530.5Q408 528 421.5 525.5Q435 523 443 520H681L668 420L562 436Q595 406 595 360Q595 323 578.5 288Q562 253 525.5 225.5Q489 198 431.5 181.5Q374 165 293 165Q262 165 243 163Q224 161 213.5 157.5Q203 154 199.5 148Q196 142 196 134Q196 118 216.5 111.5Q237 105 283 105Q438 105 512 68Q586 31 586 -50ZM155 -112Q155 -132 164.5 -145Q174 -158 191 -165.5Q208 -173 231 -176Q254 -179 280 -179Q309 -179 334 -174.5Q359 -170 378 -161Q397 -152 408 -139.5Q419 -127 419 -110Q419 -97 411 -86.5Q403 -76 380 -68Q357 -60 315.5 -55.5Q274 -51 208 -51H187Q176 -58 165.5 -73.5Q155 -89 155 -112Z" glyph-name="g" horiz-adv-x="651" unicode="g" /><glyph d="M947 679Q947 633 916.5 604Q886 575 840 575Q802 575 778.5 597Q755 619 755 655Q755 701 785.5 730Q816 759 862 759Q900 759 923.5 737Q947 715 947 679ZM612 -260Q572 -260 534 -249Q496 -238 467 -220Q426 -239 369 -249.5Q312 -260 236 -260Q186 -260 140 -254.5Q94 -249 58.5 -235.5Q23 -222 1.5 -199Q-20 -176 -20 -140Q-20 -98 11 -70Q42 -42 92 -25Q63 -15 40.5 4.5Q18 24 18 62Q18 107 47.5 139Q77 171 138 188Q37 228 37 325Q37 371 57.5 409.5Q78 448 117 476Q156 504 212 519.5Q268 535 339 535Q349 535 363.5 534Q378 533 393 530.5Q408 528 421.5 525.5Q435 523 443 520H670Q744 520 794.5 521Q845 522 878 523.5Q911 525 928.5 528Q946 531 954 535L970 525L906 0Q899 -61 880 -109.5Q861 -158 826.5 -191.5Q792 -225 739.5 -242.5Q687 -260 612 -260ZM271 303Q271 240 302 240Q317 240 328 253Q339 266 346.5 287.5Q354 309 357.5 336.5Q361 364 361 393Q361 460 329 460Q315 460 304.5 447.5Q294 435 286.5 414Q279 393 275 364.5Q271 336 271 303ZM584 -180Q626 -180 639 -152.5Q652 -125 658 -72L717 420L569 429Q581 415 588 398Q595 381 595 360Q595 323 578.5 288Q562 253 525.5 225.5Q489 198 431.5 181.5Q374 165 293 165Q262 165 243 163Q224 161 213.5 157.5Q203 154 199.5 148Q196 142 196 134Q196 118 216.5 111.5Q237 105 283 105Q438 105 512 68Q586 31 586 -50Q586 -83 575 -113Q564 -143 540 -169Q548 -174 559 -177Q570 -180 584 -180ZM155 -112Q155 -132 164.5 -145Q174 -158 191 -165.5Q208 -173 231 -176Q254 -179 280 -179Q309 -179 334 -174.5Q359 -170 378 -161Q397 -152 408 -139.5Q419 -127 419 -110Q419 -97 411 -86.5Q403 -76 380 -68Q357 -60 315.5 -55.5Q274 -51 208 -51H187Q176 -58 165.5 -73.5Q155 -89 155 -112Z" glyph-name="g_j" horiz-adv-x="989" /><glyph d="M930 689Q930 643 899.5 614Q869 585 823 585Q785 585 761.5 607Q738 629 738 665Q738 711 768.5 740Q799 769 845 769Q883 769 906.5 747Q930 725 930 689ZM663 -260Q607 -260 557.5 -248Q508 -236 471 -218Q429 -238 371.5 -249Q314 -260 236 -260Q186 -260 140 -254.5Q94 -249 58.5 -235.5Q23 -222 1.5 -199Q-20 -176 -20 -140Q-20 -98 13.5 -70Q47 -42 112 -25Q68 -15 43 4.5Q18 24 18 62Q18 105 49.5 137Q81 169 142 186Q37 226 37 325Q37 371 57.5 409.5Q78 448 117 476Q156 504 212 519.5Q268 535 339 535Q349 535 363.5 534Q378 533 393 530.5Q408 528 421.5 525.5Q435 523 443 520H660Q731 520 779.5 521Q828 522 860 523.5Q892 525 909 528Q926 531 934 535L950 525L890 36Q913 16 922.5 -8.5Q932 -33 932 -60Q932 -153 867.5 -206.5Q803 -260 663 -260ZM271 303Q271 240 302 240Q317 240 328 253Q339 266 346.5 287.5Q354 309 357.5 336.5Q361 364 361 393Q361 460 329 460Q315 460 304.5 447.5Q294 435 286.5 414Q279 393 275 364.5Q271 336 271 303ZM667 -180Q714 -180 739 -152Q764 -124 764 -85Q764 -43 732 -21.5Q700 0 646 0L698 426L557 440Q595 410 595 360Q595 323 578.5 288Q562 253 525.5 225.5Q489 198 431.5 181.5Q374 165 293 165Q262 165 243 163Q224 161 213.5 157.5Q203 154 199.5 148Q196 142 196 134Q196 118 216.5 111.5Q237 105 283 105Q438 105 512 68Q586 31 586 -50Q586 -107 555 -151Q577 -164 604.5 -172Q632 -180 667 -180ZM155 -112Q155 -132 164.5 -145Q174 -158 191 -165.5Q208 -173 231 -176Q254 -179 280 -179Q309 -179 334 -174.5Q359 -170 378 -161Q397 -152 408 -139.5Q419 -127 419 -110Q419 -97 411 -86.5Q403 -76 380 -68Q357 -60 315.5 -55.5Q274 -51 208 -51H187Q176 -58 165.5 -73.5Q155 -89 155 -112Z" glyph-name="g_j.alt" horiz-adv-x="973" /><glyph d="M419 32Q398 18 364 5Q330 -8 270 -8Q209 -8 162.5 10.5Q116 29 84.5 60.5Q53 92 37 134.5Q21 177 21 225Q21 300 43.5 361Q66 422 106 466Q146 510 201.5 534Q257 558 322 558Q372 558 398.5 545Q425 532 439 521L471 557H574L549 349H438V367Q438 417 423 438.5Q408 460 375 460Q338 460 316 429Q294 398 282 354.5Q270 311 266.5 264Q263 217 263 185Q263 128 281 109Q299 90 324 90Q336 90 346 92Q351 92 354 93L362 166H334L346 260H583L571 166H540L519 -8H447ZM601 0 613 94H658L702 456H657L669 550H1000L988 456H942L898 94H944L932 0Z" glyph-name="g_j.alt.sc" horiz-adv-x="990" /><glyph d="M419 32Q398 18 364 5Q330 -8 270 -8Q209 -8 162.5 10.5Q116 29 84.5 60.5Q53 92 37 134.5Q21 177 21 225Q21 300 43.5 361Q66 422 106 466Q146 510 201.5 534Q257 558 322 558Q372 558 398.5 545Q425 532 439 521L471 557H574L549 349H438V367Q438 417 423 438.5Q408 460 375 460Q338 460 316 429Q294 398 282 354.5Q270 311 266.5 264Q263 217 263 185Q263 128 281 109Q299 90 324 90Q336 90 346 92Q351 92 354 93L362 166H334L346 260H583L571 166H540L519 -8H447ZM601 0 613 94H658L702 456H657L669 550H1000L988 456H942L898 94H944L932 0Z" glyph-name="g_j.sc" horiz-adv-x="990" /><glyph d="M455 -10Q423 -10 397 -8.5Q371 -7 352 -5Q330 -3 313 0L325 93Q328 92 333 92Q337 91 342 90.5Q347 90 354 90Q375 90 390.5 98Q406 106 416 119.5Q426 133 431 150Q436 167 436 185Q436 220 423.5 239Q411 258 396.5 275Q382 292 369.5 313.5Q357 335 357 373Q357 412 372 439.5Q387 467 405 493Q423 519 438 547.5Q453 576 453 617Q453 643 441 656.5Q429 670 410 670Q382 670 366.5 648Q351 626 346 585L275 0H35L87 420H37L49 520H99L101 539Q109 597 137 640Q165 683 208 712Q251 741 306 755.5Q361 770 423 770Q561 770 630 729.5Q699 689 699 614Q699 574 681 546.5Q663 519 636.5 500Q610 481 579 468.5Q548 456 521.5 445Q495 434 477 422Q459 410 459 393Q459 379 475.5 369Q492 359 516 348.5Q540 338 569 325Q598 312 622 293Q646 274 662.5 246Q679 218 679 178Q679 139 664 105Q649 71 620.5 45.5Q592 20 550.5 5Q509 -10 455 -10Z" glyph-name="germandbls" horiz-adv-x="698" unicode="&#223;" /><glyph d="M418 -10Q393 -10 373.5 -8.5Q354 -7 340 -5Q325 -3 313 0L325 95Q329 93 335 92Q341 91 348.5 90Q356 89 367 89Q386 89 399.5 100Q413 111 421.5 129Q430 147 434 170Q438 193 438 217Q438 259 418 296Q398 333 347 357L352 397L568 650H355L275 0H35L87 420H37L49 520H99L128 750H702L688 637L505 427Q583 401 632.5 351.5Q682 302 682 222Q682 166 662 123Q642 80 606.5 50.5Q571 21 523 5.5Q475 -10 418 -10Z" glyph-name="germandbls.alt" horiz-adv-x="708" /><glyph d="M232 650Q199 660 178.5 670Q158 680 146.5 689.5Q135 699 131 708.5Q127 718 127 727Q127 752 152.5 771Q178 790 223 790Q268 790 298.5 774Q329 758 352 716L404 621H328Z" glyph-name="grave" horiz-adv-x="370" unicode="`" /><glyph d="M221 767Q184 776 163.5 796Q143 816 143 839Q143 860 161 875Q179 890 214 890Q241 890 260.5 882.5Q280 875 295.5 863Q311 851 323.5 836.5Q336 822 347 809L407 740H330Z" glyph-name="grave.cap" horiz-adv-x="356" /><glyph d="M57 233 265 353 86 475 100 585 400 376 394 323 42 114Z" glyph-name="greater" horiz-adv-x="415" unicode="&gt;" /><glyph d="M34 143 242 263 63 385 77 495 377 286 371 233 19 24Z" glyph-name="greater.old" horiz-adv-x="397" /><glyph d="M48 205 223 292 69 380 81 479 352 312 346 265 35 98Z" glyph-name="greater.sc" horiz-adv-x="372" /><glyph d="M170 233 378 353 199 475 213 585 513 376 507 323 155 114Z" glyph-name="greater.tln" horiz-adv-x="640" /><glyph d="M156 143 364 263 185 385 199 495 499 286 493 233 141 24Z" glyph-name="greater.ton" horiz-adv-x="640" /><glyph d="M294 10 21 256 25 290 356 514 346 436 228 273 304 88ZM512 49 263 257 267 289 564 475 555 397 461 273 521 127Z" glyph-name="guillemotleft" horiz-adv-x="584" unicode="&#171;" /><glyph d="M312 90 39 336 43 370 374 594 364 516 246 353 322 168ZM530 129 281 337 285 369 582 555 573 477 479 353 539 207Z" glyph-name="guillemotleft.cap" horiz-adv-x="600" /><glyph d="M277 35 23 237 26 264 328 448 319 375 222 250 287 108ZM477 66 244 238 248 263 520 417 511 344 435 250 485 139Z" glyph-name="guillemotleft.sc" horiz-adv-x="553" /><glyph d="M322 10 49 256 53 290 384 514 374 436 256 273 332 88ZM540 49 291 257 295 289 592 475 583 397 489 273 549 127Z" glyph-name="guillemotleft.tln" horiz-adv-x="640" /><glyph d="M291 514 566 290 562 256 229 10 239 88 359 268 281 436ZM73 475 324 289 320 257 21 49 30 127 126 268 64 397Z" glyph-name="guillemotright" horiz-adv-x="585" unicode="&#187;" /><glyph d="M309 594 584 370 580 336 247 90 257 168 377 348 299 516ZM91 555 342 369 338 337 39 129 48 207 144 348 82 477Z" glyph-name="guillemotright.cap" horiz-adv-x="600" /><glyph d="M271 448 527 264 524 237 221 35 230 108 328 245 262 375ZM71 417 305 263 302 238 29 66 37 139 115 245 63 344Z" glyph-name="guillemotright.sc" horiz-adv-x="552" /><glyph d="M318 514 593 290 589 256 256 10 266 88 386 268 308 436ZM100 475 351 289 347 257 48 49 57 127 153 268 91 397Z" glyph-name="guillemotright.tln" horiz-adv-x="640" /><glyph d="M361 132Q361 159 366 183.5Q371 208 376.5 232Q382 256 387 280Q392 304 392 329Q392 383 355 383Q331 383 317 363Q303 343 296 291L259 0H19L99 645H49L61 745Q145 745 194 745.5Q243 746 271 748Q299 750 311.5 753Q324 756 334 760L352 750L339 642Q334 602 329.5 571.5Q325 541 321 516.5Q317 492 312.5 471.5Q308 451 303 430Q334 481 375 508Q416 535 470 535Q547 535 591 491.5Q635 448 635 367Q635 336 629 302.5Q623 269 616.5 237Q610 205 604 177Q598 149 598 128Q598 102 613 102Q625 102 631 118.5Q637 135 643 175H720Q715 132 703 97.5Q691 63 669.5 39Q648 15 615.5 2.5Q583 -10 536 -10Q458 -10 409.5 24.5Q361 59 361 132Z" glyph-name="h" horiz-adv-x="717" unicode="h" /><glyph d="M114 621 143 694Q167 756 195.5 793Q224 830 275 830Q309 830 325 815Q341 800 341 774Q341 748 318.5 716.5Q296 685 258 660L198 621ZM279 621 336 691Q382 748 419.5 769Q457 790 503 790Q549 790 567 775.5Q585 761 585 741Q585 712 557 690.5Q529 669 460 650L355 621Z" glyph-name="hungarumlaut" horiz-adv-x="536" unicode="&#733;" /><glyph d="M130 740 164 830Q181 877 206 909Q231 941 275 941Q307 941 322 925.5Q337 910 337 886Q337 859 316 829Q295 799 253 771L207 740ZM286 740 342 809Q354 824 368.5 839.5Q383 855 400 867.5Q417 880 438.5 888Q460 896 486 896Q524 896 537.5 881Q551 866 551 846Q551 818 528 799.5Q505 781 458 767L363 740Z" glyph-name="hungarumlaut.cap" horiz-adv-x="488" /><glyph d="M61 366H359L345 256H47Z" glyph-name="hyphen" horiz-adv-x="394" unicode="-" /><glyph d="M69 405H367L353 295H55Z" glyph-name="hyphen.cap" horiz-adv-x="401" /><glyph d="M59 338H325L312 236H46Z" glyph-name="hyphen.sc" horiz-adv-x="365" /><glyph d="M184 366H482L468 256H170Z" glyph-name="hyphen.tln" horiz-adv-x="640" /><glyph d="M221 -10Q182 -10 148 0Q114 10 90 32.5Q66 55 55 91Q44 127 50 179L80 420H30L42 520Q126 520 175 520.5Q224 521 251.5 523Q279 525 291.5 528Q304 531 314 535L332 525L284 137Q282 117 286 109.5Q290 102 298 102Q310 102 316 118.5Q322 135 328 175H405Q400 132 388 97.5Q376 63 354.5 39Q333 15 300.5 2.5Q268 -10 221 -10ZM208 607Q170 607 146.5 629Q123 651 123 687Q123 733 153.5 762Q184 791 230 791Q268 791 291.5 769Q315 747 315 711Q315 665 284.5 636Q254 607 208 607Z" glyph-name="i" horiz-adv-x="405" unicode="i" /><glyph d="M221 -10Q182 -10 148 0Q114 10 90 32.5Q66 55 55 91Q44 127 50 179L80 420H30L42 520Q126 520 175 520.5Q224 521 251.5 523Q279 525 291.5 528Q304 531 314 535L332 525L284 137Q282 117 286 109.5Q290 102 298 102Q310 102 316 118.5Q322 135 328 175H405Q400 132 388 97.5Q376 63 354.5 39Q333 15 300.5 2.5Q268 -10 221 -10ZM208 607Q170 607 146.5 629Q123 651 123 687Q123 733 153.5 762Q184 791 230 791Q268 791 291.5 769Q315 747 315 711Q315 665 284.5 636Q254 607 208 607Z" glyph-name="i.TRK" horiz-adv-x="405" /><glyph d="M221 -10Q182 -10 148 0Q114 10 90 32.5Q66 55 55 91Q44 127 50 179L80 420H30L42 520Q126 520 175 520.5Q224 521 251.5 523Q279 525 291.5 528Q304 531 314 535L332 525L284 137Q282 117 286 109.5Q290 102 298 102Q310 102 316 118.5Q322 135 328 175H405Q400 132 388 97.5Q376 63 354.5 39Q333 15 300.5 2.5Q268 -10 221 -10ZM208 607Q170 607 146.5 629Q123 651 123 687Q123 733 153.5 762Q184 791 230 791Q268 791 291.5 769Q315 747 315 711Q315 665 284.5 636Q254 607 208 607Z" glyph-name="i.dot" horiz-adv-x="405" /><glyph d="M121 621 177 691Q223 750 263.5 770Q304 790 349 790Q395 790 410.5 775Q426 760 426 740Q426 713 398 691.5Q370 670 301 650L197 621ZM221 -10Q182 -10 148 0Q114 10 90 32.5Q66 55 55 91Q44 127 50 179L80 420H30L42 520Q126 520 175 520.5Q224 521 251.5 523Q279 525 291.5 528Q304 531 314 535L332 525L284 137Q282 117 286 109.5Q290 102 298 102Q310 102 316 118.5Q322 135 328 175H405Q400 132 388 97.5Q376 63 354.5 39Q333 15 300.5 2.5Q268 -10 221 -10Z" glyph-name="iacute" horiz-adv-x="405" unicode="&#237;" /><glyph d="M511 611 567 681Q613 740 653.5 760Q694 780 739 780Q785 780 800.5 765Q816 750 816 730Q816 703 788 681.5Q760 660 691 640L587 611ZM112 611 168 681Q214 740 254.5 760Q295 780 340 780Q386 780 401.5 765Q417 750 417 730Q417 703 389 681.5Q361 660 292 640L188 611ZM221 -10Q182 -10 148 0Q114 10 90 32.5Q66 55 55 91Q44 127 50 179L80 420H30L42 520Q126 520 175 520.5Q224 521 251.5 523Q279 525 291.5 528Q304 531 314 535L332 525L284 137Q282 117 286 109.5Q290 102 298 102Q310 102 316 118.5Q322 135 328 175H405Q400 132 388 97.5Q376 63 354.5 39Q333 15 300.5 2.5Q268 -10 221 -10ZM376 -260Q337 -260 302 -252Q267 -244 241.5 -229Q216 -214 201 -191.5Q186 -169 186 -139Q186 -97 213.5 -67.5Q241 -38 295 -38Q340 -38 362 -60.5Q384 -83 384 -113Q384 -136 375.5 -152Q367 -168 354 -179Q357 -180 365 -180Q394 -180 404.5 -152.5Q415 -125 422 -72L481 420H421L434 520Q508 520 558.5 521Q609 522 642 523.5Q675 525 692.5 528Q710 531 718 535L734 525L670 0Q663 -61 644 -109.5Q625 -158 590.5 -191.5Q556 -225 503.5 -242.5Q451 -260 376 -260Z" glyph-name="iacute_jacute" horiz-adv-x="753" /><glyph d="M221 -10Q182 -10 148 0Q114 10 90 32.5Q66 55 55 91Q44 127 50 179L80 420H30L42 520Q126 520 175 520.5Q224 521 251.5 523Q279 525 291.5 528Q304 531 314 535L332 525L284 137Q282 117 286 109.5Q290 102 298 102Q310 102 316 118.5Q322 135 328 175H405Q400 132 388 97.5Q376 63 354.5 39Q333 15 300.5 2.5Q268 -10 221 -10ZM509 -260Q465 -260 428 -252Q391 -244 364.5 -229Q338 -214 323.5 -191.5Q309 -169 309 -139Q309 -97 336.5 -67.5Q364 -38 418 -38Q463 -38 485 -60.5Q507 -83 507 -113Q507 -135 498.5 -151Q490 -167 477 -178Q487 -180 497 -180Q534 -180 557.5 -152Q581 -124 581 -85Q581 -43 549 -21.5Q517 0 463 0L514 420H464L477 520Q548 520 596.5 521Q645 522 677 523.5Q709 525 726 528Q743 531 751 535L767 525L707 36Q730 16 739.5 -8.5Q749 -33 749 -60Q749 -98 736 -133.5Q723 -169 694 -197.5Q665 -226 619.5 -243Q574 -260 509 -260ZM520 621 576 691Q622 750 662.5 770Q703 790 748 790Q794 790 809.5 775Q825 760 825 740Q825 713 797 691.5Q769 670 700 650L596 621ZM94 621 150 691Q196 750 236.5 770Q277 790 322 790Q368 790 383.5 775Q399 760 399 740Q399 713 371 691.5Q343 670 274 650L170 621Z" glyph-name="iacute_jacute.alt" horiz-adv-x="790" /><glyph d="M577 593H504L562 641Q574 651 587 664Q600 677 616.5 688Q633 699 654 707Q675 715 702 715Q761 715 761 677Q761 623 678 608ZM227 593H154L212 641Q224 651 237 664Q250 677 266.5 688Q283 699 304 707Q325 715 352 715Q411 715 411 677Q411 623 328 608ZM22 247 33 341H79L93 456H48L59 550H390L379 456H333L319 341H364L353 247ZM670 265Q653 133 571 62.5Q489 -8 339 -8Q285 -8 237 1Q189 10 154 29.5Q119 49 101 79.5Q83 110 88 153Q92 188 122 211Q152 234 195 234Q238 234 262.5 210Q287 186 282 148Q280 125 271.5 113Q263 101 256 96Q261 94 269 93Q275 92 283.5 91Q292 90 303 90Q366 90 392.5 132Q419 174 428 246L454 456H410L421 550H751L739 456H694Z" glyph-name="iacute_jacute.alt.sc" horiz-adv-x="738" /><glyph d="M729 583H655L714 631Q726 641 739 654Q752 667 768.5 678Q785 689 806 697Q827 705 854 705Q913 705 913 667Q913 613 830 598ZM234 583H160L219 631Q231 641 244 654Q257 667 273.5 678Q290 689 311 697Q332 705 359 705Q418 705 418 667Q418 613 335 598ZM5 0 17 94H62L106 456H61L73 550H404L392 456H346L302 94H348L336 0ZM829 187Q818 87 752 39.5Q686 -8 564 -8Q473 -8 419 21.5Q365 51 365 112Q365 160 394 190.5Q423 221 474 221Q514 221 538 200Q562 179 562 143Q562 122 552.5 106.5Q543 91 532 83Q535 82 539 82Q546 80 551 80Q566 80 572.5 90.5Q579 101 581 121L623 456H578L590 550H919L908 456H863Z" glyph-name="iacute_jacute.sc" horiz-adv-x="907" /><glyph d="M-4 621 196 797H269L420 621H318L221 690L98 621ZM221 -10Q182 -10 148 0Q114 10 90 32.5Q66 55 55 91Q44 127 50 179L80 420H30L42 520Q126 520 175 520.5Q224 521 251.5 523Q279 525 291.5 528Q304 531 314 535L332 525L284 137Q282 117 286 109.5Q290 102 298 102Q310 102 316 118.5Q322 135 328 175H405Q400 132 388 97.5Q376 63 354.5 39Q333 15 300.5 2.5Q268 -10 221 -10Z" glyph-name="icircumflex" horiz-adv-x="405" unicode="&#238;" /><glyph d="M416 710Q416 664 385.5 635Q355 606 309 606Q271 606 247.5 628Q224 650 224 686Q224 732 254.5 761Q285 790 331 790Q369 790 392.5 768Q416 746 416 710ZM186 710Q186 664 155.5 635Q125 606 79 606Q41 606 17.5 628Q-6 650 -6 686Q-6 732 24.5 761Q55 790 101 790Q139 790 162.5 768Q186 746 186 710ZM221 -10Q182 -10 148 0Q114 10 90 32.5Q66 55 55 91Q44 127 50 179L80 420H30L42 520Q126 520 175 520.5Q224 521 251.5 523Q279 525 291.5 528Q304 531 314 535L332 525L284 137Q282 117 286 109.5Q290 102 298 102Q310 102 316 118.5Q322 135 328 175H405Q400 132 388 97.5Q376 63 354.5 39Q333 15 300.5 2.5Q268 -10 221 -10Z" glyph-name="idieresis" horiz-adv-x="405" unicode="&#239;" /><glyph d="M221 -10Q182 -10 148 0Q114 10 90 32.5Q66 55 55 91Q44 127 50 179L80 420H30L42 520Q126 520 175 520.5Q224 521 251.5 523Q279 525 291.5 528Q304 531 314 535L332 525L284 137Q282 117 286 109.5Q290 102 298 102Q310 102 316 118.5Q322 135 328 175H405Q400 132 388 97.5Q376 63 354.5 39Q333 15 300.5 2.5Q268 -10 221 -10ZM112 650Q79 660 58.5 670Q38 680 26.5 689.5Q15 699 11 708.5Q7 718 7 727Q7 752 32.5 771Q58 790 103 790Q148 790 178.5 774Q209 758 232 716L284 621H208Z" glyph-name="igrave" horiz-adv-x="405" unicode="&#236;" /></font>
</defs>
</svg>
