<?xml version="1.0" standalone="no"?><!DOCTYPE svg PUBLIC "-//W3C//DTD SVG 1.1//EN" "http://www.w3.org/Graphics/SVG/1.1/DTD/svg11.dtd" ><svg version="1.1" xmlns="http://www.w3.org/2000/svg"><defs><font horiz-adv-x="0" id="font"><font-face ascent="750" bbox="-182 -304 2772 1119" cap-height="690" descent="-250" font-family="KazimirText RBC" font-stretch="normal" font-style="normal" font-weight="900" units-per-em="1000" x-height="520" /><missing-glyph d="M74 650H737V0H74ZM94 20H717V630H94ZM406 316 287 197 264 220 383 338 267 454 289 476 405 360 524 479 546 457 428 338 548 218 526 196Z" horiz-adv-x="811" /><glyph glyph-name=".null" horiz-adv-x="0" /><glyph d="M280 555 205 286H354ZM5 0V100H50L213 690H488L650 100H694V0H359V100H405L379 196H180L154 100H189V0Z" glyph-name="A" horiz-adv-x="700" unicode="A" /><glyph d="M273 519 206 286H335ZM4 0V100H50L189 590H121V690H557V590H499L630 100H673V0H338V100H385L359 196H181L153 100H188V0Z" glyph-name="A.alt" horiz-adv-x="682" /><glyph d="M241 405 189 235H289ZM6 0V94H47L156 456H101V550H513V456H466L569 94H606V0H291V94H329L313 151H163L146 94H170V0Z" glyph-name="A.alt.sc" horiz-adv-x="617" /><glyph d="M245 436 185 235H304ZM4 0V94H45L179 550H452L587 94H624V0H310V94H346L329 151H160L143 94H178V0Z" glyph-name="A.sc" horiz-adv-x="631" /><glyph d="M374 590 239 286H381V590ZM195 0H-9V100H48L266 590H196V690H909V453H794V484Q794 514 790 534Q786 554 775 566.5Q764 579 744.5 584.5Q725 590 693 590H626V395L769 410V285L626 300V100H685Q747 100 774 123.5Q801 147 801 214V242H916V0H326V100H381V196H199L156 100H195Z" glyph-name="AE" horiz-adv-x="957" unicode="&#198;" /><glyph d="M272 519 205 286H334ZM3 0V100H49L188 590H120V690H881V453H766V484Q766 514 762 534Q758 554 747 566.5Q736 579 716.5 584.5Q697 590 665 590H498L550 395H656V465H731V230H656V300H575L629 100H657Q719 100 746 123.5Q773 147 773 214V242H888V0H337V100H384L358 196H180L152 100H187V0Z" glyph-name="AE.alt" horiz-adv-x="929" /><glyph d="M237 392 187 235H286ZM5 0V94H45L159 456H99V550H804V351H692V378Q692 398 689.5 413Q687 428 678 437.5Q669 447 653 451.5Q637 456 610 456H459L502 320H584V374H654V178H584V231H530L573 94H598Q649 94 673.5 110Q698 126 698 177V203H809V0H293V94H331L313 151H161L143 94H179V0Z" glyph-name="AE.alt.sc" horiz-adv-x="847" /><glyph d="M344 455 243 255H344ZM204 0H-1V94H54L237 456H173V550H832V351H721V378Q721 398 718 413Q715 428 706.5 437.5Q698 447 682 451.5Q666 456 639 456H584V320L703 329V223L584 231V94H626Q678 94 702.5 110Q727 126 727 177V203H838V0H298V94H344V171H201L162 94H204Z" glyph-name="AE.sc" horiz-adv-x="876" /><glyph d="M434 767Q487 781 505.5 797.5Q524 814 524 834Q524 856 508.5 873Q493 890 448 890Q423 890 402.5 883Q382 876 365.5 864.5Q349 853 336.5 838.5Q324 824 313 809L265 740H342ZM280 555 205 286H354ZM5 0V100H50L213 690H488L650 100H694V0H359V100H405L379 196H180L154 100H189V0Z" glyph-name="Aacute" horiz-adv-x="700" unicode="&#193;" /><glyph d="M433 767Q486 781 504.5 797.5Q523 814 523 834Q523 856 507.5 873Q492 890 447 890Q422 890 401.5 883Q381 876 364.5 864.5Q348 853 335.5 838.5Q323 824 312 809L264 740H341ZM273 519 206 286H335ZM4 0V100H50L189 590H121V690H557V590H499L630 100H673V0H338V100H385L359 196H181L153 100H188V0Z" glyph-name="Aacute.alt" horiz-adv-x="682" /><glyph d="M303 593H230L269 641Q279 653 291 666Q303 679 318.5 690Q334 701 354 708Q374 715 399 715Q442 715 456.5 700Q471 685 471 665Q471 648 453.5 633.5Q436 619 385 608ZM241 405 189 235H289ZM6 0V94H47L156 456H101V550H513V456H466L569 94H606V0H291V94H329L313 151H163L146 94H170V0Z" glyph-name="Aacute.alt.sc" horiz-adv-x="617" /><glyph d="M303 593H229L269 641Q278 653 290 666Q302 679 318 690Q334 701 353.5 708Q373 715 398 715Q441 715 455.5 700Q470 685 470 665Q470 648 452.5 633.5Q435 619 384 608ZM245 436 185 235H304ZM4 0V94H45L179 550H452L587 94H624V0H310V94H346L329 151H160L143 94H178V0Z" glyph-name="Aacute.sc" horiz-adv-x="631" /><glyph d="M280 555 205 286H354ZM5 0V100H50L213 690H488L650 100H694V0H359V100H405L379 196H180L154 100H189V0ZM114 740 277 876H393L551 740H409L333 787L251 740Z" glyph-name="Acircumflex" horiz-adv-x="700" unicode="&#194;" /><glyph d="M109 740 272 876H388L546 740H404L328 787L246 740ZM273 519 206 286H335ZM4 0V100H50L189 590H121V690H557V590H499L630 100H673V0H338V100H385L359 196H181L153 100H188V0Z" glyph-name="Acircumflex.alt" horiz-adv-x="682" /><glyph d="M100 593 250 703H365L510 593H369L305 629L236 593ZM241 405 189 235H289ZM6 0V94H47L156 456H101V550H513V456H466L569 94H606V0H291V94H329L313 151H163L146 94H170V0Z" glyph-name="Acircumflex.alt.sc" horiz-adv-x="617" /><glyph d="M99 593 249 703H364L509 593H368L305 629L235 593ZM245 436 185 235H304ZM4 0V94H45L179 550H452L587 94H624V0H310V94H346L329 151H160L143 94H178V0Z" glyph-name="Acircumflex.sc" horiz-adv-x="631" /><glyph d="M280 555 205 286H354ZM5 0V100H50L213 690H488L650 100H694V0H359V100H405L379 196H180L154 100H189V0ZM314 824Q314 787 290 765.5Q266 744 228 744Q191 744 167 765.5Q143 787 143 824Q143 861 167 884.5Q191 908 228 908Q266 908 290 884.5Q314 861 314 824ZM531 824Q531 787 507.5 765.5Q484 744 446 744Q409 744 385 765.5Q361 787 361 824Q361 861 385 884.5Q409 908 446 908Q484 908 507.5 884.5Q531 861 531 824Z" glyph-name="Adieresis" horiz-adv-x="700" unicode="&#196;" /><glyph d="M273 519 206 286H335ZM4 0V100H50L189 590H121V690H557V590H499L630 100H673V0H338V100H385L359 196H181L153 100H188V0ZM309 824Q309 787 285 765.5Q261 744 223 744Q186 744 162 765.5Q138 787 138 824Q138 861 162 884.5Q186 908 223 908Q261 908 285 884.5Q309 861 309 824ZM526 824Q526 787 502.5 765.5Q479 744 441 744Q404 744 380 765.5Q356 787 356 824Q356 861 380 884.5Q404 908 441 908Q479 908 502.5 884.5Q526 861 526 824Z" glyph-name="Adieresis.alt" horiz-adv-x="682" /><glyph d="M285 673Q285 638 262 620Q239 602 204 602Q170 602 146.5 620Q123 638 123 673Q123 708 146.5 727.5Q170 747 204 747Q239 747 262 727.5Q285 708 285 673ZM484 673Q484 638 461.5 620Q439 602 404 602Q370 602 346.5 620Q323 638 323 673Q323 708 346.5 727.5Q370 747 404 747Q439 747 461.5 727.5Q484 708 484 673ZM241 405 189 235H289ZM6 0V94H47L156 456H101V550H513V456H466L569 94H606V0H291V94H329L313 151H163L146 94H170V0Z" glyph-name="Adieresis.alt.sc" horiz-adv-x="617" /><glyph d="M291 673Q291 638 267.5 620Q244 602 209 602Q176 602 152.5 620Q129 638 129 673Q129 708 152.5 727.5Q176 747 209 747Q244 747 267.5 727.5Q291 708 291 673ZM490 673Q490 638 467 620Q444 602 409 602Q376 602 352.5 620Q329 638 329 673Q329 708 352.5 727.5Q376 747 409 747Q444 747 467 727.5Q490 708 490 673ZM245 436 185 235H304ZM4 0V94H45L179 550H452L587 94H624V0H310V94H346L329 151H160L143 94H178V0Z" glyph-name="Adieresis.sc" horiz-adv-x="631" /><glyph d="M280 555 205 286H354ZM5 0V100H50L213 690H488L650 100H694V0H359V100H405L379 196H180L154 100H189V0ZM253 767Q200 781 181.5 797.5Q163 814 163 834Q163 856 178.5 873Q194 890 239 890Q265 890 285 883Q305 876 321.5 864.5Q338 853 351 838.5Q364 824 374 809L422 740H345Z" glyph-name="Agrave" horiz-adv-x="700" unicode="&#192;" /><glyph d="M242 767Q189 781 170.5 797.5Q152 814 152 834Q152 856 167.5 873Q183 890 228 890Q254 890 274 883Q294 876 310.5 864.5Q327 853 340 838.5Q353 824 363 809L411 740H334ZM273 519 206 286H335ZM4 0V100H50L189 590H121V690H557V590H499L630 100H673V0H338V100H385L359 196H181L153 100H188V0Z" glyph-name="Agrave.alt" horiz-adv-x="682" /><glyph d="M220 608Q168 618 150.5 633Q133 648 133 665Q133 685 148 700Q163 715 205 715Q230 715 249.5 708.5Q269 702 284 691.5Q299 681 311.5 668Q324 655 335 641L374 593H301ZM241 405 189 235H289ZM6 0V94H47L156 456H101V550H513V456H466L569 94H606V0H291V94H329L313 151H163L146 94H170V0Z" glyph-name="Agrave.alt.sc" horiz-adv-x="617" /><glyph d="M230 608Q179 619 161 633.5Q143 648 143 665Q143 685 157.5 700Q172 715 215 715Q240 715 260 708Q280 701 296 690Q312 679 324 666Q336 653 345 641L384 593H311ZM245 436 185 235H304ZM4 0V94H45L179 550H452L587 94H624V0H310V94H346L329 151H160L143 94H178V0Z" glyph-name="Agrave.sc" horiz-adv-x="631" /><glyph d="M280 555 205 286H354ZM5 0V100H50L213 690H488L650 100H694V0H359V100H405L379 196H180L154 100H189V0ZM341 725Q285 725 254 755.5Q223 786 223 830Q223 873 254 904Q285 935 341 935Q397 935 428 904Q459 873 459 830Q459 786 428 755.5Q397 725 341 725ZM341 795Q358 795 367 805.5Q376 816 376 830Q376 844 367 854.5Q358 865 341 865Q324 865 315 854.5Q306 844 306 830Q306 816 315 805.5Q324 795 341 795Z" glyph-name="Aring" horiz-adv-x="700" unicode="&#197;" /><glyph d="M273 519 206 286H335ZM4 0V100H50L189 590H121V690H557V590H499L630 100H673V0H338V100H385L359 196H181L153 100H188V0ZM342 735Q286 735 255 765.5Q224 796 224 840Q224 883 255 914Q286 945 342 945Q398 945 429 914Q460 883 460 840Q460 796 429 765.5Q398 735 342 735ZM342 805Q359 805 368 815.5Q377 826 377 840Q377 854 368 864.5Q359 875 342 875Q325 875 316 864.5Q307 854 307 840Q307 826 316 815.5Q325 805 342 805Z" glyph-name="Aring.alt" horiz-adv-x="682" /><glyph d="M308 583Q255 583 226.5 609.5Q198 636 198 673Q198 708 226.5 735.5Q255 763 308 763Q361 763 389 735.5Q417 708 417 673Q417 636 389 609.5Q361 583 308 583ZM308 646Q322 646 330 654.5Q338 663 338 673Q338 682 330 690.5Q322 699 308 699Q293 699 285.5 690.5Q278 682 278 673Q278 663 285.5 654.5Q293 646 308 646ZM241 405 189 235H289ZM6 0V94H47L156 456H101V550H513V456H466L569 94H606V0H291V94H329L313 151H163L146 94H170V0Z" glyph-name="Aring.alt.sc" horiz-adv-x="617" /><glyph d="M313 582Q261 582 232.5 609Q204 636 204 672Q204 707 232.5 734.5Q261 762 313 762Q366 762 394.5 734.5Q423 707 423 672Q423 636 394.5 609Q366 582 313 582ZM313 645Q328 645 336 654Q344 663 344 672Q344 681 336 690Q328 699 313 699Q299 699 291 690Q283 681 283 672Q283 663 291 654Q299 645 313 645ZM245 436 185 235H304ZM4 0V94H45L179 550H452L587 94H624V0H310V94H346L329 151H160L143 94H178V0Z" glyph-name="Aring.sc" horiz-adv-x="631" /><glyph d="M280 555 205 286H354ZM5 0V100H50L213 690H488L650 100H694V0H359V100H405L379 196H180L154 100H189V0ZM278 782Q260 782 250 772Q240 762 240 747H175Q175 891 273 891Q294 891 312 885.5Q330 880 345 874Q360 868 373 862.5Q386 857 398 857Q417 857 426 866.5Q435 876 435 891H500Q500 855 496 828Q492 801 481 783.5Q470 766 451 757Q432 748 401 748Q382 748 364.5 753.5Q347 759 331.5 765Q316 771 303 776.5Q290 782 278 782Z" glyph-name="Atilde" horiz-adv-x="700" unicode="&#195;" /><glyph d="M282 782Q264 782 254 772Q244 762 244 747H179Q179 891 277 891Q298 891 316 885.5Q334 880 349 874Q364 868 377 862.5Q390 857 402 857Q421 857 430 866.5Q439 876 439 891H504Q504 855 500 828Q496 801 485 783.5Q474 766 455 757Q436 748 405 748Q386 748 368.5 753.5Q351 759 335.5 765Q320 771 307 776.5Q294 782 282 782ZM273 519 206 286H335ZM4 0V100H50L189 590H121V690H557V590H499L630 100H673V0H338V100H385L359 196H181L153 100H188V0Z" glyph-name="Atilde.alt" horiz-adv-x="682" /><glyph d="M255 621Q239 621 230 614.5Q221 608 221 598H149Q149 662 173.5 691.5Q198 721 249 721Q268 721 283.5 717.5Q299 714 312.5 710Q326 706 337.5 702.5Q349 699 360 699Q393 699 393 721H465Q465 690 461 667Q457 644 445.5 629Q434 614 414.5 606.5Q395 599 364 599Q330 599 302.5 610Q275 621 255 621ZM241 405 189 235H289ZM6 0V94H47L156 456H101V550H513V456H466L569 94H606V0H291V94H329L313 151H163L146 94H170V0Z" glyph-name="Atilde.alt.sc" horiz-adv-x="617" /><glyph d="M262 621Q246 621 237 614.5Q228 608 228 598H156Q156 662 183 691.5Q210 721 256 721Q275 721 290.5 717.5Q306 714 319.5 710Q333 706 344.5 702.5Q356 699 366 699Q400 699 400 721H472Q472 658 450 628.5Q428 599 371 599Q337 599 309.5 610Q282 621 262 621ZM245 436 185 235H304ZM4 0V94H45L179 550H452L587 94H624V0H310V94H346L329 151H160L143 94H178V0Z" glyph-name="Atilde.sc" horiz-adv-x="631" /><glyph d="M42 100H97V590H42V690H444Q497 690 545 680Q593 670 629 649Q665 628 686.5 596.5Q708 565 708 522Q708 456 660 412Q612 368 507 360Q554 355 594.5 343Q635 331 665 311Q695 291 712 262Q729 233 729 192Q729 102 662.5 51Q596 0 449 0H42ZM342 595V398H369Q386 398 404 403Q422 408 436.5 419Q451 430 460.5 448Q470 466 470 493Q470 523 460.5 542.5Q451 562 436.5 573.5Q422 585 403.5 590Q385 595 367 595ZM342 308V95H358Q382 95 405 100Q428 105 446 117Q464 129 474.5 150Q485 171 485 202Q485 232 475 252.5Q465 273 447.5 285Q430 297 407.5 302.5Q385 308 360 308Z" glyph-name="B" horiz-adv-x="757" unicode="B" /><glyph d="M38 94H83V456H38V550H416Q463 550 506 542Q549 534 582 518Q615 502 634.5 477Q654 452 654 418Q654 366 611 329Q568 292 467 287Q511 283 548.5 274Q586 265 613 249Q640 233 655.5 209.5Q671 186 671 153Q671 83 611 41.5Q551 0 418 0H38ZM323 461V324H340Q352 324 366.5 326.5Q381 329 393 336Q405 343 413.5 355.5Q422 368 422 389Q422 413 413.5 427.5Q405 442 392.5 449.5Q380 457 365 459Q350 461 336 461ZM323 239V89H344Q358 89 373.5 91.5Q389 94 402 101.5Q415 109 424 124Q433 139 433 164Q433 187 424.5 202Q416 217 402.5 225Q389 233 373.5 236Q358 239 344 239Z" glyph-name="B.sc" horiz-adv-x="694" /><glyph d="M467 40Q440 17 409.5 3.5Q379 -10 325 -10Q259 -10 204.5 16Q150 42 111 89Q72 136 50.5 201.5Q29 267 29 345Q29 424 50.5 489Q72 554 111 601Q150 648 204 674Q258 700 323 700Q378 700 413.5 686.5Q449 673 463 653L495 699H600V443H485Q482 476 476.5 503.5Q471 531 459.5 551.5Q448 572 430.5 583.5Q413 595 387 595Q334 595 306.5 534Q279 473 279 345Q279 210 307 152.5Q335 95 386 95Q413 95 432 108.5Q451 122 463 144.5Q475 167 481 195Q487 223 489 252H604V-10H499Z" glyph-name="C" horiz-adv-x="645" unicode="C" /><glyph d="M413 32Q402 24 390.5 17Q379 10 365 4.5Q351 -1 332.5 -4.5Q314 -8 288 -8Q231 -8 182.5 11.5Q134 31 98.5 68Q63 105 43.5 157Q24 209 24 275Q24 341 43.5 393Q63 445 98 482Q133 519 181.5 538.5Q230 558 287 558Q336 558 367.5 546.5Q399 535 410 521L437 557H540V346H429Q424 396 409 428Q394 460 352 460Q309 460 288.5 413Q268 366 268 275Q268 174 289 132Q310 90 350 90Q373 90 388 100Q403 110 412 126.5Q421 143 425.5 164.5Q430 186 432 208H544V-8H441Z" glyph-name="C.sc" horiz-adv-x="579" /><glyph d="M359 -218Q321 -218 292.5 -214Q264 -210 242 -200V-120Q263 -136 295 -136Q309 -136 317 -130Q325 -124 325 -111Q325 -94 309 -88Q293 -82 268 -82V-65L288 -8Q230 -1 182 28Q134 57 100 103Q66 149 47.5 210.5Q29 272 29 345Q29 424 50.5 489Q72 554 111 601Q150 648 204 674Q258 700 323 700Q378 700 413.5 686.5Q449 673 463 653L495 699H600V443H485Q482 476 476.5 503.5Q471 531 459.5 551.5Q448 572 430.5 583.5Q413 595 387 595Q334 595 306.5 534Q279 473 279 345Q279 210 307 152.5Q335 95 386 95Q413 95 432 108.5Q451 122 463 144.5Q475 167 481 195Q487 223 489 252H604V-10H499L467 40Q453 29 439.5 19.5Q426 10 409 4L395 -39Q437 -44 464.5 -65.5Q492 -87 492 -125Q492 -166 460 -192Q428 -218 359 -218Z" glyph-name="Ccedilla" horiz-adv-x="645" unicode="&#199;" /><glyph d="M322 -180Q286 -180 259.5 -176.5Q233 -173 212 -165V-91Q221 -97 232 -100.5Q243 -104 259 -104Q270 -104 277 -99.5Q284 -95 284 -85Q284 -72 269.5 -68.5Q255 -65 235 -65V-52L252 -6Q202 0 160 22Q118 44 88 80Q58 116 41 165.5Q24 215 24 275Q24 341 43.5 393Q63 445 98 482Q133 519 181.5 538.5Q230 558 287 558Q336 558 367.5 546.5Q399 535 410 521L437 557H540V346H429Q424 396 409 428Q394 460 352 460Q309 460 288.5 413Q268 366 268 275Q268 174 289 132Q310 90 350 90Q373 90 388 100Q403 110 412 126.5Q421 143 425.5 164.5Q430 186 432 208H544V-8H441L413 32Q403 25 393 18.5Q383 12 372 7L358 -31Q396 -35 421 -52.5Q446 -70 446 -102Q446 -134 416.5 -157Q387 -180 322 -180Z" glyph-name="Ccedilla.sc" horiz-adv-x="579" /><glyph d="M42 0V100H97V590H42V690H364Q466 690 538 661.5Q610 633 655 585.5Q700 538 720.5 476Q741 414 741 346Q741 279 720.5 216.5Q700 154 655 106Q610 58 538 29Q466 0 362 0ZM342 100H375Q398 100 419 113Q440 126 456 155Q472 184 481.5 231Q491 278 491 346Q491 414 481.5 461Q472 508 456 536.5Q440 565 419 577.5Q398 590 375 590H342Z" glyph-name="D" horiz-adv-x="770" unicode="D" /><glyph d="M38 0V94H83V456H38V550H333Q427 550 492.5 528Q558 506 598.5 468.5Q639 431 657.5 381.5Q676 332 676 276Q676 220 658 170Q640 120 599 82Q558 44 492 22Q426 0 331 0ZM323 94H347Q364 94 379.5 103.5Q395 113 406.5 134.5Q418 156 424.5 191Q431 226 431 276Q431 326 424.5 360.5Q418 395 406.5 416Q395 437 379.5 446.5Q364 456 347 456H323Z" glyph-name="D.sc" horiz-adv-x="700" /><glyph d="M42 100H97V590H42V690H625V453H510V484Q510 514 506 534Q502 554 491 566.5Q480 579 460.5 584.5Q441 590 409 590H342V395L485 410V285L342 300V100H401Q463 100 490 123.5Q517 147 517 214V242H632V0H42Z" glyph-name="E" horiz-adv-x="673" unicode="E" /><glyph d="M42 0V100H97V590H42V690H625V453H510V484Q510 514 506 534Q502 554 491 566.5Q480 579 460.5 584.5Q441 590 409 590H342V395H400V465H475V230H400V300H342V100H401Q463 100 490 123.5Q517 147 517 214V242H632V0Z" glyph-name="E.alt" horiz-adv-x="673" /><glyph d="M38 0V94H83V456H38V550H571V349H460V378Q460 398 457 413Q454 428 445.5 437.5Q437 447 421 451.5Q405 456 378 456H323V320H362V374H432V178H362V231H323V94H365Q417 94 441.5 110Q466 126 466 177V206H577V0Z" glyph-name="E.alt.sc" horiz-adv-x="616" /><glyph d="M38 94H83V456H38V550H571V351H460V378Q460 398 457 413Q454 428 445.5 437.5Q437 447 421 451.5Q405 456 378 456H323V320L442 329V223L323 231V94H365Q417 94 441.5 110Q466 126 466 177V203H577V0H38Z" glyph-name="E.sc" horiz-adv-x="615" /><glyph d="M42 100H97V590H42V690H625V453H510V484Q510 514 506 534Q502 554 491 566.5Q480 579 460.5 584.5Q441 590 409 590H342V395L485 410V285L342 300V100H401Q463 100 490 123.5Q517 147 517 214V242H632V0H42ZM436 767Q489 781 507.5 797.5Q526 814 526 834Q526 856 510.5 873Q495 890 450 890Q425 890 404.5 883Q384 876 367.5 864.5Q351 853 338.5 838.5Q326 824 315 809L267 740H344Z" glyph-name="Eacute" horiz-adv-x="673" unicode="&#201;" /><glyph d="M456 767Q509 781 527.5 797.5Q546 814 546 834Q546 856 530.5 873Q515 890 470 890Q445 890 424.5 883Q404 876 387.5 864.5Q371 853 358.5 838.5Q346 824 335 809L287 740H364ZM42 0V100H97V590H42V690H625V453H510V484Q510 514 506 534Q502 554 491 566.5Q480 579 460.5 584.5Q441 590 409 590H342V395H400V465H475V230H400V300H342V100H401Q463 100 490 123.5Q517 147 517 214V242H632V0Z" glyph-name="Eacute.alt" horiz-adv-x="673" /><glyph d="M330 593H257L296 641Q305 653 317.5 666Q330 679 345.5 690Q361 701 381 708Q401 715 426 715Q469 715 483.5 700Q498 685 498 665Q498 648 480.5 633.5Q463 619 412 608ZM38 0V94H83V456H38V550H571V349H460V378Q460 398 457 413Q454 428 445.5 437.5Q437 447 421 451.5Q405 456 378 456H323V320H362V374H432V178H362V231H323V94H365Q417 94 441.5 110Q466 126 466 177V206H577V0Z" glyph-name="Eacute.alt.sc" horiz-adv-x="616" /><glyph d="M311 593H238L277 641Q286 653 298.5 666Q311 679 326.5 690Q342 701 362 708Q382 715 407 715Q450 715 464.5 700Q479 685 479 665Q479 648 461 633.5Q443 619 392 608ZM38 94H83V456H38V550H571V351H460V378Q460 398 457 413Q454 428 445.5 437.5Q437 447 421 451.5Q405 456 378 456H323V320L442 329V223L323 231V94H365Q417 94 441.5 110Q466 126 466 177V203H577V0H38Z" glyph-name="Eacute.sc" horiz-adv-x="615" /><glyph d="M42 100H97V590H42V690H625V453H510V484Q510 514 506 534Q502 554 491 566.5Q480 579 460.5 584.5Q441 590 409 590H342V395L485 410V285L342 300V100H401Q463 100 490 123.5Q517 147 517 214V242H632V0H42ZM125 740 288 876H404L562 740H420L344 787L262 740Z" glyph-name="Ecircumflex" horiz-adv-x="673" unicode="&#202;" /><glyph d="M115 740 278 876H394L552 740H410L334 787L252 740ZM42 0V100H97V590H42V690H625V453H510V484Q510 514 506 534Q502 554 491 566.5Q480 579 460.5 584.5Q441 590 409 590H342V395H400V465H475V230H400V300H342V100H401Q463 100 490 123.5Q517 147 517 214V242H632V0Z" glyph-name="Ecircumflex.alt" horiz-adv-x="673" /><glyph d="M101 593 250 703H365L511 593H369L306 629L237 593ZM38 0V94H83V456H38V550H571V349H460V378Q460 398 457 413Q454 428 445.5 437.5Q437 447 421 451.5Q405 456 378 456H323V320H362V374H432V178H362V231H323V94H365Q417 94 441.5 110Q466 126 466 177V206H577V0Z" glyph-name="Ecircumflex.alt.sc" horiz-adv-x="616" /><glyph d="M104 593 253 703H368L513 593H372L309 629L240 593ZM38 94H83V456H38V550H571V351H460V378Q460 398 457 413Q454 428 445.5 437.5Q437 447 421 451.5Q405 456 378 456H323V320L442 329V223L323 231V94H365Q417 94 441.5 110Q466 126 466 177V203H577V0H38Z" glyph-name="Ecircumflex.sc" horiz-adv-x="615" /><glyph d="M42 100H97V590H42V690H625V453H510V484Q510 514 506 534Q502 554 491 566.5Q480 579 460.5 584.5Q441 590 409 590H342V395L485 410V285L342 300V100H401Q463 100 490 123.5Q517 147 517 214V242H632V0H42ZM318 824Q318 787 294 765.5Q270 744 232 744Q195 744 171 765.5Q147 787 147 824Q147 861 171 884.5Q195 908 232 908Q270 908 294 884.5Q318 861 318 824ZM535 824Q535 787 511.5 765.5Q488 744 450 744Q413 744 389 765.5Q365 787 365 824Q365 861 389 884.5Q413 908 450 908Q488 908 511.5 884.5Q535 861 535 824Z" glyph-name="Edieresis" horiz-adv-x="673" unicode="&#203;" /><glyph d="M318 824Q318 787 294 765.5Q270 744 232 744Q195 744 171 765.5Q147 787 147 824Q147 861 171 884.5Q195 908 232 908Q270 908 294 884.5Q318 861 318 824ZM535 824Q535 787 511.5 765.5Q488 744 450 744Q413 744 389 765.5Q365 787 365 824Q365 861 389 884.5Q413 908 450 908Q488 908 511.5 884.5Q535 861 535 824ZM42 0V100H97V590H42V690H625V453H510V484Q510 514 506 534Q502 554 491 566.5Q480 579 460.5 584.5Q441 590 409 590H342V395H400V465H475V230H400V300H342V100H401Q463 100 490 123.5Q517 147 517 214V242H632V0Z" glyph-name="Edieresis.alt" horiz-adv-x="673" /><glyph d="M290 673Q290 638 266.5 620Q243 602 208 602Q175 602 151.5 620Q128 638 128 673Q128 708 151.5 727.5Q175 747 208 747Q243 747 266.5 727.5Q290 708 290 673ZM489 673Q489 638 466 620Q443 602 408 602Q375 602 351.5 620Q328 638 328 673Q328 708 351.5 727.5Q375 747 408 747Q443 747 466 727.5Q489 708 489 673ZM38 0V94H83V456H38V550H571V349H460V378Q460 398 457 413Q454 428 445.5 437.5Q437 447 421 451.5Q405 456 378 456H323V320H362V374H432V178H362V231H323V94H365Q417 94 441.5 110Q466 126 466 177V206H577V0Z" glyph-name="Edieresis.alt.sc" horiz-adv-x="616" /><glyph d="M489 673Q489 638 466 620Q443 602 408 602Q375 602 351.5 620Q328 638 328 673Q328 708 351.5 727.5Q375 747 408 747Q443 747 466 727.5Q489 708 489 673ZM290 673Q290 638 266.5 620Q243 602 208 602Q175 602 151.5 620Q128 638 128 673Q128 708 151.5 727.5Q175 747 208 747Q243 747 266.5 727.5Q290 708 290 673ZM38 94H83V456H38V550H571V351H460V378Q460 398 457 413Q454 428 445.5 437.5Q437 447 421 451.5Q405 456 378 456H323V320L442 329V223L323 231V94H365Q417 94 441.5 110Q466 126 466 177V203H577V0H38Z" glyph-name="Edieresis.sc" horiz-adv-x="615" /><glyph d="M42 100H97V590H42V690H625V453H510V484Q510 514 506 534Q502 554 491 566.5Q480 579 460.5 584.5Q441 590 409 590H342V395L485 410V285L342 300V100H401Q463 100 490 123.5Q517 147 517 214V242H632V0H42ZM258 767Q205 781 186.5 797.5Q168 814 168 834Q168 856 183.5 873Q199 890 244 890Q270 890 290 883Q310 876 326.5 864.5Q343 853 356 838.5Q369 824 379 809L427 740H350Z" glyph-name="Egrave" horiz-adv-x="673" unicode="&#200;" /><glyph d="M42 0V100H97V590H42V690H625V453H510V484Q510 514 506 534Q502 554 491 566.5Q480 579 460.5 584.5Q441 590 409 590H342V395H400V465H475V230H400V300H342V100H401Q463 100 490 123.5Q517 147 517 214V242H632V0ZM268 767Q215 781 196.5 797.5Q178 814 178 834Q178 856 193.5 873Q209 890 254 890Q280 890 300 883Q320 876 336.5 864.5Q353 853 366 838.5Q379 824 389 809L437 740H360Z" glyph-name="Egrave.alt" horiz-adv-x="673" /><glyph d="M247 598Q196 609 178 623.5Q160 638 160 655Q160 675 174.5 690Q189 705 232 705Q257 705 277 698Q297 691 313 680Q329 669 341 656Q353 643 362 631L401 583H328ZM38 0V94H83V456H38V550H571V349H460V378Q460 398 457 413Q454 428 445.5 437.5Q437 447 421 451.5Q405 456 378 456H323V320H362V374H432V178H362V231H323V94H365Q417 94 441.5 110Q466 126 466 177V206H577V0Z" glyph-name="Egrave.alt.sc" horiz-adv-x="616" /><glyph d="M236 608Q185 619 167.5 633.5Q150 648 150 665Q150 685 164.5 700Q179 715 222 715Q247 715 267 708Q287 701 302.5 690Q318 679 330 666Q342 653 352 641L391 593H318ZM38 94H83V456H38V550H571V351H460V378Q460 398 457 413Q454 428 445.5 437.5Q437 447 421 451.5Q405 456 378 456H323V320L442 329V223L323 231V94H365Q417 94 441.5 110Q466 126 466 177V203H577V0H38Z" glyph-name="Egrave.sc" horiz-adv-x="615" /><glyph d="M42 0V100H97V302H42V402H97V590H42V690H364Q466 690 538 661.5Q610 633 655 585.5Q700 538 720.5 476Q741 414 741 346Q741 279 720.5 216.5Q700 154 655 106Q610 58 538 29Q466 0 362 0ZM375 100Q398 100 419 113Q440 126 456 155Q472 184 481.5 231Q491 278 491 346Q491 414 481.5 461Q472 508 456 536.5Q440 565 419 577.5Q398 590 375 590H342V402H406V302H342V100Z" glyph-name="Eth" horiz-adv-x="770" unicode="&#208;" /><glyph d="M39 0V94H84V233H40V328H84V456H39V550H334Q428 550 493.5 528Q559 506 599.5 468.5Q640 431 658.5 381.5Q677 332 677 276Q677 220 659 170Q641 120 600 82Q559 44 493 22Q427 0 332 0ZM348 94Q365 94 380.5 103.5Q396 113 407.5 134.5Q419 156 425.5 191Q432 226 432 276Q432 326 425.5 360.5Q419 395 407.5 416Q396 437 380.5 446.5Q365 456 348 456H324V328H365V233H324V94Z" glyph-name="Eth.sc" horiz-adv-x="701" /><glyph d="M42 0V100H97V590H42V690H615V453H500V484Q500 514 496 534Q492 554 481 566.5Q470 579 450.5 584.5Q431 590 399 590H342V391L485 406V281L342 296V100H421V0Z" glyph-name="F" horiz-adv-x="631" unicode="F" /><glyph d="M42 0V100H97V590H42V690H615V453H500V484Q500 514 496 534Q492 554 481 566.5Q470 579 450.5 584.5Q431 590 399 590H342V391H400V465H475V230H400V296H342V100H421V0Z" glyph-name="F.alt" horiz-adv-x="631" /><glyph d="M38 0V94H83V456H38V550H571V349H460V378Q460 398 457 413Q454 428 445.5 437.5Q437 447 420.5 451.5Q404 456 377 456H323V316H362V374H432V178H362V227H323V94H388V0Z" glyph-name="F.alt.sc" horiz-adv-x="585" /><glyph d="M38 0V94H83V456H38V550H562V351H451V378Q451 398 448.5 413Q446 428 437 437.5Q428 447 412 451.5Q396 456 369 456H323V316L442 324V218L323 227V94H388V0Z" glyph-name="F.sc" horiz-adv-x="576" /><glyph d="M502 37Q482 20 445 5Q408 -10 343 -10Q266 -10 207.5 19Q149 48 109 96.5Q69 145 49 209.5Q29 274 29 345Q29 416 51 480.5Q73 545 112.5 594Q152 643 208 671.5Q264 700 333 700Q386 700 419.5 686Q453 672 473 653L505 699H610V443H495Q490 516 466.5 555.5Q443 595 397 595Q341 595 310 532Q279 469 279 345Q279 274 287 226Q295 178 309.5 149Q324 120 343.5 107.5Q363 95 386 95Q399 95 410 96Q421 97 429 102V242H369V342H654V242H614V-10H539Z" glyph-name="G" horiz-adv-x="679" unicode="G" /><glyph d="M447 32Q430 20 397.5 6Q365 -8 302 -8Q235 -8 183 15Q131 38 96 77Q61 116 42.5 167Q24 218 24 275Q24 332 43.5 383.5Q63 435 99 474Q135 513 185 535.5Q235 558 296 558Q346 558 374.5 545Q403 532 418 521L446 557H548V349H437Q434 406 415 433Q396 460 361 460Q315 460 291.5 411.5Q268 363 268 275Q268 220 274 184.5Q280 149 291.5 128Q303 107 319.5 98.5Q336 90 357 90Q364 90 370.5 90.5Q377 91 384 94V166H346V260H583V166H552V-8H480Z" glyph-name="G.sc" horiz-adv-x="606" /><glyph d="M42 100H97V590H42V690H387V590H342V402H492V590H447V690H792V590H737V100H792V0H447V100H492V302H342V100H387V0H42Z" glyph-name="H" horiz-adv-x="834" unicode="H" /><glyph d="M38 94H83V456H38V550H358V456H323V328H432V456H397V550H717V456H672V94H717V0H397V94H432V233H323V94H358V0H38Z" glyph-name="H.sc" horiz-adv-x="755" /><glyph d="M42 0V100H97V590H42V690H397V590H342V100H397V0Z" glyph-name="I" horiz-adv-x="439" unicode="I" /><glyph d="M38 0V94H83V456H38V550H369V456H323V94H369V0Z" glyph-name="I.sc" horiz-adv-x="406" /><glyph d="M307 767Q360 781 378.5 797.5Q397 814 397 834Q397 856 381.5 873Q366 890 321 890Q296 890 275.5 883Q255 876 238.5 864.5Q222 853 209.5 838.5Q197 824 186 809L138 740H215ZM42 0V100H97V590H42V690H397V590H342V100H397V0Z" glyph-name="Iacute" horiz-adv-x="439" unicode="&#205;" /><glyph d="M197 593H124L163 641Q172 653 184.5 666Q197 679 212.5 690Q228 701 248 708Q268 715 293 715Q336 715 350.5 700Q365 685 365 665Q365 648 347.5 633.5Q330 619 279 608ZM38 0V94H83V456H38V550H369V456H323V94H369V0Z" glyph-name="Iacute.sc" horiz-adv-x="406" /><glyph d="M320 767Q373 781 391.5 797.5Q410 814 410 834Q410 856 394.5 873Q379 890 334 890Q309 890 288.5 883Q268 876 251.5 864.5Q235 853 222.5 838.5Q210 824 199 809L151 740H228ZM840 767Q893 781 911.5 797.5Q930 814 930 834Q930 856 914.5 873Q899 890 854 890Q829 890 808.5 883Q788 876 771.5 864.5Q755 853 742.5 838.5Q730 824 719 809L671 740H748ZM42 0V100H97V590H42V690H397V590H342V100H397V0ZM886 233Q886 103 823 46.5Q760 -10 636 -10Q590 -10 551 0.5Q512 11 483 31Q454 51 437.5 81Q421 111 421 151Q421 200 449.5 227.5Q478 255 523 255Q568 255 595 229Q622 203 622 164Q622 135 612 118Q602 101 593 94Q595 91 600.5 88Q606 85 615 85Q632 85 636.5 94Q641 103 641 123V590H586V690H941V590H886Z" glyph-name="Iacute_Jacute" horiz-adv-x="970" /><glyph d="M693 593H620L659 641Q668 653 680.5 666Q693 679 708.5 690Q724 701 744 708Q764 715 789 715Q832 715 846.5 700.5Q861 686 861 671Q861 660 857 650.5Q853 641 841.5 633Q830 625 808.5 617.5Q787 610 752 604ZM218 593H144L183 641Q193 653 205 666Q217 679 233 690Q249 701 268.5 708Q288 715 313 715Q356 715 370.5 702.5Q385 690 385 670Q385 661 381.5 652.5Q378 644 367.5 635.5Q357 627 336.5 619Q316 611 282 605ZM38 0V94H83V456H38V550H369V456H323V94H369V0ZM823 200Q823 86 766.5 39Q710 -8 599 -8Q497 -8 436 25Q375 58 375 127Q375 172 401.5 196.5Q428 221 471 221Q513 221 537 198.5Q561 176 561 132Q561 104 553 91Q557 89 564 89Q576 89 579.5 98.5Q583 108 583 127V456H539V550H868V456H823Z" glyph-name="Iacute_Jacute.sc" horiz-adv-x="894" /><glyph d="M42 0V100H97V590H42V690H397V590H342V100H397V0ZM-4 740 159 876H275L433 740H291L215 787L133 740Z" glyph-name="Icircumflex" horiz-adv-x="439" unicode="&#206;" /><glyph d="M-2 593 148 703H263L408 593H267L203 629L134 593ZM38 0V94H83V456H38V550H369V456H323V94H369V0Z" glyph-name="Icircumflex.sc" horiz-adv-x="406" /><glyph d="M196 824Q196 787 172 765.5Q148 744 110 744Q73 744 49 765.5Q25 787 25 824Q25 861 49 884.5Q73 908 110 908Q148 908 172 884.5Q196 861 196 824ZM413 824Q413 787 389.5 765.5Q366 744 328 744Q291 744 267 765.5Q243 787 243 824Q243 861 267 884.5Q291 908 328 908Q366 908 389.5 884.5Q413 861 413 824ZM42 0V100H97V590H42V690H397V590H342V100H397V0Z" glyph-name="Idieresis" horiz-adv-x="439" unicode="&#207;" /><glyph d="M189 673Q189 638 166 620Q143 602 108 602Q74 602 50.5 620Q27 638 27 673Q27 708 50.5 727.5Q74 747 108 747Q143 747 166 727.5Q189 708 189 673ZM378 673Q378 638 355.5 620Q333 602 298 602Q264 602 240.5 620Q217 638 217 673Q217 708 240.5 727.5Q264 747 298 747Q333 747 355.5 727.5Q378 708 378 673ZM38 0V94H83V456H38V550H369V456H323V94H369V0Z" glyph-name="Idieresis.sc" horiz-adv-x="406" /><glyph d="M42 0V100H97V590H42V690H397V590H342V100H397V0ZM137 767Q84 781 65.5 797.5Q47 814 47 834Q47 856 62.5 873Q78 890 123 890Q149 890 169 883Q189 876 205.5 864.5Q222 853 235 838.5Q248 824 258 809L306 740H229Z" glyph-name="Igrave" horiz-adv-x="439" unicode="&#204;" /><glyph d="M133 608Q82 619 64 633.5Q46 648 46 665Q46 685 60.5 700Q75 715 118 715Q143 715 163 708Q183 701 199 690Q215 679 227 666Q239 653 248 641L287 593H214ZM38 0V94H83V456H38V550H369V456H323V94H369V0Z" glyph-name="Igrave.sc" horiz-adv-x="406" /><glyph d="M498 247Q498 112 433.5 51Q369 -10 233 -10Q181 -10 138 1Q95 12 64.5 33Q34 54 17 84Q0 114 0 151Q0 200 28.5 227.5Q57 255 104 255Q150 255 177 229Q204 203 204 164Q204 137 192.5 120Q181 103 167 95Q172 90 182.5 87.5Q193 85 203 85Q230 85 241.5 102.5Q253 120 253 152V590H198V690H553V590H498Z" glyph-name="J" horiz-adv-x="582" unicode="J" /><glyph d="M467 187Q467 82 408.5 37Q350 -8 234 -8Q185 -8 142.5 0Q100 8 68.5 25Q37 42 18.5 67.5Q0 93 0 127Q0 172 27 196.5Q54 221 97 221Q141 221 168 200.5Q195 180 195 138Q195 118 190.5 106.5Q186 95 179 89Q183 87 191 87Q213 87 220 99.5Q227 112 227 137V456H182V550H512V456H467Z" glyph-name="J.sc" horiz-adv-x="538" /><glyph d="M42 0V100H97V590H42V690H382V590H342V377L548 590H490V690H758V590H685L542 443L759 100H792V0H450V100H493L380 278L342 238V100H382V0Z" glyph-name="K" horiz-adv-x="793" unicode="K" /><glyph d="M342 355 618 590H342ZM42 0V100H97V590H42V690H764V590L565 421L759 100H792V0H450V100H493L386 268L342 230V100H382V0Z" glyph-name="K.alt" horiz-adv-x="799" /><glyph d="M323 296 536 456H323ZM38 0V94H83V456H38V550H697V456L537 340L697 94H724V0H402V94H434L356 209L323 185V94H353V0Z" glyph-name="K.alt.sc" horiz-adv-x="730" /><glyph d="M38 0V94H83V456H38V550H353V456H323V304L489 456H447V550H695V456H627L510 351L697 94H728V0H403V94H432L349 207L323 184V94H353V0Z" glyph-name="K.sc" horiz-adv-x="731" /><glyph d="M42 100H97V590H42V690H404V590H342V100H421Q437 100 451.5 105Q466 110 477.5 124Q489 138 496 162Q503 186 503 224V252H618V0H42Z" glyph-name="L" horiz-adv-x="637" unicode="L" /><glyph d="M38 94H83V456H38V550H375V456H323V94H388Q398 94 409.5 97.5Q421 101 431 111Q441 121 447.5 139.5Q454 158 454 188V214H565V0H38Z" glyph-name="L.sc" horiz-adv-x="582" /><glyph d="M257 0H42V100H97V590H42V690H379L464 407L550 690H894V590H839V100H894V0H544V100H597V533L462 91H340L207 534V100H257Z" glyph-name="M" horiz-adv-x="936" unicode="M" /><glyph d="M257 0H42V100H97V590H42V690H406V590H357L464 366L575 590H534V690H894V590H839V100H894V0H544V100H597V383L462 91H343L207 383V100H257Z" glyph-name="M.alt" horiz-adv-x="936" /><glyph d="M228 0H38V94H83V456H38V550H375V456H336L420 317L501 456H471V550H805V456H759V94H805V0H479V94H519V272L403 73H305L188 267V94H228Z" glyph-name="M.alt.sc" horiz-adv-x="842" /><glyph d="M228 0H38V94H83V456H38V550H357L417 370L477 550H805V456H759V94H805V0H479V94H519V394L413 73H295L188 395V94H228Z" glyph-name="M.sc" horiz-adv-x="842" /><glyph d="M262 0H42V100H97V590H42V690H234L527 341V590H472V690H692V590H637V-5H527L207 375V100H262Z" glyph-name="N" horiz-adv-x="723" unicode="N" /><glyph d="M262 0H42V100H97V590H42V690H234L517 437V590H462V690H682V590H627V100H682V0H462V100H517V142L207 415V100H262Z" glyph-name="N.alt" horiz-adv-x="724" /><glyph d="M233 0H38V94H83V456H38V550H212L457 376V456H412V550H608V456H562V94H608V0H412V94H457V109L188 297V94H233Z" glyph-name="N.alt.sc" horiz-adv-x="645" /><glyph d="M233 0H38V94H83V456H38V550H212L468 298V456H422V550H618V456H572V-4H466L188 271V94H233Z" glyph-name="N.sc" horiz-adv-x="646" /><glyph d="M262 0H42V100H97V590H42V690H234L527 341V590H472V690H692V590H637V-5H527L207 375V100H262ZM319 782Q301 782 291 772Q281 762 281 747H216Q216 891 314 891Q335 891 353 885.5Q371 880 386 874Q401 868 414 862.5Q427 857 439 857Q458 857 467 866.5Q476 876 476 891H541Q541 855 537 828Q533 801 522 783.5Q511 766 492 757Q473 748 442 748Q423 748 405.5 753.5Q388 759 372.5 765Q357 771 344 776.5Q331 782 319 782Z" glyph-name="Ntilde" horiz-adv-x="723" unicode="&#209;" /><glyph d="M453 734Q429 734 407 742.5Q385 751 365.5 761.5Q346 772 329 780.5Q312 789 298 789Q278 789 270 776Q262 763 262 738H183Q183 816 208 858.5Q233 901 296 901Q321 901 343.5 892.5Q366 884 385.5 873.5Q405 863 422 854.5Q439 846 454 846Q487 846 487 897H566Q566 858 561.5 828Q557 798 545 777Q533 756 511 745Q489 734 453 734ZM262 0H42V100H97V590H42V690H234L517 437V590H462V690H682V590H627V100H682V0H462V100H517V142L207 415V100H262Z" glyph-name="Ntilde.alt" horiz-adv-x="724" /><glyph d="M257 621Q241 621 232 614.5Q223 608 223 598H151Q151 662 175.5 691.5Q200 721 251 721Q270 721 285.5 717.5Q301 714 314.5 710Q328 706 339.5 702.5Q351 699 362 699Q395 699 395 721H467Q467 690 463 667Q459 644 447.5 629Q436 614 416.5 606.5Q397 599 366 599Q332 599 304.5 610Q277 621 257 621ZM233 0H38V94H83V456H38V550H212L457 376V456H412V550H608V456H562V94H608V0H412V94H457V109L188 297V94H233Z" glyph-name="Ntilde.alt.sc" horiz-adv-x="645" /><glyph d="M287 621Q272 621 262.5 614.5Q253 608 253 598H181Q181 662 208.5 691.5Q236 721 281 721Q300 721 315.5 717.5Q331 714 344.5 710Q358 706 369.5 702.5Q381 699 392 699Q425 699 425 721H497Q497 658 475 628.5Q453 599 396 599Q362 599 334.5 610Q307 621 287 621ZM233 0H38V94H83V456H38V550H212L468 298V456H422V550H618V456H572V-4H466L188 271V94H233Z" glyph-name="Ntilde.sc" horiz-adv-x="646" /><glyph d="M700 345Q700 281 680.5 217Q661 153 620 103Q579 53 515.5 21.5Q452 -10 364 -10Q277 -10 213.5 21.5Q150 53 108.5 103Q67 153 47.5 217Q28 281 28 345Q28 410 47.5 473.5Q67 537 108.5 587Q150 637 213.5 668.5Q277 700 364 700Q452 700 515.5 668.5Q579 637 620 587Q661 537 680.5 473.5Q700 410 700 345ZM278 345Q278 217 297.5 156Q317 95 364 95Q410 95 430 156Q450 217 450 345Q450 473 430 534Q410 595 364 595Q317 595 297.5 534Q278 473 278 345Z" glyph-name="O" horiz-adv-x="728" unicode="O" /><glyph d="M633 275Q633 224 615.5 173Q598 122 561 82Q524 42 466 17Q408 -8 328 -8Q249 -8 191.5 17Q134 42 96.5 82Q59 122 41 173Q23 224 23 275Q23 326 41 377Q59 428 96.5 468Q134 508 191.5 533Q249 558 328 558Q408 558 466 533Q524 508 561 468Q598 428 615.5 377Q633 326 633 275ZM268 275Q268 183 279.5 136.5Q291 90 328 90Q365 90 376.5 136.5Q388 183 388 275Q388 366 376.5 413Q365 460 328 460Q291 460 279.5 413Q268 366 268 275Z" glyph-name="O.sc" horiz-adv-x="656" /><glyph d="M700 345Q700 281 680.5 217Q661 153 620 103Q579 53 515.5 21.5Q452 -10 364 -10Q277 -10 213.5 21.5Q150 53 108.5 103Q67 153 47.5 217Q28 281 28 345Q28 410 47.5 473.5Q67 537 108.5 587Q150 637 213.5 668.5Q277 700 364 700Q452 700 515.5 668.5Q579 637 620 587Q661 537 680.5 473.5Q700 410 700 345ZM278 345Q278 217 297.5 156Q317 95 364 95Q410 95 430 156Q450 217 450 345Q450 473 430 534Q410 595 364 595Q317 595 297.5 534Q278 473 278 345ZM472 767Q525 781 543.5 797.5Q562 814 562 834Q562 856 546.5 873Q531 890 486 890Q461 890 440.5 883Q420 876 403.5 864.5Q387 853 374.5 838.5Q362 824 351 809L303 740H380Z" glyph-name="Oacute" horiz-adv-x="728" unicode="&#211;" /><glyph d="M700 345Q700 281 680.5 217Q661 153 620 103Q579 53 515.5 21.5Q452 -10 364 -10Q277 -10 213.5 21.5Q150 53 108.5 103Q67 153 47.5 217Q28 281 28 345Q28 410 47.5 473.5Q67 537 108.5 587Q150 637 213.5 668.5Q277 700 364 700Q452 700 515.5 668.5Q579 637 620 587Q661 537 680.5 473.5Q700 410 700 345ZM278 345Q278 217 297.5 156Q317 95 364 95Q410 95 430 156Q450 217 450 345Q450 473 430 534Q410 595 364 595Q317 595 297.5 534Q278 473 278 345ZM327 740 344 819Q355 864 374.5 887.5Q394 911 432 911Q467 911 483.5 896Q500 881 500 859Q500 835 486 812Q472 789 448 771L406 740Z" glyph-name="Oacute.pl" horiz-adv-x="728" /><glyph d="M291 593 301 636Q314 691 334.5 711Q355 731 391 731Q425 731 439 718Q453 705 453 685Q453 660 433.5 641Q414 622 388 606L366 593ZM633 275Q633 224 615.5 173Q598 122 561 82Q524 42 466 17Q408 -8 328 -8Q249 -8 191.5 17Q134 42 96.5 82Q59 122 41 173Q23 224 23 275Q23 326 41 377Q59 428 96.5 468Q134 508 191.5 533Q249 558 328 558Q408 558 466 533Q524 508 561 468Q598 428 615.5 377Q633 326 633 275ZM268 275Q268 183 279.5 136.5Q291 90 328 90Q365 90 376.5 136.5Q388 183 388 275Q388 366 376.5 413Q365 460 328 460Q291 460 279.5 413Q268 366 268 275Z" glyph-name="Oacute.pl.sc" horiz-adv-x="656" /><glyph d="M336 593H263L302 641Q311 653 323.5 666Q336 679 351.5 690Q367 701 387 708Q407 715 432 715Q475 715 489.5 700Q504 685 504 665Q504 648 486 633.5Q468 619 417 608ZM633 275Q633 224 615.5 173Q598 122 561 82Q524 42 466 17Q408 -8 328 -8Q249 -8 191.5 17Q134 42 96.5 82Q59 122 41 173Q23 224 23 275Q23 326 41 377Q59 428 96.5 468Q134 508 191.5 533Q249 558 328 558Q408 558 466 533Q524 508 561 468Q598 428 615.5 377Q633 326 633 275ZM268 275Q268 183 279.5 136.5Q291 90 328 90Q365 90 376.5 136.5Q388 183 388 275Q388 366 376.5 413Q365 460 328 460Q291 460 279.5 413Q268 366 268 275Z" glyph-name="Oacute.sc" horiz-adv-x="656" /><glyph d="M700 345Q700 281 680.5 217Q661 153 620 103Q579 53 515.5 21.5Q452 -10 364 -10Q277 -10 213.5 21.5Q150 53 108.5 103Q67 153 47.5 217Q28 281 28 345Q28 410 47.5 473.5Q67 537 108.5 587Q150 637 213.5 668.5Q277 700 364 700Q452 700 515.5 668.5Q579 637 620 587Q661 537 680.5 473.5Q700 410 700 345ZM278 345Q278 217 297.5 156Q317 95 364 95Q410 95 430 156Q450 217 450 345Q450 473 430 534Q410 595 364 595Q317 595 297.5 534Q278 473 278 345ZM143 740 306 876H422L580 740H438L362 787L280 740Z" glyph-name="Ocircumflex" horiz-adv-x="728" unicode="&#212;" /><glyph d="M121 593 271 703H386L531 593H390L326 629L257 593ZM633 275Q633 224 615.5 173Q598 122 561 82Q524 42 466 17Q408 -8 328 -8Q249 -8 191.5 17Q134 42 96.5 82Q59 122 41 173Q23 224 23 275Q23 326 41 377Q59 428 96.5 468Q134 508 191.5 533Q249 558 328 558Q408 558 466 533Q524 508 561 468Q598 428 615.5 377Q633 326 633 275ZM268 275Q268 183 279.5 136.5Q291 90 328 90Q365 90 376.5 136.5Q388 183 388 275Q388 366 376.5 413Q365 460 328 460Q291 460 279.5 413Q268 366 268 275Z" glyph-name="Ocircumflex.sc" horiz-adv-x="656" /><glyph d="M700 345Q700 281 680.5 217Q661 153 620 103Q579 53 515.5 21.5Q452 -10 364 -10Q277 -10 213.5 21.5Q150 53 108.5 103Q67 153 47.5 217Q28 281 28 345Q28 410 47.5 473.5Q67 537 108.5 587Q150 637 213.5 668.5Q277 700 364 700Q452 700 515.5 668.5Q579 637 620 587Q661 537 680.5 473.5Q700 410 700 345ZM278 345Q278 217 297.5 156Q317 95 364 95Q410 95 430 156Q450 217 450 345Q450 473 430 534Q410 595 364 595Q317 595 297.5 534Q278 473 278 345ZM341 824Q341 787 317 765.5Q293 744 255 744Q218 744 194 765.5Q170 787 170 824Q170 861 194 884.5Q218 908 255 908Q293 908 317 884.5Q341 861 341 824ZM558 824Q558 787 534.5 765.5Q511 744 473 744Q436 744 412 765.5Q388 787 388 824Q388 861 412 884.5Q436 908 473 908Q511 908 534.5 884.5Q558 861 558 824Z" glyph-name="Odieresis" horiz-adv-x="728" unicode="&#214;" /><glyph d="M310 673Q310 638 287 620Q264 602 229 602Q196 602 172.5 620Q149 638 149 673Q149 708 172.5 727.5Q196 747 229 747Q264 747 287 727.5Q310 708 310 673ZM509 673Q509 638 486.5 620Q464 602 429 602Q396 602 372.5 620Q349 638 349 673Q349 708 372.5 727.5Q396 747 429 747Q464 747 486.5 727.5Q509 708 509 673ZM633 275Q633 224 615.5 173Q598 122 561 82Q524 42 466 17Q408 -8 328 -8Q249 -8 191.5 17Q134 42 96.5 82Q59 122 41 173Q23 224 23 275Q23 326 41 377Q59 428 96.5 468Q134 508 191.5 533Q249 558 328 558Q408 558 466 533Q524 508 561 468Q598 428 615.5 377Q633 326 633 275ZM268 275Q268 183 279.5 136.5Q291 90 328 90Q365 90 376.5 136.5Q388 183 388 275Q388 366 376.5 413Q365 460 328 460Q291 460 279.5 413Q268 366 268 275Z" glyph-name="Odieresis.sc" horiz-adv-x="656" /><glyph d="M700 345Q700 281 680.5 217Q661 153 620 103Q579 53 515.5 21.5Q452 -10 364 -10Q277 -10 213.5 21.5Q150 53 108.5 103Q67 153 47.5 217Q28 281 28 345Q28 410 47.5 473.5Q67 537 108.5 587Q150 637 213.5 668.5Q277 700 364 700Q452 700 515.5 668.5Q579 637 620 587Q661 537 680.5 473.5Q700 410 700 345ZM278 345Q278 217 297.5 156Q317 95 364 95Q410 95 430 156Q450 217 450 345Q450 473 430 534Q410 595 364 595Q317 595 297.5 534Q278 473 278 345ZM251 767Q198 781 179.5 797.5Q161 814 161 834Q161 856 176.5 873Q192 890 237 890Q263 890 283 883Q303 876 319.5 864.5Q336 853 349 838.5Q362 824 372 809L420 740H343Z" glyph-name="Ograve" horiz-adv-x="728" unicode="&#210;" /><glyph d="M230 608Q179 619 161 633.5Q143 648 143 665Q143 685 158 700Q173 715 216 715Q241 715 260.5 708Q280 701 296 690Q312 679 324 666Q336 653 345 641L385 593H311ZM633 275Q633 224 615.5 173Q598 122 561 82Q524 42 466 17Q408 -8 328 -8Q249 -8 191.5 17Q134 42 96.5 82Q59 122 41 173Q23 224 23 275Q23 326 41 377Q59 428 96.5 468Q134 508 191.5 533Q249 558 328 558Q408 558 466 533Q524 508 561 468Q598 428 615.5 377Q633 326 633 275ZM268 275Q268 183 279.5 136.5Q291 90 328 90Q365 90 376.5 136.5Q388 183 388 275Q388 366 376.5 413Q365 460 328 460Q291 460 279.5 413Q268 366 268 275Z" glyph-name="Ograve.sc" horiz-adv-x="656" /><glyph d="M278 345Q278 333 278 321Q278 309 279 298L436 510Q417 595 364 595Q317 595 297.5 534Q278 473 278 345ZM364 95Q410 95 430 156Q450 217 450 345Q450 358 450 370Q450 382 449 393L291 181Q310 95 364 95ZM364 -10Q310 -10 265 2.5Q220 15 184 37L128 -38H28L122 88Q74 140 51 207.5Q28 275 28 345Q28 410 47.5 473.5Q67 537 108.5 587Q150 637 213.5 668.5Q277 700 364 700Q418 700 463 688Q508 676 544 654L600 729H700L606 603Q654 551 677 483Q700 415 700 345Q700 281 680.5 217Q661 153 620 103Q579 53 515.5 21.5Q452 -10 364 -10Z" glyph-name="Oslash" horiz-adv-x="729" unicode="&#216;" /><glyph d="M381 394Q369 460 328 460Q290 460 279 407.5Q268 355 268 260ZM328 90Q347 90 359 107Q371 124 377.5 152Q384 180 386 216Q388 252 388 290L275 156Q287 90 328 90ZM328 -8Q280 -8 239.5 1.5Q199 11 167 28L118 -30H24L108 70Q64 112 43.5 165.5Q23 219 23 275Q23 326 41 377Q59 428 96.5 468Q134 508 191.5 533Q249 558 328 558Q376 558 416.5 548.5Q457 539 489 522L538 581H633L548 480Q592 439 612.5 385Q633 331 633 275Q633 224 615.5 173Q598 122 561 82Q524 42 466 17Q408 -8 328 -8Z" glyph-name="Oslash.sc" horiz-adv-x="656" /><glyph d="M700 345Q700 281 680.5 217Q661 153 620 103Q579 53 515.5 21.5Q452 -10 364 -10Q277 -10 213.5 21.5Q150 53 108.5 103Q67 153 47.5 217Q28 281 28 345Q28 410 47.5 473.5Q67 537 108.5 587Q150 637 213.5 668.5Q277 700 364 700Q452 700 515.5 668.5Q579 637 620 587Q661 537 680.5 473.5Q700 410 700 345ZM278 345Q278 217 297.5 156Q317 95 364 95Q410 95 430 156Q450 217 450 345Q450 473 430 534Q410 595 364 595Q317 595 297.5 534Q278 473 278 345ZM305 782Q287 782 277 772Q267 762 267 747H202Q202 891 300 891Q321 891 339 885.5Q357 880 372 874Q387 868 400 862.5Q413 857 425 857Q444 857 453 866.5Q462 876 462 891H527Q527 855 523 828Q519 801 508 783.5Q497 766 478 757Q459 748 428 748Q409 748 391.5 753.5Q374 759 358.5 765Q343 771 330 776.5Q317 782 305 782Z" glyph-name="Otilde" horiz-adv-x="728" unicode="&#213;" /><glyph d="M277 621Q261 621 252 614.5Q243 608 243 598H171Q171 662 198 691.5Q225 721 270 721Q289 721 304.5 717.5Q320 714 333.5 710Q347 706 359 702.5Q371 699 381 699Q414 699 414 721H487Q487 658 465 628.5Q443 599 386 599Q351 599 324 610Q297 621 277 621ZM633 275Q633 224 615.5 173Q598 122 561 82Q524 42 466 17Q408 -8 328 -8Q249 -8 191.5 17Q134 42 96.5 82Q59 122 41 173Q23 224 23 275Q23 326 41 377Q59 428 96.5 468Q134 508 191.5 533Q249 558 328 558Q408 558 466 533Q524 508 561 468Q598 428 615.5 377Q633 326 633 275ZM268 275Q268 183 279.5 136.5Q291 90 328 90Q365 90 376.5 136.5Q388 183 388 275Q388 366 376.5 413Q365 460 328 460Q291 460 279.5 413Q268 366 268 275Z" glyph-name="Otilde.sc" horiz-adv-x="656" /><glyph d="M42 100H97V590H42V690H371Q461 690 524.5 672.5Q588 655 628.5 624.5Q669 594 688 554Q707 514 707 469Q707 421 686 380Q665 339 623.5 309Q582 279 521.5 261.5Q461 244 383 244H342V100H407V0H42ZM342 590V344H360Q403 344 430 372.5Q457 401 457 470Q457 532 429 561Q401 590 360 590Z" glyph-name="P" horiz-adv-x="714" unicode="P" /><glyph d="M38 94H83V456H38V550H344Q427 550 485.5 535Q544 520 581 494.5Q618 469 635 436Q652 403 652 367Q652 327 632.5 293Q613 259 575.5 234.5Q538 210 482.5 196Q427 182 356 182H323V94H378V0H38ZM323 456V277H337Q368 277 387.5 295.5Q407 314 407 368Q407 416 386.5 436Q366 456 337 456Z" glyph-name="P.sc" horiz-adv-x="657" /><glyph d="M561 -111Q444 -111 401 -8Q392 -9 383 -9.5Q374 -10 364 -10Q277 -10 213.5 21.5Q150 53 108.5 103Q67 153 47.5 217Q28 281 28 345Q28 410 47.5 473.5Q67 537 108.5 587Q150 637 213.5 668.5Q277 700 364 700Q452 700 515.5 668.5Q579 637 620 587Q661 537 680.5 473.5Q700 410 700 345Q700 299 690.5 253.5Q681 208 661 167Q641 126 610 91Q579 56 537 32Q542 5 551 -6.5Q560 -18 574 -18Q592 -18 599.5 0Q607 18 607 66H692Q692 32 686.5 0Q681 -32 666.5 -57Q652 -82 626.5 -96.5Q601 -111 561 -111ZM278 345Q278 316 279 290.5Q280 265 282 242Q296 257 316 266.5Q336 276 363 276Q387 276 407.5 269.5Q428 263 446 247Q448 269 449 293Q450 317 450 345Q450 473 430 534Q410 595 364 595Q317 595 297.5 534Q278 473 278 345ZM364 95Q369 95 379 97Q373 146 364.5 167Q356 188 334 188Q320 188 312.5 177Q305 166 302 146Q322 95 364 95Z" glyph-name="Q" horiz-adv-x="728" unicode="Q" /><glyph d="M541 -111Q477 -111 440 -87Q403 -63 389 -9Q383 -10 376.5 -10Q370 -10 364 -10Q277 -10 213.5 21.5Q150 53 108.5 103Q67 153 47.5 217Q28 281 28 345Q28 410 47.5 473.5Q67 537 108.5 587Q150 637 213.5 668.5Q277 700 364 700Q452 700 515.5 668.5Q579 637 620 587Q661 537 680.5 473.5Q700 410 700 345Q700 298 690 251Q680 204 658.5 162Q637 120 604.5 85Q572 50 527 27Q530 3 536 -7.5Q542 -18 554 -18Q572 -18 579.5 0Q587 18 587 66H672Q672 32 666.5 0Q661 -32 646.5 -57Q632 -82 606.5 -96.5Q581 -111 541 -111ZM354 323Q412 323 449 288Q450 302 450 316Q450 330 450 345Q450 473 430 534Q410 595 364 595Q317 595 297.5 534Q278 473 278 345Q278 333 278 322Q278 311 279 300Q310 323 354 323ZM364 95Q370 95 378 97Q378 169 371 202Q364 235 336 235Q317 235 308.5 216.5Q300 198 300 178Q300 133 318.5 114Q337 95 364 95Z" glyph-name="Q.alt" horiz-adv-x="728" /><glyph d="M487 -79Q395 -79 363 -7Q355 -8 346 -8Q337 -8 328 -8Q249 -8 191.5 17Q134 42 96.5 82Q59 122 41 173Q23 224 23 275Q23 326 41 377Q59 428 96.5 468Q134 508 191.5 533Q249 558 328 558Q408 558 466 533Q524 508 561 468Q598 428 615.5 377Q633 326 633 275Q633 217 611.5 161.5Q590 106 542 64H611Q611 37 605.5 11.5Q600 -14 586 -34Q572 -54 548 -66.5Q524 -79 487 -79ZM324 275Q362 275 388 258V275Q388 366 376.5 413Q365 460 328 460Q291 460 279.5 413Q268 366 268 275V261Q291 275 324 275ZM328 90Q337 90 344 93Q340 147 334 171.5Q328 196 307 196Q291 196 286.5 180Q282 164 282 153Q282 116 296.5 103Q311 90 328 90ZM512 8Q538 8 538 60Q525 49 511.5 40.5Q498 32 481 24Q487 13 494.5 10.5Q502 8 512 8Z" glyph-name="Q.alt.sc" horiz-adv-x="656" /><glyph d="M498 -88Q404 -88 370 -6Q359 -7 349 -7.5Q339 -8 328 -8Q249 -8 191.5 17Q134 42 96.5 82Q59 122 41 173Q23 224 23 275Q23 326 41 377Q59 428 96.5 468Q134 508 191.5 533Q249 558 328 558Q408 558 466 533Q524 508 561 468Q598 428 615.5 377Q633 326 633 275Q633 239 625 203.5Q617 168 599.5 136Q582 104 555.5 76.5Q529 49 492 29Q500 6 507 1Q514 -4 523 -4Q536 -4 541 9Q546 22 546 57H618Q618 28 613 2Q608 -24 594.5 -44Q581 -64 558 -76Q535 -88 498 -88ZM268 275Q268 260 268 246.5Q268 233 269 220Q295 236 331 236Q362 236 387 224Q388 236 388 248.5Q388 261 388 275Q388 366 376.5 413Q365 460 328 460Q291 460 279.5 413Q268 366 268 275ZM328 90Q338 90 345 93Q338 127 330 142Q322 157 307 157Q285 157 280 135Q294 90 328 90Z" glyph-name="Q.sc" horiz-adv-x="656" /><glyph d="M642 -10Q592 -10 554 1Q516 12 489 36.5Q462 61 445 100Q428 139 420 196Q417 216 413.5 233.5Q410 251 402.5 264Q395 277 382 285Q369 293 347 293H342V100H387V0H42V100H97V590H42V690H392Q475 690 535 677.5Q595 665 633 642Q671 619 689 586.5Q707 554 707 514Q707 444 652.5 397Q598 350 476 341Q526 333 561 321Q596 309 619.5 289Q643 269 656.5 238.5Q670 208 676 163Q681 120 688 108.5Q695 97 704 97Q714 97 717.5 111.5Q721 126 721 170H806Q806 79 763 34.5Q720 -10 642 -10ZM342 590V375H360Q408 375 437.5 402.5Q467 430 467 482Q467 539 438 564.5Q409 590 360 590Z" glyph-name="R" horiz-adv-x="776" unicode="R" /><glyph d="M577 -8Q484 -8 437.5 27.5Q391 63 378 144Q375 164 372.5 179.5Q370 195 364.5 205Q359 215 349.5 220Q340 225 323 225V94H359V0H38V94H83V456H38V550H364Q441 550 496 540Q551 530 586 511.5Q621 493 637 467.5Q653 442 653 412Q653 354 603 317.5Q553 281 437 272Q490 262 524.5 252Q559 242 580 228Q601 214 611 194Q621 174 625 142Q627 123 630 113Q633 103 635.5 98.5Q638 94 641 93Q644 92 646 92Q654 92 656.5 101.5Q659 111 659 142H740Q740 64 698 28Q656 -8 577 -8ZM323 456V301H343Q373 301 396 320Q419 339 419 378Q419 422 395.5 439Q372 456 343 456Z" glyph-name="R.sc" horiz-adv-x="711" /><glyph d="M397 -10Q335 -10 284.5 0.5Q234 11 180 41L151 -10H43V241H158Q164 207 178.5 181.5Q193 156 212.5 139.5Q232 123 255 114.5Q278 106 300 106Q329 106 343.5 120.5Q358 135 358 158Q358 180 348 196Q338 212 321.5 224Q305 236 282.5 246.5Q260 257 234 269Q185 291 149.5 313Q114 335 91 362Q68 389 57 422.5Q46 456 46 499Q46 543 63.5 579.5Q81 616 111.5 643Q142 670 184.5 685Q227 700 277 700Q317 700 363.5 692.5Q410 685 458 652L486 700H592V452H477Q470 496 456.5 522Q443 548 426 562Q409 576 391.5 580Q374 584 359 584Q349 584 338 580.5Q327 577 317.5 569.5Q308 562 302 549.5Q296 537 296 519Q296 500 303.5 485.5Q311 471 328 458.5Q345 446 371.5 434.5Q398 423 435 409Q465 397 495.5 380.5Q526 364 550.5 339.5Q575 315 591 280Q607 245 607 196Q607 153 594 115.5Q581 78 554.5 50Q528 22 489 6Q450 -10 397 -10Z" glyph-name="S" horiz-adv-x="644" unicode="S" /><glyph d="M367 -8Q310 -8 263.5 0Q217 8 166 33L142 -8H36V197H147Q153 172 166 153.5Q179 135 195.5 124Q212 113 230.5 107.5Q249 102 267 102Q308 102 308 128Q308 145 299 155.5Q290 166 275 174Q260 182 241.5 188.5Q223 195 203 204Q160 224 128.5 243.5Q97 263 77.5 285.5Q58 308 48.5 335Q39 362 39 396Q39 431 55 461Q71 491 98.5 512.5Q126 534 164 546Q202 558 246 558Q282 558 324.5 553Q367 548 413 520L437 558H541V355H430Q425 389 413 407.5Q401 426 386 435Q371 444 356.5 446Q342 448 332 448Q326 448 318 447Q310 446 303 442Q296 438 291 431.5Q286 425 286 413Q286 388 312 372Q338 356 404 333Q429 324 455.5 310Q482 296 503.5 276Q525 256 539 227.5Q553 199 553 161Q553 125 542.5 94Q532 63 509.5 40.5Q487 18 452 5Q417 -8 367 -8Z" glyph-name="S.sc" horiz-adv-x="585" /><glyph d="M162 100H227V592H215Q170 592 153 565.5Q136 539 136 473V433H21V690H678V433H563V473Q563 540 546 566Q529 592 484 592H472V100H537V0H162Z" glyph-name="T" horiz-adv-x="699" unicode="T" /><glyph d="M142 94H197V458H192Q157 458 143 436.5Q129 415 129 367V330H18V550H616V330H505V367Q505 415 491 436.5Q477 458 442 458H437V94H491V0H142Z" glyph-name="T.sc" horiz-adv-x="634" /><glyph d="M371 560Q460 560 524 544Q588 528 628.5 499.5Q669 471 688 432.5Q707 394 707 349Q707 301 686 261.5Q665 222 623.5 193.5Q582 165 521.5 149.5Q461 134 383 134H342V100H397V0H42V100H97V590H42V690H398V590H343V560ZM457 350Q457 404 429 432Q401 460 360 460H342V234H360Q403 234 430 261Q457 288 457 350Z" glyph-name="Thorn" horiz-adv-x="718" unicode="&#222;" /><glyph d="M345 440Q428 440 486.5 426.5Q545 413 581.5 390Q618 367 634.5 337Q651 307 651 273Q651 199 576 152.5Q501 106 357 106H323V90H368V0H38V90H83V462H38V550H369V462H324V440ZM407 274Q407 311 385 328.5Q363 346 334 346H323V201H334Q363 201 385 216Q407 231 407 274Z" glyph-name="Thorn.sc" horiz-adv-x="659" /><glyph d="M643 248Q643 181 624 132Q605 83 570.5 51.5Q536 20 488 5Q440 -10 381 -10Q320 -10 265.5 5.5Q211 21 170 52.5Q129 84 105.5 133Q82 182 82 249V590H27V690H372V590H327V229Q327 190 334.5 164Q342 138 355.5 122.5Q369 107 388 101Q407 95 430 95Q453 95 472 101Q491 107 504.5 122.5Q518 138 525.5 164.5Q533 191 533 231V590H488V690H698V590H643Z" glyph-name="U" horiz-adv-x="727" unicode="U" /><glyph d="M580 224Q580 158 562.5 113.5Q545 69 513.5 42Q482 15 438.5 3.5Q395 -8 343 -8Q288 -8 238.5 4Q189 16 151.5 43Q114 70 91.5 114Q69 158 69 223V456H24V550H355V456H309V203Q309 169 315.5 147Q322 125 333 112Q344 99 359 94Q374 89 392 89Q410 89 425.5 94Q441 99 452.5 111.5Q464 124 470 146Q476 168 476 202V456H431V550H626V456H580Z" glyph-name="U.sc" horiz-adv-x="650" /><glyph d="M643 248Q643 181 624 132Q605 83 570.5 51.5Q536 20 488 5Q440 -10 381 -10Q320 -10 265.5 5.5Q211 21 170 52.5Q129 84 105.5 133Q82 182 82 249V590H27V690H372V590H327V229Q327 190 334.5 164Q342 138 355.5 122.5Q369 107 388 101Q407 95 430 95Q453 95 472 101Q491 107 504.5 122.5Q518 138 525.5 164.5Q533 191 533 231V590H488V690H698V590H643ZM528 767Q581 781 599.5 797.5Q618 814 618 834Q618 856 602.5 873Q587 890 542 890Q517 890 496.5 883Q476 876 459.5 864.5Q443 853 430.5 838.5Q418 824 407 809L359 740H436Z" glyph-name="Uacute" horiz-adv-x="727" unicode="&#218;" /><glyph d="M397 593H323L362 641Q372 653 384 666Q396 679 412 690Q428 701 447.5 708Q467 715 492 715Q535 715 549.5 700Q564 685 564 665Q564 648 546.5 633.5Q529 619 478 608ZM580 224Q580 158 562.5 113.5Q545 69 513.5 42Q482 15 438.5 3.5Q395 -8 343 -8Q288 -8 238.5 4Q189 16 151.5 43Q114 70 91.5 114Q69 158 69 223V456H24V550H355V456H309V203Q309 169 315.5 147Q322 125 333 112Q344 99 359 94Q374 89 392 89Q410 89 425.5 94Q441 99 452.5 111.5Q464 124 470 146Q476 168 476 202V456H431V550H626V456H580Z" glyph-name="Uacute.sc" horiz-adv-x="650" /><glyph d="M643 248Q643 181 624 132Q605 83 570.5 51.5Q536 20 488 5Q440 -10 381 -10Q320 -10 265.5 5.5Q211 21 170 52.5Q129 84 105.5 133Q82 182 82 249V590H27V690H372V590H327V229Q327 190 334.5 164Q342 138 355.5 122.5Q369 107 388 101Q407 95 430 95Q453 95 472 101Q491 107 504.5 122.5Q518 138 525.5 164.5Q533 191 533 231V590H488V690H698V590H643ZM170 740 333 876H449L607 740H465L389 787L307 740Z" glyph-name="Ucircumflex" horiz-adv-x="727" unicode="&#219;" /><glyph d="M146 593 295 703H410L555 593H414L351 629L282 593ZM580 224Q580 158 562.5 113.5Q545 69 513.5 42Q482 15 438.5 3.5Q395 -8 343 -8Q288 -8 238.5 4Q189 16 151.5 43Q114 70 91.5 114Q69 158 69 223V456H24V550H355V456H309V203Q309 169 315.5 147Q322 125 333 112Q344 99 359 94Q374 89 392 89Q410 89 425.5 94Q441 99 452.5 111.5Q464 124 470 146Q476 168 476 202V456H431V550H626V456H580Z" glyph-name="Ucircumflex.sc" horiz-adv-x="650" /><glyph d="M643 248Q643 181 624 132Q605 83 570.5 51.5Q536 20 488 5Q440 -10 381 -10Q320 -10 265.5 5.5Q211 21 170 52.5Q129 84 105.5 133Q82 182 82 249V590H27V690H372V590H327V229Q327 190 334.5 164Q342 138 355.5 122.5Q369 107 388 101Q407 95 430 95Q453 95 472 101Q491 107 504.5 122.5Q518 138 525.5 164.5Q533 191 533 231V590H488V690H698V590H643ZM362 824Q362 787 338 765.5Q314 744 276 744Q239 744 215 765.5Q191 787 191 824Q191 861 215 884.5Q239 908 276 908Q314 908 338 884.5Q362 861 362 824ZM579 824Q579 787 555.5 765.5Q532 744 494 744Q457 744 433 765.5Q409 787 409 824Q409 861 433 884.5Q457 908 494 908Q532 908 555.5 884.5Q579 861 579 824Z" glyph-name="Udieresis" horiz-adv-x="727" unicode="&#220;" /><glyph d="M327 673Q327 638 304 620Q281 602 246 602Q212 602 188.5 620Q165 638 165 673Q165 708 188.5 727.5Q212 747 246 747Q281 747 304 727.5Q327 708 327 673ZM526 673Q526 638 503.5 620Q481 602 446 602Q412 602 388.5 620Q365 638 365 673Q365 708 388.5 727.5Q412 747 446 747Q481 747 503.5 727.5Q526 708 526 673ZM580 224Q580 158 562.5 113.5Q545 69 513.5 42Q482 15 438.5 3.5Q395 -8 343 -8Q288 -8 238.5 4Q189 16 151.5 43Q114 70 91.5 114Q69 158 69 223V456H24V550H355V456H309V203Q309 169 315.5 147Q322 125 333 112Q344 99 359 94Q374 89 392 89Q410 89 425.5 94Q441 99 452.5 111.5Q464 124 470 146Q476 168 476 202V456H431V550H626V456H580Z" glyph-name="Udieresis.sc" horiz-adv-x="650" /><glyph d="M643 248Q643 181 624 132Q605 83 570.5 51.5Q536 20 488 5Q440 -10 381 -10Q320 -10 265.5 5.5Q211 21 170 52.5Q129 84 105.5 133Q82 182 82 249V590H27V690H372V590H327V229Q327 190 334.5 164Q342 138 355.5 122.5Q369 107 388 101Q407 95 430 95Q453 95 472 101Q491 107 504.5 122.5Q518 138 525.5 164.5Q533 191 533 231V590H488V690H698V590H643ZM308 767Q255 781 236.5 797.5Q218 814 218 834Q218 856 233.5 873Q249 890 294 890Q320 890 340 883Q360 876 376.5 864.5Q393 853 406 838.5Q419 824 429 809L477 740H400Z" glyph-name="Ugrave" horiz-adv-x="727" unicode="&#217;" /><glyph d="M282 608Q231 619 213 633.5Q195 648 195 665Q195 685 210 700Q225 715 268 715Q293 715 312.5 708Q332 701 348 690Q364 679 376 666Q388 653 397 641L437 593H363ZM580 224Q580 158 562.5 113.5Q545 69 513.5 42Q482 15 438.5 3.5Q395 -8 343 -8Q288 -8 238.5 4Q189 16 151.5 43Q114 70 91.5 114Q69 158 69 223V456H24V550H355V456H309V203Q309 169 315.5 147Q322 125 333 112Q344 99 359 94Q374 89 392 89Q410 89 425.5 94Q441 99 452.5 111.5Q464 124 470 146Q476 168 476 202V456H431V550H626V456H580Z" glyph-name="Ugrave.sc" horiz-adv-x="650" /><glyph d="M625 590 471 0H210L55 590H5V690H341V590H295L410 156L522 590H480V690H673V590Z" glyph-name="V" horiz-adv-x="680" unicode="V" /><glyph d="M561 456 435 0H175L48 456H5V550H328V456H284L372 139L462 456H421V550H601V456Z" glyph-name="V.sc" horiz-adv-x="609" /><glyph d="M471 382 392 0H155L52 590H7V690H317V590H279L348 197L448 690H614L714 192L783 590H748V690H930V590H888L785 0H550Z" glyph-name="W" horiz-adv-x="939" unicode="W" /><glyph d="M471 389 392 0H155L52 590H7V690H317V590H279L348 197L428 590H377V690H686V590H634L713 194L783 590H748V690H930V590H888L785 0H550Z" glyph-name="W.alt" horiz-adv-x="939" /><glyph d="M428 328 363 0H132L52 456H16V550H300V456H274L321 191L373 456H350V550H628V456H602L654 189L702 456H679V550H840V456H804L723 0H493Z" glyph-name="W.alt.sc" horiz-adv-x="856" /><glyph d="M422 257 360 0H129L44 456H8V550H305V456H268L320 177L401 550H563L644 176L696 456H661V550H831V456H798L713 0H484Z" glyph-name="W.sc" horiz-adv-x="840" /><glyph d="M14 0V100H71L249 320L50 590H15V690H377V590H324L415 467L515 590H467V690H699V590H645L477 383L685 100H718V0H358V100H411L312 235L202 100H266V0Z" glyph-name="X" horiz-adv-x="725" unicode="X" /><glyph d="M21 0V94H75L223 253L51 456H12V550H363V456H326L391 379L462 456H430V550H643V456H595L451 308L631 94H669V0H318V94H357L285 179L206 94H255V0Z" glyph-name="X.sc" horiz-adv-x="673" /><glyph d="M522 0H182V100H230V274L43 590H-3V690H356V590H312L412 421L504 590H467V690H683V590H642L475 283V100H522Z" glyph-name="Y" horiz-adv-x="695" unicode="Y" /><glyph d="M476 0H163V94H200V213L36 456H-3V550H342V456H307L384 344L452 456H418V550H619V456H585L440 220V94H476Z" glyph-name="Y.sc" horiz-adv-x="631" /><glyph d="M522 0H182V100H230V274L43 590H-3V690H356V590H312L412 421L504 590H467V690H683V590H642L475 283V100H522ZM506 767Q559 781 577.5 797.5Q596 814 596 834Q596 856 580.5 873Q565 890 520 890Q495 890 474.5 883Q454 876 437.5 864.5Q421 853 408.5 838.5Q396 824 385 809L337 740H414Z" glyph-name="Yacute" horiz-adv-x="695" unicode="&#221;" /><glyph d="M380 593H306L345 641Q355 653 367 666Q379 679 395 690Q411 701 430.5 708Q450 715 475 715Q518 715 532.5 700Q547 685 547 665Q547 648 529.5 633.5Q512 619 461 608ZM476 0H163V94H200V213L36 456H-3V550H342V456H307L384 344L452 456H418V550H619V456H585L440 220V94H476Z" glyph-name="Yacute.sc" horiz-adv-x="631" /><glyph d="M35 0V78L336 590H261Q231 590 211 586Q191 582 178.5 570Q166 558 161 535.5Q156 513 156 477V443H41V690H594V612L293 100H399Q431 100 449 105Q467 110 476 123.5Q485 137 487 161Q489 185 489 223V252H604V0Z" glyph-name="Z" horiz-adv-x="636" unicode="Z" /><glyph d="M39 0V78L367 520H265Q235 520 215 516Q195 512 182.5 500Q170 488 165 465.5Q160 443 160 407V373H45V690H578V612L250 170H383Q415 170 433 175Q451 180 460 193.5Q469 207 471 231Q473 255 473 293V322H588V0Z" glyph-name="Z.alt" horiz-adv-x="627" /><glyph d="M33 0V71L312 399H240Q215 399 197.5 396.5Q180 394 169.5 385Q159 376 154.5 358Q150 340 150 308V284H39V550H524V479L246 153H344Q372 153 387.5 155.5Q403 158 410.5 168Q418 178 420 197.5Q422 217 422 251V273H534V0Z" glyph-name="Z.alt.sc" horiz-adv-x="567" /><glyph d="M30 0V71L282 456H234Q209 456 192 453Q175 450 165 440.5Q155 431 151 414.5Q147 398 147 371V346H36V550H541V479L289 94H337Q374 94 395 97.5Q416 101 426 110.5Q436 120 438 138.5Q440 157 440 187V208H551V0Z" glyph-name="Z.sc" horiz-adv-x="579" /><glyph d="M546 -10Q465 -10 421.5 20.5Q378 51 367 107Q348 51 304.5 21.5Q261 -8 186 -8Q107 -8 64.5 30.5Q22 69 22 135Q22 171 36 202.5Q50 234 85 257.5Q120 281 178.5 294.5Q237 308 327 308H350V346Q350 406 328.5 427.5Q307 449 268 449Q250 449 237.5 446.5Q225 444 217 441Q228 430 232 417Q236 404 236 391Q236 378 231.5 364.5Q227 351 216 340.5Q205 330 187.5 323.5Q170 317 144 317Q119 317 101 323.5Q83 330 72.5 340.5Q62 351 57 364.5Q52 378 52 391Q52 458 124.5 496.5Q197 535 323 535Q381 535 430 523.5Q479 512 514.5 486Q550 460 570 416.5Q590 373 590 310V155Q590 126 594 114Q598 102 609 102Q620 102 625 116Q630 130 630 175H707Q707 133 698.5 98.5Q690 64 671 40Q652 16 621.5 3Q591 -10 546 -10ZM306 122Q329 122 339.5 147Q350 172 350 229V258H331Q302 258 282 243Q262 228 262 183Q262 149 274 135.5Q286 122 306 122Z" glyph-name="a" horiz-adv-x="691" unicode="a" /><glyph d="M546 -10Q465 -10 421.5 20.5Q378 51 367 107Q348 51 304.5 21.5Q261 -8 186 -8Q107 -8 64.5 30.5Q22 69 22 135Q22 171 36 202.5Q50 234 85 257.5Q120 281 178.5 294.5Q237 308 327 308H350V346Q350 406 328.5 427.5Q307 449 268 449Q250 449 237.5 446.5Q225 444 217 441Q228 430 232 417Q236 404 236 391Q236 378 231.5 364.5Q227 351 216 340.5Q205 330 187.5 323.5Q170 317 144 317Q119 317 101 323.5Q83 330 72.5 340.5Q62 351 57 364.5Q52 378 52 391Q52 458 124.5 496.5Q197 535 323 535Q381 535 430 523.5Q479 512 514.5 486Q550 460 570 416.5Q590 373 590 310V155Q590 126 594 114Q598 102 609 102Q620 102 625 116Q630 130 630 175H707Q707 133 698.5 98.5Q690 64 671 40Q652 16 621.5 3Q591 -10 546 -10ZM306 122Q329 122 339.5 147Q350 172 350 229V258H331Q302 258 282 243Q262 228 262 183Q262 149 274 135.5Q286 122 306 122ZM273 621 320 691Q359 750 397 770Q435 790 480 790Q530 790 547 773Q564 756 564 734Q564 724 560 713.5Q556 703 544 692.5Q532 682 509.5 671.5Q487 661 449 650L349 621Z" glyph-name="aacute" horiz-adv-x="691" unicode="&#225;" /><glyph d="M546 -10Q465 -10 421.5 20.5Q378 51 367 107Q348 51 304.5 21.5Q261 -8 186 -8Q107 -8 64.5 30.5Q22 69 22 135Q22 171 36 202.5Q50 234 85 257.5Q120 281 178.5 294.5Q237 308 327 308H350V346Q350 406 328.5 427.5Q307 449 268 449Q250 449 237.5 446.5Q225 444 217 441Q228 430 232 417Q236 404 236 391Q236 378 231.5 364.5Q227 351 216 340.5Q205 330 187.5 323.5Q170 317 144 317Q119 317 101 323.5Q83 330 72.5 340.5Q62 351 57 364.5Q52 378 52 391Q52 458 124.5 496.5Q197 535 323 535Q381 535 430 523.5Q479 512 514.5 486Q550 460 570 416.5Q590 373 590 310V155Q590 126 594 114Q598 102 609 102Q620 102 625 116Q630 130 630 175H707Q707 133 698.5 98.5Q690 64 671 40Q652 16 621.5 3Q591 -10 546 -10ZM306 122Q329 122 339.5 147Q350 172 350 229V258H331Q302 258 282 243Q262 228 262 183Q262 149 274 135.5Q286 122 306 122ZM126 621 304 797H377L550 621H448L340 690L228 621Z" glyph-name="acircumflex" horiz-adv-x="691" unicode="&#226;" /><glyph d="M37 621 84 691Q123 750 161 770Q199 790 244 790Q294 790 311 773Q328 756 328 734Q328 724 324 713.5Q320 703 308 692.5Q296 682 273.5 671.5Q251 661 213 650L113 621Z" glyph-name="acute" horiz-adv-x="365" unicode="&#180;" /><glyph d="M116 740H39L87 809Q98 824 110.5 838.5Q123 853 139.5 864.5Q156 876 176.5 883Q197 890 222 890Q267 890 282.5 873Q298 856 298 834Q298 814 279.5 797.5Q261 781 208 767Z" glyph-name="acute.cap" horiz-adv-x="353" /><glyph d="M38 601 53 664Q70 735 96 772.5Q122 810 175 810Q210 810 226.5 793.5Q243 777 243 755Q243 730 222 707Q201 684 158 643L114 601Z" glyph-name="acute.pl" horiz-adv-x="298" /><glyph d="M54 740 71 819Q82 864 101.5 887.5Q121 911 159 911Q194 911 210.5 896Q227 881 227 859Q227 835 213 812Q199 789 175 771L133 740Z" glyph-name="acute.uc.pl" horiz-adv-x="279" /><glyph d="M546 -10Q465 -10 421.5 20.5Q378 51 367 107Q348 51 304.5 21.5Q261 -8 186 -8Q107 -8 64.5 30.5Q22 69 22 135Q22 171 36 202.5Q50 234 85 257.5Q120 281 178.5 294.5Q237 308 327 308H350V346Q350 406 328.5 427.5Q307 449 268 449Q250 449 237.5 446.5Q225 444 217 441Q228 430 232 417Q236 404 236 391Q236 378 231.5 364.5Q227 351 216 340.5Q205 330 187.5 323.5Q170 317 144 317Q119 317 101 323.5Q83 330 72.5 340.5Q62 351 57 364.5Q52 378 52 391Q52 458 124.5 496.5Q197 535 323 535Q381 535 430 523.5Q479 512 514.5 486Q550 460 570 416.5Q590 373 590 310V155Q590 126 594 114Q598 102 609 102Q620 102 625 116Q630 130 630 175H707Q707 133 698.5 98.5Q690 64 671 40Q652 16 621.5 3Q591 -10 546 -10ZM306 122Q329 122 339.5 147Q350 172 350 229V258H331Q302 258 282 243Q262 228 262 183Q262 149 274 135.5Q286 122 306 122ZM318 695Q318 653 291.5 629Q265 605 222 605Q180 605 153.5 629Q127 653 127 695Q127 737 153.5 763Q180 789 222 789Q265 789 291.5 763Q318 737 318 695ZM535 695Q535 653 509 629Q483 605 440 605Q398 605 371.5 629Q345 653 345 695Q345 737 371.5 763Q398 789 440 789Q483 789 509 763Q535 737 535 695Z" glyph-name="adieresis" horiz-adv-x="691" unicode="&#228;" /><glyph d="M646 -10Q561 -10 495.5 20.5Q430 51 392 110Q369 52 319.5 21Q270 -10 186 -10Q107 -10 64.5 29.5Q22 69 22 135Q22 171 36 202.5Q50 234 85 257.5Q120 281 178.5 294.5Q237 308 327 308H350V346Q350 379 342 399Q334 419 322 430Q310 441 295.5 445Q281 449 268 449Q250 449 238.5 446.5Q227 444 219 439Q228 428 232 415.5Q236 403 236 391Q236 378 231.5 364.5Q227 351 216 340.5Q205 330 187.5 323.5Q170 317 144 317Q119 317 101 323.5Q83 330 72.5 340.5Q62 351 57 364.5Q52 378 52 391Q52 458 124.5 496.5Q197 535 323 535Q372 535 414.5 527Q457 519 491 500Q556 535 637 535Q708 535 760.5 515Q813 495 848 459.5Q883 424 900.5 376.5Q918 329 918 275V235H588V223Q588 154 621.5 124.5Q655 95 707 95Q760 95 788.5 117.5Q817 140 835 181L913 153Q903 121 884 91.5Q865 62 833.5 39.5Q802 17 756 3.5Q710 -10 646 -10ZM633 444Q602 444 595 405Q588 366 588 300H678Q678 367 671 405.5Q664 444 633 444ZM306 122Q329 122 339.5 147Q350 172 350 229V258H331Q304 257 285.5 242.5Q267 228 267 183Q267 149 278 135.5Q289 122 306 122Z" glyph-name="ae" horiz-adv-x="940" unicode="&#230;" /><glyph d="M546 -10Q465 -10 421.5 20.5Q378 51 367 107Q348 51 304.5 21.5Q261 -8 186 -8Q107 -8 64.5 30.5Q22 69 22 135Q22 171 36 202.5Q50 234 85 257.5Q120 281 178.5 294.5Q237 308 327 308H350V346Q350 406 328.5 427.5Q307 449 268 449Q250 449 237.5 446.5Q225 444 217 441Q228 430 232 417Q236 404 236 391Q236 378 231.5 364.5Q227 351 216 340.5Q205 330 187.5 323.5Q170 317 144 317Q119 317 101 323.5Q83 330 72.5 340.5Q62 351 57 364.5Q52 378 52 391Q52 458 124.5 496.5Q197 535 323 535Q381 535 430 523.5Q479 512 514.5 486Q550 460 570 416.5Q590 373 590 310V155Q590 126 594 114Q598 102 609 102Q620 102 625 116Q630 130 630 175H707Q707 133 698.5 98.5Q690 64 671 40Q652 16 621.5 3Q591 -10 546 -10ZM306 122Q329 122 339.5 147Q350 172 350 229V258H331Q302 258 282 243Q262 228 262 183Q262 149 274 135.5Q286 122 306 122ZM212 650Q175 661 152 671.5Q129 682 117 692.5Q105 703 101 713.5Q97 724 97 734Q97 756 116.5 773Q136 790 186 790Q231 790 263.5 774Q296 758 324 716L388 621H312Z" glyph-name="agrave" horiz-adv-x="691" unicode="&#224;" /><glyph d="M668 -10Q631 -10 599.5 -3.5Q568 3 528 28Q481 8 427 -1Q373 -10 312 -10Q255 -10 204 -2Q153 6 114.5 25Q76 44 53.5 76Q31 108 31 156Q31 189 40.5 215Q50 241 69.5 263.5Q89 286 120 305.5Q151 325 194 345Q161 381 137.5 409Q114 437 100 460.5Q86 484 79.5 505Q73 526 73 548Q73 585 95 613.5Q117 642 155.5 661Q194 680 246.5 690Q299 700 360 700Q420 700 472.5 690Q525 680 563.5 662Q602 644 624.5 617.5Q647 591 647 558Q647 528 634.5 504Q622 480 595 457Q568 434 526 411Q484 388 425 359Q445 338 469.5 313.5Q494 289 523 259Q543 239 559.5 222Q576 205 590 191Q620 237 631 301H571V401H808V301H741Q730 246 709.5 202Q689 158 660 123Q687 99 698.5 94.5Q710 90 723 90Q732 90 738.5 93.5Q745 97 749.5 107.5Q754 118 756.5 137Q759 156 759 187H844Q844 143 835 106.5Q826 70 805.5 44Q785 18 751.5 4Q718 -10 668 -10ZM308 552Q308 518 321 490Q334 462 361 428Q390 455 401 487.5Q412 520 412 552Q412 578 400 596.5Q388 615 361 615Q336 615 322 598Q308 581 308 552ZM388 90Q403 90 416.5 91.5Q430 93 443 95Q421 115 395.5 139Q370 163 340 194Q323 212 306.5 228.5Q290 245 275 260Q266 246 261 229Q256 212 256 191Q256 135 293 112.5Q330 90 388 90Z" glyph-name="ampersand" horiz-adv-x="860" unicode="&amp;" /><glyph d="M733 -10Q705 -10 668.5 -4Q632 2 579 35Q483 -10 347 -10Q286 -10 230 -1.5Q174 7 131 26.5Q88 46 62.5 78Q37 110 37 157Q37 184 43.5 208.5Q50 233 70.5 260.5Q91 288 128.5 320.5Q166 353 228 395L59 590V690H666V590L444 440L643 209Q683 261 698 331H624V431H871V331H798Q768 212 707 136Q733 106 747 98Q761 90 778 90Q789 90 798 96.5Q807 103 813 118.5Q819 134 822 160.5Q825 187 825 227H910Q910 181 904.5 138Q899 95 881 62Q863 29 828 9.5Q793 -10 733 -10ZM523 595H310L389 504ZM435 90Q466 90 496 100Q468 125 437 156.5Q406 188 370 230L305 305Q291 280 286.5 258.5Q282 237 282 218Q282 184 293.5 159.5Q305 135 325.5 119.5Q346 104 374 97Q402 90 435 90Z" glyph-name="ampersand.alt" horiz-adv-x="939" /><glyph d="M663 -8Q624 -8 588.5 -2.5Q553 3 510 27Q423 -8 309 -8Q255 -8 204.5 -2.5Q154 3 115.5 18Q77 33 54 59.5Q31 86 31 128Q31 149 36 167.5Q41 186 58 206Q75 226 108.5 250Q142 274 200 306L52 457V550H617V457L437 351Q432 348 427 345Q422 342 417 339L577 177Q608 216 620 264H554V358H781V264H716Q690 175 637 116Q658 96 669 91Q680 86 695 86Q704 86 711.5 91Q719 96 724 108.5Q729 121 731.5 143.5Q734 166 734 200H816Q816 161 811 124Q806 87 790 57.5Q774 28 744 10Q714 -8 663 -8ZM470 457H302L361 396ZM397 86Q404 86 410.5 86.5Q417 87 424 88Q401 107 375.5 131Q350 155 320 185L274 232Q266 220 263.5 208Q261 196 261 182Q261 132 296 109Q331 86 397 86Z" glyph-name="ampersand.alt.sc" horiz-adv-x="836" /><glyph d="M318 444Q299 444 289.5 431Q280 418 276.5 397.5Q273 377 272.5 351.5Q272 326 272 300H362Q362 326 361.5 351.5Q361 377 357 397.5Q353 418 344 431Q335 444 318 444ZM502 96Q541 96 576.5 102.5Q612 109 642.5 124.5Q673 140 696.5 164.5Q720 189 733 225H272Q272 186 290.5 161Q309 136 340.5 121.5Q372 107 414 101.5Q456 96 502 96ZM829 225Q815 176 786 133.5Q757 91 710 59Q663 27 596.5 8.5Q530 -10 441 -10Q242 -10 138 61Q34 132 34 263Q34 325 54 375Q74 425 112 460.5Q150 496 204 515.5Q258 535 327 535Q393 535 444 515Q495 495 530 462Q565 429 583 387Q601 345 601 300H748Q749 306 749 312Q749 318 749 325Q749 360 741 395Q733 430 719 455Q693 432 652 432Q636 432 620 437.5Q604 443 591 453.5Q578 464 570.5 479.5Q563 495 563 515Q563 540 573 556.5Q583 573 598 583Q613 593 630.5 597Q648 601 663 601Q714 601 748.5 576Q783 551 804.5 512.5Q826 474 835 427.5Q844 381 844 337Q844 328 844 318.5Q844 309 842 300H920V225Z" glyph-name="ampersand.old" horiz-adv-x="932" /><glyph d="M629 -8Q601 -8 570 -2Q539 4 506 21Q464 5 407 -1.5Q350 -8 294 -8Q244 -8 195.5 -3Q147 2 109.5 16.5Q72 31 49 57.5Q26 84 26 126Q26 153 36.5 173Q47 193 68 211Q89 229 120.5 245.5Q152 262 194 281Q158 311 133.5 333Q109 355 95 372.5Q81 390 75 405.5Q69 421 69 439Q69 468 89.5 490.5Q110 513 146 528Q182 543 231.5 550.5Q281 558 338 558Q395 558 444.5 549.5Q494 541 531 525.5Q568 510 589 488.5Q610 467 610 441Q610 418 598.5 400Q587 382 563 365Q539 348 500.5 329.5Q462 311 408 287Q437 261 472.5 226Q508 191 541 167Q556 180 566.5 199.5Q577 219 581 232H530V326H757V232H692Q687 217 678.5 199Q670 181 660 163.5Q650 146 639.5 131Q629 116 620 106Q635 93 645.5 89.5Q656 86 667 86Q673 86 680 88.5Q687 91 693 98.5Q699 106 703 120Q707 134 707 157H789Q789 121 781 90.5Q773 60 754 38Q735 16 704.5 4Q674 -8 629 -8ZM299 438Q299 416 310 396.5Q321 377 345 352Q367 372 373.5 395Q380 418 380 438Q380 454 371 467Q362 480 340 480Q320 480 309.5 469Q299 458 299 438ZM359 83Q370 83 385.5 84Q401 85 406 87Q375 109 338 144.5Q301 180 268 212Q257 201 251 185.5Q245 170 245 149Q245 83 359 83Z" glyph-name="ampersand.sc" horiz-adv-x="805" /><glyph d="M514 -10Q486 -10 459.5 -2.5Q433 5 400 29Q331 -10 232 -10Q194 -10 157 -2Q120 6 91 25Q62 44 44.5 76Q27 108 27 156Q27 218 56 263Q85 308 127 342Q90 401 74.5 444Q59 487 59 522Q59 569 74 602.5Q89 636 115.5 658Q142 680 178 690Q214 700 256 700Q347 700 400 661.5Q453 623 453 551Q453 526 445 502.5Q437 479 419 455.5Q401 432 372 406.5Q343 381 301 351Q318 326 338.5 300.5Q359 275 383 248Q393 237 402 227Q411 217 419 208Q426 228 430.5 251.5Q435 275 437 301H391V391H594V301H547Q539 247 526 204Q513 161 493 127Q511 107 519.5 101.5Q528 96 536 96Q542 96 547.5 99.5Q553 103 557 112.5Q561 122 563 140Q565 158 565 187H630Q630 143 624 106.5Q618 70 604.5 44Q591 18 569 4Q547 -10 514 -10ZM224 552Q224 501 249 442Q288 491 288 552Q288 578 281 596.5Q274 615 257 615Q241 615 232.5 598Q224 581 224 552ZM304 90Q316 90 327 94Q315 106 302.5 120Q290 134 276 150Q257 172 240 192Q223 212 208 231Q202 210 202 189Q202 133 230.5 111.5Q259 90 304 90Z" glyph-name="ampersand.tln" horiz-adv-x="640" /><glyph d="M240 444Q229 444 222 431Q215 418 211.5 397.5Q208 377 206 351.5Q204 326 204 300H274Q274 326 273.5 351.5Q273 377 270 397.5Q267 418 260 431Q253 444 240 444ZM343 96Q455 96 482 225H204Q204 155 243 125.5Q282 96 343 96ZM577 225Q568 177 550 134.5Q532 92 500 59.5Q468 27 421 8.5Q374 -10 308 -10Q164 -10 95 61Q26 132 26 263Q26 325 40 375Q54 425 82 460.5Q110 496 152 515.5Q194 535 249 535Q300 535 337 515Q374 495 397.5 462Q421 429 432 387Q443 345 443 300H491V325Q491 354 487.5 385Q484 416 479 443Q475 442 468 442Q440 442 416 463.5Q392 485 392 520Q392 543 399 558.5Q406 574 417 583.5Q428 593 442 597Q456 601 469 601Q505 601 527.5 579Q550 557 563 520.5Q576 484 581 436Q586 388 586 337Q586 328 586 318.5Q586 309 585 300H622V225Z" glyph-name="ampersand.ton" horiz-adv-x="640" /><glyph d="M546 -10Q465 -10 421.5 20.5Q378 51 367 107Q348 51 304.5 21.5Q261 -8 186 -8Q107 -8 64.5 30.5Q22 69 22 135Q22 171 36 202.5Q50 234 85 257.5Q120 281 178.5 294.5Q237 308 327 308H350V346Q350 406 328.5 427.5Q307 449 268 449Q250 449 237.5 446.5Q225 444 217 441Q228 430 232 417Q236 404 236 391Q236 378 231.5 364.5Q227 351 216 340.5Q205 330 187.5 323.5Q170 317 144 317Q119 317 101 323.5Q83 330 72.5 340.5Q62 351 57 364.5Q52 378 52 391Q52 458 124.5 496.5Q197 535 323 535Q381 535 430 523.5Q479 512 514.5 486Q550 460 570 416.5Q590 373 590 310V155Q590 126 594 114Q598 102 609 102Q620 102 625 116Q630 130 630 175H707Q707 133 698.5 98.5Q690 64 671 40Q652 16 621.5 3Q591 -10 546 -10ZM306 122Q329 122 339.5 147Q350 172 350 229V258H331Q302 258 282 243Q262 228 262 183Q262 149 274 135.5Q286 122 306 122ZM343 607Q289 607 255 639Q221 671 221 722Q221 773 255 805Q289 837 343 837Q397 837 431.5 805Q466 773 466 722Q466 671 431.5 639Q397 607 343 607ZM343 684Q361 684 372 694.5Q383 705 383 722Q383 739 372 749.5Q361 760 343 760Q326 760 315 749.5Q304 739 304 722Q304 705 315 694.5Q326 684 343 684Z" glyph-name="aring" horiz-adv-x="691" unicode="&#229;" /><glyph d="M222 575 134 384H31L173 690H276L417 384H310Z" glyph-name="asciicircum" horiz-adv-x="448" unicode="^" /><glyph d="M318 575 230 384H127L269 690H372L513 384H406Z" glyph-name="asciicircum.tln" horiz-adv-x="640" /><glyph d="M544 399Q544 365 539.5 327.5Q535 290 519 259.5Q503 229 472 209Q441 189 388 189Q339 189 311.5 204Q284 219 266.5 237Q249 255 235 270Q221 285 198 285Q171 285 159.5 261Q148 237 148 197H48Q48 232 54 269Q60 306 78 337Q96 368 128.5 387.5Q161 407 213 407Q260 407 286.5 392Q313 377 330.5 359Q348 341 362 326Q376 311 399 311Q425 311 434.5 334Q444 357 444 399Z" glyph-name="asciitilde" horiz-adv-x="589" unicode="~" /><glyph d="M569 399Q569 365 564.5 327.5Q560 290 544 259.5Q528 229 497 209Q466 189 413 189Q364 189 336.5 204Q309 219 291.5 237Q274 255 260 270Q246 285 223 285Q196 285 184.5 261Q173 237 173 197H73Q73 232 79 269Q85 306 103 337Q121 368 153.5 387.5Q186 407 238 407Q285 407 311.5 392Q338 377 355.5 359Q373 341 387 326Q401 311 424 311Q450 311 459.5 334Q469 357 469 399Z" glyph-name="asciitilde.tln" horiz-adv-x="640" /><glyph d="M231 508 184 608Q173 632 174.5 649.5Q176 667 186 678Q196 689 212 694.5Q228 700 244 700Q260 700 275.5 694.5Q291 689 301.5 678Q312 667 314 649.5Q316 632 305 608L258 508ZM213 481 105 489Q79 491 65 502.5Q51 514 45.5 529.5Q40 545 42.5 561.5Q45 578 51 590Q58 602 71.5 612Q85 622 101.5 624.5Q118 627 136 619.5Q154 612 169 589L226 504ZM276 481 263 504 320 589Q335 611 352.5 618.5Q370 626 386.5 624Q403 622 417 612.5Q431 603 438 591Q446 579 448 562.5Q450 546 444.5 530Q439 514 424.5 502.5Q410 491 384 489ZM165 366Q151 345 134 338.5Q117 332 101.5 335Q86 338 73 348Q60 358 54 370Q47 383 44.5 399.5Q42 416 47 431Q52 446 66 457Q80 468 105 470L212 478L226 454ZM385 469Q410 468 423.5 456Q437 444 442 428.5Q447 413 444.5 396.5Q442 380 435 369Q428 357 415 347.5Q402 338 386 335.5Q370 333 353 340Q336 347 321 368L261 451L276 475ZM308 346Q319 324 316 308Q313 292 302.5 281Q292 270 276 265Q260 260 244 260Q227 260 211 265.5Q195 271 184.5 281.5Q174 292 172 308.5Q170 325 181 347L231 450H258Z" glyph-name="asterisk" horiz-adv-x="489" unicode="*" /><glyph d="M201 400 160 483Q150 503 151.5 517Q153 531 161.5 540Q170 549 183.5 553.5Q197 558 212 558Q226 558 239.5 553.5Q253 549 262 539.5Q271 530 273 516Q275 502 265 483L223 400ZM180 378 88 383Q66 384 53.5 393.5Q41 403 36.5 416Q32 429 34 443Q36 457 42 467Q48 478 59.5 486Q71 494 85.5 496Q100 498 115.5 491.5Q131 485 144 466L191 396ZM245 378 233 396 281 466Q293 485 308 491Q323 497 337.5 495.5Q352 494 364.5 486Q377 478 383 468Q389 458 391 443.5Q393 429 388.5 415.5Q384 402 372 392.5Q360 383 337 383ZM140 277Q128 260 113.5 255Q99 250 85.5 252Q72 254 61 262.5Q50 271 44 281Q38 292 36 306Q34 320 38.5 333Q43 346 54.5 355Q66 364 88 365L179 370L191 350ZM338 364Q359 363 371 353.5Q383 344 387 330.5Q391 317 389 303Q387 289 381 280Q375 270 363.5 263Q352 256 338.5 254.5Q325 253 310.5 259Q296 265 283 282L233 350L245 367ZM268 261Q277 243 274.5 229.5Q272 216 263 207.5Q254 199 240 194.5Q226 190 212 190Q197 191 183 195.5Q169 200 160 208.5Q151 217 149.5 230.5Q148 244 158 262L201 347H223Z" glyph-name="asterisk.sc" horiz-adv-x="425" /><glyph d="M306 508 259 608Q248 632 249.5 649.5Q251 667 261 678Q271 689 287 694.5Q303 700 319 700Q335 700 350.5 694.5Q366 689 376.5 678Q387 667 389 649.5Q391 632 380 608L333 508ZM288 481 180 489Q154 491 140 502.5Q126 514 120.5 529.5Q115 545 117.5 561.5Q120 578 126 590Q133 602 146.5 612Q160 622 176.5 624.5Q193 627 211 619.5Q229 612 244 589L301 504ZM351 481 338 504 395 589Q410 611 427.5 618.5Q445 626 461.5 624Q478 622 492 612.5Q506 603 513 591Q521 579 523 562.5Q525 546 519.5 530Q514 514 499.5 502.5Q485 491 459 489ZM240 366Q226 345 209 338.5Q192 332 176.5 335Q161 338 148 348Q135 358 129 370Q122 383 119.5 399.5Q117 416 122 431Q127 446 141 457Q155 468 180 470L287 478L301 454ZM460 469Q485 468 498.5 456Q512 444 517 428.5Q522 413 519.5 396.5Q517 380 510 369Q503 357 490 347.5Q477 338 461 335.5Q445 333 428 340Q411 347 396 368L336 451L351 475ZM383 346Q394 324 391 308Q388 292 377.5 281Q367 270 351 265Q335 260 319 260Q302 260 286 265.5Q270 271 259.5 281.5Q249 292 247 308.5Q245 325 256 347L306 450H333Z" glyph-name="asterisk.tln" horiz-adv-x="640" /><glyph d="M536 -213Q427 -213 334.5 -190.5Q242 -168 174.5 -118.5Q107 -69 69 11Q31 91 31 206Q31 312 70 396.5Q109 481 178.5 539.5Q248 598 344.5 629Q441 660 555 660Q673 660 760 634Q847 608 904.5 560Q962 512 990 443.5Q1018 375 1018 289Q1018 142 959 66Q900 -10 779 -10Q699 -10 649.5 21Q600 52 589 97Q577 70 563.5 50Q550 30 531 16.5Q512 3 485.5 -3.5Q459 -10 423 -10Q382 -10 345 2.5Q308 15 281.5 42.5Q255 70 242.5 115.5Q230 161 237 227Q243 289 266.5 332Q290 375 324 402Q358 429 400 441Q442 453 485 453Q534 453 565 439.5Q596 426 619 397L766 453H796L765 180Q763 162 762.5 145Q762 128 766 114.5Q770 101 780 93Q790 85 809 85Q848 85 875.5 130Q903 175 903 278Q903 427 813 493.5Q723 560 544 560Q464 560 391.5 538Q319 516 264.5 472Q210 428 178 361.5Q146 295 146 206Q146 118 175 57Q204 -4 256.5 -41.5Q309 -79 381.5 -96Q454 -113 542 -113Q605 -113 665 -104.5Q725 -96 790 -73L809 -166Q771 -189 702 -201Q633 -213 536 -213ZM488 85Q512 85 530 120.5Q548 156 556 215Q560 247 562 273Q564 299 561.5 318Q559 337 550.5 347.5Q542 358 525 358Q500 358 480 325.5Q460 293 452 227Q448 196 447 170Q446 144 449.5 125Q453 106 462.5 95.5Q472 85 488 85Z" glyph-name="at" horiz-adv-x="1054" unicode="@" /><glyph d="M542 -83Q433 -83 340.5 -60.5Q248 -38 180.5 11.5Q113 61 75 141Q37 221 37 336Q37 442 76 526.5Q115 611 184.5 669.5Q254 728 350.5 759Q447 790 561 790Q679 790 766 764Q853 738 910.5 690Q968 642 996 573.5Q1024 505 1024 419Q1024 272 965 196Q906 120 785 120Q705 120 655.5 151Q606 182 595 227Q583 200 569.5 180Q556 160 537 146.5Q518 133 491.5 126.5Q465 120 429 120Q388 120 351 132.5Q314 145 287.5 172.5Q261 200 248.5 245.5Q236 291 243 357Q249 419 272.5 462Q296 505 330 532Q364 559 406 571Q448 583 491 583Q540 583 571 569.5Q602 556 625 527L772 583H802L771 310Q769 292 768.5 275Q768 258 772 244.5Q776 231 786 223Q796 215 815 215Q854 215 881.5 260Q909 305 909 408Q909 557 819 623.5Q729 690 550 690Q470 690 397.5 668Q325 646 270.5 602Q216 558 184 491.5Q152 425 152 336Q152 248 181 187Q210 126 262.5 88.5Q315 51 387.5 34Q460 17 548 17Q611 17 671 25.5Q731 34 796 57L815 -36Q777 -59 708 -71Q639 -83 542 -83ZM494 215Q518 215 536 250.5Q554 286 562 345Q566 377 568 403Q570 429 567.5 448Q565 467 556.5 477.5Q548 488 531 488Q506 488 486 455.5Q466 423 458 357Q454 326 453 300Q452 274 455.5 255Q459 236 468.5 225.5Q478 215 494 215Z" glyph-name="at.cap" horiz-adv-x="1052" /><glyph d="M403 -8Q330 -8 263 4.5Q196 17 145 47.5Q94 78 64 128.5Q34 179 34 254Q34 329 63.5 385.5Q93 442 145.5 480.5Q198 519 270.5 538.5Q343 558 430 558Q507 558 571.5 544Q636 530 682 501Q728 472 753.5 428.5Q779 385 779 326Q779 217 729.5 169Q680 121 589 121Q526 121 492.5 143.5Q459 166 451 192Q433 154 399.5 137.5Q366 121 327 121Q297 121 269 129.5Q241 138 221 157Q201 176 191 206.5Q181 237 186 280Q191 322 209.5 351Q228 380 253.5 397.5Q279 415 308.5 423Q338 431 366 431Q402 431 428.5 422.5Q455 414 474 399L594 430H615L593 249Q592 239 591 228.5Q590 218 591.5 209.5Q593 201 599.5 195.5Q606 190 620 190Q646 190 666.5 219.5Q687 249 687 317Q687 367 665.5 399Q644 431 608 449.5Q572 468 523.5 475Q475 482 421 482Q363 482 309.5 469Q256 456 215 428.5Q174 401 150 357.5Q126 314 126 254Q126 201 148.5 165.5Q171 130 210 109Q249 88 300.5 79Q352 70 409 70Q455 70 504.5 74.5Q554 79 603 91L616 17Q587 4 531.5 -2Q476 -8 403 -8ZM377 186Q392 186 403.5 208Q415 230 422 272Q428 307 428 334Q428 361 408 361Q394 361 380.5 339.5Q367 318 360 280Q353 243 355 214.5Q357 186 377 186Z" glyph-name="at.sc" horiz-adv-x="806" /><glyph d="M306 -213Q162 -213 89 -116.5Q16 -20 16 166Q16 261 38.5 350Q61 439 105.5 508Q150 577 216.5 618.5Q283 660 371 660Q438 660 485 637Q532 614 561 574.5Q590 535 603.5 481.5Q617 428 617 367Q617 292 610.5 224Q604 156 585.5 104Q567 52 533 21Q499 -10 445 -10Q417 -10 398.5 -2Q380 6 369 20.5Q358 35 353 54.5Q348 74 346 97Q335 47 304 18.5Q273 -10 230 -10Q178 -10 149 38.5Q120 87 131 194Q138 260 155.5 309Q173 358 197 390Q221 422 248.5 437.5Q276 453 302 453Q323 453 336 447Q349 441 357 432.5Q365 424 369 414.5Q373 405 376 397L443 453H493L462 180Q460 162 457.5 145Q455 128 454.5 114.5Q454 101 457 93Q460 85 469 85Q486 85 498 110Q510 135 517.5 175.5Q525 216 528.5 267Q532 318 532 370Q532 417 523 455.5Q514 494 493 521.5Q472 549 438 564.5Q404 580 354 580Q296 580 249.5 544.5Q203 509 170 450.5Q137 392 119 318Q101 244 101 166Q101 27 152.5 -53Q204 -133 312 -133Q344 -133 379.5 -127Q415 -121 460 -93L479 -166Q457 -185 415 -199Q373 -213 306 -213ZM280 85Q285 85 290 90.5Q295 96 300.5 111Q306 126 312 151Q318 176 323 215Q332 278 335 318Q338 358 322 358Q296 358 279 227Q275 196 271 170Q267 144 266 125Q265 106 268 95.5Q271 85 280 85Z" glyph-name="at.tln" horiz-adv-x="640" /><glyph d="M546 -10Q465 -10 421.5 20.5Q378 51 367 107Q348 51 304.5 21.5Q261 -8 186 -8Q107 -8 64.5 30.5Q22 69 22 135Q22 171 36 202.5Q50 234 85 257.5Q120 281 178.5 294.5Q237 308 327 308H350V346Q350 406 328.5 427.5Q307 449 268 449Q250 449 237.5 446.5Q225 444 217 441Q228 430 232 417Q236 404 236 391Q236 378 231.5 364.5Q227 351 216 340.5Q205 330 187.5 323.5Q170 317 144 317Q119 317 101 323.5Q83 330 72.5 340.5Q62 351 57 364.5Q52 378 52 391Q52 458 124.5 496.5Q197 535 323 535Q381 535 430 523.5Q479 512 514.5 486Q550 460 570 416.5Q590 373 590 310V155Q590 126 594 114Q598 102 609 102Q620 102 625 116Q630 130 630 175H707Q707 133 698.5 98.5Q690 64 671 40Q652 16 621.5 3Q591 -10 546 -10ZM306 122Q329 122 339.5 147Q350 172 350 229V258H331Q302 258 282 243Q262 228 262 183Q262 149 274 135.5Q286 122 306 122ZM414 607Q390 607 368 615.5Q346 624 326.5 634.5Q307 645 290 653.5Q273 662 259 662Q239 662 231 649Q223 636 223 611H144Q144 689 169 731.5Q194 774 257 774Q282 774 304.5 765.5Q327 757 346.5 746.5Q366 736 383 727.5Q400 719 415 719Q448 719 448 770H527Q527 731 522.5 701Q518 671 506 650Q494 629 472 618Q450 607 414 607Z" glyph-name="atilde" horiz-adv-x="691" unicode="&#227;" /><glyph d="M363 100Q397 100 413 138.5Q429 177 428 262Q427 346 412 385.5Q397 425 363 425Q298 425 298 271V255Q298 100 363 100ZM58 645H8V745Q86 745 135 746Q184 747 212.5 748.5Q241 750 255 753Q269 756 278 760L298 750V642Q298 605 298 580Q298 555 297.5 534.5Q297 514 296 495.5Q295 477 293 453Q306 476 324 492Q342 508 363 517.5Q384 527 406 531Q428 535 449 535Q499 535 540 515.5Q581 496 610.5 460.5Q640 425 656.5 375Q673 325 673 264Q673 203 656.5 152.5Q640 102 611 66Q582 30 541 10Q500 -10 450 -10Q405 -10 361 5Q317 20 279 63L88 -10H58Z" glyph-name="b" horiz-adv-x="698" unicode="b" /><glyph d="M463 -100 23 760H158L598 -100Z" glyph-name="backslash" horiz-adv-x="619" unicode="\" /><glyph d="M460 -70 20 790H155L595 -70Z" glyph-name="backslash.cap" horiz-adv-x="615" /><glyph d="M421 -60 28 626H159L551 -60Z" glyph-name="backslash.sc" horiz-adv-x="572" /><glyph d="M473 -100 33 760H168L608 -100Z" glyph-name="backslash.tln" horiz-adv-x="640" /><glyph d="M78 -250V840H188V-250Z" glyph-name="bar" horiz-adv-x="266" unicode="|" /><glyph d="M74 -200V890H184V-200Z" glyph-name="bar.cap" horiz-adv-x="258" /><glyph d="M265 -250V840H375V-250Z" glyph-name="bar.tln" horiz-adv-x="640" /><glyph d="M413 -260Q315 -260 256.5 -239.5Q198 -219 166.5 -185.5Q135 -152 124.5 -109.5Q114 -67 112 -22Q110 23 111.5 65.5Q113 108 105 141.5Q97 175 74 195.5Q51 216 1 216V311Q51 311 74 330.5Q97 350 104.5 381.5Q112 413 110.5 453Q109 493 110.5 535.5Q112 578 122.5 618Q133 658 164.5 689.5Q196 721 255 740.5Q314 760 413 760V660Q374 660 360.5 631.5Q347 603 343.5 560Q340 517 339.5 466Q339 415 325.5 371Q312 327 277 296.5Q242 266 170 263Q242 259 277 226Q312 193 326.5 146Q341 99 341.5 45Q342 -9 345 -54.5Q348 -100 361 -130Q374 -160 413 -160Z" glyph-name="braceleft" horiz-adv-x="442" unicode="{" /><glyph d="M414 -180Q316 -180 257.5 -159.5Q199 -139 167.5 -105.5Q136 -72 125.5 -29.5Q115 13 113 58Q111 103 112.5 145.5Q114 188 106 221.5Q98 255 75 275.5Q52 296 2 296V391Q52 391 75 410.5Q98 430 105.5 461.5Q113 493 111.5 533Q110 573 111.5 615.5Q113 658 123.5 698Q134 738 165.5 769.5Q197 801 256 820.5Q315 840 414 840V740Q375 740 361.5 711.5Q348 683 344.5 640Q341 597 340.5 546Q340 495 326.5 451Q313 407 278 376.5Q243 346 171 343Q243 339 278 306Q313 273 327.5 226Q342 179 342.5 125Q343 71 346 25.5Q349 -20 362.5 -50Q376 -80 414 -80Z" glyph-name="braceleft.cap" horiz-adv-x="447" /><glyph d="M391 -130Q301 -130 246.5 -114Q192 -98 162 -71.5Q132 -45 121.5 -11.5Q111 22 109 56.5Q107 91 108 124.5Q109 158 102 184.5Q95 211 74.5 227Q54 243 9 243V332Q54 332 74 347Q94 362 101 387Q108 412 107 443.5Q106 475 108 507.5Q110 540 120 571.5Q130 603 160 628Q190 653 245 668Q300 683 391 683V588Q359 588 348.5 566.5Q338 545 335.5 512Q333 479 331.5 440.5Q330 402 316.5 369Q303 336 271 312.5Q239 289 174 287Q239 284 271.5 258.5Q304 233 317.5 197Q331 161 333 120Q335 79 337.5 44.5Q340 10 350 -13Q360 -36 391 -36Z" glyph-name="braceleft.sc" horiz-adv-x="427" /><glyph d="M512 -260Q414 -260 355.5 -239.5Q297 -219 265.5 -185.5Q234 -152 223.5 -109.5Q213 -67 211 -22Q209 23 210.5 65.5Q212 108 204 141.5Q196 175 173 195.5Q150 216 100 216V311Q150 311 173 330.5Q196 350 203.5 381.5Q211 413 209.5 453Q208 493 209.5 535.5Q211 578 221.5 618Q232 658 263.5 689.5Q295 721 354 740.5Q413 760 512 760V660Q473 660 459.5 631.5Q446 603 442.5 560Q439 517 438.5 466Q438 415 424.5 371Q411 327 376 296.5Q341 266 269 263Q341 259 376 226Q411 193 425.5 146Q440 99 440.5 45Q441 -9 444 -54.5Q447 -100 460.5 -130Q474 -160 512 -160Z" glyph-name="braceleft.tln" horiz-adv-x="640" /><glyph d="M29 -160Q68 -160 81 -130Q94 -100 97 -54.5Q100 -9 100.5 45Q101 99 115.5 146Q130 193 165 226Q200 259 272 263Q200 266 165 296.5Q130 327 116.5 371Q103 415 102.5 466Q102 517 98.5 560Q95 603 81.5 631.5Q68 660 29 660V760Q128 760 187 740.5Q246 721 277.5 689.5Q309 658 319.5 618Q330 578 331.5 535.5Q333 493 331.5 453Q330 413 337.5 381.5Q345 350 368 330.5Q391 311 441 311V216Q391 216 368 195.5Q345 175 337 141.5Q329 108 330.5 65.5Q332 23 330 -22Q328 -67 317.5 -109.5Q307 -152 275.5 -185.5Q244 -219 185.5 -239.5Q127 -260 29 -260Z" glyph-name="braceright" horiz-adv-x="442" unicode="}" /><glyph d="M33 -80Q72 -80 85 -50Q98 -20 101 25.5Q104 71 104.5 125Q105 179 119.5 226Q134 273 169 306Q204 339 276 343Q204 346 169 376.5Q134 407 120.5 451Q107 495 106.5 546Q106 597 102.5 640Q99 683 85.5 711.5Q72 740 33 740V840Q132 840 191 820.5Q250 801 281.5 769.5Q313 738 323.5 698Q334 658 335.5 615.5Q337 573 335.5 533Q334 493 341.5 461.5Q349 430 372 410.5Q395 391 445 391V296Q395 296 372 275.5Q349 255 341 221.5Q333 188 334.5 145.5Q336 103 334 58Q332 13 321.5 -29.5Q311 -72 279.5 -105.5Q248 -139 189.5 -159.5Q131 -180 33 -180Z" glyph-name="braceright.cap" horiz-adv-x="447" /><glyph d="M36 -36Q67 -36 77 -13Q87 10 89.5 44.5Q92 79 94 120Q96 161 109.5 197Q123 233 156 258Q189 283 253 287Q189 289 156.5 312.5Q124 336 110.5 369Q97 402 95.5 440.5Q94 479 91.5 512Q89 545 78.5 566.5Q68 588 36 588V683Q127 683 182 668Q237 653 266.5 628Q296 603 306.5 571.5Q317 540 319 507.5Q321 475 319.5 443.5Q318 412 325 387Q332 362 352.5 347Q373 332 418 332V243Q373 243 352.5 227Q332 211 324.5 184.5Q317 158 318 124.5Q319 91 317 56.5Q315 22 304.5 -11.5Q294 -45 264.5 -71.5Q235 -98 180.5 -114Q126 -130 36 -130Z" glyph-name="braceright.sc" horiz-adv-x="427" /><glyph d="M128 -160Q167 -160 180 -130Q193 -100 196 -54.5Q199 -9 200 45Q201 99 215 146Q229 193 264 226Q299 259 371 263Q299 266 264 296.5Q229 327 215.5 371Q202 415 201.5 466Q201 517 197.5 560Q194 603 181 631.5Q168 660 128 660V760Q227 760 286 740.5Q345 721 376.5 689.5Q408 658 418.5 618Q429 578 430.5 535.5Q432 493 430.5 453Q429 413 436.5 381.5Q444 350 467 330.5Q490 311 540 311V216Q490 216 467 195.5Q444 175 436 141.5Q428 108 429.5 65.5Q431 23 429 -22Q427 -67 416.5 -109.5Q406 -152 374.5 -185.5Q343 -219 284.5 -239.5Q226 -260 128 -260Z" glyph-name="braceright.tln" horiz-adv-x="640" /><glyph d="M78 -250V750H462V650H323V-150H462V-250Z" glyph-name="bracketleft" horiz-adv-x="481" unicode="[" /><glyph d="M74 -170V830H458V730H319V-70H458V-170Z" glyph-name="bracketleft.cap" horiz-adv-x="479" /><glyph d="M77 -120V677H442V582H317V-26H442V-120Z" glyph-name="bracketleft.sc" horiz-adv-x="467" /><glyph d="M158 -250V750H542V650H403V-150H542V-250Z" glyph-name="bracketleft.tln" horiz-adv-x="640" /><glyph d="M19 -150H158V650H19V750H403V-250H19Z" glyph-name="bracketright" horiz-adv-x="481" unicode="]" /><glyph d="M21 -70H160V730H21V830H405V-170H21Z" glyph-name="bracketright.cap" horiz-adv-x="479" /><glyph d="M25 -26H149V582H25V677H389V-120H25Z" glyph-name="bracketright.sc" horiz-adv-x="466" /><glyph d="M98 -150H237V650H98V750H482V-250H98Z" glyph-name="bracketright.tln" horiz-adv-x="640" /><glyph d="M213 715Q245 715 260.5 730.5Q276 746 280 774H371Q371 746 364.5 716Q358 686 341 661.5Q324 637 293 621.5Q262 606 213 606Q165 606 133 621.5Q101 637 81.5 661.5Q62 686 53.5 716Q45 746 45 774H136Q141 746 161 730.5Q181 715 213 715Z" glyph-name="breve" horiz-adv-x="416" unicode="&#728;" /><glyph d="M192 849Q227 849 244 864.5Q261 880 265 903H360Q360 876 354 847Q348 818 331 794Q314 770 282.5 755Q251 740 201 740Q151 740 117 755Q83 770 62.5 794Q42 818 33.5 847Q25 876 25 903H120Q125 880 142.5 864.5Q160 849 192 849Z" glyph-name="breve.cap" horiz-adv-x="385" /><glyph d="M77 400V840H187V400ZM77 -250V190H187V-250Z" glyph-name="brokenbar" horiz-adv-x="264" unicode="&#166;" /><glyph d="M265 400V840H375V400ZM265 -250V190H375V-250Z" glyph-name="brokenbar.tln" horiz-adv-x="640" /><glyph d="M532 153Q512 68 456 29Q400 -10 297 -10Q240 -10 190 7.5Q140 25 103.5 59.5Q67 94 45.5 145Q24 196 24 263Q24 330 45 381Q66 432 102.5 466Q139 500 189 517.5Q239 535 297 535Q350 535 392 524Q434 513 463.5 494.5Q493 476 509 451.5Q525 427 525 399Q525 357 502 331Q479 305 433 305Q388 305 364 326Q340 347 340 378Q340 414 360 434Q356 435 352.5 435Q349 435 346 435Q302 435 285.5 389.5Q269 344 269 263Q269 175 292.5 133.5Q316 92 368 92Q434 92 454 181Z" glyph-name="c" horiz-adv-x="546" unicode="c" /><glyph d="M820 -10Q714 -10 663.5 47.5Q613 105 613 219V420H563V500Q631 500 658 519.5Q685 539 685 575Q685 609 659.5 635.5Q634 662 576 662Q513 662 474.5 624Q436 586 434 517Q482 500 504 471.5Q526 443 526 410Q526 368 503 350.5Q480 333 450 333Q390 333 363.5 361.5Q337 390 329 432Q311 428 299 414Q287 400 280.5 377.5Q274 355 271 326.5Q268 298 268 265Q268 229 271.5 197.5Q275 166 285.5 142.5Q296 119 314.5 105.5Q333 92 363 92Q402 92 422 114Q442 136 453 181L531 153Q521 116 504 86Q487 56 461 34.5Q435 13 398 1.5Q361 -10 310 -10Q246 -10 193 9Q140 28 102.5 63Q65 98 44 149Q23 200 23 263Q23 331 48 381.5Q73 432 114 466.5Q155 501 206.5 518Q258 535 312 535H326Q332 582 353 622.5Q374 663 408.5 694Q443 725 491.5 742.5Q540 760 600 760Q656 760 702 746Q748 732 781 704.5Q814 677 832 636Q850 595 850 540V520H1006V420H853V233Q853 177 862 143Q871 109 899 109Q928 109 937.5 143.5Q947 178 947 232H1022Q1022 112 974.5 51Q927 -10 820 -10Z" glyph-name="c_t" horiz-adv-x="1035" /><glyph d="M799 -10Q769 -10 734 -3.5Q699 3 669 23.5Q639 44 619 82Q599 120 599 182V420H543V520H599Q599 552 594 578Q589 604 576.5 622.5Q564 641 542 651Q520 661 487 661Q427 661 401.5 624.5Q376 588 376 529Q448 517 479.5 485Q511 453 511 408Q511 368 488 348Q465 328 423 328Q379 328 348.5 352Q318 376 300 414Q283 394 276 355.5Q269 317 269 263Q269 175 292.5 133.5Q316 92 368 92Q434 92 454 181L532 153Q512 68 456 29Q400 -10 297 -10Q240 -10 190 7.5Q140 25 103.5 59.5Q67 94 45.5 145Q24 196 24 263Q24 327 43 376Q62 425 95 459Q128 493 173.5 512Q219 531 273 534V552Q273 600 290.5 638.5Q308 677 338 704Q368 731 409 745.5Q450 760 498 760Q586 760 639.5 723Q693 686 729 607L847 770L898 750Q889 727 878.5 702.5Q868 678 859.5 650Q851 622 845 590Q839 558 839 520H1008V420H839V218Q839 157 848 133.5Q857 110 885 110Q903 110 912.5 126Q922 142 926 163Q930 184 930.5 204Q931 224 931 232H1006Q1006 191 999.5 148Q993 105 971.5 70Q950 35 909 12.5Q868 -10 799 -10Z" glyph-name="c_t.alt" horiz-adv-x="1024" /><glyph d="M413 32Q402 24 390.5 17Q379 10 365 4.5Q351 -1 332.5 -4.5Q314 -8 288 -8Q231 -8 182.5 11.5Q134 31 98.5 68Q63 105 43.5 157Q24 209 24 275Q24 341 43.5 393Q63 445 98 482Q133 519 181.5 538.5Q230 558 287 558Q336 558 367.5 546.5Q399 535 410 521L437 557H540V346H429Q424 396 409 428Q394 460 352 460Q309 460 288.5 413Q268 366 268 275Q268 174 289 132Q310 90 350 90Q373 90 388 100Q403 110 412 126.5Q421 143 425.5 164.5Q430 186 432 208H544V-8H441ZM704 94H759V458H754Q719 458 705 436.5Q691 415 691 367V330H580V550H1178V330H1067V367Q1067 415 1053 436.5Q1039 458 1004 458H999V94H1053V0H704Z" glyph-name="c_t.alt.sc" horiz-adv-x="1194" /><glyph d="M413 32Q402 24 390.5 17Q379 10 365 4.5Q351 -1 332.5 -4.5Q314 -8 288 -8Q231 -8 182.5 11.5Q134 31 98.5 68Q63 105 43.5 157Q24 209 24 275Q24 341 43.5 393Q63 445 98 482Q133 519 181.5 538.5Q230 558 287 558Q336 558 367.5 546.5Q399 535 410 521L437 557H540V346H429Q424 396 409 428Q394 460 352 460Q309 460 288.5 413Q268 366 268 275Q268 174 289 132Q310 90 350 90Q373 90 388 100Q403 110 412 126.5Q421 143 425.5 164.5Q430 186 432 208H544V-8H441ZM704 94H759V458H754Q719 458 705 436.5Q691 415 691 367V330H580V550H1178V330H1067V367Q1067 415 1053 436.5Q1039 458 1004 458H999V94H1053V0H704Z" glyph-name="c_t.sc" horiz-adv-x="1194" /><glyph d="M124 797 236 728 344 797H446L273 621H200L22 797Z" glyph-name="caron" horiz-adv-x="468" unicode="&#711;" /><glyph d="M138 876 220 829 296 876H438L280 740H164L1 876Z" glyph-name="caron.cap" horiz-adv-x="408" /><glyph d="M312 -218Q274 -218 245.5 -214Q217 -210 195 -200V-120Q216 -136 248 -136Q262 -136 270 -130Q278 -124 278 -111Q278 -94 262 -88Q246 -82 221 -82V-65L241 -6Q194 2 154.5 23Q115 44 86 78Q57 112 40.5 158.5Q24 205 24 263Q24 330 45 381Q66 432 102.5 466Q139 500 189 517.5Q239 535 297 535Q350 535 392 524Q434 513 463.5 494.5Q493 476 509 451.5Q525 427 525 399Q525 357 502 331Q479 305 433 305Q388 305 364 326Q340 347 340 378Q340 414 360 434Q356 435 352.5 435Q349 435 346 435Q302 435 285.5 389.5Q269 344 269 263Q269 175 292.5 133.5Q316 92 368 92Q434 92 454 181L532 153Q515 82 473.5 43.5Q432 5 359 -6L348 -39Q390 -44 417.5 -65.5Q445 -87 445 -125Q445 -166 413 -192Q381 -218 312 -218Z" glyph-name="ccedilla" horiz-adv-x="546" unicode="&#231;" /><glyph d="M183 -218Q145 -218 116.5 -214Q88 -210 66 -200V-120Q87 -136 119 -136Q133 -136 141 -130Q149 -124 149 -111Q149 -94 133 -88Q117 -82 92 -82V-65L120 17H238L219 -39Q261 -44 288.5 -65.5Q316 -87 316 -125Q316 -166 284 -192Q252 -218 183 -218Z" glyph-name="cedilla" horiz-adv-x="367" unicode="&#184;" /><glyph d="M542 233Q524 158 479 119Q434 80 354 72V-20H279V71Q227 75 182 94.5Q137 114 104 148.5Q71 183 52.5 231.5Q34 280 34 343Q34 406 52.5 454.5Q71 503 103.5 537Q136 571 181 590.5Q226 610 279 614V697H354V613Q439 603 487 565.5Q535 528 535 479Q535 437 512 411Q489 385 443 385Q398 385 374 406Q350 427 350 458Q350 494 370 514Q366 515 362.5 515Q359 515 356 515Q312 515 295.5 469.5Q279 424 279 343Q279 255 302.5 213.5Q326 172 378 172Q444 172 464 261Z" glyph-name="cent" horiz-adv-x="572" unicode="&#162;" /><glyph d="M540 153Q522 78 477 39Q432 0 352 -8V-100H277V-9Q225 -5 180 14.5Q135 34 102 68.5Q69 103 50.5 151.5Q32 200 32 263Q32 326 50.5 374.5Q69 423 101.5 457Q134 491 179 510.5Q224 530 277 534V617H352V533Q437 523 485 485.5Q533 448 533 399Q533 357 510 331Q487 305 441 305Q396 305 372 326Q348 347 348 378Q348 414 368 434Q364 435 360.5 435Q357 435 354 435Q310 435 293.5 389.5Q277 344 277 263Q277 175 300.5 133.5Q324 92 376 92Q442 92 462 181Z" glyph-name="cent.old" horiz-adv-x="566" /><glyph d="M496 186Q479 126 439 94.5Q399 63 325 56V-8H253V55Q205 58 164 74Q123 90 93 118Q63 146 46 185Q29 224 29 275Q29 326 45.5 365.5Q62 405 92 432.5Q122 460 163 475.5Q204 491 253 494V558H325V493Q407 485 448.5 454.5Q490 424 490 378Q490 345 470 322.5Q450 300 405 300Q363 300 341.5 319Q320 338 320 364Q320 388 328 401Q292 401 280.5 366.5Q269 332 269 275Q269 219 287.5 184.5Q306 150 351 150Q405 150 420 212Z" glyph-name="cent.sc" horiz-adv-x="523" /><glyph d="M576 233Q558 158 513 119Q468 80 388 72V-20H313V71Q261 75 216 94.5Q171 114 138 148.5Q105 183 86.5 231.5Q68 280 68 343Q68 406 86.5 454.5Q105 503 137.5 537Q170 571 215 590.5Q260 610 313 614V697H388V613Q473 603 521 565.5Q569 528 569 479Q569 437 546 411Q523 385 477 385Q432 385 408 406Q384 427 384 458Q384 494 404 514Q400 515 396.5 515Q393 515 390 515Q346 515 329.5 469.5Q313 424 313 343Q313 255 336.5 213.5Q360 172 412 172Q478 172 498 261Z" glyph-name="cent.tln" horiz-adv-x="640" /><glyph d="M576 153Q558 78 513 39Q468 0 388 -8V-100H313V-9Q261 -5 216 14.5Q171 34 138 68.5Q105 103 86.5 151.5Q68 200 68 263Q68 326 86.5 374.5Q105 423 137.5 457Q170 491 215 510.5Q260 530 313 534V617H388V533Q473 523 521 485.5Q569 448 569 399Q569 357 546 331Q523 305 477 305Q432 305 408 326Q384 347 384 378Q384 414 404 434Q400 435 396.5 435Q393 435 390 435Q346 435 329.5 389.5Q313 344 313 263Q313 175 336.5 133.5Q360 92 412 92Q478 92 498 181Z" glyph-name="cent.ton" horiz-adv-x="640" /><glyph d="M12 621 190 797H263L436 621H334L226 690L114 621Z" glyph-name="circumflex" horiz-adv-x="448" unicode="&#710;" /><glyph d="M21 740 184 876H300L458 740H316L240 787L158 740Z" glyph-name="circumflex.cap" horiz-adv-x="479" /><glyph d="M243 388Q243 347 217.5 322.5Q192 298 144 298Q98 298 72.5 322.5Q47 347 47 388Q47 430 72.5 456.5Q98 483 144 483Q192 483 217.5 456.5Q243 430 243 388ZM243 80Q243 39 217.5 14.5Q192 -10 144 -10Q98 -10 72.5 14.5Q47 39 47 80Q47 122 72.5 148.5Q98 175 144 175Q192 175 217.5 148.5Q243 122 243 80Z" glyph-name="colon" horiz-adv-x="290" unicode=":" /><glyph d="M418 388Q418 347 392.5 322.5Q367 298 319 298Q273 298 247.5 322.5Q222 347 222 388Q222 430 247.5 456.5Q273 483 319 483Q367 483 392.5 456.5Q418 430 418 388ZM418 80Q418 39 392.5 14.5Q367 -10 319 -10Q273 -10 247.5 14.5Q222 39 222 80Q222 122 247.5 148.5Q273 175 319 175Q367 175 392.5 148.5Q418 122 418 80Z" glyph-name="colon.tln" horiz-adv-x="640" /><glyph d="M53 -76Q88 -76 111 -59Q134 -42 137 -11Q91 -7 62.5 16Q34 39 34 77Q34 117 58.5 146.5Q83 176 131 176Q186 176 213 140Q240 104 240 52Q240 13 228 -22.5Q216 -58 192.5 -85Q169 -112 134 -128.5Q99 -145 53 -146Z" glyph-name="comma" horiz-adv-x="276" unicode="," /><glyph d="M235 -76Q270 -76 293 -59Q316 -42 319 -11Q273 -7 244.5 16Q216 39 216 77Q216 117 240.5 146.5Q265 176 313 176Q368 176 395 140Q422 104 422 52Q422 13 410 -22.5Q398 -58 374.5 -85Q351 -112 316 -128.5Q281 -145 235 -146Z" glyph-name="comma.tln" horiz-adv-x="640" /><glyph d="M378 -10Q303 -10 239.5 18.5Q176 47 130 95.5Q84 144 58 210Q32 276 32 351Q32 426 58.5 490Q85 554 131.5 600.5Q178 647 241 673.5Q304 700 378 700Q452 700 515.5 673.5Q579 647 625.5 600.5Q672 554 698.5 490Q725 426 725 351Q725 276 698.5 210Q672 144 625.5 95.5Q579 47 515.5 18.5Q452 -10 378 -10ZM378 90Q429 90 472.5 109.5Q516 129 547.5 164Q579 199 597 246.5Q615 294 615 350Q615 405 597 451Q579 497 547.5 530Q516 563 472.5 581.5Q429 600 378 600Q327 600 284 581.5Q241 563 209.5 530Q178 497 160 451Q142 405 142 350Q142 294 159.5 246.5Q177 199 208 164Q239 129 282.5 109.5Q326 90 378 90ZM434 183Q420 172 404 165Q388 158 361 158Q327 158 299 173Q271 188 251 214Q231 240 220 275Q209 310 209 350Q209 390 220 425Q231 460 251 485.5Q271 511 299 526Q327 541 360 541Q388 541 406 534.5Q424 528 432 517L448 541H512V400H443Q440 433 429.5 455.5Q419 478 393 478Q337 478 337 350Q337 280 351.5 251Q366 222 392 222Q406 222 416 229Q426 236 432 247.5Q438 259 441 273Q444 287 445 302H514V158H450Z" glyph-name="copyright" horiz-adv-x="757" unicode="&#169;" /><glyph d="M304 -10Q243 -10 192.5 12Q142 34 106 71.5Q70 109 50 159.5Q30 210 30 267Q30 325 50.5 374Q71 423 107 459Q143 495 193.5 515Q244 535 304 535Q364 535 414.5 515Q465 495 501.5 459Q538 423 558.5 374Q579 325 579 267Q579 210 558.5 159.5Q538 109 501.5 71.5Q465 34 414.5 12Q364 -10 304 -10ZM304 70Q347 70 381 84.5Q415 99 439 125Q463 151 476 187Q489 223 489 266Q489 308 476 343Q463 378 439 402.5Q415 427 381 441Q347 455 304 455Q261 455 227 441Q193 427 169 402.5Q145 378 132.5 343Q120 308 120 266Q120 223 132.5 187Q145 151 168.5 125Q192 99 226.5 84.5Q261 70 304 70ZM344 138Q333 130 321 124.5Q309 119 288 119Q263 119 240.5 130.5Q218 142 202 162Q186 182 176.5 208.5Q167 235 167 266Q167 297 176.5 323.5Q186 350 202 370Q218 390 240.5 401.5Q263 413 288 413Q309 413 323 408Q337 403 342 395L355 413H410V300H351Q349 325 341 342.5Q333 360 313 360Q292 360 284 338Q276 316 276 266Q276 212 284 192.5Q292 173 312 173Q334 173 342 192.5Q350 212 352 234H411V119H356Z" glyph-name="copyright.old" horiz-adv-x="609" /><glyph d="M326 -8Q262 -8 207.5 14.5Q153 37 113.5 76Q74 115 52 167.5Q30 220 30 280Q30 340 52.5 390.5Q75 441 115 478.5Q155 516 209 537Q263 558 326 558Q390 558 444.5 537Q499 516 539 478.5Q579 441 601.5 390.5Q624 340 624 280Q624 220 601.5 167.5Q579 115 539 76Q499 37 444.5 14.5Q390 -8 326 -8ZM326 68Q373 68 412 84Q451 100 479.5 128.5Q508 157 524 195.5Q540 234 540 279Q540 323 524 360.5Q508 398 479.5 425Q451 452 412 467Q373 482 326 482Q280 482 241 467Q202 452 173.5 425Q145 398 129.5 360.5Q114 323 114 279Q114 234 129.5 195.5Q145 157 173 128.5Q201 100 240 84Q279 68 326 68ZM365 147Q354 142 342 136.5Q330 131 305 131Q278 131 254.5 142Q231 153 214 172.5Q197 192 187.5 219Q178 246 178 279Q178 312 187.5 339Q197 366 214 385.5Q231 405 254.5 416Q278 427 305 427Q328 427 343.5 422.5Q359 418 364 411L377 427H436V315H373Q371 337 364 353.5Q357 370 337 370Q294 370 294 279Q294 227 304 208Q314 189 334 189Q357 189 365 208Q373 227 375 246H437V131H378Z" glyph-name="copyright.sc" horiz-adv-x="653" /><glyph d="M319 -10Q258 -10 207.5 12Q157 34 121 71.5Q85 109 65 159.5Q45 210 45 267Q45 325 65.5 374Q86 423 122 459Q158 495 208.5 515Q259 535 319 535Q379 535 429.5 515Q480 495 516.5 459Q553 423 573.5 374Q594 325 594 267Q594 210 573.5 159.5Q553 109 516.5 71.5Q480 34 429.5 12Q379 -10 319 -10ZM319 70Q362 70 396 84.5Q430 99 454 125Q478 151 491 187Q504 223 504 266Q504 308 491 343Q478 378 454 402.5Q430 427 396 441Q362 455 319 455Q276 455 242 441Q208 427 184 402.5Q160 378 147.5 343Q135 308 135 266Q135 223 147.5 187Q160 151 183.5 125Q207 99 241.5 84.5Q276 70 319 70ZM359 138Q348 130 336 124.5Q324 119 303 119Q278 119 255.5 130.5Q233 142 217 162Q201 182 191.5 208.5Q182 235 182 266Q182 297 191.5 323.5Q201 350 217 370Q233 390 255.5 401.5Q278 413 303 413Q324 413 338 408Q352 403 357 395L370 413H425V300H366Q364 325 356 342.5Q348 360 328 360Q307 360 299 338Q291 316 291 266Q291 212 299 192.5Q307 173 327 173Q349 173 357 192.5Q365 212 367 234H426V119H371Z" glyph-name="copyright.tln" horiz-adv-x="640" /><glyph d="M319 -10Q258 -10 207.5 12Q157 34 121 71.5Q85 109 65 159.5Q45 210 45 267Q45 325 65.5 374Q86 423 122 459Q158 495 208.5 515Q259 535 319 535Q379 535 429.5 515Q480 495 516.5 459Q553 423 573.5 374Q594 325 594 267Q594 210 573.5 159.5Q553 109 516.5 71.5Q480 34 429.5 12Q379 -10 319 -10ZM319 70Q362 70 396 84.5Q430 99 454 125Q478 151 491 187Q504 223 504 266Q504 308 491 343Q478 378 454 402.5Q430 427 396 441Q362 455 319 455Q276 455 242 441Q208 427 184 402.5Q160 378 147.5 343Q135 308 135 266Q135 223 147.5 187Q160 151 183.5 125Q207 99 241.5 84.5Q276 70 319 70ZM359 138Q348 130 336 124.5Q324 119 303 119Q278 119 255.5 130.5Q233 142 217 162Q201 182 191.5 208.5Q182 235 182 266Q182 297 191.5 323.5Q201 350 217 370Q233 390 255.5 401.5Q278 413 303 413Q324 413 338 408Q352 403 357 395L370 413H425V300H366Q364 325 356 342.5Q348 360 328 360Q307 360 299 338Q291 316 291 266Q291 212 299 192.5Q307 173 327 173Q349 173 357 192.5Q365 212 367 234H426V119H371Z" glyph-name="copyright.ton" horiz-adv-x="640" /><glyph d="M364 148Q323 126 278 126Q254 126 231 132.5Q208 139 188 150L100 62L33 129L120 216Q92 261 92 313Q92 363 117 405L33 489L104 560L189 475Q230 500 278 500Q327 500 369 475L454 560L521 493L437 409Q465 364 465 313Q465 286 458 262Q451 238 438 216L521 133L450 62ZM278 400Q242 400 218 374Q194 348 194 310Q194 273 218 246.5Q242 220 278 220Q313 220 339 246Q365 272 365 310Q365 348 339 374Q313 400 278 400Z" glyph-name="currency" horiz-adv-x="553" unicode="&#164;" /><glyph d="M310 133Q275 117 241 117Q221 117 202 122Q183 127 166 135L93 61L35 120L108 197Q85 232 85 275Q85 315 105 347L35 417L97 480L167 410Q200 428 241 428Q281 428 314 410L385 480L443 421L373 351Q386 334 391.5 314.5Q397 295 397 275Q397 232 374 197L443 124L381 61ZM241 341Q209 342 190.5 321.5Q172 301 172 272Q172 244 190.5 224.5Q209 205 241 204Q273 203 291.5 223Q310 243 310 272Q310 301 291.5 320.5Q273 340 241 341Z" glyph-name="currency.sc" horiz-adv-x="478" /><glyph d="M408 148Q367 126 322 126Q298 126 275 132.5Q252 139 232 150L144 62L77 129L164 216Q136 261 136 313Q136 363 161 405L77 489L148 560L233 475Q274 500 322 500Q371 500 413 475L498 560L565 493L481 409Q509 364 509 313Q509 286 502 262Q495 238 482 216L565 133L494 62ZM322 400Q286 400 262 374Q238 348 238 310Q238 273 262 246.5Q286 220 322 220Q357 220 383 246Q409 272 409 310Q409 348 383 374Q357 400 322 400Z" glyph-name="currency.tln" horiz-adv-x="640" /><glyph d="M239 607Q143 607 84 639Q25 671 25 731Q25 775 49.5 798.5Q74 822 112 822Q152 822 176.5 799.5Q201 777 201 741Q201 701 178 680Q185 676 200.5 671.5Q216 667 240 667Q263 667 278 672Q293 677 301 680Q279 701 279 741Q279 777 302.5 799.5Q326 822 368 822Q405 822 430 798.5Q455 775 455 731Q455 700 439.5 676.5Q424 653 395.5 637.5Q367 622 327 614.5Q287 607 239 607Z" glyph-name="cyrbreve" horiz-adv-x="480" unicode="&#63188;" /><glyph d="M269 731Q166 731 111.5 761Q57 791 57 845Q57 881 81 903.5Q105 926 143 926Q191 926 211.5 902Q232 878 232 849Q232 818 208 799Q215 795 229.5 793Q244 791 269 791Q294 791 308.5 793Q323 795 330 799Q306 818 306 849Q306 878 326.5 902Q347 926 395 926Q433 926 457 903.5Q481 881 481 845Q481 791 426.5 761Q372 731 269 731Z" glyph-name="cyrbreve.cap" horiz-adv-x="539" /><glyph d="M640 105H690V5Q616 5 569.5 4Q523 3 495.5 1.5Q468 0 454 -3Q440 -6 431 -10L411 0V94Q386 34 345 12Q304 -10 259 -10Q219 -10 177.5 5Q136 20 102 53Q68 86 46.5 138Q25 190 25 263Q25 330 47 380.5Q69 431 103 465.5Q137 500 178.5 517.5Q220 535 260 535Q320 535 356.5 512.5Q393 490 405 461Q404 487 403 507.5Q402 528 401 546.5Q400 565 399.5 584Q399 603 399 625V645H349V745Q424 745 472 746Q520 747 550 748.5Q580 750 595.5 753Q611 756 620 760L640 750ZM335 425Q301 425 286 385.5Q271 346 270 262Q269 177 285 138.5Q301 100 335 100Q400 100 400 255V271Q400 425 335 425Z" glyph-name="d" horiz-adv-x="712" unicode="d" /><glyph d="M169 433Q136 433 110 443.5Q84 454 66 472Q48 490 38.5 514.5Q29 539 29 566Q29 593 39 617.5Q49 642 67 660.5Q85 679 111 690Q137 701 169 701Q201 701 226.5 690.5Q252 680 270 661.5Q288 643 298 618.5Q308 594 308 566Q308 539 298 514.5Q288 490 270 472Q252 454 226.5 443.5Q201 433 169 433ZM169 496Q201 496 219.5 516.5Q238 537 237 566Q236 597 218 618Q200 639 169 639Q138 639 120 618.5Q102 598 102 566Q102 537 120 516.5Q138 496 169 496Z" glyph-name="degree" horiz-adv-x="337" unicode="&#176;" /><glyph d="M320 433Q287 433 261 443.5Q235 454 217 472Q199 490 189.5 514.5Q180 539 180 566Q180 593 190 617.5Q200 642 218 660.5Q236 679 262 690Q288 701 320 701Q352 701 377.5 690.5Q403 680 421 661.5Q439 643 449 618.5Q459 594 459 566Q459 539 449 514.5Q439 490 421 472Q403 454 377.5 443.5Q352 433 320 433ZM320 496Q352 496 370.5 516.5Q389 537 388 566Q387 597 369 618Q351 639 320 639Q289 639 271 618.5Q253 598 253 566Q253 537 271 516.5Q289 496 320 496Z" glyph-name="degree.tln" horiz-adv-x="640" /><glyph d="M273 697Q273 655 246.5 631Q220 607 177 607Q135 607 108.5 631Q82 655 82 697Q82 739 108.5 765Q135 791 177 791Q220 791 246.5 765Q273 739 273 697ZM490 697Q490 655 464 631Q438 607 395 607Q353 607 326.5 631Q300 655 300 697Q300 739 326.5 765Q353 791 395 791Q438 791 464 765Q490 739 490 697Z" glyph-name="dieresis" horiz-adv-x="517" unicode="&#168;" /><glyph d="M196 824Q196 787 172 765.5Q148 744 110 744Q73 744 49 765.5Q25 787 25 824Q25 861 49 884.5Q73 908 110 908Q148 908 172 884.5Q196 861 196 824ZM413 824Q413 787 389.5 765.5Q366 744 328 744Q291 744 267 765.5Q243 787 243 824Q243 861 267 884.5Q291 908 328 908Q366 908 389.5 884.5Q413 861 413 824Z" glyph-name="dieresis.cap" horiz-adv-x="438" /><glyph d="M352 519Q352 478 326.5 453.5Q301 429 253 429Q207 429 181.5 453.5Q156 478 156 519Q156 561 181.5 587.5Q207 614 253 614Q301 614 326.5 587.5Q352 561 352 519ZM466 393V298H30V393ZM352 171Q352 130 326.5 105.5Q301 81 253 81Q207 81 181.5 105.5Q156 130 156 171Q156 213 181.5 239.5Q207 266 253 266Q301 266 326.5 239.5Q352 213 352 171Z" glyph-name="divide" horiz-adv-x="496" unicode="&#247;" /><glyph d="M348 429Q348 388 322.5 363.5Q297 339 249 339Q203 339 177.5 363.5Q152 388 152 429Q152 471 177.5 497.5Q203 524 249 524Q297 524 322.5 497.5Q348 471 348 429ZM462 303V208H26V303ZM348 81Q348 40 322.5 15.5Q297 -9 249 -9Q203 -9 177.5 15.5Q152 40 152 81Q152 123 177.5 149.5Q203 176 249 176Q297 176 322.5 149.5Q348 123 348 81Z" glyph-name="divide.old" horiz-adv-x="488" /><glyph d="M321 423Q321 388 297 366Q273 344 228 344Q186 344 161.5 366Q137 388 137 423Q137 460 161.5 483.5Q186 507 228 507Q273 507 297 483.5Q321 460 321 423ZM417 319V233H28V319ZM321 126Q321 91 297 69Q273 47 228 47Q186 47 161.5 69Q137 91 137 126Q137 162 161.5 186Q186 210 228 210Q273 210 297 186Q321 162 321 126Z" glyph-name="divide.sc" horiz-adv-x="445" /><glyph d="M424 519Q424 478 398.5 453.5Q373 429 325 429Q279 429 253.5 453.5Q228 478 228 519Q228 561 253.5 587.5Q279 614 325 614Q373 614 398.5 587.5Q424 561 424 519ZM538 393V298H102V393ZM424 171Q424 130 398.5 105.5Q373 81 325 81Q279 81 253.5 105.5Q228 130 228 171Q228 213 253.5 239.5Q279 266 325 266Q373 266 398.5 239.5Q424 213 424 171Z" glyph-name="divide.tln" horiz-adv-x="640" /><glyph d="M424 429Q424 388 398.5 363.5Q373 339 325 339Q279 339 253.5 363.5Q228 388 228 429Q228 471 253.5 497.5Q279 524 325 524Q373 524 398.5 497.5Q424 471 424 429ZM538 303V208H102V303ZM424 81Q424 40 398.5 15.5Q373 -9 325 -9Q279 -9 253.5 15.5Q228 40 228 81Q228 123 253.5 149.5Q279 176 325 176Q373 176 398.5 149.5Q424 123 424 81Z" glyph-name="divide.ton" horiz-adv-x="640" /><glyph d="M343 -12Q327 -12 315.5 -12Q304 -12 293 -11V-110H193V0Q118 15 76 48Q34 81 34 133Q34 184 62.5 205.5Q91 227 138 227Q183 227 211 205.5Q239 184 239 142Q239 121 227 101Q244 96 259 95.5Q274 95 282 95Q318 95 333.5 110.5Q349 126 349 152Q349 178 339.5 195Q330 212 313 224.5Q296 237 273.5 247Q251 257 225 269Q176 291 140.5 313Q105 335 82 362Q59 389 48 422.5Q37 456 37 499Q37 564 75.5 612.5Q114 661 193 684V802H293V699Q300 700 307 700Q314 700 322 700H343V802H443V691Q528 675 564.5 639.5Q601 604 601 557Q601 506 573 484.5Q545 463 503 463Q457 463 426.5 484.5Q396 506 396 548Q396 560 399.5 571Q403 582 408 592Q394 595 382.5 595.5Q371 596 363 596Q333 596 310 580.5Q287 565 287 525Q287 504 294.5 488.5Q302 473 318.5 460Q335 447 361.5 435Q388 423 426 409Q456 397 486.5 380.5Q517 364 541.5 338.5Q566 313 582 277Q598 241 598 189Q598 120 558.5 70.5Q519 21 443 1V-110H343Z" glyph-name="dollar" horiz-adv-x="635" unicode="$" /><glyph d="M282 -10V-100H207V-4Q117 7 75.5 36Q34 65 34 111Q34 151 57 175.5Q80 200 127 200Q174 200 196.5 178Q219 156 219 127Q219 109 213 94Q224 92 236 91Q248 90 259 90Q291 90 310 99Q329 108 329 128Q329 157 292 176Q255 195 182 220Q111 245 73 282Q35 319 35 377Q35 435 80.5 474.5Q126 514 207 528V617H282V535H315V617H390V530Q474 519 518.5 489.5Q563 460 563 414Q563 374 540 349.5Q517 325 470 325Q422 325 399.5 347Q377 369 377 398Q377 408 379 415Q381 422 385 430Q375 433 364 434Q353 435 342 435Q307 435 288.5 423.5Q270 412 270 397Q270 381 281.5 369.5Q293 358 313 348Q333 338 359 328.5Q385 319 415 307Q440 297 466.5 284.5Q493 272 514.5 254Q536 236 550 211.5Q564 187 564 151Q564 88 522.5 47Q481 6 390 -6V-100H315V-10Z" glyph-name="dollar.old" horiz-adv-x="599" /><glyph d="M301 -8Q291 -8 281.5 -8Q272 -8 263 -7V-88H175V3Q106 16 70 44Q34 72 34 111Q34 149 63 167Q92 185 132 185Q176 185 203 166Q230 147 230 109Q230 102 228 92Q239 90 245.5 90Q252 90 255 90Q277 90 291 99Q305 108 305 128Q305 146 296 158Q287 170 272.5 179Q258 188 239 195Q220 202 200 211Q162 228 131.5 246Q101 264 80 285.5Q59 307 47.5 334Q36 361 36 395Q36 451 72.5 488.5Q109 526 175 544V640H263V557Q271 558 279.5 558Q288 558 297 558H325V640H413V550Q491 537 522.5 508.5Q554 480 554 444Q554 398 527.5 379Q501 360 461 360Q417 360 388 377Q359 394 359 432Q359 440 361 447.5Q363 455 365 457Q358 460 348 460.5Q338 461 336 461Q316 461 299.5 451.5Q283 442 283 416Q283 389 308 369Q333 349 400 326Q426 317 452.5 304Q479 291 500.5 271.5Q522 252 536 224.5Q550 197 550 158Q550 101 517 61Q484 21 413 4V-88H325V-8Z" glyph-name="dollar.sc" horiz-adv-x="588" /><glyph d="M345 -12Q329 -12 317.5 -12Q306 -12 295 -11V-110H195V0Q120 15 78 48Q36 81 36 133Q36 184 64.5 205.5Q93 227 140 227Q185 227 213 205.5Q241 184 241 142Q241 121 229 101Q246 96 261 95.5Q276 95 284 95Q320 95 335.5 110.5Q351 126 351 152Q351 178 341.5 195Q332 212 315 224.5Q298 237 275.5 247Q253 257 227 269Q178 291 142.5 313Q107 335 84 362Q61 389 50 422.5Q39 456 39 499Q39 564 77.5 612.5Q116 661 195 684V802H295V699Q302 700 309 700Q316 700 324 700H345V802H445V691Q530 675 566.5 639.5Q603 604 603 557Q603 506 575 484.5Q547 463 505 463Q459 463 428.5 484.5Q398 506 398 548Q398 560 401.5 571Q405 582 410 592Q396 595 384.5 595.5Q373 596 365 596Q335 596 312 580.5Q289 565 289 525Q289 504 296.5 488.5Q304 473 320.5 460Q337 447 363.5 435Q390 423 428 409Q458 397 488.5 380.5Q519 364 543.5 338.5Q568 313 584 277Q600 241 600 189Q600 120 560.5 70.5Q521 21 445 1V-110H345Z" glyph-name="dollar.tln" horiz-adv-x="640" /><glyph d="M303 -10V-100H228V-4Q138 7 96.5 36Q55 65 55 111Q55 151 78 175.5Q101 200 148 200Q195 200 217.5 178Q240 156 240 127Q240 109 234 94Q245 92 257 91Q269 90 280 90Q312 90 331 99Q350 108 350 128Q350 157 313 176Q276 195 203 220Q132 245 94 282Q56 319 56 377Q56 435 101.5 474.5Q147 514 228 528V617H303V535H336V617H411V530Q495 519 539.5 489.5Q584 460 584 414Q584 374 561 349.5Q538 325 491 325Q443 325 420.5 347Q398 369 398 398Q398 408 400 415Q402 422 406 430Q396 433 385 434Q374 435 363 435Q328 435 309.5 423.5Q291 412 291 397Q291 381 302.5 369.5Q314 358 334 348Q354 338 380 328.5Q406 319 436 307Q461 297 487.5 284.5Q514 272 535.5 254Q557 236 571 211.5Q585 187 585 151Q585 88 543.5 47Q502 6 411 -6V-100H336V-10Z" glyph-name="dollar.ton" horiz-adv-x="640" /><glyph d="M273 697Q273 655 246.5 631Q220 607 177 607Q135 607 108.5 631Q82 655 82 697Q82 739 108.5 765Q135 791 177 791Q220 791 246.5 765Q273 739 273 697Z" glyph-name="dotaccent" horiz-adv-x="362" unicode="&#729;" /><glyph d="M161 743Q121 743 97.5 765Q74 787 74 825Q74 864 97.5 887.5Q121 911 161 911Q203 911 226 887.5Q249 864 249 825Q249 787 226 765Q203 743 161 743Z" glyph-name="dotaccent.cap" horiz-adv-x="323" /><glyph d="M325 100H375V0H35V100H85V420H35V520Q106 520 154.5 521Q203 522 234.5 523.5Q266 525 283 528Q300 531 307 535L325 525Z" glyph-name="dotlessi" horiz-adv-x="398" unicode="&#305;" /><glyph d="M319 -10Q254 -10 199.5 8.5Q145 27 106 62Q67 97 45 148Q23 199 23 264Q23 326 46 376Q69 426 108 461Q147 496 199 515.5Q251 535 310 535Q381 535 433.5 515Q486 495 521 459.5Q556 424 573.5 376.5Q591 329 591 275V235H261V223Q261 154 294.5 124.5Q328 95 380 95Q433 95 461.5 117.5Q490 140 508 181L586 153Q576 121 557 91.5Q538 62 506.5 39.5Q475 17 429 3.5Q383 -10 319 -10ZM306 444Q275 444 267.5 406.5Q260 369 261 300H351Q351 367 344 405.5Q337 444 306 444Z" glyph-name="e" horiz-adv-x="613" unicode="e" /><glyph d="M257 621 304 691Q343 750 381 770Q419 790 464 790Q514 790 531 773Q548 756 548 734Q548 724 544 713.5Q540 703 528 692.5Q516 682 493.5 671.5Q471 661 433 650L333 621ZM319 -10Q254 -10 199.5 8.5Q145 27 106 62Q67 97 45 148Q23 199 23 264Q23 326 46 376Q69 426 108 461Q147 496 199 515.5Q251 535 310 535Q381 535 433.5 515Q486 495 521 459.5Q556 424 573.5 376.5Q591 329 591 275V235H261V223Q261 154 294.5 124.5Q328 95 380 95Q433 95 461.5 117.5Q490 140 508 181L586 153Q576 121 557 91.5Q538 62 506.5 39.5Q475 17 429 3.5Q383 -10 319 -10ZM306 444Q275 444 267.5 406.5Q260 369 261 300H351Q351 367 344 405.5Q337 444 306 444Z" glyph-name="eacute" horiz-adv-x="613" unicode="&#233;" /><glyph d="M98 621 276 797H349L522 621H420L312 690L200 621ZM319 -10Q254 -10 199.5 8.5Q145 27 106 62Q67 97 45 148Q23 199 23 264Q23 326 46 376Q69 426 108 461Q147 496 199 515.5Q251 535 310 535Q381 535 433.5 515Q486 495 521 459.5Q556 424 573.5 376.5Q591 329 591 275V235H261V223Q261 154 294.5 124.5Q328 95 380 95Q433 95 461.5 117.5Q490 140 508 181L586 153Q576 121 557 91.5Q538 62 506.5 39.5Q475 17 429 3.5Q383 -10 319 -10ZM306 444Q275 444 267.5 406.5Q260 369 261 300H351Q351 367 344 405.5Q337 444 306 444Z" glyph-name="ecircumflex" horiz-adv-x="613" unicode="&#234;" /><glyph d="M301 695Q301 653 274.5 629Q248 605 205 605Q163 605 136.5 629Q110 653 110 695Q110 737 136.5 763Q163 789 205 789Q248 789 274.5 763Q301 737 301 695ZM518 695Q518 653 492 629Q466 605 423 605Q381 605 354.5 629Q328 653 328 695Q328 737 354.5 763Q381 789 423 789Q466 789 492 763Q518 737 518 695ZM319 -10Q254 -10 199.5 8.5Q145 27 106 62Q67 97 45 148Q23 199 23 264Q23 326 46 376Q69 426 108 461Q147 496 199 515.5Q251 535 310 535Q381 535 433.5 515Q486 495 521 459.5Q556 424 573.5 376.5Q591 329 591 275V235H261V223Q261 154 294.5 124.5Q328 95 380 95Q433 95 461.5 117.5Q490 140 508 181L586 153Q576 121 557 91.5Q538 62 506.5 39.5Q475 17 429 3.5Q383 -10 319 -10ZM306 444Q275 444 267.5 406.5Q260 369 261 300H351Q351 367 344 405.5Q337 444 306 444Z" glyph-name="edieresis" horiz-adv-x="613" unicode="&#235;" /><glyph d="M319 -10Q254 -10 199.5 8.5Q145 27 106 62Q67 97 45 148Q23 199 23 264Q23 326 46 376Q69 426 108 461Q147 496 199 515.5Q251 535 310 535Q381 535 433.5 515Q486 495 521 459.5Q556 424 573.5 376.5Q591 329 591 275V235H261V223Q261 154 294.5 124.5Q328 95 380 95Q433 95 461.5 117.5Q490 140 508 181L586 153Q576 121 557 91.5Q538 62 506.5 39.5Q475 17 429 3.5Q383 -10 319 -10ZM306 444Q275 444 267.5 406.5Q260 369 261 300H351Q351 367 344 405.5Q337 444 306 444ZM208 650Q171 661 148 671.5Q125 682 113 692.5Q101 703 97 713.5Q93 724 93 734Q93 756 112.5 773Q132 790 182 790Q227 790 259.5 774Q292 758 320 716L384 621H308Z" glyph-name="egrave" horiz-adv-x="613" unicode="&#232;" /><glyph d="M358 -10Q273 -10 211.5 5.5Q150 21 110.5 47.5Q71 74 52.5 110Q34 146 34 186Q34 220 43.5 248Q53 276 76.5 298.5Q100 321 138 338Q176 355 233 367Q138 390 95.5 430Q53 470 53 528Q53 606 132 653Q211 700 357 700Q503 700 583 653Q663 606 663 528Q663 470 621 429Q579 388 488 367Q596 343 639 298.5Q682 254 682 186Q682 146 663.5 110Q645 74 605.5 47.5Q566 21 505 5.5Q444 -10 358 -10ZM358 407Q384 407 400.5 435.5Q417 464 417 518Q417 559 400.5 587Q384 615 357 615Q328 615 313 586.5Q298 558 298 517Q298 466 313.5 436.5Q329 407 358 407ZM358 75Q393 75 413 107.5Q433 140 432 191Q431 254 413.5 288.5Q396 323 358 323Q321 323 303 289Q285 255 284 192Q283 140 303 107.5Q323 75 358 75Z" glyph-name="eight" horiz-adv-x="716" unicode="8" /><glyph d="M274 -157Q144 -157 85 -120.5Q26 -84 26 -29Q26 18 59.5 47Q93 76 171 89Q101 103 69 129Q37 155 37 194Q37 247 98.5 277Q160 307 273 307Q385 307 447.5 277Q510 247 510 194Q510 155 478.5 129Q447 103 379 89Q455 77 488 47.5Q521 18 521 -29Q521 -84 462.5 -120.5Q404 -157 274 -157ZM274 120Q291 120 300.5 136Q310 152 310 181Q310 207 300.5 224Q291 241 273 241Q255 241 245.5 224Q236 207 236 181Q236 152 246 136Q256 120 274 120ZM274 -91Q294 -91 306 -71Q318 -51 318 -18Q318 14 307 35Q296 56 274 56Q252 56 241 35Q230 14 229 -19Q229 -51 241 -71Q253 -91 274 -91Z" glyph-name="eight.inferior" horiz-adv-x="547" /><glyph d="M351 -10Q266 -10 205 5.5Q144 21 106 47.5Q68 74 50 110Q32 146 32 186Q32 220 41 248Q50 276 72 298.5Q94 321 131.5 338Q169 355 226 367Q131 390 91 430Q51 470 51 528Q51 606 127.5 653Q204 700 350 700Q496 700 573.5 653Q651 606 651 528Q651 470 611.5 429Q572 388 481 367Q535 355 571.5 338Q608 321 629.5 298.5Q651 276 660.5 248Q670 220 670 186Q670 146 652 110Q634 74 596 47.5Q558 21 497.5 5.5Q437 -10 351 -10ZM351 407Q377 407 393.5 435.5Q410 464 410 518Q410 559 393.5 587Q377 615 350 615Q321 615 306 586.5Q291 558 291 517Q291 466 306.5 436.5Q322 407 351 407ZM351 75Q386 75 406 107.5Q426 140 425 191Q424 254 406.5 288.5Q389 323 351 323Q314 323 296 289Q278 255 277 192Q276 140 296 107.5Q316 75 351 75Z" glyph-name="eight.old" horiz-adv-x="702" /><glyph d="M333 -8Q253 -8 196 4Q139 16 102.5 37Q66 58 49 86.5Q32 115 32 148Q32 176 41 198.5Q50 221 71 239Q92 257 127 270Q162 283 214 293Q126 310 86.5 341.5Q47 373 47 421Q47 485 120.5 521.5Q194 558 332 558Q470 558 544 521.5Q618 485 618 421Q618 373 579 341Q540 309 456 293Q555 274 594 239Q633 204 633 148Q633 115 616 86.5Q599 58 563 37Q527 16 470 4Q413 -8 333 -8ZM333 329Q353 329 365 349.5Q377 370 377 410Q377 439 365 459.5Q353 480 332 480Q309 480 298 459Q287 438 287 409Q287 371 298.5 350Q310 329 333 329ZM333 70Q361 70 375.5 94.5Q390 119 389 154Q388 199 375.5 225.5Q363 252 333 252Q303 252 290 225.5Q277 199 276 154Q275 119 289.5 94.5Q304 70 333 70Z" glyph-name="eight.sc" horiz-adv-x="665" /><glyph d="M274 423Q144 423 85 459.5Q26 496 26 551Q26 598 59.5 627Q93 656 171 669Q101 683 69 709Q37 735 37 774Q37 827 98.5 857Q160 887 273 887Q385 887 447.5 857Q510 827 510 774Q510 735 478.5 709Q447 683 379 669Q455 657 488 627.5Q521 598 521 551Q521 496 462.5 459.5Q404 423 274 423ZM274 700Q291 700 300.5 716Q310 732 310 761Q310 787 300.5 804Q291 821 273 821Q255 821 245.5 804Q236 787 236 761Q236 732 246 716Q256 700 274 700ZM274 489Q294 489 306 509Q318 529 318 562Q318 594 307 615Q296 636 274 636Q252 636 241 615Q230 594 229 561Q229 529 241 509Q253 489 274 489Z" glyph-name="eight.superior" horiz-adv-x="547" /><glyph d="M320 -10Q240 -10 182.5 5.5Q125 21 88 47.5Q51 74 33.5 110Q16 146 16 186Q16 220 25.5 248Q35 276 58.5 298.5Q82 321 120 338Q158 355 215 367Q120 390 77.5 430Q35 470 35 528Q35 606 108.5 653Q182 700 319 700Q456 700 530.5 653Q605 606 605 528Q605 470 563 429Q521 388 430 367Q538 343 581 298.5Q624 254 624 186Q624 146 606.5 110Q589 74 552 47.5Q515 21 457.5 5.5Q400 -10 320 -10ZM320 407Q341 407 355 435.5Q369 464 369 518Q369 559 355.5 587Q342 615 319 615Q295 615 282.5 586.5Q270 558 270 517Q270 466 283 436.5Q296 407 320 407ZM320 75Q351 75 368 107.5Q385 140 384 191Q383 254 367.5 288.5Q352 323 320 323Q288 323 272.5 289Q257 255 256 192Q255 140 272 107.5Q289 75 320 75Z" glyph-name="eight.tln" horiz-adv-x="640" /><glyph d="M320 -10Q240 -10 183 5.5Q126 21 90 47.5Q54 74 37.5 110Q21 146 21 186Q21 220 30 248Q39 276 61 298.5Q83 321 120.5 338Q158 355 215 367Q120 390 80 430Q40 470 40 528Q40 606 111 653Q182 700 319 700Q456 700 528 653Q600 606 600 528Q600 470 560.5 429Q521 388 430 367Q484 355 520.5 338Q557 321 578.5 298.5Q600 276 609.5 248Q619 220 619 186Q619 146 602.5 110Q586 74 550 47.5Q514 21 457 5.5Q400 -10 320 -10ZM320 407Q341 407 355 435.5Q369 464 369 518Q369 559 355.5 587Q342 615 319 615Q295 615 282.5 586.5Q270 558 270 517Q270 466 283 436.5Q296 407 320 407ZM320 75Q351 75 368 107.5Q385 140 384 191Q383 254 367.5 288.5Q352 323 320 323Q288 323 272.5 289Q257 255 256 192Q255 140 272 107.5Q289 75 320 75Z" glyph-name="eight.ton" horiz-adv-x="640" /><glyph d="M53 476H449V381H53ZM53 316H449V221H53Z" glyph-name="equal" horiz-adv-x="502" unicode="=" /><glyph d="M50 396H446V301H50ZM50 236H446V141H50Z" glyph-name="equal.old" horiz-adv-x="496" /><glyph d="M50 390H384V304H50ZM50 252H384V166H50Z" glyph-name="equal.sc" horiz-adv-x="434" /><glyph d="M122 476H518V381H122ZM122 316H518V221H122Z" glyph-name="equal.tln" horiz-adv-x="640" /><glyph d="M122 396H518V301H122ZM122 236H518V141H122Z" glyph-name="equal.ton" horiz-adv-x="640" /><glyph d="M335 -10Q257 -10 198.5 12.5Q140 35 101 72.5Q62 110 42 160Q22 210 22 264Q22 318 42 367Q62 416 101 453.5Q140 491 198.5 513Q257 535 335 535Q360 535 377 531Q369 554 357.5 574Q346 594 329 611L264 563H145L264 651Q240 659 211 664Q182 669 146 670V760Q203 759 257 749.5Q311 740 359 721L405 755H524L432 687Q528 631 585 537.5Q642 444 642 316Q642 242 623 181.5Q604 121 566 78.5Q528 36 470.5 13Q413 -10 335 -10ZM335 90Q349 90 360.5 99.5Q372 109 380 134Q388 159 392.5 202Q397 245 397 312Q397 342 396.5 371.5Q396 401 394 429Q386 433 377.5 434Q369 435 360 435Q315 435 291 395Q267 355 267 265Q267 168 286.5 129Q306 90 335 90Z" glyph-name="eth" horiz-adv-x="668" unicode="&#240;" /><glyph d="M154 214Q154 269 144.5 306.5Q135 344 121 372Q107 400 90.5 421Q74 442 60 462.5Q46 483 36.5 506.5Q27 530 27 562Q27 601 43 627.5Q59 654 84 670Q109 686 138 693Q167 700 192 700Q218 700 246.5 693Q275 686 300 670Q325 654 341 627.5Q357 601 357 562Q357 529 348 505.5Q339 482 325 461.5Q311 441 295.5 420Q280 399 266 371.5Q252 344 243 306.5Q234 269 234 214ZM291 80Q291 39 265.5 14.5Q240 -10 192 -10Q146 -10 120.5 14.5Q95 39 95 80Q95 122 120.5 148.5Q146 175 192 175Q240 175 265.5 148.5Q291 122 291 80Z" glyph-name="exclam" horiz-adv-x="384" unicode="!" /><glyph d="M150 176Q150 217 140.5 243.5Q131 270 117.5 289Q104 308 87.5 322Q71 336 57.5 351.5Q44 367 34.5 387Q25 407 25 437Q25 472 40.5 495.5Q56 519 80 533Q104 547 132.5 552.5Q161 558 186 558Q212 558 240.5 552.5Q269 547 293 533Q317 519 332.5 496Q348 473 348 438Q348 407 339 386.5Q330 366 316.5 350.5Q303 335 287.5 321Q272 307 258.5 288.5Q245 270 236 243.5Q227 217 227 176ZM280 71Q280 33 254.5 12.5Q229 -8 187 -8Q148 -8 121.5 12.5Q95 33 95 71Q95 111 121.5 133Q148 155 187 155Q229 155 254.5 133Q280 111 280 71Z" glyph-name="exclam.sc" horiz-adv-x="374" /><glyph d="M282 214Q282 269 272.5 306.5Q263 344 249 372Q235 400 218.5 421Q202 442 188 462.5Q174 483 164.5 506.5Q155 530 155 562Q155 601 171 627.5Q187 654 212 670Q237 686 266 693Q295 700 320 700Q346 700 374.5 693Q403 686 428 670Q453 654 469 627.5Q485 601 485 562Q485 529 476 505.5Q467 482 453 461.5Q439 441 423.5 420Q408 399 394 371.5Q380 344 371 306.5Q362 269 362 214ZM419 80Q419 39 393.5 14.5Q368 -10 320 -10Q274 -10 248.5 14.5Q223 39 223 80Q223 122 248.5 148.5Q274 175 320 175Q368 175 393.5 148.5Q419 122 419 80Z" glyph-name="exclam.tln" horiz-adv-x="640" /><glyph d="M226 311Q226 257 235.5 219Q245 181 259 153Q273 125 289.5 104Q306 83 320 62.5Q334 42 343.5 19Q353 -4 353 -37Q353 -76 337 -102.5Q321 -129 296 -145Q271 -161 242.5 -168Q214 -175 188 -175Q163 -175 134 -168Q105 -161 80 -145Q55 -129 39 -102.5Q23 -76 23 -37Q23 -4 32 19.5Q41 43 55 63.5Q69 84 84.5 105Q100 126 114 153.5Q128 181 137 219Q146 257 146 311ZM89 445Q89 486 114.5 510.5Q140 535 188 535Q234 535 259.5 510.5Q285 486 285 445Q285 403 259.5 376.5Q234 350 188 350Q140 350 114.5 376.5Q89 403 89 445Z" glyph-name="exclamdown" horiz-adv-x="374" unicode="&#161;" /><glyph d="M232 476Q232 422 241.5 384Q251 346 265 318Q279 290 295.5 269Q312 248 326 227.5Q340 207 349.5 184Q359 161 359 128Q359 89 343 62.5Q327 36 302 20Q277 4 248.5 -3Q220 -10 194 -10Q169 -10 140 -3Q111 4 86 20Q61 36 45 62.5Q29 89 29 128Q29 161 38 184.5Q47 208 61 228.5Q75 249 90.5 270Q106 291 120 318.5Q134 346 143 384Q152 422 152 476ZM95 610Q95 651 120.5 675.5Q146 700 194 700Q240 700 265.5 675.5Q291 651 291 610Q291 568 265.5 541.5Q240 515 194 515Q146 515 120.5 541.5Q95 568 95 610Z" glyph-name="exclamdown.cap" horiz-adv-x="388" /><glyph d="M227 374Q227 333 236 306.5Q245 280 258.5 261.5Q272 243 287.5 229Q303 215 316.5 199.5Q330 184 339 163.5Q348 143 348 112Q348 77 332.5 54Q317 31 293 17Q269 3 240.5 -2.5Q212 -8 186 -8Q161 -8 132.5 -2.5Q104 3 80 17Q56 31 40.5 54.5Q25 78 25 113Q25 144 34.5 163.5Q44 183 57.5 198.5Q71 214 87.5 228Q104 242 117.5 261Q131 280 140.5 306.5Q150 333 150 374ZM280 479Q280 439 254.5 417Q229 395 187 395Q148 395 121.5 417Q95 439 95 479Q95 517 121.5 537.5Q148 558 187 558Q229 558 254.5 537.5Q280 517 280 479Z" glyph-name="exclamdown.sc" horiz-adv-x="374" /><glyph d="M359 311Q359 257 368.5 219Q378 181 392 153Q406 125 422.5 104Q439 83 453 62.5Q467 42 476.5 19Q486 -4 486 -37Q486 -76 470 -102.5Q454 -129 429 -145Q404 -161 375.5 -168Q347 -175 321 -175Q296 -175 267 -168Q238 -161 213 -145Q188 -129 172 -102.5Q156 -76 156 -37Q156 -4 165 19.5Q174 43 188 63.5Q202 84 217.5 105Q233 126 247 153.5Q261 181 270 219Q279 257 279 311ZM222 445Q222 486 247.5 510.5Q273 535 321 535Q367 535 392.5 510.5Q418 486 418 445Q418 403 392.5 376.5Q367 350 321 350Q273 350 247.5 376.5Q222 403 222 445Z" glyph-name="exclamdown.tln" horiz-adv-x="640" /><glyph d="M390 0H35V100H85V420H35V520H87V525Q87 581 106.5 625Q126 669 161 699Q196 729 244 744.5Q292 760 350 760Q441 760 494.5 731.5Q548 703 548 649Q548 633 544 617.5Q540 602 529.5 589.5Q519 577 501.5 569.5Q484 562 458 562Q431 562 413 569.5Q395 577 384 588.5Q373 600 368.5 613.5Q364 627 364 639Q364 659 375 675H370Q350 675 337.5 650.5Q325 626 325 567V520H442V420H325V100H390Z" glyph-name="f" horiz-adv-x="452" unicode="f" /><glyph d="M410 0H35V100H85V420H35V520H139Q120 525 97 532.5Q74 540 55 553Q36 566 23 586Q10 606 10 636Q10 693 63 726.5Q116 760 223 760Q275 760 316.5 751Q358 742 387.5 726Q417 710 432.5 688Q448 666 448 639Q448 623 443.5 607.5Q439 592 428 579.5Q417 567 399 559.5Q381 552 353 552Q325 552 305.5 559.5Q286 567 275 578.5Q264 590 259 603.5Q254 617 254 629Q254 651 262 667Q247 670 233 670Q189 670 165.5 654.5Q142 639 142 609Q142 569 215.5 544.5Q289 520 445 520V420H325V100H410Z" glyph-name="f.alt" horiz-adv-x="458" /><glyph d="M780 100Q814 100 830 138.5Q846 177 845 262Q844 346 829 385.5Q814 425 780 425Q715 425 715 271V255Q715 100 780 100ZM475 662Q469 667 456 671Q443 675 426 675Q371 675 348 650.5Q325 626 325 567V520H412V420H325V100H385V0H35V100H85V420H35V520H87V525Q87 581 106.5 625Q126 669 161 699Q196 729 244 744.5Q292 760 350 760Q392 760 422 758Q452 756 476.5 753Q501 750 524 748Q547 746 576 746Q606 746 626.5 747Q647 748 660 750Q673 752 681 754.5Q689 757 695 760L715 750V642Q715 605 715 580Q715 555 714.5 534.5Q714 514 713 495.5Q712 477 710 453Q723 476 741 492Q759 508 780 517.5Q801 527 823 531Q845 535 866 535Q916 535 957 515.5Q998 496 1027.5 460.5Q1057 425 1073.5 375Q1090 325 1090 264Q1090 203 1073.5 152.5Q1057 102 1028 66Q999 30 958 10Q917 -10 867 -10Q822 -10 778 5Q734 20 696 63L505 -10H475Z" glyph-name="f_b" horiz-adv-x="1115" /><glyph d="M790 100Q824 100 840 138.5Q856 177 855 262Q854 346 839 385.5Q824 425 790 425Q725 425 725 271V255Q725 100 790 100ZM571 745Q609 745 632.5 746.5Q656 748 670.5 750Q685 752 692 754.5Q699 757 705 760L725 750V642Q725 605 725 580Q725 555 724.5 534.5Q724 514 723 495.5Q722 477 720 453Q733 476 751 492Q769 508 790 517.5Q811 527 833 531Q855 535 876 535Q926 535 967 515.5Q1008 496 1037.5 460.5Q1067 425 1083.5 375Q1100 325 1100 264Q1100 203 1083.5 152.5Q1067 102 1038 66Q1009 30 968 10Q927 -10 877 -10Q832 -10 788 5Q744 20 706 63L515 -10H485V652Q451 661 405 665.5Q359 670 304 670Q221 670 181.5 654.5Q142 639 142 609Q142 569 215.5 544.5Q289 520 445 520V420H325V100H375V0H35V100H85V420H35V520H139Q120 525 97 532.5Q74 540 55 553Q36 566 23 586Q10 606 10 636Q10 664 24.5 687Q39 710 72 726Q105 742 159.5 751Q214 760 293 760Q345 760 380.5 757.5Q416 755 445.5 752.5Q475 750 504 747.5Q533 745 571 745Z" glyph-name="f_b.alt" horiz-adv-x="1125" /><glyph d="M38 0V94H83V456H38V550H571V349H460V378Q460 398 457 413Q454 428 445.5 437.5Q437 447 420.5 451.5Q404 456 377 456H323V316H362V374H432V178H362V227H323V94H388V0ZM611 94H656V456H611V550H989Q1036 550 1079 542Q1122 534 1155 518Q1188 502 1207.5 477Q1227 452 1227 418Q1227 366 1184 329Q1141 292 1040 287Q1084 283 1121.5 274Q1159 265 1186 249Q1213 233 1228.5 209.5Q1244 186 1244 153Q1244 83 1184 41.5Q1124 0 991 0H611ZM896 461V324H913Q925 324 939.5 326.5Q954 329 966 336Q978 343 986.5 355.5Q995 368 995 389Q995 413 986.5 427.5Q978 442 965.5 449.5Q953 457 938 459Q923 461 909 461ZM896 239V89H917Q931 89 946.5 91.5Q962 94 975 101.5Q988 109 997 124Q1006 139 1006 164Q1006 187 997.5 202Q989 217 975.5 225Q962 233 946.5 236Q931 239 917 239Z" glyph-name="f_b.alt.sc" horiz-adv-x="1267" /><glyph d="M38 0V94H83V456H38V550H562V351H451V378Q451 398 448.5 413Q446 428 437 437.5Q428 447 412 451.5Q396 456 369 456H323V316L442 324V218L323 227V94H388V0ZM602 94H647V456H602V550H980Q1027 550 1070 542Q1113 534 1146 518Q1179 502 1198.5 477Q1218 452 1218 418Q1218 366 1175 329Q1132 292 1031 287Q1075 283 1112.5 274Q1150 265 1177 249Q1204 233 1219.5 209.5Q1235 186 1235 153Q1235 83 1175 41.5Q1115 0 982 0H602ZM887 461V324H904Q916 324 930.5 326.5Q945 329 957 336Q969 343 977.5 355.5Q986 368 986 389Q986 413 977.5 427.5Q969 442 956.5 449.5Q944 457 929 459Q914 461 900 461ZM887 239V89H908Q922 89 937.5 91.5Q953 94 966 101.5Q979 109 988 124Q997 139 997 164Q997 187 988.5 202Q980 217 966.5 225Q953 233 937.5 236Q922 239 908 239Z" glyph-name="f_b.sc" horiz-adv-x="1258" /><glyph d="M477 525Q477 587 501 635Q488 640 473.5 642.5Q459 645 441 645Q420 645 399 640Q378 635 361.5 623Q345 611 335 591Q325 571 325 540V520H477ZM35 0V100H85V420H35V520H87V527Q87 581 108.5 621Q130 661 168 687.5Q206 714 257 727Q308 740 366 740Q431 740 477 730Q523 720 555 702Q625 760 740 760Q831 760 884.5 731.5Q938 703 938 649Q938 633 934 617.5Q930 602 919.5 589.5Q909 577 891.5 569.5Q874 562 848 562Q821 562 803 569.5Q785 577 774 588.5Q763 600 758.5 613.5Q754 627 754 639Q754 659 765 675H760Q740 675 727.5 650.5Q715 626 715 567V520H832V420H715V100H780V0H425V100H475V420H325V100H375V0Z" glyph-name="f_f" horiz-adv-x="842" unicode="&#64256;" /><glyph d="M539 520Q520 525 497 533.5Q474 542 455 556Q436 570 423 591Q410 612 410 642Q375 654 342 657Q309 660 282 660Q142 660 142 599Q142 559 215 539.5Q288 520 445 520ZM35 0V100H85V420H35V520H139Q120 525 97 531Q74 537 55 548Q36 559 23 577.5Q10 596 10 626Q10 683 69 716.5Q128 750 243 750Q288 750 320 748Q352 746 376.5 742.5Q401 739 421 734.5Q441 730 461 725Q488 742 528.5 751Q569 760 623 760Q675 760 716.5 751Q758 742 787.5 726Q817 710 832.5 688Q848 666 848 639Q848 623 843.5 607.5Q839 592 828 579.5Q817 567 799 559.5Q781 552 753 552Q725 552 705.5 559.5Q686 567 675 578.5Q664 590 659 603.5Q654 617 654 629Q654 651 662 667Q647 670 633 670Q589 670 565.5 654.5Q542 639 542 609Q542 569 615.5 544.5Q689 520 845 520V420H725V100H810V0H435V100H485V420H325V100H375V0Z" glyph-name="f_f.alt" horiz-adv-x="858" /><glyph d="M38 0V94H83V456H38V550H571V349H460V378Q460 398 457 413Q454 428 445.5 437.5Q437 447 420.5 451.5Q404 456 377 456H323V316H362V374H432V178H362V227H323V94H388V0ZM611 0V94H656V456H611V550H1144V349H1033V378Q1033 398 1030 413Q1027 428 1018.5 437.5Q1010 447 993.5 451.5Q977 456 950 456H896V316H935V374H1005V178H935V227H896V94H961V0Z" glyph-name="f_f.alt.sc" horiz-adv-x="1155" /><glyph d="M38 0V94H83V456H38V550H562V351H451V378Q451 398 448.5 413Q446 428 437 437.5Q428 447 412 451.5Q396 456 369 456H323V316L442 324V218L323 227V94H388V0ZM602 0V94H647V456H602V550H1126V351H1015V378Q1015 398 1012.5 413Q1010 428 1001 437.5Q992 447 976 451.5Q960 456 933 456H887V316L1006 324V218L887 227V94H952V0Z" glyph-name="f_f.sc" horiz-adv-x="1140" /><glyph d="M477 528Q477 587 506 633Q479 645 441 645Q420 645 399 640Q378 635 361.5 623Q345 611 335 591Q325 571 325 540V520H477ZM35 0V100H85V420H35V520H87V527Q87 581 108.5 621Q130 661 168 687.5Q206 714 257 727Q308 740 366 740Q437 740 485.5 728Q534 716 565 696Q611 728 671.5 744Q732 760 798 760Q854 760 904.5 752.5Q955 745 993 729.5Q1031 714 1053 690Q1075 666 1075 632Q1075 617 1070.5 602Q1066 587 1054.5 576Q1043 565 1024.5 558Q1006 551 978 551Q950 551 930.5 558.5Q911 566 900 577.5Q889 589 884 602.5Q879 616 879 628Q879 642 883.5 652.5Q888 663 896 671Q887 673 875.5 674Q864 675 850 675Q823 675 799 668.5Q775 662 756 646Q737 630 726 602.5Q715 575 715 533V520H797Q887 520 943.5 521Q1000 522 1032.5 524.5Q1065 527 1078.5 530Q1092 533 1096 536L1105 526V100H1155V0H815V100H865V420H715V100H765V0H425V100H475V420H325V100H375V0Z" glyph-name="f_f_i" horiz-adv-x="1178" unicode="&#64259;" /><glyph d="M549 520Q526 525 501.5 532.5Q477 540 456.5 553.5Q436 567 423 588.5Q410 610 410 642Q375 654 342 657Q309 660 282 660Q142 660 142 599Q142 559 215 539.5Q288 520 445 520ZM35 0V100H85V420H35V520H139Q120 525 97 531Q74 537 55 548Q36 559 23 577.5Q10 596 10 626Q10 683 69 716.5Q128 750 243 750Q288 750 323 748Q358 746 386.5 742Q415 738 439 732Q463 726 487 719Q532 739 599 749.5Q666 760 747 760Q852 760 920 750.5Q988 741 1028.5 724Q1069 707 1085 684.5Q1101 662 1101 635Q1101 619 1096 603.5Q1091 588 1080 575.5Q1069 563 1050.5 555.5Q1032 548 1006 548Q979 548 960 555.5Q941 563 929.5 574.5Q918 586 912.5 599.5Q907 613 907 625Q907 646 913 661Q887 665 852.5 667.5Q818 670 773 670Q729 670 690.5 666Q652 662 623.5 654.5Q595 647 578.5 635.5Q562 624 562 609Q562 589 585.5 572.5Q609 556 650 544.5Q691 533 747.5 526.5Q804 520 870 520Q930 520 971.5 521Q1013 522 1041 523.5Q1069 525 1084.5 528Q1100 531 1107 535L1125 525V100H1175V0H835V100H885V420H725V100H775V0H435V100H485V420H325V100H375V0Z" glyph-name="f_f_i.alt" horiz-adv-x="1198" /><glyph d="M38 0V94H83V456H38V550H571V349H460V378Q460 398 457 413Q454 428 445.5 437.5Q437 447 420.5 451.5Q404 456 377 456H323V316H362V374H432V178H362V227H323V94H388V0ZM1184 0V94H1229V456H1184V550H1515V456H1469V94H1515V0ZM611 0V94H656V456H611V550H1144V349H1033V378Q1033 398 1030 413Q1027 428 1018.5 437.5Q1010 447 993.5 451.5Q977 456 950 456H896V316H935V374H1005V178H935V227H896V94H961V0Z" glyph-name="f_f_i.alt.sc" horiz-adv-x="1552" /><glyph d="M38 0V94H83V456H38V550H562V351H451V378Q451 398 448.5 413Q446 428 437 437.5Q428 447 412 451.5Q396 456 369 456H323V316L442 324V218L323 227V94H388V0ZM602 0V94H647V456H602V550H1126V351H1015V378Q1015 398 1012.5 413Q1010 428 1001 437.5Q992 447 976 451.5Q960 456 933 456H887V316L1006 324V218L887 227V94H952V0ZM1166 0V94H1211V456H1166V550H1497V456H1451V94H1497V0Z" glyph-name="f_f_i.sc" horiz-adv-x="1534" /><glyph d="M477 528Q477 587 506 633Q479 645 441 645Q420 645 399 640Q378 635 361.5 623Q345 611 335 591Q325 571 325 540V520H477ZM867 -260Q816 -260 773.5 -251.5Q731 -243 700.5 -225.5Q670 -208 653.5 -182.5Q637 -157 637 -124Q637 -90 661.5 -64Q686 -38 735 -38Q783 -38 808 -64Q833 -90 833 -123Q833 -141 826.5 -154.5Q820 -168 810 -179Q814 -180 824 -180Q853 -180 859 -147Q865 -114 865 -36V420H715V100H765V0H425V100H475V420H325V100H375V0H35V100H85V420H35V520H87V527Q87 581 108.5 621Q130 661 168 687.5Q206 714 257 727Q308 740 366 740Q437 740 485.5 728Q534 716 565 696Q611 728 671.5 744Q732 760 798 760Q854 760 904.5 752.5Q955 745 993 729.5Q1031 714 1053 690Q1075 666 1075 632Q1075 617 1070.5 602Q1066 587 1054.5 576Q1043 565 1024.5 558Q1006 551 978 551Q950 551 930.5 558.5Q911 566 900 577.5Q889 589 884 602.5Q879 616 879 628Q879 642 883.5 652.5Q888 663 896 671Q887 673 875.5 674Q864 675 850 675Q823 675 799 668.5Q775 662 756 646Q737 630 726 602.5Q715 575 715 533V520H795Q937 520 1005 523.5Q1073 527 1087 535L1105 525V0Q1105 -56 1096 -103.5Q1087 -151 1061.5 -185.5Q1036 -220 989 -240Q942 -260 867 -260Z" glyph-name="f_f_j" horiz-adv-x="1163" /><glyph d="M549 520Q526 525 501.5 532.5Q477 540 456.5 553.5Q436 567 423 588.5Q410 610 410 642Q375 654 342 657Q309 660 282 660Q142 660 142 599Q142 559 215 539.5Q288 520 445 520ZM963 -260Q916 -260 876.5 -251.5Q837 -243 808 -225.5Q779 -208 763 -182.5Q747 -157 747 -124Q747 -90 771.5 -64Q796 -38 845 -38Q893 -38 918 -64Q943 -90 943 -123Q943 -141 935 -154.5Q927 -168 915 -179Q919 -180 933 -180Q965 -180 989.5 -160Q1014 -140 1014 -99Q1014 -50 979 -25Q944 0 885 0V420H725V100H775V0H435V100H485V420H325V100H375V0H35V100H85V420H35V520H139Q120 525 97 531Q74 537 55 548Q36 559 23 577.5Q10 596 10 626Q10 683 71.5 716.5Q133 750 263 750Q308 750 341 748Q374 746 399.5 742Q425 738 446 732Q467 726 487 719Q533 739 599.5 749.5Q666 760 747 760Q858 760 928.5 750.5Q999 741 1039.5 724Q1080 707 1095.5 684.5Q1111 662 1111 635Q1111 619 1105 603.5Q1099 588 1086.5 575.5Q1074 563 1054 555.5Q1034 548 1006 548Q978 548 957 555.5Q936 563 923 574.5Q910 586 903.5 599.5Q897 613 897 625Q897 636 899 645Q901 654 904 662Q879 666 847 668Q815 670 773 670Q729 670 690.5 666Q652 662 623.5 654.5Q595 647 578.5 635.5Q562 624 562 609Q562 590 584.5 573.5Q607 557 647.5 545.5Q688 534 743 527Q798 520 862 520Q925 520 968.5 521Q1012 522 1040.5 524Q1069 526 1084.5 528.5Q1100 531 1107 535L1125 525V36Q1157 12 1168.5 -19Q1180 -50 1180 -82Q1180 -117 1168.5 -149Q1157 -181 1131.5 -206Q1106 -231 1064.5 -245.5Q1023 -260 963 -260Z" glyph-name="f_f_j.alt" horiz-adv-x="1185" /><glyph d="M38 0V94H83V456H38V550H571V349H460V378Q460 398 457 413Q454 428 445.5 437.5Q437 447 420.5 451.5Q404 456 377 456H323V316H362V374H432V178H362V227H323V94H388V0ZM1535 188Q1535 83 1476.5 38Q1418 -7 1302 -7Q1253 -7 1210.5 1Q1168 9 1136.5 26Q1105 43 1086.5 68.5Q1068 94 1068 128Q1068 173 1095 197.5Q1122 222 1165 222Q1209 222 1236 201.5Q1263 181 1263 139Q1263 119 1258.5 107.5Q1254 96 1247 90Q1251 88 1259 88Q1281 88 1288 100.5Q1295 113 1295 138V457H1250V551H1580V457H1535ZM611 0V94H656V456H611V550H1144V349H1033V378Q1033 398 1030 413Q1027 428 1018.5 437.5Q1010 447 993.5 451.5Q977 456 950 456H896V316H935V374H1005V178H935V227H896V94H961V0Z" glyph-name="f_f_j.alt.sc" horiz-adv-x="1606" /><glyph d="M38 0V94H83V456H38V550H562V351H451V378Q451 398 448.5 413Q446 428 437 437.5Q428 447 412 451.5Q396 456 369 456H323V316L442 324V218L323 227V94H388V0ZM602 0V94H647V456H602V550H1126V351H1015V378Q1015 398 1012.5 413Q1010 428 1001 437.5Q992 447 976 451.5Q960 456 933 456H887V316L1006 324V218L887 227V94H952V0ZM1517 187Q1517 82 1458.5 37Q1400 -8 1284 -8Q1235 -8 1192.5 0Q1150 8 1118.5 25Q1087 42 1068.5 67.5Q1050 93 1050 127Q1050 172 1077 196.5Q1104 221 1147 221Q1191 221 1218 200.5Q1245 180 1245 138Q1245 118 1240.5 106.5Q1236 95 1229 89Q1233 87 1241 87Q1263 87 1270 99.5Q1277 112 1277 137V456H1232V550H1562V456H1517Z" glyph-name="f_f_j.sc" horiz-adv-x="1588" /><glyph d="M477 525Q477 587 501 635Q488 640 473.5 642.5Q459 645 441 645Q420 645 399 640Q378 635 361.5 623Q345 611 335 591Q325 571 325 540V520H477ZM35 0V100H85V420H35V520H87V527Q87 581 108.5 621Q130 661 168 687.5Q206 714 257 727Q308 740 366 740Q431 740 477 730Q523 720 555 702Q625 760 740 760Q782 760 812 758Q842 756 866.5 753Q891 750 914 748Q937 746 966 746Q996 746 1016.5 747Q1037 748 1050 750Q1063 752 1071 754.5Q1079 757 1085 760L1105 750V100H1155V0H815V100H865V662Q859 667 846 671Q833 675 816 675Q761 675 738 650.5Q715 626 715 567V520H802V420H715V100H765V0H425V100H475V420H325V100H375V0Z" glyph-name="f_f_l" horiz-adv-x="1178" unicode="&#64260;" /><glyph d="M539 520Q520 525 497 532.5Q474 540 455 553.5Q436 567 423 588.5Q410 610 410 642Q375 654 342 657Q309 660 282 660Q142 660 142 599Q142 559 215 539.5Q288 520 445 520ZM35 0V100H85V420H35V520H139Q120 525 97 531Q74 537 55 548Q36 559 23 577.5Q10 596 10 626Q10 683 74 716.5Q138 750 253 750Q294 750 325 748.5Q356 747 381 743.5Q406 740 427 735Q448 730 468 724Q501 741 556 750.5Q611 760 693 760Q745 760 780.5 757.5Q816 755 844.5 752.5Q873 750 900 747.5Q927 745 962 745Q1024 745 1055.5 748.5Q1087 752 1105 760L1125 750V100H1175V0H835V100H885V652Q851 661 805 665.5Q759 670 704 670Q621 670 581.5 654.5Q542 639 542 609Q542 569 615.5 544.5Q689 520 845 520V420H725V100H775V0H435V100H485V420H325V100H375V0Z" glyph-name="f_f_l.alt" horiz-adv-x="1198" /><glyph d="M38 0V94H83V456H38V550H571V349H460V378Q460 398 457 413Q454 428 445.5 437.5Q437 447 420.5 451.5Q404 456 377 456H323V316H362V374H432V178H362V227H323V94H388V0ZM611 1V95H656V457H611V551H1144V350H1033V379Q1033 399 1030 414Q1027 429 1018.5 438.5Q1010 448 993.5 452.5Q977 457 950 457H896V317H935V375H1005V179H935V228H896V95H961V1ZM1184 95H1229V457H1184V551H1521V457H1469V95H1534Q1544 95 1555.5 98.5Q1567 102 1577 112Q1587 122 1593.5 140.5Q1600 159 1600 189V215H1711V1H1184Z" glyph-name="f_f_l.alt.sc" horiz-adv-x="1728" /><glyph d="M38 0V94H83V456H38V550H562V351H451V378Q451 398 448.5 413Q446 428 437 437.5Q428 447 412 451.5Q396 456 369 456H323V316L442 324V218L323 227V94H388V0ZM602 0V94H647V456H602V550H1126V351H1015V378Q1015 398 1012.5 413Q1010 428 1001 437.5Q992 447 976 451.5Q960 456 933 456H887V316L1006 324V218L887 227V94H952V0ZM1166 94H1211V456H1166V550H1503V456H1451V94H1516Q1526 94 1537.5 97.5Q1549 101 1559 111Q1569 121 1575.5 139.5Q1582 158 1582 188V214H1693V0H1166Z" glyph-name="f_f_l.sc" horiz-adv-x="1710" /><glyph d="M475 662Q469 667 456 671Q443 675 426 675Q371 675 348 650.5Q325 626 325 567V520H412V420H325V100H375V0H35V100H85V420H35V520H87V525Q87 581 106.5 625Q126 669 161 699Q196 729 244 744.5Q292 760 350 760Q392 760 422 758Q452 756 476.5 753Q501 750 524 748Q547 746 576 746Q606 746 626.5 747Q647 748 660 750Q673 752 681 754.5Q689 757 695 760L715 750V642Q715 587 710.5 527Q706 467 697 415Q715 466 761.5 500.5Q808 535 881 535Q919 535 953 524Q987 513 1013.5 489Q1040 465 1055.5 427.5Q1071 390 1071 336V100H1121V0H796V100H831V290Q831 344 816.5 363.5Q802 383 773 383Q744 383 729.5 363Q715 343 715 291V100H750V0H425V100H475Z" glyph-name="f_h" horiz-adv-x="1144" /><glyph d="M725 642Q725 587 720.5 527Q716 467 707 415Q725 466 771.5 500.5Q818 535 891 535Q929 535 963 524Q997 513 1023.5 489Q1050 465 1065.5 427.5Q1081 390 1081 336V100H1131V0H806V100H841V290Q841 344 826.5 363.5Q812 383 783 383Q754 383 739.5 363Q725 343 725 291V100H760V0H435V100H485V652Q451 661 405 665.5Q359 670 304 670Q221 670 181.5 654.5Q142 639 142 609Q142 569 215.5 544.5Q289 520 445 520V420H325V100H375V0H35V100H85V420H35V520H139Q120 525 97 532.5Q74 540 55 553Q36 566 23 586Q10 606 10 636Q10 664 24.5 687Q39 710 72 726Q105 742 159.5 751Q214 760 293 760Q345 760 380.5 757.5Q416 755 444.5 752.5Q473 750 500 747.5Q527 745 562 745Q624 745 655.5 748.5Q687 752 705 760L725 750Z" glyph-name="f_h.alt" horiz-adv-x="1154" /><glyph d="M38 0V94H83V456H38V550H571V349H460V378Q460 398 457 413Q454 428 445.5 437.5Q437 447 420.5 451.5Q404 456 377 456H323V316H362V374H432V178H362V227H323V94H388V0ZM611 94H656V456H611V550H931V456H896V328H1005V456H970V550H1290V456H1245V94H1290V0H970V94H1005V233H896V94H931V0H611Z" glyph-name="f_h.alt.sc" horiz-adv-x="1328" /><glyph d="M38 0V94H83V456H38V550H562V351H451V378Q451 398 448.5 413Q446 428 437 437.5Q428 447 412 451.5Q396 456 369 456H323V316L442 324V218L323 227V94H388V0ZM602 94H647V456H602V550H922V456H887V328H996V456H961V550H1281V456H1236V94H1281V0H961V94H996V233H887V94H922V0H602Z" glyph-name="f_h.sc" horiz-adv-x="1319" /><glyph d="M757 637Q757 595 732 576Q707 557 672 557Q638 557 612.5 576Q587 595 587 637Q587 679 612.5 700Q638 721 672 721Q707 721 732 700Q757 679 757 637ZM35 0V100H85V420H35V520H87V528Q87 586 108.5 629.5Q130 673 167 702Q204 731 253.5 745.5Q303 760 358 760Q403 760 441.5 753Q480 746 508 731Q536 716 551.5 693Q567 670 567 638Q567 596 545.5 576.5Q524 557 483 557Q458 557 441.5 565Q425 573 415 585Q405 597 401 611Q397 625 397 637Q397 658 407 673Q393 670 378.5 661.5Q364 653 352 636.5Q340 620 332.5 594.5Q325 569 325 533V520H407Q497 520 553.5 521Q610 522 642.5 524.5Q675 527 688.5 530Q702 533 706 536L715 526V100H765V0H425V100H475V420H325V100H375V0Z" glyph-name="f_idieresis" horiz-adv-x="788" /><glyph d="M815 644Q815 602 789 580Q763 558 720 558Q678 558 651.5 580Q625 602 625 644Q625 686 651.5 708.5Q678 731 720 731Q763 731 789 708.5Q815 686 815 644ZM470 520Q530 520 571.5 521Q613 522 641 523.5Q669 525 684.5 528Q700 531 707 535L725 525V100H775V0H435V100H485V420H325V100H375V0H35V100H85V420H35V520H149Q126 525 101.5 532.5Q77 540 56.5 553Q36 566 23 586Q10 606 10 636Q10 664 31.5 687Q53 710 90.5 726Q128 742 178.5 751Q229 760 287 760Q371 760 430.5 752Q490 744 527 729Q564 714 581 693Q598 672 598 645Q598 629 592.5 613.5Q587 598 575.5 585.5Q564 573 546 565.5Q528 558 503 558Q477 558 458.5 565.5Q440 573 428 584.5Q416 596 410 609.5Q404 623 404 635Q404 652 407 665Q387 667 366 668.5Q345 670 330 670Q241 670 201.5 654.5Q162 639 162 609Q162 589 185.5 572.5Q209 556 250 544.5Q291 533 347.5 526.5Q404 520 470 520Z" glyph-name="f_idieresis.alt" horiz-adv-x="798" /><glyph d="M38 0V94H83V456H38V550H571V349H460V378Q460 398 457 413Q454 428 445.5 437.5Q437 447 420.5 451.5Q404 456 377 456H323V316H362V374H432V178H362V227H323V94H388V0ZM762 673Q762 638 739 620Q716 602 681 602Q647 602 623.5 620Q600 638 600 673Q600 708 623.5 727.5Q647 747 681 747Q716 747 739 727.5Q762 708 762 673ZM951 673Q951 638 928.5 620Q906 602 871 602Q837 602 813.5 620Q790 638 790 673Q790 708 813.5 727.5Q837 747 871 747Q906 747 928.5 727.5Q951 708 951 673ZM611 0V94H656V456H611V550H942V456H896V94H942V0Z" glyph-name="f_idieresis.alt.sc" horiz-adv-x="979" /><glyph d="M38 0V94H83V456H38V550H562V351H451V378Q451 398 448.5 413Q446 428 437 437.5Q428 447 412 451.5Q396 456 369 456H323V316L442 324V218L323 227V94H388V0ZM753 673Q753 638 730 620Q707 602 672 602Q638 602 614.5 620Q591 638 591 673Q591 708 614.5 727.5Q638 747 672 747Q707 747 730 727.5Q753 708 753 673ZM942 673Q942 638 919.5 620Q897 602 862 602Q828 602 804.5 620Q781 638 781 673Q781 708 804.5 727.5Q828 747 862 747Q897 747 919.5 727.5Q942 708 942 673ZM602 0V94H647V456H602V550H933V456H887V94H933V0Z" glyph-name="f_idieresis.sc" horiz-adv-x="970" /><glyph d="M477 -260Q426 -260 383.5 -251.5Q341 -243 310.5 -225.5Q280 -208 263.5 -182.5Q247 -157 247 -124Q247 -90 271.5 -64Q296 -38 345 -38Q393 -38 418 -64Q443 -90 443 -123Q443 -141 436.5 -154.5Q430 -168 420 -179Q424 -180 434 -180Q463 -180 469 -147Q475 -114 475 -36V420H325V100H375V0H35V100H85V420H35V520H87V528Q87 586 113.5 629.5Q140 673 184.5 702Q229 731 287 745.5Q345 760 408 760Q464 760 514.5 752.5Q565 745 603 729.5Q641 714 663 690Q685 666 685 632Q685 617 680.5 602Q676 587 664.5 576Q653 565 634.5 558Q616 551 588 551Q560 551 540.5 558.5Q521 566 510 577.5Q499 589 494 602.5Q489 616 489 628Q489 642 493.5 652.5Q498 663 506 671Q497 673 485.5 674Q474 675 460 675Q433 675 409 668.5Q385 662 366 646Q347 630 336 602.5Q325 575 325 533V520H405Q547 520 615 523.5Q683 527 697 535L715 525V0Q715 -56 706 -103.5Q697 -151 671.5 -185.5Q646 -220 599 -240Q552 -260 477 -260Z" glyph-name="f_j" horiz-adv-x="773" /><glyph d="M563 -260Q516 -260 476.5 -251.5Q437 -243 408 -225.5Q379 -208 363 -182.5Q347 -157 347 -124Q347 -90 371.5 -64Q396 -38 445 -38Q493 -38 518 -64Q543 -90 543 -123Q543 -141 535 -154.5Q527 -168 515 -179Q519 -180 533 -180Q565 -180 589.5 -160Q614 -140 614 -99Q614 -50 579 -25Q544 0 485 0V420H325V100H375V0H35V100H85V420H35V520H149Q126 525 101.5 532.5Q77 540 56.5 553Q36 566 23 586Q10 606 10 636Q10 664 35 687Q60 710 105 726Q150 742 212 751Q274 760 347 760Q458 760 528.5 750.5Q599 741 639.5 724Q680 707 695.5 684.5Q711 662 711 635Q711 619 705 603.5Q699 588 686.5 575.5Q674 563 654 555.5Q634 548 606 548Q578 548 557 555.5Q536 563 523 574.5Q510 586 503.5 599.5Q497 613 497 625Q497 636 499 645Q501 654 504 662Q479 666 447 668Q415 670 373 670Q329 670 290.5 666Q252 662 223.5 654.5Q195 647 178.5 635.5Q162 624 162 609Q162 590 184.5 573.5Q207 557 247.5 545.5Q288 534 343 527Q398 520 462 520Q525 520 568.5 521Q612 522 640.5 524Q669 526 684.5 528.5Q700 531 707 535L725 525V36Q757 12 768.5 -19Q780 -50 780 -82Q780 -117 768.5 -149Q757 -181 731.5 -206Q706 -231 664.5 -245.5Q623 -260 563 -260Z" glyph-name="f_j.alt" horiz-adv-x="785" /><glyph d="M38 0V94H83V456H38V550H571V349H460V378Q460 398 457 413Q454 428 445.5 437.5Q437 447 420.5 451.5Q404 456 377 456H323V316H362V374H432V178H362V227H323V94H388V0ZM962 187Q962 82 903.5 37Q845 -8 729 -8Q680 -8 637.5 0Q595 8 563.5 25Q532 42 513.5 67.5Q495 93 495 127Q495 172 522 196.5Q549 221 592 221Q636 221 663 200.5Q690 180 690 138Q690 118 685.5 106.5Q681 95 674 89Q678 87 686 87Q708 87 715 99.5Q722 112 722 137V456H677V550H1007V456H962Z" glyph-name="f_j.alt.sc" horiz-adv-x="1033" /><glyph d="M38 0V94H83V456H38V550H562V351H451V378Q451 398 448.5 413Q446 428 437 437.5Q428 447 412 451.5Q396 456 369 456H323V316L442 324V218L323 227V94H388V0ZM953 187Q953 82 894.5 37Q836 -8 720 -8Q671 -8 628.5 0Q586 8 554.5 25Q523 42 504.5 67.5Q486 93 486 127Q486 172 513 196.5Q540 221 583 221Q627 221 654 200.5Q681 180 681 138Q681 118 676.5 106.5Q672 95 665 89Q669 87 677 87Q699 87 706 99.5Q713 112 713 137V456H668V550H998V456H953Z" glyph-name="f_j.sc" horiz-adv-x="1024" /><glyph d="M375 0H35V100H85V420H35V520H87V525Q87 581 106.5 625Q126 669 161 699Q196 729 244 744.5Q292 760 350 760Q392 760 422 758Q452 756 476.5 753Q501 750 524 748Q547 746 576 746Q606 746 626.5 747Q647 748 660 750Q673 752 681 754.5Q689 757 695 760L715 750V293L862 420H810V520H1103V420H1010L932 352L1109 100H1141V0H800V100H832L760 202L715 164V100H765V0H425V100H475V662Q469 667 456 671Q443 675 426 675Q371 675 348 650.5Q325 626 325 567V520H412V420H325V100H375Z" glyph-name="f_k" horiz-adv-x="1142" /><glyph d="M375 0H35V100H85V420H35V520H139Q120 525 97 532.5Q74 540 55 553Q36 566 23 586Q10 606 10 636Q10 664 24.5 687Q39 710 72 726Q105 742 159.5 751Q214 760 293 760Q345 760 380.5 757.5Q416 755 444.5 752.5Q473 750 500 747.5Q527 745 562 745Q624 745 655.5 748.5Q687 752 705 760L725 750V520H1119V435L957 315L1120 100H1151V0H810V100H857L790 190L725 142V100H755V0H435V100H485V652Q451 661 405 665.5Q359 670 304 670Q221 670 181.5 654.5Q142 639 142 609Q142 569 215.5 544.5Q289 520 445 520V420H325V100H375ZM930 420H725V269Z" glyph-name="f_k.alt" horiz-adv-x="1156" /><glyph d="M38 0V94H83V456H38V550H571V349H460V378Q460 398 457 413Q454 428 445.5 437.5Q437 447 420.5 451.5Q404 456 377 456H323V316H362V374H432V178H362V227H323V94H388V0ZM896 296 1109 456H896ZM611 0V94H656V456H611V550H1270V456L1110 340L1270 94H1297V0H975V94H1007L929 209L896 185V94H926V0Z" glyph-name="f_k.alt.sc" horiz-adv-x="1303" /><glyph d="M38 0V94H83V456H38V550H562V351H451V378Q451 398 448.5 413Q446 428 437 437.5Q428 447 412 451.5Q396 456 369 456H323V316L442 324V218L323 227V94H388V0ZM602 0V94H647V456H602V550H917V456H887V304L1053 456H1011V550H1259V456H1191L1074 351L1261 94H1292V0H967V94H996L913 207L887 184V94H917V0Z" glyph-name="f_k.sc" horiz-adv-x="1295" /><glyph d="M321 424V98H383V0H41V98H79V424H41V522H81V528Q81 584 103.5 627Q126 670 167 699.5Q208 729 265 744.5Q322 760 392 760Q453 760 507 748.5Q561 737 601.5 712.5Q642 688 665.5 648.5Q689 609 689 553V522H845V424H691V224Q691 167 702 138Q713 109 739 109Q766 109 776 143Q786 177 786 232H861Q861 117 816 53.5Q771 -10 667 -10Q549 -10 500 44.5Q451 99 451 210V424ZM435 522Q479 522 498 542Q517 562 517 601Q517 638 496 656.5Q475 675 440 675Q416 675 394.5 668.5Q373 662 356.5 646Q340 630 330.5 604Q321 578 321 539V522Z" glyph-name="f_t" horiz-adv-x="873" /><glyph d="M685 -10Q655 -10 620 -3.5Q585 3 555 23.5Q525 44 505 82Q485 120 485 182V420H325V100H375V0H35V100H85V420H35V520H139Q120 525 97 532.5Q74 540 55 553Q36 566 23 586Q10 606 10 636Q10 693 70 726.5Q130 760 249 760Q364 760 455.5 721.5Q547 683 611 602L733 770L784 750Q775 727 764.5 702.5Q754 678 745.5 650Q737 622 731 590Q725 558 725 520H894V420H725V218Q725 157 734 133.5Q743 110 771 110Q789 110 798.5 126Q808 142 812 163Q816 184 816.5 204Q817 224 817 232H892Q892 191 885.5 148Q879 105 857.5 70Q836 35 795 12.5Q754 -10 685 -10ZM485 520Q485 549 473.5 576Q462 603 436.5 624Q411 645 370 657.5Q329 670 270 670Q213 670 177.5 654.5Q142 639 142 609Q142 569 215.5 544.5Q289 520 445 520Z" glyph-name="f_t.alt" horiz-adv-x="911" /><glyph d="M38 0V94H83V456H38V550H571V349H460V378Q460 398 457 413Q454 428 445.5 437.5Q437 447 420.5 451.5Q404 456 377 456H323V316H362V374H432V178H362V227H323V94H388V0ZM735 94H790V458H785Q750 458 736 436.5Q722 415 722 367V330H611V550H1209V330H1098V367Q1098 415 1084 436.5Q1070 458 1035 458H1030V94H1084V0H735Z" glyph-name="f_t.alt.sc" horiz-adv-x="1225" /><glyph d="M38 0V94H83V456H38V550H562V351H451V378Q451 398 448.5 413Q446 428 437 437.5Q428 447 412 451.5Q396 456 369 456H323V316L442 324V218L323 227V94H388V0ZM726 94H781V458H776Q741 458 727 436.5Q713 415 713 367V330H602V550H1200V330H1089V367Q1089 415 1075 436.5Q1061 458 1026 458H1021V94H1075V0H726Z" glyph-name="f_t.sc" horiz-adv-x="1216" /><glyph d="M35 0V100H85V420H35V520H87V528Q87 586 113.5 629.5Q140 673 184.5 702Q229 731 287 745.5Q345 760 408 760Q464 760 514.5 752.5Q565 745 603 729.5Q641 714 663 690Q685 666 685 632Q685 617 680.5 602Q676 587 664.5 576Q653 565 634.5 558Q616 551 588 551Q560 551 540.5 558.5Q521 566 510 577.5Q499 589 494 602.5Q489 616 489 628Q489 642 493.5 652.5Q498 663 506 671Q497 673 485.5 674Q474 675 460 675Q433 675 409 668.5Q385 662 366 646Q347 630 336 602.5Q325 575 325 533V520H407Q497 520 553.5 521Q610 522 642.5 524.5Q675 527 688.5 530Q702 533 706 536L715 526V100H765V0H425V100H475V420H325V100H375V0Z" glyph-name="fi" horiz-adv-x="788" unicode="&#64257;" /><glyph d="M470 520Q530 520 571.5 521Q613 522 641 523.5Q669 525 684.5 528Q700 531 707 535L725 525V100H775V0H435V100H485V420H325V100H375V0H35V100H85V420H35V520H149Q126 525 101.5 532.5Q77 540 56.5 553Q36 566 23 586Q10 606 10 636Q10 664 35 687Q60 710 105 726Q150 742 212 751Q274 760 347 760Q452 760 520 750.5Q588 741 628.5 724Q669 707 685 684.5Q701 662 701 635Q701 619 696 603.5Q691 588 680 575.5Q669 563 650.5 555.5Q632 548 606 548Q579 548 560 555.5Q541 563 529.5 574.5Q518 586 512.5 599.5Q507 613 507 625Q507 646 513 661Q487 665 452.5 667.5Q418 670 373 670Q329 670 290.5 666Q252 662 223.5 654.5Q195 647 178.5 635.5Q162 624 162 609Q162 589 185.5 572.5Q209 556 250 544.5Q291 533 347.5 526.5Q404 520 470 520Z" glyph-name="fi.alt" horiz-adv-x="798" /><glyph d="M38 0V94H83V456H38V550H571V349H460V378Q460 398 457 413Q454 428 445.5 437.5Q437 447 420.5 451.5Q404 456 377 456H323V316H362V374H432V178H362V227H323V94H388V0ZM611 0V94H656V456H611V550H942V456H896V94H942V0Z" glyph-name="fi.alt.sc" horiz-adv-x="979" /><glyph d="M38 0V94H83V456H38V550H562V351H451V378Q451 398 448.5 413Q446 428 437 437.5Q428 447 412 451.5Q396 456 369 456H323V316L442 324V218L323 227V94H388V0ZM602 0V94H647V456H602V550H933V456H887V94H933V0Z" glyph-name="fi.sc" horiz-adv-x="970" /><glyph d="M235 90Q280 90 301.5 123Q323 156 323 216Q323 282 295.5 311Q268 340 219 340Q187 340 166.5 327.5Q146 315 139 300H65L93 690H533V560H193L184 420Q215 432 246.5 436Q278 440 312 440Q383 440 433 421.5Q483 403 514 373Q545 343 559 304Q573 265 573 224Q573 183 559 141Q545 99 512 65.5Q479 32 425 11Q371 -10 291 -10Q163 -10 97 28.5Q31 67 31 139Q31 182 58 209Q85 236 136 236Q184 236 210 210.5Q236 185 236 143Q236 131 232.5 118Q229 105 220 91Q225 90 235 90Z" glyph-name="five" horiz-adv-x="599" unicode="5" /><glyph d="M178 -89Q195 -89 204.5 -70.5Q214 -52 214 -17Q214 23 198 41Q182 59 153 59Q130 59 117 50.5Q104 42 99 31H43L63 300H389V194H143L137 123Q159 131 181 134Q203 137 226 137Q279 137 315.5 125Q352 113 374.5 93Q397 73 407 48Q417 23 417 -4Q417 -31 408 -58.5Q399 -86 376 -107.5Q353 -129 312.5 -143Q272 -157 210 -157Q115 -157 69.5 -131.5Q24 -106 24 -61Q24 -30 45 -12.5Q66 5 101 5Q136 5 156 -11Q176 -27 176 -54Q176 -60 173 -71Q170 -82 163 -87Q165 -88 168.5 -88.5Q172 -89 178 -89Z" glyph-name="five.inferior" horiz-adv-x="438" /><glyph d="M225 -85Q272 -85 292.5 -48.5Q313 -12 313 54Q313 114 285.5 144.5Q258 175 209 175Q177 175 156.5 162.5Q136 150 129 135H55L83 520H518V395H180L169 250Q200 262 234 266Q268 270 302 270Q373 270 422 251.5Q471 233 501 203Q531 173 544.5 134Q558 95 558 54Q558 13 545.5 -29Q533 -71 500.5 -104.5Q468 -138 411 -159Q354 -180 264 -180Q211 -180 167 -171Q123 -162 91.5 -145Q60 -128 43 -102.5Q26 -77 26 -44Q26 5 52.5 33Q79 61 126 61Q171 61 196.5 35.5Q222 10 222 -32Q222 -44 220.5 -57Q219 -70 210 -84Q215 -85 225 -85Z" glyph-name="five.old" horiz-adv-x="579" /><glyph d="M227 76Q256 76 273 101.5Q290 127 290 171Q290 258 199 258Q170 258 152 248.5Q134 239 128 230H61L83 550H499V426H179L173 338Q228 351 286 351Q352 351 399 336Q446 321 476 297Q506 273 520.5 242Q535 211 535 179Q535 146 522 112.5Q509 79 478.5 52.5Q448 26 396.5 9Q345 -8 267 -8Q149 -8 88.5 22Q28 52 28 112Q28 151 54 175Q80 199 128 199Q178 199 201 176Q224 153 224 115Q224 107 222.5 96Q221 85 217 77Q222 76 227 76Z" glyph-name="five.sc" horiz-adv-x="559" /><glyph d="M178 491Q195 491 204.5 509.5Q214 528 214 563Q214 603 198 621Q182 639 153 639Q130 639 117 630.5Q104 622 99 611H43L63 880H389V774H143L137 703Q159 711 181 714Q203 717 226 717Q279 717 315.5 705Q352 693 374.5 673Q397 653 407 628Q417 603 417 576Q417 549 408 521.5Q399 494 376 472.5Q353 451 312.5 437Q272 423 210 423Q115 423 69.5 448.5Q24 474 24 519Q24 550 45 567.5Q66 585 101 585Q136 585 156 569Q176 553 176 526Q176 520 173 509Q170 498 163 493Q165 492 168.5 491.5Q172 491 178 491Z" glyph-name="five.superior" horiz-adv-x="438" /><glyph d="M255 90Q300 90 321.5 123Q343 156 343 216Q343 282 315.5 311Q288 340 239 340Q207 340 186.5 327.5Q166 315 159 300H85L113 690H553V560H213L204 420Q235 432 266.5 436Q298 440 332 440Q403 440 453 421.5Q503 403 534 373Q565 343 579 304Q593 265 593 224Q593 183 579 141Q565 99 532 65.5Q499 32 445 11Q391 -10 311 -10Q183 -10 117 28.5Q51 67 51 139Q51 182 78 209Q105 236 156 236Q204 236 230 210.5Q256 185 256 143Q256 131 252.5 118Q249 105 240 91Q245 90 255 90Z" glyph-name="five.tln" horiz-adv-x="640" /><glyph d="M256 -85Q303 -85 323.5 -48.5Q344 -12 344 54Q344 114 316.5 144.5Q289 175 240 175Q208 175 187.5 162.5Q167 150 160 135H86L114 520H549V395H211L200 250Q231 262 265 266Q299 270 333 270Q404 270 453 251.5Q502 233 532 203Q562 173 575.5 134Q589 95 589 54Q589 13 576.5 -29Q564 -71 531.5 -104.5Q499 -138 442 -159Q385 -180 295 -180Q242 -180 198 -171Q154 -162 122.5 -145Q91 -128 74 -102.5Q57 -77 57 -44Q57 5 83.5 33Q110 61 157 61Q202 61 227.5 35.5Q253 10 253 -32Q253 -44 251.5 -57Q250 -70 241 -84Q246 -85 256 -85Z" glyph-name="five.ton" horiz-adv-x="640" /><glyph d="M765 100V0H425V100H475V662Q469 667 456 671Q443 675 426 675Q371 675 348 650.5Q325 626 325 567V520H412V420H325V100H375V0H35V100H85V420H35V520H87V525Q87 581 106.5 625Q126 669 161 699Q196 729 244 744.5Q292 760 350 760Q392 760 422 758Q452 756 476.5 753Q501 750 524 748Q547 746 576 746Q606 746 626.5 747Q647 748 660 750Q673 752 681 754.5Q689 757 695 760L715 750V100Z" glyph-name="fl" horiz-adv-x="788" unicode="&#64258;" /><glyph d="M485 652Q451 661 405 665.5Q359 670 304 670Q221 670 181.5 654.5Q142 639 142 609Q142 569 215.5 544.5Q289 520 445 520V420H325V100H375V0H35V100H85V420H35V520H139Q120 525 97 532.5Q74 540 55 553Q36 566 23 586Q10 606 10 636Q10 664 24.5 687Q39 710 72 726Q105 742 159.5 751Q214 760 293 760Q345 760 380.5 757.5Q416 755 444.5 752.5Q473 750 500 747.5Q527 745 562 745Q624 745 655.5 748.5Q687 752 705 760L725 750V100H775V0H435V100H485Z" glyph-name="fl.alt" horiz-adv-x="798" /><glyph d="M38 0V94H83V456H38V550H571V349H460V378Q460 398 457 413Q454 428 445.5 437.5Q437 447 420.5 451.5Q404 456 377 456H323V316H362V374H432V178H362V227H323V94H388V0ZM611 94H656V456H611V550H948V456H896V94H961Q971 94 982.5 97.5Q994 101 1004 111Q1014 121 1020.5 139.5Q1027 158 1027 188V214H1138V0H611Z" glyph-name="fl.alt.sc" horiz-adv-x="1155" /><glyph d="M38 0V94H83V456H38V550H562V351H451V378Q451 398 448.5 413Q446 428 437 437.5Q428 447 412 451.5Q396 456 369 456H323V316L442 324V218L323 227V94H388V0ZM602 94H647V456H602V550H939V456H887V94H952Q962 94 973.5 97.5Q985 101 995 111Q1005 121 1011.5 139.5Q1018 158 1018 188V214H1129V0H602Z" glyph-name="fl.sc" horiz-adv-x="1146" /><glyph d="M251 0V100H306V180H11V258L331 690H551V280H606V180H551V100H606V0ZM306 493 148 280H306Z" glyph-name="four" horiz-adv-x="647" unicode="4" /><glyph d="M179 -150V-71H211V-39H10V24L229 300H411V40H446V-39H411V-71H446V-150ZM211 157 118 40H211Z" glyph-name="four.inferior" horiz-adv-x="479" /><glyph d="M313 -170V0H13V78L338 535H553V100H623V0H553V-170ZM313 100V342L141 100Z" glyph-name="four.old" horiz-adv-x="652" /><glyph d="M228 0V94H272V137H13V212L294 550H512V231H557V137H512V94H557V0ZM272 370 156 231H272Z" glyph-name="four.sc" horiz-adv-x="597" /><glyph d="M179 430V509H211V541H10V604L229 880H411V620H446V541H411V509H446V430ZM211 737 118 620H211Z" glyph-name="four.superior" horiz-adv-x="479" /><glyph d="M247 0V100H302V180H7V258L327 690H547V280H602V180H547V100H602V0ZM302 493 144 280H302Z" glyph-name="four.tln" horiz-adv-x="640" /><glyph d="M307 -170V0H7V78L332 535H547V100H617V0H547V-170ZM307 100V342L135 100Z" glyph-name="four.ton" horiz-adv-x="640" /><glyph d="M312 240Q335 240 347 266Q359 292 359 349Q359 460 312 460Q265 460 265 349Q265 292 277 266Q289 240 312 240ZM647 -68Q647 -109 629.5 -144Q612 -179 572.5 -205Q533 -231 469 -245.5Q405 -260 312 -260Q258 -260 207 -254Q156 -248 117 -233.5Q78 -219 54.5 -194Q31 -169 31 -130Q31 -92 59.5 -65.5Q88 -39 129 -25Q113 -20 97.5 -12Q82 -4 70 8.5Q58 21 50.5 38Q43 55 43 78Q43 120 72 147Q101 174 150 188Q90 210 60 251Q30 292 30 349Q30 394 51 428.5Q72 463 109.5 487Q147 511 199 523Q251 535 312 535Q323 535 338 534Q353 533 369 530.5Q385 528 399.5 525.5Q414 523 423 520H661V420L568 434Q585 415 589.5 393Q594 371 594 349Q594 310 578.5 276Q563 242 529 217.5Q495 193 441.5 179Q388 165 312 165Q256 165 234.5 159.5Q213 154 213 137Q213 120 236.5 112.5Q260 105 314 105Q403 105 466 92.5Q529 80 569 57Q609 34 628 2Q647 -30 647 -68ZM346 -179Q375 -179 400.5 -175.5Q426 -172 445.5 -164.5Q465 -157 476 -145Q487 -133 487 -116Q487 -102 478.5 -90Q470 -78 444.5 -69.5Q419 -61 372 -56Q325 -51 248 -51H227Q218 -57 210.5 -73.5Q203 -90 203 -107Q203 -128 214 -142Q225 -156 244.5 -164Q264 -172 290 -175.5Q316 -179 346 -179Z" glyph-name="g" horiz-adv-x="666" unicode="g" /><glyph d="M908 675Q908 633 881.5 609Q855 585 812 585Q770 585 743.5 609Q717 633 717 675Q717 717 743.5 743Q770 769 812 769Q855 769 881.5 743Q908 717 908 675ZM715 -260Q601 -260 545 -220Q505 -239 447.5 -249.5Q390 -260 312 -260Q258 -260 207 -254Q156 -248 117 -233.5Q78 -219 54.5 -194Q31 -169 31 -130Q31 -92 59.5 -65.5Q88 -39 129 -25Q113 -20 97.5 -12Q82 -4 70 8.5Q58 21 50.5 38Q43 55 43 78Q43 120 72 147Q101 174 150 188Q90 210 60 251Q30 292 30 349Q30 394 51 428.5Q72 463 109.5 487Q147 511 199 523Q251 535 312 535Q323 535 338 534Q353 533 369 530.5Q385 528 399.5 525.5Q414 523 423 520Q580 520 677 521Q774 522 829 523.5Q884 525 906 528Q928 531 935 535L953 525V0Q953 -56 944 -103.5Q935 -151 909.5 -185.5Q884 -220 837 -240Q790 -260 715 -260ZM312 240Q335 240 347 266Q359 292 359 349Q359 460 312 460Q265 460 265 349Q265 292 277 266Q289 240 312 240ZM646 -180Q670 -180 683.5 -172.5Q697 -165 703.5 -147.5Q710 -130 711.5 -102.5Q713 -75 713 -36V412L568 434Q585 415 589.5 393Q594 371 594 349Q594 310 578.5 276Q563 242 529 217.5Q495 193 441.5 179Q388 165 312 165Q256 165 234.5 159.5Q213 154 213 137Q213 120 236.5 112.5Q260 105 314 105Q403 105 466 92.5Q529 80 569 57Q609 34 628 2Q647 -30 647 -68Q647 -129 611 -171Q628 -180 646 -180ZM346 -179Q375 -179 400.5 -175.5Q426 -172 445.5 -164.5Q465 -157 476 -145Q487 -133 487 -116Q487 -102 478.5 -90Q470 -78 444.5 -69.5Q419 -61 372 -56Q325 -51 248 -51H227Q218 -57 210.5 -73.5Q203 -90 203 -107Q203 -128 214 -142Q225 -156 244.5 -164Q264 -172 290 -175.5Q316 -179 346 -179Z" glyph-name="g_j" horiz-adv-x="1011" /><glyph d="M902 675Q902 633 875.5 609Q849 585 801 585Q754 585 727 609Q700 633 700 675Q700 717 727 743Q754 769 801 769Q849 769 875.5 743Q902 717 902 675ZM765 -260Q724 -260 693 -257.5Q662 -255 637.5 -249.5Q613 -244 592.5 -235.5Q572 -227 553 -216Q513 -237 454 -248.5Q395 -260 312 -260Q258 -260 207 -254Q156 -248 117 -233.5Q78 -219 54.5 -194Q31 -169 31 -130Q31 -92 59.5 -65.5Q88 -39 129 -25Q113 -20 97.5 -12Q82 -4 70 8.5Q58 21 50.5 38Q43 55 43 78Q43 120 72 147Q101 174 150 188Q90 210 60 251Q30 292 30 349Q30 394 51 428.5Q72 463 109.5 487Q147 511 199 523Q251 535 312 535Q323 535 338 534Q353 533 369 530.5Q385 528 399.5 525.5Q414 523 423 520Q576 520 669.5 521Q763 522 815 523.5Q867 525 887.5 528Q908 531 915 535L933 525V36Q965 12 976.5 -19Q988 -50 988 -82Q988 -117 975.5 -149Q963 -181 936.5 -206Q910 -231 867.5 -245.5Q825 -260 765 -260ZM312 240Q335 240 347 266Q359 292 359 349Q359 460 312 460Q265 460 265 349Q265 292 277 266Q289 240 312 240ZM718 -180Q773 -180 797.5 -160Q822 -140 822 -99Q822 -50 787 -25Q752 0 693 0V415L568 434Q585 415 589.5 393Q594 371 594 349Q594 310 578.5 276Q563 242 529 217.5Q495 193 441.5 179Q388 165 312 165Q256 165 234.5 159.5Q213 154 213 137Q213 120 236.5 112.5Q260 105 314 105Q403 105 466 92.5Q529 80 569 57Q609 34 628 2Q647 -30 647 -68Q647 -118 623 -155Q637 -166 660 -173Q683 -180 718 -180ZM346 -179Q375 -179 400.5 -175.5Q426 -172 445.5 -164.5Q465 -157 476 -145Q487 -133 487 -116Q487 -102 478.5 -90Q470 -78 444.5 -69.5Q419 -61 372 -56Q325 -51 248 -51H227Q218 -57 210.5 -73.5Q203 -90 203 -107Q203 -128 214 -142Q225 -156 244.5 -164Q264 -172 290 -175.5Q316 -179 346 -179Z" glyph-name="g_j.alt" horiz-adv-x="993" /><glyph d="M447 32Q430 20 397.5 6Q365 -8 302 -8Q235 -8 183 15Q131 38 96 77Q61 116 42.5 167Q24 218 24 275Q24 332 43.5 383.5Q63 435 99 474Q135 513 185 535.5Q235 558 296 558Q346 558 374.5 545Q403 532 418 521L446 557H548V349H437Q434 406 415 433Q396 460 361 460Q315 460 291.5 411.5Q268 363 268 275Q268 220 274 184.5Q280 149 291.5 128Q303 107 319.5 98.5Q336 90 357 90Q364 90 370.5 90.5Q377 91 384 94V166H346V260H583V166H552V-8H480ZM635 0V94H680V456H635V550H966V456H920V94H966V0Z" glyph-name="g_j.alt.sc" horiz-adv-x="1001" /><glyph d="M447 32Q430 20 397.5 6Q365 -8 302 -8Q235 -8 183 15Q131 38 96 77Q61 116 42.5 167Q24 218 24 275Q24 332 43.5 383.5Q63 435 99 474Q135 513 185 535.5Q235 558 296 558Q346 558 374.5 545Q403 532 418 521L446 557H548V349H437Q434 406 415 433Q396 460 361 460Q315 460 291.5 411.5Q268 363 268 275Q268 220 274 184.5Q280 149 291.5 128Q303 107 319.5 98.5Q336 90 357 90Q364 90 370.5 90.5Q377 91 384 94V166H346V260H583V166H552V-8H480ZM635 0V94H680V456H635V550H966V456H920V94H966V0Z" glyph-name="g_j.sc" horiz-adv-x="1001" /><glyph d="M506 -10Q474 -10 448 -8.5Q422 -7 403 -5Q381 -3 363 0V93Q367 92 371 92Q375 91 380.5 90.5Q386 90 393 90Q426 90 444.5 113Q463 136 463 176Q463 217 447 241Q431 265 411.5 286Q392 307 375.5 331Q359 355 359 397Q359 427 370 448Q381 469 394 489Q407 509 418 531Q429 553 429 586Q429 621 417.5 640.5Q406 660 379 660Q325 660 325 572V0H35V100H85V420H35V520H85V528Q85 587 107.5 631Q130 675 170 703.5Q210 732 263.5 746Q317 760 379 760Q525 760 599.5 718.5Q674 677 674 603Q674 567 658 541Q642 515 618.5 496.5Q595 478 567 465Q539 452 515.5 441.5Q492 431 476 420.5Q460 410 460 397Q460 383 478.5 372.5Q497 362 524.5 351.5Q552 341 584 327Q616 313 643.5 291.5Q671 270 689.5 238Q708 206 708 159Q708 80 657 35Q606 -10 506 -10Z" glyph-name="germandbls" horiz-adv-x="719" unicode="&#223;" /><glyph d="M488 -12Q456 -12 432.5 -10Q409 -8 393 -6Q375 -3 363 0V95Q367 93 373 92Q378 90 385.5 89Q393 88 402 88Q462 88 462 189Q462 238 439 283.5Q416 329 353 357V397L556 650H325V0H35V100H85V420H35V520H85V750H677V637L513 436Q568 414 605 386Q642 358 664.5 326.5Q687 295 697 260Q707 225 707 187Q707 92 655.5 40Q604 -12 488 -12Z" glyph-name="germandbls.alt" horiz-adv-x="729" /><glyph d="M152 650Q115 661 92 671.5Q69 682 57 692.5Q45 703 41 713.5Q37 724 37 734Q37 756 56.5 773Q76 790 126 790Q171 790 203.5 774Q236 758 264 716L328 621H252Z" glyph-name="grave" horiz-adv-x="365" unicode="`" /><glyph d="M129 767Q76 781 57.5 797.5Q39 814 39 834Q39 856 54.5 873Q70 890 115 890Q141 890 161 883Q181 876 197.5 864.5Q214 853 227 838.5Q240 824 250 809L298 740H221Z" glyph-name="grave.cap" horiz-adv-x="353" /><glyph d="M61 224 255 344 61 466V585L387 376V323L61 114Z" glyph-name="greater" horiz-adv-x="415" unicode="&gt;" /><glyph d="M49 134 243 254 49 376V495L375 286V233L49 24Z" glyph-name="greater.old" horiz-adv-x="398" /><glyph d="M56 197 222 282 56 371V479L347 312V265L56 98Z" glyph-name="greater.sc" horiz-adv-x="373" /><glyph d="M173 224 367 344 173 466V585L499 376V323L173 114Z" glyph-name="greater.tln" horiz-adv-x="640" /><glyph d="M170 134 364 254 170 376V495L496 286V233L170 24Z" glyph-name="greater.ton" horiz-adv-x="640" /><glyph d="M325 10 22 256V290L325 514V436L227 273L325 88ZM538 49 264 257V289L538 475V397L460 273L538 127Z" glyph-name="guillemotleft" horiz-adv-x="586" unicode="&#171;" /><glyph d="M332 90 29 336V370L332 594V516L234 353L332 168ZM545 129 271 337V369L545 555V477L467 353L545 207Z" glyph-name="guillemotleft.cap" horiz-adv-x="601" /><glyph d="M305 35 26 237V264L305 448V375L203 250L305 108ZM501 66 247 238V263L501 417V344L417 250L501 139Z" glyph-name="guillemotleft.sc" horiz-adv-x="553" /><glyph d="M352 10 49 256V290L352 514V436L254 273L352 88ZM565 49 291 257V289L565 475V397L487 273L565 127Z" glyph-name="guillemotleft.tln" horiz-adv-x="640" /><glyph d="M359 268 261 436V514L564 290V256L261 10V88ZM126 268 48 397V475L322 289V257L48 49V127Z" glyph-name="guillemotright" horiz-adv-x="586" unicode="&#187;" /><glyph d="M367 348 269 516V594L572 370V336L269 90V168ZM134 348 56 477V555L330 369V337L56 129V207Z" glyph-name="guillemotright.cap" horiz-adv-x="601" /><glyph d="M350 245 248 375V448L527 264V237L248 35V108ZM136 245 52 344V417L306 263V238L52 66V139Z" glyph-name="guillemotright.sc" horiz-adv-x="553" /><glyph d="M386 268 288 436V514L591 290V256L288 10V88ZM153 268 75 397V475L349 289V257L75 49V127Z" glyph-name="guillemotright.tln" horiz-adv-x="640" /><glyph d="M23 0V100H73V645H23V745Q101 745 150 746Q199 747 227.5 748.5Q256 750 270 753Q284 756 293 760L313 750V642Q313 587 308.5 527Q304 467 295 415Q313 466 359.5 500.5Q406 535 479 535Q517 535 551 524Q585 513 611.5 489Q638 465 653.5 427.5Q669 390 669 336V100H719V0H394V100H429V290Q429 344 414.5 363.5Q400 383 371 383Q342 383 327.5 363Q313 343 313 291V100H348V0Z" glyph-name="h" horiz-adv-x="742" unicode="h" /><glyph d="M54 621 74 694Q82 725 91.5 750Q101 775 114 793Q127 811 145.5 820.5Q164 830 189 830Q224 830 242 812Q260 794 260 767Q260 741 243.5 712.5Q227 684 193 660L138 621ZM219 621 267 691Q306 748 341 769Q376 790 422 790Q463 790 485.5 778Q508 766 508 737Q508 705 479.5 685.5Q451 666 396 650L295 621Z" glyph-name="hungarumlaut" horiz-adv-x="577" unicode="&#733;" /><glyph d="M117 740H40L64 819Q82 879 104 912.5Q126 946 168 946Q202 946 216.5 930Q231 914 231 890Q231 857 211 832.5Q191 808 156 776ZM273 740H196L247 809Q276 848 310.5 872.5Q345 897 393 897Q425 897 445 884Q465 871 465 848Q465 820 441 803Q417 786 375 772Z" glyph-name="hungarumlaut.cap" horiz-adv-x="495" /><glyph d="M50 366H348V256H50Z" glyph-name="hyphen" horiz-adv-x="398" unicode="-" /><glyph d="M52 405H350V295H52Z" glyph-name="hyphen.cap" horiz-adv-x="402" /><glyph d="M51 346H349V236H51Z" glyph-name="hyphen.sc" horiz-adv-x="400" /><glyph d="M171 366H469V256H171Z" glyph-name="hyphen.tln" horiz-adv-x="640" /><glyph d="M325 100H375V0H35V100H85V420H35V520Q106 520 154.5 521Q203 522 234.5 523.5Q266 525 283 528Q300 531 307 535L325 525ZM291 697Q291 655 264.5 631Q238 607 195 607Q153 607 126.5 631Q100 655 100 697Q100 739 126.5 765Q153 791 195 791Q238 791 264.5 765Q291 739 291 697Z" glyph-name="i" horiz-adv-x="398" unicode="i" /><glyph d="M325 100H375V0H35V100H85V420H35V520Q106 520 154.5 521Q203 522 234.5 523.5Q266 525 283 528Q300 531 307 535L325 525ZM291 697Q291 655 264.5 631Q238 607 195 607Q153 607 126.5 631Q100 655 100 697Q100 739 126.5 765Q153 791 195 791Q238 791 264.5 765Q291 739 291 697Z" glyph-name="i.TRK" horiz-adv-x="398" /><glyph d="M325 100H375V0H35V100H85V420H35V520Q106 520 154.5 521Q203 522 234.5 523.5Q266 525 283 528Q300 531 307 535L325 525ZM291 697Q291 655 264.5 631Q238 607 195 607Q153 607 126.5 631Q100 655 100 697Q100 739 126.5 765Q153 791 195 791Q238 791 264.5 765Q291 739 291 697Z" glyph-name="i.dot" horiz-adv-x="398" /><glyph d="M109 621 156 691Q195 750 233 770Q271 790 316 790Q366 790 383 773Q400 756 400 734Q400 724 396 713.5Q392 703 380 692.5Q368 682 345.5 671.5Q323 661 285 650L185 621ZM325 100H375V0H35V100H85V420H35V520Q106 520 154.5 521Q203 522 234.5 523.5Q266 525 283 528Q300 531 307 535L325 525Z" glyph-name="iacute" horiz-adv-x="398" unicode="&#237;" /><glyph d="M481 601 528 671Q567 730 605 750Q643 770 688 770Q738 770 755 753Q772 736 772 714Q772 704 768 693.5Q764 683 752 672.5Q740 662 717.5 651.5Q695 641 657 630L557 601ZM125 601 172 671Q211 730 249 750Q287 770 332 770Q382 770 399 753Q416 736 416 714Q416 704 412 693.5Q408 683 396 672.5Q384 662 361.5 651.5Q339 641 301 630L201 601ZM325 100H375V0H35V100H85V420H35V520Q106 520 154.5 521Q203 522 234.5 523.5Q266 525 283 528Q300 531 307 535L325 525ZM438 -260Q394 -260 355.5 -252.5Q317 -245 288.5 -229Q260 -213 243.5 -189Q227 -165 227 -132Q227 -92 250.5 -65Q274 -38 322 -38Q368 -38 391.5 -64Q415 -90 415 -123Q415 -140 409 -153Q403 -166 394 -177Q400 -180 414 -180Q440 -180 447.5 -151.5Q455 -123 455 -72V420H405V520Q476 520 524.5 521Q573 522 604.5 523.5Q636 525 653 528Q670 531 677 535L695 525V0Q695 -62 682 -110Q669 -158 638.5 -191.5Q608 -225 559 -242.5Q510 -260 438 -260Z" glyph-name="iacute_jacute" horiz-adv-x="753" /><glyph d="M325 100H375V0H35V100H85V420H35V520Q106 520 154.5 521Q203 522 234.5 523.5Q266 525 283 528Q300 531 307 535L325 525ZM559 -260Q465 -260 407.5 -226.5Q350 -193 350 -133Q350 -92 374.5 -65Q399 -38 448 -38Q496 -38 521 -62.5Q546 -87 546 -121Q546 -138 539 -151.5Q532 -165 521 -176Q531 -180 545 -180Q575 -180 596 -160Q617 -140 617 -99Q617 -50 582 -25Q547 0 488 0V420H438V520Q509 520 557.5 521Q606 522 637.5 523.5Q669 525 686 528Q703 531 710 535L728 525V36Q760 12 771.5 -19Q783 -50 783 -82Q783 -118 770 -150Q757 -182 730 -206.5Q703 -231 660.5 -245.5Q618 -260 559 -260ZM492 621 539 691Q578 750 616 770Q654 790 699 790Q749 790 766 773Q783 756 783 734Q783 724 779 713.5Q775 703 763 692.5Q751 682 728.5 671.5Q706 661 668 650L568 621ZM97 621 144 691Q183 750 221 770Q259 790 304 790Q354 790 371 773Q388 756 388 734Q388 724 384 713.5Q380 703 368 692.5Q356 682 333.5 671.5Q311 661 273 650L173 621Z" glyph-name="iacute_jacute.alt" horiz-adv-x="788" /><glyph d="M536 593H462L502 641Q511 653 523 666Q535 679 551 690Q567 701 586.5 708Q606 715 631 715Q674 715 689 700Q704 685 704 665Q704 648 686 633.5Q668 619 617 608ZM204 593H130L170 641Q179 653 191 666Q203 679 219 690Q235 701 254.5 708Q274 715 299 715Q342 715 357 700Q372 685 372 665Q372 648 354 633.5Q336 619 285 608ZM26 247V341H71V456H26V550H357V456H311V341H357V247ZM662 286Q662 208 645 152Q628 96 592 60.5Q556 25 500.5 8.5Q445 -8 368 -8Q313 -8 264.5 1Q216 10 180 28Q144 46 123.5 74Q103 102 103 141Q103 185 130 209.5Q157 234 200 234Q243 234 270.5 210Q298 186 298 151Q298 128 291 115Q284 102 279 96Q286 94 296 92Q306 90 326 90Q377 90 399.5 133.5Q422 177 422 283V456H377V550H707V456H662Z" glyph-name="iacute_jacute.alt.sc" horiz-adv-x="730" /><glyph d="M693 593H620L659 641Q668 653 680.5 666Q693 679 708.5 690Q724 701 744 708Q764 715 789 715Q832 715 846.5 700.5Q861 686 861 671Q861 660 857 650.5Q853 641 841.5 633Q830 625 808.5 617.5Q787 610 752 604ZM218 593H144L183 641Q193 653 205 666Q217 679 233 690Q249 701 268.5 708Q288 715 313 715Q356 715 370.5 702.5Q385 690 385 670Q385 661 381.5 652.5Q378 644 367.5 635.5Q357 627 336.5 619Q316 611 282 605ZM38 0V94H83V456H38V550H369V456H323V94H369V0ZM823 200Q823 86 766.5 39Q710 -8 599 -8Q497 -8 436 25Q375 58 375 127Q375 172 401.5 196.5Q428 221 471 221Q513 221 537 198.5Q561 176 561 132Q561 104 553 91Q557 89 564 89Q576 89 579.5 98.5Q583 108 583 127V456H539V550H868V456H823Z" glyph-name="iacute_jacute.sc" horiz-adv-x="894" /><glyph d="M-17 621 161 797H234L407 621H305L197 690L85 621ZM325 100H375V0H35V100H85V420H35V520Q106 520 154.5 521Q203 522 234.5 523.5Q266 525 283 528Q300 531 307 535L325 525Z" glyph-name="icircumflex" horiz-adv-x="398" unicode="&#238;" /><glyph d="M185 695Q185 653 158.5 629Q132 605 89 605Q47 605 20.5 629Q-6 653 -6 695Q-6 737 20.5 763Q47 789 89 789Q132 789 158.5 763Q185 737 185 695ZM402 695Q402 653 376 629Q350 605 307 605Q265 605 238.5 629Q212 653 212 695Q212 737 238.5 763Q265 789 307 789Q350 789 376 763Q402 737 402 695ZM325 100H375V0H35V100H85V420H35V520Q106 520 154.5 521Q203 522 234.5 523.5Q266 525 283 528Q300 531 307 535L325 525Z" glyph-name="idieresis" horiz-adv-x="398" unicode="&#239;" /><glyph d="M126 650Q89 661 66 671.5Q43 682 31 692.5Q19 703 15 713.5Q11 724 11 734Q11 756 30.5 773Q50 790 100 790Q145 790 177.5 774Q210 758 238 716L302 621H226ZM325 100H375V0H35V100H85V420H35V520Q106 520 154.5 521Q203 522 234.5 523.5Q266 525 283 528Q300 531 307 535L325 525Z" glyph-name="igrave" horiz-adv-x="398" unicode="&#236;" /><glyph d="M68 -260Q24 -260 -14.5 -252.5Q-53 -245 -81.5 -229Q-110 -213 -126.5 -189Q-143 -165 -143 -132Q-143 -92 -119.5 -65Q-96 -38 -48 -38Q-2 -38 21.5 -64Q45 -90 45 -123Q45 -140 39 -153Q33 -166 24 -177Q30 -180 44 -180Q70 -180 77.5 -151.5Q85 -123 85 -72V420H35V520Q106 520 154.5 521Q203 522 234.5 523.5Q266 525 283 528Q300 531 307 535L325 525V0Q325 -62 312 -110Q299 -158 268.5 -191.5Q238 -225 189 -242.5Q140 -260 68 -260ZM290 697Q290 655 263.5 631Q237 607 194 607Q152 607 125.5 631Q99 655 99 697Q99 739 125.5 765Q152 791 194 791Q237 791 263.5 765Q290 739 290 697Z" glyph-name="j" horiz-adv-x="383" unicode="j" /><glyph d="M273 697Q273 655 246.5 631Q220 607 177 607Q135 607 108.5 631Q82 655 82 697Q82 739 108.5 765Q135 791 177 791Q220 791 246.5 765Q273 739 273 697ZM144 -260Q50 -260 -7.5 -226.5Q-65 -193 -65 -133Q-65 -92 -40.5 -65Q-16 -38 33 -38Q81 -38 106 -62.5Q131 -87 131 -121Q131 -138 124 -151.5Q117 -165 106 -176Q116 -180 130 -180Q160 -180 181 -160Q202 -140 202 -99Q202 -50 167 -25Q132 0 73 0V420H23V520Q94 520 142.5 521Q191 522 222.5 523.5Q254 525 271 528Q288 531 295 535L313 525V36Q345 12 356.5 -19Q368 -50 368 -82Q368 -118 355 -150Q342 -182 315 -206.5Q288 -231 245.5 -245.5Q203 -260 144 -260Z" glyph-name="j.alt" horiz-adv-x="373" /><glyph d="M23 0V100H73V645H23V745Q101 745 150 746Q199 747 227.5 748.5Q256 750 270 753Q284 756 293 760L313 750V293L460 420H408V520H701V420H608L528 350L704 100H739V0H398V100H433L359 204L313 164V100H344V0Z" glyph-name="k" horiz-adv-x="740" unicode="k" /><glyph d="M518 420H313V269ZM23 0V100H73V645H23V745Q100 745 149.5 746Q199 747 229 749Q259 751 273 753.5Q287 756 293 760L313 750V520H707V435L544 314L706 100H739V0H398V100H448L380 191L313 142V100H343V0Z" glyph-name="k.alt" horiz-adv-x="744" /><glyph d="M23 100H73V645H23V745Q101 745 150 746Q199 747 227.5 748.5Q256 750 270 753Q284 756 293 760L313 750V100H363V0H23Z" glyph-name="l" horiz-adv-x="386" unicode="l" /><glyph d="M28 323V376L354 585V475L160 355L354 233V114Z" glyph-name="less" horiz-adv-x="415" unicode="&lt;" /><glyph d="M23 233V286L349 495V385L155 265L349 143V24Z" glyph-name="less.old" horiz-adv-x="398" /><glyph d="M26 265V312L317 479V380L152 294L317 206V98Z" glyph-name="less.sc" horiz-adv-x="373" /><glyph d="M141 323V376L467 585V475L273 355L467 233V114Z" glyph-name="less.tln" horiz-adv-x="640" /><glyph d="M144 233V286L470 495V385L276 265L470 143V24Z" glyph-name="less.ton" horiz-adv-x="640" /><glyph d="M403 185V297H52V392H498V185Z" glyph-name="logicalnot" horiz-adv-x="555" unicode="&#172;" /><glyph d="M398 135V247H47V342H493V135Z" glyph-name="logicalnot.old" horiz-adv-x="546" /><glyph d="M359 167V252H51V338H449V167Z" glyph-name="logicalnot.sc" horiz-adv-x="503" /><glyph d="M446 185V297H95V392H541V185Z" glyph-name="logicalnot.tln" horiz-adv-x="640" /><glyph d="M446 135V247H95V342H541V135Z" glyph-name="logicalnot.ton" horiz-adv-x="640" /><glyph d="M35 100H85V420H35V520Q113 520 159 521Q205 522 230.5 523.5Q256 525 267 528Q278 531 287 535L307 525V415Q325 466 371.5 500.5Q418 535 494 535Q543 535 588.5 509.5Q634 484 656 425Q676 473 722.5 504Q769 535 840 535Q878 535 910 524Q942 513 965.5 489Q989 465 1002 427.5Q1015 390 1015 336V100H1065V0H745V100H775V290Q775 344 761 363.5Q747 383 722 383Q697 383 683.5 363Q670 343 670 291V100H700V0H400V100H430V290Q430 344 416 363.5Q402 383 377 383Q352 383 338.5 363Q325 343 325 291V100H355V0H35Z" glyph-name="m" horiz-adv-x="1088" unicode="m" /><glyph d="M34 740H340V655H34Z" glyph-name="macron" horiz-adv-x="374" unicode="&#175;" /><glyph d="M24 857H330V772H24Z" glyph-name="macron.cap" horiz-adv-x="354" /><glyph d="M52 396H478V301H52Z" glyph-name="minus" horiz-adv-x="530" unicode="&#8722;" /><glyph d="M50 316H476V221H50Z" glyph-name="minus.old" horiz-adv-x="526" /><glyph d="M51 321H411V235H51Z" glyph-name="minus.sc" horiz-adv-x="462" /><glyph d="M107 396H533V301H107Z" glyph-name="minus.tln" horiz-adv-x="640" /><glyph d="M107 316H533V221H107Z" glyph-name="minus.ton" horiz-adv-x="640" /><glyph d="M213 -145Q213 -162 206.5 -179Q200 -196 187.5 -209Q175 -222 157 -230Q139 -238 116 -238Q92 -238 74 -230Q56 -222 43.5 -209Q31 -196 24.5 -179.5Q18 -163 18 -146Q18 -126 22 -112Q26 -98 32 -83Q38 -68 45.5 -47Q53 -26 59 7.5Q65 41 69 91.5Q73 142 73 217V420H23V520Q88 520 133.5 520Q179 520 210.5 521.5Q242 523 262 526Q282 529 295 535L313 525V238Q313 181 327.5 156.5Q342 132 371 132Q400 132 414.5 156Q429 180 429 238V420H379V520Q446 520 491.5 520Q537 520 568 521Q599 522 618 525.5Q637 529 650 535L669 525V105H719V5Q645 5 598.5 4Q552 3 524.5 1.5Q497 0 483 -3Q469 -6 460 -10L440 0V110Q418 55 378.5 22.5Q339 -10 267 -10Q241 -10 217.5 -6Q194 -2 174 7Q178 -26 184.5 -44.5Q191 -63 197.5 -77.5Q204 -92 208.5 -106.5Q213 -121 213 -145Z" glyph-name="mu" horiz-adv-x="741" unicode="&#181;" /><glyph d="M236 275 103 142 36 209 169 342 37 474 108 545 240 413 373 546 440 479 307 346 440 213 369 142Z" glyph-name="multiply" horiz-adv-x="476" unicode="&#215;" /><glyph d="M232 191 99 58 32 125 165 258 33 390 104 461 236 329 369 462 436 395 303 262 436 129 365 58Z" glyph-name="multiply.old" horiz-adv-x="468" /><glyph d="M201 212 96 109 37 170 142 274 38 376 99 441 204 339 309 442 367 380 261 277 367 174 306 109Z" glyph-name="multiply.sc" horiz-adv-x="406" /><glyph d="M318 275 185 142 118 209 251 342 119 474 190 545 322 413 455 546 522 479 389 346 522 213 451 142Z" glyph-name="multiply.tln" horiz-adv-x="640" /><glyph d="M318 191 185 58 118 125 251 258 119 390 190 461 322 329 455 462 522 395 389 262 522 129 451 58Z" glyph-name="multiply.ton" horiz-adv-x="640" /><glyph d="M360 0H35V100H85V420H35V520Q113 520 159 521Q205 522 230.5 523.5Q256 525 267 528Q278 531 287 535L307 525V415Q325 466 370 500.5Q415 535 480 535Q522 535 558.5 524Q595 513 622 489Q649 465 665 427.5Q681 390 681 336V100H731V0H406V100H441V290Q441 344 426.5 363.5Q412 383 383 383Q354 383 339.5 363Q325 343 325 291V100H360Z" glyph-name="n" horiz-adv-x="754" unicode="n" /><glyph d="M411 476Q411 543 393.5 571.5Q376 600 346 600Q316 600 298.5 571.5Q281 543 281 476Q281 409 298.5 382.5Q316 356 346 356Q376 356 393.5 382.5Q411 409 411 476ZM302 90Q337 90 359.5 102Q382 114 395 140.5Q408 167 412.5 209Q417 251 417 310Q393 285 358 270.5Q323 256 267 256Q222 256 179.5 270Q137 284 104 311.5Q71 339 51 379Q31 419 31 471Q31 516 51.5 557.5Q72 599 111 630.5Q150 662 206 681Q262 700 333 700Q410 700 471 680Q532 660 574 618Q616 576 638.5 512Q661 448 661 361Q661 277 641 208.5Q621 140 579.5 91.5Q538 43 474 16.5Q410 -10 322 -10Q197 -10 133.5 27.5Q70 65 70 132Q70 181 99.5 201.5Q129 222 172 222Q192 222 210.5 217Q229 212 243.5 202Q258 192 266.5 176Q275 160 275 139Q275 126 271.5 115.5Q268 105 262 94Q270 92 281.5 91Q293 90 302 90Z" glyph-name="nine" horiz-adv-x="697" unicode="9" /><glyph d="M299 160Q299 199 288 213.5Q277 228 263 228Q249 228 237.5 213.5Q226 199 226 160Q226 122 237.5 108.5Q249 95 263 95Q277 95 288 108.5Q299 122 299 160ZM231 -78Q255 -78 269 -71Q283 -64 290.5 -49Q298 -34 300.5 -11Q303 12 303 44Q286 32 261 26.5Q236 21 197 21Q166 21 134.5 29.5Q103 38 78.5 55Q54 72 38.5 97Q23 122 23 156Q23 187 39 214.5Q55 242 84.5 262.5Q114 283 156.5 295Q199 307 252 307Q502 307 502 85Q502 -30 443 -93.5Q384 -157 255 -157Q158 -157 105 -129Q52 -101 52 -57Q52 -23 76.5 -7Q101 9 134 9Q165 9 189 -5.5Q213 -20 213 -52Q213 -65 208 -76Q213 -78 221 -78Q229 -78 231 -78Z" glyph-name="nine.inferior" horiz-adv-x="528" /><glyph d="M399 311Q399 378 381.5 406.5Q364 435 334 435Q304 435 286.5 406.5Q269 378 269 311Q269 244 286.5 217.5Q304 191 334 191Q364 191 381.5 217.5Q399 244 399 311ZM290 -80Q325 -80 347.5 -67Q370 -54 383 -26.5Q396 1 400.5 43.5Q405 86 405 145Q381 120 346 105.5Q311 91 255 91Q210 91 168 105Q126 119 94 146.5Q62 174 43 214Q24 254 24 306Q24 355 44 397Q64 439 102 469.5Q140 500 195 517.5Q250 535 321 535Q475 535 559.5 453Q644 371 644 196Q644 112 625 42.5Q606 -27 567 -76.5Q528 -126 467.5 -153Q407 -180 324 -180Q268 -180 220 -170.5Q172 -161 137 -142.5Q102 -124 82.5 -97.5Q63 -71 63 -38Q63 11 90 31.5Q117 52 160 52Q200 52 229 32Q258 12 258 -31Q258 -44 254.5 -54.5Q251 -65 245 -76Q253 -78 267 -79Q281 -80 290 -80Z" glyph-name="nine.old" horiz-adv-x="675" /><glyph d="M365 379Q365 431 352.5 448Q340 465 319 465Q297 465 284.5 448Q272 431 272 379Q272 331 284.5 314Q297 297 319 297Q340 297 352.5 314Q365 331 365 379ZM279 85Q309 85 327.5 94Q346 103 355.5 122Q365 141 368 170Q371 199 371 239Q349 225 320 216.5Q291 208 240 208Q197 208 158.5 218Q120 228 91 248.5Q62 269 45 300.5Q28 332 28 374Q28 410 46 443.5Q64 477 99 502.5Q134 528 186 543Q238 558 306 558Q610 558 610 288Q610 218 593 163Q576 108 539 70Q502 32 442.5 12Q383 -8 299 -8Q247 -8 203.5 0Q160 8 129 23.5Q98 39 81 61.5Q64 84 64 112Q64 154 93.5 173Q123 192 164 192Q202 192 231 175Q260 158 260 118Q260 103 252 88Q257 86 265.5 85.5Q274 85 279 85Z" glyph-name="nine.sc" horiz-adv-x="642" /><glyph d="M299 740Q299 779 288 793.5Q277 808 263 808Q249 808 237.5 793.5Q226 779 226 740Q226 702 237.5 688.5Q249 675 263 675Q277 675 288 688.5Q299 702 299 740ZM231 502Q255 502 269 509Q283 516 290.5 531Q298 546 300.5 569Q303 592 303 624Q286 612 261 606.5Q236 601 197 601Q166 601 134.5 609.5Q103 618 78.5 635Q54 652 38.5 677Q23 702 23 736Q23 767 39 794.5Q55 822 84.5 842.5Q114 863 156.5 875Q199 887 252 887Q502 887 502 665Q502 550 443 486.5Q384 423 255 423Q158 423 105 451Q52 479 52 523Q52 557 76.5 573Q101 589 134 589Q165 589 189 574.5Q213 560 213 528Q213 515 208 504Q213 502 221 502Q229 502 231 502Z" glyph-name="nine.superior" horiz-adv-x="528" /><glyph d="M373 476Q373 543 358.5 571.5Q344 600 318 600Q292 600 277.5 571.5Q263 543 263 476Q263 409 277.5 382.5Q292 356 318 356Q344 356 358.5 382.5Q373 409 373 476ZM284 90Q313 90 331.5 102Q350 114 360.5 140.5Q371 167 375 209Q379 251 379 310Q356 287 326.5 271.5Q297 256 249 256Q204 256 161.5 270Q119 284 86 311.5Q53 339 33 379Q13 419 13 471Q13 516 33 557.5Q53 599 90.5 630.5Q128 662 182 681Q236 700 305 700Q454 700 538.5 618Q623 536 623 361Q623 277 603.5 208.5Q584 140 544 91.5Q504 43 442 16.5Q380 -10 294 -10Q174 -10 113 27.5Q52 65 52 132Q52 181 81.5 201.5Q111 222 154 222Q174 222 192.5 217Q211 212 225.5 202Q240 192 248.5 176Q257 160 257 139Q257 126 253.5 115.5Q250 105 244 94Q252 92 263.5 91Q275 90 284 90Z" glyph-name="nine.tln" horiz-adv-x="640" /><glyph d="M382 311Q382 378 364.5 406.5Q347 435 317 435Q287 435 269.5 406.5Q252 378 252 311Q252 244 269.5 217.5Q287 191 317 191Q347 191 364.5 217.5Q382 244 382 311ZM273 -80Q308 -80 330.5 -67Q353 -54 366 -26.5Q379 1 383.5 43.5Q388 86 388 145Q364 120 329 105.5Q294 91 238 91Q193 91 151 105Q109 119 77 146.5Q45 174 26 214Q7 254 7 306Q7 355 27 397Q47 439 85 469.5Q123 500 178 517.5Q233 535 304 535Q458 535 542.5 453Q627 371 627 196Q627 112 608 42.5Q589 -27 550 -76.5Q511 -126 450.5 -153Q390 -180 307 -180Q251 -180 203 -170.5Q155 -161 120 -142.5Q85 -124 65.5 -97.5Q46 -71 46 -38Q46 11 73 31.5Q100 52 143 52Q183 52 212 32Q241 12 241 -31Q241 -44 237.5 -54.5Q234 -65 228 -76Q236 -78 250 -79Q264 -80 273 -80Z" glyph-name="nine.ton" horiz-adv-x="640" /><glyph glyph-name="nonbreakingspace.narrow" horiz-adv-x="156" unicode="&#8239;" /><glyph glyph-name="nonmarkingreturn" horiz-adv-x="250" unicode="" /><glyph d="M360 0H35V100H85V420H35V520Q113 520 159 521Q205 522 230.5 523.5Q256 525 267 528Q278 531 287 535L307 525V415Q325 466 370 500.5Q415 535 480 535Q522 535 558.5 524Q595 513 622 489Q649 465 665 427.5Q681 390 681 336V100H731V0H406V100H441V290Q441 344 426.5 363.5Q412 383 383 383Q354 383 339.5 363Q325 343 325 291V100H360ZM472 607Q448 607 426 615.5Q404 624 384.5 634.5Q365 645 348 653.5Q331 662 317 662Q297 662 289 649Q281 636 281 611H202Q202 689 227 731.5Q252 774 315 774Q340 774 362.5 765.5Q385 757 404.5 746.5Q424 736 441 727.5Q458 719 473 719Q506 719 506 770H585Q585 731 580.5 701Q576 671 564 650Q552 629 530 618Q508 607 472 607Z" glyph-name="ntilde" horiz-adv-x="754" unicode="&#241;" /><glyph d="M431 396H318L283 269H396ZM368 154H255L214 0H84L125 154H30V269H153L188 396H69V511H219L267 690H397L349 511H462L510 690H640L592 511H688V396H561L526 269H649V154H498L457 0H327Z" glyph-name="numbersign" horiz-adv-x="719" unicode="#" /><glyph d="M373 296H290L263 223H346ZM310 123H227L182 0H72L117 123H26V223H153L180 296H65V396H216L261 520H371L326 396H409L454 520H564L519 396H604V296H483L456 223H565V123H420L375 0H265Z" glyph-name="numbersign.old" horiz-adv-x="631" /><glyph d="M388 308H294L268 220H362ZM330 112H236L203 0H77L110 112H28V220H142L168 308H63V415H200L239 548H365L326 415H420L459 548H585L546 415H628V308H514L488 220H594V112H456L423 0H297Z" glyph-name="numbersign.sc" horiz-adv-x="657" /><glyph d="M370 415H287L257 288H340ZM312 173H229L188 0H58L99 173H32V288H127L157 415H71V530H185L223 690H353L315 530H398L436 690H566L528 530H612V415H500L470 288H573V173H442L401 0H271Z" glyph-name="numbersign.tln" horiz-adv-x="640" /><glyph d="M378 296H295L268 223H351ZM315 123H232L187 0H77L122 123H31V223H158L185 296H70V396H221L266 520H376L331 396H414L459 520H569L524 396H609V296H488L461 223H570V123H425L380 0H270Z" glyph-name="numbersign.ton" horiz-adv-x="640" /><glyph d="M333 -10Q268 -10 211.5 8Q155 26 113 60.5Q71 95 47 146Q23 197 23 263Q23 330 47 381Q71 432 113 466Q155 500 211.5 517.5Q268 535 333 535Q396 535 452.5 517.5Q509 500 551 466Q593 432 618 381Q643 330 643 263Q643 197 618 146Q593 95 551 60.5Q509 26 452.5 8Q396 -10 333 -10ZM333 435Q314 435 301 422Q288 409 281 386Q274 363 271 331.5Q268 300 268 263Q268 226 271 194.5Q274 163 281 139.5Q288 116 301 103Q314 90 333 90Q353 90 365.5 103Q378 116 385.5 139.5Q393 163 395.5 194.5Q398 226 398 263Q398 300 395.5 331.5Q393 363 385.5 386Q378 409 365.5 422Q353 435 333 435Z" glyph-name="o" horiz-adv-x="666" unicode="o" /><glyph d="M265 621 312 691Q351 750 389 770Q427 790 472 790Q522 790 539 773Q556 756 556 734Q556 724 552 713.5Q548 703 536 692.5Q524 682 501.5 671.5Q479 661 441 650L341 621ZM333 -10Q268 -10 211.5 8Q155 26 113 60.5Q71 95 47 146Q23 197 23 263Q23 330 47 381Q71 432 113 466Q155 500 211.5 517.5Q268 535 333 535Q396 535 452.5 517.5Q509 500 551 466Q593 432 618 381Q643 330 643 263Q643 197 618 146Q593 95 551 60.5Q509 26 452.5 8Q396 -10 333 -10ZM333 435Q314 435 301 422Q288 409 281 386Q274 363 271 331.5Q268 300 268 263Q268 226 271 194.5Q274 163 281 139.5Q288 116 301 103Q314 90 333 90Q353 90 365.5 103Q378 116 385.5 139.5Q393 163 395.5 194.5Q398 226 398 263Q398 300 395.5 331.5Q393 363 385.5 386Q378 409 365.5 422Q353 435 333 435Z" glyph-name="oacute" horiz-adv-x="666" unicode="&#243;" /><glyph d="M286 601 301 664Q318 735 344 772.5Q370 810 423 810Q458 810 474.5 793.5Q491 777 491 755Q491 730 470 707Q449 684 406 643L362 601ZM333 -10Q268 -10 211.5 8Q155 26 113 60.5Q71 95 47 146Q23 197 23 263Q23 330 47 381Q71 432 113 466Q155 500 211.5 517.5Q268 535 333 535Q396 535 452.5 517.5Q509 500 551 466Q593 432 618 381Q643 330 643 263Q643 197 618 146Q593 95 551 60.5Q509 26 452.5 8Q396 -10 333 -10ZM333 435Q314 435 301 422Q288 409 281 386Q274 363 271 331.5Q268 300 268 263Q268 226 271 194.5Q274 163 281 139.5Q288 116 301 103Q314 90 333 90Q353 90 365.5 103Q378 116 385.5 139.5Q393 163 395.5 194.5Q398 226 398 263Q398 300 395.5 331.5Q393 363 385.5 386Q378 409 365.5 422Q353 435 333 435Z" glyph-name="oacute.pl" horiz-adv-x="666" /><glyph d="M125 621 303 797H376L549 621H447L339 690L227 621ZM333 -10Q268 -10 211.5 8Q155 26 113 60.5Q71 95 47 146Q23 197 23 263Q23 330 47 381Q71 432 113 466Q155 500 211.5 517.5Q268 535 333 535Q396 535 452.5 517.5Q509 500 551 466Q593 432 618 381Q643 330 643 263Q643 197 618 146Q593 95 551 60.5Q509 26 452.5 8Q396 -10 333 -10ZM333 435Q314 435 301 422Q288 409 281 386Q274 363 271 331.5Q268 300 268 263Q268 226 271 194.5Q274 163 281 139.5Q288 116 301 103Q314 90 333 90Q353 90 365.5 103Q378 116 385.5 139.5Q393 163 395.5 194.5Q398 226 398 263Q398 300 395.5 331.5Q393 363 385.5 386Q378 409 365.5 422Q353 435 333 435Z" glyph-name="ocircumflex" horiz-adv-x="666" unicode="&#244;" /><glyph d="M320 695Q320 653 293.5 629Q267 605 224 605Q182 605 155.5 629Q129 653 129 695Q129 737 155.5 763Q182 789 224 789Q267 789 293.5 763Q320 737 320 695ZM537 695Q537 653 511 629Q485 605 442 605Q400 605 373.5 629Q347 653 347 695Q347 737 373.5 763Q400 789 442 789Q485 789 511 763Q537 737 537 695ZM333 -10Q268 -10 211.5 8Q155 26 113 60.5Q71 95 47 146Q23 197 23 263Q23 330 47 381Q71 432 113 466Q155 500 211.5 517.5Q268 535 333 535Q396 535 452.5 517.5Q509 500 551 466Q593 432 618 381Q643 330 643 263Q643 197 618 146Q593 95 551 60.5Q509 26 452.5 8Q396 -10 333 -10ZM333 435Q314 435 301 422Q288 409 281 386Q274 363 271 331.5Q268 300 268 263Q268 226 271 194.5Q274 163 281 139.5Q288 116 301 103Q314 90 333 90Q353 90 365.5 103Q378 116 385.5 139.5Q393 163 395.5 194.5Q398 226 398 263Q398 300 395.5 331.5Q393 363 385.5 386Q378 409 365.5 422Q353 435 333 435Z" glyph-name="odieresis" horiz-adv-x="666" unicode="&#246;" /><glyph d="M279 0Q246 -11 233 -25.5Q220 -40 220 -57Q220 -70 230.5 -80Q241 -90 266 -90Q297 -90 311 -76V-155Q295 -168 269.5 -176.5Q244 -185 196 -185Q124 -185 84.5 -159Q45 -133 45 -90Q45 -52 78 -27Q111 -2 169 0Z" glyph-name="ogonek" horiz-adv-x="356" unicode="&#731;" /><glyph d="M333 -10Q268 -10 211.5 8Q155 26 113 60.5Q71 95 47 146Q23 197 23 263Q23 330 47 381Q71 432 113 466Q155 500 211.5 517.5Q268 535 333 535Q396 535 452.5 517.5Q509 500 551 466Q593 432 618 381Q643 330 643 263Q643 197 618 146Q593 95 551 60.5Q509 26 452.5 8Q396 -10 333 -10ZM333 435Q314 435 301 422Q288 409 281 386Q274 363 271 331.5Q268 300 268 263Q268 226 271 194.5Q274 163 281 139.5Q288 116 301 103Q314 90 333 90Q353 90 365.5 103Q378 116 385.5 139.5Q393 163 395.5 194.5Q398 226 398 263Q398 300 395.5 331.5Q393 363 385.5 386Q378 409 365.5 422Q353 435 333 435ZM215 650Q178 661 155 671.5Q132 682 120 692.5Q108 703 104 713.5Q100 724 100 734Q100 756 119.5 773Q139 790 189 790Q234 790 266.5 774Q299 758 327 716L391 621H315Z" glyph-name="ograve" horiz-adv-x="666" unicode="&#242;" /><glyph d="M42 0V100H122V533H42V633Q89 633 135.5 637Q182 641 221.5 649.5Q261 658 290 670.5Q319 683 331 700H367V100H447V0Z" glyph-name="one" horiz-adv-x="474" unicode="1" /><glyph d="M34 -150V-71H85V183H34V263Q67 263 103 265.5Q139 268 171 273.5Q203 279 227 287.5Q251 296 259 307H285V-71H335V-150Z" glyph-name="one.inferior" horiz-adv-x="360" /><glyph d="M42 0V100H142V368H42V468Q89 468 123 472Q157 476 181.5 484.5Q206 493 222.5 505.5Q239 518 251 535H382V100H472V0Z" glyph-name="one.old" horiz-adv-x="491" /><glyph d="M40 0V94H107V410H40V505Q159 504 224 517Q289 530 315 558H347V94H415V0Z" glyph-name="one.sc" horiz-adv-x="444" /><glyph d="M33 430V509H84V763H33V843Q66 843 102 845.5Q138 848 170 853.5Q202 859 226 867.5Q250 876 258 887H284V509H334V430Z" glyph-name="one.superior" horiz-adv-x="360" /><glyph d="M93 0V100H213V533H93V633Q140 633 193 637Q246 641 293 649.5Q340 658 375 670.5Q410 683 422 700H458V100H578V0Z" glyph-name="one.tln" horiz-adv-x="640" /><glyph d="M117 0V100H217V368H117V468Q164 468 198 472Q232 476 256.5 484.5Q281 493 297.5 505.5Q314 518 326 535H457V100H547V0Z" glyph-name="one.ton" horiz-adv-x="640" /></font>
</defs>
</svg>
