<?xml version="1.0" standalone="no"?><!DOCTYPE svg PUBLIC "-//W3C//DTD SVG 1.1//EN" "http://www.w3.org/Graphics/SVG/1.1/DTD/svg11.dtd" ><svg version="1.1" xmlns="http://www.w3.org/2000/svg"><defs><font horiz-adv-x="0" id="font"><font-face ascent="750" bbox="-190 -280 2805 1103" cap-height="690" descent="-250" font-family="KazimirText RBC" font-stretch="normal" font-style="italic" font-weight="700" units-per-em="1000" x-height="500" /><missing-glyph d="M96 650H759V0H96ZM116 20H739V630H116ZM428 316 309 197 286 220 405 338 289 454 311 476 427 360 546 479 568 457 450 338 570 218 548 196Z" horiz-adv-x="840" /><glyph glyph-name=".null" horiz-adv-x="0" /><glyph d="M314 562 196 275H361ZM157 0H-29L-20 77H31L284 690H475L576 77H627L617 0H326L336 77H393L372 204H166L114 77H166Z" glyph-name="A" horiz-adv-x="650" unicode="A" /><glyph d="M314 545 200 275H360ZM-29 0 -20 77H32L260 613H184L194 690H563L553 613H484L574 77H626L617 0H328L337 77H393L372 204H169L116 77H166L157 0Z" glyph-name="A.alt" horiz-adv-x="651" /><glyph d="M270 430 177 225H310ZM-27 0 -19 72H28L213 478H149L159 550H504L494 478H437L516 72H563L555 0H286L295 72H340L323 159H147L107 72H147L138 0Z" glyph-name="A.alt.sc" horiz-adv-x="591" /><glyph d="M268 440 171 225H310ZM136 0H-29L-20 72H23L235 550H425L519 72H562L553 0H284L292 72H341L324 159H142L103 72H145Z" glyph-name="A.sc" horiz-adv-x="587" /><glyph d="M421 613 229 275H395L437 613ZM159 0H-39L-29 77H29L335 613H266L276 690H925L897 469H808L811 496Q816 531 812 553.5Q808 576 795 589Q782 602 758.5 607.5Q735 613 700 613H619L591 386L760 399L748 300L582 313L553 77H642Q678 77 703 83.5Q728 90 744 105Q760 120 769.5 144Q779 168 783 203L786 226H876L848 0H296L306 77H371L387 204H188L115 77H168Z" glyph-name="AE" horiz-adv-x="925" unicode="&#198;" /><glyph d="M330 575 200 275H373ZM-31 0 -21 77H31L263 613H194L204 690H889L862 469H772L775 496Q779 531 775.5 554Q772 577 759 590Q746 603 723 608Q700 613 665 613H503L535 386H652L661 460H727L700 238H633L642 312H546L580 77H607Q644 77 669 83.5Q694 90 710 104.5Q726 119 735 143Q744 167 748 202L751 226H840L813 0H335L344 77H401L383 204H169L114 77H165L155 0Z" glyph-name="AE.alt" horiz-adv-x="890" /><glyph d="M279 447 177 225H319ZM-29 0 -19 72H28L216 478H156L165 550H795L772 366H686L690 390Q698 443 676.5 460.5Q655 478 596 478H450L479 312H581L588 369H649L627 186H565L572 243H491L521 72H555Q586 72 606 76.5Q626 81 638.5 92Q651 103 658 121.5Q665 140 669 167L672 188H757L735 0H291L300 72H346L330 159H146L106 72H146L137 0Z" glyph-name="AE.alt.sc" horiz-adv-x="807" /><glyph d="M207 225H350L380 478H369ZM145 0H-33L-24 72H27L286 478H225L234 550H828L805 366H719L722 390Q728 441 708 459.5Q688 478 627 478H557L537 312L682 324L672 232L529 244L508 72H581Q612 72 633 76.5Q654 81 667.5 91.5Q681 102 689 119Q697 136 701 162L705 188H791L768 0H266L275 72H331L342 159H166L110 72H154Z" glyph-name="AE.sc" horiz-adv-x="841" /><glyph d="M382 740H319L389 821Q412 847 438 867Q464 887 502 887Q530 887 544 875.5Q558 864 558 845Q558 824 542 807Q526 790 488 778ZM314 562 196 275H361ZM157 0H-29L-20 77H31L284 690H475L576 77H627L617 0H326L336 77H393L372 204H166L114 77H166Z" glyph-name="Aacute" horiz-adv-x="650" unicode="&#193;" /><glyph d="M387 740H324L394 821Q417 847 443 867Q469 887 507 887Q535 887 549 875.5Q563 864 563 845Q563 824 547 807Q531 790 493 778ZM314 545 200 275H360ZM-29 0 -20 77H32L260 613H184L194 690H563L553 613H484L574 77H626L617 0H328L337 77H393L372 204H169L116 77H166L157 0Z" glyph-name="Aacute.alt" horiz-adv-x="651" /><glyph d="M337 586H277L338 645Q349 655 359.5 665.5Q370 676 383 685Q396 694 411.5 699.5Q427 705 446 705Q472 705 485 695.5Q498 686 498 670Q498 650 483 635Q468 620 432 611ZM270 430 177 225H310ZM-27 0 -19 72H28L213 478H149L159 550H504L494 478H437L516 72H563L555 0H286L295 72H340L323 159H147L107 72H147L138 0Z" glyph-name="Aacute.alt.sc" horiz-adv-x="591" /><glyph d="M329 591H270L331 651Q342 661 352.5 671.5Q363 682 375.5 691Q388 700 403.5 705.5Q419 711 439 711Q464 711 477 701Q490 691 490 676Q491 656 475.5 641Q460 626 425 616ZM268 440 171 225H310ZM136 0H-29L-20 72H23L235 550H425L519 72H562L553 0H284L292 72H341L324 159H142L103 72H145Z" glyph-name="Aacute.sc" horiz-adv-x="587" /><glyph d="M314 562 196 275H361ZM157 0H-29L-20 77H31L284 690H475L576 77H627L617 0H326L336 77H393L372 204H166L114 77H166ZM386 792 292 740H207L357 874H439L551 740H467Z" glyph-name="Acircumflex" horiz-adv-x="650" unicode="&#194;" /><glyph d="M385 792 291 740H206L356 874H438L550 740H466ZM314 545 200 275H360ZM-29 0 -20 77H32L260 613H184L194 690H563L553 613H484L574 77H626L617 0H328L337 77H393L372 204H169L116 77H166L157 0Z" glyph-name="Acircumflex.alt" horiz-adv-x="651" /><glyph d="M335 628 255 587H172L305 695H386L487 587H404ZM270 430 177 225H310ZM-27 0 -19 72H28L213 478H149L159 550H504L494 478H437L516 72H563L555 0H286L295 72H340L323 159H147L107 72H147L138 0Z" glyph-name="Acircumflex.alt.sc" horiz-adv-x="591" /><glyph d="M334 634 254 593H171L304 701H385L486 593H403ZM268 440 171 225H310ZM136 0H-29L-20 72H23L235 550H425L519 72H562L553 0H284L292 72H341L324 159H142L103 72H145Z" glyph-name="Acircumflex.sc" horiz-adv-x="587" /><glyph d="M314 562 196 275H361ZM157 0H-29L-20 77H31L284 690H475L576 77H627L617 0H326L336 77H393L372 204H166L114 77H166ZM564 823Q564 791 542 768Q520 745 483 745Q453 745 435.5 763.5Q418 782 418 808Q418 840 440.5 863Q463 886 498 886Q530 886 547 867.5Q564 849 564 823ZM361 823Q361 791 338.5 768Q316 745 280 745Q249 745 232 763.5Q215 782 215 808Q215 840 237.5 863Q260 886 295 886Q327 886 344 867.5Q361 849 361 823Z" glyph-name="Adieresis" horiz-adv-x="650" unicode="&#196;" /><glyph d="M314 545 200 275H360ZM-29 0 -20 77H32L260 613H184L194 690H563L553 613H484L574 77H626L617 0H328L337 77H393L372 204H169L116 77H166L157 0ZM562 824Q562 792 540 769Q518 746 481 746Q451 746 433.5 764.5Q416 783 416 809Q416 841 438.5 864Q461 887 496 887Q528 887 545 868.5Q562 850 562 824ZM359 824Q359 792 336.5 769Q314 746 278 746Q247 746 230 764.5Q213 783 213 809Q213 841 235.5 864Q258 887 293 887Q325 887 342 868.5Q359 850 359 824Z" glyph-name="Adieresis.alt" horiz-adv-x="651" /><glyph d="M501 661Q501 630 479.5 610Q458 590 424 590Q395 590 379 605.5Q363 621 363 645Q363 675 384 695Q405 715 439 715Q468 715 484.5 699.5Q501 684 501 661ZM316 661Q316 630 294.5 610Q273 590 238 590Q210 590 193.5 605.5Q177 621 177 645Q177 675 198.5 695Q220 715 253 715Q283 715 299.5 699.5Q316 684 316 661ZM270 430 177 225H310ZM-27 0 -19 72H28L213 478H149L159 550H504L494 478H437L516 72H563L555 0H286L295 72H340L323 159H147L107 72H147L138 0Z" glyph-name="Adieresis.alt.sc" horiz-adv-x="591" /><glyph d="M500 672Q500 642 479 621.5Q458 601 424 601Q395 601 378.5 616.5Q362 632 362 656Q362 686 383.5 706Q405 726 438 726Q467 726 483.5 710.5Q500 695 500 672ZM315 672Q315 642 294 621.5Q273 601 238 601Q209 601 193 616.5Q177 632 177 656Q177 686 198 706Q219 726 253 726Q282 726 298.5 710.5Q315 695 315 672ZM268 440 171 225H310ZM136 0H-29L-20 72H23L235 550H425L519 72H562L553 0H284L292 72H341L324 159H142L103 72H145Z" glyph-name="Adieresis.sc" horiz-adv-x="587" /><glyph d="M314 562 196 275H361ZM157 0H-29L-20 77H31L284 690H475L576 77H627L617 0H326L336 77H393L372 204H166L114 77H166ZM262 778Q228 789 212.5 806Q197 823 197 842Q197 861 212.5 874Q228 887 257 887Q296 887 319 867Q342 847 364 821L429 740H366Z" glyph-name="Agrave" horiz-adv-x="650" unicode="&#192;" /><glyph d="M268 778Q234 789 218.5 806Q203 823 203 842Q203 861 218.5 874Q234 887 263 887Q302 887 325 867Q348 847 370 821L435 740H372ZM314 545 200 275H360ZM-29 0 -20 77H32L260 613H184L194 690H563L553 613H484L574 77H626L617 0H328L337 77H393L372 204H169L116 77H166L157 0Z" glyph-name="Agrave.alt" horiz-adv-x="651" /><glyph d="M232 611Q201 619 186 634Q171 649 171 666Q170 682 184 693.5Q198 705 226 705Q246 705 260.5 699.5Q275 694 287 685Q299 676 308.5 665.5Q318 655 328 645L386 586H327ZM270 430 177 225H310ZM-27 0 -19 72H28L213 478H149L159 550H504L494 478H437L516 72H563L555 0H286L295 72H340L323 159H147L107 72H147L138 0Z" glyph-name="Agrave.alt.sc" horiz-adv-x="591" /><glyph d="M224 616Q194 624 178.5 639.5Q163 655 163 672Q163 688 176.5 699.5Q190 711 219 711Q238 711 252.5 705.5Q267 700 279 691Q291 682 300.5 671.5Q310 661 320 651L379 591H320ZM268 440 171 225H310ZM136 0H-29L-20 72H23L235 550H425L519 72H562L553 0H284L292 72H341L324 159H142L103 72H145Z" glyph-name="Agrave.sc" horiz-adv-x="587" /><glyph d="M314 562 196 275H361ZM157 0H-29L-20 77H31L284 690H475L576 77H627L617 0H326L336 77H393L372 204H166L114 77H166ZM376 729Q333 729 308 752.5Q283 776 283 813Q283 859 315 889Q347 919 401 919Q444 919 469 895.5Q494 872 494 834Q494 789 462.5 759Q431 729 376 729ZM393 857Q375 857 364 846Q353 835 353 820Q353 807 361.5 798.5Q370 790 385 790Q402 790 413.5 801Q425 812 425 828Q425 841 416.5 849Q408 857 393 857Z" glyph-name="Aring" horiz-adv-x="650" unicode="&#197;" /><glyph d="M314 545 200 275H360ZM-29 0 -20 77H32L260 613H184L194 690H563L553 613H484L574 77H626L617 0H328L337 77H393L372 204H169L116 77H166L157 0ZM381 735Q338 735 313 758.5Q288 782 288 819Q288 865 320 895Q352 925 406 925Q449 925 474 901.5Q499 878 499 840Q499 795 467.5 765Q436 735 381 735ZM398 863Q380 863 369 852Q358 841 358 826Q358 813 366.5 804.5Q375 796 390 796Q407 796 418.5 807Q430 818 430 834Q430 847 421.5 855Q413 863 398 863Z" glyph-name="Aring.alt" horiz-adv-x="651" /><glyph d="M332 575Q292 575 269 595Q246 615 246 647Q246 686 274 711Q302 736 353 736Q393 736 417 715.5Q441 695 440 664Q439 625 411 600Q383 575 332 575ZM346 680Q329 680 320 672Q311 664 311 653Q311 644 318.5 637.5Q326 631 340 631Q356 631 365.5 639Q375 647 375 658Q375 680 346 680ZM270 430 177 225H310ZM-27 0 -19 72H28L213 478H149L159 550H504L494 478H437L516 72H563L555 0H286L295 72H340L323 159H147L107 72H147L138 0Z" glyph-name="Aring.alt.sc" horiz-adv-x="591" /><glyph d="M325 584Q284 584 261 604Q238 624 238 656Q238 695 266 720Q294 745 345 745Q385 745 408.5 725Q432 705 432 673Q432 634 403.5 609Q375 584 325 584ZM338 689Q321 689 312 681Q303 673 303 662Q303 653 310.5 646.5Q318 640 332 640Q349 640 358 648Q367 656 367 667Q367 689 338 689ZM268 440 171 225H310ZM136 0H-29L-20 72H23L235 550H425L519 72H562L553 0H284L292 72H341L324 159H142L103 72H145Z" glyph-name="Aring.sc" horiz-adv-x="587" /><glyph d="M314 562 196 275H361ZM157 0H-29L-20 77H31L284 690H475L576 77H627L617 0H326L336 77H393L372 204H166L114 77H166ZM452 748Q431 748 414.5 754.5Q398 761 384 769Q370 777 357.5 783.5Q345 790 332 790Q312 790 301 777.5Q290 765 288 747H235Q243 811 269.5 844.5Q296 878 343 878Q366 878 382.5 871.5Q399 865 413 857Q427 849 439.5 842.5Q452 836 465 836Q485 836 495 848Q505 860 508 878H560Q556 847 549 822.5Q542 798 530 781.5Q518 765 499.5 756.5Q481 748 452 748Z" glyph-name="Atilde" horiz-adv-x="650" unicode="&#195;" /><glyph d="M438 748Q417 748 400.5 754.5Q384 761 370 769Q356 777 343.5 783.5Q331 790 318 790Q298 790 287 777.5Q276 765 274 747H221Q229 811 255.5 844.5Q282 878 329 878Q352 878 368.5 871.5Q385 865 399 857Q413 849 425.5 842.5Q438 836 451 836Q471 836 481 848Q491 860 494 878H546Q542 847 535 822.5Q528 798 516 781.5Q504 765 485.5 756.5Q467 748 438 748ZM314 545 200 275H360ZM-29 0 -20 77H32L260 613H184L194 690H563L553 613H484L574 77H626L617 0H328L337 77H393L372 204H169L116 77H166L157 0Z" glyph-name="Atilde.alt" horiz-adv-x="651" /><glyph d="M383 597Q365 597 350 601.5Q335 606 322.5 612Q310 618 298.5 622.5Q287 627 276 627Q258 627 249 618.5Q240 610 238 596H188Q202 707 285 707Q305 707 319.5 702.5Q334 698 347 692Q360 686 371.5 681.5Q383 677 395 677Q412 677 420.5 685Q429 693 431 707H480Q474 652 454.5 624.5Q435 597 383 597ZM270 430 177 225H310ZM-27 0 -19 72H28L213 478H149L159 550H504L494 478H437L516 72H563L555 0H286L295 72H340L323 159H147L107 72H147L138 0Z" glyph-name="Atilde.alt.sc" horiz-adv-x="591" /><glyph d="M394 598Q376 598 361.5 602.5Q347 607 334 613Q321 619 309.5 623.5Q298 628 287 628Q270 628 260.5 619.5Q251 611 249 597H199Q213 708 296 708Q316 708 331 703.5Q346 699 358.5 693Q371 687 382.5 682.5Q394 678 406 678Q423 678 431.5 686Q440 694 442 708H492Q485 653 466 625.5Q447 598 394 598ZM268 440 171 225H310ZM136 0H-29L-20 72H23L235 550H425L519 72H562L553 0H284L292 72H341L324 159H142L103 72H145Z" glyph-name="Atilde.sc" horiz-adv-x="587" /><glyph d="M24 77H90L155 613H90L100 690H433Q484 690 527.5 680.5Q571 671 603 652Q635 633 653 605Q671 577 671 540Q671 465 616.5 417.5Q562 370 470 360Q508 355 543 344Q578 333 604 314.5Q630 296 645.5 269.5Q661 243 661 208Q661 110 584 55Q507 0 360 0H15ZM338 616 310 388H349Q381 388 406.5 398.5Q432 409 449.5 426.5Q467 444 476 467.5Q485 491 485 518Q485 568 455.5 592Q426 616 377 616ZM301 319 272 74H318Q389 74 431.5 109Q474 144 474 213Q474 268 438.5 293.5Q403 319 346 319Z" glyph-name="B" horiz-adv-x="701" unicode="B" /><glyph d="M20 72H75L124 478H69L78 550H389Q435 550 474.5 542.5Q514 535 543 519.5Q572 504 588.5 480.5Q605 457 605 425Q605 371 557 332.5Q509 294 423 287Q461 284 493 275.5Q525 267 548.5 252Q572 237 585.5 215.5Q599 194 599 165Q599 90 531 45Q463 0 330 0H10ZM302 481 282 314H317Q366 314 395.5 339.5Q425 365 425 409Q425 445 401.5 463Q378 481 336 481ZM274 249 252 69H295Q350 69 384 93Q418 117 418 169Q418 214 389 231.5Q360 249 315 249Z" glyph-name="B.sc" horiz-adv-x="639" /><glyph d="M481 -10 454 37Q428 15 392.5 2.5Q357 -10 301 -10Q240 -10 192 12.5Q144 35 111.5 75Q79 115 62 169.5Q45 224 45 288Q45 371 68.5 445.5Q92 520 136.5 576.5Q181 633 243.5 666.5Q306 700 384 700Q441 700 474 685.5Q507 671 524 654L564 699H643L612 454H523Q523 459 524 464Q524 468 524 472.5Q524 477 524 480Q524 543 497.5 580.5Q471 618 413 618Q371 618 337 588.5Q303 559 279 509Q255 459 242 393.5Q229 328 229 257Q229 159 262 115.5Q295 72 349 72Q381 72 406.5 86Q432 100 451 123Q470 146 482.5 176.5Q495 207 501 241H591L560 -10Z" glyph-name="C" horiz-adv-x="639" unicode="C" /><glyph d="M423 -8 397 32Q369 12 336.5 2Q304 -8 262 -8Q208 -8 165.5 9Q123 26 93 57Q63 88 47 131.5Q31 175 31 227Q31 296 52 356Q73 416 112.5 461Q152 506 208 532Q264 558 334 558Q377 558 406.5 548Q436 538 453 521L488 557H565L540 356H455V375Q454 423 432.5 452.5Q411 482 361 482Q326 482 298 458Q270 434 250.5 394.5Q231 355 220.5 303.5Q210 252 210 197Q210 129 238.5 98.5Q267 68 312 68Q339 68 361 79Q383 90 398.5 108Q414 126 424 149.5Q434 173 438 198H525L499 -8Z" glyph-name="C.sc" horiz-adv-x="572" /><glyph d="M291 -209Q266 -209 236 -205.5Q206 -202 189 -191L197 -128Q216 -144 248 -144Q267 -144 278.5 -135Q290 -126 290 -114Q290 -82 229 -82L231 -65L258 -7Q207 1 167 26Q127 51 100 90Q73 129 59 179.5Q45 230 45 288Q45 371 68.5 445.5Q92 520 136.5 576.5Q181 633 243.5 666.5Q306 700 384 700Q441 700 474 685.5Q507 671 524 654L564 699H643L612 454H523Q523 459 524 464Q524 468 524 472.5Q524 477 524 480Q524 543 497.5 580.5Q471 618 413 618Q371 618 337 588.5Q303 559 279 509Q255 459 242 393.5Q229 328 229 257Q229 159 262 115.5Q295 72 349 72Q381 72 406.5 86Q432 100 451 123Q470 146 482.5 176.5Q495 207 501 241H591L560 -10H481L454 37Q434 20 408 9Q382 -2 347 -7L331 -40Q369 -45 392.5 -62.5Q416 -80 416 -113Q416 -153 383 -181Q350 -209 291 -209Z" glyph-name="Ccedilla" horiz-adv-x="639" unicode="&#199;" /><glyph d="M261 -171Q238 -171 210 -168Q182 -165 165 -156L172 -98Q180 -105 192 -108Q204 -111 218 -111Q233 -111 243 -104.5Q253 -98 253 -89Q253 -74 239 -69.5Q225 -65 200 -65L202 -52L225 -6Q134 6 82.5 68.5Q31 131 31 227Q31 296 52 356Q73 416 112.5 461Q152 506 208 532Q264 558 334 558Q377 558 406.5 548Q436 538 453 521L488 557H565L540 356H455V375Q454 423 432.5 452.5Q411 482 361 482Q326 482 298 458Q270 434 250.5 394.5Q231 355 220.5 303.5Q210 252 210 197Q210 129 238.5 98.5Q267 68 312 68Q339 68 361 79Q383 90 398.5 108Q414 126 424 149.5Q434 173 438 198H525L499 -8H423L397 32Q359 5 313 -4L298 -32Q332 -37 353.5 -51Q375 -65 375 -91Q375 -126 345 -148.5Q315 -171 261 -171Z" glyph-name="Ccedilla.sc" horiz-adv-x="572" /><glyph d="M15 0 24 77H90L155 613H90L100 690H391Q478 690 539.5 666Q601 642 640.5 601.5Q680 561 698 508Q716 455 716 398Q716 319 690.5 247Q665 175 614 120Q563 65 487 32.5Q411 0 311 0ZM272 77H321Q367 77 405.5 103.5Q444 130 472 175.5Q500 221 515.5 281.5Q531 342 531 410Q531 466 519 504.5Q507 543 486 567Q465 591 438 602Q411 613 381 613H337Z" glyph-name="D" horiz-adv-x="738" unicode="D" /><glyph d="M10 0 20 72H75L124 478H69L78 550H346Q424 550 480.5 531Q537 512 573 480.5Q609 449 626 407Q643 365 643 318Q643 259 621 202Q599 145 554.5 100Q510 55 442 27.5Q374 0 281 0ZM252 72H293Q332 72 363 93Q394 114 416 149.5Q438 185 450 232Q462 279 462 330Q462 370 452 398Q442 426 425 444Q408 462 385.5 470Q363 478 338 478H301Z" glyph-name="D.sc" horiz-adv-x="667" /><glyph d="M24 77H90L155 613H90L100 690H644L617 469H527L530 496Q535 531 531.5 553.5Q528 576 515 589Q502 602 478.5 607.5Q455 613 419 613H337L309 386L479 399L467 300L301 313L272 77H362Q398 77 423 83.5Q448 90 464 105Q480 120 489 144Q498 168 502 203L505 226H595L567 0H15Z" glyph-name="E" horiz-adv-x="645" unicode="E" /><glyph d="M15 0 24 77H90L155 613H90L100 690H644L617 469H527L530 496Q535 531 531.5 553.5Q528 576 515 589Q502 602 478.5 607.5Q455 613 419 613H337L309 386H406L415 460H481L454 238H387L396 312H301L272 77H362Q398 77 423 83.5Q448 90 464 105Q480 120 489 144Q498 168 502 203L505 226H595L567 0Z" glyph-name="E.alt" horiz-adv-x="644" /><glyph d="M10 0 20 72H75L124 478H69L78 550H573L550 366H464L467 391Q473 440 453 459Q433 478 372 478H301L282 312H359L366 369H427L404 186H343L350 243H273L252 72H333Q363 72 383 76.5Q403 81 416 92Q429 103 436 121.5Q443 140 447 167L450 188H536L513 0Z" glyph-name="E.alt.sc" horiz-adv-x="585" /><glyph d="M20 72H75L124 478H69L78 550H573L550 366H464L467 390Q472 441 452.5 459.5Q433 478 372 478H301L282 312L427 324L417 232L273 244L252 72H326Q357 72 378 76.5Q399 81 413.5 91.5Q428 102 435.5 120.5Q443 139 447 166L450 188H536L513 0H10Z" glyph-name="E.sc" horiz-adv-x="585" /><glyph d="M24 77H90L155 613H90L100 690H644L617 469H527L530 496Q535 531 531.5 553.5Q528 576 515 589Q502 602 478.5 607.5Q455 613 419 613H337L309 386L479 399L467 300L301 313L272 77H362Q398 77 423 83.5Q448 90 464 105Q480 120 489 144Q498 168 502 203L505 226H595L567 0H15ZM389 740H326L396 821Q419 847 445 867Q471 887 509 887Q537 887 551 875.5Q565 864 565 845Q565 824 549 807Q533 790 495 778Z" glyph-name="Eacute" horiz-adv-x="645" unicode="&#201;" /><glyph d="M393 740H330L400 821Q423 847 449 867Q475 887 513 887Q541 887 555 875.5Q569 864 569 845Q569 824 553 807Q537 790 499 778ZM15 0 24 77H90L155 613H90L100 690H644L617 469H527L530 496Q535 531 531.5 553.5Q528 576 515 589Q502 602 478.5 607.5Q455 613 419 613H337L309 386H406L415 460H481L454 238H387L396 312H301L272 77H362Q398 77 423 83.5Q448 90 464 105Q480 120 489 144Q498 168 502 203L505 226H595L567 0Z" glyph-name="Eacute.alt" horiz-adv-x="644" /><glyph d="M342 586H283L344 645Q355 655 365.5 665.5Q376 676 389 685Q402 694 417.5 699.5Q433 705 452 705Q478 705 491 695.5Q504 686 504 670Q504 650 488.5 635Q473 620 438 611ZM10 0 20 72H75L124 478H69L78 550H573L550 366H464L467 391Q473 440 453 459Q433 478 372 478H301L282 312H359L366 369H427L404 186H343L350 243H273L252 72H333Q363 72 383 76.5Q403 81 416 92Q429 103 436 121.5Q443 140 447 167L450 188H536L513 0Z" glyph-name="Eacute.alt.sc" horiz-adv-x="585" /><glyph d="M340 591H280L341 651Q352 661 362.5 671.5Q373 682 386 691Q399 700 414.5 705.5Q430 711 449 711Q475 711 488 701Q501 691 501 676Q501 656 485.5 641Q470 626 435 616ZM20 72H75L124 478H69L78 550H573L550 366H464L467 390Q472 441 452.5 459.5Q433 478 372 478H301L282 312L427 324L417 232L273 244L252 72H326Q357 72 378 76.5Q399 81 413.5 91.5Q428 102 435.5 120.5Q443 139 447 166L450 188H536L513 0H10Z" glyph-name="Eacute.sc" horiz-adv-x="585" /><glyph d="M24 77H90L155 613H90L100 690H644L617 469H527L530 496Q535 531 531.5 553.5Q528 576 515 589Q502 602 478.5 607.5Q455 613 419 613H337L309 386L479 399L467 300L301 313L272 77H362Q398 77 423 83.5Q448 90 464 105Q480 120 489 144Q498 168 502 203L505 226H595L567 0H15ZM399 792 305 740H220L370 874H452L564 740H480Z" glyph-name="Ecircumflex" horiz-adv-x="645" unicode="&#202;" /><glyph d="M397 792 303 740H218L368 874H450L562 740H478ZM15 0 24 77H90L155 613H90L100 690H644L617 469H527L530 496Q535 531 531.5 553.5Q528 576 515 589Q502 602 478.5 607.5Q455 613 419 613H337L309 386H406L415 460H481L454 238H387L396 312H301L272 77H362Q398 77 423 83.5Q448 90 464 105Q480 120 489 144Q498 168 502 203L505 226H595L567 0Z" glyph-name="Ecircumflex.alt" horiz-adv-x="644" /><glyph d="M347 628 267 587H184L317 695H398L499 587H416ZM10 0 20 72H75L124 478H69L78 550H573L550 366H464L467 391Q473 440 453 459Q433 478 372 478H301L282 312H359L366 369H427L404 186H343L350 243H273L252 72H333Q363 72 383 76.5Q403 81 416 92Q429 103 436 121.5Q443 140 447 167L450 188H536L513 0Z" glyph-name="Ecircumflex.alt.sc" horiz-adv-x="585" /><glyph d="M348 634 268 593H185L318 701H399L500 593H417ZM20 72H75L124 478H69L78 550H573L550 366H464L467 390Q472 441 452.5 459.5Q433 478 372 478H301L282 312L427 324L417 232L273 244L252 72H326Q357 72 378 76.5Q399 81 413.5 91.5Q428 102 435.5 120.5Q443 139 447 166L450 188H536L513 0H10Z" glyph-name="Ecircumflex.sc" horiz-adv-x="585" /><glyph d="M24 77H90L155 613H90L100 690H644L617 469H527L530 496Q535 531 531.5 553.5Q528 576 515 589Q502 602 478.5 607.5Q455 613 419 613H337L309 386L479 399L467 300L301 313L272 77H362Q398 77 423 83.5Q448 90 464 105Q480 120 489 144Q498 168 502 203L505 226H595L567 0H15ZM568 823Q568 791 546 768Q524 745 487 745Q457 745 439.5 763.5Q422 782 422 808Q422 840 444.5 863Q467 886 502 886Q534 886 551 867.5Q568 849 568 823ZM365 823Q365 791 342.5 768Q320 745 284 745Q253 745 236 763.5Q219 782 219 808Q219 840 241.5 863Q264 886 299 886Q331 886 348 867.5Q365 849 365 823Z" glyph-name="Edieresis" horiz-adv-x="645" unicode="&#203;" /><glyph d="M572 823Q572 791 550 768Q528 745 491 745Q461 745 443.5 763.5Q426 782 426 808Q426 840 448.5 863Q471 886 506 886Q538 886 555 867.5Q572 849 572 823ZM369 823Q369 791 346.5 768Q324 745 288 745Q257 745 240 763.5Q223 782 223 808Q223 840 245.5 863Q268 886 303 886Q335 886 352 867.5Q369 849 369 823ZM15 0 24 77H90L155 613H90L100 690H644L617 469H527L530 496Q535 531 531.5 553.5Q528 576 515 589Q502 602 478.5 607.5Q455 613 419 613H337L309 386H406L415 460H481L454 238H387L396 312H301L272 77H362Q398 77 423 83.5Q448 90 464 105Q480 120 489 144Q498 168 502 203L505 226H595L567 0Z" glyph-name="Edieresis.alt" horiz-adv-x="644" /><glyph d="M510 663Q510 633 488.5 612.5Q467 592 432 592Q404 592 387.5 607.5Q371 623 371 647Q371 677 392 697Q413 717 447 717Q476 717 493 701.5Q510 686 510 663ZM324 663Q324 633 303 612.5Q282 592 247 592Q218 592 202 607.5Q186 623 186 647Q186 677 207 697Q228 717 261 717Q291 717 307.5 701.5Q324 686 324 663ZM10 0 20 72H75L124 478H69L78 550H573L550 366H464L467 391Q473 440 453 459Q433 478 372 478H301L282 312H359L366 369H427L404 186H343L350 243H273L252 72H333Q363 72 383 76.5Q403 81 416 92Q429 103 436 121.5Q443 140 447 167L450 188H536L513 0Z" glyph-name="Edieresis.alt.sc" horiz-adv-x="585" /><glyph d="M506 672Q506 642 484.5 621.5Q463 601 429 601Q400 601 383.5 616.5Q367 632 367 656Q367 686 388.5 706Q410 726 443 726Q472 726 489 710.5Q506 695 506 672ZM320 672Q320 642 299 621.5Q278 601 244 601Q215 601 198.5 616.5Q182 632 182 656Q182 686 203.5 706Q225 726 258 726Q287 726 303.5 710.5Q320 695 320 672ZM20 72H75L124 478H69L78 550H573L550 366H464L467 390Q472 441 452.5 459.5Q433 478 372 478H301L282 312L427 324L417 232L273 244L252 72H326Q357 72 378 76.5Q399 81 413.5 91.5Q428 102 435.5 120.5Q443 139 447 166L450 188H536L513 0H10Z" glyph-name="Edieresis.sc" horiz-adv-x="585" /><glyph d="M24 77H90L155 613H90L100 690H644L617 469H527L530 496Q535 531 531.5 553.5Q528 576 515 589Q502 602 478.5 607.5Q455 613 419 613H337L309 386L479 399L467 300L301 313L272 77H362Q398 77 423 83.5Q448 90 464 105Q480 120 489 144Q498 168 502 203L505 226H595L567 0H15ZM296 778Q262 789 246.5 806Q231 823 231 842Q231 861 246.5 874Q262 887 291 887Q330 887 353 867Q376 847 398 821L463 740H400Z" glyph-name="Egrave" horiz-adv-x="645" unicode="&#200;" /><glyph d="M15 0 24 77H90L155 613H90L100 690H644L617 469H527L530 496Q535 531 531.5 553.5Q528 576 515 589Q502 602 478.5 607.5Q455 613 419 613H337L309 386H406L415 460H481L454 238H387L396 312H301L272 77H362Q398 77 423 83.5Q448 90 464 105Q480 120 489 144Q498 168 502 203L505 226H595L567 0ZM295 778Q261 789 245.5 806Q230 823 230 842Q230 861 245.5 874Q261 887 290 887Q329 887 352 867Q375 847 397 821L462 740H399Z" glyph-name="Egrave.alt" horiz-adv-x="644" /><glyph d="M255 611Q224 619 209 634Q194 649 194 666Q194 682 207.5 693.5Q221 705 250 705Q269 705 283.5 699.5Q298 694 310 685Q322 676 331.5 665.5Q341 655 351 645L410 586H350ZM10 0 20 72H75L124 478H69L78 550H573L550 366H464L467 391Q473 440 453 459Q433 478 372 478H301L282 312H359L366 369H427L404 186H343L350 243H273L252 72H333Q363 72 383 76.5Q403 81 416 92Q429 103 436 121.5Q443 140 447 167L450 188H536L513 0Z" glyph-name="Egrave.alt.sc" horiz-adv-x="585" /><glyph d="M256 616Q225 624 210 639.5Q195 655 195 672Q195 688 209 699.5Q223 711 251 711Q270 711 284.5 705.5Q299 700 311 691Q323 682 332.5 671.5Q342 661 352 651L411 591H352ZM20 72H75L124 478H69L78 550H573L550 366H464L467 390Q472 441 452.5 459.5Q433 478 372 478H301L282 312L427 324L417 232L273 244L252 72H326Q357 72 378 76.5Q399 81 413.5 91.5Q428 102 435.5 120.5Q443 139 447 166L450 188H536L513 0H10Z" glyph-name="Egrave.sc" horiz-adv-x="585" /><glyph d="M16 0 25 77H91L120 314H38L47 391H129L156 613H91L101 690H392Q479 690 540.5 666Q602 642 641.5 601.5Q681 561 699 508Q717 455 717 398Q717 319 691.5 247Q666 175 615 120Q564 65 488 32.5Q412 0 312 0ZM322 77Q368 77 406.5 103.5Q445 130 473 175.5Q501 221 516.5 281.5Q532 342 532 410Q532 466 520 504.5Q508 543 487 567Q466 591 439 602Q412 613 382 613H338L311 391H415L406 314H302L273 77Z" glyph-name="Eth" horiz-adv-x="738" unicode="&#208;" /><glyph d="M10 0 20 72H75L96 244H27L36 317H105L124 478H69L78 550H346Q424 550 480.5 531Q537 512 573 480.5Q609 449 626 407Q643 365 643 318Q643 259 621 202Q599 145 554.5 100Q510 55 442 27.5Q374 0 281 0ZM293 72Q332 72 363 93Q394 114 416 149.5Q438 185 450 232Q462 279 462 330Q462 370 452 398Q442 426 425 444Q408 462 385.5 470Q363 478 338 478H301L282 317H365L357 244H273L252 72Z" glyph-name="Eth.sc" horiz-adv-x="667" /><glyph d="M15 0 24 77H90L155 613H90L100 690H634L606 469H516L519 496Q524 532 520.5 555Q517 578 503.5 590.5Q490 603 466.5 608Q443 613 408 613H337L309 384L471 397L459 298L300 311L272 77H366L357 0Z" glyph-name="F" horiz-adv-x="602" unicode="F" /><glyph d="M15 0 24 77H90L155 613H90L100 690H634L606 469H516L519 496Q524 532 520.5 555Q517 578 503.5 590.5Q490 603 466.5 608Q443 613 408 613H337L309 384H405L415 460H481L454 238H387L396 310H300L272 77H366L357 0Z" glyph-name="F.alt" horiz-adv-x="603" /><glyph d="M10 0 20 72H75L124 478H69L78 550H564L542 366H455L458 389Q465 442 444 460Q423 478 362 478H301L282 309H358L366 369H427L404 186H343L350 240H273L252 72H333L324 0Z" glyph-name="F.alt.sc" horiz-adv-x="548" /><glyph d="M10 0 20 72H75L124 478H69L78 550H564L542 366H455L458 390Q465 441 444.5 459.5Q424 478 362 478H301L282 309L422 320L411 229L273 241L252 72H333L324 0Z" glyph-name="F.sc" horiz-adv-x="547" /><glyph d="M477 33Q448 13 410.5 1.5Q373 -10 321 -10Q250 -10 198 14Q146 38 112 79Q78 120 61.5 174.5Q45 229 45 291Q45 374 69 448Q93 522 137 578Q181 634 243.5 667Q306 700 384 700Q439 700 472.5 686.5Q506 673 526 654L567 699H646L615 450H526Q526 455 527 460Q527 464 527 468.5Q527 473 527 476Q527 543 498 580.5Q469 618 413 618Q366 618 331.5 584.5Q297 551 274.5 499Q252 447 241 383Q230 319 230 259Q230 160 265 116Q300 72 361 72Q381 72 400.5 76Q420 80 434 91L452 252H377L387 329H664L654 252H599L568 -10H507Z" glyph-name="G" horiz-adv-x="678" unicode="G" /><glyph d="M421 29Q404 15 369 3.5Q334 -8 280 -8Q218 -8 171 11Q124 30 93 62Q62 94 46.5 137.5Q31 181 31 230Q31 299 52 358.5Q73 418 112 462.5Q151 507 206 532.5Q261 558 330 558Q371 558 403 548Q435 538 455 521L490 557H567L542 356H456Q456 360 457 364Q457 368 457 371.5Q457 375 457 378Q457 430 432 456Q407 482 361 482Q320 482 291.5 454Q263 426 245 384Q227 342 218.5 292.5Q210 243 210 199Q210 130 239 99Q268 68 319 68Q339 68 354.5 71.5Q370 75 378 80L390 182H339L348 255H585L576 182H529L506 -8H449Z" glyph-name="G.sc" horiz-adv-x="605" /><glyph d="M24 77H90L155 613H90L100 690H407L397 613H337L310 391H526L553 613H494L504 690H811L801 613H735L670 77H735L726 0H419L428 77H488L517 314H301L272 77H331L322 0H15Z" glyph-name="H" horiz-adv-x="803" unicode="H" /><glyph d="M20 72H75L124 478H69L78 550H361L352 478H301L282 317H460L480 478H430L439 550H722L713 478H657L607 72H663L654 0H371L380 72H430L452 244H273L252 72H302L293 0H10Z" glyph-name="H.sc" horiz-adv-x="727" /><glyph d="M15 0 24 77H90L155 613H90L100 690H413L403 613H337L272 77H337L328 0Z" glyph-name="I" horiz-adv-x="404" unicode="I" /><glyph d="M10 0 20 72H75L124 478H69L78 550H367L358 478H301L252 72H309L299 0Z" glyph-name="I.sc" horiz-adv-x="371" /><glyph d="M258 740H195L265 821Q288 847 314 867Q340 887 378 887Q406 887 420 875.5Q434 864 434 845Q434 824 418 807Q402 790 364 778ZM15 0 24 77H90L155 613H90L100 690H413L403 613H337L272 77H337L328 0Z" glyph-name="Iacute" horiz-adv-x="404" unicode="&#205;" /><glyph d="M221 591H162L223 651Q234 661 244.5 671.5Q255 682 268 691Q281 700 296.5 705.5Q312 711 331 711Q357 711 369.5 701Q382 691 382 676Q382 656 367 641Q352 626 317 616ZM10 0 20 72H75L124 478H69L78 550H367L358 478H301L252 72H309L299 0Z" glyph-name="Iacute.sc" horiz-adv-x="371" /><glyph d="M248 740H185L255 821Q278 847 304 867Q330 887 368 887Q396 887 410 875.5Q424 864 424 845Q424 824 408 807Q392 790 354 778ZM751 740H688L758 821Q781 847 807 867Q833 887 871 887Q899 887 913 875.5Q927 864 927 845Q927 824 911 807Q895 790 857 778ZM15 0 24 77H90L155 613H90L100 690H413L403 613H337L272 77H337L328 0ZM802 230Q787 105 724 47.5Q661 -10 548 -10Q505 -10 470 -1Q435 8 409.5 25.5Q384 43 370 67.5Q356 92 356 123Q356 168 382 197.5Q408 227 453 227Q487 227 506.5 208.5Q526 190 526 159Q526 132 511.5 113Q497 94 482 86Q488 78 501.5 72Q515 66 534 66Q575 66 590.5 94Q606 122 613 176L667 613H597L606 690H924L914 613H849Z" glyph-name="Iacute_Jacute" horiz-adv-x="901" /><glyph d="M673 586H613L674 645Q685 655 695.5 665.5Q706 676 719 685Q732 694 747.5 699.5Q763 705 782 705Q808 705 821 695.5Q834 686 834 670Q834 650 818.5 635Q803 620 768 611ZM216 586H156L217 645Q228 655 238.5 665.5Q249 676 262 685Q275 694 290.5 699.5Q306 705 325 705Q351 705 363.5 695.5Q376 686 377 670Q377 650 361.5 635Q346 620 311 611ZM10 0 20 72H75L124 478H69L78 550H367L358 478H301L252 72H309L299 0ZM734 185Q723 88 666 40Q609 -8 502 -8Q422 -8 375.5 20Q329 48 329 102Q329 142 353 168Q377 194 419 194Q451 194 470 177.5Q489 161 489 132Q489 110 477 95.5Q465 81 453 74Q457 69 468 65.5Q479 62 493 62Q522 62 534 81Q546 100 551 139L593 478H534L543 550H835L826 478H770Z" glyph-name="Iacute_Jacute.sc" horiz-adv-x="826" /><glyph d="M264 792 170 740H85L235 874H317L429 740H345ZM15 0 24 77H90L155 613H90L100 690H413L403 613H337L272 77H337L328 0Z" glyph-name="Icircumflex" horiz-adv-x="404" unicode="&#206;" /><glyph d="M227 634 148 593H65L197 701H278L380 593H297ZM10 0 20 72H75L124 478H69L78 550H367L358 478H301L252 72H309L299 0Z" glyph-name="Icircumflex.sc" horiz-adv-x="371" /><glyph d="M445 823Q445 791 423 768Q401 745 364 745Q334 745 316.5 763.5Q299 782 299 808Q299 840 321.5 863Q344 886 379 886Q411 886 428 867.5Q445 849 445 823ZM242 823Q242 791 219.5 768Q197 745 161 745Q130 745 113 763.5Q96 782 96 808Q96 840 118.5 863Q141 886 176 886Q208 886 225 867.5Q242 849 242 823ZM15 0 24 77H90L155 613H90L100 690H413L403 613H337L272 77H337L328 0Z" glyph-name="Idieresis" horiz-adv-x="404" unicode="&#207;" /><glyph d="M397 671Q397 641 376 621Q355 601 320 601Q292 601 275.5 616Q259 631 259 656Q259 686 280 705.5Q301 725 335 725Q364 725 380.5 709.5Q397 694 397 671ZM212 671Q212 641 190.5 621Q169 601 135 601Q106 601 89.5 616Q73 631 73 656Q73 686 94.5 705.5Q116 725 149 725Q179 725 195.5 709.5Q212 694 212 671ZM10 0 20 72H75L124 478H69L78 550H367L358 478H301L252 72H309L299 0Z" glyph-name="Idieresis.sc" horiz-adv-x="371" /><glyph d="M15 0 24 77H90L155 613H90L100 690H413L403 613H337L272 77H337L328 0ZM149 778Q115 789 99.5 806Q84 823 84 842Q84 861 99.5 874Q115 887 144 887Q183 887 206 867Q229 847 251 821L316 740H253Z" glyph-name="Igrave" horiz-adv-x="404" unicode="&#204;" /><glyph d="M126 616Q95 624 80 639.5Q65 655 65 672Q65 688 79 699.5Q93 711 121 711Q140 711 154.5 705.5Q169 700 181 691Q193 682 202.5 671.5Q212 661 222 651L281 591H222ZM10 0 20 72H75L124 478H69L78 550H367L358 478H301L252 72H309L299 0Z" glyph-name="Igrave.sc" horiz-adv-x="371" /><glyph d="M436 230Q421 105 358 47.5Q295 -10 182 -10Q139 -10 104 -1Q69 8 43.5 25.5Q18 43 4 67.5Q-10 92 -10 123Q-10 168 16 197.5Q42 227 87 227Q121 227 140.5 208.5Q160 190 160 159Q160 132 145.5 113Q131 94 116 86Q122 78 135.5 72Q149 66 168 66Q209 66 224.5 94Q240 122 247 176L301 613H231L240 690H558L548 613H483Z" glyph-name="J" horiz-adv-x="535" unicode="J" /><glyph d="M399 188Q387 90 331.5 41Q276 -8 166 -8Q88 -8 38 22.5Q-12 53 -12 108Q-12 145 12 169.5Q36 194 78 194Q110 194 129 177.5Q148 161 148 132Q148 110 137 93.5Q126 77 112 71Q117 68 126 65Q135 62 152 62Q181 62 196 77.5Q211 93 216 135L258 478H199L208 550H500L491 478H435Z" glyph-name="J.sc" horiz-adv-x="491" /><glyph d="M15 0 24 77H90L155 613H90L100 690H404L394 613H337L305 350L561 613H490L500 690H753L743 613H673L480 417L664 77H713L703 0H410L420 77H475L356 298L290 229L272 77H328L319 0Z" glyph-name="K" horiz-adv-x="732" unicode="K" /><glyph d="M304 337 621 613H337ZM15 0 24 77H90L155 613H90L100 690H740L730 613L497 407L667 77H717L708 0H415L424 77H477L367 293L290 225L272 77H328L319 0Z" glyph-name="K.alt" horiz-adv-x="736" /><glyph d="M276 270 547 478H301ZM10 0 20 72H75L124 478H69L78 550H669L659 478L461 324L607 72H651L642 0H369L379 72H421L333 225L264 172L252 72H299L290 0Z" glyph-name="K.alt.sc" horiz-adv-x="673" /><glyph d="M10 0 20 72H75L124 478H69L78 550H358L349 478H301L278 287L494 478H432L442 550H675L666 478H603L435 332L604 72H648L640 0H367L375 72H422L316 233L267 189L252 72H299L290 0Z" glyph-name="K.sc" horiz-adv-x="671" /><glyph d="M24 77H90L155 613H90L100 690H421L411 613H337L272 77H354Q408 77 436.5 105Q465 133 475 208L478 232H568L540 0H15Z" glyph-name="L" horiz-adv-x="591" unicode="L" /><glyph d="M20 72H75L124 478H69L78 550H374L365 478H301L252 72H321Q364 72 389 92.5Q414 113 421 173L424 195H510L486 0H10Z" glyph-name="L.sc" horiz-adv-x="536" /><glyph d="M234 0H15L24 77H90L155 613H90L100 690H379L465 319L641 690H923L913 613H848L782 77H848L838 0H528L538 77H600L660 562L440 91H346L240 563L181 77H243Z" glyph-name="M" horiz-adv-x="915" unicode="M" /><glyph d="M234 0H15L24 77H90L155 613H90L100 690H423L413 613H350L464 292L659 613H598L608 690H933L923 613H857L792 77H857L848 0H538L547 77H610L656 452L444 91H351L227 448L181 77H243Z" glyph-name="M.alt" horiz-adv-x="924" /><glyph d="M205 0H10L20 72H75L124 478H69L78 550H375L366 478H312L413 257L570 478H519L529 550H826L817 478H761L711 72H768L758 0H472L482 72H534L567 332L393 73H303L192 322L161 72H214Z" glyph-name="M.alt.sc" horiz-adv-x="831" /><glyph d="M205 0H10L20 72H75L124 478H69L78 550H341L417 295L554 550H820L811 478H754L705 72H761L753 0H467L475 72H528L572 430L390 73H300L204 431L161 72H214Z" glyph-name="M.sc" horiz-adv-x="824" /><glyph d="M505 -5 230 475 181 77H246L237 0H15L24 77H90L155 613H90L99 690H282L530 257L575 613H509L519 690H741L731 613H666L590 -5Z" glyph-name="N" horiz-adv-x="722" unicode="N" /><glyph d="M237 0H15L24 77H90L155 613H90L100 690H283L548 375L577 613H512L522 690H744L734 613H668L603 77H668L659 0H437L446 77H512L521 159L233 499L181 77H246Z" glyph-name="N.alt" horiz-adv-x="736" /><glyph d="M208 0H10L20 72H75L124 478H69L78 550H244L483 327L502 478H445L455 550H652L643 478H587L537 72H594L584 0H387L396 72H452L459 127L198 369L161 72H217Z" glyph-name="N.alt.sc" horiz-adv-x="657" /><glyph d="M447 -4 194 337 161 72H217L208 0H10L20 72H75L124 478H69L77 550H243L473 240L502 478H445L454 550H652L644 478H588L528 -4Z" glyph-name="N.sc" horiz-adv-x="647" /><glyph d="M505 -5 230 475 181 77H246L237 0H15L24 77H90L155 613H90L99 690H282L530 257L575 613H509L519 690H741L731 613H666L590 -5ZM486 748Q465 748 448.5 754.5Q432 761 418 769Q404 777 391.5 783.5Q379 790 366 790Q346 790 335 777.5Q324 765 322 747H269Q277 811 303.5 844.5Q330 878 377 878Q400 878 416.5 871.5Q433 865 447 857Q461 849 473.5 842.5Q486 836 499 836Q519 836 529 848Q539 860 542 878H594Q590 847 583 822.5Q576 798 564 781.5Q552 765 533.5 756.5Q515 748 486 748Z" glyph-name="Ntilde" horiz-adv-x="722" unicode="&#209;" /><glyph d="M494 735Q471 735 452.5 744Q434 753 418 763.5Q402 774 388 783Q374 792 360 792Q340 792 329.5 777.5Q319 763 316 737H255Q263 806 291.5 844.5Q320 883 374 883Q398 883 416.5 874Q435 865 451.5 854.5Q468 844 482 835Q496 826 511 826Q529 826 539 840.5Q549 855 552 881H613Q609 847 601.5 820Q594 793 580.5 774Q567 755 546.5 745Q526 735 494 735ZM237 0H15L24 77H90L155 613H90L100 690H283L548 375L577 613H512L522 690H744L734 613H668L603 77H668L659 0H437L446 77H512L521 159L233 499L181 77H246Z" glyph-name="Ntilde.alt" horiz-adv-x="736" /><glyph d="M433 576Q412 576 395 583Q378 590 363 598Q348 606 334.5 613Q321 620 309 620Q291 620 282.5 609Q274 598 271 578H213Q220 637 245 670Q270 703 321 703Q342 703 359.5 696Q377 689 392 680.5Q407 672 420.5 665Q434 658 447 658Q477 658 483 700H541Q537 671 531 648Q525 625 513 609Q501 593 481.5 584.5Q462 576 433 576ZM208 0H10L20 72H75L124 478H69L78 550H244L483 327L502 478H445L455 550H652L643 478H587L537 72H594L584 0H387L396 72H452L459 127L198 369L161 72H217Z" glyph-name="Ntilde.alt.sc" horiz-adv-x="657" /><glyph d="M424 598Q406 598 390.5 602.5Q375 607 362.5 613Q350 619 338.5 623.5Q327 628 316 628Q299 628 289.5 620Q280 612 278 598H228Q242 709 325 709Q345 709 360 704.5Q375 700 388 694Q401 688 412 683.5Q423 679 435 679Q452 679 460.5 687Q469 695 471 709H521Q514 654 495 626Q476 598 424 598ZM447 -4 194 337 161 72H217L208 0H10L20 72H75L124 478H69L77 550H243L473 240L502 478H445L454 550H652L644 478H588L528 -4Z" glyph-name="Ntilde.sc" horiz-adv-x="647" /><glyph d="M409 700Q487 700 541 674Q595 648 629.5 605.5Q664 563 679.5 508Q695 453 695 394Q695 318 672 245.5Q649 173 604 116Q559 59 491 24.5Q423 -10 333 -10Q258 -10 203.5 15.5Q149 41 113.5 83Q78 125 61.5 180.5Q45 236 45 296Q45 376 68.5 449.5Q92 523 138.5 578.5Q185 634 253 667Q321 700 409 700ZM401 618Q357 618 324.5 584.5Q292 551 270.5 498Q249 445 238.5 379.5Q228 314 228 250Q228 156 257.5 114Q287 72 341 72Q386 72 418.5 106.5Q451 141 471.5 195Q492 249 501.5 314Q511 379 511 440Q511 528 485.5 573Q460 618 401 618Z" glyph-name="O" horiz-adv-x="717" unicode="O" /><glyph d="M356 558Q425 558 474.5 537.5Q524 517 555.5 483.5Q587 450 602 406.5Q617 363 617 316Q617 252 597 193.5Q577 135 536.5 90Q496 45 435.5 18.5Q375 -8 294 -8Q226 -8 176.5 12Q127 32 94.5 66Q62 100 46.5 143.5Q31 187 31 234Q31 300 52 358.5Q73 417 114 461.5Q155 506 215.5 532Q276 558 356 558ZM348 482Q311 482 284.5 454.5Q258 427 241.5 385Q225 343 217 291.5Q209 240 209 192Q209 126 234 97Q259 68 302 68Q340 68 366 95.5Q392 123 408 165.5Q424 208 431.5 259Q439 310 439 356Q439 421 417 451.5Q395 482 348 482Z" glyph-name="O.sc" horiz-adv-x="643" /><glyph d="M409 700Q487 700 541 674Q595 648 629.5 605.5Q664 563 679.5 508Q695 453 695 394Q695 318 672 245.5Q649 173 604 116Q559 59 491 24.5Q423 -10 333 -10Q258 -10 203.5 15.5Q149 41 113.5 83Q78 125 61.5 180.5Q45 236 45 296Q45 376 68.5 449.5Q92 523 138.5 578.5Q185 634 253 667Q321 700 409 700ZM401 618Q357 618 324.5 584.5Q292 551 270.5 498Q249 445 238.5 379.5Q228 314 228 250Q228 156 257.5 114Q287 72 341 72Q386 72 418.5 106.5Q451 141 471.5 195Q492 249 501.5 314Q511 379 511 440Q511 528 485.5 573Q460 618 401 618ZM427 740H364L434 821Q457 847 483 867Q509 887 547 887Q575 887 589 875.5Q603 864 603 845Q603 824 587 807Q571 790 533 778Z" glyph-name="Oacute" horiz-adv-x="717" unicode="&#211;" /><glyph d="M409 700Q487 700 541 674Q595 648 629.5 605.5Q664 563 679.5 508Q695 453 695 394Q695 318 672 245.5Q649 173 604 116Q559 59 491 24.5Q423 -10 333 -10Q258 -10 203.5 15.5Q149 41 113.5 83Q78 125 61.5 180.5Q45 236 45 296Q45 376 68.5 449.5Q92 523 138.5 578.5Q185 634 253 667Q321 700 409 700ZM401 618Q357 618 324.5 584.5Q292 551 270.5 498Q249 445 238.5 379.5Q228 314 228 250Q228 156 257.5 114Q287 72 341 72Q386 72 418.5 106.5Q451 141 471.5 195Q492 249 501.5 314Q511 379 511 440Q511 528 485.5 573Q460 618 401 618ZM381 740 408 816Q425 865 444 886.5Q463 908 495 908Q520 908 531.5 896Q543 884 543 866Q543 828 492 782L447 740Z" glyph-name="Oacute.pl" horiz-adv-x="717" /><glyph d="M328 591 351 654Q365 691 383 709Q401 727 430 727Q455 727 465.5 716Q476 705 476 689Q476 669 464 653Q452 637 429 620L390 591ZM356 558Q425 558 474.5 537.5Q524 517 555.5 483.5Q587 450 602 406.5Q617 363 617 316Q617 252 597 193.5Q577 135 536.5 90Q496 45 435.5 18.5Q375 -8 294 -8Q226 -8 176.5 12Q127 32 94.5 66Q62 100 46.5 143.5Q31 187 31 234Q31 300 52 358.5Q73 417 114 461.5Q155 506 215.5 532Q276 558 356 558ZM348 482Q311 482 284.5 454.5Q258 427 241.5 385Q225 343 217 291.5Q209 240 209 192Q209 126 234 97Q259 68 302 68Q340 68 366 95.5Q392 123 408 165.5Q424 208 431.5 259Q439 310 439 356Q439 421 417 451.5Q395 482 348 482Z" glyph-name="Oacute.pl.sc" horiz-adv-x="643" /><glyph d="M372 591H312L373 651Q384 661 394.5 671.5Q405 682 418 691Q431 700 446.5 705.5Q462 711 481 711Q507 711 520 701Q533 691 533 676Q533 656 518 641Q503 626 467 616ZM356 558Q425 558 474.5 537.5Q524 517 555.5 483.5Q587 450 602 406.5Q617 363 617 316Q617 252 597 193.5Q577 135 536.5 90Q496 45 435.5 18.5Q375 -8 294 -8Q226 -8 176.5 12Q127 32 94.5 66Q62 100 46.5 143.5Q31 187 31 234Q31 300 52 358.5Q73 417 114 461.5Q155 506 215.5 532Q276 558 356 558ZM348 482Q311 482 284.5 454.5Q258 427 241.5 385Q225 343 217 291.5Q209 240 209 192Q209 126 234 97Q259 68 302 68Q340 68 366 95.5Q392 123 408 165.5Q424 208 431.5 259Q439 310 439 356Q439 421 417 451.5Q395 482 348 482Z" glyph-name="Oacute.sc" horiz-adv-x="643" /><glyph d="M409 700Q487 700 541 674Q595 648 629.5 605.5Q664 563 679.5 508Q695 453 695 394Q695 318 672 245.5Q649 173 604 116Q559 59 491 24.5Q423 -10 333 -10Q258 -10 203.5 15.5Q149 41 113.5 83Q78 125 61.5 180.5Q45 236 45 296Q45 376 68.5 449.5Q92 523 138.5 578.5Q185 634 253 667Q321 700 409 700ZM401 618Q357 618 324.5 584.5Q292 551 270.5 498Q249 445 238.5 379.5Q228 314 228 250Q228 156 257.5 114Q287 72 341 72Q386 72 418.5 106.5Q451 141 471.5 195Q492 249 501.5 314Q511 379 511 440Q511 528 485.5 573Q460 618 401 618ZM418 792 324 740H239L389 874H471L583 740H499Z" glyph-name="Ocircumflex" horiz-adv-x="717" unicode="&#212;" /><glyph d="M362 634 282 593H199L331 701H412L514 593H430ZM356 558Q425 558 474.5 537.5Q524 517 555.5 483.5Q587 450 602 406.5Q617 363 617 316Q617 252 597 193.5Q577 135 536.5 90Q496 45 435.5 18.5Q375 -8 294 -8Q226 -8 176.5 12Q127 32 94.5 66Q62 100 46.5 143.5Q31 187 31 234Q31 300 52 358.5Q73 417 114 461.5Q155 506 215.5 532Q276 558 356 558ZM348 482Q311 482 284.5 454.5Q258 427 241.5 385Q225 343 217 291.5Q209 240 209 192Q209 126 234 97Q259 68 302 68Q340 68 366 95.5Q392 123 408 165.5Q424 208 431.5 259Q439 310 439 356Q439 421 417 451.5Q395 482 348 482Z" glyph-name="Ocircumflex.sc" horiz-adv-x="643" /><glyph d="M409 700Q487 700 541 674Q595 648 629.5 605.5Q664 563 679.5 508Q695 453 695 394Q695 318 672 245.5Q649 173 604 116Q559 59 491 24.5Q423 -10 333 -10Q258 -10 203.5 15.5Q149 41 113.5 83Q78 125 61.5 180.5Q45 236 45 296Q45 376 68.5 449.5Q92 523 138.5 578.5Q185 634 253 667Q321 700 409 700ZM401 618Q357 618 324.5 584.5Q292 551 270.5 498Q249 445 238.5 379.5Q228 314 228 250Q228 156 257.5 114Q287 72 341 72Q386 72 418.5 106.5Q451 141 471.5 195Q492 249 501.5 314Q511 379 511 440Q511 528 485.5 573Q460 618 401 618ZM603 823Q603 791 581 768Q559 745 522 745Q492 745 474.5 763.5Q457 782 457 808Q457 840 479.5 863Q502 886 537 886Q569 886 586 867.5Q603 849 603 823ZM400 823Q400 791 377.5 768Q355 745 319 745Q288 745 271 763.5Q254 782 254 808Q254 840 276.5 863Q299 886 334 886Q366 886 383 867.5Q400 849 400 823Z" glyph-name="Odieresis" horiz-adv-x="717" unicode="&#214;" /><glyph d="M535 671Q535 641 514 621Q493 601 458 601Q429 601 412.5 616Q396 631 396 656Q396 686 417.5 705.5Q439 725 473 725Q502 725 518.5 709.5Q535 694 535 671ZM349 671Q349 641 328 621Q307 601 273 601Q244 601 227.5 616Q211 631 211 656Q211 686 232 705.5Q253 725 287 725Q316 725 332.5 709.5Q349 694 349 671ZM356 558Q425 558 474.5 537.5Q524 517 555.5 483.5Q587 450 602 406.5Q617 363 617 316Q617 252 597 193.5Q577 135 536.5 90Q496 45 435.5 18.5Q375 -8 294 -8Q226 -8 176.5 12Q127 32 94.5 66Q62 100 46.5 143.5Q31 187 31 234Q31 300 52 358.5Q73 417 114 461.5Q155 506 215.5 532Q276 558 356 558ZM348 482Q311 482 284.5 454.5Q258 427 241.5 385Q225 343 217 291.5Q209 240 209 192Q209 126 234 97Q259 68 302 68Q340 68 366 95.5Q392 123 408 165.5Q424 208 431.5 259Q439 310 439 356Q439 421 417 451.5Q395 482 348 482Z" glyph-name="Odieresis.sc" horiz-adv-x="643" /><glyph d="M409 700Q487 700 541 674Q595 648 629.5 605.5Q664 563 679.5 508Q695 453 695 394Q695 318 672 245.5Q649 173 604 116Q559 59 491 24.5Q423 -10 333 -10Q258 -10 203.5 15.5Q149 41 113.5 83Q78 125 61.5 180.5Q45 236 45 296Q45 376 68.5 449.5Q92 523 138.5 578.5Q185 634 253 667Q321 700 409 700ZM401 618Q357 618 324.5 584.5Q292 551 270.5 498Q249 445 238.5 379.5Q228 314 228 250Q228 156 257.5 114Q287 72 341 72Q386 72 418.5 106.5Q451 141 471.5 195Q492 249 501.5 314Q511 379 511 440Q511 528 485.5 573Q460 618 401 618ZM314 778Q280 789 264.5 806Q249 823 249 842Q249 861 264.5 874Q280 887 309 887Q348 887 371 867Q394 847 416 821L481 740H418Z" glyph-name="Ograve" horiz-adv-x="717" unicode="&#210;" /><glyph d="M269 616Q238 624 223 639.5Q208 655 208 672Q208 688 221.5 699.5Q235 711 264 711Q283 711 297.5 705.5Q312 700 324 691Q336 682 345.5 671.5Q355 661 365 651L424 591H364ZM356 558Q425 558 474.5 537.5Q524 517 555.5 483.5Q587 450 602 406.5Q617 363 617 316Q617 252 597 193.5Q577 135 536.5 90Q496 45 435.5 18.5Q375 -8 294 -8Q226 -8 176.5 12Q127 32 94.5 66Q62 100 46.5 143.5Q31 187 31 234Q31 300 52 358.5Q73 417 114 461.5Q155 506 215.5 532Q276 558 356 558ZM348 482Q311 482 284.5 454.5Q258 427 241.5 385Q225 343 217 291.5Q209 240 209 192Q209 126 234 97Q259 68 302 68Q340 68 366 95.5Q392 123 408 165.5Q424 208 431.5 259Q439 310 439 356Q439 421 417 451.5Q395 482 348 482Z" glyph-name="Ograve.sc" horiz-adv-x="643" /><glyph d="M229 250Q229 242 229 234Q229 226 230 218L497 550Q471 618 402 618Q358 618 325.5 584.5Q293 551 271.5 498Q250 445 239.5 379.5Q229 314 229 250ZM342 72Q387 72 419.5 106.5Q452 141 472.5 195Q493 249 502.5 314Q512 379 512 440Q512 446 512 452Q512 458 511 464L248 135Q276 72 342 72ZM334 -10Q283 -10 241.5 2Q200 14 168 35L109 -38H25L118 79Q81 121 63.5 177.5Q46 234 46 296Q46 376 69.5 449.5Q93 523 139.5 578.5Q186 634 254 667Q322 700 410 700Q464 700 505.5 688Q547 676 579 653L640 729H724L628 609Q663 566 679.5 510Q696 454 696 394Q696 318 673 245.5Q650 173 605 116Q560 59 492 24.5Q424 -10 334 -10Z" glyph-name="Oslash" horiz-adv-x="719" unicode="&#216;" /><glyph d="M429 431Q409 482 348 482Q310 482 283.5 455Q257 428 240.5 385Q224 342 216.5 289.5Q209 237 209 187ZM303 68Q341 68 367 95.5Q393 123 409 165.5Q425 208 432.5 259Q440 310 440 356L223 115Q247 68 303 68ZM295 -8Q249 -8 211.5 1.5Q174 11 144 28L92 -30H13L98 64Q64 98 48 142Q32 186 32 234Q32 300 53 358.5Q74 417 114.5 461.5Q155 506 216 532Q277 558 356 558Q404 558 442.5 548Q481 538 510 521L564 581H643L556 484Q588 450 602.5 406.5Q617 363 617 316Q617 252 597 193.5Q577 135 536.5 90Q496 45 436 18.5Q376 -8 295 -8Z" glyph-name="Oslash.sc" horiz-adv-x="644" /><glyph d="M409 700Q487 700 541 674Q595 648 629.5 605.5Q664 563 679.5 508Q695 453 695 394Q695 318 672 245.5Q649 173 604 116Q559 59 491 24.5Q423 -10 333 -10Q258 -10 203.5 15.5Q149 41 113.5 83Q78 125 61.5 180.5Q45 236 45 296Q45 376 68.5 449.5Q92 523 138.5 578.5Q185 634 253 667Q321 700 409 700ZM401 618Q357 618 324.5 584.5Q292 551 270.5 498Q249 445 238.5 379.5Q228 314 228 250Q228 156 257.5 114Q287 72 341 72Q386 72 418.5 106.5Q451 141 471.5 195Q492 249 501.5 314Q511 379 511 440Q511 528 485.5 573Q460 618 401 618ZM477 748Q456 748 439.5 754.5Q423 761 409 769Q395 777 382.5 783.5Q370 790 357 790Q337 790 326 777.5Q315 765 313 747H260Q268 811 294.5 844.5Q321 878 368 878Q391 878 407.5 871.5Q424 865 438 857Q452 849 464.5 842.5Q477 836 490 836Q510 836 520 848Q530 860 533 878H585Q581 847 574 822.5Q567 798 555 781.5Q543 765 524.5 756.5Q506 748 477 748Z" glyph-name="Otilde" horiz-adv-x="717" unicode="&#213;" /><glyph d="M415 598Q397 598 381.5 602.5Q366 607 353.5 613Q341 619 329.5 623.5Q318 628 307 628Q290 628 280.5 620Q271 612 269 598H219Q233 709 316 709Q336 709 351 704.5Q366 700 378.5 694Q391 688 402 683.5Q413 679 425 679Q443 679 452 687Q461 695 463 709H512Q505 654 486 626Q467 598 415 598ZM356 558Q425 558 474.5 537.5Q524 517 555.5 483.5Q587 450 602 406.5Q617 363 617 316Q617 252 597 193.5Q577 135 536.5 90Q496 45 435.5 18.5Q375 -8 294 -8Q226 -8 176.5 12Q127 32 94.5 66Q62 100 46.5 143.5Q31 187 31 234Q31 300 52 358.5Q73 417 114 461.5Q155 506 215.5 532Q276 558 356 558ZM348 482Q311 482 284.5 454.5Q258 427 241.5 385Q225 343 217 291.5Q209 240 209 192Q209 126 234 97Q259 68 302 68Q340 68 366 95.5Q392 123 408 165.5Q424 208 431.5 259Q439 310 439 356Q439 421 417 451.5Q395 482 348 482Z" glyph-name="Otilde.sc" horiz-adv-x="643" /><glyph d="M24 77H90L155 613H90L100 690H391Q466 690 519.5 675.5Q573 661 607.5 635.5Q642 610 658 575Q674 540 674 500Q674 453 653.5 411Q633 369 592 338Q551 307 490 289Q429 271 348 271H295L272 77H347L338 0H15ZM337 613 304 348H345Q415 348 451 391Q487 434 487 502Q487 554 460.5 583.5Q434 613 376 613Z" glyph-name="P" horiz-adv-x="658" unicode="P" /><glyph d="M20 72H75L124 478H69L78 550H353Q422 550 470.5 538Q519 526 549.5 505Q580 484 594 456Q608 428 608 396Q608 314 536 262Q464 210 319 210H269L252 72H318L308 0H10ZM301 478 278 282H314Q371 282 399 313.5Q427 345 427 397Q427 478 338 478Z" glyph-name="P.sc" horiz-adv-x="604" /><glyph d="M507 -111Q450 -111 422 -84.5Q394 -58 382 -7Q358 -10 333 -10Q258 -10 203.5 15.5Q149 41 113.5 83Q78 125 61.5 180.5Q45 236 45 296Q45 376 68.5 449.5Q92 523 138.5 578.5Q185 634 253 667Q321 700 409 700Q487 700 541 674Q595 648 629.5 605.5Q664 563 679.5 508Q695 453 695 394Q695 337 682 281Q669 225 643.5 176.5Q618 128 579.5 88.5Q541 49 490 24Q495 -8 503 -21Q511 -34 527 -34Q547 -34 557.5 -17Q568 0 574 48H642Q638 15 629 -14Q620 -43 604.5 -64.5Q589 -86 565 -98.5Q541 -111 507 -111ZM347 251Q390 251 417.5 233Q445 215 462 173Q488 229 499.5 300.5Q511 372 511 440Q511 528 485.5 573Q460 618 401 618Q357 618 324.5 584.5Q292 551 270.5 498Q249 445 238.5 379.5Q228 314 228 250Q228 232 229.5 216Q231 200 233 186Q250 215 277.5 233Q305 251 347 251ZM341 72Q358 72 370 76Q365 132 354.5 156Q344 180 313 180Q295 180 279 164.5Q263 149 260 112Q288 72 341 72Z" glyph-name="Q" horiz-adv-x="718" unicode="Q" /><glyph d="M490 -127Q436 -127 406.5 -97.5Q377 -68 373 -8Q363 -9 353.5 -9.5Q344 -10 333 -10Q258 -10 203.5 15.5Q149 41 113.5 83Q78 125 61.5 180.5Q45 236 45 296Q45 376 68.5 449.5Q92 523 138.5 578.5Q185 634 253 667Q321 700 409 700Q487 700 541 674Q595 648 629.5 605.5Q664 563 679.5 508Q695 453 695 394Q695 336 681.5 279.5Q668 223 641.5 173.5Q615 124 575 84.5Q535 45 482 21Q484 -18 490.5 -34Q497 -50 514 -50Q534 -50 546.5 -29.5Q559 -9 566 48H632Q628 12 619 -20Q610 -52 593.5 -75.5Q577 -99 552 -113Q527 -127 490 -127ZM353 296Q407 296 434.5 268.5Q462 241 473 199Q493 253 502 316.5Q511 380 511 440Q511 528 485.5 573Q460 618 401 618Q357 618 324.5 584.5Q292 551 270.5 498Q249 445 238.5 379.5Q228 314 228 250Q228 237 228.5 225.5Q229 214 230 203Q244 245 276.5 270.5Q309 296 353 296ZM285 141Q285 108 299.5 90Q314 72 342 72Q356 72 373 77Q373 106 372 131Q371 156 367 174Q363 192 354.5 202Q346 212 331 212Q310 212 297.5 192Q285 172 285 141Z" glyph-name="Q.alt" horiz-adv-x="717" /><glyph d="M439 -94Q394 -94 366.5 -73Q339 -52 334 -6Q324 -7 314.5 -7.5Q305 -8 294 -8Q226 -8 176.5 12Q127 32 94.5 66Q62 100 46.5 143.5Q31 187 31 234Q31 300 52 358.5Q73 417 114 461.5Q155 506 215.5 532Q276 558 356 558Q425 558 474.5 537.5Q524 517 555.5 483.5Q587 450 602 406.5Q617 363 617 316Q617 268 605.5 222.5Q594 177 571 138Q548 99 514 68Q480 37 434 18Q436 -8 442 -16Q448 -24 462 -24Q479 -24 489.5 -9Q500 6 505 46H568Q565 18 557 -7Q549 -32 534 -51.5Q519 -71 496 -82.5Q473 -94 439 -94ZM313 249Q355 249 379 231.5Q403 214 415 187Q428 226 433.5 270.5Q439 315 439 356Q439 421 417 451.5Q395 482 348 482Q311 482 284.5 454.5Q258 427 241.5 385Q225 343 217 291.5Q209 240 209 192V189Q224 216 251 232.5Q278 249 313 249ZM252 119Q252 95 265 81.5Q278 68 303 68Q318 68 333 74Q333 96 332.5 114.5Q332 133 328.5 146.5Q325 160 316.5 167.5Q308 175 293 175Q272 175 262 158.5Q252 142 252 119Z" glyph-name="Q.alt.sc" horiz-adv-x="643" /><glyph d="M452 -88Q402 -88 376 -67Q350 -46 339 -6Q328 -7 317 -7.5Q306 -8 294 -8Q226 -8 176.5 12Q127 32 94.5 66Q62 100 46.5 143.5Q31 187 31 234Q31 300 52 358.5Q73 417 114 461.5Q155 506 215.5 532Q276 558 356 558Q425 558 474.5 537.5Q524 517 555.5 483.5Q587 450 602 406.5Q617 363 617 316Q617 269 606 224.5Q595 180 573.5 141.5Q552 103 519 72.5Q486 42 442 22Q447 -4 454.5 -12Q462 -20 473 -20Q490 -20 499 -5.5Q508 9 513 46H578Q570 -15 540.5 -51.5Q511 -88 452 -88ZM209 192Q209 184 209.5 176Q210 168 211 161Q224 183 248 197.5Q272 212 308 212Q378 212 407 164Q424 207 431.5 258Q439 309 439 356Q439 421 417 451.5Q395 482 348 482Q311 482 284.5 454.5Q258 427 241.5 385Q225 343 217 291.5Q209 240 209 192Z" glyph-name="Q.sc" horiz-adv-x="643" /><glyph d="M726 159Q721 120 711 89Q701 58 683 36Q665 14 637.5 2Q610 -10 570 -10Q528 -10 499 0.5Q470 11 451.5 34Q433 57 424 93Q415 129 413 179Q412 211 408.5 234.5Q405 258 397 274Q389 290 374.5 298Q360 306 336 306H299L272 77H330L320 0H14L24 77H90L155 613H90L99 690H405Q544 690 608 646.5Q672 603 672 525Q672 491 659 460Q646 429 618.5 404.5Q591 380 549 363.5Q507 347 449 341Q488 332 514 319Q540 306 556 285.5Q572 265 580 236Q588 207 589 166Q591 112 597 94.5Q603 77 619 77Q636 77 644.5 97Q653 117 658 159ZM337 613 307 371H347Q383 371 409.5 382.5Q436 394 454 413.5Q472 433 481 457.5Q490 482 490 508Q490 613 377 613Z" glyph-name="R" horiz-adv-x="715" unicode="R" /><glyph d="M658 132Q654 100 645 74Q636 48 619.5 30Q603 12 577.5 2Q552 -8 515 -8Q439 -8 405.5 29Q372 66 366 155Q363 198 352 217Q341 236 306 236H272L252 72H302L292 0H9L20 72H75L124 478H69L77 550H360Q488 550 548 515Q608 480 608 417Q608 362 559.5 320.5Q511 279 404 271Q440 264 464.5 253.5Q489 243 504.5 227Q520 211 528 188Q536 165 538 133Q540 100 545 87Q550 74 564 74Q578 74 584 89.5Q590 105 594 132ZM301 478 279 296H315Q372 296 401.5 327Q431 358 431 401Q431 438 407.5 458Q384 478 339 478Z" glyph-name="R.sc" horiz-adv-x="652" /><glyph d="M372 165Q372 209 343 236Q314 263 248 289Q168 321 125 365Q82 409 82 483Q82 536 102 576.5Q122 617 155.5 644.5Q189 672 234 686Q279 700 329 700Q373 700 413 690Q453 680 486 654L522 700H601L572 460H482Q482 538 454.5 578Q427 618 366 618Q315 618 290.5 588.5Q266 559 266 520Q266 471 300 444Q334 417 401 393Q433 381 461.5 365.5Q490 350 511 327.5Q532 305 544 275.5Q556 246 556 205Q556 160 541.5 120.5Q527 81 498.5 52Q470 23 426.5 6.5Q383 -10 324 -10Q269 -10 224 1Q179 12 136 41L97 -10H16L46 233H136Q136 194 146.5 164Q157 134 175.5 113.5Q194 93 218.5 82.5Q243 72 270 72Q299 72 318.5 80Q338 88 350 101Q362 114 367 130.5Q372 147 372 165Z" glyph-name="S" horiz-adv-x="606" unicode="S" /><glyph d="M501 169Q501 131 488.5 98.5Q476 66 450.5 42.5Q425 19 386 5.5Q347 -8 294 -8Q242 -8 201 1Q160 10 122 33L89 -8H10L34 190H120Q123 132 155.5 100Q188 68 239 68Q284 68 302.5 87Q321 106 321 132Q321 163 295 182.5Q269 202 212 222Q139 249 100.5 285Q62 321 62 384Q62 426 80 458Q98 490 128 512.5Q158 535 198 546.5Q238 558 283 558Q318 558 355.5 551.5Q393 545 427 520L459 558H536L512 363H426Q426 425 399 453.5Q372 482 324 482Q282 482 262 462Q242 442 242 414Q242 379 272 358.5Q302 338 362 318Q390 309 415 297Q440 285 459 268Q478 251 489.5 226.5Q501 202 501 169Z" glyph-name="S.sc" horiz-adv-x="550" /><glyph d="M144 77H219L285 614H259Q229 614 209 608.5Q189 603 175.5 588.5Q162 574 154.5 550Q147 526 142 489L138 457H48L77 690H693L664 457H574L578 489Q583 527 581 551Q579 575 569.5 589Q560 603 541 608.5Q522 614 492 614H467L401 77H476L466 0H134Z" glyph-name="T" horiz-adv-x="663" unicode="T" /><glyph d="M125 72H190L240 479H220Q195 479 178.5 474.5Q162 470 151 458.5Q140 447 133.5 428.5Q127 410 123 383L119 353H33L57 550H617L592 353H506L510 383Q518 440 502.5 459.5Q487 479 439 479H417L367 72H431L422 0H116Z" glyph-name="T.sc" horiz-adv-x="602" /><glyph d="M329 0H14L23 77H90L155 613H89L99 690H414L404 613H338L332 562H366Q512 562 584 513.5Q656 465 656 377Q656 325 633.5 282Q611 239 568 208Q525 177 462.5 159.5Q400 142 321 142H280L272 77H338ZM322 485 289 219H317Q389 219 428.5 261.5Q468 304 468 376Q468 430 437.5 457.5Q407 485 350 485Z" glyph-name="Thorn" horiz-adv-x="661" unicode="&#222;" /><glyph d="M300 0H9L19 72H75L124 478H68L77 550H368L359 478H302L299 447H328Q464 447 529 406.5Q594 366 594 297Q594 257 574 222.5Q554 188 515.5 162.5Q477 137 421 123Q365 109 294 109H256L252 72H309ZM289 375 266 182H288Q348 182 380 213Q412 244 412 297Q412 335 385 355Q358 375 312 375Z" glyph-name="Thorn.sc" horiz-adv-x="605" /><glyph d="M593 240Q578 116 517.5 53Q457 -10 345 -10Q205 -10 142.5 58.5Q80 127 96 257L140 613H74L84 690H391L381 613H322L275 236Q264 153 288.5 113.5Q313 74 371 74Q429 74 460 115Q491 156 502 239L547 613H488L497 690H713L704 613H638Z" glyph-name="U" horiz-adv-x="690" unicode="U" /><glyph d="M526 190Q514 96 462 44Q410 -8 306 -8Q179 -8 122 52.5Q65 113 78 218L110 478H54L63 550H346L337 478H287L251 185Q245 129 263.5 99Q282 69 333 69Q385 69 408.5 98Q432 127 439 187L475 478H425L434 550H626L617 478H561Z" glyph-name="U.sc" horiz-adv-x="617" /><glyph d="M593 240Q578 116 517.5 53Q457 -10 345 -10Q205 -10 142.5 58.5Q80 127 96 257L140 613H74L84 690H391L381 613H322L275 236Q264 153 288.5 113.5Q313 74 371 74Q429 74 460 115Q491 156 502 239L547 613H488L497 690H713L704 613H638ZM453 740H390L460 821Q483 847 509 867Q535 887 573 887Q601 887 615 875.5Q629 864 629 845Q629 824 613 807Q597 790 559 778Z" glyph-name="Uacute" horiz-adv-x="690" unicode="&#218;" /><glyph d="M396 591H336L397 651Q408 661 418.5 671.5Q429 682 442 691Q455 700 470.5 705.5Q486 711 505 711Q531 711 544 701Q557 691 557 676Q557 656 542 641Q527 626 491 616ZM526 190Q514 96 462 44Q410 -8 306 -8Q179 -8 122 52.5Q65 113 78 218L110 478H54L63 550H346L337 478H287L251 185Q245 129 263.5 99Q282 69 333 69Q385 69 408.5 98Q432 127 439 187L475 478H425L434 550H626L617 478H561Z" glyph-name="Uacute.sc" horiz-adv-x="617" /><glyph d="M593 240Q578 116 517.5 53Q457 -10 345 -10Q205 -10 142.5 58.5Q80 127 96 257L140 613H74L84 690H391L381 613H322L275 236Q264 153 288.5 113.5Q313 74 371 74Q429 74 460 115Q491 156 502 239L547 613H488L497 690H713L704 613H638ZM447 792 353 740H268L418 874H500L612 740H528Z" glyph-name="Ucircumflex" horiz-adv-x="690" unicode="&#219;" /><glyph d="M391 634 311 593H228L361 701H442L543 593H460ZM526 190Q514 96 462 44Q410 -8 306 -8Q179 -8 122 52.5Q65 113 78 218L110 478H54L63 550H346L337 478H287L251 185Q245 129 263.5 99Q282 69 333 69Q385 69 408.5 98Q432 127 439 187L475 478H425L434 550H626L617 478H561Z" glyph-name="Ucircumflex.sc" horiz-adv-x="617" /><glyph d="M593 240Q578 116 517.5 53Q457 -10 345 -10Q205 -10 142.5 58.5Q80 127 96 257L140 613H74L84 690H391L381 613H322L275 236Q264 153 288.5 113.5Q313 74 371 74Q429 74 460 115Q491 156 502 239L547 613H488L497 690H713L704 613H638ZM612 823Q612 791 590 768Q568 745 531 745Q501 745 483.5 763.5Q466 782 466 808Q466 840 488.5 863Q511 886 546 886Q578 886 595 867.5Q612 849 612 823ZM409 823Q409 791 386.5 768Q364 745 328 745Q297 745 280 763.5Q263 782 263 808Q263 840 285.5 863Q308 886 343 886Q375 886 392 867.5Q409 849 409 823Z" glyph-name="Udieresis" horiz-adv-x="690" unicode="&#220;" /><glyph d="M544 669Q544 639 523 618.5Q502 598 467 598Q438 598 422 613.5Q406 629 406 653Q406 684 427 703.5Q448 723 482 723Q511 723 527.5 707.5Q544 692 544 669ZM358 669Q358 639 337 618.5Q316 598 282 598Q253 598 237 613.5Q221 629 221 653Q221 683 242 703Q263 723 296 723Q325 723 341.5 707.5Q358 692 358 669ZM526 190Q514 96 462 44Q410 -8 306 -8Q179 -8 122 52.5Q65 113 78 218L110 478H54L63 550H346L337 478H287L251 185Q245 129 263.5 99Q282 69 333 69Q385 69 408.5 98Q432 127 439 187L475 478H425L434 550H626L617 478H561Z" glyph-name="Udieresis.sc" horiz-adv-x="617" /><glyph d="M593 240Q578 116 517.5 53Q457 -10 345 -10Q205 -10 142.5 58.5Q80 127 96 257L140 613H74L84 690H391L381 613H322L275 236Q264 153 288.5 113.5Q313 74 371 74Q429 74 460 115Q491 156 502 239L547 613H488L497 690H713L704 613H638ZM323 778Q289 789 273.5 806Q258 823 258 842Q258 861 273.5 874Q289 887 318 887Q357 887 380 867Q403 847 425 821L490 740H427Z" glyph-name="Ugrave" horiz-adv-x="690" unicode="&#217;" /><glyph d="M279 616Q249 624 234 639.5Q219 655 218 672Q218 688 232 699.5Q246 711 274 711Q293 711 307.5 705.5Q322 700 334 691Q346 682 356 671.5Q366 661 376 651L434 591H375ZM526 190Q514 96 462 44Q410 -8 306 -8Q179 -8 122 52.5Q65 113 78 218L110 478H54L63 550H346L337 478H287L251 185Q245 129 263.5 99Q282 69 333 69Q385 69 408.5 98Q432 127 439 187L475 478H425L434 550H626L617 478H561Z" glyph-name="Ugrave.sc" horiz-adv-x="617" /><glyph d="M625 613 380 0H202L103 613H43L53 690H351L341 613H282L355 150L539 613H484L494 690H693L683 613Z" glyph-name="V" horiz-adv-x="642" unicode="V" /><glyph d="M550 478 347 0H171L82 478H28L37 550H312L303 478H256L317 115L469 478H424L434 550H611L601 478Z" glyph-name="V.sc" horiz-adv-x="577" /><glyph d="M489 462 330 0H152L110 613H51L61 690H338L328 613H278L310 152L494 690H622L670 145L818 613H768L778 690H967L957 613H903L709 0H532Z" glyph-name="W" horiz-adv-x="924" unicode="W" /><glyph d="M485 347 347 0H167L104 613H45L55 690H325L315 613H273L324 123L465 477L445 613H388L398 690H729L719 613H599L672 124L840 613H793L803 690H978L969 613H921L712 0H536Z" glyph-name="W.alt" horiz-adv-x="939" /><glyph d="M426 285 310 0H136L81 478H30L39 550H289L280 478H245L289 113L407 402L395 478H342L352 550H642L633 478H543L602 114L733 478H696L705 550H863L854 478H812L642 0H471Z" glyph-name="W.alt.sc" horiz-adv-x="839" /><glyph d="M423 340 296 0H123L81 478H30L40 550H295L286 478H245L276 133L428 550H552L599 130L717 478H676L685 550H853L843 478H797L637 0H465Z" glyph-name="W.sc" horiz-adv-x="822" /><glyph d="M-16 0 -6 77H51L261 332L104 613H58L68 690H368L358 613H303L395 442L533 613H481L491 690H698L687 613H634L435 375L603 77H650L641 0H340L349 77H403L303 264L152 77H212L202 0Z" glyph-name="X" horiz-adv-x="673" unicode="X" /><glyph d="M189 0H-14L-5 72H45L229 263L84 478H43L53 550H335L325 478H277L359 354L471 478H426L436 550H628L618 478H570L398 298L552 72H594L584 0H300L309 72H358L270 208L146 72H198Z" glyph-name="X.sc" horiz-adv-x="621" /><glyph d="M454 0H141L151 77H216L242 282L89 613H38L48 690H349L339 613H280L388 379L542 613H486L496 690H696L686 613H640L425 291L398 77H463Z" glyph-name="Y" horiz-adv-x="650" unicode="Y" /><glyph d="M411 0H126L135 72H189L208 221L68 478H23L33 550H315L306 478H261L351 312L477 478H429L439 550H620L611 478H570L386 228L366 72H420Z" glyph-name="Y.sc" horiz-adv-x="591" /><glyph d="M454 0H141L151 77H216L242 282L89 613H38L48 690H349L339 613H280L388 379L542 613H486L496 690H696L686 613H640L425 291L398 77H463ZM427 740H364L434 821Q457 847 483 867Q509 887 547 887Q575 887 589 875.5Q603 864 603 845Q603 824 587 807Q571 790 533 778Z" glyph-name="Yacute" horiz-adv-x="650" unicode="&#221;" /><glyph d="M378 591H318L379 651Q400 671 424.5 691Q449 711 487 711Q513 711 526 701Q539 691 539 676Q539 656 524 641Q509 626 474 616ZM411 0H126L135 72H189L208 221L68 478H23L33 550H315L306 478H261L351 312L477 478H429L439 550H620L611 478H570L386 228L366 72H420Z" glyph-name="Yacute.sc" horiz-adv-x="591" /><glyph d="M8 0 16 63 404 613H302Q268 613 243.5 608.5Q219 604 203.5 591.5Q188 579 179 555Q170 531 165 492L160 454H70L100 690H601L593 627L205 77H337Q373 77 395 83.5Q417 90 429.5 105Q442 120 448 145Q454 170 459 208L463 240H553L523 0Z" glyph-name="Z" horiz-adv-x="593" unicode="Z" /><glyph d="M10 0 18 63 430 563H290Q256 563 233 558Q210 553 195.5 540Q181 527 173.5 505.5Q166 484 162 451L157 414H68L102 690H607L599 627L187 127H358Q391 127 411 134Q431 141 442.5 156Q454 171 459.5 194Q465 217 470 248L475 281H564L529 0Z" glyph-name="Z.alt" horiz-adv-x="603" /><glyph d="M5 0 13 57 356 429H250Q220 429 200 425.5Q180 422 167.5 412Q155 402 148.5 384.5Q142 367 139 338L135 311H50L79 550H537L529 493L186 121H314Q343 121 361.5 126.5Q380 132 391 144Q402 156 407.5 174.5Q413 193 416 219L420 244H506L475 0Z" glyph-name="Z.alt.sc" horiz-adv-x="543" /><glyph d="M2 0 10 57 336 478H259Q229 478 209 474.5Q189 471 175.5 461Q162 451 155 433Q148 415 143 386L139 357H52L77 550H532L524 493L199 72H297Q329 72 348.5 77.5Q368 83 379.5 95.5Q391 108 396.5 127Q402 146 406 173L409 197H495L471 0Z" glyph-name="Z.sc" horiz-adv-x="535" /><glyph d="M494 -10Q444 -10 412 13.5Q380 37 372 82Q350 41 313 15.5Q276 -10 213 -10Q178 -10 145 4Q112 18 86.5 46Q61 74 45.5 116Q30 158 30 214Q30 274 46 330Q62 386 93 429.5Q124 473 169 499Q214 525 271 525Q325 525 356.5 501Q388 477 402 435L433 511H578L529 115Q524 78 548 78Q562 78 572 98.5Q582 119 589 166H653Q642 81 606 35.5Q570 -10 494 -10ZM310 442Q285 442 266 421Q247 400 234.5 365Q222 330 215.5 284Q209 238 209 188Q209 134 224.5 103.5Q240 73 271 73Q311 73 334.5 120Q358 167 369 253Q369 255 370 260.5Q371 266 371 268Q389 442 310 442Z" glyph-name="a" horiz-adv-x="660" unicode="a" /><glyph d="M494 -10Q444 -10 412 13.5Q380 37 372 82Q350 41 313 15.5Q276 -10 213 -10Q178 -10 145 4Q112 18 86.5 46Q61 74 45.5 116Q30 158 30 214Q30 274 46 330Q62 386 93 429.5Q124 473 169 499Q214 525 271 525Q325 525 356.5 501Q388 477 402 435L433 511H578L529 115Q524 78 548 78Q562 78 572 98.5Q582 119 589 166H653Q642 81 606 35.5Q570 -10 494 -10ZM310 442Q285 442 266 421Q247 400 234.5 365Q222 330 215.5 284Q209 238 209 188Q209 134 224.5 103.5Q240 73 271 73Q311 73 334.5 120Q358 167 369 253Q369 255 370 260.5Q371 266 371 268Q389 442 310 442ZM311 613 375 698Q413 748 445 764Q477 780 510 780Q546 780 559.5 767Q573 754 572 735Q571 713 548 693.5Q525 674 460 648L368 613Z" glyph-name="aacute" horiz-adv-x="659" unicode="&#225;" /><glyph d="M494 -10Q444 -10 412 13.5Q380 37 372 82Q350 41 313 15.5Q276 -10 213 -10Q178 -10 145 4Q112 18 86.5 46Q61 74 45.5 116Q30 158 30 214Q30 274 46 330Q62 386 93 429.5Q124 473 169 499Q214 525 271 525Q325 525 356.5 501Q388 477 402 435L433 511H578L529 115Q524 78 548 78Q562 78 572 98.5Q582 119 589 166H653Q642 81 606 35.5Q570 -10 494 -10ZM310 442Q285 442 266 421Q247 400 234.5 365Q222 330 215.5 284Q209 238 209 188Q209 134 224.5 103.5Q240 73 271 73Q311 73 334.5 120Q358 167 369 253Q369 255 370 260.5Q371 266 371 268Q389 442 310 442ZM179 613 367 787H418L558 613H482L381 688L255 613Z" glyph-name="acircumflex" horiz-adv-x="659" unicode="&#226;" /><glyph d="M98 613 162 698Q200 748 232 764Q264 780 297 780Q333 780 346.5 767Q360 754 359 735Q358 713 335 693.5Q312 674 247 648L155 613Z" glyph-name="acute" horiz-adv-x="362" unicode="&#180;" /><glyph d="M167 740H104L174 821Q197 847 223 867Q249 887 287 887Q315 887 329 875.5Q343 864 343 845Q343 824 327 807Q311 790 273 778Z" glyph-name="acute.cap" horiz-adv-x="348" /><glyph d="M106 601 124 670Q141 736 166.5 763.5Q192 791 233 791Q263 791 276.5 776.5Q290 762 290 739Q290 721 272.5 696Q255 671 211 638L164 601Z" glyph-name="acute.pl" horiz-adv-x="291" /><glyph d="M120 737 147 813Q164 862 183 883.5Q202 905 234 905Q259 905 270.5 893Q282 881 282 863Q282 825 231 779L186 737Z" glyph-name="acute.uc.pl" horiz-adv-x="273" /><glyph d="M494 -10Q444 -10 412 13.5Q380 37 372 82Q350 41 313 15.5Q276 -10 213 -10Q178 -10 145 4Q112 18 86.5 46Q61 74 45.5 116Q30 158 30 214Q30 274 46 330Q62 386 93 429.5Q124 473 169 499Q214 525 271 525Q325 525 356.5 501Q388 477 402 435L433 511H578L529 115Q524 78 548 78Q562 78 572 98.5Q582 119 589 166H653Q642 81 606 35.5Q570 -10 494 -10ZM310 442Q285 442 266 421Q247 400 234.5 365Q222 330 215.5 284Q209 238 209 188Q209 134 224.5 103.5Q240 73 271 73Q311 73 334.5 120Q358 167 369 253Q369 255 370 260.5Q371 266 371 268Q389 442 310 442ZM554 696Q554 658 528.5 632.5Q503 607 463 607Q428 607 409.5 627Q391 647 391 675Q391 714 416.5 739.5Q442 765 481 765Q517 765 535.5 744.5Q554 724 554 696ZM336 696Q336 658 310.5 632.5Q285 607 245 607Q210 607 191.5 627Q173 647 173 675Q173 714 198.5 739.5Q224 765 264 765Q299 765 317.5 744.5Q336 724 336 696Z" glyph-name="adieresis" horiz-adv-x="659" unicode="&#228;" /><glyph d="M601 -10Q531 -10 481 20Q431 50 407 104Q385 56 342.5 23Q300 -10 226 -10Q134 -10 82.5 48.5Q31 107 30 212Q30 274 46.5 330.5Q63 387 94 430.5Q125 474 170 499.5Q215 525 271 525Q320 525 353.5 507Q387 489 405 455L431 512H500L492 453Q524 488 569 506.5Q614 525 667 525Q758 525 809.5 486.5Q861 448 861 382Q861 333 832.5 301Q804 269 758.5 249.5Q713 230 656.5 222Q600 214 544 214Q543 209 543 204Q543 199 543 194Q543 135 570.5 104.5Q598 74 649 74Q698 74 728 101.5Q758 129 777 172L839 150Q827 117 807.5 88Q788 59 759.5 37.5Q731 16 692 3Q653 -10 601 -10ZM644 455Q624 455 607.5 440.5Q591 426 579 400.5Q567 375 559 341.5Q551 308 547 270Q616 274 653 305.5Q690 337 690 394Q690 420 680 437.5Q670 455 644 455ZM275 77Q312 77 334 115Q356 153 369 225Q371 233 372.5 245.5Q374 258 375 268Q385 353 368.5 395.5Q352 438 315 438Q289 438 269.5 417.5Q250 397 237 362.5Q224 328 217.5 282.5Q211 237 211 186Q211 133 227 105Q243 77 275 77Z" glyph-name="ae" horiz-adv-x="880" unicode="&#230;" /><glyph d="M494 -10Q444 -10 412 13.5Q380 37 372 82Q350 41 313 15.5Q276 -10 213 -10Q178 -10 145 4Q112 18 86.5 46Q61 74 45.5 116Q30 158 30 214Q30 274 46 330Q62 386 93 429.5Q124 473 169 499Q214 525 271 525Q325 525 356.5 501Q388 477 402 435L433 511H578L529 115Q524 78 548 78Q562 78 572 98.5Q582 119 589 166H653Q642 81 606 35.5Q570 -10 494 -10ZM310 442Q285 442 266 421Q247 400 234.5 365Q222 330 215.5 284Q209 238 209 188Q209 134 224.5 103.5Q240 73 271 73Q311 73 334.5 120Q358 167 369 253Q369 255 370 260.5Q371 266 371 268Q389 442 310 442ZM273 648Q243 661 225.5 671.5Q208 682 198 691.5Q188 701 185 709.5Q182 718 182 726Q182 749 202.5 764.5Q223 780 258 780Q291 780 316 766.5Q341 753 362 712L414 613H356Z" glyph-name="agrave" horiz-adv-x="659" unicode="&#224;" /><glyph d="M608 -10Q571 -10 539.5 -1Q508 8 473 34Q428 11 379.5 0.5Q331 -10 277 -10Q219 -10 172 -0.5Q125 9 91.5 28Q58 47 40 76.5Q22 106 22 146Q22 181 33.5 208.5Q45 236 68 259.5Q91 283 125.5 304Q160 325 205 347Q159 409 140 450Q121 491 121 531Q121 567 140 598Q159 629 192.5 651.5Q226 674 273 687Q320 700 375 700Q425 700 466.5 690.5Q508 681 539 663.5Q570 646 587 621.5Q604 597 604 567Q604 533 589.5 505.5Q575 478 547 453.5Q519 429 478 406Q437 383 384 357Q403 332 424 305Q445 278 468 248Q488 223 504.5 202Q521 181 535 164Q589 227 615 314H549L559 391H780L771 314H701Q678 248 649 199Q620 150 583 111Q597 96 607.5 87Q618 78 626.5 73.5Q635 69 642 68Q649 67 657 67Q707 67 721 174H790Q779 84 737.5 37Q696 -10 608 -10ZM293 540Q293 508 304.5 479.5Q316 451 342 413Q390 448 410.5 490Q431 532 431 564Q431 596 414 614Q397 632 368 632Q349 632 335 624Q321 616 311.5 602.5Q302 589 297.5 573Q293 557 293 540ZM327 67Q372 67 415 86Q395 106 371 133.5Q347 161 321 194Q304 216 286.5 239Q269 262 255 282Q227 259 212 230.5Q197 202 197 168Q197 112 234 89.5Q271 67 327 67Z" glyph-name="ampersand" horiz-adv-x="820" unicode="&amp;" /><glyph d="M649 -10Q614 -10 579 -2.5Q544 5 503 34Q413 -10 302 -10Q176 -10 102.5 27Q29 64 29 142Q29 178 41.5 207Q54 236 79.5 265.5Q105 295 145 326.5Q185 358 239 398L110 611L120 690H660L649 611L409 429Q465 340 495.5 290Q526 240 541.5 215Q557 190 561 183Q565 176 567 172Q597 204 621 244Q645 284 660 331H586L595 408H822L813 331H740Q688 192 607 110Q631 80 649 73.5Q667 67 689 67Q718 67 737.5 96Q757 125 767 198H835Q830 155 819 117Q808 79 787 50.5Q766 22 732.5 6Q699 -10 649 -10ZM533 611H295L369 493ZM359 67Q401 67 447 86Q424 111 399 144.5Q374 178 345 223L283 325Q247 287 232 253.5Q217 220 217 182Q217 122 256 94.5Q295 67 359 67Z" glyph-name="ampersand.alt" horiz-adv-x="871" /><glyph d="M588 -8Q558 -8 526 -3Q494 2 456 27Q375 -8 275 -8Q218 -8 171 -1Q124 6 90.5 21Q57 36 38.5 60Q20 84 20 119Q20 146 30.5 168.5Q41 191 63.5 212.5Q86 234 121.5 258.5Q157 283 207 314L85 477L94 550H591L582 477L365 336L510 141Q536 165 557.5 196Q579 227 593 264H527L536 336H743L734 264H669Q624 155 552 89Q570 73 586 68.5Q602 64 619 64Q647 64 665.5 89Q684 114 692 172H757Q752 131 741 97.5Q730 64 710.5 40.5Q691 17 661 4.5Q631 -8 588 -8ZM470 477H260L327 388ZM328 64Q361 64 397 75Q355 115 307 181L252 254Q226 230 214.5 206Q203 182 203 152Q203 108 237.5 86Q272 64 328 64Z" glyph-name="ampersand.alt.sc" horiz-adv-x="790" /><glyph d="M384 -10Q216 -10 126.5 52Q37 114 37 236Q37 290 56 341.5Q75 393 112.5 434Q150 475 205 500Q260 525 332 525Q390 525 432.5 508Q475 491 503 463Q531 435 544.5 399Q558 363 558 325Q558 317 557.5 309Q557 301 556 295H720Q726 327 726 362Q726 425 704 463Q679 436 640 436Q613 436 592 452Q571 468 571 500Q571 514 576 528.5Q581 543 592 554.5Q603 566 620 573Q637 580 660 580Q697 580 724 562Q751 544 768 515Q785 486 793.5 448Q802 410 802 370Q802 356 800 336Q798 316 794 295H871L863 235H778Q759 183 726 138.5Q693 94 644 61Q595 28 530.5 9Q466 -10 384 -10ZM377 295Q380 313 382 332Q384 351 384 371Q384 403 370.5 429Q357 455 322 455Q300 455 283 442.5Q266 430 253.5 408.5Q241 387 233 357.5Q225 328 220 295ZM422 70Q524 70 596 114.5Q668 159 700 235H213Q213 188 229 156Q245 124 272.5 105Q300 86 338.5 78Q377 70 422 70Z" glyph-name="ampersand.old" horiz-adv-x="881" /><glyph d="M548 -8Q516 -8 488 -2Q460 4 428 24Q388 7 344 -0.5Q300 -8 252 -8Q199 -8 155.5 -1Q112 6 81 21Q50 36 33 60Q16 84 16 118Q16 173 56 207Q96 241 179 276Q138 326 121 357.5Q104 389 104 419Q104 450 121.5 475.5Q139 501 170.5 519.5Q202 538 246 548Q290 558 342 558Q387 558 425.5 550.5Q464 543 492.5 529.5Q521 516 537 496.5Q553 477 553 453Q553 426 539.5 404.5Q526 383 500.5 363.5Q475 344 437 325.5Q399 307 350 286Q365 270 383 251.5Q401 233 419.5 213.5Q438 194 455.5 176Q473 158 487 143Q529 186 549 244H492L500 316H702L694 244H632Q614 196 589.5 159.5Q565 123 533 94Q558 73 570 68.5Q582 64 596 64Q618 64 630 83Q642 102 648 145H713Q704 70 666.5 31Q629 -8 548 -8ZM270 424Q270 403 279.5 382.5Q289 362 310 337Q352 368 369 394.5Q386 421 386 447Q386 496 335 496Q303 496 286.5 473.5Q270 451 270 424ZM300 64Q323 64 339 68Q355 72 365 77Q337 103 299.5 141.5Q262 180 228 214Q208 198 196.5 180Q185 162 185 140Q185 97 217.5 80.5Q250 64 300 64Z" glyph-name="ampersand.sc" horiz-adv-x="748" /><glyph d="M475 -10Q449 -10 425 -1.5Q401 7 373 32Q341 12 302 1Q263 -10 216 -10Q174 -10 138 -2Q102 6 76 22.5Q50 39 35.5 66Q21 93 21 130Q21 166 32 196.5Q43 227 62 252.5Q81 278 105 300.5Q129 323 156 342Q131 392 119 431.5Q107 471 107 506Q107 556 123 592.5Q139 629 167 653Q195 677 232 688.5Q269 700 311 700Q386 700 431 668Q476 636 476 573Q476 537 462.5 508.5Q449 480 425 454.5Q401 429 368.5 405Q336 381 298 354Q310 332 325 307.5Q340 283 357 256Q373 231 386 211Q399 191 410 174Q427 203 439 239Q451 275 457 314H408L416 385H603L594 314H544Q529 253 507 201.5Q485 150 455 108Q473 84 483.5 77Q494 70 505 70Q525 70 536.5 90Q548 110 554 162H611Q607 125 597.5 93Q588 61 572 38.5Q556 16 532.5 3Q509 -10 475 -10ZM241 529Q241 482 265 422Q303 457 323 495.5Q343 534 343 577Q343 602 333.5 617Q324 632 302 632Q270 632 255.5 601.5Q241 571 241 529ZM268 67Q296 67 326 83Q309 103 291 128.5Q273 154 251 186Q237 206 224.5 225.5Q212 245 201 263Q186 240 176.5 213Q167 186 167 156Q167 108 194.5 87.5Q222 67 268 67Z" glyph-name="ampersand.tln" horiz-adv-x="640" /><glyph d="M570 235Q556 181 531 136Q506 91 469 58.5Q432 26 383 8Q334 -10 272 -10Q157 -10 88.5 49.5Q20 109 20 226Q20 285 37 339Q54 393 85 434Q116 475 160.5 500Q205 525 260 525Q303 525 334 509Q365 493 385.5 466.5Q406 440 415.5 406Q425 372 425 335Q425 313 422 295H507Q509 315 510.5 336Q512 357 512 380Q512 426 502 451Q499 450 496 449Q492 447 487.5 446.5Q483 446 477 446Q454 446 436.5 461.5Q419 477 419 505Q419 518 423 531.5Q427 545 435.5 555.5Q444 566 458 573Q472 580 491 580Q543 580 566.5 532Q590 484 590 409Q590 379 588.5 350.5Q587 322 582 295H635L628 235ZM290 370Q290 405 281.5 430Q273 455 246 455Q229 455 216.5 441.5Q204 428 194.5 405.5Q185 383 179 354Q173 325 169 295H284Q286 315 288 334Q290 353 290 370ZM300 70Q373 70 421.5 115Q470 160 493 235H163V223Q163 142 197 106Q231 70 300 70Z" glyph-name="ampersand.ton" horiz-adv-x="640" /><glyph d="M494 -10Q444 -10 412 13.5Q380 37 372 82Q350 41 313 15.5Q276 -10 213 -10Q178 -10 145 4Q112 18 86.5 46Q61 74 45.5 116Q30 158 30 214Q30 274 46 330Q62 386 93 429.5Q124 473 169 499Q214 525 271 525Q325 525 356.5 501Q388 477 402 435L433 511H578L529 115Q524 78 548 78Q562 78 572 98.5Q582 119 589 166H653Q642 81 606 35.5Q570 -10 494 -10ZM310 442Q285 442 266 421Q247 400 234.5 365Q222 330 215.5 284Q209 238 209 188Q209 134 224.5 103.5Q240 73 271 73Q311 73 334.5 120Q358 167 369 253Q369 255 370 260.5Q371 266 371 268Q389 442 310 442ZM362 597Q320 597 292 623.5Q264 650 264 692Q264 742 298 776.5Q332 811 389 811Q431 811 458.5 784.5Q486 758 486 717Q486 666 452.5 631.5Q419 597 362 597ZM371 663Q390 663 402.5 676Q415 689 415 708Q415 725 405.5 735Q396 745 380 745Q361 745 348 732Q335 719 335 700Q335 683 345 673Q355 663 371 663Z" glyph-name="aring" horiz-adv-x="659" unicode="&#229;" /><glyph d="M260 592 138 384H54L234 690H312L415 384H331Z" glyph-name="asciicircum" horiz-adv-x="435" unicode="^" /><glyph d="M363 592 241 384H157L337 690H415L518 384H434Z" glyph-name="asciicircum.tln" horiz-adv-x="640" /><glyph d="M544 391Q540 357 531 322.5Q522 288 504.5 260.5Q487 233 458 216Q429 199 383 199Q337 199 310 215Q283 231 264.5 250.5Q246 270 231 286Q216 302 193 302Q163 302 146.5 277Q130 252 125 205H50Q54 240 64.5 274.5Q75 309 94.5 336Q114 363 144.5 380Q175 397 220 397Q263 397 288.5 381Q314 365 332.5 345.5Q351 326 367.5 310Q384 294 408 294Q437 294 450 318.5Q463 343 469 391Z" glyph-name="asciitilde" horiz-adv-x="581" unicode="~" /><glyph d="M573 391Q569 357 560 322.5Q551 288 533.5 260.5Q516 233 487 216Q458 199 412 199Q366 199 339 215Q312 231 293.5 250.5Q275 270 260 286Q245 302 222 302Q192 302 175.5 277Q159 252 154 205H79Q83 240 93.5 274.5Q104 309 123.5 336Q143 363 173.5 380Q204 397 249 397Q292 397 317.5 381Q343 365 361.5 345.5Q380 326 396.5 310Q413 294 437 294Q466 294 479 318.5Q492 343 498 391Z" glyph-name="asciitilde.tln" horiz-adv-x="640" /><glyph d="M270 528H247L218 618Q211 639 215 654.5Q219 670 228.5 680Q238 690 252 695Q266 700 279 700Q292 700 305 695.5Q318 691 325.5 681Q333 671 333 655.5Q333 640 321 618ZM242 525 227 505 133 515Q110 517 98.5 527Q87 537 84 550.5Q81 564 84.5 578Q88 592 95 602Q102 613 114.5 621Q127 629 141.5 631.5Q156 634 170.5 627.5Q185 621 197 601ZM284 505 274 525 339 601Q355 620 371 626.5Q387 633 400.5 631Q414 629 424.5 621Q435 613 440 603Q445 593 445.5 578.5Q446 564 439.5 550.5Q433 537 419 527Q405 517 381 515ZM169 402Q153 384 137.5 378.5Q122 373 109 375.5Q96 378 86.5 386.5Q77 395 73 405Q69 416 68.5 430Q68 444 74 456.5Q80 469 93 478.5Q106 488 129 491L226 502L236 480ZM380 490Q402 488 412.5 478Q423 468 426 454.5Q429 441 425 427.5Q421 414 414 404Q406 394 394 385.5Q382 377 368.5 374.5Q355 372 341 378.5Q327 385 315 403L267 478L283 499ZM231 307Q217 307 204.5 312Q192 317 184.5 326.5Q177 336 176.5 350.5Q176 365 188 385L240 477H264L295 384Q301 364 296.5 349.5Q292 335 281.5 325.5Q271 316 257.5 311.5Q244 307 231 307Z" glyph-name="asterisk" horiz-adv-x="451" unicode="*" /><glyph d="M235 411H214L186 488Q179 507 182.5 520Q186 533 195 541.5Q204 550 216.5 554Q229 558 242 558Q254 558 266 554Q278 550 285 541Q292 532 292.5 519Q293 506 282 488ZM209 408 196 391 108 398Q87 400 77 408.5Q67 417 64 428.5Q61 440 64 452.5Q67 465 73 474Q80 483 91.5 491Q103 499 116.5 500.5Q130 502 143.5 496.5Q157 491 168 473ZM248 391 239 408 297 473Q312 490 327 495.5Q342 501 355 499.5Q368 498 377.5 491Q387 484 391 475Q396 466 396 453.5Q396 441 390 429Q384 417 371.5 408.5Q359 400 337 398ZM144 303Q130 287 116 282.5Q102 278 90 280.5Q78 283 69 290.5Q60 298 55 307Q51 316 50.5 328.5Q50 341 55 352.5Q60 364 72.5 372.5Q85 381 106 382L195 389L204 370ZM337 381Q357 380 367 371Q377 362 379.5 350.5Q382 339 378.5 326.5Q375 314 369 306Q362 297 350.5 289.5Q339 282 326.5 280.5Q314 279 301 284.5Q288 290 277 305L233 368L247 387ZM201 222Q187 222 175 226.5Q163 231 156.5 239Q150 247 150 260Q150 273 160 289L208 368H230L260 288Q266 272 262.5 259.5Q259 247 249 238.5Q239 230 226 226Q213 222 201 222Z" glyph-name="asterisk.sc" horiz-adv-x="413" /><glyph d="M365 528H342L313 618Q306 639 310 654.5Q314 670 323.5 680Q333 690 347 695Q361 700 374 700Q387 700 400 695.5Q413 691 420.5 681Q428 671 428 655.5Q428 640 416 618ZM337 525 322 505 228 515Q205 517 193.5 527Q182 537 179 550.5Q176 564 179.5 578Q183 592 190 602Q197 613 209.5 621Q222 629 236.5 631.5Q251 634 265.5 627.5Q280 621 292 601ZM379 505 369 525 434 601Q450 620 466 626.5Q482 633 495.5 631Q509 629 519.5 621Q530 613 535 603Q540 593 540.5 578.5Q541 564 534.5 550.5Q528 537 514 527Q500 517 476 515ZM264 402Q248 384 232.5 378.5Q217 373 204 375.5Q191 378 181.5 386.5Q172 395 168 405Q164 416 163.5 430Q163 444 169 456.5Q175 469 188 478.5Q201 488 224 491L321 502L331 480ZM475 490Q497 488 507.5 478Q518 468 521 454.5Q524 441 520 427.5Q516 414 509 404Q501 394 489 385.5Q477 377 463.5 374.5Q450 372 436 378.5Q422 385 410 403L362 478L378 499ZM326 307Q312 307 299.5 312Q287 317 279.5 326.5Q272 336 271.5 350.5Q271 365 283 385L335 477H359L390 384Q396 364 391.5 349.5Q387 335 376.5 325.5Q366 316 352.5 311.5Q339 307 326 307Z" glyph-name="asterisk.tln" horiz-adv-x="640" /><glyph d="M726 -156Q685 -182 619.5 -197.5Q554 -213 459 -213Q368 -213 289.5 -191.5Q211 -170 153 -126Q95 -82 62 -14.5Q29 53 29 145Q29 244 64 335.5Q99 427 166 496.5Q233 566 331 608Q429 650 554 650Q655 650 730.5 625.5Q806 601 856 557Q906 513 931.5 450.5Q957 388 957 312Q957 248 942 189.5Q927 131 896 86.5Q865 42 818 16Q771 -10 707 -10Q634 -10 597 19Q560 48 549 94Q521 43 484 16.5Q447 -10 381 -10Q314 -10 270.5 28.5Q227 67 227 148Q227 200 244 253Q261 306 294 348.5Q327 391 376 418Q425 445 489 445Q537 445 565.5 427.5Q594 410 608 381L712 442H755L691 176Q687 159 684.5 144.5Q682 130 682 117Q682 91 694 77.5Q706 64 734 64Q763 64 787 82Q811 100 828.5 133Q846 166 855.5 211Q865 256 865 310Q865 438 784.5 505.5Q704 573 549 573Q447 573 367 539Q287 505 232 447Q177 389 148 311.5Q119 234 119 147Q119 72 146 18.5Q173 -35 220.5 -69.5Q268 -104 332 -120Q396 -136 471 -136Q533 -136 591 -126.5Q649 -117 713 -86ZM384 136Q384 104 395.5 84Q407 64 433 64Q451 64 467.5 76Q484 88 498 108Q512 128 523 155.5Q534 183 542 213Q549 240 553 263.5Q557 287 557 306Q557 371 509 371Q483 371 460.5 349Q438 327 421 293Q404 259 394 217.5Q384 176 384 136Z" glyph-name="at" horiz-adv-x="996" unicode="@" /><glyph d="M745 -26Q704 -52 638.5 -67.5Q573 -83 478 -83Q387 -83 308.5 -61.5Q230 -40 172 4Q114 48 81 115.5Q48 183 48 275Q48 374 83 465.5Q118 557 185 626.5Q252 696 350 738Q448 780 573 780Q674 780 749.5 755.5Q825 731 875 687Q925 643 950.5 580.5Q976 518 976 442Q976 378 961 319.5Q946 261 915 216.5Q884 172 837 146Q790 120 726 120Q653 120 616 149Q579 178 568 224Q540 173 503 146.5Q466 120 400 120Q333 120 289.5 158.5Q246 197 246 278Q246 330 263 383Q280 436 313 478.5Q346 521 395 548Q444 575 508 575Q556 575 584.5 557.5Q613 540 627 511L731 572H774L710 306Q706 289 703.5 274.5Q701 260 701 247Q701 221 713 207.5Q725 194 753 194Q782 194 806 212Q830 230 847.5 263Q865 296 874.5 341Q884 386 884 440Q884 568 803.5 635.5Q723 703 568 703Q466 703 386 669Q306 635 251 577Q196 519 167 441.5Q138 364 138 277Q138 202 165 148.5Q192 95 239.5 60.5Q287 26 351 10Q415 -6 490 -6Q552 -6 610 3.5Q668 13 732 44ZM403 266Q403 234 414.5 214Q426 194 452 194Q470 194 486.5 206Q503 218 517 238Q531 258 542 285.5Q553 313 561 343Q568 370 572 393.5Q576 417 576 436Q576 501 528 501Q502 501 479.5 479Q457 457 440 423Q423 389 413 347.5Q403 306 403 266Z" glyph-name="at.cap" horiz-adv-x="987" /><glyph d="M355 -8Q280 -8 218 6.5Q156 21 113 53Q70 85 50 136Q30 187 39 260Q47 328 80.5 383Q114 438 166.5 477Q219 516 289 537Q359 558 441 558Q596 558 673.5 493.5Q751 429 737 317Q726 228 678 175.5Q630 123 544 123Q485 123 458.5 145.5Q432 168 428 194Q408 159 375 141Q342 123 301 123Q271 123 246.5 132.5Q222 142 206 161.5Q190 181 184.5 210.5Q179 240 189 280Q198 318 217.5 346Q237 374 263 392.5Q289 411 318.5 420Q348 429 377 429Q412 429 435.5 418.5Q459 408 472 391L566 428H588L543 249Q535 218 538 199Q541 180 569 180Q604 180 628 214Q652 248 660 311Q666 360 652.5 394.5Q639 429 608 451.5Q577 474 531 484.5Q485 495 428 495Q369 495 315 480Q261 465 219 435.5Q177 406 149 362Q121 318 114 260Q107 204 124 165Q141 126 175.5 102Q210 78 259.5 67.5Q309 57 367 57Q413 57 461 62.5Q509 68 557 86L563 27Q533 10 480 1Q427 -8 355 -8ZM342 177Q368 177 387.5 203Q407 229 419 272Q431 318 427.5 345Q424 372 398 372Q372 372 351 346.5Q330 321 319 280Q307 237 311.5 207Q316 177 342 177Z" glyph-name="at.sc" horiz-adv-x="762" /><glyph d="M467 -156Q441 -180 395 -196.5Q349 -213 280 -213Q135 -213 58 -121.5Q-19 -30 -11 144Q-7 243 22 334.5Q51 426 102.5 496Q154 566 226.5 608Q299 650 389 650Q471 650 523 617.5Q575 585 602.5 531Q630 477 636.5 407Q643 337 635 262Q630 210 616 161Q602 112 578.5 74Q555 36 520.5 13Q486 -10 439 -10Q411 -10 393 -2Q375 6 364.5 19.5Q354 33 350 51.5Q346 70 346 90Q331 45 300.5 17.5Q270 -10 224 -10Q171 -10 145.5 34Q120 78 132 166Q140 224 158.5 275Q177 326 202.5 363.5Q228 401 259.5 423Q291 445 325 445Q345 445 358 439.5Q371 434 379.5 425.5Q388 417 393 406Q398 395 401 384L467 445H509L448 157Q445 142 442.5 127.5Q440 113 439 101Q437 84 443 74Q449 64 463 64Q479 64 493 80Q507 96 518.5 124Q530 152 538 188.5Q546 225 550 265Q556 322 554 377.5Q552 433 535 476.5Q518 520 481 546.5Q444 573 381 573Q317 573 262.5 538.5Q208 504 167 445.5Q126 387 101.5 310Q77 233 74 147Q69 11 122 -64Q175 -139 288 -139Q326 -139 366 -130Q406 -121 451 -89ZM251 182Q243 130 244 97Q245 64 265 64Q312 64 344 211Q353 253 356 282Q361 324 356.5 347.5Q352 371 336 371Q319 371 305.5 354Q292 337 281.5 310Q271 283 263.5 249Q256 215 251 182Z" glyph-name="at.tln" horiz-adv-x="640" /><glyph d="M494 -10Q444 -10 412 13.5Q380 37 372 82Q350 41 313 15.5Q276 -10 213 -10Q178 -10 145 4Q112 18 86.5 46Q61 74 45.5 116Q30 158 30 214Q30 274 46 330Q62 386 93 429.5Q124 473 169 499Q214 525 271 525Q325 525 356.5 501Q388 477 402 435L433 511H578L529 115Q524 78 548 78Q562 78 572 98.5Q582 119 589 166H653Q642 81 606 35.5Q570 -10 494 -10ZM310 442Q285 442 266 421Q247 400 234.5 365Q222 330 215.5 284Q209 238 209 188Q209 134 224.5 103.5Q240 73 271 73Q311 73 334.5 120Q358 167 369 253Q369 255 370 260.5Q371 266 371 268Q389 442 310 442ZM420 610Q397 610 378.5 619Q360 628 344 638.5Q328 649 314 658Q300 667 286 667Q266 667 255.5 652.5Q245 638 242 612H181Q189 681 217.5 719.5Q246 758 300 758Q324 758 342.5 749Q361 740 377.5 729.5Q394 719 408 710Q422 701 437 701Q455 701 465 715.5Q475 730 478 756H539Q535 722 527.5 695Q520 668 506.5 649Q493 630 472.5 620Q452 610 420 610Z" glyph-name="atilde" horiz-adv-x="659" unicode="&#227;" /><glyph d="M352 -10Q306 -10 269.5 8Q233 26 207 71L77 -6H34L112 670H46L56 747Q119 747 160 748Q201 749 226 750.5Q251 752 264 754.5Q277 757 284 760L300 750L284 614Q277 556 271 517Q265 478 258 441Q282 482 321 503.5Q360 525 407 525Q447 525 480 508.5Q513 492 536 463Q559 434 572 393.5Q585 353 585 305Q585 242 568.5 185Q552 128 522 84.5Q492 41 449 15.5Q406 -10 352 -10ZM304 73Q330 73 348.5 94Q367 115 379.5 149.5Q392 184 398 228Q404 272 404 319Q404 377 388 409.5Q372 442 339 442Q318 442 301.5 428.5Q285 415 273.5 391Q262 367 254.5 333.5Q247 300 243 260Q242 255 241.5 245Q241 235 241 229Q236 158 251 115.5Q266 73 304 73Z" glyph-name="b" horiz-adv-x="614" unicode="b" /><glyph d="M418 -100 83 760H180L515 -100Z" glyph-name="backslash" horiz-adv-x="578" unicode="\" /><glyph d="M420 -70 85 790H182L517 -70Z" glyph-name="backslash.cap" horiz-adv-x="576" /><glyph d="M382 -60 73 626H166L475 -60Z" glyph-name="backslash.sc" horiz-adv-x="532" /><glyph d="M449 -100 114 760H211L546 -100Z" glyph-name="backslash.tln" horiz-adv-x="640" /><glyph d="M22 -250 156 840H245L111 -250Z" glyph-name="bar" horiz-adv-x="256" unicode="|" /><glyph d="M30 -200 164 890H253L119 -200Z" glyph-name="bar.cap" horiz-adv-x="259" /><glyph d="M214 -250 348 840H437L303 -250Z" glyph-name="bar.tln" horiz-adv-x="640" /><glyph d="M312 -260Q230 -260 181 -242Q132 -224 107.5 -194Q83 -164 77 -125.5Q71 -87 75 -46Q80 -7 86.5 32.5Q93 72 96 107Q98 133 96 155Q94 177 84 193Q74 209 54.5 218Q35 227 2 227L11 301Q46 301 68 310.5Q90 320 104 336.5Q118 353 125 376Q132 399 135 425Q139 457 141.5 493.5Q144 530 150 570Q157 612 172.5 647Q188 682 220 707Q252 732 304.5 746Q357 760 437 760L428 683Q400 683 381.5 674Q363 665 351 648.5Q339 632 332.5 608Q326 584 322 555Q317 524 313.5 490Q310 456 304 423Q298 392 287 364Q276 336 256.5 314Q237 292 207 278.5Q177 265 133 263Q177 260 203 245Q229 230 243 206.5Q257 183 261 152.5Q265 122 263 89Q261 54 257 18Q253 -18 249 -51Q246 -80 246 -104.5Q246 -129 253.5 -146.5Q261 -164 277 -173.5Q293 -183 321 -183Z" glyph-name="braceleft" horiz-adv-x="402" unicode="{" /><glyph d="M329 -180Q247 -180 198 -162Q149 -144 124.5 -114Q100 -84 94 -45.5Q88 -7 92 34Q97 73 103.5 112.5Q110 152 113 187Q115 213 113 235Q111 257 101 273Q91 289 71.5 298Q52 307 19 307L28 381Q63 381 85 390.5Q107 400 121 416.5Q135 433 142 456Q149 479 152 505Q156 537 158.5 573.5Q161 610 167 650Q174 692 189.5 727Q205 762 237 787Q269 812 321.5 826Q374 840 454 840L445 763Q417 763 398.5 754Q380 745 368 728.5Q356 712 349.5 688Q343 664 339 635Q334 604 330.5 570Q327 536 321 503Q315 472 304 444Q293 416 273.5 394Q254 372 224 358.5Q194 345 150 343Q194 340 220 325Q246 310 260 286.5Q274 263 278 232.5Q282 202 280 169Q278 134 274 98Q270 62 266 29Q263 0 263 -24.5Q263 -49 270.5 -66.5Q278 -84 294 -93.5Q310 -103 338 -103Z" glyph-name="braceleft.cap" horiz-adv-x="412" /><glyph d="M310 -135Q234 -135 189 -120.5Q144 -106 121 -82Q98 -58 92 -26.5Q86 5 89 38Q91 68 96.5 98.5Q102 129 104 156Q105 176 102.5 192.5Q100 209 91 221Q82 233 64.5 240Q47 247 18 247L26 317Q57 317 77 324.5Q97 332 109 345.5Q121 359 127 377Q133 395 136 416Q139 440 140.5 467Q142 494 147 522Q154 557 168 585.5Q182 614 211.5 634.5Q241 655 288.5 666.5Q336 678 410 678L402 605Q356 605 338 578Q320 551 314 509Q310 486 307 459Q304 432 298 406Q292 382 282.5 360Q273 338 255.5 321Q238 304 211 294Q184 284 145 282Q184 280 208 268Q232 256 245.5 237.5Q259 219 263.5 195Q268 171 267 145Q266 117 262.5 88.5Q259 60 257 34Q255 13 255.5 -5Q256 -23 263 -36Q270 -49 283.5 -56.5Q297 -64 320 -64Z" glyph-name="braceleft.sc" horiz-adv-x="393" /><glyph d="M431 -260Q349 -260 300 -242Q251 -224 226.5 -194Q202 -164 196 -125.5Q190 -87 194 -46Q199 -7 205.5 32.5Q212 72 215 107Q217 133 215 155Q213 177 203 193Q193 209 173.5 218Q154 227 121 227L130 301Q165 301 187 310.5Q209 320 223 336.5Q237 353 244 376Q251 399 254 425Q258 457 260.5 493.5Q263 530 269 570Q276 612 291.5 647Q307 682 339 707Q371 732 423.5 746Q476 760 556 760L547 683Q519 683 500.5 674Q482 665 470 648.5Q458 632 451.5 608Q445 584 441 555Q436 524 432.5 490Q429 456 423 423Q417 392 406 364Q395 336 375.5 314Q356 292 326 278.5Q296 265 252 263Q296 260 322 245Q348 230 362 206.5Q376 183 380 152.5Q384 122 382 89Q380 54 376 18Q372 -18 368 -51Q365 -80 365 -104.5Q365 -129 372.5 -146.5Q380 -164 396 -173.5Q412 -183 440 -183Z" glyph-name="braceleft.tln" horiz-adv-x="640" /><glyph d="M89 760Q171 760 219.5 742Q268 724 293 694Q318 664 323.5 625.5Q329 587 325 546Q321 507 314 467.5Q307 428 305 393Q303 367 305 345Q307 323 317 307.5Q327 292 346.5 283Q366 274 399 274L390 200Q356 200 333.5 190.5Q311 181 297 164Q283 147 276 124Q269 101 266 75Q261 43 259 6.5Q257 -30 251 -70Q244 -112 228 -147Q212 -182 180 -207Q148 -232 96 -246Q44 -260 -36 -260L-27 -183Q0 -183 18.5 -174Q37 -165 49 -148.5Q61 -132 67.5 -108Q74 -84 78 -55Q83 -24 86.5 10Q90 44 97 77Q103 108 114 136.5Q125 165 144.5 186.5Q164 208 194 221.5Q224 235 268 237Q224 240 197.5 255Q171 270 157 293.5Q143 317 139.5 347.5Q136 378 137 411Q139 446 143.5 482Q148 518 152 551Q155 580 154.5 604.5Q154 629 146.5 646.5Q139 664 123 673.5Q107 683 79 683Z" glyph-name="braceright" horiz-adv-x="400" unicode="}" /><glyph d="M102 840Q184 840 232.5 822Q281 804 306 774Q331 744 336.5 705.5Q342 667 338 626Q334 587 327 547.5Q320 508 318 473Q316 447 318 425Q320 403 330 387.5Q340 372 359.5 363Q379 354 412 354L403 280Q369 280 346.5 270.5Q324 261 310 244Q296 227 289 204Q282 181 279 155Q274 123 272 86.5Q270 50 264 10Q257 -32 241 -67Q225 -102 193 -127Q161 -152 109 -166Q57 -180 -23 -180L-14 -103Q13 -103 31.5 -94Q50 -85 62 -68.5Q74 -52 80.5 -28Q87 -4 91 25Q96 56 99.5 90Q103 124 110 157Q116 188 127 216.5Q138 245 157.5 266.5Q177 288 207 301.5Q237 315 281 317Q237 320 210.5 335Q184 350 170 373.5Q156 397 152.5 427.5Q149 458 150 491Q152 526 156.5 562Q161 598 165 631Q168 660 167.5 684.5Q167 709 159.5 726.5Q152 744 136 753.5Q120 763 92 763Z" glyph-name="braceright.cap" horiz-adv-x="411" /><glyph d="M86 678Q162 678 207 663.5Q252 649 275.5 624.5Q299 600 305 568.5Q311 537 308 504Q305 473 300 442.5Q295 412 293 386Q292 366 294 349.5Q296 333 305.5 321Q315 309 332.5 302Q350 295 379 295L371 226Q340 226 320 218.5Q300 211 288 197.5Q276 184 270 165.5Q264 147 261 126Q258 101 256.5 74Q255 47 250 19Q243 -16 229 -44.5Q215 -73 185.5 -93Q156 -113 108.5 -124Q61 -135 -13 -135L-5 -64Q18 -64 33.5 -56.5Q49 -49 59 -36.5Q69 -24 74.5 -6.5Q80 11 83 32Q87 56 90 83Q93 110 98 136Q104 160 114 182Q124 204 141.5 221Q159 238 186 249Q213 260 252 261Q213 263 189 274.5Q165 286 151.5 305Q138 324 133.5 347.5Q129 371 130 397Q131 425 134.5 453.5Q138 482 140 508Q142 529 141.5 547Q141 565 134.5 577.5Q128 590 114.5 597.5Q101 605 78 605Z" glyph-name="braceright.sc" horiz-adv-x="393" /><glyph d="M209 760Q291 760 339.5 742Q388 724 413 694Q438 664 443.5 625.5Q449 587 445 546Q441 507 434 467.5Q427 428 425 393Q423 367 425 345Q427 323 437 307.5Q447 292 466.5 283Q486 274 519 274L510 200Q476 200 453.5 190.5Q431 181 417 164Q403 147 396 124Q389 101 386 75Q381 43 379 6.5Q377 -30 371 -70Q364 -112 348 -147Q332 -182 300 -207Q268 -232 216 -246Q164 -260 84 -260L93 -183Q120 -183 138.5 -174Q157 -165 169 -148.5Q181 -132 187.5 -108Q194 -84 198 -55Q203 -24 206.5 10Q210 44 217 77Q223 108 234 136.5Q245 165 264.5 186.5Q284 208 314 221.5Q344 235 388 237Q344 240 317.5 255Q291 270 277 293.5Q263 317 259.5 347.5Q256 378 257 411Q259 446 263.5 482Q268 518 272 551Q275 580 274.5 604.5Q274 629 266.5 646.5Q259 664 243 673.5Q227 683 199 683Z" glyph-name="braceright.tln" horiz-adv-x="640" /><glyph d="M22 -250 145 750H466L457 673H318L213 -173H352L343 -250Z" glyph-name="bracketleft" horiz-adv-x="425" unicode="[" /><glyph d="M33 -170 156 830H477L468 753H329L224 -93H363L354 -170Z" glyph-name="bracketleft.cap" horiz-adv-x="429" /><glyph d="M40 -123 138 674H439L430 601H306L226 -51H350L341 -123Z" glyph-name="bracketleft.sc" horiz-adv-x="415" /><glyph d="M129 -250 252 750H573L564 673H425L320 -173H459L450 -250Z" glyph-name="bracketleft.tln" horiz-adv-x="640" /><glyph d="M-33 -173H106L210 673H71L80 750H401L278 -250H-43Z" glyph-name="bracketright" horiz-adv-x="425" unicode="]" /><glyph d="M-21 -93H118L222 753H83L92 830H413L290 -170H-31Z" glyph-name="bracketright.cap" horiz-adv-x="428" /><glyph d="M-10 -51H114L195 601H71L79 674H380L282 -123H-19Z" glyph-name="bracketright.sc" horiz-adv-x="414" /><glyph d="M75 -173H214L318 673H179L188 750H509L386 -250H65Z" glyph-name="bracketright.tln" horiz-adv-x="640" /><glyph d="M254 697Q291 697 311.5 717Q332 737 340 769H406Q402 741 392.5 712Q383 683 364.5 659.5Q346 636 316.5 621Q287 606 243 606Q200 606 172.5 621Q145 636 129.5 659.5Q114 683 109.5 712Q105 741 109 769H174Q176 737 196 717Q216 697 254 697Z" glyph-name="breve" horiz-adv-x="407" unicode="&#728;" /><glyph d="M256 829Q294 829 314 846Q334 863 342 888H404Q401 861 392 834.5Q383 808 365 786.5Q347 765 318 751.5Q289 738 246 738Q206 738 179.5 751.5Q153 765 138.5 786.5Q124 808 119.5 834.5Q115 861 118 888H180Q183 863 201 846Q219 829 256 829Z" glyph-name="breve.cap" horiz-adv-x="396" /><glyph d="M101 400 155 840H244L190 400ZM21 -250 75 190H164L110 -250Z" glyph-name="brokenbar" horiz-adv-x="254" unicode="&#166;" /><glyph d="M294 400 348 840H437L383 400ZM214 -250 268 190H357L303 -250Z" glyph-name="brokenbar.tln" horiz-adv-x="640" /><glyph d="M474 150Q451 74 398 32Q345 -10 255 -10Q204 -10 162.5 5.5Q121 21 91 50.5Q61 80 45 121.5Q29 163 29 214Q29 282 49 339.5Q69 397 105 438Q141 479 192 502Q243 525 305 525Q388 525 436 492.5Q484 460 484 402Q484 368 461 344Q438 320 398 320Q362 320 344 337.5Q326 355 326 382Q326 400 334.5 415.5Q343 431 361 441Q348 448 327 448Q296 448 273.5 425.5Q251 403 236.5 367.5Q222 332 215.5 288.5Q209 245 209 202Q209 141 233 106.5Q257 72 303 72Q346 72 372 99.5Q398 127 412 172Z" glyph-name="c" horiz-adv-x="502" unicode="c" /><glyph d="M717 -10Q630 -10 591.5 39.5Q553 89 565 191L595 435H529L537 497Q573 497 597.5 503Q622 509 637 519.5Q652 530 659 546Q666 562 668 581Q673 623 649 653.5Q625 684 567 684Q498 684 456.5 635Q415 586 410 505Q445 491 462 467Q479 443 478 411Q477 382 459.5 362Q442 342 406 342Q365 342 342.5 371.5Q320 401 322 445Q297 442 276 421.5Q255 401 240 368.5Q225 336 217 293Q209 250 209 202Q209 142 232 107.5Q255 73 304 73Q345 73 371.5 100Q398 127 412 172L474 150Q450 72 398 31Q346 -10 253 -10Q203 -10 161.5 5.5Q120 21 90.5 50.5Q61 80 45 121.5Q29 163 29 214Q29 282 49 339.5Q69 397 105 438Q141 479 192 502Q243 525 305 525Q311 525 317 525Q323 525 328 524Q348 641 410 700.5Q472 760 577 760Q630 760 671 747Q712 734 739 708.5Q766 683 778 644Q790 605 783 553L778 512H937L928 435H773L743 195Q737 144 743.5 113Q750 82 782 82Q811 82 826 115Q841 148 848 199H911Q897 98 852 44Q807 -10 717 -10Z" glyph-name="c_t" horiz-adv-x="932" /><glyph d="M708 -10Q675 -10 645 0.5Q615 11 594 34.5Q573 58 563 94Q553 130 559 181L590 435H521L530 512H600Q605 547 605.5 578Q606 609 597.5 632.5Q589 656 569 670Q549 684 512 684Q488 684 467 675.5Q446 667 429.5 646.5Q413 626 403 593.5Q393 561 391 513Q435 500 457 473.5Q479 447 478 411Q477 382 456.5 362Q436 342 406 342Q370 342 343.5 365.5Q317 389 306 430Q283 421 265 398Q247 375 234.5 343Q222 311 215.5 274.5Q209 238 209 202Q209 142 232 107.5Q255 73 304 73Q345 73 371.5 100Q398 127 412 172L474 150Q450 72 398 31Q346 -10 253 -10Q203 -10 161.5 5.5Q120 21 90.5 50.5Q61 80 45 121.5Q29 163 29 214Q29 282 48.5 339Q68 396 104 437.5Q140 479 191 502Q242 525 304 525Q318 640 375 700Q432 760 519 760Q602 760 645 721.5Q688 683 707 611L828 760L865 750Q841 704 814 646Q787 588 777 512H941L932 435H768L737 187Q730 133 738 108Q746 83 777 83Q794 83 805.5 95.5Q817 108 824.5 126Q832 144 836 164Q840 184 842 199H905Q899 160 888 122Q877 84 855 55Q833 26 797.5 8Q762 -10 708 -10Z" glyph-name="c_t.alt" horiz-adv-x="929" /><glyph d="M423 -8 397 32Q369 12 336.5 2Q304 -8 262 -8Q208 -8 165.5 9Q123 26 93 57Q63 88 47 131.5Q31 175 31 227Q31 296 52 356Q73 416 112.5 461Q152 506 208 532Q264 558 334 558Q377 558 406.5 548Q436 538 453 521L488 557H565L540 356H455V375Q454 423 432.5 452.5Q411 482 361 482Q326 482 298 458Q270 434 250.5 394.5Q231 355 220.5 303.5Q210 252 210 197Q210 129 238.5 98.5Q267 68 312 68Q339 68 361 79Q383 90 398.5 108Q414 126 424 149.5Q434 173 438 198H525L499 -8ZM693 72H758L808 479H788Q763 479 746.5 474.5Q730 470 719 458.5Q708 447 701.5 428.5Q695 410 691 383L687 353H601L625 550H1185L1160 353H1074L1078 383Q1086 440 1070.5 459.5Q1055 479 1007 479H985L935 72H999L990 0H684Z" glyph-name="c_t.alt.sc" horiz-adv-x="1167" /><glyph d="M423 -8 397 32Q369 12 336.5 2Q304 -8 262 -8Q208 -8 165.5 9Q123 26 93 57Q63 88 47 131.5Q31 175 31 227Q31 296 52 356Q73 416 112.5 461Q152 506 208 532Q264 558 334 558Q377 558 406.5 548Q436 538 453 521L488 557H565L540 356H455V375Q454 423 432.5 452.5Q411 482 361 482Q326 482 298 458Q270 434 250.5 394.5Q231 355 220.5 303.5Q210 252 210 197Q210 129 238.5 98.5Q267 68 312 68Q339 68 361 79Q383 90 398.5 108Q414 126 424 149.5Q434 173 438 198H525L499 -8ZM693 72H758L808 479H788Q763 479 746.5 474.5Q730 470 719 458.5Q708 447 701.5 428.5Q695 410 691 383L687 353H601L625 550H1185L1160 353H1074L1078 383Q1086 440 1070.5 459.5Q1055 479 1007 479H985L935 72H999L990 0H684Z" glyph-name="c_t.sc" horiz-adv-x="1167" /><glyph d="M190 786 292 710 417 786H493L307 612H256L114 786Z" glyph-name="caron" horiz-adv-x="489" unicode="&#711;" /><glyph d="M451 874 303 740H221L108 874H192L274 822L367 874Z" glyph-name="caron.cap" horiz-adv-x="436" /><glyph d="M231 -209Q206 -209 176 -205.5Q146 -202 129 -191L137 -128Q156 -144 188 -144Q207 -144 218.5 -135Q230 -126 230 -114Q230 -82 169 -82L171 -65L199 -5Q121 11 75 68.5Q29 126 29 214Q29 282 49 339.5Q69 397 105 438Q141 479 192 502Q243 525 305 525Q388 525 436 492.5Q484 460 484 402Q484 368 461 344Q438 320 398 320Q362 320 344 337.5Q326 355 326 382Q326 400 334.5 415.5Q343 431 361 441Q348 448 327 448Q296 448 273.5 425.5Q251 403 236.5 367.5Q222 332 215.5 288.5Q209 245 209 202Q209 141 233 106.5Q257 72 303 72Q346 72 372 99.5Q398 127 412 172L474 150Q454 81 407.5 40Q361 -1 286 -9L271 -40Q309 -45 332.5 -62.5Q356 -80 356 -113Q356 -153 323 -181Q290 -209 231 -209Z" glyph-name="ccedilla" horiz-adv-x="502" unicode="&#231;" /><glyph d="M142 -209Q117 -209 87 -205.5Q57 -202 40 -191L48 -128Q67 -144 99 -144Q118 -144 129.5 -135Q141 -126 141 -114Q141 -82 80 -82L82 -65L117 10H206L182 -40Q220 -45 243.5 -62.5Q267 -80 267 -113Q267 -153 234 -181Q201 -209 142 -209Z" glyph-name="cedilla" horiz-adv-x="328" unicode="&#184;" /><glyph d="M493 230Q472 158 423.5 117Q375 76 294 71L283 -20H223L234 73Q149 84 98.5 142.5Q48 201 48 294Q48 359 66 414Q84 469 116.5 509.5Q149 550 195.5 575Q242 600 299 604L310 691H370L359 603Q427 596 465 564.5Q503 533 503 482Q503 448 480 424Q457 400 417 400Q381 400 363 417.5Q345 435 345 462Q345 480 353.5 495.5Q362 511 380 521Q367 528 346 528Q315 528 292.5 505.5Q270 483 255.5 447.5Q241 412 234.5 368.5Q228 325 228 282Q228 221 252 186.5Q276 152 322 152Q365 152 391 179.5Q417 207 431 252Z" glyph-name="cent" horiz-adv-x="530" unicode="&#162;" /><glyph d="M482 150Q461 78 412.5 37Q364 -4 283 -9L272 -100H212L223 -7Q138 4 87.5 62.5Q37 121 37 214Q37 279 55 334Q73 389 105.5 429.5Q138 470 184.5 495Q231 520 288 524L299 611H359L348 523Q416 516 454 484.5Q492 453 492 402Q492 368 469 344Q446 320 406 320Q370 320 352 337.5Q334 355 334 382Q334 400 342.5 415.5Q351 431 369 441Q356 448 335 448Q304 448 281.5 425.5Q259 403 244.5 367.5Q230 332 223.5 288.5Q217 245 217 202Q217 141 241 106.5Q265 72 311 72Q354 72 380 99.5Q406 127 420 172Z" glyph-name="cent.old" horiz-adv-x="523" /><glyph d="M448 189Q428 129 385.5 97Q343 65 270 61L261 -12H204L213 62Q135 70 87 117.5Q39 165 39 247Q39 299 54.5 342.5Q70 386 100 417.5Q130 449 172 468Q214 487 266 490L274 558H331L322 489Q385 484 420 458Q455 432 455 388Q455 356 433 336Q411 316 375 316Q341 316 324 331.5Q307 347 307 373Q307 400 325 418Q321 419 317 419Q313 419 308 419Q283 419 265 402.5Q247 386 236 359Q225 332 219.5 298Q214 264 214 230Q214 186 235.5 160.5Q257 135 298 135Q333 135 356 154.5Q379 174 390 209Z" glyph-name="cent.sc" horiz-adv-x="488" /><glyph d="M548 230Q527 158 478.5 117Q430 76 349 71L338 -20H278L289 73Q204 84 153.5 142.5Q103 201 103 294Q103 359 121 414Q139 469 171.5 509.5Q204 550 250.5 575Q297 600 354 604L365 691H425L414 603Q482 596 520 564.5Q558 533 558 482Q558 448 535 424Q512 400 472 400Q436 400 418 417.5Q400 435 400 462Q400 480 408.5 495.5Q417 511 435 521Q422 528 401 528Q370 528 347.5 505.5Q325 483 310.5 447.5Q296 412 289.5 368.5Q283 325 283 282Q283 221 307 186.5Q331 152 377 152Q420 152 446 179.5Q472 207 486 252Z" glyph-name="cent.tln" horiz-adv-x="640" /><glyph d="M539 150Q518 78 469.5 37Q421 -4 340 -9L329 -100H269L280 -7Q195 4 144.5 62.5Q94 121 94 214Q94 279 112 334Q130 389 162.5 429.5Q195 470 241.5 495Q288 520 345 524L356 611H416L405 523Q473 516 511 484.5Q549 453 549 402Q549 368 526 344Q503 320 463 320Q427 320 409 337.5Q391 355 391 382Q391 400 399.5 415.5Q408 431 426 441Q413 448 392 448Q361 448 338.5 425.5Q316 403 301.5 367.5Q287 332 280.5 288.5Q274 245 274 202Q274 141 298 106.5Q322 72 368 72Q411 72 437 99.5Q463 127 477 172Z" glyph-name="cent.ton" horiz-adv-x="640" /><glyph d="M88 612 276 786H327L467 612H391L290 687L164 612Z" glyph-name="circumflex" horiz-adv-x="480" unicode="&#710;" /><glyph d="M278 792 184 740H99L249 874H331L443 740H359Z" glyph-name="circumflex.cap" horiz-adv-x="445" /><glyph d="M236 388Q236 349 209.5 323.5Q183 298 143 298Q108 298 88 317.5Q68 337 68 368Q68 406 94 432.5Q120 459 160 459Q194 459 215 439.5Q236 420 236 388ZM198 80Q198 41 171.5 15.5Q145 -10 105 -10Q70 -10 50 9.5Q30 29 30 60Q30 98 56 124.5Q82 151 122 151Q156 151 177 131.5Q198 112 198 80Z" glyph-name="colon" horiz-adv-x="274" unicode=":" /><glyph d="M419 388Q419 349 392.5 323.5Q366 298 326 298Q291 298 271 317.5Q251 337 251 368Q251 406 277 432.5Q303 459 343 459Q377 459 398 439.5Q419 420 419 388ZM381 80Q381 41 354.5 15.5Q328 -10 288 -10Q253 -10 233 9.5Q213 29 213 60Q213 98 239 124.5Q265 151 305 151Q339 151 360 131.5Q381 112 381 80Z" glyph-name="colon.tln" horiz-adv-x="640" /><glyph d="M21 -89Q55 -84 78 -63.5Q101 -43 109 -11Q72 -10 49 8.5Q26 27 26 64Q26 97 49.5 124Q73 151 116 151Q159 151 178.5 125.5Q198 100 198 61Q198 26 186 -9Q174 -44 150.5 -73Q127 -102 92.5 -122Q58 -142 13 -146Z" glyph-name="comma" horiz-adv-x="259" unicode="," /><glyph d="M206 -89Q240 -84 263 -63.5Q286 -43 294 -11Q257 -10 234 8.5Q211 27 211 64Q211 97 234.5 124Q258 151 301 151Q344 151 363.5 125.5Q383 100 383 61Q383 26 371 -9Q359 -44 335.5 -73Q312 -102 277.5 -122Q243 -142 198 -146Z" glyph-name="comma.tln" horiz-adv-x="640" /><glyph d="M442 700Q511 700 568 677Q625 654 665.5 613.5Q706 573 728 517Q750 461 750 394Q750 307 719.5 233Q689 159 636 105Q583 51 511 20.5Q439 -10 355 -10Q285 -10 228.5 13.5Q172 37 132 79Q92 121 70 178.5Q48 236 48 303Q48 384 76.5 456Q105 528 157 582Q209 636 281.5 668Q354 700 442 700ZM433 625Q367 625 312 599Q257 573 217.5 529.5Q178 486 156 428Q134 370 134 307Q134 254 149.5 209.5Q165 165 195 133Q225 101 267.5 83Q310 65 364 65Q430 65 485 91.5Q540 118 580 162Q620 206 642.5 264.5Q665 323 665 387Q665 440 648.5 483.5Q632 527 601.5 558.5Q571 590 528.5 607.5Q486 625 433 625ZM447 180Q413 150 362 150Q328 150 302 163.5Q276 177 258.5 200Q241 223 232 253.5Q223 284 223 318Q223 363 237.5 404.5Q252 446 277.5 478Q303 510 337 529Q371 548 410 548Q467 548 486 518L508 548H557L540 407H482Q484 445 471.5 470Q459 495 426 495Q402 495 384 477Q366 459 354 431Q342 403 336 368Q330 333 330 300Q330 252 346.5 228.5Q363 205 392 205Q424 205 443 231.5Q462 258 470 294H528L511 150H462Z" glyph-name="copyright" horiz-adv-x="776" unicode="&#169;" /><glyph d="M271 -10Q217 -10 173 8Q129 26 98.5 57.5Q68 89 51.5 132Q35 175 35 225Q35 287 56.5 341.5Q78 396 117 437Q156 478 212 501.5Q268 525 337 525Q391 525 435 507Q479 489 509.5 457.5Q540 426 556.5 383Q573 340 573 290Q573 228 551.5 173.5Q530 119 491 78Q452 37 396 13.5Q340 -10 271 -10ZM279 54Q329 54 369.5 72.5Q410 91 438.5 123Q467 155 482.5 197Q498 239 498 287Q498 364 453.5 412Q409 460 328 460Q279 460 238.5 441.5Q198 423 169.5 391.5Q141 360 125.5 317.5Q110 275 110 228Q110 190 121.5 158Q133 126 155 103Q177 80 208 67Q239 54 279 54ZM337 136Q312 114 275 114Q249 114 228.5 125Q208 136 194.5 155Q181 174 175 198.5Q169 223 171 251Q173 282 185 310Q197 338 216 359.5Q235 381 259 393.5Q283 406 310 406Q351 406 366 385L382 406H422L409 300H362Q364 327 354.5 345.5Q345 364 322 364Q293 364 277.5 331Q262 298 258 248Q254 199 264.5 178Q275 157 298 157Q321 157 335 177Q349 197 354 223H401L388 114H348Z" glyph-name="copyright.old" horiz-adv-x="607" /><glyph d="M385 558Q447 558 498.5 540Q550 522 586.5 490Q623 458 643.5 414Q664 370 664 317Q664 243 638 183Q612 123 565.5 80.5Q519 38 455 15Q391 -8 315 -8Q253 -8 201.5 11Q150 30 113.5 63.5Q77 97 57 142.5Q37 188 37 241Q37 307 61 365Q85 423 130 465.5Q175 508 239.5 533Q304 558 385 558ZM376 487Q316 487 268.5 467.5Q221 448 188 414.5Q155 381 137.5 337.5Q120 294 120 246Q120 206 134 172.5Q148 139 174.5 114.5Q201 90 239 76.5Q277 63 324 63Q382 63 429.5 82.5Q477 102 510.5 135Q544 168 562.5 212.5Q581 257 581 308Q581 348 566 381Q551 414 524 437.5Q497 461 459 474Q421 487 376 487ZM392 145Q377 134 359.5 128.5Q342 123 319 123Q260 123 227.5 161Q195 199 195 254Q195 290 207.5 322Q220 354 241.5 379Q263 404 293 418.5Q323 433 357 433Q405 433 423 412L442 433H489L475 321H420Q422 349 411.5 367.5Q401 386 373 386Q352 386 337.5 373Q323 360 313 339Q303 318 298.5 292.5Q294 267 294 241Q294 203 309 187Q324 171 347 171Q375 171 391 191.5Q407 212 412 238H467L453 123H406Z" glyph-name="copyright.sc" horiz-adv-x="695" /><glyph d="M288 -10Q234 -10 190 8Q146 26 115.5 57.5Q85 89 68.5 132Q52 175 52 225Q52 287 73.5 341.5Q95 396 134 437Q173 478 229 501.5Q285 525 354 525Q408 525 452 507Q496 489 526.5 457.5Q557 426 573.5 383Q590 340 590 290Q590 228 568.5 173.5Q547 119 508 78Q469 37 413 13.5Q357 -10 288 -10ZM296 54Q346 54 386.5 72.5Q427 91 455.5 123Q484 155 499.5 197Q515 239 515 287Q515 364 470.5 412Q426 460 345 460Q296 460 255.5 441.5Q215 423 186.5 391.5Q158 360 142.5 317.5Q127 275 127 228Q127 190 138.5 158Q150 126 172 103Q194 80 225 67Q256 54 296 54ZM354 136Q329 114 292 114Q266 114 245.5 125Q225 136 211.5 155Q198 174 192 198.5Q186 223 188 251Q190 282 202 310Q214 338 233 359.5Q252 381 276 393.5Q300 406 327 406Q368 406 383 385L399 406H439L426 300H379Q381 327 371.5 345.5Q362 364 339 364Q310 364 294.5 331Q279 298 275 248Q271 199 281.5 178Q292 157 315 157Q338 157 352 177Q366 197 371 223H418L405 114H365Z" glyph-name="copyright.tln" horiz-adv-x="640" /><glyph d="M288 -10Q234 -10 190 8Q146 26 115.5 57.5Q85 89 68.5 132Q52 175 52 225Q52 287 73.5 341.5Q95 396 134 437Q173 478 229 501.5Q285 525 354 525Q408 525 452 507Q496 489 526.5 457.5Q557 426 573.5 383Q590 340 590 290Q590 228 568.5 173.5Q547 119 508 78Q469 37 413 13.5Q357 -10 288 -10ZM296 54Q346 54 386.5 72.5Q427 91 455.5 123Q484 155 499.5 197Q515 239 515 287Q515 364 470.5 412Q426 460 345 460Q296 460 255.5 441.5Q215 423 186.5 391.5Q158 360 142.5 317.5Q127 275 127 228Q127 190 138.5 158Q150 126 172 103Q194 80 225 67Q256 54 296 54ZM354 136Q329 114 292 114Q266 114 245.5 125Q225 136 211.5 155Q198 174 192 198.5Q186 223 188 251Q190 282 202 310Q214 338 233 359.5Q252 381 276 393.5Q300 406 327 406Q368 406 383 385L399 406H439L426 300H379Q381 327 371.5 345.5Q362 364 339 364Q310 364 294.5 331Q279 298 275 248Q271 199 281.5 178Q292 157 315 157Q338 157 352 177Q366 197 371 223H418L405 114H365Z" glyph-name="copyright.ton" horiz-adv-x="640" /><glyph d="M354 149Q332 138 308.5 131.5Q285 125 259 125Q233 125 211 132Q189 139 171 151L79 70L27 129L119 210Q99 249 102 297Q104 325 113.5 351Q123 377 139 400L70 478L135 538L206 458Q250 484 303 484Q352 484 392 457L482 536L534 477L444 398Q464 356 461 313Q459 283 448.5 256Q438 229 421 206L490 129L424 70ZM293 401Q271 401 252.5 392.5Q234 384 220.5 369.5Q207 355 199 336.5Q191 318 189 297Q186 259 208 232Q230 205 268 205Q290 205 308.5 213.5Q327 222 341 236.5Q355 251 363.5 269.5Q372 288 373 309Q376 347 353 374Q330 401 293 401Z" glyph-name="currency" horiz-adv-x="547" unicode="&#164;" /><glyph d="M318 130Q277 111 235 111Q213 111 193.5 116.5Q174 122 157 131L73 64L25 115L107 182Q87 217 91 256Q96 299 124 333L59 398L121 451L186 385Q205 394 226.5 399.5Q248 405 271 405Q317 405 351 384L432 450L480 399L400 334Q408 317 412.5 299Q417 281 415 261Q413 238 404 218Q395 198 381 180L444 116L382 64ZM262 331Q224 331 200 308.5Q176 286 173 254Q170 225 190 203.5Q210 182 243 182Q280 182 305 204.5Q330 227 333 259Q336 289 315 310Q294 331 262 331Z" glyph-name="currency.sc" horiz-adv-x="504" /><glyph d="M400 149Q378 138 354.5 131.5Q331 125 305 125Q279 125 257 132Q235 139 217 151L125 70L73 129L165 210Q145 249 148 297Q150 325 159.5 351Q169 377 185 400L116 478L181 538L252 458Q296 484 349 484Q398 484 438 457L528 536L580 477L490 398Q510 356 507 313Q505 283 494.5 256Q484 229 467 206L536 129L470 70ZM339 401Q317 401 298.5 392.5Q280 384 266.5 369.5Q253 355 245 336.5Q237 318 235 297Q232 259 254 232Q276 205 314 205Q336 205 354.5 213.5Q373 222 387 236.5Q401 251 409.5 269.5Q418 288 419 309Q422 347 399 374Q376 401 339 401Z" glyph-name="currency.tln" horiz-adv-x="640" /><glyph d="M282 600Q245 600 212.5 606.5Q180 613 156 627Q132 641 118.5 663Q105 685 105 716Q105 751 127 776Q149 801 187 801Q217 801 234.5 784Q252 767 252 740Q252 717 240.5 698.5Q229 680 208 672Q219 662 240.5 658.5Q262 655 287 655Q311 655 331 659.5Q351 664 365 670Q350 678 343 694Q336 710 336 725Q336 760 358 780.5Q380 801 413 801Q443 801 461 784Q479 767 479 737Q479 705 464.5 679.5Q450 654 423.5 636.5Q397 619 361 609.5Q325 600 282 600Z" glyph-name="cyrbreve" horiz-adv-x="496" unicode="&#63188;" /><glyph d="M281 731Q244 731 211.5 736Q179 741 155 753Q131 765 117.5 783.5Q104 802 104 829Q104 863 126.5 886.5Q149 910 184 910Q214 910 231.5 893Q249 876 249 850Q249 831 238.5 815.5Q228 800 209 792Q233 781 287 781Q311 781 330 784.5Q349 788 362 793Q350 799 342.5 811Q335 823 335 840Q335 872 357 891Q379 910 413 910Q442 910 460.5 893.5Q479 877 479 848Q479 793 424.5 762Q370 731 281 731Z" glyph-name="cyrbreve.cap" horiz-adv-x="465" /><glyph d="M495 -10Q461 -10 438 -0.5Q415 9 401 24Q387 39 380 57Q373 75 371 93Q353 50 316.5 20Q280 -10 215 -10Q177 -10 143 4Q109 18 84 46.5Q59 75 44.5 117.5Q30 160 30 217Q30 278 46.5 334Q63 390 94.5 432.5Q126 475 170.5 500Q215 525 270 525Q326 525 356 502.5Q386 480 398 448Q401 490 403.5 526Q406 562 411 603L418 670H353L363 747Q424 747 464.5 748Q505 749 531 750.5Q557 752 570.5 754.5Q584 757 591 760L607 750L530 115Q525 78 548 78Q562 78 572.5 98.5Q583 119 590 166H653Q642 78 604 34Q566 -10 495 -10ZM310 442Q285 442 266 420.5Q247 399 234 363.5Q221 328 215 283Q209 238 209 190Q209 134 225.5 103.5Q242 73 273 73Q311 73 334 116.5Q357 160 368 241Q369 246 370 254.5Q371 263 372 268Q390 442 310 442Z" glyph-name="d" horiz-adv-x="660" unicode="d" /><glyph d="M197 433Q137 433 104.5 466Q72 499 72 549Q72 579 82.5 606.5Q93 634 113 655Q133 676 162.5 688.5Q192 701 230 701Q291 701 323 668.5Q355 636 355 585Q355 555 344.5 527.5Q334 500 314 479Q294 458 264.5 445.5Q235 433 197 433ZM204 489Q223 489 238.5 496.5Q254 504 265.5 516.5Q277 529 283 545Q289 561 289 578Q289 607 272 626Q255 645 223 645Q185 645 161.5 618Q138 591 138 556Q138 527 155 508Q172 489 204 489Z" glyph-name="degree" horiz-adv-x="352" unicode="&#176;" /><glyph d="M341 433Q281 433 248.5 466Q216 499 216 549Q216 579 226.5 606.5Q237 634 257 655Q277 676 306.5 688.5Q336 701 374 701Q435 701 467 668.5Q499 636 499 585Q499 555 488.5 527.5Q478 500 458 479Q438 458 408.5 445.5Q379 433 341 433ZM348 489Q367 489 382.5 496.5Q398 504 409.5 516.5Q421 529 427 545Q433 561 433 578Q433 607 416 626Q399 645 367 645Q329 645 305.5 618Q282 591 282 556Q282 527 299 508Q316 489 348 489Z" glyph-name="degree.tln" horiz-adv-x="640" /><glyph d="M484 697Q484 659 458.5 633.5Q433 608 393 608Q358 608 339.5 628Q321 648 321 676Q321 715 346.5 740.5Q372 766 411 766Q447 766 465.5 745.5Q484 725 484 697ZM266 697Q266 659 240.5 633.5Q215 608 175 608Q140 608 121.5 628Q103 648 103 676Q103 715 128.5 740.5Q154 766 194 766Q229 766 247.5 745.5Q266 725 266 697Z" glyph-name="dieresis" horiz-adv-x="489" unicode="&#168;" /><glyph d="M461 823Q461 791 439 768Q417 745 380 745Q350 745 332.5 763.5Q315 782 315 808Q315 840 337.5 863Q360 886 395 886Q427 886 444 867.5Q461 849 461 823ZM258 823Q258 791 235.5 768Q213 745 177 745Q146 745 129 763.5Q112 782 112 808Q112 840 134.5 863Q157 886 192 886Q224 886 241 867.5Q258 849 258 823Z" glyph-name="dieresis.cap" horiz-adv-x="460" /><glyph d="M373 530Q373 491 346.5 465.5Q320 440 280 440Q245 440 225 459.5Q205 479 205 510Q205 548 231 574.5Q257 601 297 601Q331 601 352 581.5Q373 562 373 530ZM492 385 482 306H46L56 385ZM336 183Q336 144 309.5 118.5Q283 93 243 93Q208 93 188 112.5Q168 132 168 163Q168 201 194 227.5Q220 254 260 254Q294 254 315 234.5Q336 215 336 183Z" glyph-name="divide" horiz-adv-x="516" unicode="&#247;" /><glyph d="M358 440Q358 401 331.5 375.5Q305 350 265 350Q230 350 210 369.5Q190 389 190 420Q190 458 216 484.5Q242 511 282 511Q316 511 337 491.5Q358 472 358 440ZM477 295 467 216H31L41 295ZM321 93Q321 54 294.5 28.5Q268 3 228 3Q193 3 173 22.5Q153 42 153 73Q153 111 179 137.5Q205 164 245 164Q279 164 300 144.5Q321 125 321 93Z" glyph-name="divide.old" horiz-adv-x="507" /><glyph d="M330 424Q330 390 305.5 368Q281 346 244 346Q211 346 192.5 362.5Q174 379 174 407Q174 441 197.5 463.5Q221 486 259 486Q291 486 310.5 468.5Q330 451 330 424ZM435 311 426 240H36L45 311ZM299 147Q299 112 275 90.5Q251 69 213 69Q181 69 162.5 85.5Q144 102 144 129Q144 164 167.5 186Q191 208 229 208Q261 208 280 191.5Q299 175 299 147Z" glyph-name="divide.sc" horiz-adv-x="465" /><glyph d="M435 530Q435 491 408.5 465.5Q382 440 342 440Q307 440 287 459.5Q267 479 267 510Q267 548 293 574.5Q319 601 359 601Q393 601 414 581.5Q435 562 435 530ZM554 385 544 306H108L118 385ZM398 183Q398 144 371.5 118.5Q345 93 305 93Q270 93 250 112.5Q230 132 230 163Q230 201 256 227.5Q282 254 322 254Q356 254 377 234.5Q398 215 398 183Z" glyph-name="divide.tln" horiz-adv-x="640" /><glyph d="M424 440Q424 401 397.5 375.5Q371 350 331 350Q296 350 276 369.5Q256 389 256 420Q256 458 282 484.5Q308 511 348 511Q382 511 403 491.5Q424 472 424 440ZM543 295 533 216H97L107 295ZM387 93Q387 54 360.5 28.5Q334 3 294 3Q259 3 239 22.5Q219 42 219 73Q219 111 245 137.5Q271 164 311 164Q345 164 366 144.5Q387 125 387 93Z" glyph-name="divide.ton" horiz-adv-x="640" /><glyph d="M231 -110H156L170 1Q100 18 61.5 52Q23 86 23 129Q23 168 47.5 194.5Q72 221 116 221Q151 221 172 204.5Q193 188 193 159Q193 140 185 124Q177 108 163 99Q193 72 263 72Q317 72 345 97Q373 122 373 167Q373 212 341.5 236.5Q310 261 248 284Q205 301 172 318.5Q139 336 117 358Q95 380 84 408.5Q73 437 73 474Q73 552 121.5 607.5Q170 663 254 686L268 802H343L331 699Q343 701 357 700.5Q371 700 385 700L397 802H472L459 692Q529 678 565.5 647Q602 616 602 571Q602 529 577 503Q552 477 509 477Q474 477 453 493.5Q432 510 432 539Q432 559 441 574.5Q450 590 464 600Q446 612 423 615.5Q400 619 378 619Q321 619 288.5 589.5Q256 560 256 515Q256 493 265.5 476.5Q275 460 293 446.5Q311 433 338 421.5Q365 410 399 398Q428 387 456 373Q484 359 507 338.5Q530 318 544 289Q558 260 558 218Q558 135 511 76.5Q464 18 374 -2L360 -110H285L297 -11Q283 -11 270 -11Q257 -11 244 -10Z" glyph-name="dollar" horiz-adv-x="606" unicode="$" /><glyph d="M257 -10Q249 -10 242 -10Q235 -10 227 -9L216 -100H155L167 -4Q93 7 56.5 35Q20 63 20 105Q20 137 41.5 163.5Q63 190 106 190Q141 190 158 172.5Q175 155 175 129Q175 102 156 81Q169 75 186.5 71Q204 67 230 67Q277 67 298 86.5Q319 106 319 131Q319 160 289 180.5Q259 201 192 222Q126 243 92 274Q58 305 58 356Q58 419 102.5 462Q147 505 232 519L243 611H303L292 525H322L333 611H394L383 520Q455 510 491.5 482.5Q528 455 528 414Q528 378 506 352.5Q484 327 443 327Q407 327 389 343.5Q371 360 371 385Q371 417 393 437Q380 443 364 445.5Q348 448 329 448Q281 448 258.5 430Q236 412 236 385Q236 354 268.5 336.5Q301 319 360 298Q386 289 411 277.5Q436 266 455.5 250Q475 234 486.5 212.5Q498 191 498 162Q498 89 447.5 47Q397 5 318 -6L307 -100H246Z" glyph-name="dollar.old" horiz-adv-x="551" /><glyph d="M213 -88H141L152 1Q89 14 54.5 40Q20 66 20 99Q20 137 44 158Q68 179 106 179Q139 179 159.5 164.5Q180 150 180 124Q180 100 160 87Q169 79 188.5 73.5Q208 68 237 68Q282 68 303 86Q324 104 324 133Q324 150 316 162Q308 174 294 183.5Q280 193 259.5 201Q239 209 214 219Q137 248 98 282Q59 316 59 373Q59 437 101.5 482Q144 527 218 546L230 639H303L293 557Q304 559 316.5 558.5Q329 558 340 558L350 639H423L412 551Q475 540 508 514.5Q541 489 541 454Q541 420 517.5 396.5Q494 373 454 373Q422 373 401 387.5Q380 402 380 428Q380 440 386.5 450Q393 460 403 468Q391 477 373 479.5Q355 482 335 482Q287 482 262.5 461.5Q238 441 239 409Q240 378 271 360.5Q302 343 364 322Q389 313 414 302Q439 291 459.5 274Q480 257 492.5 233Q505 209 505 176Q505 106 463.5 60Q422 14 343 -1L333 -88H261L270 -9Q258 -9 246 -9Q234 -9 223 -8Z" glyph-name="dollar.sc" horiz-adv-x="558" /><glyph d="M248 -110H173L187 1Q117 18 78.5 52Q40 86 40 129Q40 168 64.5 194.5Q89 221 133 221Q168 221 189 204.5Q210 188 210 159Q210 140 202 124Q194 108 180 99Q210 72 280 72Q334 72 362 97Q390 122 390 167Q390 212 358.5 236.5Q327 261 265 284Q222 301 189 318.5Q156 336 134 358Q112 380 101 408.5Q90 437 90 474Q90 552 138.5 607.5Q187 663 271 686L285 802H360L348 699Q360 701 374 700.5Q388 700 402 700L414 802H489L476 692Q546 678 582.5 647Q619 616 619 571Q619 529 594 503Q569 477 526 477Q491 477 470 493.5Q449 510 449 539Q449 559 458 574.5Q467 590 481 600Q463 612 440 615.5Q417 619 395 619Q338 619 305.5 589.5Q273 560 273 515Q273 493 282.5 476.5Q292 460 310 446.5Q328 433 355 421.5Q382 410 416 398Q445 387 473 373Q501 359 524 338.5Q547 318 561 289Q575 260 575 218Q575 135 528 76.5Q481 18 391 -2L377 -110H302L314 -11Q300 -11 287 -11Q274 -11 261 -10Z" glyph-name="dollar.tln" horiz-adv-x="640" /><glyph d="M302 -10Q294 -10 287 -10Q280 -10 272 -9L261 -100H200L212 -4Q138 7 101.5 35Q65 63 65 105Q65 137 86.5 163.5Q108 190 151 190Q186 190 203 172.5Q220 155 220 129Q220 102 201 81Q214 75 231.5 71Q249 67 275 67Q322 67 343 86.5Q364 106 364 131Q364 160 334 180.5Q304 201 237 222Q171 243 137 274Q103 305 103 356Q103 419 147.5 462Q192 505 277 519L288 611H348L337 525H367L378 611H439L428 520Q500 510 536.5 482.5Q573 455 573 414Q573 378 551 352.5Q529 327 488 327Q452 327 434 343.5Q416 360 416 385Q416 417 438 437Q425 443 409 445.5Q393 448 374 448Q326 448 303.5 430Q281 412 281 385Q281 354 313.5 336.5Q346 319 405 298Q431 289 456 277.5Q481 266 500.5 250Q520 234 531.5 212.5Q543 191 543 162Q543 89 492.5 47Q442 5 363 -6L352 -100H291Z" glyph-name="dollar.ton" horiz-adv-x="640" /><glyph d="M178 607Q143 607 124.5 627.5Q106 648 106 676Q106 714 131.5 739.5Q157 765 196 765Q231 765 250 744.5Q269 724 269 697Q269 659 243.5 633Q218 607 178 607Z" glyph-name="dotaccent" horiz-adv-x="278" unicode="&#729;" /><glyph d="M262 825Q262 790 238.5 767.5Q215 745 180 745Q150 745 131.5 762.5Q113 780 113 809Q113 844 136 867Q159 890 195 890Q225 890 243.5 872Q262 854 262 825Z" glyph-name="dotaccent.cap" horiz-adv-x="261" /><glyph d="M203 -10Q170 -10 142 -0.5Q114 9 95.5 28.5Q77 48 68.5 79Q60 110 65 152L100 435H35L45 512Q111 512 151.5 512.5Q192 513 216 514.5Q240 516 251.5 518.5Q263 521 271 525L287 515L238 118Q234 78 256 78Q270 78 280.5 98.5Q291 119 298 166H362Q351 81 314.5 35.5Q278 -10 203 -10Z" glyph-name="dotlessi" horiz-adv-x="368" unicode="&#305;" /><glyph d="M261 -10Q208 -10 165 6Q122 22 92 51.5Q62 81 46 123Q30 165 30 217Q30 282 50 338.5Q70 395 107 436.5Q144 478 197 501.5Q250 525 316 525Q413 525 466.5 486.5Q520 448 520 382Q520 333 490.5 301Q461 269 415 249.5Q369 230 312.5 222Q256 214 201 214V194Q201 138 229 106Q257 74 308 74Q358 74 387.5 101.5Q417 129 436 172L498 150Q486 117 466.5 88Q447 59 418.5 37.5Q390 16 351 3Q312 -10 261 -10ZM306 453Q284 453 266.5 438.5Q249 424 236.5 399Q224 374 216 341Q208 308 205 270Q274 274 311.5 305.5Q349 337 349 394Q349 420 339 436.5Q329 453 306 453Z" glyph-name="e" horiz-adv-x="539" unicode="e" /><glyph d="M261 -10Q208 -10 165 6Q122 22 92 51.5Q62 81 46 123Q30 165 30 217Q30 282 50 338.5Q70 395 107 436.5Q144 478 197 501.5Q250 525 316 525Q413 525 466.5 486.5Q520 448 520 382Q520 333 490.5 301Q461 269 415 249.5Q369 230 312.5 222Q256 214 201 214V194Q201 138 229 106Q257 74 308 74Q358 74 387.5 101.5Q417 129 436 172L498 150Q486 117 466.5 88Q447 59 418.5 37.5Q390 16 351 3Q312 -10 261 -10ZM306 453Q284 453 266.5 438.5Q249 424 236.5 399Q224 374 216 341Q208 308 205 270Q274 274 311.5 305.5Q349 337 349 394Q349 420 339 436.5Q329 453 306 453ZM266 613 330 698Q368 748 400 764Q432 780 465 780Q501 780 514.5 767Q528 754 527 735Q526 713 503 693.5Q480 674 415 648L323 613Z" glyph-name="eacute" horiz-adv-x="539" unicode="&#233;" /><glyph d="M261 -10Q208 -10 165 6Q122 22 92 51.5Q62 81 46 123Q30 165 30 217Q30 282 50 338.5Q70 395 107 436.5Q144 478 197 501.5Q250 525 316 525Q413 525 466.5 486.5Q520 448 520 382Q520 333 490.5 301Q461 269 415 249.5Q369 230 312.5 222Q256 214 201 214V194Q201 138 229 106Q257 74 308 74Q358 74 387.5 101.5Q417 129 436 172L498 150Q486 117 466.5 88Q447 59 418.5 37.5Q390 16 351 3Q312 -10 261 -10ZM306 453Q284 453 266.5 438.5Q249 424 236.5 399Q224 374 216 341Q208 308 205 270Q274 274 311.5 305.5Q349 337 349 394Q349 420 339 436.5Q329 453 306 453ZM136 613 324 787H375L515 613H439L338 688L212 613Z" glyph-name="ecircumflex" horiz-adv-x="539" unicode="&#234;" /><glyph d="M261 -10Q208 -10 165 6Q122 22 92 51.5Q62 81 46 123Q30 165 30 217Q30 282 50 338.5Q70 395 107 436.5Q144 478 197 501.5Q250 525 316 525Q413 525 466.5 486.5Q520 448 520 382Q520 333 490.5 301Q461 269 415 249.5Q369 230 312.5 222Q256 214 201 214V194Q201 138 229 106Q257 74 308 74Q358 74 387.5 101.5Q417 129 436 172L498 150Q486 117 466.5 88Q447 59 418.5 37.5Q390 16 351 3Q312 -10 261 -10ZM306 453Q284 453 266.5 438.5Q249 424 236.5 399Q224 374 216 341Q208 308 205 270Q274 274 311.5 305.5Q349 337 349 394Q349 420 339 436.5Q329 453 306 453ZM526 697Q526 659 500.5 633.5Q475 608 435 608Q400 608 381.5 628Q363 648 363 676Q363 715 388.5 740.5Q414 766 453 766Q489 766 507.5 745.5Q526 725 526 697ZM308 697Q308 659 282.5 633.5Q257 608 217 608Q182 608 163.5 628Q145 648 145 676Q145 715 170.5 740.5Q196 766 236 766Q271 766 289.5 745.5Q308 725 308 697Z" glyph-name="edieresis" horiz-adv-x="539" unicode="&#235;" /><glyph d="M261 -10Q208 -10 165 6Q122 22 92 51.5Q62 81 46 123Q30 165 30 217Q30 282 50 338.5Q70 395 107 436.5Q144 478 197 501.5Q250 525 316 525Q413 525 466.5 486.5Q520 448 520 382Q520 333 490.5 301Q461 269 415 249.5Q369 230 312.5 222Q256 214 201 214V194Q201 138 229 106Q257 74 308 74Q358 74 387.5 101.5Q417 129 436 172L498 150Q486 117 466.5 88Q447 59 418.5 37.5Q390 16 351 3Q312 -10 261 -10ZM306 453Q284 453 266.5 438.5Q249 424 236.5 399Q224 374 216 341Q208 308 205 270Q274 274 311.5 305.5Q349 337 349 394Q349 420 339 436.5Q329 453 306 453ZM246 648Q216 661 198.5 671.5Q181 682 171 691.5Q161 701 158 709.5Q155 718 155 726Q155 749 175.5 764.5Q196 780 231 780Q264 780 289 766.5Q314 753 335 712L387 613H329Z" glyph-name="egrave" horiz-adv-x="539" unicode="&#232;" /><glyph d="M614 211Q614 168 594.5 128Q575 88 535.5 57Q496 26 437 8Q378 -10 298 -10Q228 -10 177.5 4Q127 18 94 42Q61 66 45.5 97.5Q30 129 30 165Q30 201 40.5 232.5Q51 264 76 290Q101 316 141 336Q181 356 240 369Q163 391 129 426Q95 461 95 509Q95 548 114.5 582.5Q134 617 170.5 643Q207 669 261 684.5Q315 700 384 700Q442 700 488 688.5Q534 677 566 656.5Q598 636 615 607.5Q632 579 632 545Q632 487 588.5 439.5Q545 392 453 369Q541 347 577.5 307Q614 267 614 211ZM278 491Q278 449 296 424Q314 399 350 399Q370 399 387.5 410.5Q405 422 418 442Q431 462 438.5 488Q446 514 446 543Q446 581 428.5 606Q411 631 375 631Q351 631 333 618Q315 605 302.5 584.5Q290 564 284 539.5Q278 515 278 491ZM217 161Q217 113 240 86Q263 59 305 59Q335 59 358 73.5Q381 88 396.5 111.5Q412 135 419.5 164Q427 193 427 223Q427 274 406 302.5Q385 331 339 331Q311 331 288 317.5Q265 304 249.5 280.5Q234 257 225.5 226.5Q217 196 217 161Z" glyph-name="eight" horiz-adv-x="660" unicode="8" /><glyph d="M210 -157Q154 -157 114 -147Q74 -137 49.5 -119.5Q25 -102 14.5 -78.5Q4 -55 7 -29Q13 16 47 45Q81 74 156 89Q95 104 70 130.5Q45 157 50 194Q55 245 112.5 276Q170 307 265 307Q359 307 410 276Q461 245 455 194Q450 157 419 130Q388 103 326 89Q395 75 421 45.5Q447 16 441 -29Q438 -55 422.5 -78.5Q407 -102 378 -119.5Q349 -137 307.5 -147Q266 -157 210 -157ZM243 115Q266 115 282 134Q298 153 303 186Q306 215 294.5 233.5Q283 252 259 252Q233 252 217.5 233Q202 214 198 186Q194 153 205.5 134Q217 115 243 115ZM216 -102Q245 -102 265 -80Q285 -58 290 -20Q295 17 280 39Q265 61 236 61Q207 61 186.5 39Q166 17 161 -21Q156 -59 171.5 -80.5Q187 -102 216 -102Z" glyph-name="eight.inferior" horiz-adv-x="495" /><glyph d="M288 -10Q216 -10 165 5Q114 20 83 45.5Q52 71 38.5 105Q25 139 28 176Q31 210 42.5 239.5Q54 269 78 293.5Q102 318 139.5 336.5Q177 355 232 367Q152 387 120 427Q88 467 93 519Q96 557 117 590Q138 623 174 647.5Q210 672 260.5 686Q311 700 374 700Q495 700 556.5 653.5Q618 607 614 536Q611 481 571 434.5Q531 388 443 367Q489 356 519.5 340Q550 324 568 302.5Q586 281 592 255Q598 229 596 199Q593 159 573.5 121.5Q554 84 516.5 55Q479 26 422 8Q365 -10 288 -10ZM338 398Q376 398 403 435.5Q430 473 434 531Q437 574 419 603.5Q401 633 366 633Q345 633 328.5 622.5Q312 612 300 594.5Q288 577 281 555Q274 533 272 509Q269 458 285.5 428Q302 398 338 398ZM296 57Q350 57 380.5 98Q411 139 415 202Q419 265 397.5 298.5Q376 332 330 332Q279 332 248.5 291.5Q218 251 211 178Q206 123 229 90Q252 57 296 57Z" glyph-name="eight.old" horiz-adv-x="640" /><glyph d="M558 169Q558 132 540.5 99.5Q523 67 488 43Q453 19 399 5.5Q345 -8 271 -8Q207 -8 160 3Q113 14 82.5 33Q52 52 37.5 77.5Q23 103 23 132Q23 161 32.5 186Q42 211 63.5 231.5Q85 252 121 267.5Q157 283 210 293Q140 310 108 338Q76 366 76 406Q76 438 93.5 465.5Q111 493 144.5 513.5Q178 534 227 546Q276 558 339 558Q448 558 510 524Q572 490 572 434Q572 386 533 348.5Q494 311 410 293Q490 276 524 245.5Q558 215 558 169ZM252 388Q252 357 268 339Q284 321 313 321Q330 321 344 330Q358 339 369 354.5Q380 370 386 390Q392 410 392 431Q392 459 376.5 477.5Q361 496 332 496Q312 496 297 485.5Q282 475 272 459Q262 443 257 424Q252 405 252 388ZM204 128Q204 94 223.5 74Q243 54 278 54Q303 54 322 65Q341 76 353.5 94Q366 112 372 135Q378 158 378 181Q378 219 360 239.5Q342 260 304 260Q280 260 261.5 249.5Q243 239 230 221Q217 203 210.5 179Q204 155 204 128Z" glyph-name="eight.sc" horiz-adv-x="606" /><glyph d="M290 427Q234 427 194 437Q154 447 129.5 464.5Q105 482 94.5 505.5Q84 529 87 555Q93 600 127 629Q161 658 236 673Q175 688 150 714.5Q125 741 130 778Q135 829 192.5 860Q250 891 345 891Q439 891 490 860Q541 829 535 778Q530 741 499 714Q468 687 406 673Q475 659 501 629.5Q527 600 521 555Q518 529 502.5 505.5Q487 482 458 464.5Q429 447 387.5 437Q346 427 290 427ZM323 699Q346 699 362 718Q378 737 383 770Q386 799 374.5 817.5Q363 836 339 836Q313 836 297.5 817Q282 798 278 770Q274 737 285.5 718Q297 699 323 699ZM296 482Q325 482 345 504Q365 526 370 564Q375 601 360 623Q345 645 316 645Q287 645 266.5 623Q246 601 241 563Q236 525 251.5 503.5Q267 482 296 482Z" glyph-name="eight.superior" horiz-adv-x="530" /><glyph d="M591 196Q588 157 568.5 119.5Q549 82 511.5 53.5Q474 25 418.5 7.5Q363 -10 288 -10Q218 -10 168.5 5Q119 20 88 46Q57 72 43.5 106Q30 140 33 177Q35 211 47 241Q59 271 83.5 295.5Q108 320 146.5 338.5Q185 357 241 369Q161 392 127.5 430Q94 468 98 520Q101 558 121 591Q141 624 176.5 648Q212 672 262 686Q312 700 374 700Q432 700 477 687.5Q522 675 552.5 653.5Q583 632 598 601.5Q613 571 610 535Q606 480 562.5 436Q519 392 431 369Q525 346 560.5 302Q596 258 591 196ZM275 510Q271 459 287.5 429Q304 399 341 399Q377 399 401.5 435Q426 471 430 531Q433 574 417 602.5Q401 631 366 631Q345 631 328.5 621Q312 611 301 594Q290 577 283.5 555Q277 533 275 510ZM214 179Q210 124 232 91.5Q254 59 296 59Q323 59 343 70Q363 81 377.5 100.5Q392 120 400 145.5Q408 171 410 200Q415 262 395.5 296.5Q376 331 330 331Q279 331 249 288.5Q219 246 214 179Z" glyph-name="eight.tln" horiz-adv-x="640" /><glyph d="M288 -10Q219 -10 170.5 5Q122 20 92 45.5Q62 71 49.5 105Q37 139 40 176Q42 209 54 239Q66 269 90 293.5Q114 318 151.5 336.5Q189 355 244 367Q164 387 132.5 427Q101 467 105 519Q108 557 127.5 590Q147 623 181.5 647.5Q216 672 265 686Q314 700 374 700Q432 700 476 687.5Q520 675 549 653.5Q578 632 592 602Q606 572 603 536Q599 481 559.5 434.5Q520 388 432 367Q478 356 508.5 340Q539 324 556.5 302.5Q574 281 580 255Q586 229 584 199Q581 159 562 121.5Q543 84 507 54.5Q471 25 416.5 7.5Q362 -10 288 -10ZM338 398Q374 398 399 435.5Q424 473 428 531Q431 574 415 603.5Q399 633 366 633Q346 633 331 622.5Q316 612 305 594.5Q294 577 287.5 555Q281 533 278 509Q273 458 289 428Q305 398 338 398ZM296 57Q347 57 376 98Q405 139 409 202Q413 265 393 298.5Q373 332 330 332Q282 332 251.5 291.5Q221 251 217 178Q214 123 234.5 90Q255 57 296 57Z" glyph-name="eight.ton" horiz-adv-x="640" /><glyph d="M85 468H481L471 389H75ZM65 308H461L452 229H56Z" glyph-name="equal" horiz-adv-x="514" unicode="=" /><glyph d="M73 388H469L459 309H63ZM53 228H449L440 149H44Z" glyph-name="equal.old" horiz-adv-x="508" /><glyph d="M72 377H425L417 306H64ZM56 249H410L401 179H48Z" glyph-name="equal.sc" horiz-adv-x="467" /><glyph d="M148 468H544L534 389H138ZM128 308H524L515 229H119Z" glyph-name="equal.tln" horiz-adv-x="640" /><glyph d="M138 388H534L524 309H128ZM118 228H514L505 149H109Z" glyph-name="equal.ton" horiz-adv-x="640" /><glyph d="M268 -10Q210 -10 165.5 8Q121 26 91 57Q61 88 45.5 130Q30 172 30 220Q30 285 50 340.5Q70 396 107 437Q144 478 197.5 501.5Q251 525 318 525Q338 525 354 521Q370 517 382 512Q376 541 364.5 566.5Q353 592 337 613L269 565H170L291 651Q245 682 172 691L182 760Q236 757 283.5 744Q331 731 373 709L439 757H538L426 676Q495 621 532.5 539Q570 457 570 357Q570 275 549 207.5Q528 140 489 91.5Q450 43 394 16.5Q338 -10 268 -10ZM277 67Q304 67 326 92Q348 117 363 161Q378 205 386 265.5Q394 326 394 398Q394 406 393.5 412.5Q393 419 393 426Q383 435 369 441.5Q355 448 337 448Q305 448 281 426Q257 404 241 368Q225 332 217 285Q209 238 209 188Q209 135 226 101Q243 67 277 67Z" glyph-name="eth" horiz-adv-x="597" unicode="&#240;" /><glyph d="M130 206Q141 291 133.5 347Q126 403 114 444Q102 485 91.5 518.5Q81 552 86 591Q89 620 102.5 640.5Q116 661 135 674Q154 687 176.5 693.5Q199 700 220 700Q242 700 263 694Q284 688 300 674.5Q316 661 324 640.5Q332 620 329 591Q324 551 306 517.5Q288 484 266.5 443Q245 402 224.5 346.5Q204 291 193 206ZM230 80Q230 41 203.5 15.5Q177 -10 137 -10Q102 -10 82 9.5Q62 29 62 60Q62 98 88 124.5Q114 151 154 151Q188 151 209 131.5Q230 112 230 80Z" glyph-name="exclam" horiz-adv-x="333" unicode="!" /><glyph d="M124 168Q132 234 123 274Q114 314 101 342.5Q88 371 77 396Q66 421 70 457Q73 485 86.5 504Q100 523 118.5 535Q137 547 159 552.5Q181 558 201 558Q221 558 241.5 553Q262 548 277.5 536Q293 524 301.5 504.5Q310 485 307 457Q303 420 286 395Q269 370 249.5 341.5Q230 313 211.5 273.5Q193 234 185 168ZM220 71Q220 35 195.5 13.5Q171 -8 134 -8Q102 -8 83 8.5Q64 25 64 54Q64 87 88 109.5Q112 132 149 132Q181 132 200.5 115Q220 98 220 71Z" glyph-name="exclam.sc" horiz-adv-x="328" /><glyph d="M284 206Q295 291 287.5 347Q280 403 268 444Q256 485 245.5 518.5Q235 552 240 591Q243 620 256.5 640.5Q270 661 289 674Q308 687 330.5 693.5Q353 700 374 700Q396 700 417 694Q438 688 454 674.5Q470 661 478 640.5Q486 620 483 591Q478 551 460 517.5Q442 484 420.5 443Q399 402 378.5 346.5Q358 291 347 206ZM384 80Q384 41 357.5 15.5Q331 -10 291 -10Q256 -10 236 9.5Q216 29 216 60Q216 98 242 124.5Q268 151 308 151Q342 151 363 131.5Q384 112 384 80Z" glyph-name="exclam.tln" horiz-adv-x="640" /><glyph d="M199 309Q189 224 196 168Q203 112 215 71Q227 30 237.5 -3.5Q248 -37 243 -76Q240 -105 226.5 -125.5Q213 -146 194 -159Q175 -172 152.5 -178.5Q130 -185 109 -185Q87 -185 66 -179Q45 -173 29 -159.5Q13 -146 5 -125.5Q-3 -105 0 -76Q5 -36 23 -2.5Q41 31 62.5 72Q84 113 105 168.5Q126 224 136 309ZM99 435Q99 474 125.5 499.5Q152 525 192 525Q227 525 247 505.5Q267 486 267 455Q267 417 241 390.5Q215 364 175 364Q141 364 120 383.5Q99 403 99 435Z" glyph-name="exclamdown" horiz-adv-x="322" unicode="&#161;" /><glyph d="M230 484Q220 399 227 343Q234 287 246 246Q258 205 268.5 171.5Q279 138 274 99Q271 71 257.5 50Q244 29 225 16Q206 3 183.5 -3.5Q161 -10 140 -10Q118 -10 97 -4Q76 2 60 15.5Q44 29 36 49.5Q28 70 31 99Q36 139 54 172.5Q72 206 93.5 247Q115 288 136 343.5Q157 399 167 484ZM130 610Q130 649 156.5 674.5Q183 700 223 700Q258 700 278 680.5Q298 661 298 630Q298 592 272 565.5Q246 539 206 539Q172 539 151 558.5Q130 578 130 610Z" glyph-name="exclamdown.cap" horiz-adv-x="344" /><glyph d="M114 480Q114 515 138 536.5Q162 558 200 558Q232 558 251 541.5Q270 525 270 498Q270 463 246 440.5Q222 418 185 418Q153 418 133.5 435Q114 452 114 480ZM210 382Q202 316 211 276Q220 236 233 207.5Q246 179 257 154Q268 129 264 93Q261 65 247.5 46Q234 27 215 15Q196 3 174.5 -2.5Q153 -8 133 -8Q113 -8 92.5 -2.5Q72 3 56 15Q40 27 31.5 46Q23 65 27 93Q32 130 48.5 155Q65 180 84.5 208.5Q104 237 122.5 276.5Q141 316 149 382Z" glyph-name="exclamdown.sc" horiz-adv-x="328" /><glyph d="M358 309Q348 224 355 168Q362 112 374 71Q386 30 396.5 -3.5Q407 -37 402 -76Q399 -105 385.5 -125.5Q372 -146 353 -159Q334 -172 311.5 -178.5Q289 -185 268 -185Q246 -185 225 -179Q204 -173 188 -159.5Q172 -146 164 -125.5Q156 -105 159 -76Q164 -36 182 -2.5Q200 31 221.5 72Q243 113 264 168.5Q285 224 295 309ZM258 435Q258 474 284.5 499.5Q311 525 351 525Q386 525 406 505.5Q426 486 426 455Q426 417 400 390.5Q374 364 334 364Q300 364 279 383.5Q258 403 258 435Z" glyph-name="exclamdown.tln" horiz-adv-x="640" /><glyph d="M-29 -260Q-97 -260 -141.5 -236.5Q-186 -213 -186 -167Q-186 -133 -165.5 -108.5Q-145 -84 -103 -84Q-69 -84 -50.5 -101.5Q-32 -119 -32 -148Q-32 -174 -45 -193Q-1 -193 17.5 -160.5Q36 -128 42 -77L105 435H38L48 512H116L118 526Q127 588 151 633Q175 678 210 707Q245 736 288.5 750Q332 764 379 764Q413 764 442 758Q471 752 492 740.5Q513 729 525 712Q537 695 537 672Q537 637 516 612.5Q495 588 453 588Q419 588 400.5 606Q382 624 382 653Q382 664 385 675.5Q388 687 396 698H389Q315 698 301 582L292 512H406L397 435H283L227 -20Q213 -132 145 -196Q77 -260 -29 -260Z" glyph-name="f" horiz-adv-x="382" unicode="f" /><glyph d="M-29 -260Q-103 -260 -144.5 -234.5Q-186 -209 -186 -164Q-186 -131 -165.5 -106.5Q-145 -82 -103 -82Q-69 -82 -50.5 -99.5Q-32 -117 -32 -146Q-32 -159 -37 -170.5Q-42 -182 -54 -189Q-50 -190 -45.5 -190.5Q-41 -191 -35 -191Q2 -189 19 -158Q36 -127 42 -80L105 435H38L48 512H146Q131 515 114 522.5Q97 530 83 542.5Q69 555 59.5 573.5Q50 592 50 617Q50 686 106.5 723Q163 760 262 760Q343 760 388 735Q433 710 433 658Q433 626 411 602.5Q389 579 349 579Q315 579 295.5 595Q276 611 276 635Q276 649 280 662Q284 675 296 686Q277 689 261 689Q200 689 174 667Q148 645 148 613Q148 564 216.5 538Q285 512 408 512L399 435H283L227 -20Q213 -132 146 -196Q79 -260 -29 -260Z" glyph-name="f.alt" horiz-adv-x="384" /><glyph d="M708 438Q668 438 645.5 394.5Q623 351 612 278Q610 268 609 253.5Q608 239 608 229Q603 160 618.5 118.5Q634 77 673 77Q699 77 718.5 97Q738 117 751 150.5Q764 184 770 228Q776 272 776 319Q776 375 759 406.5Q742 438 708 438ZM-29 -260Q-97 -260 -141.5 -236.5Q-186 -213 -186 -168Q-186 -133 -165.5 -108.5Q-145 -84 -103 -84Q-69 -84 -50.5 -101.5Q-32 -119 -32 -148Q-32 -173 -46 -193Q-2 -193 17 -161Q36 -129 42 -80L105 435H38L48 512H116L117 523Q125 587 149.5 632.5Q174 678 209.5 707.5Q245 737 289 751Q333 765 381 765Q413 765 436 761.5Q459 758 479 754Q499 750 518 746.5Q537 743 559 743Q594 743 614.5 752Q635 761 643 764L668 758L651 614Q644 555 638.5 516Q633 477 625 440Q651 484 691 504.5Q731 525 776 525Q817 525 850 508.5Q883 492 906.5 463Q930 434 943 393.5Q956 353 956 305Q956 243 940 186Q924 129 893 85.5Q862 42 818.5 16Q775 -10 721 -10Q674 -10 637 9.5Q600 29 574 71L444 -6H401L480 679Q471 687 456 692.5Q441 698 419 698Q362 698 335 664Q308 630 300 568L292 512H407L398 435H283L226 -20Q212 -132 144 -196Q76 -260 -29 -260Z" glyph-name="f_b" horiz-adv-x="986" /><glyph d="M704 442Q681 442 663.5 425.5Q646 409 634 380.5Q622 352 615.5 313Q609 274 606 229Q601 158 616 115.5Q631 73 669 73Q695 73 713.5 94Q732 115 744.5 149.5Q757 184 763 228Q769 272 769 319Q769 377 753 409.5Q737 442 704 442ZM38 435 48 512H146Q130 516 111.5 524Q93 532 77 545Q61 558 51.5 577.5Q42 597 44 624Q49 689 113.5 724.5Q178 760 323 760Q367 760 398.5 758Q430 756 455 753Q480 750 502.5 748Q525 746 550 746Q599 746 618 749.5Q637 753 649 760L665 750L649 614Q641 555 635.5 516Q630 477 622 440Q649 484 688 504.5Q727 525 772 525Q812 525 844.5 508.5Q877 492 900.5 463Q924 434 936.5 393.5Q949 353 949 305Q949 242 933 185Q917 128 887 84.5Q857 41 814 15.5Q771 -10 717 -10Q671 -10 634 9.5Q597 29 571 71L441 -6H399L477 674Q455 680 415.5 684.5Q376 689 322 689Q235 689 189.5 668.5Q144 648 142 609Q139 564 204.5 538Q270 512 408 512L399 435H283L227 -20Q213 -133 145 -196.5Q77 -260 -29 -260Q-97 -260 -141.5 -236.5Q-186 -213 -186 -167Q-186 -133 -165.5 -108.5Q-145 -84 -103 -84Q-69 -84 -50.5 -101.5Q-32 -119 -32 -148Q-32 -162 -37.5 -174Q-43 -186 -51 -193Q-49 -193 -47 -194Q-42 -194 -37 -194Q-18 -194 -4.5 -185Q9 -176 18.5 -160.5Q28 -145 33.5 -124Q39 -103 42 -80L105 435Z" glyph-name="f_b.alt" horiz-adv-x="979" /><glyph d="M10 0 20 72H75L124 478H69L78 550H564L542 366H455L458 389Q465 442 444 460Q423 478 362 478H301L282 309H358L366 369H427L404 186H343L350 240H273L252 72H333L324 0ZM562 72H617L666 478H611L620 550H931Q977 550 1016.5 542.5Q1056 535 1085 519.5Q1114 504 1130.5 480.5Q1147 457 1147 425Q1147 371 1099 332.5Q1051 294 965 287Q1003 284 1035 275.5Q1067 267 1090.5 252Q1114 237 1127.5 215.5Q1141 194 1141 165Q1141 90 1073 45Q1005 0 872 0H552ZM844 481 824 314H859Q908 314 937.5 339.5Q967 365 967 409Q967 445 943.5 463Q920 481 878 481ZM816 249 794 69H837Q892 69 926 93Q960 117 960 169Q960 214 931 231.5Q902 249 857 249Z" glyph-name="f_b.alt.sc" horiz-adv-x="1181" /><glyph d="M10 0 20 72H75L124 478H69L78 550H564L542 366H455L458 390Q465 441 444.5 459.5Q424 478 362 478H301L282 309L422 320L411 229L273 241L252 72H333L324 0ZM553 72H608L657 478H602L611 550H922Q968 550 1007.5 542.5Q1047 535 1076 519.5Q1105 504 1121.5 480.5Q1138 457 1138 425Q1138 371 1090 332.5Q1042 294 956 287Q994 284 1026 275.5Q1058 267 1081.5 252Q1105 237 1118.5 215.5Q1132 194 1132 165Q1132 90 1064 45Q996 0 863 0H543ZM835 481 815 314H850Q899 314 928.5 339.5Q958 365 958 409Q958 445 934.5 463Q911 481 869 481ZM807 249 785 69H828Q883 69 917 93Q951 117 951 169Q951 214 922 231.5Q893 249 848 249Z" glyph-name="f_b.sc" horiz-adv-x="1172" /><glyph d="M466 530Q470 563 480 591.5Q490 620 504 643Q491 654 470.5 661Q450 668 421 668Q365 668 336 641.5Q307 615 297 544L292 512H464ZM292 -130Q349 -130 370.5 -99.5Q392 -69 399 -10L453 435H283L226 -20Q224 -42 219 -62.5Q214 -83 207 -101Q225 -115 245.5 -122.5Q266 -130 292 -130ZM171 -165Q136 -211 86 -235.5Q36 -260 -29 -260Q-97 -260 -141.5 -236.5Q-186 -213 -186 -166Q-186 -132 -165.5 -108Q-145 -84 -103 -84Q-69 -84 -50.5 -101.5Q-32 -119 -32 -149Q-32 -157 -34 -169.5Q-36 -182 -44 -193Q-21 -192 -5.5 -183Q10 -174 19.5 -158.5Q29 -143 34 -123Q39 -103 42 -80L105 435H38L48 512H116L118 527Q126 583 150 623Q174 663 210.5 689Q247 715 293 727.5Q339 740 390 740Q442 740 483 729Q524 718 552 699Q588 733 633.5 748.5Q679 764 728 764Q762 764 791 758Q820 752 841 740.5Q862 729 874 712Q886 695 886 672Q886 637 865.5 612.5Q845 588 803 588Q768 588 749.5 605.5Q731 623 731 652Q731 660 733 672.5Q735 685 743 697Q717 697 700.5 688Q684 679 673.5 663.5Q663 648 657.5 627Q652 606 649 582L640 512H755L746 435H631L583 56Q567 -75 501 -139Q435 -203 320 -203Q269 -203 232.5 -192.5Q196 -182 171 -165Z" glyph-name="f_f" horiz-adv-x="731" unicode="&#64256;" /><glyph d="M487 512Q468 515 447.5 523Q427 531 410.5 544.5Q394 558 383.5 577Q373 596 373 621Q373 632 375 642Q377 652 380 662Q364 668 345 671.5Q326 675 300 675Q230 675 191.5 656.5Q153 638 151 606Q148 562 209.5 537Q271 512 408 512ZM291 -121Q343 -121 364 -89.5Q385 -58 393 0L446 435H283L227 -20Q224 -42 219.5 -62Q215 -82 208 -99Q225 -109 246.5 -115Q268 -121 291 -121ZM38 435 48 512H146Q131 516 114 523.5Q97 531 82.5 543.5Q68 556 59.5 575Q51 594 53 621Q57 679 117.5 712.5Q178 746 301 746Q345 746 378 739.5Q411 733 436 723Q493 760 591 760Q627 760 660 754Q693 748 718 735Q743 722 758 703Q773 684 773 658Q773 626 751 602.5Q729 579 689 579Q656 579 636.5 596Q617 613 617 643Q617 668 635 681Q623 685 610 687Q597 689 580 689Q529 689 500 667Q471 645 471 613Q471 564 544.5 538Q618 512 749 512L740 435H624L574 33Q560 -73 497 -133.5Q434 -194 325 -194Q277 -194 240 -186Q203 -178 174 -164Q140 -211 88.5 -235.5Q37 -260 -29 -260Q-97 -260 -141.5 -236.5Q-186 -213 -186 -167Q-186 -133 -165.5 -108.5Q-145 -84 -103 -84Q-69 -84 -50.5 -101.5Q-32 -119 -32 -148Q-32 -162 -37.5 -174Q-43 -186 -51 -193Q-49 -193 -47 -194Q-42 -194 -37 -194Q-18 -194 -4.5 -185Q9 -176 18.5 -160.5Q28 -145 33.5 -124Q39 -103 42 -80L105 435Z" glyph-name="f_f.alt" horiz-adv-x="725" /><glyph d="M10 0 20 72H75L124 478H69L78 550H564L542 366H455L458 389Q465 442 444 460Q423 478 362 478H301L282 309H358L366 369H427L404 186H343L350 240H273L252 72H333L324 0ZM552 0 562 72H617L666 478H611L620 550H1106L1084 366H997L1000 389Q1007 442 986 460Q965 478 904 478H843L824 309H900L908 369H969L946 186H885L892 240H815L794 72H875L866 0Z" glyph-name="f_f.alt.sc" horiz-adv-x="1088" /><glyph d="M10 0 20 72H75L124 478H69L78 550H564L542 366H455L458 390Q465 441 444.5 459.5Q424 478 362 478H301L282 309L422 320L411 229L273 241L252 72H333L324 0ZM543 0 553 72H608L657 478H602L611 550H1097L1075 366H988L991 390Q998 441 977.5 459.5Q957 478 895 478H834L815 309L955 320L944 229L806 241L785 72H866L857 0Z" glyph-name="f_f.sc" horiz-adv-x="1080" /><glyph d="M466 528Q475 595 509 645Q495 654 473.5 661Q452 668 421 668Q366 668 337 641.5Q308 615 298 544L294 512H464ZM292 -130Q349 -130 370.5 -99.5Q392 -69 399 -10L453 435H285L228 -20Q222 -66 207 -103Q223 -114 245 -122Q267 -130 292 -130ZM321 -203Q267 -203 230 -191Q193 -179 171 -166Q137 -211 86 -235.5Q35 -260 -29 -260Q-97 -260 -141.5 -235.5Q-186 -211 -186 -159Q-186 -130 -167.5 -107Q-149 -84 -104 -84Q-71 -84 -51.5 -101.5Q-32 -119 -32 -148Q-32 -178 -47 -193Q-23 -191 -7 -182Q9 -173 18.5 -158Q28 -143 33.5 -123Q39 -103 42 -80L105 435H38L48 512H116L119 534Q128 588 152.5 627Q177 666 213 691Q249 716 294.5 728Q340 740 391 740Q453 740 495 726.5Q537 713 561 699Q606 733 664.5 748.5Q723 764 786 764Q815 764 848.5 759.5Q882 755 911 744Q940 733 959 713Q978 693 978 663Q978 633 955 609Q932 585 891 585Q856 585 837 604.5Q818 624 818 650Q818 662 822 672.5Q826 683 836 691Q826 694 816 696Q806 698 792 698Q765 698 740.5 690.5Q716 683 696.5 666Q677 649 663.5 620Q650 591 645 549L640 512H735Q801 512 842 512.5Q883 513 907.5 514.5Q932 516 943.5 518.5Q955 521 963 525L979 515L930 118Q926 78 948 78Q962 78 972.5 98.5Q983 119 990 166H1054Q1043 78 1004.5 34Q966 -10 895 -10Q861 -10 833.5 -0.5Q806 9 787 28.5Q768 48 759.5 79Q751 110 756 152L791 435H631L584 56Q551 -203 321 -203Z" glyph-name="f_f_i" horiz-adv-x="1060" unicode="&#64259;" /><glyph d="M488 512Q474 515 458 522.5Q442 530 428.5 542.5Q415 555 406 572.5Q397 590 397 614Q397 635 405 656Q385 664 360 669.5Q335 675 300 675Q230 675 191.5 656.5Q153 638 151 606Q148 562 209.5 537Q271 512 408 512ZM291 -121Q343 -121 364 -89.5Q385 -58 393 0L446 435H283L227 -20Q224 -42 219.5 -62Q215 -82 208 -99Q225 -109 246.5 -115Q268 -121 291 -121ZM38 435 48 512H146Q131 516 114 523.5Q97 531 82.5 543.5Q68 556 59.5 575Q51 594 53 621Q57 679 117.5 712.5Q178 746 301 746Q359 746 399 736Q439 726 462 714Q540 760 686 760Q743 760 794 753Q845 746 883.5 732Q922 718 944.5 697Q967 676 967 647Q967 613 946.5 590Q926 567 888 567Q850 567 829.5 584Q809 601 809 631Q809 656 828 669Q804 677 770.5 683Q737 689 689 689Q648 689 613.5 684Q579 679 554 668.5Q529 658 515 643Q501 628 501 608Q501 563 566 537.5Q631 512 746 512Q806 512 843.5 512.5Q881 513 903 514.5Q925 516 936 518.5Q947 521 954 525L970 515L922 118Q918 78 940 78Q954 78 964.5 98.5Q975 119 982 166H1045Q1034 78 996 34Q958 -10 887 -10Q853 -10 825.5 -0.5Q798 9 779 28.5Q760 48 751.5 79Q743 110 748 152L783 435H624L574 33Q560 -73 497 -133.5Q434 -194 325 -194Q277 -194 240 -186Q203 -178 174 -164Q140 -211 88.5 -235.5Q37 -260 -29 -260Q-97 -260 -141.5 -236.5Q-186 -213 -186 -167Q-186 -133 -165.5 -108.5Q-145 -84 -103 -84Q-69 -84 -50.5 -101.5Q-32 -119 -32 -148Q-32 -162 -37.5 -174Q-43 -186 -51 -193Q-49 -193 -47 -194Q-42 -194 -37 -194Q-18 -194 -4.5 -185Q9 -176 18.5 -160.5Q28 -145 33.5 -124Q39 -103 42 -80L105 435Z" glyph-name="f_f_i.alt" horiz-adv-x="1052" /><glyph d="M10 0 20 72H75L124 478H69L78 550H564L542 366H455L458 389Q465 442 444 460Q423 478 362 478H301L282 309H358L366 369H427L404 186H343L350 240H273L252 72H333L324 0ZM1095 0 1105 72H1160L1209 478H1154L1163 550H1452L1443 478H1386L1337 72H1394L1384 0ZM552 0 562 72H617L666 478H611L620 550H1106L1084 366H997L1000 389Q1007 442 986 460Q965 478 904 478H843L824 309H900L908 369H969L946 186H885L892 240H815L794 72H875L866 0Z" glyph-name="f_f_i.alt.sc" horiz-adv-x="1456" /><glyph d="M10 0 20 72H75L124 478H69L78 550H564L542 366H455L458 390Q465 441 444.5 459.5Q424 478 362 478H301L282 309L422 320L411 229L273 241L252 72H333L324 0ZM543 0 553 72H608L657 478H602L611 550H1097L1075 366H988L991 390Q998 441 977.5 459.5Q957 478 895 478H834L815 309L955 320L944 229L806 241L785 72H866L857 0ZM1076 0 1086 72H1141L1190 478H1135L1144 550H1433L1424 478H1367L1318 72H1375L1365 0Z" glyph-name="f_f_i.sc" horiz-adv-x="1437" /><glyph d="M467 535Q479 602 510 648Q496 656 473.5 662Q451 668 419 668Q367 668 337.5 641.5Q308 615 298 544L294 512H463ZM276 -193Q308 -193 328.5 -184.5Q349 -176 361.5 -159.5Q374 -143 381 -119Q388 -95 391 -65L453 435H285L228 -20Q218 -98 180 -154Q200 -177 223.5 -185Q247 -193 276 -193ZM662 -196Q699 -196 713.5 -162Q728 -128 736 -69L797 435H631L574 -20Q570 -57 558 -89Q573 -84 588 -84Q623 -84 642 -102Q661 -120 661 -147Q661 -164 654.5 -176Q648 -188 640 -193Q646 -196 662 -196ZM669 -260Q640 -260 613 -254.5Q586 -249 564.5 -237.5Q543 -226 529.5 -209.5Q516 -193 513 -172Q478 -215 427 -237.5Q376 -260 310 -260Q244 -260 202 -242Q160 -224 138 -201Q106 -230 64 -245Q22 -260 -29 -260Q-97 -260 -141.5 -236.5Q-186 -213 -186 -166Q-186 -133 -165.5 -108.5Q-145 -84 -105 -84Q-70 -84 -51 -101.5Q-32 -119 -32 -149Q-32 -163 -35.5 -175Q-39 -187 -49 -193Q-22 -192 -6 -182.5Q10 -173 20 -158Q30 -143 34.5 -123Q39 -103 42 -80L105 435H38L48 512H116L118 531Q124 586 148.5 625.5Q173 665 211 690.5Q249 716 296.5 728Q344 740 396 740Q456 740 496.5 729.5Q537 719 562 703Q604 735 661 749.5Q718 764 787 764Q823 764 858.5 758Q894 752 921.5 739Q949 726 966.5 707Q984 688 984 661Q984 627 962 606Q940 585 902 585Q864 585 844 604.5Q824 624 824 650Q824 675 843 690Q834 694 822 696Q810 698 793 698Q766 698 741 690.5Q716 683 696.5 666Q677 649 663.5 620Q650 591 644 549L640 512H735Q795 512 837 512.5Q879 513 906.5 514.5Q934 516 949 518.5Q964 521 970 525L985 515L922 0Q915 -61 897.5 -109Q880 -157 849.5 -190.5Q819 -224 775 -242Q731 -260 669 -260Z" glyph-name="f_f_j" horiz-adv-x="1016" /><glyph d="M487 512Q473 515 457.5 522.5Q442 530 428.5 542.5Q415 555 406 572.5Q397 590 397 614Q397 638 406 656Q386 664 360.5 669.5Q335 675 300 675Q230 675 191.5 656.5Q153 638 151 606Q148 562 209.5 537Q271 512 408 512ZM291 -121Q343 -121 364 -89.5Q385 -58 393 0L447 435H283L227 -20Q224 -42 219.5 -62Q215 -82 208 -99Q225 -109 246.5 -115Q268 -121 291 -121ZM-29 -260Q-97 -260 -141.5 -236.5Q-186 -213 -186 -167Q-186 -133 -165.5 -108.5Q-145 -84 -103 -84Q-69 -84 -50.5 -101.5Q-32 -119 -32 -148Q-32 -162 -37.5 -174Q-43 -186 -51 -193Q-49 -193 -47 -194Q-42 -194 -37 -194Q-18 -194 -4.5 -185Q9 -176 18.5 -160.5Q28 -145 33.5 -124Q39 -103 42 -80L105 435H38L48 512H146Q131 516 114 523.5Q97 531 82.5 543.5Q68 556 59.5 575Q51 594 53 621Q57 679 117.5 712.5Q178 746 301 746Q360 746 400 736Q440 726 464 714Q502 737 559 748.5Q616 760 686 760Q748 760 800 752.5Q852 745 889 731Q926 717 946.5 695.5Q967 674 967 645Q967 611 946.5 588Q926 565 887 565Q849 565 828.5 582Q808 599 808 629Q808 642 813.5 651.5Q819 661 826 667Q801 676 767.5 682.5Q734 689 689 689Q601 689 551 668.5Q501 648 501 608Q501 564 563 538Q625 512 738 512Q794 512 832 513Q870 514 894.5 515.5Q919 517 932.5 519.5Q946 522 954 526L970 516L910 32Q934 15 949 -9.5Q964 -34 964 -71Q964 -109 951 -143Q938 -177 912 -202.5Q886 -228 845.5 -243.5Q805 -259 750 -259Q672 -259 627.5 -229.5Q583 -200 583 -150Q583 -114 605.5 -88Q628 -62 672 -62Q707 -62 725.5 -79.5Q744 -97 744 -123Q744 -166 709 -185Q716 -190 725.5 -192Q735 -194 745 -194Q791 -194 816.5 -163.5Q842 -133 842 -91Q842 -44 810 -22Q778 0 730 1L783 435H625L574 33Q560 -73 497 -133.5Q434 -194 325 -194Q277 -194 240 -186Q203 -178 174 -164Q140 -211 88.5 -235.5Q37 -260 -29 -260Z" glyph-name="f_f_j.alt" horiz-adv-x="1006" /><glyph d="M10 0 20 72H75L124 478H69L78 550H564L542 366H455L458 389Q465 442 444 460Q423 478 362 478H301L282 309H358L366 369H427L404 186H343L350 240H273L252 72H333L324 0ZM1440 189Q1428 91 1372.5 42Q1317 -7 1207 -7Q1129 -7 1079 23.5Q1029 54 1029 109Q1029 146 1053 170.5Q1077 195 1119 195Q1151 195 1170 178.5Q1189 162 1189 133Q1189 111 1178 94.5Q1167 78 1153 72Q1158 69 1167 66Q1176 63 1193 63Q1222 63 1237 78.5Q1252 94 1257 136L1299 479H1240L1249 551H1541L1532 479H1476ZM552 0 562 72H617L666 478H611L620 550H1106L1084 366H997L1000 389Q1007 442 986 460Q965 478 904 478H843L824 309H900L908 369H969L946 186H885L892 240H815L794 72H875L866 0Z" glyph-name="f_f_j.alt.sc" horiz-adv-x="1532" /><glyph d="M10 0 20 72H75L124 478H69L78 550H564L542 366H455L458 390Q465 441 444.5 459.5Q424 478 362 478H301L282 309L422 320L411 229L273 241L252 72H333L324 0ZM543 0 553 72H608L657 478H602L611 550H1097L1075 366H988L991 390Q998 441 977.5 459.5Q957 478 895 478H834L815 309L955 320L944 229L806 241L785 72H866L857 0ZM1421 188Q1409 90 1353.5 41Q1298 -8 1188 -8Q1110 -8 1060 22.5Q1010 53 1010 108Q1010 145 1034 169.5Q1058 194 1100 194Q1132 194 1151 177.5Q1170 161 1170 132Q1170 110 1159 93.5Q1148 77 1134 71Q1139 68 1148 65Q1157 62 1174 62Q1203 62 1218 77.5Q1233 93 1238 135L1280 478H1221L1230 550H1522L1513 478H1457Z" glyph-name="f_f_j.sc" horiz-adv-x="1513" /><glyph d="M467 540Q472 570 481 595.5Q490 621 503 644Q489 655 470 661.5Q451 668 425 668Q366 668 336.5 641.5Q307 615 297 544L292 512H463ZM294 -130Q348 -130 369.5 -99.5Q391 -69 398 -10L453 435H283L226 -20Q224 -43 219 -63.5Q214 -84 207 -102Q225 -115 247 -122.5Q269 -130 294 -130ZM170 -167Q136 -212 85.5 -236Q35 -260 -29 -260Q-97 -260 -141.5 -236Q-186 -212 -186 -166Q-186 -132 -165.5 -108Q-145 -84 -103 -84Q-69 -84 -50.5 -101.5Q-32 -119 -32 -148Q-32 -159 -36 -172Q-40 -185 -48 -193Q-24 -192 -7.5 -183Q9 -174 19 -158.5Q29 -143 34 -123Q39 -103 42 -80L105 435H38L48 512H116L120 537Q129 590 153 628.5Q177 667 213 691.5Q249 716 294 728Q339 740 390 740Q447 740 486 727Q525 714 549 699Q586 734 632 749.5Q678 765 728 765Q760 765 783.5 761.5Q807 758 827 754Q847 750 866 746.5Q885 743 907 743Q942 743 962 752Q982 761 990 764L1015 758L938 119Q934 77 958 77Q974 77 982.5 96.5Q991 116 998 166H1062Q1057 125 1046.5 92.5Q1036 60 1017.5 37Q999 14 971 2Q943 -10 901 -10Q868 -10 841 -1.5Q814 7 795 26.5Q776 46 767.5 77Q759 108 765 152L828 679Q818 687 803 692.5Q788 698 766 698Q709 698 682.5 664Q656 630 647 568L640 512H755L746 435H631L583 56Q566 -75 497.5 -139Q429 -203 319 -203Q268 -203 232 -193.5Q196 -184 170 -167Z" glyph-name="f_f_l" horiz-adv-x="1069" unicode="&#64260;" /><glyph d="M486 512Q470 516 451.5 524Q433 532 417.5 545Q402 558 392.5 577.5Q383 597 385 624Q385 642 392 659Q374 667 351.5 671Q329 675 300 675Q230 675 191.5 656.5Q153 638 151 606Q148 562 209.5 537Q271 512 408 512ZM291 -121Q343 -121 364 -89.5Q385 -58 393 0L446 435H283L227 -20Q224 -42 219.5 -62Q215 -82 208 -99Q225 -109 246.5 -115Q268 -121 291 -121ZM38 435 48 512H146Q131 516 114 523.5Q97 531 82.5 543.5Q68 556 59.5 575Q51 594 53 621Q57 679 117.5 712.5Q178 746 301 746Q352 746 388 738Q424 730 448 720Q481 740 534 750Q587 760 663 760Q707 760 739.5 758Q772 756 798 753Q824 750 846.5 748Q869 746 894 746Q919 746 935.5 747Q952 748 963 749.5Q974 751 981 754Q988 757 994 760L1010 750L932 119Q928 77 952 77Q968 77 976.5 96.5Q985 116 992 166H1056Q1051 125 1040.5 92.5Q1030 60 1011.5 37Q993 14 965 2Q937 -10 895 -10Q862 -10 835 -1.5Q808 7 789 26.5Q770 46 761.5 77Q753 108 759 152L822 674Q801 680 758.5 684.5Q716 689 662 689Q488 689 483 609Q480 564 545.5 538Q611 512 748 512L739 435H624L574 33Q561 -73 497.5 -133.5Q434 -194 325 -194Q277 -194 240 -186Q203 -178 174 -164Q140 -211 88.5 -235.5Q37 -260 -29 -260Q-97 -260 -141.5 -236.5Q-186 -213 -186 -167Q-186 -133 -165.5 -108.5Q-145 -84 -103 -84Q-69 -84 -50.5 -101.5Q-32 -119 -32 -148Q-32 -162 -37.5 -174Q-43 -186 -51 -193Q-49 -193 -47 -194Q-42 -194 -37 -194Q-18 -194 -4.5 -185Q9 -176 18.5 -160.5Q28 -145 33.5 -124Q39 -103 42 -80L105 435Z" glyph-name="f_f_l.alt" horiz-adv-x="1064" /><glyph d="M10 0 20 72H75L124 478H69L78 550H564L542 366H455L458 389Q465 442 444 460Q423 478 362 478H301L282 309H358L366 369H427L404 186H343L350 240H273L252 72H333L324 0ZM552 1 562 73H617L666 479H611L620 551H1106L1084 367H997L1000 390Q1007 443 986 461Q965 479 904 479H843L824 310H900L908 370H969L946 187H885L892 241H815L794 73H875L866 1ZM1105 73H1160L1209 479H1154L1163 551H1459L1450 479H1386L1337 73H1406Q1449 73 1474 93.5Q1499 114 1506 174L1509 196H1595L1571 1H1095Z" glyph-name="f_f_l.alt.sc" horiz-adv-x="1620" /><glyph d="M10 0 20 72H75L124 478H69L78 550H564L542 366H455L458 390Q465 441 444.5 459.5Q424 478 362 478H301L282 309L422 320L411 229L273 241L252 72H333L324 0ZM543 0 553 72H608L657 478H602L611 550H1097L1075 366H988L991 390Q998 441 977.5 459.5Q957 478 895 478H834L815 309L955 320L944 229L806 241L785 72H866L857 0ZM1086 72H1141L1190 478H1135L1144 550H1440L1431 478H1367L1318 72H1387Q1430 72 1455 92.5Q1480 113 1487 173L1490 195H1576L1552 0H1076Z" glyph-name="f_f_l.sc" horiz-adv-x="1602" /><glyph d="M-29 -260Q-97 -260 -141.5 -236Q-186 -212 -186 -164Q-186 -132 -165.5 -108Q-145 -84 -103 -84Q-69 -84 -50.5 -101.5Q-32 -119 -32 -148Q-32 -159 -36 -172Q-40 -185 -48 -193Q-24 -192 -7.5 -183Q9 -174 19 -158.5Q29 -143 34 -123Q39 -103 42 -80L105 435H38L48 512H116L120 541Q128 600 152.5 642Q177 684 212 711.5Q247 739 291 752Q335 765 381 765Q413 765 436.5 761.5Q460 758 480 754Q500 750 518.5 746.5Q537 743 559 743Q594 743 615 752Q636 761 644 764L669 758L650 605Q642 543 633 498.5Q624 454 616 417Q645 468 684.5 496.5Q724 525 777 525Q849 525 888.5 482Q928 439 925 364Q925 346 919.5 309.5Q914 273 907.5 233Q901 193 895.5 159Q890 125 890 113Q888 78 909 78Q923 78 933.5 98.5Q944 119 951 166H1015Q1004 78 965.5 34Q927 -10 856 -10Q788 -10 750 24Q712 58 715 124Q715 140 720 172Q725 204 731 238.5Q737 273 742 304.5Q747 336 747 350Q749 380 736.5 397.5Q724 415 700 415Q662 415 639.5 377.5Q617 340 609 274L574 0H396L480 679Q471 687 456 692.5Q441 698 419 698Q362 698 335 664Q308 630 300 568L292 512H407L398 435H283L226 -20Q212 -132 144 -196Q76 -260 -29 -260Z" glyph-name="f_h" horiz-adv-x="1018" /><glyph d="M38 435 48 512H146Q130 516 111.5 524Q93 532 77 545Q61 558 51.5 577.5Q42 597 44 624Q47 657 63.5 682Q80 707 113.5 724.5Q147 742 198.5 751Q250 760 323 760Q367 760 398.5 758Q430 756 455 753Q480 750 502.5 748Q525 746 550 746Q575 746 591 747Q607 748 618 749.5Q629 751 636 754Q643 757 649 760L665 750L647 605Q639 543 630 498.5Q621 454 613 417Q642 468 681.5 496.5Q721 525 774 525Q846 525 885 482Q924 439 922 364Q920 331 914 296.5Q908 262 901 229.5Q894 197 888.5 167Q883 137 881 113Q879 78 900 78Q914 78 924.5 98.5Q935 119 942 166H1005Q994 78 956 34Q918 -10 847 -10Q778 -10 740.5 24Q703 58 706 124Q708 153 713 181Q718 209 724.5 236.5Q731 264 736.5 292.5Q742 321 744 350Q746 380 733.5 397.5Q721 415 698 415Q660 415 637 377.5Q614 340 606 274L571 0H393L477 674Q455 680 415.5 684.5Q376 689 322 689Q148 689 142 609Q140 564 205 538Q270 512 408 512L399 435H283L227 -20Q213 -133 145 -196.5Q77 -260 -29 -260Q-97 -260 -141.5 -236.5Q-186 -213 -186 -167Q-186 -133 -165.5 -108.5Q-145 -84 -103 -84Q-69 -84 -50.5 -101.5Q-32 -119 -32 -148Q-32 -162 -37.5 -174Q-43 -186 -51 -193Q-49 -193 -47 -194Q-42 -194 -37 -194Q-18 -194 -4.5 -185Q9 -176 18.5 -160.5Q28 -145 33.5 -124Q39 -103 42 -80L105 435Z" glyph-name="f_h.alt" horiz-adv-x="1010" /><glyph d="M10 0 20 72H75L124 478H69L78 550H564L542 366H455L458 389Q465 442 444 460Q423 478 362 478H301L282 309H358L366 369H427L404 186H343L350 240H273L252 72H333L324 0ZM562 72H617L666 478H611L620 550H903L894 478H843L824 317H1002L1022 478H972L981 550H1264L1255 478H1199L1149 72H1205L1196 0H913L922 72H972L994 244H815L794 72H844L835 0H552Z" glyph-name="f_h.alt.sc" horiz-adv-x="1269" /><glyph d="M10 0 20 72H75L124 478H69L78 550H564L542 366H455L458 390Q465 441 444.5 459.5Q424 478 362 478H301L282 309L422 320L411 229L273 241L252 72H333L324 0ZM553 72H608L657 478H602L611 550H894L885 478H834L815 317H993L1013 478H963L972 550H1255L1246 478H1190L1140 72H1196L1187 0H904L913 72H963L985 244H806L785 72H835L826 0H543Z" glyph-name="f_h.sc" horiz-adv-x="1260" /><glyph d="M742 679Q742 641 716.5 615Q691 589 651 589Q616 589 597.5 609.5Q579 630 579 658Q579 696 604.5 721.5Q630 747 670 747Q705 747 723.5 726.5Q742 706 742 679ZM-29 -260Q-97 -260 -141.5 -236.5Q-186 -213 -186 -167Q-186 -132 -165.5 -108Q-145 -84 -103 -84Q-69 -84 -50.5 -101.5Q-32 -119 -32 -149Q-32 -160 -35 -172.5Q-38 -185 -46 -193Q-1 -190 17.5 -157.5Q36 -125 42 -80L105 435H38L48 512H116L123 562Q137 662 204 716Q271 770 379 770Q415 770 445.5 765Q476 760 498 748.5Q520 737 532.5 718Q545 699 545 671Q545 639 524 614Q503 589 463 589Q425 589 404.5 609.5Q384 630 384 657Q384 666 387.5 679Q391 692 401 703Q350 701 328.5 669.5Q307 638 299 573L292 512H387Q453 512 494.5 512.5Q536 513 560 514.5Q584 516 596 518.5Q608 521 615 525L631 515L582 118Q578 78 601 78Q615 78 625 98.5Q635 119 642 166H706Q685 -10 548 -10Q514 -10 486 -0.5Q458 9 439.5 28.5Q421 48 412.5 79Q404 110 409 152L444 435H283L226 -20Q212 -132 144 -196Q76 -260 -29 -260Z" glyph-name="f_idieresis" horiz-adv-x="713" /><glyph d="M731 673Q730 640 706 613.5Q682 587 640 587Q603 587 585.5 609Q568 631 569 659Q570 692 593.5 718.5Q617 745 659 745Q696 745 714 722.5Q732 700 731 673ZM-29 -260Q-97 -260 -141.5 -236.5Q-186 -213 -186 -167Q-186 -133 -165.5 -108.5Q-145 -84 -103 -84Q-69 -84 -50.5 -101.5Q-32 -119 -32 -148Q-32 -162 -37.5 -174Q-43 -186 -51 -193Q-49 -193 -47 -194Q-42 -194 -37 -194Q-18 -194 -4.5 -185Q9 -176 18.5 -160.5Q28 -145 33.5 -124Q39 -103 42 -80L105 435H38L48 512H146Q132 515 116 522.5Q100 530 86.5 542.5Q73 555 64 572.5Q55 590 55 614Q55 689 120.5 727.5Q186 766 309 766Q353 766 391 760.5Q429 755 457.5 743Q486 731 502 712.5Q518 694 518 667Q518 633 496 610Q474 587 439 587Q401 587 380.5 604Q360 621 360 651Q360 676 376 689Q352 695 312 695Q237 695 198.5 673.5Q160 652 160 608Q160 563 225 537.5Q290 512 405 512Q465 512 502 512.5Q539 513 561.5 514.5Q584 516 595 518.5Q606 521 613 525L629 515L580 118Q576 78 598 78Q612 78 622.5 98.5Q633 119 640 166H704Q693 78 654.5 34Q616 -10 545 -10Q512 -10 484 -0.5Q456 9 437.5 28.5Q419 48 410.5 79Q402 110 407 152L442 435H283L227 -20Q213 -133 145 -196.5Q77 -260 -29 -260Z" glyph-name="f_idieresis.alt" horiz-adv-x="710" /><glyph d="M10 0 20 72H75L124 478H69L78 550H564L542 366H455L458 389Q465 442 444 460Q423 478 362 478H301L282 309H358L366 369H427L404 186H343L350 240H273L252 72H333L324 0ZM939 671Q939 641 918 621Q897 601 862 601Q834 601 817.5 616Q801 631 801 656Q801 686 822 705.5Q843 725 877 725Q906 725 922.5 709.5Q939 694 939 671ZM754 671Q754 641 732.5 621Q711 601 677 601Q648 601 631.5 616Q615 631 615 656Q615 686 636.5 705.5Q658 725 691 725Q721 725 737.5 709.5Q754 694 754 671ZM552 0 562 72H617L666 478H611L620 550H909L900 478H843L794 72H851L841 0Z" glyph-name="f_idieresis.alt.sc" horiz-adv-x="914" /><glyph d="M10 0 20 72H75L124 478H69L78 550H564L542 366H455L458 390Q465 441 444.5 459.5Q424 478 362 478H301L282 309L422 320L411 229L273 241L252 72H333L324 0ZM930 671Q930 641 909 621Q888 601 853 601Q825 601 808.5 616Q792 631 792 656Q792 686 813 705.5Q834 725 868 725Q897 725 913.5 709.5Q930 694 930 671ZM745 671Q745 641 723.5 621Q702 601 668 601Q639 601 622.5 616Q606 631 606 656Q606 686 627.5 705.5Q649 725 682 725Q712 725 728.5 709.5Q745 694 745 671ZM543 0 553 72H608L657 478H602L611 550H900L891 478H834L785 72H842L832 0Z" glyph-name="f_idieresis.sc" horiz-adv-x="904" /><glyph d="M314 -196Q352 -196 366.5 -162Q381 -128 389 -69L449 435H283L226 -20Q221 -59 210 -89Q225 -84 240 -84Q276 -84 294.5 -102Q313 -120 313 -149Q313 -166 306.5 -177.5Q300 -189 292 -193Q298 -196 314 -196ZM321 -260Q291 -260 264 -254Q237 -248 216 -237Q195 -226 181.5 -209.5Q168 -193 166 -172Q131 -214 82 -237Q33 -260 -29 -260Q-97 -260 -141.5 -235.5Q-186 -211 -186 -159Q-186 -131 -167 -107.5Q-148 -84 -103 -84Q-69 -84 -50.5 -101.5Q-32 -119 -32 -148Q-32 -162 -36.5 -174Q-41 -186 -50 -193Q-25 -192 -8.5 -183Q8 -174 18 -159Q28 -144 33.5 -124Q39 -104 42 -80L105 435H38L48 512H116L120 536Q130 597 157 640.5Q184 684 225.5 711.5Q267 739 321 751.5Q375 764 439 764Q478 764 514 757.5Q550 751 577 738.5Q604 726 620 706.5Q636 687 636 661Q636 628 614.5 606.5Q593 585 555 585Q517 585 497 604.5Q477 624 477 650Q477 675 496 690Q478 698 445 698Q418 698 393 690.5Q368 683 348.5 666Q329 649 315.5 620Q302 591 297 549L292 512H388Q448 512 490 512.5Q532 513 559 514.5Q586 516 601 518.5Q616 521 622 525L637 515L574 0Q567 -61 549.5 -109Q532 -157 501.5 -190.5Q471 -224 427 -242Q383 -260 321 -260Z" glyph-name="f_j" horiz-adv-x="669" /><glyph d="M-29 -260Q-97 -260 -141.5 -236.5Q-186 -213 -186 -167Q-186 -133 -165.5 -108.5Q-145 -84 -103 -84Q-69 -84 -50.5 -101.5Q-32 -119 -32 -148Q-32 -162 -37.5 -174Q-43 -186 -51 -193Q-49 -193 -47 -194Q-42 -194 -37 -194Q-18 -194 -4.5 -185Q9 -176 18.5 -160.5Q28 -145 33.5 -124Q39 -103 42 -80L105 435H38L48 512H146Q132 515 116 522.5Q100 530 86.5 542.5Q73 555 64 572.5Q55 590 55 614Q55 650 76.5 677.5Q98 705 136.5 723Q175 741 228.5 750.5Q282 760 345 760Q405 760 456.5 752.5Q508 745 545.5 731Q583 717 604.5 695.5Q626 674 626 645Q626 611 605.5 588Q585 565 546 565Q508 565 487.5 582Q467 599 467 629Q467 642 472.5 651.5Q478 661 485 668Q460 676 426.5 682.5Q393 689 348 689Q265 689 212.5 668.5Q160 648 160 608Q160 563 225 537.5Q290 512 406 512Q460 512 496 512.5Q532 513 556 514.5Q580 516 593.5 518.5Q607 521 614 525L630 515L570 31Q593 14 608.5 -10.5Q624 -35 624 -72Q624 -110 611.5 -144Q599 -178 572.5 -204Q546 -230 506 -245Q466 -260 412 -260Q332 -260 287.5 -230Q243 -200 243 -152Q243 -115 265.5 -89Q288 -63 332 -63Q367 -63 385.5 -81Q404 -99 404 -124Q404 -144 394.5 -161Q385 -178 368 -186Q376 -191 385.5 -193Q395 -195 405 -195Q451 -195 476.5 -164.5Q502 -134 502 -92Q502 -45 470 -22.5Q438 0 390 0L443 435H283L227 -20Q213 -133 145 -196.5Q77 -260 -29 -260Z" glyph-name="f_j.alt" horiz-adv-x="666" /><glyph d="M10 0 20 72H75L124 478H69L78 550H564L542 366H455L458 389Q465 442 444 460Q423 478 362 478H301L282 309H358L366 369H427L404 186H343L350 240H273L252 72H333L324 0ZM898 188Q886 90 830.5 41Q775 -8 665 -8Q587 -8 537 22.5Q487 53 487 108Q487 145 511 169.5Q535 194 577 194Q609 194 628 177.5Q647 161 647 132Q647 110 636 93.5Q625 77 611 71Q616 68 625 65Q634 62 651 62Q680 62 695 77.5Q710 93 715 135L757 478H698L707 550H999L990 478H934Z" glyph-name="f_j.alt.sc" horiz-adv-x="990" /><glyph d="M10 0 20 72H75L124 478H69L78 550H564L542 366H455L458 390Q465 441 444.5 459.5Q424 478 362 478H301L282 309L422 320L411 229L273 241L252 72H333L324 0ZM888 188Q876 90 820.5 41Q765 -8 655 -8Q577 -8 527 22.5Q477 53 477 108Q477 145 501 169.5Q525 194 567 194Q599 194 618 177.5Q637 161 637 132Q637 110 626 93.5Q615 77 601 71Q606 68 615 65Q624 62 641 62Q670 62 685 77.5Q700 93 705 135L747 478H688L697 550H989L980 478H924Z" glyph-name="f_j.sc" horiz-adv-x="980" /><glyph d="M-29 -260Q-97 -260 -141.5 -236Q-186 -212 -186 -164Q-186 -132 -165.5 -108Q-145 -84 -104 -84Q-69 -84 -50.5 -101.5Q-32 -119 -32 -148Q-32 -182 -50 -193Q-26 -192 -10 -183Q6 -174 16.5 -158.5Q27 -143 33 -123Q39 -103 42 -80L105 435H38L48 512H116L120 540Q128 599 152.5 641Q177 683 212.5 711Q248 739 291.5 752Q335 765 381 765Q413 765 436.5 761.5Q460 758 480 754Q500 750 518.5 746.5Q537 743 559 743Q594 743 614.5 752Q635 761 643 764L668 758L650 613Q642 546 633.5 500.5Q625 455 620 427Q643 468 683 496.5Q723 525 789 525Q853 525 894 494.5Q935 464 935 409Q935 357 899.5 317Q864 277 801 254L891 77H935L926 0H733L630 211L634 250Q693 261 723.5 299.5Q754 338 754 386Q754 438 708 438Q675 438 647 395Q619 352 607 258L575 0H397L481 682Q460 698 419 698Q362 698 335 664Q308 630 300 568L292 512H407L398 435H283L226 -20Q212 -132 144 -196Q76 -260 -29 -260Z" glyph-name="f_k" horiz-adv-x="972" /><glyph d="M811 435H626L602 241ZM-29 -260Q-97 -260 -141.5 -236.5Q-186 -213 -186 -167Q-186 -133 -165.5 -108.5Q-145 -84 -103 -84Q-69 -84 -50.5 -101.5Q-32 -119 -32 -148Q-32 -162 -37.5 -174Q-43 -186 -51 -193Q-49 -193 -47 -194Q-42 -194 -37 -194Q-18 -194 -4.5 -185Q9 -176 18.5 -160.5Q28 -145 33.5 -124Q39 -103 42 -80L105 435H38L48 512H146Q130 516 111.5 524Q93 532 77 545Q61 558 51.5 577.5Q42 597 44 624Q49 689 113.5 724.5Q178 760 323 760Q367 760 398.5 758Q430 756 455 753Q480 750 502.5 748Q525 746 550 746Q599 746 618 749.5Q637 753 649 760L665 750L635 512H948L939 443L770 295L889 77H930L921 0H741L642 184L589 138L572 0H395L477 674Q455 680 415.5 684.5Q376 689 322 689Q235 689 189.5 668.5Q144 648 142 609Q139 564 204.5 538Q270 512 408 512L399 435H283L227 -20Q213 -133 145 -196.5Q77 -260 -29 -260Z" glyph-name="f_k.alt" horiz-adv-x="960" /><glyph d="M10 0 20 72H75L124 478H69L78 550H564L542 366H455L458 389Q465 442 444 460Q423 478 362 478H301L282 309H358L366 369H427L404 186H343L350 240H273L252 72H333L324 0ZM818 270 1089 478H843ZM552 0 562 72H617L666 478H611L620 550H1211L1201 478L1003 324L1149 72H1193L1184 0H911L921 72H963L875 225L806 172L794 72H841L832 0Z" glyph-name="f_k.alt.sc" horiz-adv-x="1215" /><glyph d="M10 0 20 72H75L124 478H69L78 550H564L542 366H455L458 390Q465 441 444.5 459.5Q424 478 362 478H301L282 309L422 320L411 229L273 241L252 72H333L324 0ZM543 0 553 72H608L657 478H602L611 550H891L882 478H834L811 287L1027 478H965L975 550H1208L1199 478H1136L968 332L1137 72H1181L1173 0H900L908 72H955L849 233L800 189L785 72H832L823 0Z" glyph-name="f_k.sc" horiz-adv-x="1204" /><glyph d="M391 512Q453 512 478 537.5Q503 563 507 600Q513 648 488.5 673Q464 698 422 698Q366 698 337 663Q308 628 299 560L292 512ZM-29 -260Q-101 -260 -143.5 -236.5Q-186 -213 -186 -165Q-186 -132 -165.5 -108Q-145 -84 -103 -84Q-69 -84 -50.5 -101.5Q-32 -119 -32 -148Q-32 -158 -35 -170.5Q-38 -183 -46 -193Q0 -191 18 -160.5Q36 -130 41 -86L105 435H38L48 512H116L120 542Q128 600 154.5 642Q181 684 220 711.5Q259 739 308 752Q357 765 411 765Q462 765 504.5 753Q547 741 576 716.5Q605 692 618.5 653.5Q632 615 626 562L619 512H778L768 435H613L583 190Q576 139 584.5 110.5Q593 82 623 82Q652 82 666.5 115Q681 148 689 199H751Q738 101 694 45.5Q650 -10 563 -10Q469 -10 430.5 38Q392 86 404 186L435 435H283L229 0Q212 -126 145 -193Q78 -260 -29 -260Z" glyph-name="f_t" horiz-adv-x="773" /><glyph d="M460 512Q465 545 458.5 577Q452 609 431.5 634Q411 659 374.5 674Q338 689 283 689Q220 689 182 668.5Q144 648 142 612Q139 567 200 539.5Q261 512 392 512ZM38 434 48 511H146Q130 515 111.5 523Q93 531 77 544.5Q61 558 51.5 578Q42 598 44 627Q49 688 107.5 724Q166 760 277 760Q385 760 458 721Q531 682 566 608L689 760L726 750Q702 704 674.5 646Q647 588 637 512H806L797 435H628L598 193Q590 132 599 105.5Q608 79 640 79Q658 79 670 92Q682 105 690 124.5Q698 144 702.5 166Q707 188 709 206H771Q766 165 755 126Q744 87 721.5 57Q699 27 663 8.5Q627 -10 571 -10Q543 -10 513 -3.5Q483 3 459.5 22Q436 41 424 75.5Q412 110 419 166L451 435H283L227 -21Q213 -134 145 -197Q77 -260 -29 -260Q-97 -261 -141.5 -237.5Q-186 -214 -186 -167Q-186 -134 -165.5 -109.5Q-145 -85 -103 -84Q-69 -85 -50.5 -102Q-32 -119 -32 -148Q-32 -162 -37.5 -174.5Q-43 -187 -51 -193Q-51 -196 -37 -194Q-18 -194 -4.5 -185.5Q9 -177 18.5 -161Q28 -145 33.5 -124.5Q39 -104 42 -80L105 434Z" glyph-name="f_t.alt" horiz-adv-x="795" /><glyph d="M10 0 20 72H75L124 478H69L78 550H564L542 366H455L458 389Q465 442 444 460Q423 478 362 478H301L282 309H358L366 369H427L404 186H343L350 240H273L252 72H333L324 0ZM703 72H768L818 479H798Q773 479 756.5 474.5Q740 470 729 458.5Q718 447 711.5 428.5Q705 410 701 383L697 353H611L635 550H1195L1170 353H1084L1088 383Q1096 440 1080.5 459.5Q1065 479 1017 479H995L945 72H1009L1000 0H694Z" glyph-name="f_t.alt.sc" horiz-adv-x="1177" /><glyph d="M10 0 20 72H75L124 478H69L78 550H564L542 366H455L458 390Q465 441 444.5 459.5Q424 478 362 478H301L282 309L422 320L411 229L273 241L252 72H333L324 0ZM693 72H758L808 479H788Q763 479 746.5 474.5Q730 470 719 458.5Q708 447 701.5 428.5Q695 410 691 383L687 353H601L625 550H1185L1160 353H1074L1078 383Q1086 440 1070.5 459.5Q1055 479 1007 479H985L935 72H999L990 0H684Z" glyph-name="f_t.sc" horiz-adv-x="1167" /><glyph d="M-29 -260Q-97 -260 -141.5 -236Q-186 -212 -186 -165Q-186 -132 -165.5 -108Q-145 -84 -103 -84Q-70 -84 -51 -101Q-32 -118 -32 -148Q-32 -161 -37 -174.5Q-42 -188 -51 -193Q-23 -193 -6 -184Q11 -175 20.5 -159.5Q30 -144 34.5 -123.5Q39 -103 42 -80L105 435H38L48 512H116L119 535Q127 597 156 640Q185 683 228.5 711Q272 739 326.5 751.5Q381 764 439 764Q478 764 513 759.5Q548 755 574 743.5Q600 732 615 712.5Q630 693 630 662Q630 633 607.5 609Q585 585 543 585Q508 585 489.5 604.5Q471 624 471 650Q471 662 474.5 672.5Q478 683 488 691Q478 694 467.5 696Q457 698 443 698Q416 698 392 690.5Q368 683 348.5 666Q329 649 315.5 620Q302 591 297 549L292 512H387Q453 512 494.5 512.5Q536 513 560 514.5Q584 516 596 518.5Q608 521 615 525L631 515L582 118Q578 78 601 78Q615 78 625 98.5Q635 119 642 166H706Q685 -10 548 -10Q514 -10 486 -0.5Q458 9 439 28.5Q420 48 412 79Q404 110 409 152L444 435H283L226 -20Q212 -132 144 -196Q76 -260 -29 -260Z" glyph-name="fi" horiz-adv-x="713" unicode="&#64257;" /><glyph d="M-29 -260Q-97 -260 -141.5 -236.5Q-186 -213 -186 -167Q-186 -133 -165.5 -108.5Q-145 -84 -103 -84Q-69 -84 -50.5 -101.5Q-32 -119 -32 -148Q-32 -162 -37.5 -174Q-43 -186 -51 -193Q-49 -193 -47 -194Q-42 -194 -37 -194Q-18 -194 -4.5 -185Q9 -176 18.5 -160.5Q28 -145 33.5 -124Q39 -103 42 -80L105 435H38L48 512H146Q132 515 116 522.5Q100 530 86.5 542.5Q73 555 64 572.5Q55 590 55 614Q55 650 76.5 677.5Q98 705 136.5 723Q175 741 228.5 750.5Q282 760 345 760Q405 760 456.5 752.5Q508 745 545.5 731Q583 717 604.5 695.5Q626 674 626 645Q626 611 605 588Q584 565 546 565Q508 565 487.5 582Q467 599 467 629Q467 642 473 652Q479 662 487 668Q463 676 429.5 682.5Q396 689 348 689Q265 689 212.5 668.5Q160 648 160 608Q160 563 225 537.5Q290 512 405 512Q465 512 502 512.5Q539 513 561 514.5Q583 516 594.5 518.5Q606 521 613 525L629 515L580 118Q576 78 598 78Q612 78 622.5 98.5Q633 119 640 166H704Q693 78 654.5 34Q616 -10 545 -10Q512 -10 484 -0.5Q456 9 437.5 28.5Q419 48 410.5 79Q402 110 407 152L442 435H283L227 -20Q213 -133 145 -196.5Q77 -260 -29 -260Z" glyph-name="fi.alt" horiz-adv-x="710" /><glyph d="M10 0 20 72H75L124 478H69L78 550H564L542 366H455L458 389Q465 442 444 460Q423 478 362 478H301L282 309H358L366 369H427L404 186H343L350 240H273L252 72H333L324 0ZM552 0 562 72H617L666 478H611L620 550H909L900 478H843L794 72H851L841 0Z" glyph-name="fi.alt.sc" horiz-adv-x="914" /><glyph d="M10 0 20 72H75L124 478H69L78 550H564L542 366H455L458 390Q465 441 444.5 459.5Q424 478 362 478H301L282 309L422 320L411 229L273 241L252 72H333L324 0ZM543 0 553 72H608L657 478H602L611 550H900L891 478H834L785 72H842L832 0Z" glyph-name="fi.sc" horiz-adv-x="904" /><glyph d="M537 246Q537 203 520 157.5Q503 112 468 74.5Q433 37 378 13.5Q323 -10 248 -10Q136 -10 77.5 25.5Q19 61 19 122Q19 161 44 190Q69 219 116 219Q151 219 170 200.5Q189 182 189 152Q189 131 179.5 114Q170 97 153 86Q162 78 177 73.5Q192 69 215 69Q249 69 274 83.5Q299 98 315.5 122.5Q332 147 340.5 179Q349 211 349 246Q349 307 320.5 334Q292 361 242 361Q207 361 180.5 347.5Q154 334 141 315H75L150 690H552L539 581H215L181 409Q237 440 315 440Q372 440 414 424.5Q456 409 483 382.5Q510 356 523.5 320.5Q537 285 537 246Z" glyph-name="five" horiz-adv-x="572" unicode="5" /><glyph d="M141 -99Q160 -99 174 -90Q188 -81 197.5 -66.5Q207 -52 212 -32.5Q217 -13 217 8Q217 43 199 58.5Q181 74 150 74Q126 74 109 65Q92 56 83 44H35L86 300H379L368 212H137L117 118Q139 129 163 133Q187 137 211 137Q255 137 285.5 127Q316 117 335 99.5Q354 82 362.5 59.5Q371 37 371 13Q371 -17 359.5 -47.5Q348 -78 323 -102.5Q298 -127 258 -142Q218 -157 161 -157Q82 -157 41 -134Q0 -111 0 -72Q0 -47 17 -25Q34 -3 72 -3Q100 -3 113.5 -16Q127 -29 127 -49Q127 -62 121.5 -73.5Q116 -85 105 -90Q114 -99 141 -99Z" glyph-name="five.inferior" horiz-adv-x="414" /><glyph d="M195 -180Q151 -180 114 -171.5Q77 -163 50 -146.5Q23 -130 8 -106Q-7 -82 -7 -50Q-7 -16 14 12Q35 40 81 40Q117 40 135 22.5Q153 5 153 -24Q153 -48 144.5 -66Q136 -84 122 -93Q140 -106 177 -106Q210 -106 235 -90Q260 -74 276.5 -48.5Q293 -23 301 10Q309 43 309 76Q309 131 282.5 159.5Q256 188 208 188Q172 188 146 174.5Q120 161 106 141H43L117 512H508L496 412H180L144 235Q174 251 207.5 257Q241 263 277 263Q334 263 375 248Q416 233 442 208Q468 183 480 149.5Q492 116 492 80Q492 31 474 -16Q456 -63 419.5 -99.5Q383 -136 327 -158Q271 -180 195 -180Z" glyph-name="five.old" horiz-adv-x="541" /><glyph d="M484 195Q484 160 469 124Q454 88 422.5 58.5Q391 29 342 10.5Q293 -8 225 -8Q122 -8 68 19.5Q14 47 14 98Q14 134 37.5 158.5Q61 183 105 183Q139 183 156.5 166.5Q174 150 174 124Q174 90 147 71Q154 69 164 67Q174 65 192 65Q250 65 276 102Q302 139 302 192Q302 236 276.5 257Q251 278 209 278Q178 278 155.5 267.5Q133 257 122 244H62L125 550H493L480 453H187L162 332Q187 340 213.5 345.5Q240 351 281 351Q333 351 371 338.5Q409 326 434 304.5Q459 283 471.5 255Q484 227 484 195Z" glyph-name="five.sc" horiz-adv-x="523" /><glyph d="M215 485Q234 485 248 494Q262 503 271.5 517.5Q281 532 286 551.5Q291 571 291 592Q291 627 273 642.5Q255 658 224 658Q200 658 183 649Q166 640 157 628H109L160 884H453L442 796H211L191 702Q213 713 237 717Q261 721 285 721Q329 721 359.5 711Q390 701 409 683.5Q428 666 436.5 643.5Q445 621 445 597Q445 567 433.5 536.5Q422 506 397 481.5Q372 457 332 442Q292 427 235 427Q156 427 115 450Q74 473 74 512Q74 537 91 559Q108 581 146 581Q174 581 187.5 568Q201 555 201 535Q201 522 195.5 510.5Q190 499 179 494Q188 485 215 485Z" glyph-name="five.superior" horiz-adv-x="446" /><glyph d="M572 246Q572 203 555 157.5Q538 112 503 74.5Q468 37 413 13.5Q358 -10 283 -10Q171 -10 112.5 25.5Q54 61 54 122Q54 161 79 190Q104 219 151 219Q186 219 205 200.5Q224 182 224 152Q224 131 214.5 114Q205 97 188 86Q197 78 212 73.5Q227 69 250 69Q284 69 309 83.5Q334 98 350.5 122.5Q367 147 375.5 179Q384 211 384 246Q384 307 355.5 334Q327 361 277 361Q242 361 215.5 347.5Q189 334 176 315H110L185 690H587L574 581H250L216 409Q272 440 350 440Q407 440 449 424.5Q491 409 518 382.5Q545 356 558.5 320.5Q572 285 572 246Z" glyph-name="five.tln" horiz-adv-x="640" /><glyph d="M245 -180Q201 -180 164 -171.5Q127 -163 100 -146.5Q73 -130 58 -106Q43 -82 43 -50Q43 -16 64 12Q85 40 131 40Q167 40 185 22.5Q203 5 203 -24Q203 -48 194.5 -66Q186 -84 172 -93Q190 -106 227 -106Q260 -106 285 -90Q310 -74 326.5 -48.5Q343 -23 351 10Q359 43 359 76Q359 131 332.5 159.5Q306 188 258 188Q222 188 196 174.5Q170 161 156 141H93L167 512H558L546 412H230L194 235Q224 251 257.5 257Q291 263 327 263Q384 263 425 248Q466 233 492 208Q518 183 530 149.5Q542 116 542 80Q542 31 524 -16Q506 -63 469.5 -99.5Q433 -136 377 -158Q321 -180 245 -180Z" glyph-name="five.ton" horiz-adv-x="640" /><glyph d="M-29 -260Q-97 -260 -141.5 -236.5Q-186 -213 -186 -166Q-186 -133 -165.5 -108.5Q-145 -84 -103 -84Q-69 -84 -50.5 -101.5Q-32 -119 -32 -149Q-32 -162 -37 -173.5Q-42 -185 -51 -192Q-49 -193 -47 -193Q-40 -194 -33 -194Q3 -194 19.5 -160.5Q36 -127 42 -80L105 435H38L48 512H116L120 538Q129 597 153.5 640Q178 683 213 711Q248 739 291 752Q334 765 381 765Q413 765 436.5 761.5Q460 758 480 754Q500 750 518.5 746.5Q537 743 559 743Q594 743 614.5 752Q635 761 643 764L668 758L591 119Q587 77 610 77Q626 77 634.5 96.5Q643 116 651 166H714Q709 125 699 92.5Q689 60 670.5 37Q652 14 623.5 2Q595 -10 553 -10Q521 -10 493.5 -1.5Q466 7 447.5 26.5Q429 46 420.5 77Q412 108 417 152L480 679Q471 687 456 692.5Q441 698 419 698Q362 698 335 664Q308 630 300 568L292 512H407L398 435H283L226 -20Q212 -132 144 -196Q76 -260 -29 -260Z" glyph-name="fl" horiz-adv-x="722" unicode="&#64258;" /><glyph d="M38 435 48 512H146Q130 516 111.5 524Q93 532 77 545Q61 558 51.5 577.5Q42 597 44 624Q47 657 63.5 682Q80 707 113.5 724.5Q147 742 198.5 751Q250 760 323 760Q367 760 399.5 758Q432 756 458 753Q484 750 506.5 748Q529 746 554 746Q604 746 623 749.5Q642 753 653 760L669 750L592 119Q588 77 611 77Q627 77 636 96.5Q645 116 652 166H715Q710 125 700 92.5Q690 60 671.5 37Q653 14 625 2Q597 -10 555 -10Q522 -10 494.5 -1.5Q467 7 448.5 26.5Q430 46 421.5 77Q413 108 418 152L482 674Q460 680 418 684.5Q376 689 322 689Q148 689 142 609Q140 564 205 538Q270 512 408 512L399 435H283L227 -20Q213 -133 145 -196.5Q77 -260 -29 -260Q-97 -260 -141.5 -236.5Q-186 -213 -186 -167Q-186 -133 -165.5 -108.5Q-145 -84 -103 -84Q-69 -84 -50.5 -101.5Q-32 -119 -32 -148Q-32 -162 -37.5 -174Q-43 -186 -51 -193Q-49 -193 -47 -194Q-42 -194 -37 -194Q-18 -194 -4.5 -185Q9 -176 18.5 -160.5Q28 -145 33.5 -124Q39 -103 42 -80L105 435Z" glyph-name="fl.alt" horiz-adv-x="723" /><glyph d="M10 0 20 72H75L124 478H69L78 550H564L542 366H455L458 389Q465 442 444 460Q423 478 362 478H301L282 309H358L366 369H427L404 186H343L350 240H273L252 72H333L324 0ZM562 72H617L666 478H611L620 550H916L907 478H843L794 72H863Q906 72 931 92.5Q956 113 963 173L966 195H1052L1028 0H552Z" glyph-name="fl.alt.sc" horiz-adv-x="1075" /><glyph d="M10 0 20 72H75L124 478H69L78 550H564L542 366H455L458 390Q465 441 444.5 459.5Q424 478 362 478H301L282 309L422 320L411 229L273 241L252 72H333L324 0ZM557 72H612L661 478H606L615 550H911L902 478H838L789 72H858Q901 72 926 92.5Q951 113 958 173L961 195H1047L1023 0H547Z" glyph-name="fl.sc" horiz-adv-x="1073" /><glyph d="M217 0 227 77H297L310 191H5L13 248L398 690H554L502 267H567L558 191H492L479 77H544L535 0ZM352 529 124 267H320Z" glyph-name="four" horiz-adv-x="609" unicode="4" /><glyph d="M141 -150 148 -87H192L199 -32H-11L-5 17L258 300H390L356 31H398L391 -32H348L341 -87H384L376 -150ZM225 180 86 31H207Z" glyph-name="four.inferior" horiz-adv-x="448" /><glyph d="M274 -170 297 11H-12L-5 68L385 525H537L483 87H566L556 11H474L451 -170ZM306 87 341 370 100 87Z" glyph-name="four.old" horiz-adv-x="612" /><glyph d="M196 0 205 72H263L273 147H3L10 203L345 550H500L458 219H515L505 147H450L440 72H497L488 0ZM307 417 116 219H281Z" glyph-name="four.sc" horiz-adv-x="561" /><glyph d="M215 434 222 497H266L273 552H63L69 601L332 884H464L430 615H472L465 552H422L415 497H458L450 434ZM299 764 160 615H281Z" glyph-name="four.superior" horiz-adv-x="468" /><glyph d="M232 0 242 77H312L325 191H20L28 248L413 690H569L517 267H582L573 191H507L494 77H559L550 0ZM367 529 139 267H335Z" glyph-name="four.tln" horiz-adv-x="640" /><glyph d="M287 -170 310 11H1L8 68L398 525H550L496 87H579L569 11H487L464 -170ZM319 87 354 370 113 87Z" glyph-name="four.ton" horiz-adv-x="640" /><glyph d="M220 310Q220 270 235.5 247Q251 224 278 224Q299 224 314.5 237Q330 250 340.5 272Q351 294 356 322Q361 350 361 380Q361 421 346.5 444.5Q332 468 303 468Q282 468 266.5 455.5Q251 443 240.5 421Q230 399 225 370.5Q220 342 220 310ZM531 -63Q531 -105 511.5 -141Q492 -177 453.5 -203.5Q415 -230 357.5 -245Q300 -260 223 -260Q178 -260 135 -254Q92 -248 58.5 -233.5Q25 -219 4.5 -194.5Q-16 -170 -16 -134Q-16 -46 113 -11Q75 0 51.5 21Q28 42 28 78Q28 119 57.5 147Q87 175 144 189Q95 207 70.5 242.5Q46 278 46 324Q46 368 64 404.5Q82 441 116 468Q150 495 199.5 510Q249 525 312 525Q332 525 359.5 521Q387 517 404 512H605L597 435L496 446Q516 430 526 406.5Q536 383 536 356Q536 317 520 282.5Q504 248 471 222.5Q438 197 388 182Q338 167 270 167Q212 167 186.5 158Q161 149 161 126Q161 104 186 96Q211 88 265 87Q399 85 465 51Q531 17 531 -63ZM121 -115Q121 -158 157 -175Q193 -192 247 -192Q280 -192 308.5 -186Q337 -180 358 -169Q379 -158 391 -142Q403 -126 403 -106Q403 -88 395.5 -75Q388 -62 367.5 -53Q347 -44 311 -39.5Q275 -35 218 -34Q213 -33 201.5 -33Q190 -33 184 -33Q161 -40 141 -60Q121 -80 121 -115Z" glyph-name="g" horiz-adv-x="589" unicode="g" /><glyph d="M860 679Q860 641 834.5 615Q809 589 769 589Q734 589 715.5 609.5Q697 630 697 658Q697 696 722.5 721.5Q748 747 787 747Q822 747 841 726.5Q860 706 860 679ZM552 -260Q517 -260 482.5 -250Q448 -240 423 -221Q386 -239 336 -249.5Q286 -260 223 -260Q178 -260 135 -254Q92 -248 58.5 -233.5Q25 -219 4.5 -194.5Q-16 -170 -16 -134Q-16 -89 15 -59Q46 -29 103 -12Q68 -1 48 20.5Q28 42 28 78Q28 118 54.5 147.5Q81 177 138 191Q93 210 69.5 244.5Q46 279 46 324Q46 368 64 404.5Q82 441 116 468Q150 495 199.5 510Q249 525 312 525Q332 525 359.5 521Q387 517 404 512H594Q660 512 705.5 512.5Q751 513 781 514.5Q811 516 827.5 518.5Q844 521 850 525L865 515L807 0Q800 -61 783 -109Q766 -157 735.5 -190.5Q705 -224 660 -242Q615 -260 552 -260ZM220 310Q220 270 235.5 248.5Q251 227 278 227Q299 227 314.5 239.5Q330 252 340.5 273.5Q351 295 356 322.5Q361 350 361 380Q361 421 346.5 442.5Q332 464 303 464Q282 464 266.5 452Q251 440 240.5 419Q230 398 225 370Q220 342 220 310ZM535 -196Q559 -196 574 -187.5Q589 -179 598.5 -162.5Q608 -146 613.5 -122.5Q619 -99 622 -69L677 435L500 442Q536 409 536 356Q536 317 520 282.5Q504 248 471 222.5Q438 197 388 182Q338 167 270 167Q212 167 186.5 158Q161 149 161 126Q161 104 186 96Q211 88 265 87Q399 85 465 51Q531 17 531 -63Q531 -132 482 -180Q492 -188 504.5 -192Q517 -196 535 -196ZM121 -115Q121 -158 157 -175Q193 -192 247 -192Q279 -192 307 -186Q335 -180 356 -169Q377 -158 389 -142Q401 -126 401 -106Q401 -88 393 -75Q385 -62 364.5 -53.5Q344 -45 310 -40Q276 -35 224 -34Q219 -33 208 -33Q197 -33 192 -33Q163 -41 142 -60.5Q121 -80 121 -115Z" glyph-name="g_j" horiz-adv-x="899" /><glyph d="M840 684Q840 646 814.5 620.5Q789 595 749 595Q714 595 695.5 615.5Q677 636 677 664Q677 702 702.5 727.5Q728 753 767 753Q802 753 821 732.5Q840 712 840 684ZM605 -260Q551 -260 507.5 -247.5Q464 -235 432 -216Q394 -237 341.5 -248.5Q289 -260 223 -260Q178 -260 135 -254Q92 -248 58.5 -233.5Q25 -219 4.5 -194.5Q-16 -170 -16 -134Q-16 -44 113 -11Q71 0 49.5 21.5Q28 43 28 78Q28 117 56 146.5Q84 176 141 190Q93 209 69.5 244Q46 279 46 324Q46 368 64 404.5Q82 441 116 468Q150 495 199.5 510Q249 525 312 525Q332 525 359.5 521Q387 517 404 512H606Q663 512 701.5 512.5Q740 513 765 514.5Q790 516 804 518.5Q818 521 826 525L841 515L782 30Q806 14 821 -10.5Q836 -35 836 -72Q836 -159 778.5 -209.5Q721 -260 605 -260ZM220 310Q220 270 235.5 248.5Q251 227 278 227Q299 227 314.5 239.5Q330 252 340.5 273.5Q351 295 356 322.5Q361 350 361 380Q361 421 346.5 442.5Q332 464 303 464Q282 464 266.5 452Q251 440 240.5 419Q230 398 225 370Q220 342 220 310ZM609 -195Q660 -195 687 -164.5Q714 -134 714 -92Q714 -45 682 -23Q650 -1 601 0L655 438L495 446Q536 413 536 356Q536 317 520 282.5Q504 248 471 222.5Q438 197 388 182Q338 167 270 167Q212 167 186.5 158Q161 149 161 126Q161 104 186 96Q211 88 265 87Q399 85 465 51Q531 17 531 -63Q531 -121 497 -164Q542 -195 609 -195ZM121 -115Q121 -158 157 -175Q193 -192 247 -192Q279 -192 307 -186Q335 -180 356 -169Q377 -158 389 -142Q401 -126 401 -106Q401 -88 393.5 -75Q386 -62 365.5 -53Q345 -44 309.5 -39.5Q274 -35 218 -34Q213 -33 201.5 -33Q190 -33 184 -33Q161 -40 141 -60Q121 -80 121 -115Z" glyph-name="g_j.alt" horiz-adv-x="877" /><glyph d="M421 29Q404 15 369 3.5Q334 -8 280 -8Q218 -8 171 11Q124 30 93 62Q62 94 46.5 137.5Q31 181 31 230Q31 299 52 358.5Q73 418 112 462.5Q151 507 206 532.5Q261 558 330 558Q371 558 403 548Q435 538 455 521L490 557H567L542 356H456Q456 360 457 364Q457 368 457 371.5Q457 375 457 378Q457 430 432 456Q407 482 361 482Q320 482 291.5 454Q263 426 245 384Q227 342 218.5 292.5Q210 243 210 199Q210 130 239 99Q268 68 319 68Q339 68 354.5 71.5Q370 75 378 80L390 182H339L348 255H585L576 182H529L506 -8H449ZM604 0 614 72H669L718 478H663L672 550H961L952 478H895L846 72H903L893 0Z" glyph-name="g_j.alt.sc" horiz-adv-x="954" /><glyph d="M421 29Q404 15 369 3.5Q334 -8 280 -8Q218 -8 171 11Q124 30 93 62Q62 94 46.5 137.5Q31 181 31 230Q31 299 52 358.5Q73 418 112 462.5Q151 507 206 532.5Q261 558 330 558Q371 558 403 548Q435 538 455 521L490 557H567L542 356H456Q456 360 457 364Q457 368 457 371.5Q457 375 457 378Q457 430 432 456Q407 482 361 482Q320 482 291.5 454Q263 426 245 384Q227 342 218.5 292.5Q210 243 210 199Q210 130 239 99Q268 68 319 68Q339 68 354.5 71.5Q370 75 378 80L390 182H339L348 255H585L576 182H529L506 -8H449ZM604 0 614 72H669L718 478H663L672 550H961L952 478H895L846 72H903L893 0Z" glyph-name="g_j.sc" horiz-adv-x="954" /><glyph d="M403 -10Q356 -10 326.5 -6Q297 -2 290 0L299 74Q304 72 315.5 70.5Q327 69 343 69Q365 69 381 78Q397 87 407 102Q417 117 421.5 136Q426 155 426 174Q426 214 412 237Q398 260 381.5 279Q365 298 351 319.5Q337 341 337 378Q337 418 352.5 445Q368 472 387 497.5Q406 523 421 553Q436 583 436 628Q436 657 421 674Q406 691 379 691Q341 691 322 662Q303 633 296 576L232 0H54L103 435H36L46 512H112L113 520Q127 645 200.5 707Q274 769 389 769Q503 769 561.5 729Q620 689 620 624Q620 585 605 557.5Q590 530 568 511Q546 492 520 478.5Q494 465 472 452.5Q450 440 435 426Q420 412 420 392Q420 376 434 364.5Q448 353 469 341Q490 329 514 315.5Q538 302 559 282.5Q580 263 594 236Q608 209 608 170Q608 133 594.5 100Q581 67 554.5 42.5Q528 18 490 4Q452 -10 403 -10Z" glyph-name="germandbls" horiz-adv-x="639" unicode="&#223;" /><glyph d="M371 -11Q347 -11 329.5 -9.5Q312 -8 300 -6Q286 -3 276 0L286 74Q291 71 298 70Q305 68 314.5 66.5Q324 65 337 65Q360 65 376 77Q392 89 403 108.5Q414 128 419 153Q424 178 424 205Q424 253 399.5 293.5Q375 334 315 361L320 401L533 673H308L225 0H49L102 435H44L53 512H111L141 750H639L628 666L430 413Q507 384 556.5 333.5Q606 283 606 206Q606 156 589 115.5Q572 75 541 47Q510 19 467 4Q424 -11 371 -11Z" glyph-name="germandbls.alt" horiz-adv-x="642" /><glyph d="M205 648Q175 661 157.5 671.5Q140 682 130 691.5Q120 701 117 709.5Q114 718 114 726Q114 749 134.5 764.5Q155 780 190 780Q223 780 248 766.5Q273 753 294 712L346 613H288Z" glyph-name="grave" horiz-adv-x="368" unicode="`" /><glyph d="M182 778Q148 789 132.5 806Q117 823 117 842Q117 861 132.5 874Q148 887 177 887Q216 887 239 867Q262 847 284 821L349 740H286Z" glyph-name="grave.cap" horiz-adv-x="355" /><glyph d="M61 218 294 352 93 489 105 581 405 372 400 327 48 118Z" glyph-name="greater" horiz-adv-x="423" unicode="&gt;" /><glyph d="M36 128 269 262 68 399 80 491 380 282 375 237 23 28Z" glyph-name="greater.old" horiz-adv-x="402" /><glyph d="M52 187 252 287 76 389 86 471 357 304 352 265 41 98Z" glyph-name="greater.sc" horiz-adv-x="380" /><glyph d="M169 218 402 352 201 489 213 581 513 372 508 327 156 118Z" glyph-name="greater.tln" horiz-adv-x="640" /><glyph d="M155 128 388 262 187 399 199 491 499 282 494 237 142 28Z" glyph-name="greater.ton" horiz-adv-x="640" /><glyph d="M276 14 27 252 31 286 335 501 328 440 192 269 283 75ZM477 53 252 253 256 285 527 462 520 401 408 269 484 114Z" glyph-name="guillemotleft" horiz-adv-x="551" unicode="&#171;" /><glyph d="M295 94 46 332 50 366 354 581 347 520 211 349 302 155ZM496 133 271 333 275 365 546 542 539 481 427 349 503 194Z" glyph-name="guillemotleft.cap" horiz-adv-x="569" /><glyph d="M261 56 31 250 34 277 310 453 303 396 188 263 269 113ZM444 87 236 251 239 276 485 422 478 365 384 263 451 144Z" glyph-name="guillemotleft.sc" horiz-adv-x="524" /><glyph d="M321 14 72 252 76 286 380 501 373 440 237 269 328 75ZM522 53 297 253 301 285 572 462 565 401 453 269 529 114Z" glyph-name="guillemotleft.tln" horiz-adv-x="640" /><glyph d="M275 501 527 286 523 252 216 14 223 75 362 266 268 440ZM75 462 301 285 297 253 24 53 32 114 145 266 67 401Z" glyph-name="guillemotright" horiz-adv-x="551" unicode="&#187;" /><glyph d="M295 581 547 366 543 332 236 94 243 155 382 346 288 520ZM95 542 321 365 317 333 44 133 52 194 165 346 87 481Z" glyph-name="guillemotright.cap" horiz-adv-x="569" /><glyph d="M262 453 494 277 491 250 213 56 221 113 337 260 255 396ZM79 422 289 276 286 251 39 87 45 144 141 260 73 365Z" glyph-name="guillemotright.sc" horiz-adv-x="522" /><glyph d="M319 501 571 286 567 252 260 14 267 75 406 266 312 440ZM119 462 345 285 341 253 68 53 76 114 189 266 111 401Z" glyph-name="guillemotright.tln" horiz-adv-x="640" /><glyph d="M344 124Q346 153 351.5 181Q357 209 363.5 236.5Q370 264 375.5 292.5Q381 321 383 350Q385 380 372.5 397.5Q360 415 336 415Q298 415 275 377.5Q252 340 244 274L210 0H32L115 670H50L60 747Q126 747 167 747.5Q208 748 232.5 749.5Q257 751 268.5 753.5Q280 756 287 760L303 750L285 605Q277 543 268.5 498.5Q260 454 252 417Q281 468 320.5 496.5Q360 525 413 525Q485 525 524 482Q563 439 560 364Q559 331 553 296.5Q547 262 540 229.5Q533 197 527.5 167Q522 137 520 113Q518 78 539 78Q553 78 563.5 98.5Q574 119 580 166H644Q633 78 595 34Q557 -10 486 -10Q417 -10 379 24Q341 58 344 124Z" glyph-name="h" horiz-adv-x="648" unicode="h" /><glyph d="M98 613 138 699Q161 752 185 777.5Q209 803 245 803Q273 803 286.5 790.5Q300 778 300 757Q300 736 284 713.5Q268 691 239 671L160 613ZM249 613 319 698Q357 745 387 762.5Q417 780 452 780Q486 780 500.5 767.5Q515 755 515 737Q515 712 494.5 693Q474 674 420 657L307 613Z" glyph-name="hungarumlaut" horiz-adv-x="518" unicode="&#733;" /><glyph d="M109 753 151 853Q166 891 186.5 913.5Q207 936 239 936Q265 936 278.5 922.5Q292 909 292 888Q292 868 276.5 845Q261 822 232 801L174 753ZM255 753 316 839Q336 865 361.5 885.5Q387 906 422 906Q451 906 464.5 892.5Q478 879 478 862Q478 840 462 825Q446 810 414 796L320 753Z" glyph-name="hungarumlaut.cap" horiz-adv-x="493" /><glyph d="M68 356H366L355 269H57Z" glyph-name="hyphen" horiz-adv-x="409" unicode="-" /><glyph d="M76 395H374L363 308H65Z" glyph-name="hyphen.cap" horiz-adv-x="416" /><glyph d="M66 328H332L322 248H56Z" glyph-name="hyphen.sc" horiz-adv-x="380" /><glyph d="M183 356H481L470 269H172Z" glyph-name="hyphen.tln" horiz-adv-x="640" /><glyph d="M203 -10Q170 -10 142 -0.5Q114 9 95.5 28.5Q77 48 68.5 79Q60 110 65 152L100 435H35L45 512Q111 512 151.5 512.5Q192 513 216 514.5Q240 516 251.5 518.5Q263 521 271 525L287 515L238 118Q234 78 256 78Q270 78 280.5 98.5Q291 119 298 166H362Q351 81 314.5 35.5Q278 -10 203 -10ZM197 608Q162 608 143.5 628.5Q125 649 125 677Q125 715 150.5 740.5Q176 766 215 766Q250 766 269 745.5Q288 725 288 698Q288 660 262.5 634Q237 608 197 608Z" glyph-name="i" horiz-adv-x="368" unicode="i" /><glyph d="M203 -10Q170 -10 142 -0.5Q114 9 95.5 28.5Q77 48 68.5 79Q60 110 65 152L100 435H35L45 512Q111 512 151.5 512.5Q192 513 216 514.5Q240 516 251.5 518.5Q263 521 271 525L287 515L238 118Q234 78 256 78Q270 78 280.5 98.5Q291 119 298 166H362Q351 81 314.5 35.5Q278 -10 203 -10ZM197 608Q162 608 143.5 628.5Q125 649 125 677Q125 715 150.5 740.5Q176 766 215 766Q250 766 269 745.5Q288 725 288 698Q288 660 262.5 634Q237 608 197 608Z" glyph-name="i.TRK" horiz-adv-x="368" /><glyph d="M203 -10Q170 -10 142 -0.5Q114 9 95.5 28.5Q77 48 68.5 79Q60 110 65 152L100 435H35L45 512Q111 512 151.5 512.5Q192 513 216 514.5Q240 516 251.5 518.5Q263 521 271 525L287 515L238 118Q234 78 256 78Q270 78 280.5 98.5Q291 119 298 166H362Q351 81 314.5 35.5Q278 -10 203 -10ZM197 608Q162 608 143.5 628.5Q125 649 125 677Q125 715 150.5 740.5Q176 766 215 766Q250 766 269 745.5Q288 725 288 698Q288 660 262.5 634Q237 608 197 608Z" glyph-name="i.dot" horiz-adv-x="368" /><glyph d="M128 613 192 698Q230 748 262 764Q294 780 327 780Q363 780 376.5 767Q390 754 389 735Q388 713 365 693.5Q342 674 277 648L185 613ZM203 -10Q170 -10 142 -0.5Q114 9 95.5 28.5Q77 48 68.5 79Q60 110 65 152L100 435H35L45 512Q111 512 151.5 512.5Q192 513 216 514.5Q240 516 251.5 518.5Q263 521 271 525L287 515L238 118Q234 78 256 78Q270 78 280.5 98.5Q291 119 298 166H362Q351 81 314.5 35.5Q278 -10 203 -10Z" glyph-name="iacute" horiz-adv-x="368" unicode="&#237;" /><glyph d="M472 603 536 688Q574 738 606 754Q638 770 671 770Q707 770 720.5 757Q734 744 733 725Q732 703 709 683.5Q686 664 621 638L529 603ZM127 603 191 688Q229 738 261 754Q293 770 326 770Q362 770 375.5 757Q389 744 388 725Q387 703 364 683.5Q341 664 276 638L184 603ZM203 -10Q170 -10 142 -0.5Q114 9 95.5 28.5Q77 48 68.5 79Q60 110 65 152L100 435H35L45 512Q111 512 151.5 512.5Q192 513 216 514.5Q240 516 251.5 518.5Q263 521 271 525L287 515L238 118Q234 78 256 78Q270 78 280.5 98.5Q291 119 298 166H362Q351 81 314.5 35.5Q278 -10 203 -10ZM328 -260Q297 -260 268.5 -253.5Q240 -247 218 -234Q196 -221 183 -201Q170 -181 170 -155Q170 -121 192 -95.5Q214 -70 259 -70Q294 -70 311.5 -88.5Q329 -107 329 -133Q329 -172 299 -193Q308 -196 321 -196Q360 -196 375.5 -162.5Q391 -129 399 -69L459 435H389L399 512Q459 512 500.5 512.5Q542 513 569.5 514.5Q597 516 612 518.5Q627 521 633 525L648 515L582 -20Q575 -80 557.5 -125Q540 -170 510 -200Q480 -230 435 -245Q390 -260 328 -260Z" glyph-name="iacute_jacute" horiz-adv-x="680" /><glyph d="M203 -10Q170 -10 142 -0.5Q114 9 95.5 28.5Q77 48 68.5 79Q60 110 65 152L100 435H35L45 512Q111 512 151.5 512.5Q192 513 216 514.5Q240 516 251.5 518.5Q263 521 271 525L287 515L238 118Q234 78 256 78Q270 78 280.5 98.5Q291 119 298 166H362Q351 81 314.5 35.5Q278 -10 203 -10ZM453 -260Q375 -260 330 -230.5Q285 -201 285 -150Q285 -115 307.5 -89Q330 -63 374 -63Q409 -63 427.5 -81Q446 -99 446 -124Q446 -147 436 -163Q426 -179 410 -189Q424 -195 445 -195Q493 -195 519 -164.5Q545 -134 545 -92Q545 -47 514.5 -24.5Q484 -2 432 0L486 435H427L437 512Q494 512 532.5 512.5Q571 513 596 514.5Q621 516 635 518.5Q649 521 657 525L672 515L613 31Q667 -4 667 -72Q667 -110 654 -144Q641 -178 615 -204Q589 -230 548.5 -245Q508 -260 453 -260ZM488 613 552 698Q590 748 622 764Q654 780 687 780Q723 780 736.5 767Q750 754 749 735Q748 713 725 693.5Q702 674 637 648L545 613ZM118 613 182 698Q220 748 252 764Q284 780 317 780Q353 780 366.5 767Q380 754 379 735Q378 713 355 693.5Q332 674 267 648L175 613Z" glyph-name="iacute_jacute.alt" horiz-adv-x="708" /><glyph d="M559 591H500L561 651Q572 661 582.5 671.5Q593 682 606 691Q619 700 634.5 705.5Q650 711 669 711Q695 711 707.5 701Q720 691 720 676Q720 656 705 641Q690 626 655 616ZM221 591H162L223 651Q234 661 244.5 671.5Q255 682 268 691Q281 700 296.5 705.5Q312 711 331 711Q357 711 369.5 701Q382 691 382 676Q382 656 367 641Q352 626 317 616ZM27 235 36 307H92L112 478H57L65 550H355L346 478H289L269 307H325L316 235ZM592 242Q577 117 504.5 54.5Q432 -8 306 -8Q254 -8 212 2.5Q170 13 141 32Q112 51 98 79Q84 107 88 141Q92 173 116.5 192.5Q141 212 176 212Q211 212 230 192.5Q249 173 245 143Q243 120 231.5 108.5Q220 97 208 92Q210 84 229 76Q248 68 277 68Q345 68 374.5 108.5Q404 149 414 231L445 478H386L395 550H687L678 478H622Z" glyph-name="iacute_jacute.alt.sc" horiz-adv-x="677" /><glyph d="M673 586H613L674 645Q685 655 695.5 665.5Q706 676 719 685Q732 694 747.5 699.5Q763 705 782 705Q808 705 821 695.5Q834 686 834 670Q834 650 818.5 635Q803 620 768 611ZM216 586H156L217 645Q228 655 238.5 665.5Q249 676 262 685Q275 694 290.5 699.5Q306 705 325 705Q351 705 363.5 695.5Q376 686 377 670Q377 650 361.5 635Q346 620 311 611ZM10 0 20 72H75L124 478H69L78 550H367L358 478H301L252 72H309L299 0ZM734 185Q723 88 666 40Q609 -8 502 -8Q422 -8 375.5 20Q329 48 329 102Q329 142 353 168Q377 194 419 194Q451 194 470 177.5Q489 161 489 132Q489 110 477 95.5Q465 81 453 74Q457 69 468 65.5Q479 62 493 62Q522 62 534 81Q546 100 551 139L593 478H534L543 550H835L826 478H770Z" glyph-name="iacute_jacute.sc" horiz-adv-x="826" /><glyph d="M-1 613 187 787H238L378 613H302L201 688L75 613ZM203 -10Q170 -10 142 -0.5Q114 9 95.5 28.5Q77 48 68.5 79Q60 110 65 152L100 435H35L45 512Q111 512 151.5 512.5Q192 513 216 514.5Q240 516 251.5 518.5Q263 521 271 525L287 515L238 118Q234 78 256 78Q270 78 280.5 98.5Q291 119 298 166H362Q351 81 314.5 35.5Q278 -10 203 -10Z" glyph-name="icircumflex" horiz-adv-x="368" unicode="&#238;" /><glyph d="M380 697Q380 659 354.5 633.5Q329 608 289 608Q254 608 235.5 628Q217 648 217 676Q217 715 242.5 740.5Q268 766 307 766Q343 766 361.5 745.5Q380 725 380 697ZM162 697Q162 659 136.5 633.5Q111 608 71 608Q36 608 17.5 628Q-1 648 -1 676Q-1 715 24.5 740.5Q50 766 90 766Q125 766 143.5 745.5Q162 725 162 697ZM203 -10Q170 -10 142 -0.5Q114 9 95.5 28.5Q77 48 68.5 79Q60 110 65 152L100 435H35L45 512Q111 512 151.5 512.5Q192 513 216 514.5Q240 516 251.5 518.5Q263 521 271 525L287 515L238 118Q234 78 256 78Q270 78 280.5 98.5Q291 119 298 166H362Q351 81 314.5 35.5Q278 -10 203 -10Z" glyph-name="idieresis" horiz-adv-x="368" unicode="&#239;" /><glyph d="M203 -10Q170 -10 142 -0.5Q114 9 95.5 28.5Q77 48 68.5 79Q60 110 65 152L100 435H35L45 512Q111 512 151.5 512.5Q192 513 216 514.5Q240 516 251.5 518.5Q263 521 271 525L287 515L238 118Q234 78 256 78Q270 78 280.5 98.5Q291 119 298 166H362Q351 81 314.5 35.5Q278 -10 203 -10ZM112 648Q82 661 64.5 671.5Q47 682 37 691.5Q27 701 24 709.5Q21 718 21 726Q21 749 41.5 764.5Q62 780 97 780Q130 780 155 766.5Q180 753 201 712L253 613H195Z" glyph-name="igrave" horiz-adv-x="368" unicode="&#236;" /><glyph d="M209 608Q174 608 155.5 628.5Q137 649 137 677Q137 715 162.5 740.5Q188 766 227 766Q262 766 281 745.5Q300 725 300 698Q300 660 274.5 634Q249 608 209 608ZM-11 -260Q-42 -260 -70.5 -253.5Q-99 -247 -121 -234Q-143 -221 -156 -201Q-169 -181 -169 -155Q-169 -121 -147 -95.5Q-125 -70 -80 -70Q-45 -70 -27.5 -88.5Q-10 -107 -10 -133Q-10 -172 -40 -193Q-31 -196 -18 -196Q21 -196 36.5 -162.5Q52 -129 60 -69L120 435H50L60 512Q120 512 161.5 512.5Q203 513 230.5 514.5Q258 516 273 518.5Q288 521 294 525L309 515L243 -20Q236 -80 218.5 -125Q201 -170 171 -200Q141 -230 96 -245Q51 -260 -11 -260Z" glyph-name="j" horiz-adv-x="340" unicode="j" /><glyph d="M282 697Q282 659 256.5 633Q231 607 191 607Q156 607 137.5 627.5Q119 648 119 676Q119 714 144.5 739.5Q170 765 210 765Q245 765 263.5 744.5Q282 724 282 697ZM69 -260Q-9 -260 -54 -230.5Q-99 -201 -99 -150Q-99 -115 -76.5 -89Q-54 -63 -10 -63Q25 -63 43.5 -81Q62 -99 62 -124Q62 -147 52 -163Q42 -179 26 -189Q40 -195 61 -195Q109 -195 135 -164.5Q161 -134 161 -92Q161 -47 130.5 -24.5Q100 -2 48 0L102 435H43L53 512Q110 512 148.5 512.5Q187 513 212 514.5Q237 516 251 518.5Q265 521 273 525L288 515L229 31Q283 -4 283 -72Q283 -110 270 -144Q257 -178 231 -204Q205 -230 164.5 -245Q124 -260 69 -260Z" glyph-name="j.alt" horiz-adv-x="324" /><glyph d="M210 0H33L115 670H50L60 747Q123 747 163.5 748Q204 749 229 750.5Q254 752 267 754.5Q280 757 287 760L303 750L286 613Q278 546 270 500.5Q262 455 256 427Q279 468 319 496.5Q359 525 425 525Q488 525 529 494.5Q570 464 570 409Q570 357 535 316.5Q500 276 438 253L526 77H570L562 0H369L266 211L270 250Q329 261 359.5 299.5Q390 338 390 386Q390 438 344 438Q310 438 282 395Q254 352 243 258Z" glyph-name="k" horiz-adv-x="609" unicode="k" /><glyph d="M451 435H264L240 243ZM283 177 225 125 210 0H32L115 670H50L60 747Q122 747 163.5 748Q205 749 230.5 750.5Q256 752 269 754.5Q282 757 287 760L303 750L273 512H586L577 443L409 291L526 77H567L559 0H379Z" glyph-name="k.alt" horiz-adv-x="597" /><glyph d="M184 -10Q151 -10 124 -1.5Q97 7 78 26.5Q59 46 50.5 77Q42 108 48 152L111 671H47L56 748Q122 748 163 748.5Q204 749 228 750.5Q252 752 263.5 754.5Q275 757 283 761L299 751L221 119Q217 77 241 77Q257 77 265.5 96.5Q274 116 281 166H345Q340 125 329.5 92.5Q319 60 300.5 37Q282 14 254 2Q226 -10 184 -10Z" glyph-name="l" horiz-adv-x="353" unicode="l" /><glyph d="M41 327 47 372 399 581 386 481 153 347 353 210 341 118Z" glyph-name="less" horiz-adv-x="423" unicode="&lt;" /><glyph d="M22 237 28 282 380 491 367 391 134 257 334 120 322 28Z" glyph-name="less.old" horiz-adv-x="402" /><glyph d="M30 265 35 304 347 471 335 382 134 282 311 180 300 98Z" glyph-name="less.sc" horiz-adv-x="380" /><glyph d="M150 327 156 372 508 581 495 481 262 347 462 210 450 118Z" glyph-name="less.tln" horiz-adv-x="640" /><glyph d="M142 237 148 282 500 491 487 391 254 257 454 120 442 28Z" glyph-name="less.ton" horiz-adv-x="640" /><glyph d="M417 185 432 305H64L74 384H520L495 185Z" glyph-name="logicalnot" horiz-adv-x="566" unicode="&#172;" /><glyph d="M407 135 422 255H54L64 334H510L485 135Z" glyph-name="logicalnot.old" horiz-adv-x="558" /><glyph d="M371 159 383 251H58L67 322H465L445 159Z" glyph-name="logicalnot.sc" horiz-adv-x="516" /><glyph d="M454 185 469 305H101L111 384H557L532 185Z" glyph-name="logicalnot.tln" horiz-adv-x="640" /><glyph d="M449 135 464 255H96L106 334H552L527 135Z" glyph-name="logicalnot.ton" horiz-adv-x="640" /></font>
</defs>
</svg>
