<?xml version="1.0" standalone="no"?><!DOCTYPE svg PUBLIC "-//W3C//DTD SVG 1.1//EN" "http://www.w3.org/Graphics/SVG/1.1/DTD/svg11.dtd" ><svg version="1.1" xmlns="http://www.w3.org/2000/svg"><defs><font horiz-adv-x="0" id="font"><font-face ascent="750" bbox="-163 -262 2711 1089" cap-height="690" descent="-250" font-family="KazimirText RBC" font-stretch="normal" font-style="italic" font-weight="500" units-per-em="1000" x-height="500" /><missing-glyph d="M109 650H772V0H109ZM129 20H752V630H129ZM441 316 322 197 299 220 418 338 302 454 324 476 440 360 559 479 581 457 463 338 583 218 561 196Z" horiz-adv-x="864" /><glyph glyph-name=".null" horiz-adv-x="0" /><glyph d="M322 569 190 265H379ZM158 0H-30L-23 55H32L311 690H423L542 55H601L594 0H345L352 55H418L389 212H166L98 55H165Z" glyph-name="A" horiz-adv-x="623" unicode="A" /><glyph d="M324 564 192 265H382ZM-30 0 -23 55H33L292 635H208L215 690H520L512 635H431L542 55H602L595 0H349L356 55H422L392 212H169L99 55H165L158 0Z" glyph-name="A.alt" horiz-adv-x="625" /><glyph d="M280 448 169 215H332ZM-28 0 -22 51H30L245 499H173L180 550H460L453 499H384L484 51H539L533 0H307L314 51H369L343 167H146L91 51H146L139 0Z" glyph-name="A.alt.sc" horiz-adv-x="565" /><glyph d="M277 451 164 215H330ZM137 0H-30L-24 51H25L263 550H374L486 51H537L531 0H303L309 51H367L341 167H141L86 51H144Z" glyph-name="A.sc" horiz-adv-x="561" /><glyph d="M427 635 216 265H406L451 635ZM155 0H-37L-30 55H30L361 635H294L301 690H889L863 483H798L802 508Q808 547 802.5 571.5Q797 596 780.5 610Q764 624 735.5 629.5Q707 635 668 635H573L542 378L735 389L725 315L536 325L503 55H621Q662 55 688.5 62.5Q715 70 731.5 86.5Q748 103 756.5 129Q765 155 771 192L774 211H839L813 0H298L305 55H381L400 212H186L96 55H162Z" glyph-name="AE" horiz-adv-x="896" unicode="&#198;" /><glyph d="M357 623 193 265H407ZM-32 0 -25 55H32L297 635H227L234 690H848L822 483H756L759 507Q764 548 758.5 573Q753 598 737 611.5Q721 625 693.5 630Q666 635 627 635H470L507 378H633L642 456H701L675 246H617L626 324H514L553 55H579Q622 55 649 62.5Q676 70 692.5 86.5Q709 103 717.5 129.5Q726 156 730 193L732 211H798L772 0H364L371 55H437L415 212H169L97 55H164L156 0Z" glyph-name="AE.alt" horiz-adv-x="854" /><glyph d="M306 487 171 215H354ZM-30 0 -23 51H29L250 499H189L196 550H754L732 381H670L673 400Q679 433 674 452.5Q669 472 655 482.5Q641 493 617 496Q593 499 561 499H417L451 304H562L569 365H623L602 193H549L556 254H459L495 51H526Q561 51 583.5 56.5Q606 62 619.5 74.5Q633 87 640 107Q647 127 651 157L653 173H715L694 0H320L327 51H383L362 167H147L89 51H145L138 0Z" glyph-name="AE.alt.sc" horiz-adv-x="771" /><glyph d="M192 215H359L393 499H373ZM139 0H-33L-26 51H26L310 499H251L258 550H791L769 381H707L709 402Q712 432 707 451Q702 470 688.5 480.5Q675 491 651.5 495Q628 499 593 499H510L487 304L655 314L647 246L481 256L456 51H557Q593 51 616.5 56.5Q640 62 654.5 74Q669 86 676.5 104.5Q684 123 687 150L690 173H752L731 0H266L273 51H339L353 167H163L89 51H146Z" glyph-name="AE.sc" horiz-adv-x="808" /><glyph d="M377 740H327L399 832Q420 859 438.5 872Q457 885 483 885Q507 885 519 873.5Q531 862 531 846Q531 830 520.5 816Q510 802 479 788ZM322 569 190 265H379ZM158 0H-30L-23 55H32L311 690H423L542 55H601L594 0H345L352 55H418L389 212H166L98 55H165Z" glyph-name="Aacute" horiz-adv-x="623" unicode="&#193;" /><glyph d="M380 740H330L402 832Q423 859 441.5 872Q460 885 486 885Q510 885 522 873.5Q534 862 534 846Q534 830 523.5 816Q513 802 482 788ZM324 564 192 265H382ZM-30 0 -23 55H33L292 635H208L215 690H520L512 635H431L542 55H602L595 0H349L356 55H422L392 212H169L99 55H165L158 0Z" glyph-name="Aacute.alt" horiz-adv-x="625" /><glyph d="M330 588H284L346 658Q365 678 382 691.5Q399 705 425 705Q447 705 458 695.5Q469 686 469 673Q469 658 459 646Q449 634 420 623ZM280 448 169 215H332ZM-28 0 -22 51H30L245 499H173L180 550H460L453 499H384L484 51H539L533 0H307L314 51H369L343 167H146L91 51H146L139 0Z" glyph-name="Aacute.alt.sc" horiz-adv-x="565" /><glyph d="M326 590H280L343 660Q362 680 378.5 693.5Q395 707 421 707Q443 707 454 697.5Q465 688 465 675Q465 660 455.5 647.5Q446 635 417 624ZM277 451 164 215H330ZM137 0H-30L-24 51H25L263 550H374L486 51H537L531 0H303L309 51H367L341 167H141L86 51H144Z" glyph-name="Aacute.sc" horiz-adv-x="561" /><glyph d="M322 569 190 265H379ZM158 0H-30L-23 55H32L311 690H423L542 55H601L594 0H345L352 55H418L389 212H166L98 55H165ZM377 794 266 740H212L362 873H412L524 740H471Z" glyph-name="Acircumflex" horiz-adv-x="623" unicode="&#194;" /><glyph d="M377 794 266 740H212L362 873H412L524 740H471ZM324 564 192 265H382ZM-30 0 -23 55H33L292 635H208L215 690H520L512 635H431L542 55H602L595 0H349L356 55H422L392 212H169L99 55H165L158 0Z" glyph-name="Acircumflex.alt" horiz-adv-x="625" /><glyph d="M327 631 231 588H178L311 695H360L462 588H409ZM280 448 169 215H332ZM-28 0 -22 51H30L245 499H173L180 550H460L453 499H384L484 51H539L533 0H307L314 51H369L343 167H146L91 51H146L139 0Z" glyph-name="Acircumflex.alt.sc" horiz-adv-x="565" /><glyph d="M326 633 230 590H177L310 697H359L461 590H408ZM277 451 164 215H330ZM137 0H-30L-24 51H25L263 550H374L486 51H537L531 0H303L309 51H367L341 167H141L86 51H144Z" glyph-name="Acircumflex.sc" horiz-adv-x="561" /><glyph d="M322 569 190 265H379ZM158 0H-30L-23 55H32L311 690H423L542 55H601L594 0H345L352 55H418L389 212H166L98 55H165ZM533 813Q533 789 515 768Q497 747 465 747Q439 747 426 763.5Q413 780 413 800Q413 826 430.5 846Q448 866 480 866Q509 866 521 848.5Q533 831 533 813ZM346 813Q346 789 328 768Q310 747 278 747Q252 747 239 763.5Q226 780 226 800Q226 826 243.5 846Q261 866 292 866Q321 866 333.5 848.5Q346 831 346 813Z" glyph-name="Adieresis" horiz-adv-x="623" unicode="&#196;" /><glyph d="M324 564 192 265H382ZM-30 0 -23 55H33L292 635H208L215 690H520L512 635H431L542 55H602L595 0H349L356 55H422L392 212H169L99 55H165L158 0ZM531 813Q531 789 513 768Q495 747 463 747Q437 747 424 763.5Q411 780 411 800Q411 826 428.5 846Q446 866 478 866Q507 866 519 848.5Q531 831 531 813ZM344 813Q344 789 326 768Q308 747 276 747Q250 747 237 763.5Q224 780 224 800Q224 826 241.5 846Q259 866 290 866Q319 866 331.5 848.5Q344 831 344 813Z" glyph-name="Adieresis.alt" horiz-adv-x="625" /><glyph d="M469 653Q469 631 452 613Q435 595 406 595Q382 595 369.5 609Q357 623 357 641Q357 664 373 681.5Q389 699 418 699Q445 699 457 684.5Q469 670 469 653ZM299 653Q299 631 282.5 613Q266 595 236 595Q212 595 199.5 609Q187 623 187 641Q187 664 203.5 681.5Q220 699 249 699Q276 699 287.5 684.5Q299 670 299 653ZM280 448 169 215H332ZM-28 0 -22 51H30L245 499H173L180 550H460L453 499H384L484 51H539L533 0H307L314 51H369L343 167H146L91 51H146L139 0Z" glyph-name="Adieresis.alt.sc" horiz-adv-x="565" /><glyph d="M468 658Q468 635 451.5 617.5Q435 600 406 600Q382 600 369.5 614Q357 628 357 646Q357 669 373.5 686Q390 703 419 703Q445 703 456.5 689Q468 675 468 658ZM299 658Q299 635 282.5 617.5Q266 600 237 600Q213 600 200.5 614Q188 628 188 646Q188 669 204.5 686Q221 703 249 703Q275 703 287 689Q299 675 299 658ZM277 451 164 215H330ZM137 0H-30L-24 51H25L263 550H374L486 51H537L531 0H303L309 51H367L341 167H141L86 51H144Z" glyph-name="Adieresis.sc" horiz-adv-x="561" /><glyph d="M322 569 190 265H379ZM158 0H-30L-23 55H32L311 690H423L542 55H601L594 0H345L352 55H418L389 212H166L98 55H165ZM247 788Q217 802 206.5 816Q196 830 196 845Q196 861 208.5 873Q221 885 246 885Q272 885 289.5 871.5Q307 858 327 832L398 740H348Z" glyph-name="Agrave" horiz-adv-x="623" unicode="&#192;" /><glyph d="M249 788Q219 802 208.5 816Q198 830 198 845Q198 861 210.5 873Q223 885 248 885Q274 885 291.5 871.5Q309 858 329 832L400 740H350ZM324 564 192 265H382ZM-30 0 -23 55H33L292 635H208L215 690H520L512 635H431L542 55H602L595 0H349L356 55H422L392 212H169L99 55H165L158 0Z" glyph-name="Agrave.alt" horiz-adv-x="625" /><glyph d="M214 623Q186 633 176 645Q166 657 166 671Q166 685 177.5 695Q189 705 212 705Q237 705 253 691.5Q269 678 288 658L352 588H305ZM280 448 169 215H332ZM-28 0 -22 51H30L245 499H173L180 550H460L453 499H384L484 51H539L533 0H307L314 51H369L343 167H146L91 51H146L139 0Z" glyph-name="Agrave.alt.sc" horiz-adv-x="565" /><glyph d="M210 624Q183 635 172.5 647Q162 659 162 673Q162 687 173 697Q184 707 207 707Q232 707 248.5 693.5Q265 680 284 660L347 590H301ZM277 451 164 215H330ZM137 0H-30L-24 51H25L263 550H374L486 51H537L531 0H303L309 51H367L341 167H141L86 51H144Z" glyph-name="Agrave.sc" horiz-adv-x="561" /><glyph d="M322 569 190 265H379ZM158 0H-30L-23 55H32L311 690H423L542 55H601L594 0H345L352 55H418L389 212H166L98 55H165ZM366 732Q331 732 308.5 752.5Q286 773 286 807Q286 847 314 874.5Q342 902 389 902Q425 902 448 881.5Q471 861 471 827Q471 787 442.5 759.5Q414 732 366 732ZM383 853Q366 853 353.5 841Q341 829 341 812Q341 798 349.5 789Q358 780 373 780Q390 780 402.5 792.5Q415 805 415 822Q415 853 383 853Z" glyph-name="Aring" horiz-adv-x="623" unicode="&#197;" /><glyph d="M324 564 192 265H382ZM-30 0 -23 55H33L292 635H208L215 690H520L512 635H431L542 55H602L595 0H349L356 55H422L392 212H169L99 55H165L158 0ZM370 734Q335 734 312.5 754.5Q290 775 290 809Q290 849 318 876.5Q346 904 393 904Q429 904 452 883.5Q475 863 475 829Q475 789 446.5 761.5Q418 734 370 734ZM387 855Q370 855 357.5 843Q345 831 345 814Q345 800 353.5 791Q362 782 377 782Q394 782 406.5 794.5Q419 807 419 824Q419 855 387 855Z" glyph-name="Aring.alt" horiz-adv-x="625" /><glyph d="M321 582Q289 582 268 599Q247 616 247 645Q247 679 272 701.5Q297 724 341 724Q373 724 394 706.5Q415 689 415 661Q415 627 390 604.5Q365 582 321 582ZM335 681Q319 681 309 672Q299 663 299 649Q299 638 306.5 631.5Q314 625 328 625Q342 625 353 634.5Q364 644 364 657Q364 681 335 681ZM280 448 169 215H332ZM-28 0 -22 51H30L245 499H173L180 550H460L453 499H384L484 51H539L533 0H307L314 51H369L343 167H146L91 51H146L139 0Z" glyph-name="Aring.alt.sc" horiz-adv-x="565" /><glyph d="M315 586Q281 586 260.5 603Q240 620 240 649Q240 683 265 705.5Q290 728 333 728Q366 728 387 711Q408 694 408 665Q408 628 383 607Q358 586 315 586ZM328 685Q312 685 301.5 676.5Q291 668 291 654Q291 643 298.5 636.5Q306 630 320 630Q336 630 346.5 639Q357 648 357 661Q357 685 328 685ZM277 451 164 215H330ZM137 0H-30L-24 51H25L263 550H374L486 51H537L531 0H303L309 51H367L341 167H141L86 51H144Z" glyph-name="Aring.sc" horiz-adv-x="561" /><glyph d="M322 569 190 265H379ZM158 0H-30L-23 55H32L311 690H423L542 55H601L594 0H345L352 55H418L389 212H166L98 55H165ZM438 748Q416 748 399.5 756Q383 764 369 773Q355 782 342 790Q329 798 315 798Q293 798 282.5 783.5Q272 769 269 747H229Q236 803 260.5 834.5Q285 866 329 866Q352 866 369 858Q386 850 399.5 841Q413 832 425 824Q437 816 452 816Q472 816 482.5 830Q493 844 496 866H536Q532 839 526 817Q520 795 509.5 779.5Q499 764 481.5 756Q464 748 438 748Z" glyph-name="Atilde" horiz-adv-x="623" unicode="&#195;" /><glyph d="M428 748Q406 748 389.5 756Q373 764 359 773Q345 782 332 790Q319 798 305 798Q283 798 272.5 783.5Q262 769 259 747H219Q226 803 250.5 834.5Q275 866 319 866Q342 866 359 858Q376 850 389.5 841Q403 832 415 824Q427 816 442 816Q462 816 472.5 830Q483 844 486 866H526Q522 839 516 817Q510 795 499.5 779.5Q489 764 471.5 756Q454 748 428 748ZM324 564 192 265H382ZM-30 0 -23 55H33L292 635H208L215 690H520L512 635H431L542 55H602L595 0H349L356 55H422L392 212H169L99 55H165L158 0Z" glyph-name="Atilde.alt" horiz-adv-x="625" /><glyph d="M372 596Q353 596 338 602Q323 608 310 615Q297 622 286 628Q275 634 263 634Q244 634 234.5 623Q225 612 223 596H186Q191 644 213.5 669.5Q236 695 275 695Q295 695 310 689Q325 683 337.5 676.5Q350 670 361.5 664Q373 658 386 658Q404 658 412.5 668Q421 678 423 695H461Q455 649 437.5 622.5Q420 596 372 596ZM280 448 169 215H332ZM-28 0 -22 51H30L245 499H173L180 550H460L453 499H384L484 51H539L533 0H307L314 51H369L343 167H146L91 51H146L139 0Z" glyph-name="Atilde.alt.sc" horiz-adv-x="565" /><glyph d="M380 597Q361 597 346 603Q331 609 318.5 615.5Q306 622 294.5 628Q283 634 271 634Q252 634 243 623.5Q234 613 232 596H194Q200 644 222 670Q244 696 283 696Q304 696 319 690Q334 684 346 677Q358 670 369.5 664Q381 658 394 658Q412 658 421 668.5Q430 679 432 696H469Q464 648 446 622.5Q428 597 380 597ZM277 451 164 215H330ZM137 0H-30L-24 51H25L263 550H374L486 51H537L531 0H303L309 51H367L341 167H141L86 51H144Z" glyph-name="Atilde.sc" horiz-adv-x="561" /><glyph d="M26 55H102L172 635H97L104 690H381Q433 690 476 680Q519 670 549.5 651Q580 632 596.5 603.5Q613 575 613 539Q613 500 598 469.5Q583 439 558 416.5Q533 394 500.5 380Q468 366 433 360Q465 355 496 343.5Q527 332 551.5 313Q576 294 591 267Q606 240 606 204Q606 106 533 53Q460 0 315 0H19ZM294 636 263 378H324Q366 378 396.5 389.5Q427 401 447 421Q467 441 476.5 468Q486 495 486 526Q486 576 455 606Q424 636 357 636ZM257 329 224 54H309Q397 54 438.5 95.5Q480 137 480 206Q480 267 441 298Q402 329 336 329Z" glyph-name="B" horiz-adv-x="653" unicode="B" /><glyph d="M22 51H87L142 499H77L83 550H338Q385 550 423.5 542Q462 534 489.5 519Q517 504 532.5 481.5Q548 459 548 429Q548 399 535 374.5Q522 350 499.5 332Q477 314 447.5 302.5Q418 291 386 287Q416 284 445 275Q474 266 496 251Q518 236 531.5 214.5Q545 193 545 164Q545 86 480.5 43Q416 0 286 0H15ZM260 500 236 304H289Q360 304 393.5 335Q427 366 427 417Q427 455 399.5 477.5Q372 500 314 500ZM230 259 204 50H279Q354 50 389 80Q424 110 424 165Q424 213 390 236Q356 259 299 259Z" glyph-name="B.sc" horiz-adv-x="592" /><glyph d="M550 -10H497L464 40Q431 14 395 2Q359 -10 311 -10Q247 -10 198.5 14Q150 38 118 79Q86 120 70 175.5Q54 231 54 294Q54 371 76.5 444Q99 517 141.5 574Q184 631 247 665.5Q310 700 391 700Q436 700 471.5 689Q507 678 536 654L579 699H633L603 464H537Q540 479 540 494Q540 563 503.5 601.5Q467 640 399 640Q350 640 309.5 611.5Q269 583 240 533Q211 483 195 416Q179 349 179 272Q179 156 222.5 103Q266 50 335 50Q371 50 401 64Q431 78 454.5 102.5Q478 127 493 160Q508 193 514 231H580Z" glyph-name="C" horiz-adv-x="636" unicode="C" /><glyph d="M439 -8 409 32Q375 8 339 0Q303 -8 270 -8Q214 -8 171.5 10.5Q129 29 100 61.5Q71 94 56 137.5Q41 181 41 232Q41 295 60.5 354Q80 413 117.5 458Q155 503 210.5 530.5Q266 558 338 558Q419 558 465 520L504 557H555L531 366H469Q477 425 447 464Q417 503 347 503Q304 503 269.5 480Q235 457 210.5 417.5Q186 378 173 325Q160 272 160 212Q160 126 199.5 86.5Q239 47 298 47Q329 47 355.5 58Q382 69 402.5 88.5Q423 108 435.5 133.5Q448 159 452 188H514L489 -8Z" glyph-name="C.sc" horiz-adv-x="569" /><glyph d="M283 -200Q260 -200 237 -196Q214 -192 200 -182L206 -135Q216 -142 230.5 -146.5Q245 -151 260 -151Q283 -151 295 -141Q307 -131 307 -117Q307 -82 239 -82L241 -65L268 -7Q214 1 174 27.5Q134 54 107.5 94Q81 134 67.5 185.5Q54 237 54 294Q54 371 76.5 444Q99 517 141.5 574Q184 631 247 665.5Q310 700 391 700Q436 700 471.5 689Q507 678 536 654L579 699H633L603 464H537Q540 479 540 494Q540 563 503.5 601.5Q467 640 399 640Q350 640 309.5 611.5Q269 583 240 533Q211 483 195 416Q179 349 179 272Q179 156 222.5 103Q266 50 335 50Q371 50 401 64Q431 78 454.5 102.5Q478 127 493 160Q508 193 514 231H580L550 -10H497L464 40Q434 16 402 4Q370 -8 329 -10L314 -40Q350 -45 372.5 -62Q395 -79 395 -111Q395 -146 366.5 -173Q338 -200 283 -200Z" glyph-name="Ccedilla" horiz-adv-x="636" unicode="&#199;" /><glyph d="M253 -163Q232 -163 211 -159.5Q190 -156 176 -148L181 -105Q190 -111 203 -114.5Q216 -118 229 -118Q249 -118 259 -110Q269 -102 269 -92Q269 -65 210 -65L212 -52L235 -6Q187 0 151 20.5Q115 41 90.5 72.5Q66 104 53.5 145Q41 186 41 232Q41 295 60.5 354Q80 413 117.5 458Q155 503 210.5 530.5Q266 558 338 558Q419 558 465 520L504 557H555L531 366H469Q477 425 447 464Q417 503 347 503Q304 503 269.5 480Q235 457 210.5 417.5Q186 378 173 325Q160 272 160 212Q160 126 199.5 86.5Q239 47 298 47Q329 47 355.5 58Q382 69 402.5 88.5Q423 108 435.5 133.5Q448 159 452 188H514L489 -8H439L409 32Q381 12 351.5 3.5Q322 -5 293 -7L280 -32Q312 -37 333 -50Q354 -63 354 -89Q354 -118 328.5 -140.5Q303 -163 253 -163Z" glyph-name="Ccedilla.sc" horiz-adv-x="569" /><glyph d="M19 0 26 55H102L172 635H97L104 690H367Q449 690 508 664.5Q567 639 605.5 597Q644 555 662 500.5Q680 446 680 389Q680 305 652 233.5Q624 162 573 110Q522 58 451 29Q380 0 293 0ZM224 55H289Q348 55 397 80Q446 105 480.5 150.5Q515 196 534 258.5Q553 321 553 396Q553 464 536.5 509.5Q520 555 492 583Q464 611 426.5 623Q389 635 348 635H294Z" glyph-name="D" horiz-adv-x="709" unicode="D" /><glyph d="M15 0 22 51H87L142 499H77L83 550H322Q396 550 449.5 530Q503 510 538 477Q573 444 589.5 401Q606 358 606 312Q606 247 582 190Q558 133 513.5 91Q469 49 405.5 24.5Q342 0 263 0ZM204 51H261Q312 51 354 71Q396 91 425 127Q454 163 470 212Q486 261 486 319Q486 369 471 403.5Q456 438 431 459Q406 480 373.5 489.5Q341 499 306 499H259Z" glyph-name="D.sc" horiz-adv-x="639" /><glyph d="M26 55H102L172 635H97L104 690H612L586 483H520L523 507Q528 546 523 571Q518 596 501.5 610.5Q485 625 457.5 630Q430 635 391 635H294L263 378L457 389L448 315L257 325L224 55H343Q384 55 411 62.5Q438 70 455 86.5Q472 103 481 129.5Q490 156 494 193L496 211H562L536 0H19Z" glyph-name="E" horiz-adv-x="619" unicode="E" /><glyph d="M19 0 26 55H102L172 635H97L104 690H612L586 483H520L523 507Q528 546 523 571Q518 596 501.5 610Q485 624 457.5 629.5Q430 635 391 635H294L263 378H395L405 456H463L437 246H379L389 324H257L224 55H343Q384 55 411 62.5Q438 70 455 86.5Q472 103 481 129.5Q490 156 494 193L496 211H562L536 0Z" glyph-name="E.alt" horiz-adv-x="618" /><glyph d="M15 0 22 51H87L142 499H77L83 550H541L520 381H458L461 405Q469 462 440.5 480.5Q412 499 344 499H259L236 304H349L356 365H410L388 193H335L342 254H230L204 51H310Q346 51 369 56.5Q392 62 406.5 74Q421 86 428.5 106Q436 126 439 156L441 173H503L482 0Z" glyph-name="E.alt.sc" horiz-adv-x="558" /><glyph d="M22 51H87L142 499H77L83 550H541L520 381H458L460 400Q467 460 439.5 479.5Q412 499 344 499H259L236 304L406 314L398 246L230 256L204 51H308Q344 51 367.5 56Q391 61 405.5 73.5Q420 86 427.5 106Q435 126 439 156L441 173H503L482 0H15Z" glyph-name="E.sc" horiz-adv-x="558" /><glyph d="M26 55H102L172 635H97L104 690H612L586 483H520L523 507Q528 546 523 571Q518 596 501.5 610.5Q485 625 457.5 630Q430 635 391 635H294L263 378L457 389L448 315L257 325L224 55H343Q384 55 411 62.5Q438 70 455 86.5Q472 103 481 129.5Q490 156 494 193L496 211H562L536 0H19ZM374 740H324L396 832Q417 859 435.5 872Q454 885 480 885Q504 885 516 873.5Q528 862 528 846Q528 830 517.5 816Q507 802 476 788Z" glyph-name="Eacute" horiz-adv-x="619" unicode="&#201;" /><glyph d="M382 740H332L404 832Q425 859 443.5 872Q462 885 488 885Q512 885 524 873.5Q536 862 536 846Q536 830 525.5 816Q515 802 484 788ZM19 0 26 55H102L172 635H97L104 690H612L586 483H520L523 507Q528 546 523 571Q518 596 501.5 610Q485 624 457.5 629.5Q430 635 391 635H294L263 378H395L405 456H463L437 246H379L389 324H257L224 55H343Q384 55 411 62.5Q438 70 455 86.5Q472 103 481 129.5Q490 156 494 193L496 211H562L536 0Z" glyph-name="Eacute.alt" horiz-adv-x="618" /><glyph d="M333 588H287L349 658Q369 678 386 691.5Q403 705 428 705Q450 705 461 695.5Q472 686 472 673Q472 658 462.5 646Q453 634 424 623ZM15 0 22 51H87L142 499H77L83 550H541L520 381H458L461 405Q469 462 440.5 480.5Q412 499 344 499H259L236 304H349L356 365H410L388 193H335L342 254H230L204 51H310Q346 51 369 56.5Q392 62 406.5 74Q421 86 428.5 106Q436 126 439 156L441 173H503L482 0Z" glyph-name="Eacute.alt.sc" horiz-adv-x="558" /><glyph d="M326 590H280L343 660Q362 680 379 693.5Q396 707 421 707Q444 707 455 697.5Q466 688 466 675Q466 660 455.5 647.5Q445 635 416 624ZM22 51H87L142 499H77L83 550H541L520 381H458L460 400Q467 460 439.5 479.5Q412 499 344 499H259L236 304L406 314L398 246L230 256L204 51H308Q344 51 367.5 56Q391 61 405.5 73.5Q420 86 427.5 106Q435 126 439 156L441 173H503L482 0H15Z" glyph-name="Eacute.sc" horiz-adv-x="558" /><glyph d="M26 55H102L172 635H97L104 690H612L586 483H520L523 507Q528 546 523 571Q518 596 501.5 610.5Q485 625 457.5 630Q430 635 391 635H294L263 378L457 389L448 315L257 325L224 55H343Q384 55 411 62.5Q438 70 455 86.5Q472 103 481 129.5Q490 156 494 193L496 211H562L536 0H19ZM392 794 281 740H227L377 873H427L539 740H486Z" glyph-name="Ecircumflex" horiz-adv-x="619" unicode="&#202;" /><glyph d="M384 794 273 740H219L369 873H419L531 740H478ZM19 0 26 55H102L172 635H97L104 690H612L586 483H520L523 507Q528 546 523 571Q518 596 501.5 610Q485 624 457.5 629.5Q430 635 391 635H294L263 378H395L405 456H463L437 246H379L389 324H257L224 55H343Q384 55 411 62.5Q438 70 455 86.5Q472 103 481 129.5Q490 156 494 193L496 211H562L536 0Z" glyph-name="Ecircumflex.alt" horiz-adv-x="618" /><glyph d="M335 631 238 588H186L318 695H367L469 588H417ZM15 0 22 51H87L142 499H77L83 550H541L520 381H458L461 405Q469 462 440.5 480.5Q412 499 344 499H259L236 304H349L356 365H410L388 193H335L342 254H230L204 51H310Q346 51 369 56.5Q392 62 406.5 74Q421 86 428.5 106Q436 126 439 156L441 173H503L482 0Z" glyph-name="Ecircumflex.alt.sc" horiz-adv-x="558" /><glyph d="M340 633 245 590H192L325 697H373L475 590H423ZM22 51H87L142 499H77L83 550H541L520 381H458L460 400Q467 460 439.5 479.5Q412 499 344 499H259L236 304L406 314L398 246L230 256L204 51H308Q344 51 367.5 56Q391 61 405.5 73.5Q420 86 427.5 106Q435 126 439 156L441 173H503L482 0H15Z" glyph-name="Ecircumflex.sc" horiz-adv-x="558" /><glyph d="M26 55H102L172 635H97L104 690H612L586 483H520L523 507Q528 546 523 571Q518 596 501.5 610.5Q485 625 457.5 630Q430 635 391 635H294L263 378L457 389L448 315L257 325L224 55H343Q384 55 411 62.5Q438 70 455 86.5Q472 103 481 129.5Q490 156 494 193L496 211H562L536 0H19ZM538 813Q538 789 520 768Q502 747 470 747Q444 747 431 763.5Q418 780 418 800Q418 826 435.5 846Q453 866 485 866Q514 866 526 848.5Q538 831 538 813ZM351 813Q351 789 333 768Q315 747 283 747Q257 747 244 763.5Q231 780 231 800Q231 826 248.5 846Q266 866 297 866Q326 866 338.5 848.5Q351 831 351 813Z" glyph-name="Edieresis" horiz-adv-x="619" unicode="&#203;" /><glyph d="M539 813Q539 789 521 768Q503 747 471 747Q445 747 432 763.5Q419 780 419 800Q419 826 436.5 846Q454 866 486 866Q515 866 527 848.5Q539 831 539 813ZM352 813Q352 789 334 768Q316 747 284 747Q258 747 245 763.5Q232 780 232 800Q232 826 249.5 846Q267 866 298 866Q327 866 339.5 848.5Q352 831 352 813ZM19 0 26 55H102L172 635H97L104 690H612L586 483H520L523 507Q528 546 523 571Q518 596 501.5 610Q485 624 457.5 629.5Q430 635 391 635H294L263 378H395L405 456H463L437 246H379L389 324H257L224 55H343Q384 55 411 62.5Q438 70 455 86.5Q472 103 481 129.5Q490 156 494 193L496 211H562L536 0Z" glyph-name="Edieresis.alt" horiz-adv-x="618" /><glyph d="M477 655Q477 632 460 614.5Q443 597 413 597Q390 597 377.5 610.5Q365 624 365 642Q365 665 381 682.5Q397 700 426 700Q453 700 465 686Q477 672 477 655ZM308 655Q308 633 291 615Q274 597 244 597Q221 597 208.5 610.5Q196 624 196 642Q196 665 212 682.5Q228 700 257 700Q284 700 296 686Q308 672 308 655ZM15 0 22 51H87L142 499H77L83 550H541L520 381H458L461 405Q469 462 440.5 480.5Q412 499 344 499H259L236 304H349L356 365H410L388 193H335L342 254H230L204 51H310Q346 51 369 56.5Q392 62 406.5 74Q421 86 428.5 106Q436 126 439 156L441 173H503L482 0Z" glyph-name="Edieresis.alt.sc" horiz-adv-x="558" /><glyph d="M475 658Q475 635 458 617.5Q441 600 412 600Q389 600 376.5 614Q364 628 364 646Q364 669 380 686Q396 703 425 703Q451 703 463 689Q475 675 475 658ZM306 658Q306 636 289 618Q272 600 243 600Q219 600 206.5 614Q194 628 194 646Q194 669 210.5 686Q227 703 256 703Q282 703 294 689Q306 675 306 658ZM22 51H87L142 499H77L83 550H541L520 381H458L460 400Q467 460 439.5 479.5Q412 499 344 499H259L236 304L406 314L398 246L230 256L204 51H308Q344 51 367.5 56Q391 61 405.5 73.5Q420 86 427.5 106Q435 126 439 156L441 173H503L482 0H15Z" glyph-name="Edieresis.sc" horiz-adv-x="558" /><glyph d="M26 55H102L172 635H97L104 690H612L586 483H520L523 507Q528 546 523 571Q518 596 501.5 610.5Q485 625 457.5 630Q430 635 391 635H294L263 378L457 389L448 315L257 325L224 55H343Q384 55 411 62.5Q438 70 455 86.5Q472 103 481 129.5Q490 156 494 193L496 211H562L536 0H19ZM281 788Q251 802 240.5 816Q230 830 230 845Q230 861 242.5 873Q255 885 280 885Q306 885 323.5 871.5Q341 858 361 832L432 740H382Z" glyph-name="Egrave" horiz-adv-x="619" unicode="&#200;" /><glyph d="M19 0 26 55H102L172 635H97L104 690H612L586 483H520L523 507Q528 546 523 571Q518 596 501.5 610Q485 624 457.5 629.5Q430 635 391 635H294L263 378H395L405 456H463L437 246H379L389 324H257L224 55H343Q384 55 411 62.5Q438 70 455 86.5Q472 103 481 129.5Q490 156 494 193L496 211H562L536 0ZM281 788Q251 802 240.5 816Q230 830 230 845Q230 861 242.5 873Q255 885 280 885Q306 885 323.5 871.5Q341 858 361 832L432 740H382Z" glyph-name="Egrave.alt" horiz-adv-x="618" /><glyph d="M242 623Q215 633 205 645Q195 657 195 671Q195 685 206 695Q217 705 240 705Q265 705 281 691.5Q297 678 316 658L380 588H333ZM15 0 22 51H87L142 499H77L83 550H541L520 381H458L461 405Q469 462 440.5 480.5Q412 499 344 499H259L236 304H349L356 365H410L388 193H335L342 254H230L204 51H310Q346 51 369 56.5Q392 62 406.5 74Q421 86 428.5 106Q436 126 439 156L441 173H503L482 0Z" glyph-name="Egrave.alt.sc" horiz-adv-x="558" /><glyph d="M243 624Q215 635 205 647Q195 659 195 673Q195 687 206.5 697Q218 707 241 707Q265 707 281 693.5Q297 680 316 660L380 590H334ZM22 51H87L142 499H77L83 550H541L520 381H458L460 400Q467 460 439.5 479.5Q412 499 344 499H259L236 304L406 314L398 246L230 256L204 51H308Q344 51 367.5 56Q391 61 405.5 73.5Q420 86 427.5 106Q435 126 439 156L441 173H503L482 0H15Z" glyph-name="Egrave.sc" horiz-adv-x="558" /><glyph d="M21 0 28 55H104L137 325H39L46 380H143L174 635H99L106 690H369Q451 690 510 664.5Q569 639 607.5 597Q646 555 664 500.5Q682 446 682 389Q682 305 654 233.5Q626 162 575 110Q524 58 453 29Q382 0 295 0ZM291 55Q350 55 399 80Q448 105 482.5 150.5Q517 196 536 258.5Q555 321 555 396Q555 464 538.5 509.5Q522 555 494 583Q466 611 428.5 623Q391 635 350 635H296L265 380H412L405 325H259L226 55Z" glyph-name="Eth" horiz-adv-x="711" unicode="&#208;" /><glyph d="M16 0 23 51H88L113 255H28L35 307H119L143 499H78L84 550H323Q397 550 450.5 530Q504 510 539 477Q574 444 590.5 401Q607 358 607 312Q607 247 583 190Q559 133 514.5 91Q470 49 406.5 24.5Q343 0 264 0ZM262 51Q313 51 355 71Q397 91 426 127Q455 163 471 212Q487 261 487 319Q487 369 472 403.5Q457 438 432 459Q407 480 374.5 489.5Q342 499 307 499H260L236 307H362L356 255H230L205 51Z" glyph-name="Eth.sc" horiz-adv-x="639" /><glyph d="M19 0 26 55H102L172 635H97L104 690H601L575 483H509L512 507Q518 549 512.5 574.5Q507 600 490 613.5Q473 627 445.5 631Q418 635 379 635H294L263 377L440 388L431 314L257 325L224 55H333L326 0Z" glyph-name="F" horiz-adv-x="574" unicode="F" /><glyph d="M19 0 26 55H102L172 635H97L104 690H601L575 483H509L512 507Q518 549 512.5 574.5Q507 600 490 613.5Q473 627 445.5 631Q418 635 379 635H294L263 377H395L405 456H463L437 246H379L389 323H257L224 55H333L326 0Z" glyph-name="F.alt" horiz-adv-x="575" /><glyph d="M15 0 22 51H87L142 499H77L83 550H532L511 381H449L451 400Q455 433 449.5 452.5Q444 472 430 482.5Q416 493 392 496Q368 499 334 499H259L236 303H348L356 365H410L388 193H335L342 253H229L204 51H301L294 0Z" glyph-name="F.alt.sc" horiz-adv-x="521" /><glyph d="M15 0 22 51H87L142 499H77L83 550H532L511 381H449L451 400Q455 431 450 450.5Q445 470 430.5 480.5Q416 491 392 495Q368 499 334 499H259L236 303L392 312L383 245L229 254L204 51H301L294 0Z" glyph-name="F.sc" horiz-adv-x="519" /><glyph d="M555 -10H508L479 30Q415 -10 328 -10Q257 -10 205 14.5Q153 39 119.5 80.5Q86 122 70 177.5Q54 233 54 295Q54 372 76.5 445Q99 518 141.5 574.5Q184 631 247 665.5Q310 700 391 700Q434 700 472 688.5Q510 677 539 651L585 700H638L608 457H542Q543 462 543 467Q543 472 543.5 476.5Q544 481 544 484Q544 556 506 598Q468 640 399 640Q348 640 307.5 610Q267 580 238.5 529.5Q210 479 194.5 412.5Q179 346 179 273Q179 161 225.5 105.5Q272 50 356 50Q383 50 411 57.5Q439 65 456 80L478 266H382L389 321H665L658 266H588Z" glyph-name="G" horiz-adv-x="681" unicode="G" /><glyph d="M423 25Q409 14 373 3Q337 -8 289 -8Q225 -8 178.5 11.5Q132 31 101.5 64Q71 97 56 141Q41 185 41 234Q41 297 60.5 355.5Q80 414 117.5 459Q155 504 210 531Q265 558 337 558Q370 558 407 550Q444 542 470 521L509 558H560L535 362H473Q481 425 450.5 464Q420 503 357 503Q309 503 272 478.5Q235 454 210 413.5Q185 373 172.5 320.5Q160 268 160 213Q160 128 201.5 87.5Q243 47 315 47Q339 47 362.5 52Q386 57 400 68L416 198H344L350 249H586L580 198H519L494 -8H450Z" glyph-name="G.sc" horiz-adv-x="608" /><glyph d="M26 55H102L172 635H97L104 690H375L368 635H294L263 380H543L574 635H500L507 690H779L771 635H696L625 55H701L694 0H422L429 55H503L536 325H257L224 55H297L290 0H19Z" glyph-name="H" horiz-adv-x="773" unicode="H" /><glyph d="M22 51H87L142 499H77L83 550H330L324 499H259L236 307H477L501 499H437L443 550H690L684 499H618L563 51H629L622 0H375L382 51H446L471 255H230L204 51H269L262 0H15Z" glyph-name="H.sc" horiz-adv-x="698" /><glyph d="M19 0 26 55H102L172 635H97L104 690H377L370 635H294L224 55H299L292 0Z" glyph-name="I" horiz-adv-x="372" unicode="I" /><glyph d="M15 0 22 51H87L142 499H77L83 550H333L326 499H259L204 51H271L264 0Z" glyph-name="I.sc" horiz-adv-x="339" /><glyph d="M251 740H201L273 832Q294 859 312.5 872Q331 885 357 885Q381 885 393 873.5Q405 862 405 846Q405 830 394.5 816Q384 802 353 788ZM19 0 26 55H102L172 635H97L104 690H377L370 635H294L224 55H299L292 0Z" glyph-name="Iacute" horiz-adv-x="372" unicode="&#205;" /><glyph d="M216 590H170L233 660Q252 680 269 693.5Q286 707 311 707Q333 707 344 697.5Q355 688 355 675Q355 660 345 647.5Q335 635 306 624ZM15 0 22 51H87L142 499H77L83 550H333L326 499H259L204 51H271L264 0Z" glyph-name="Iacute.sc" horiz-adv-x="339" /><glyph d="M230 740H180L252 832Q273 859 291.5 872Q310 885 336 885Q360 885 372 873.5Q384 862 384 846Q384 830 373.5 816Q363 802 332 788ZM696 740H646L718 832Q739 859 757.5 872Q776 885 802 885Q826 885 838 873.5Q850 862 850 846Q850 830 839.5 816Q829 802 798 788ZM19 0 26 55H102L172 635H97L104 690H377L370 635H294L224 55H299L292 0ZM489 -10Q416 -10 371 25Q326 60 326 116Q326 152 347.5 176Q369 200 401 200Q428 200 444 185Q460 170 460 144Q460 121 447 103Q434 85 407 75Q423 58 442.5 53Q462 48 479 48Q507 48 525 58.5Q543 69 554.5 87Q566 105 572 130.5Q578 156 582 186L638 635H554L561 690H842L835 635H760L707 216Q693 103 640 46.5Q587 -10 489 -10Z" glyph-name="Iacute_Jacute" horiz-adv-x="822" /><glyph d="M619 588H573L635 658Q655 678 671.5 691.5Q688 705 714 705Q736 705 747 695.5Q758 686 758 673Q758 658 748 646Q738 634 709 623ZM198 588H152L215 658Q234 678 251 691.5Q268 705 293 705Q316 705 326.5 695.5Q337 686 338 673Q338 658 327.5 646Q317 634 288 623ZM15 0 22 51H87L142 499H77L83 550H333L326 499H259L204 51H271L264 0ZM643 183Q632 88 583.5 40Q535 -8 443 -8Q374 -8 334 19.5Q294 47 294 93Q294 125 314 147Q334 169 367 169Q390 169 404.5 156Q419 143 419 122Q419 99 405.5 85Q392 71 379 66Q385 55 400.5 50Q416 45 438 45Q480 45 497 71.5Q514 98 522 156L565 499H492L498 550H754L747 499H682Z" glyph-name="Iacute_Jacute.sc" horiz-adv-x="749" /><glyph d="M253 794 142 740H88L238 873H288L400 740H347ZM19 0 26 55H102L172 635H97L104 690H377L370 635H294L224 55H299L292 0Z" glyph-name="Icircumflex" horiz-adv-x="372" unicode="&#206;" /><glyph d="M216 633 120 590H68L201 697H249L352 590H299ZM15 0 22 51H87L142 499H77L83 550H333L326 499H259L204 51H271L264 0Z" glyph-name="Icircumflex.sc" horiz-adv-x="339" /><glyph d="M408 813Q408 789 390 768Q372 747 340 747Q314 747 301 763.5Q288 780 288 800Q288 826 305.5 846Q323 866 355 866Q384 866 396 848.5Q408 831 408 813ZM221 813Q221 789 203 768Q185 747 153 747Q127 747 114 763.5Q101 780 101 800Q101 826 118.5 846Q136 866 167 866Q196 866 208.5 848.5Q221 831 221 813ZM19 0 26 55H102L172 635H97L104 690H377L370 635H294L224 55H299L292 0Z" glyph-name="Idieresis" horiz-adv-x="372" unicode="&#207;" /><glyph d="M359 658Q359 635 342.5 617.5Q326 600 297 600Q273 600 260.5 614Q248 628 248 646Q248 669 264 686Q280 703 309 703Q335 703 347 689Q359 675 359 658ZM190 658Q190 635 173 617.5Q156 600 127 600Q104 600 91.5 614Q79 628 79 646Q79 669 95 686Q111 703 140 703Q166 703 178 689Q190 675 190 658ZM15 0 22 51H87L142 499H77L83 550H333L326 499H259L204 51H271L264 0Z" glyph-name="Idieresis.sc" horiz-adv-x="339" /><glyph d="M19 0 26 55H102L172 635H97L104 690H377L370 635H294L224 55H299L292 0ZM132 788Q102 802 91.5 816Q81 830 81 845Q81 861 93.5 873Q106 885 131 885Q157 885 174.5 871.5Q192 858 212 832L283 740H233Z" glyph-name="Igrave" horiz-adv-x="372" unicode="&#204;" /><glyph d="M110 624Q82 635 72 647Q62 659 62 673Q62 687 73 697Q84 707 107 707Q132 707 148 693.5Q164 680 183 660L247 590H201ZM15 0 22 51H87L142 499H77L83 550H333L326 499H259L204 51H271L264 0Z" glyph-name="Igrave.sc" horiz-adv-x="339" /><glyph d="M159 -10Q86 -10 41 25Q-4 60 -4 116Q-4 152 17.5 176Q39 200 71 200Q98 200 114 185Q130 170 130 144Q130 121 117 103Q104 85 77 75Q93 58 112.5 53Q132 48 149 48Q177 48 195 58.5Q213 69 224.5 87Q236 105 242 130.5Q248 156 252 186L308 635H224L231 690H512L505 635H430L377 216Q363 103 310 46.5Q257 -10 159 -10Z" glyph-name="J" horiz-adv-x="492" unicode="J" /><glyph d="M343 184Q331 84 282.5 38Q234 -8 143 -8Q75 -8 34 20Q-7 48 -7 93Q-7 125 12.5 147Q32 169 65 169Q89 169 103.5 155.5Q118 142 118 118Q118 98 106.5 82.5Q95 67 75 62Q85 54 97 49.5Q109 45 132 45Q152 45 167 50.5Q182 56 193.5 71Q205 86 213 112.5Q221 139 226 181L265 499H192L199 550H454L448 499H382Z" glyph-name="J.sc" horiz-adv-x="449" /><glyph d="M289 0H19L26 55H102L172 635H97L104 690H374L367 635H294L255 314L546 635H471L478 690H697L690 635H620L410 404L606 55H656L649 0H403L410 55H471L328 313L243 220L224 55H296Z" glyph-name="K" horiz-adv-x="678" unicode="K" /><glyph d="M255 311 579 635H294ZM19 0 26 55H102L172 635H97L104 690H666L659 635L424 400L614 55H665L658 0H411L419 55H475L336 312L244 220L224 55H296L289 0Z" glyph-name="K.alt" horiz-adv-x="679" /><glyph d="M228 249 509 499H259ZM15 0 22 51H87L142 499H77L83 550H596L589 499L386 321L554 51H599L592 0H366L373 51H419L299 245L219 175L204 51H268L261 0Z" glyph-name="K.alt.sc" horiz-adv-x="616" /><glyph d="M261 0H15L22 51H87L142 499H77L83 550H329L323 499H259L230 259L476 499H413L421 550H621L614 499H553L370 324L548 51H592L586 0H360L366 51H420L290 246L221 180L204 51H268Z" glyph-name="K.sc" horiz-adv-x="616" /><glyph d="M26 55H102L172 635H97L104 690H386L379 635H294L224 55H329Q367 55 392 62.5Q417 70 433 86.5Q449 103 458 129Q467 155 472 192L475 213H540L514 0H19Z" glyph-name="L" horiz-adv-x="570" unicode="L" /><glyph d="M22 51H87L142 499H77L83 550H340L334 499H259L204 51H295Q328 51 349.5 56.5Q371 62 385.5 75Q400 88 407.5 109Q415 130 419 160L421 176H483L461 0H15Z" glyph-name="L.sc" horiz-adv-x="515" /><glyph d="M242 0H19L26 55H102L172 635H97L104 690H329L447 232L678 690H901L894 635H818L748 55H823L816 0H544L551 55H626L692 596L439 91H372L241 597L175 55H249Z" glyph-name="M" horiz-adv-x="896" unicode="M" /><glyph d="M242 0H19L26 55H102L172 635H97L104 690H394L387 635H310L453 221L700 635H622L629 690H919L912 635H836L766 55H841L834 0H562L569 55H644L701 522L447 91H381L232 523L175 55H249Z" glyph-name="M.alt" horiz-adv-x="914" /><glyph d="M214 0H15L22 51H87L142 499H77L83 550H347L340 499H272L405 192L612 499H542L550 550H813L807 499H740L686 51H752L745 0H497L504 51H569L611 396L397 73H333L198 393L156 51H220Z" glyph-name="M.alt.sc" horiz-adv-x="821" /><glyph d="M214 0H15L22 51H87L142 499H77L83 550H291L401 210L591 550H799L792 499H725L670 51H737L731 0H483L489 51H553L604 464L389 73H327L205 464L156 51H220Z" glyph-name="M.sc" horiz-adv-x="805" /><glyph d="M515 -5 235 547 175 55H250L243 0H19L26 55H102L172 635H97L104 690H279L528 197L582 635H506L513 690H737L730 635H655L576 -5Z" glyph-name="N" horiz-adv-x="722" unicode="N" /><glyph d="M243 0H19L26 55H102L172 635H97L104 690H279L557 316L596 635H521L528 690H752L745 635H669L599 55H674L667 0H443L450 55H526L538 153L236 559L175 55H250Z" glyph-name="N.alt" horiz-adv-x="747" /><glyph d="M215 0H15L22 51H87L142 499H77L83 550H240L493 272L521 499H455L462 550H661L655 499H588L534 51H600L593 0H394L400 51H466L475 125L201 426L156 51H222Z" glyph-name="N.alt.sc" horiz-adv-x="669" /><glyph d="M457 -4 200 407 156 51H222L215 0H15L22 51H88L142 499H77L83 550H240L470 180L510 499H443L450 550H650L643 499H578L515 -4Z" glyph-name="N.sc" horiz-adv-x="648" /><glyph d="M515 -5 235 547 175 55H250L243 0H19L26 55H102L172 635H97L104 690H279L528 197L582 635H506L513 690H737L730 635H655L576 -5ZM489 748Q467 748 450.5 756Q434 764 420 773Q406 782 393 790Q380 798 366 798Q344 798 333.5 783.5Q323 769 320 747H280Q287 803 311.5 834.5Q336 866 380 866Q403 866 420 858Q437 850 450.5 841Q464 832 476 824Q488 816 503 816Q523 816 533.5 830Q544 844 547 866H587Q583 839 577 817Q571 795 560.5 779.5Q550 764 532.5 756Q515 748 489 748Z" glyph-name="Ntilde" horiz-adv-x="722" unicode="&#209;" /><glyph d="M491 736Q469 736 452 745.5Q435 755 420.5 766Q406 777 393 786.5Q380 796 366 796Q344 796 333.5 779Q323 762 320 736H277Q285 796 310 831.5Q335 867 381 867Q404 867 420.5 857.5Q437 848 450.5 837Q464 826 476.5 816.5Q489 807 504 807Q524 807 534.5 823.5Q545 840 548 866H591Q587 836 581 812Q575 788 563.5 771Q552 754 534.5 745Q517 736 491 736ZM243 0H19L26 55H102L172 635H97L104 690H279L557 316L596 635H521L528 690H752L745 635H669L599 55H674L667 0H443L450 55H526L538 153L236 559L175 55H250Z" glyph-name="Ntilde.alt" horiz-adv-x="747" /><glyph d="M425 586Q406 586 391 593Q376 600 363 609Q350 618 338.5 625Q327 632 315 632Q295 632 286 619Q277 606 275 586H234Q241 637 263.5 666.5Q286 696 328 696Q348 696 363.5 688.5Q379 681 391.5 672.5Q404 664 416 656.5Q428 649 441 649Q458 649 467.5 661.5Q477 674 479 694H520Q513 644 494 615Q475 586 425 586ZM215 0H15L22 51H87L142 499H77L83 550H240L493 272L521 499H455L462 550H661L655 499H588L534 51H600L593 0H394L400 51H466L475 124L201 426L156 51H222Z" glyph-name="Ntilde.alt.sc" horiz-adv-x="669" /><glyph d="M425 597Q406 597 391 603Q376 609 363.5 615.5Q351 622 340 628Q329 634 317 634Q297 634 288 623.5Q279 613 277 597H239Q245 644 267 670Q289 696 329 696Q349 696 364 690Q379 684 391 677Q403 670 414.5 664Q426 658 439 658Q457 658 466 668.5Q475 679 477 696H515Q508 649 490.5 623Q473 597 425 597ZM457 -4 200 407 156 51H222L215 0H15L22 51H88L142 499H77L83 550H240L470 180L510 499H443L450 550H650L643 499H578L515 -4Z" glyph-name="Ntilde.sc" horiz-adv-x="648" /><glyph d="M402 700Q479 700 531.5 673.5Q584 647 616.5 603.5Q649 560 663.5 504.5Q678 449 678 390Q678 321 657.5 250Q637 179 595 121.5Q553 64 488.5 27Q424 -10 336 -10Q263 -10 210 15Q157 40 122.5 83Q88 126 71 182Q54 238 54 300Q54 377 76.5 449Q99 521 143 576.5Q187 632 252 666Q317 700 402 700ZM397 640Q343 640 302 607.5Q261 575 234 523.5Q207 472 193.5 407Q180 342 180 277Q180 156 223.5 103Q267 50 340 50Q396 50 436.5 84.5Q477 119 502.5 172Q528 225 540 289Q552 353 552 412Q552 522 517 581Q482 640 397 640Z" glyph-name="O" horiz-adv-x="709" unicode="O" /><glyph d="M349 558Q417 558 465 537Q513 516 543 481.5Q573 447 586.5 403Q600 359 600 312Q600 255 582 198Q564 141 527 95Q490 49 432.5 20.5Q375 -8 297 -8Q232 -8 183.5 12Q135 32 103.5 66Q72 100 56.5 144.5Q41 189 41 238Q41 300 60.5 358Q80 416 118.5 460.5Q157 505 215 531.5Q273 558 349 558ZM344 503Q297 503 262 476.5Q227 450 204.5 409Q182 368 171 317Q160 266 160 216Q160 126 199 86.5Q238 47 301 47Q350 47 384 74Q418 101 439.5 143Q461 185 470.5 234.5Q480 284 480 329Q480 416 448 459.5Q416 503 344 503Z" glyph-name="O.sc" horiz-adv-x="634" /><glyph d="M402 700Q479 700 531.5 673.5Q584 647 616.5 603.5Q649 560 663.5 504.5Q678 449 678 390Q678 321 657.5 250Q637 179 595 121.5Q553 64 488.5 27Q424 -10 336 -10Q263 -10 210 15Q157 40 122.5 83Q88 126 71 182Q54 238 54 300Q54 377 76.5 449Q99 521 143 576.5Q187 632 252 666Q317 700 402 700ZM397 640Q343 640 302 607.5Q261 575 234 523.5Q207 472 193.5 407Q180 342 180 277Q180 156 223.5 103Q267 50 340 50Q396 50 436.5 84.5Q477 119 502.5 172Q528 225 540 289Q552 353 552 412Q552 522 517 581Q482 640 397 640ZM415 740H365L437 832Q458 859 476.5 872Q495 885 521 885Q545 885 557 873.5Q569 862 569 846Q569 830 558.5 816Q548 802 517 788Z" glyph-name="Oacute" horiz-adv-x="709" unicode="&#211;" /><glyph d="M402 700Q479 700 531.5 673.5Q584 647 616.5 603.5Q649 560 663.5 504.5Q678 449 678 390Q678 321 657.5 250Q637 179 595 121.5Q553 64 488.5 27Q424 -10 336 -10Q263 -10 210 15Q157 40 122.5 83Q88 126 71 182Q54 238 54 300Q54 377 76.5 449Q99 521 143 576.5Q187 632 252 666Q317 700 402 700ZM397 640Q343 640 302 607.5Q261 575 234 523.5Q207 472 193.5 407Q180 342 180 277Q180 156 223.5 103Q267 50 340 50Q396 50 436.5 84.5Q477 119 502.5 172Q528 225 540 289Q552 353 552 412Q552 522 517 581Q482 640 397 640ZM382 740 409 814Q429 867 444.5 886Q460 905 485 905Q520 905 521 875Q521 860 511.5 840Q502 820 480 794L437 740Z" glyph-name="Oacute.pl" horiz-adv-x="709" /><glyph d="M329 590 352 650Q369 691 383.5 707Q398 723 421 723Q453 723 455 695Q456 669 418 629L380 590ZM349 558Q417 558 465 537Q513 516 543 481.5Q573 447 586.5 403Q600 359 600 312Q600 255 582 198Q564 141 527 95Q490 49 432.5 20.5Q375 -8 297 -8Q232 -8 183.5 12Q135 32 103.5 66Q72 100 56.5 144.5Q41 189 41 238Q41 300 60.5 358Q80 416 118.5 460.5Q157 505 215 531.5Q273 558 349 558ZM344 503Q297 503 262 476.5Q227 450 204.5 409Q182 368 171 317Q160 266 160 216Q160 126 199 86.5Q238 47 301 47Q350 47 384 74Q418 101 439.5 143Q461 185 470.5 234.5Q480 284 480 329Q480 416 448 459.5Q416 503 344 503Z" glyph-name="Oacute.pl.sc" horiz-adv-x="634" /><glyph d="M361 590H314L377 660Q396 680 413 693.5Q430 707 456 707Q478 707 489 697.5Q500 688 500 675Q500 660 490 647.5Q480 635 451 624ZM349 558Q417 558 465 537Q513 516 543 481.5Q573 447 586.5 403Q600 359 600 312Q600 255 582 198Q564 141 527 95Q490 49 432.5 20.5Q375 -8 297 -8Q232 -8 183.5 12Q135 32 103.5 66Q72 100 56.5 144.5Q41 189 41 238Q41 300 60.5 358Q80 416 118.5 460.5Q157 505 215 531.5Q273 558 349 558ZM344 503Q297 503 262 476.5Q227 450 204.5 409Q182 368 171 317Q160 266 160 216Q160 126 199 86.5Q238 47 301 47Q350 47 384 74Q418 101 439.5 143Q461 185 470.5 234.5Q480 284 480 329Q480 416 448 459.5Q416 503 344 503Z" glyph-name="Oacute.sc" horiz-adv-x="634" /><glyph d="M402 700Q479 700 531.5 673.5Q584 647 616.5 603.5Q649 560 663.5 504.5Q678 449 678 390Q678 321 657.5 250Q637 179 595 121.5Q553 64 488.5 27Q424 -10 336 -10Q263 -10 210 15Q157 40 122.5 83Q88 126 71 182Q54 238 54 300Q54 377 76.5 449Q99 521 143 576.5Q187 632 252 666Q317 700 402 700ZM397 640Q343 640 302 607.5Q261 575 234 523.5Q207 472 193.5 407Q180 342 180 277Q180 156 223.5 103Q267 50 340 50Q396 50 436.5 84.5Q477 119 502.5 172Q528 225 540 289Q552 353 552 412Q552 522 517 581Q482 640 397 640ZM419 794 308 740H254L404 873H454L566 740H513Z" glyph-name="Ocircumflex" horiz-adv-x="709" unicode="&#212;" /><glyph d="M361 633 265 590H214L346 697H394L496 590H444ZM349 558Q417 558 465 537Q513 516 543 481.5Q573 447 586.5 403Q600 359 600 312Q600 255 582 198Q564 141 527 95Q490 49 432.5 20.5Q375 -8 297 -8Q232 -8 183.5 12Q135 32 103.5 66Q72 100 56.5 144.5Q41 189 41 238Q41 300 60.5 358Q80 416 118.5 460.5Q157 505 215 531.5Q273 558 349 558ZM344 503Q297 503 262 476.5Q227 450 204.5 409Q182 368 171 317Q160 266 160 216Q160 126 199 86.5Q238 47 301 47Q350 47 384 74Q418 101 439.5 143Q461 185 470.5 234.5Q480 284 480 329Q480 416 448 459.5Q416 503 344 503Z" glyph-name="Ocircumflex.sc" horiz-adv-x="634" /><glyph d="M402 700Q479 700 531.5 673.5Q584 647 616.5 603.5Q649 560 663.5 504.5Q678 449 678 390Q678 321 657.5 250Q637 179 595 121.5Q553 64 488.5 27Q424 -10 336 -10Q263 -10 210 15Q157 40 122.5 83Q88 126 71 182Q54 238 54 300Q54 377 76.5 449Q99 521 143 576.5Q187 632 252 666Q317 700 402 700ZM397 640Q343 640 302 607.5Q261 575 234 523.5Q207 472 193.5 407Q180 342 180 277Q180 156 223.5 103Q267 50 340 50Q396 50 436.5 84.5Q477 119 502.5 172Q528 225 540 289Q552 353 552 412Q552 522 517 581Q482 640 397 640ZM576 813Q576 789 558 768Q540 747 508 747Q482 747 469 763.5Q456 780 456 800Q456 826 473.5 846Q491 866 523 866Q552 866 564 848.5Q576 831 576 813ZM389 813Q389 789 371 768Q353 747 321 747Q295 747 282 763.5Q269 780 269 800Q269 826 286.5 846Q304 866 335 866Q364 866 376.5 848.5Q389 831 389 813Z" glyph-name="Odieresis" horiz-adv-x="709" unicode="&#214;" /><glyph d="M507 658Q507 635 490 617.5Q473 600 444 600Q420 600 407.5 614Q395 628 395 646Q395 669 411.5 686Q428 703 457 703Q483 703 495 689Q507 675 507 658ZM337 658Q337 635 320.5 617.5Q304 600 275 600Q251 600 238.5 614Q226 628 226 646Q226 670 242.5 686.5Q259 703 288 703Q314 703 325.5 689Q337 675 337 658ZM349 558Q417 558 465 537Q513 516 543 481.5Q573 447 586.5 403Q600 359 600 312Q600 255 582 198Q564 141 527 95Q490 49 432.5 20.5Q375 -8 297 -8Q232 -8 183.5 12Q135 32 103.5 66Q72 100 56.5 144.5Q41 189 41 238Q41 300 60.5 358Q80 416 118.5 460.5Q157 505 215 531.5Q273 558 349 558ZM344 503Q297 503 262 476.5Q227 450 204.5 409Q182 368 171 317Q160 266 160 216Q160 126 199 86.5Q238 47 301 47Q350 47 384 74Q418 101 439.5 143Q461 185 470.5 234.5Q480 284 480 329Q480 416 448 459.5Q416 503 344 503Z" glyph-name="Odieresis.sc" horiz-adv-x="634" /><glyph d="M402 700Q479 700 531.5 673.5Q584 647 616.5 603.5Q649 560 663.5 504.5Q678 449 678 390Q678 321 657.5 250Q637 179 595 121.5Q553 64 488.5 27Q424 -10 336 -10Q263 -10 210 15Q157 40 122.5 83Q88 126 71 182Q54 238 54 300Q54 377 76.5 449Q99 521 143 576.5Q187 632 252 666Q317 700 402 700ZM397 640Q343 640 302 607.5Q261 575 234 523.5Q207 472 193.5 407Q180 342 180 277Q180 156 223.5 103Q267 50 340 50Q396 50 436.5 84.5Q477 119 502.5 172Q528 225 540 289Q552 353 552 412Q552 522 517 581Q482 640 397 640ZM307 788Q277 802 266.5 816Q256 830 256 845Q256 861 268.5 873Q281 885 306 885Q332 885 349.5 871.5Q367 858 387 832L458 740H408Z" glyph-name="Ograve" horiz-adv-x="709" unicode="&#210;" /><glyph d="M263 624Q235 635 225 647Q215 659 215 673Q215 687 226 697Q237 707 260 707Q286 707 301.5 693.5Q317 680 337 660L400 590H354ZM349 558Q417 558 465 537Q513 516 543 481.5Q573 447 586.5 403Q600 359 600 312Q600 255 582 198Q564 141 527 95Q490 49 432.5 20.5Q375 -8 297 -8Q232 -8 183.5 12Q135 32 103.5 66Q72 100 56.5 144.5Q41 189 41 238Q41 300 60.5 358Q80 416 118.5 460.5Q157 505 215 531.5Q273 558 349 558ZM344 503Q297 503 262 476.5Q227 450 204.5 409Q182 368 171 317Q160 266 160 216Q160 126 199 86.5Q238 47 301 47Q350 47 384 74Q418 101 439.5 143Q461 185 470.5 234.5Q480 284 480 329Q480 416 448 459.5Q416 503 344 503Z" glyph-name="Ograve.sc" horiz-adv-x="634" /><glyph d="M180 277Q180 240 184 210Q188 180 196 156L513 586Q494 612 466 626Q438 640 397 640Q343 640 302 607.5Q261 575 234 523.5Q207 472 193.5 407Q180 342 180 277ZM340 50Q396 50 436.5 84.5Q477 119 502.5 172Q528 225 540 289Q552 353 552 412Q552 482 539 528L224 102Q245 75 274.5 62.5Q304 50 340 50ZM336 -10Q286 -10 246.5 2Q207 14 175 35L121 -38H53L133 71Q92 114 73 173.5Q54 233 54 300Q54 377 76.5 449Q99 521 143 576.5Q187 632 252 666Q317 700 402 700Q453 700 493 688Q533 676 564 655L619 729H687L605 618Q644 573 661 513.5Q678 454 678 390Q678 321 657.5 250Q637 179 595 121.5Q553 64 488.5 27Q424 -10 336 -10Z" glyph-name="Oslash" horiz-adv-x="709" unicode="&#216;" /><glyph d="M160 216Q160 190 163.5 169Q167 148 173 130L446 462Q413 503 345 503Q297 503 262.5 476.5Q228 450 205 409Q182 368 171 317Q160 266 160 216ZM301 47Q350 47 384 74Q418 101 439.5 143Q461 185 471 234.5Q481 284 481 329Q481 354 478.5 375.5Q476 397 470 415L199 86Q218 66 243.5 56.5Q269 47 301 47ZM297 -8Q252 -8 216.5 1.5Q181 11 152 28L104 -30H41L113 57Q77 92 59 139Q41 186 41 238Q41 300 60.5 358Q80 416 118.5 460.5Q157 505 215 531.5Q273 558 349 558Q395 558 431 548.5Q467 539 496 522L544 581H607L534 492Q569 457 585 410Q601 363 601 312Q601 255 583 198Q565 141 527.5 95Q490 49 432.5 20.5Q375 -8 297 -8Z" glyph-name="Oslash.sc" horiz-adv-x="634" /><glyph d="M402 700Q479 700 531.5 673.5Q584 647 616.5 603.5Q649 560 663.5 504.5Q678 449 678 390Q678 321 657.5 250Q637 179 595 121.5Q553 64 488.5 27Q424 -10 336 -10Q263 -10 210 15Q157 40 122.5 83Q88 126 71 182Q54 238 54 300Q54 377 76.5 449Q99 521 143 576.5Q187 632 252 666Q317 700 402 700ZM397 640Q343 640 302 607.5Q261 575 234 523.5Q207 472 193.5 407Q180 342 180 277Q180 156 223.5 103Q267 50 340 50Q396 50 436.5 84.5Q477 119 502.5 172Q528 225 540 289Q552 353 552 412Q552 522 517 581Q482 640 397 640ZM474 748Q452 748 435.5 756Q419 764 405 773Q391 782 378 790Q365 798 351 798Q329 798 318.5 783.5Q308 769 305 747H265Q272 803 296.5 834.5Q321 866 365 866Q388 866 405 858Q422 850 435.5 841Q449 832 461 824Q473 816 488 816Q508 816 518.5 830Q529 844 532 866H572Q568 839 562 817Q556 795 545.5 779.5Q535 764 517.5 756Q500 748 474 748Z" glyph-name="Otilde" horiz-adv-x="709" unicode="&#213;" /><glyph d="M411 597Q392 597 377 603Q362 609 349 615.5Q336 622 325 628Q314 634 302 634Q282 634 273 623.5Q264 613 262 597H225Q230 644 252 670Q274 696 313 696Q334 696 349 690Q364 684 376 677Q388 670 399.5 664Q411 658 424 658Q442 658 451 668.5Q460 679 462 696H500Q493 649 475.5 623Q458 597 411 597ZM349 558Q417 558 465 537Q513 516 543 481.5Q573 447 586.5 403Q600 359 600 312Q600 255 582 198Q564 141 527 95Q490 49 432.5 20.5Q375 -8 297 -8Q232 -8 183.5 12Q135 32 103.5 66Q72 100 56.5 144.5Q41 189 41 238Q41 300 60.5 358Q80 416 118.5 460.5Q157 505 215 531.5Q273 558 349 558ZM344 503Q297 503 262 476.5Q227 450 204.5 409Q182 368 171 317Q160 266 160 216Q160 126 199 86.5Q238 47 301 47Q350 47 384 74Q418 101 439.5 143Q461 185 470.5 234.5Q480 284 480 329Q480 416 448 459.5Q416 503 344 503Z" glyph-name="Otilde.sc" horiz-adv-x="634" /><glyph d="M26 55H102L172 635H97L104 690H360Q427 690 475.5 676Q524 662 555 637Q586 612 601 578.5Q616 545 616 506Q616 463 599.5 423Q583 383 547 352Q511 321 453.5 302.5Q396 284 315 284H252L224 55H309L302 0H19ZM294 635 258 339H319Q365 339 397.5 352Q430 365 450 387.5Q470 410 479.5 441Q489 472 489 508Q489 535 482.5 558.5Q476 582 460 599Q444 616 418.5 625.5Q393 635 354 635Z" glyph-name="P" horiz-adv-x="607" unicode="P" /><glyph d="M22 51H87L142 499H77L83 550H318Q379 550 423 538.5Q467 527 495.5 507Q524 487 537.5 460Q551 433 551 401Q551 365 536.5 332.5Q522 300 489.5 275.5Q457 251 406 236.5Q355 222 282 222H225L204 51H280L273 0H15ZM259 499 232 273H286Q325 273 352.5 283Q380 293 397 310Q414 327 421.5 351Q429 375 429 403Q429 446 403.5 472.5Q378 499 312 499Z" glyph-name="P.sc" horiz-adv-x="553" /><glyph d="M493 -111Q439 -111 415 -83Q391 -55 380 -7Q359 -10 336 -10Q263 -10 210 15Q157 40 122.5 83Q88 126 71 182Q54 238 54 300Q54 377 76.5 449Q99 521 143 576.5Q187 632 252 666Q317 700 402 700Q479 700 531.5 673.5Q584 647 616.5 603.5Q649 560 663.5 504.5Q678 449 678 390Q678 336 665 279.5Q652 223 626 172.5Q600 122 560 81Q520 40 466 16Q472 -20 481 -35Q490 -50 508 -50Q529 -50 540.5 -33Q552 -16 557 30H610Q602 -33 575.5 -72Q549 -111 493 -111ZM332 228Q389 228 415 194Q441 160 453 99Q479 126 497.5 162.5Q516 199 528 241Q540 283 546 327Q552 371 552 412Q552 522 517 581Q482 640 397 640Q343 640 302 607.5Q261 575 234 523.5Q207 472 193.5 407Q180 342 180 277Q180 184 207 130Q222 172 250.5 200Q279 228 332 228ZM340 50Q356 50 369 53Q360 112 349 140Q338 168 304 168Q278 168 262 146Q246 124 239 86Q276 50 340 50Z" glyph-name="Q" horiz-adv-x="709" unicode="Q" /><glyph d="M481 -141Q427 -141 397 -107.5Q367 -74 367 -8Q359 -10 351.5 -10Q344 -10 336 -10Q263 -10 210 15Q157 40 122.5 83Q88 126 71 182Q54 238 54 300Q54 377 76.5 449Q99 521 143 576.5Q187 632 252 666Q317 700 402 700Q479 700 531.5 673.5Q584 647 616.5 603.5Q649 560 663.5 504.5Q678 449 678 390Q678 335 664.5 277.5Q651 220 624 169Q597 118 556 77Q515 36 459 13Q460 -38 468 -59Q476 -80 500 -80Q522 -80 536 -57.5Q550 -35 557 30H605Q601 -7 593 -38.5Q585 -70 570.5 -92.5Q556 -115 534 -128Q512 -141 481 -141ZM180 277Q180 217 191 175Q202 133 222 105Q221 110 220.5 116Q220 122 220 128Q220 196 253.5 233Q287 270 341 270Q405 270 432 230.5Q459 191 459 106Q483 133 501 169Q519 205 530 245.5Q541 286 546.5 329Q552 372 552 412Q552 522 517 581Q482 640 397 640Q343 640 302 607.5Q261 575 234 523.5Q207 472 193.5 407Q180 342 180 277ZM270 122Q270 89 286 69.5Q302 50 341 50Q355 50 368 53Q369 86 369 113Q369 140 365 159Q361 178 351 188.5Q341 199 321 199Q296 199 283 178Q270 157 270 122Z" glyph-name="Q.alt" horiz-adv-x="709" /><glyph d="M427 -108Q381 -108 354.5 -85Q328 -62 326 -7Q319 -8 312 -8Q305 -8 297 -8Q232 -8 183.5 12Q135 32 103.5 66Q72 100 56.5 144.5Q41 189 41 238Q41 300 60.5 358Q80 416 118.5 460.5Q157 505 215 531.5Q273 558 349 558Q417 558 465 537Q513 516 543 481.5Q573 447 586.5 403Q600 359 600 312Q600 267 588.5 221Q577 175 553.5 134.5Q530 94 494.5 61.5Q459 29 410 11Q409 -53 444 -53Q464 -53 477 -36Q490 -19 496 30H541Q538 1 531 -24.5Q524 -50 510.5 -68.5Q497 -87 476.5 -97.5Q456 -108 427 -108ZM160 216Q160 134 194 92Q193 97 193 108Q193 132 201 153Q209 174 223 190Q237 206 257 215Q277 224 301 224Q330 224 350.5 214Q371 204 384 187Q397 170 403 147Q409 124 409 98Q428 119 441.5 147Q455 175 463.5 205.5Q472 236 476 268Q480 300 480 329Q480 416 448 459.5Q416 503 344 503Q297 503 262 476.5Q227 450 204.5 409Q182 368 171 317Q160 266 160 216ZM238 102Q238 77 252.5 62Q267 47 302 47Q308 47 314.5 47.5Q321 48 326 49Q327 75 326.5 96Q326 117 322.5 132Q319 147 309.5 155Q300 163 283 163Q260 163 249 146.5Q238 130 238 102Z" glyph-name="Q.alt.sc" horiz-adv-x="634" /><glyph d="M439 -88Q392 -88 370.5 -65Q349 -42 338 -6Q328 -7 318 -7.5Q308 -8 297 -8Q232 -8 183.5 12Q135 32 103.5 66Q72 100 56.5 144.5Q41 189 41 238Q41 300 60.5 358Q80 416 118.5 460.5Q157 505 215 531.5Q273 558 349 558Q417 558 465 537Q513 516 543 481.5Q573 447 586.5 403Q600 359 600 312Q600 267 589 222Q578 177 555.5 137Q533 97 498 65Q463 33 416 14Q420 -9 429.5 -21.5Q439 -34 454 -34Q473 -34 482.5 -21Q492 -8 497 30H546Q539 -24 514.5 -56Q490 -88 439 -88ZM290 189Q340 189 364 165.5Q388 142 402 90Q423 111 437.5 140Q452 169 461.5 200.5Q471 232 475.5 265.5Q480 299 480 329Q480 416 448 459.5Q416 503 344 503Q297 503 262 476.5Q227 450 204.5 409Q182 368 171 317Q160 266 160 216Q160 150 183 110Q194 142 218.5 165.5Q243 189 290 189ZM301 47Q308 47 314.5 47.5Q321 48 326 49Q318 97 308 117Q298 137 269 137Q224 137 215 72Q249 47 301 47Z" glyph-name="Q.sc" horiz-adv-x="634" /><glyph d="M671 149Q662 76 633.5 33Q605 -10 538 -10Q502 -10 478.5 0.5Q455 11 441 32.5Q427 54 420 86.5Q413 119 410 163Q407 204 402.5 233.5Q398 263 388 282Q378 301 360 309.5Q342 318 313 318H256L224 55H296L288 0H19L26 55H102L172 635H97L104 690H367Q490 690 550 646.5Q610 603 610 521Q610 489 598 459.5Q586 430 562 406Q538 382 501.5 365Q465 348 415 341Q447 333 467.5 319.5Q488 306 500 285.5Q512 265 518.5 235Q525 205 528 164Q533 101 539.5 76Q546 51 568 51Q590 51 602 78.5Q614 106 619 149ZM294 635 262 367H321Q364 367 395 379.5Q426 392 445.5 412.5Q465 433 474.5 460Q484 487 484 516Q484 571 453.5 603Q423 635 356 635Z" glyph-name="R" horiz-adv-x="667" unicode="R" /><glyph d="M604 122Q596 62 570.5 27Q545 -8 483 -8Q451 -8 430 0.5Q409 9 395.5 26.5Q382 44 375 71.5Q368 99 364 137Q361 167 356.5 187Q352 207 343 220Q334 233 318.5 238.5Q303 244 279 244H229L205 51H267L260 0H15L22 51H88L142 499H77L83 550H324Q435 550 490.5 515.5Q546 481 546 416Q546 390 536 365.5Q526 341 505 320.5Q484 300 450.5 286Q417 272 370 267Q399 260 418.5 250.5Q438 241 450 225.5Q462 210 468 187Q474 164 477 131Q482 85 487.5 67.5Q493 50 513 50Q533 50 542 70Q551 90 555 122ZM259 499 234 289H286Q323 289 349.5 299Q376 309 393 326Q410 343 418 364.5Q426 386 426 409Q426 451 398.5 475Q371 499 313 499Z" glyph-name="R.sc" horiz-adv-x="604" /><glyph d="M288 -10Q236 -10 193.5 4.5Q151 19 123 42L78 -10H24L53 226H119Q117 188 126.5 155.5Q136 123 155.5 99.5Q175 76 204.5 63Q234 50 271 50Q308 50 332.5 59.5Q357 69 371.5 85Q386 101 392 121.5Q398 142 398 164Q398 217 366.5 249.5Q335 282 261 305Q184 331 138 374.5Q92 418 92 497Q92 546 110.5 584Q129 622 161 647.5Q193 673 236 686.5Q279 700 328 700Q418 700 470 657L506 700H560L531 467H465Q466 477 466 486.5Q466 496 466 504Q464 576 427.5 608Q391 640 335 640Q302 640 278 630Q254 620 239 603.5Q224 587 216.5 565.5Q209 544 209 521Q209 465 247.5 435.5Q286 406 353 383Q430 357 472.5 314Q515 271 515 194Q515 152 501.5 114.5Q488 77 460 49.5Q432 22 389 6Q346 -10 288 -10Z" glyph-name="S" horiz-adv-x="572" unicode="S" /><glyph d="M461 159Q461 124 449 93.5Q437 63 411.5 40.5Q386 18 347.5 5Q309 -8 255 -8Q164 -8 108 33L70 -8H18L41 183H104Q104 157 110 132.5Q116 108 131.5 89Q147 70 173.5 58.5Q200 47 241 47Q272 47 292.5 54Q313 61 325 72.5Q337 84 342 99.5Q347 115 347 131Q347 171 318.5 195Q290 219 225 237Q153 257 112.5 293.5Q72 330 72 393Q72 433 88.5 463.5Q105 494 133.5 515Q162 536 200 547Q238 558 282 558Q317 558 350 550.5Q383 543 408 520L443 558H495L471 370H409Q415 436 385 469.5Q355 503 293 503Q236 503 211 476Q186 449 186 415Q186 373 219.5 349.5Q253 326 315 308Q382 288 421.5 254.5Q461 221 461 159Z" glyph-name="S.sc" horiz-adv-x="516" /><glyph d="M147 55H232L303 635H264Q228 635 204 630Q180 625 165 610.5Q150 596 141 571Q132 546 126 505L122 480H56L83 690H658L632 480H566L569 505Q574 547 571.5 572.5Q569 598 557 612Q545 626 522 630.5Q499 635 463 635H425L354 55H439L432 0H140Z" glyph-name="T" horiz-adv-x="632" unicode="T" /><glyph d="M129 51H203L258 500H225Q194 500 173.5 496Q153 492 140 481Q127 470 119.5 450.5Q112 431 107 399L103 375H41L63 550H582L560 375H498L501 399Q505 431 503 450.5Q501 470 490.5 481Q480 492 460 496Q440 500 408 500H375L320 51H395L388 0H122Z" glyph-name="T.sc" horiz-adv-x="571" /><glyph d="M294 0H17L24 55H102L172 635H95L102 690H380L372 635H294L286 564H325Q453 564 524 519Q595 474 595 383Q595 329 573 286Q551 243 510 212.5Q469 182 410.5 166Q352 150 278 150H236L224 55H302ZM279 509 242 205H278Q367 205 417 250.5Q467 296 467 381Q467 443 430 476Q393 509 318 509Z" glyph-name="Thorn" horiz-adv-x="607" unicode="&#222;" /><glyph d="M266 0H13L20 51H87L142 499H75L81 550H334L327 499H260L254 449H288Q404 449 468.5 411.5Q533 374 533 303Q533 218 458.5 167.5Q384 117 250 117H213L205 51H272ZM248 398 219 168H250Q327 168 369 202.5Q411 237 411 302Q411 349 378 373.5Q345 398 280 398Z" glyph-name="Thorn.sc" horiz-adv-x="552" /><glyph d="M586 241Q572 123 512.5 56.5Q453 -10 346 -10Q209 -10 151.5 56.5Q94 123 109 247L156 635H81L88 690H359L352 635H278L230 242Q219 157 248 105.5Q277 54 354 54Q393 54 421 68Q449 82 468 107.5Q487 133 498 168.5Q509 204 514 246L561 635H487L494 690H717L709 635H634Z" glyph-name="U" horiz-adv-x="695" unicode="U" /><glyph d="M520 191Q509 97 457 44.5Q405 -8 307 -8Q187 -8 133.5 49Q80 106 93 217L128 499H62L68 550H316L309 499H245L208 191Q200 126 224.5 88Q249 50 317 50Q385 50 415 88.5Q445 127 453 194L489 499H426L433 550H630L624 499H557Z" glyph-name="U.sc" horiz-adv-x="624" /><glyph d="M586 241Q572 123 512.5 56.5Q453 -10 346 -10Q209 -10 151.5 56.5Q94 123 109 247L156 635H81L88 690H359L352 635H278L230 242Q219 157 248 105.5Q277 54 354 54Q393 54 421 68Q449 82 468 107.5Q487 133 498 168.5Q509 204 514 246L561 635H487L494 690H717L709 635H634ZM442 740H392L464 832Q485 859 503.5 872Q522 885 548 885Q572 885 584 873.5Q596 862 596 846Q596 830 585.5 816Q575 802 544 788Z" glyph-name="Uacute" horiz-adv-x="695" unicode="&#218;" /><glyph d="M387 590H340L403 660Q423 680 439.5 693.5Q456 707 482 707Q504 707 515 697.5Q526 688 526 675Q526 660 516 647.5Q506 635 477 624ZM520 191Q509 97 457 44.5Q405 -8 307 -8Q187 -8 133.5 49Q80 106 93 217L128 499H62L68 550H316L309 499H245L208 191Q200 126 224.5 88Q249 50 317 50Q385 50 415 88.5Q445 127 453 194L489 499H426L433 550H630L624 499H557Z" glyph-name="Uacute.sc" horiz-adv-x="624" /><glyph d="M586 241Q572 123 512.5 56.5Q453 -10 346 -10Q209 -10 151.5 56.5Q94 123 109 247L156 635H81L88 690H359L352 635H278L230 242Q219 157 248 105.5Q277 54 354 54Q393 54 421 68Q449 82 468 107.5Q487 133 498 168.5Q509 204 514 246L561 635H487L494 690H717L709 635H634ZM434 794 323 740H269L419 873H469L581 740H528Z" glyph-name="Ucircumflex" horiz-adv-x="695" unicode="&#219;" /><glyph d="M379 633 282 590H230L362 697H411L513 590H461ZM520 191Q509 97 457 44.5Q405 -8 307 -8Q187 -8 133.5 49Q80 106 93 217L128 499H62L68 550H316L309 499H245L208 191Q200 126 224.5 88Q249 50 317 50Q385 50 415 88.5Q445 127 453 194L489 499H426L433 550H630L624 499H557Z" glyph-name="Ucircumflex.sc" horiz-adv-x="624" /><glyph d="M586 241Q572 123 512.5 56.5Q453 -10 346 -10Q209 -10 151.5 56.5Q94 123 109 247L156 635H81L88 690H359L352 635H278L230 242Q219 157 248 105.5Q277 54 354 54Q393 54 421 68Q449 82 468 107.5Q487 133 498 168.5Q509 204 514 246L561 635H487L494 690H717L709 635H634ZM581 813Q581 789 563 768Q545 747 513 747Q487 747 474 763.5Q461 780 461 800Q461 826 478.5 846Q496 866 528 866Q557 866 569 848.5Q581 831 581 813ZM394 813Q394 789 376 768Q358 747 326 747Q300 747 287 763.5Q274 780 274 800Q274 826 291.5 846Q309 866 340 866Q369 866 381.5 848.5Q394 831 394 813Z" glyph-name="Udieresis" horiz-adv-x="695" unicode="&#220;" /><glyph d="M513 657Q513 635 496.5 617Q480 599 451 599Q427 599 414.5 613Q402 627 402 645Q402 668 418 685Q434 702 463 702Q489 702 501 688Q513 674 513 657ZM344 657Q344 635 327 617Q310 599 281 599Q257 599 245 613Q233 627 233 645Q233 668 249 685Q265 702 294 702Q320 702 332 688Q344 674 344 657ZM520 191Q509 97 457 44.5Q405 -8 307 -8Q187 -8 133.5 49Q80 106 93 217L128 499H62L68 550H316L309 499H245L208 191Q200 126 224.5 88Q249 50 317 50Q385 50 415 88.5Q445 127 453 194L489 499H426L433 550H630L624 499H557Z" glyph-name="Udieresis.sc" horiz-adv-x="624" /><glyph d="M586 241Q572 123 512.5 56.5Q453 -10 346 -10Q209 -10 151.5 56.5Q94 123 109 247L156 635H81L88 690H359L352 635H278L230 242Q219 157 248 105.5Q277 54 354 54Q393 54 421 68Q449 82 468 107.5Q487 133 498 168.5Q509 204 514 246L561 635H487L494 690H717L709 635H634ZM309 788Q279 802 268.5 816Q258 830 258 845Q258 861 270.5 873Q283 885 308 885Q334 885 351.5 871.5Q369 858 389 832L460 740H410Z" glyph-name="Ugrave" horiz-adv-x="695" unicode="&#217;" /><glyph d="M267 624Q240 635 230 647Q220 659 219 673Q219 687 230.5 697Q242 707 265 707Q289 707 305.5 693.5Q322 680 341 660L405 590H358ZM520 191Q509 97 457 44.5Q405 -8 307 -8Q187 -8 133.5 49Q80 106 93 217L128 499H62L68 550H316L309 499H245L208 191Q200 126 224.5 88Q249 50 317 50Q385 50 415 88.5Q445 127 453 194L489 499H426L433 550H630L624 499H557Z" glyph-name="Ugrave.sc" horiz-adv-x="624" /><glyph d="M610 635 337 0H232L113 635H44L51 690H313L306 635H236L327 141L539 635H471L478 690H684L677 635Z" glyph-name="V" horiz-adv-x="628" unicode="V" /><glyph d="M536 499 304 0H202L92 499H29L36 550H275L268 499H209L292 109L470 499H412L419 550H603L596 499Z" glyph-name="V.sc" horiz-adv-x="565" /><glyph d="M484 539 296 0H173L118 635H48L56 690H302L294 635H231L276 108L480 690H573L632 102L808 635H742L749 690H946L938 635H872L661 0H539Z" glyph-name="W" horiz-adv-x="894" unicode="W" /><glyph d="M566 635H517L534 556ZM475 336 328 0H203L106 635H37L43 690H275L269 635H219L305 77L457 422L412 635H353L360 690H712L706 635H623L552 469L636 79L850 635H791L797 690H967L961 635H909L667 0H546Z" glyph-name="W.alt" horiz-adv-x="924" /><glyph d="M495 499H464L474 456ZM418 271 293 0H174L85 499H24L29 550H242L236 499H194L272 69L401 345L364 499H310L316 550H627L622 499H548L492 384L569 70L746 499H696L702 550H854L849 499H802L599 0H483Z" glyph-name="W.alt.sc" horiz-adv-x="828" /><glyph d="M422 409 265 0H149L94 499H31L39 550H263L256 499H202L247 94L419 550H506L564 94L709 499H654L661 550H836L829 499H770L593 0H476Z" glyph-name="W.sc" horiz-adv-x="801" /><glyph d="M174 0H-12L-5 55H52L267 342L114 635H62L69 690H311L303 635H246L356 424L514 635H458L466 690H648L640 635H586L385 368L549 55H599L592 0H354L362 55H417L297 285L124 55H182Z" glyph-name="X" horiz-adv-x="626" unicode="X" /><glyph d="M160 0H-11L-4 51H46L234 270L93 499H47L54 550H278L271 499H221L319 338L453 499H404L411 550H578L570 499H522L347 295L498 51H542L535 0H315L322 51H370L264 227L117 51H167Z" glyph-name="X.sc" horiz-adv-x="573" /><glyph d="M422 0H135L142 55H224L253 290L96 635H41L48 690H294L287 635H220L344 360L527 635H464L471 690H659L652 635H599L376 299L346 55H429Z" glyph-name="Y" horiz-adv-x="609" unicode="Y" /><glyph d="M379 0H121L127 51H198L220 229L76 499H27L34 550H260L254 499H199L308 294L462 499H408L415 550H585L578 499H532L338 236L315 51H386Z" glyph-name="Y.sc" horiz-adv-x="553" /><glyph d="M422 0H135L142 55H224L253 290L96 635H41L48 690H294L287 635H220L344 360L527 635H464L471 690H659L652 635H599L376 299L346 55H429ZM393 740H343L415 832Q436 859 454.5 872Q473 885 499 885Q523 885 535 873.5Q547 862 547 846Q547 830 536.5 816Q526 802 495 788Z" glyph-name="Yacute" horiz-adv-x="609" unicode="&#221;" /><glyph d="M346 590H299L363 660Q382 680 399 693.5Q416 707 441 707Q463 707 474 697.5Q485 688 485 675Q485 660 475.5 647.5Q466 635 437 624ZM379 0H121L127 51H198L220 229L76 499H27L34 550H260L254 499H199L308 294L462 499H408L415 550H585L578 499H532L338 236L315 51H386Z" glyph-name="Yacute.sc" horiz-adv-x="553" /><glyph d="M13 0 19 49 446 635H304Q265 635 238 630.5Q211 626 193 612Q175 598 164.5 573Q154 548 149 506L144 465H78L106 690H578L571 641L144 55H318Q359 55 383.5 62.5Q408 70 422 86.5Q436 103 443 129Q450 155 455 193L460 229H525L497 0Z" glyph-name="Z" horiz-adv-x="572" unicode="Z" /><glyph d="M13 0 19 49 466 604H284Q245 604 220 598Q195 592 180 578.5Q165 565 157.5 544Q150 523 147 493L143 453H77L106 690H586L579 641L133 86H346Q381 86 402.5 95.5Q424 105 437 121.5Q450 138 456 160Q462 182 465 207L469 242H535L505 0Z" glyph-name="Z.alt" horiz-adv-x="581" /><glyph d="M9 0 15 44 394 468H244Q210 468 188.5 464Q167 460 154 450Q141 440 134.5 422.5Q128 405 125 379L121 347H60L84 550H516L510 506L131 82H306Q337 82 356.5 88.5Q376 95 387 108Q398 121 403.5 139Q409 157 412 179L416 206H478L452 0Z" glyph-name="Z.alt.sc" horiz-adv-x="523" /><glyph d="M8 0 14 44 379 499H260Q226 499 203 495.5Q180 492 164.5 481.5Q149 471 140.5 451Q132 431 127 399L122 367H60L83 550H508L502 506L138 51H281Q317 51 338.5 57Q360 63 373 76Q386 89 392 109.5Q398 130 402 160L406 187H467L444 0Z" glyph-name="Z.sc" horiz-adv-x="514" /><glyph d="M452 -10Q410 -10 384.5 12Q359 34 355 75Q335 38 301.5 14Q268 -10 213 -10Q177 -10 145 5Q113 20 89.5 48Q66 76 52 117Q38 158 38 210Q38 264 52 318.5Q66 373 94.5 416.5Q123 460 166.5 487.5Q210 515 268 515Q319 515 350 489.5Q381 464 393 426L424 504L510 503L460 99Q458 79 463 67Q468 55 482 55Q499 55 513 80Q527 105 535 157H586Q575 74 542.5 32Q510 -10 452 -10ZM279 458Q249 458 226 436.5Q203 415 188 378Q173 341 165 292Q157 243 157 188Q157 127 178 87Q199 47 241 47Q271 47 293 68.5Q315 90 329 122Q343 154 351.5 192Q360 230 363 264Q383 458 279 458Z" glyph-name="a" horiz-adv-x="598" unicode="a" /><glyph d="M452 -10Q410 -10 384.5 12Q359 34 355 75Q335 38 301.5 14Q268 -10 213 -10Q177 -10 145 5Q113 20 89.5 48Q66 76 52 117Q38 158 38 210Q38 264 52 318.5Q66 373 94.5 416.5Q123 460 166.5 487.5Q210 515 268 515Q319 515 350 489.5Q381 464 393 426L424 504L510 503L460 99Q458 79 463 67Q468 55 482 55Q499 55 513 80Q527 105 535 157H586Q575 74 542.5 32Q510 -10 452 -10ZM279 458Q249 458 226 436.5Q203 415 188 378Q173 341 165 292Q157 243 157 188Q157 127 178 87Q199 47 241 47Q271 47 293 68.5Q315 90 329 122Q343 154 351.5 192Q360 230 363 264Q383 458 279 458ZM290 605 363 704Q394 746 417.5 758Q441 770 463 770Q488 770 498.5 759.5Q509 749 509 735Q509 729 507 721Q505 713 496 702.5Q487 692 467 678Q447 664 411 646L330 605Z" glyph-name="aacute" horiz-adv-x="598" unicode="&#225;" /><glyph d="M452 -10Q410 -10 384.5 12Q359 34 355 75Q335 38 301.5 14Q268 -10 213 -10Q177 -10 145 5Q113 20 89.5 48Q66 76 52 117Q38 158 38 210Q38 264 52 318.5Q66 373 94.5 416.5Q123 460 166.5 487.5Q210 515 268 515Q319 515 350 489.5Q381 464 393 426L424 504L510 503L460 99Q458 79 463 67Q468 55 482 55Q499 55 513 80Q527 105 535 157H586Q575 74 542.5 32Q510 -10 452 -10ZM279 458Q249 458 226 436.5Q203 415 188 378Q173 341 165 292Q157 243 157 188Q157 127 178 87Q199 47 241 47Q271 47 293 68.5Q315 90 329 122Q343 154 351.5 192Q360 230 363 264Q383 458 279 458ZM165 605 343 777H374L503 605H451L347 687L217 605Z" glyph-name="acircumflex" horiz-adv-x="598" unicode="&#226;" /><glyph d="M82 605 155 704Q186 746 209.5 758Q233 770 255 770Q280 770 290.5 759.5Q301 749 301 735Q301 729 299 721Q297 713 288 702.5Q279 692 259 678Q239 664 203 646L122 605Z" glyph-name="acute" horiz-adv-x="354" unicode="&#180;" /><glyph d="M128 740H78L150 832Q171 859 189.5 872Q208 885 234 885Q258 885 270 873.5Q282 862 282 846Q282 830 271.5 816Q261 802 230 788Z" glyph-name="acute.cap" horiz-adv-x="351" /><glyph d="M98 601 125 696Q137 741 157 757Q177 773 201 773Q226 773 237 761.5Q248 750 248 731Q248 716 234 694.5Q220 673 186 643L140 601Z" glyph-name="acute.pl" horiz-adv-x="299" /><glyph d="M110 739 137 813Q157 866 172.5 885Q188 904 213 904Q248 904 249 874Q249 859 239.5 839Q230 819 208 793L165 739Z" glyph-name="acute.uc.pl" horiz-adv-x="293" /><glyph d="M452 -10Q410 -10 384.5 12Q359 34 355 75Q335 38 301.5 14Q268 -10 213 -10Q177 -10 145 5Q113 20 89.5 48Q66 76 52 117Q38 158 38 210Q38 264 52 318.5Q66 373 94.5 416.5Q123 460 166.5 487.5Q210 515 268 515Q319 515 350 489.5Q381 464 393 426L424 504L510 503L460 99Q458 79 463 67Q468 55 482 55Q499 55 513 80Q527 105 535 157H586Q575 74 542.5 32Q510 -10 452 -10ZM279 458Q249 458 226 436.5Q203 415 188 378Q173 341 165 292Q157 243 157 188Q157 127 178 87Q199 47 241 47Q271 47 293 68.5Q315 90 329 122Q343 154 351.5 192Q360 230 363 264Q383 458 279 458ZM505 683Q505 651 484 629Q463 607 429 607Q396 607 382.5 626Q369 645 369 665Q369 697 390 718.5Q411 740 444 740Q478 740 491.5 721Q505 702 505 683ZM299 683Q299 651 278.5 629Q258 607 223 607Q191 607 177.5 626Q164 645 164 665Q164 697 184.5 718.5Q205 740 239 740Q272 740 285.5 721Q299 702 299 683Z" glyph-name="adieresis" horiz-adv-x="598" unicode="&#228;" /><glyph d="M567 -10Q500 -10 456 21Q412 52 392 106Q382 82 367 61Q352 40 332 24.5Q312 9 285 -0.5Q258 -10 222 -10Q137 -10 89 47Q41 104 39 207Q38 265 52.5 320Q67 375 96 418.5Q125 462 168 488.5Q211 515 268 515Q316 515 349 495Q382 475 399 439L421 504H480L471 433Q497 473 540 494Q583 515 633 515Q710 515 750.5 479.5Q791 444 791 385Q791 340 766.5 309Q742 278 700 258.5Q658 239 602.5 230Q547 221 485 221Q484 213 484 206Q484 199 484 191Q484 128 511 91.5Q538 55 592 55Q642 55 673.5 86.5Q705 118 719 163L769 147Q759 114 742 85.5Q725 57 700.5 35.5Q676 14 642.5 2Q609 -10 567 -10ZM613 465Q588 465 567 450Q546 435 530.5 408Q515 381 504 345Q493 309 488 267Q582 269 627.5 305Q673 341 673 396Q673 428 659.5 446.5Q646 465 613 465ZM249 55Q292 55 319 92.5Q346 130 361 196Q364 211 367 229Q370 247 372 264Q382 355 359.5 402.5Q337 450 289 450Q257 450 233 429Q209 408 193 371.5Q177 335 169 287Q161 239 161 185Q161 125 182 90Q203 55 249 55Z" glyph-name="ae" horiz-adv-x="819" unicode="&#230;" /><glyph d="M452 -10Q410 -10 384.5 12Q359 34 355 75Q335 38 301.5 14Q268 -10 213 -10Q177 -10 145 5Q113 20 89.5 48Q66 76 52 117Q38 158 38 210Q38 264 52 318.5Q66 373 94.5 416.5Q123 460 166.5 487.5Q210 515 268 515Q319 515 350 489.5Q381 464 393 426L424 504L510 503L460 99Q458 79 463 67Q468 55 482 55Q499 55 513 80Q527 105 535 157H586Q575 74 542.5 32Q510 -10 452 -10ZM279 458Q249 458 226 436.5Q203 415 188 378Q173 341 165 292Q157 243 157 188Q157 127 178 87Q199 47 241 47Q271 47 293 68.5Q315 90 329 122Q343 154 351.5 192Q360 230 363 264Q383 458 279 458ZM257 646Q230 662 215 673.5Q200 685 192 694Q184 703 182 710.5Q180 718 180 725Q180 745 195 757.5Q210 770 236 770Q259 770 278.5 758.5Q298 747 317 709L368 605H328Z" glyph-name="agrave" horiz-adv-x="598" unicode="&#224;" /><glyph d="M584 -10Q548 -10 516 0.5Q484 11 449 40Q405 14 357.5 2Q310 -10 258 -10Q148 -10 88.5 30.5Q29 71 29 143Q29 179 41.5 207Q54 235 77 259Q100 283 133 304.5Q166 326 207 348Q162 408 144 450Q126 492 126 534Q126 567 141.5 597.5Q157 628 185 650.5Q213 673 253 686.5Q293 700 341 700Q385 700 422 690Q459 680 485 662Q511 644 525.5 619.5Q540 595 540 566Q540 531 526 502.5Q512 474 486 449.5Q460 425 422 402Q384 379 336 355Q356 327 376.5 297.5Q397 268 419 238Q441 208 460 182.5Q479 157 494 139Q528 176 554 223.5Q580 271 599 326H527L533 381H740L734 326H662Q634 251 601.5 197Q569 143 528 99Q560 63 579 54Q598 45 617 45Q649 45 669.5 77Q690 109 697 162H749Q739 80 701 35Q663 -10 584 -10ZM247 547Q247 511 260.5 478Q274 445 307 395Q363 428 390 471Q417 514 417 563Q417 605 394 626.5Q371 648 336 648Q313 648 296 639Q279 630 268 616Q257 602 252 583.5Q247 565 247 547ZM292 46Q355 46 409 77Q389 98 364.5 128Q340 158 314 193Q294 220 274 249Q254 278 239 302Q197 273 174.5 235.5Q152 198 152 156Q152 126 163 105Q174 84 192.5 71Q211 58 236.5 52Q262 46 292 46Z" glyph-name="ampersand" horiz-adv-x="787" unicode="&amp;" /><glyph d="M599 -10Q557 -10 522.5 -1.5Q488 7 453 35Q413 9 366 -0.5Q319 -10 266 -10Q148 -10 90.5 29.5Q33 69 33 132Q33 168 46.5 199Q60 230 86 261Q112 292 149.5 325Q187 358 235 398L119 631L126 690H602L595 631L349 418L437 240Q454 206 468 179.5Q482 153 496 133Q534 171 564.5 221Q595 271 615 331H541L547 386H755L749 331H676Q617 174 527 89Q553 57 578 51Q603 45 623 45Q660 45 682.5 74.5Q705 104 714 170H766Q761 129 750 96Q739 63 719 39.5Q699 16 669.5 3Q640 -10 599 -10ZM509 631H243L322 472ZM305 45Q361 45 415 73Q393 98 371 133Q349 168 325 217L264 340Q230 310 209.5 285Q189 260 178.5 238Q168 216 164.5 195Q161 174 161 153Q161 96 202.5 70.5Q244 45 305 45Z" glyph-name="ampersand.alt" horiz-adv-x="807" /><glyph d="M540 -8Q501 -8 470.5 -2Q440 4 408 27Q333 -8 241 -8Q134 -8 80 22.5Q26 53 26 109Q26 138 38 161.5Q50 185 72.5 209Q95 233 128 258.5Q161 284 204 315L96 496L102 550H536L529 496L311 332L399 184Q413 161 425 143Q437 125 448 111Q517 171 550 264H484L490 315H678L672 264H607Q557 141 478 73Q501 53 520.5 48Q540 43 561 43Q593 43 613.5 67Q634 91 642 145H690Q682 75 648 33.5Q614 -8 540 -8ZM448 496H213L285 375ZM275 43Q322 43 369 62Q350 82 330 109.5Q310 137 288 175L232 269Q183 227 166 195.5Q149 164 149 129Q149 85 186 64Q223 43 275 43Z" glyph-name="ampersand.alt.sc" horiz-adv-x="731" /><glyph d="M363 -10Q213 -10 128 51Q43 112 43 227Q43 284 62.5 336.5Q82 389 116.5 428.5Q151 468 200 491.5Q249 515 307 515Q362 515 401 498.5Q440 482 465 455Q490 428 501.5 394.5Q513 361 513 326Q513 307 510 290H690Q696 325 696 360Q696 433 669 471Q658 457 644 448.5Q630 440 610 440Q586 440 569 454Q552 468 552 494Q552 523 572.5 541.5Q593 560 629 560Q657 560 679.5 546Q702 532 718 506.5Q734 481 742.5 445.5Q751 410 751 368Q751 326 744 290H821L815 244H732Q716 192 685 145.5Q654 99 608 64.5Q562 30 501 10Q440 -10 363 -10ZM389 290Q391 306 392.5 320.5Q394 335 394 349Q394 372 389.5 392.5Q385 413 374.5 429.5Q364 446 347.5 455.5Q331 465 306 465Q278 465 255 451.5Q232 438 214.5 414.5Q197 391 185.5 359Q174 327 168 290ZM376 46Q432 46 480 60.5Q528 75 566 101.5Q604 128 632 164.5Q660 201 676 244H163Q162 238 162 233Q162 228 162 222Q162 177 177.5 144Q193 111 221.5 89.5Q250 68 289.5 57Q329 46 376 46Z" glyph-name="ampersand.old" horiz-adv-x="835" /><glyph d="M525 -8Q492 -8 463.5 0Q435 8 403 30Q364 10 321.5 1Q279 -8 232 -8Q133 -8 78 23.5Q23 55 23 115Q23 144 33.5 166Q44 188 64.5 206Q85 224 115 240.5Q145 257 183 275Q146 325 130 354.5Q114 384 114 414Q114 446 128.5 472.5Q143 499 170 518Q197 537 234.5 547.5Q272 558 318 558Q357 558 389.5 549.5Q422 541 445 526.5Q468 512 481 492Q494 472 494 449Q494 423 481 401.5Q468 380 443 360.5Q418 341 382.5 322.5Q347 304 302 284Q319 263 338.5 240Q358 217 378 193Q397 171 414 152Q431 133 445 119Q474 146 496 181Q518 216 532 256H469L475 306H661L656 256H592Q569 199 540.5 157.5Q512 116 477 83Q506 56 523 50.5Q540 45 556 45Q583 45 600.5 68Q618 91 623 133H672Q664 65 630 28.5Q596 -8 525 -8ZM229 423Q229 403 240 379Q251 355 277 321Q378 377 378 446Q378 475 360.5 493Q343 511 311 511Q273 511 251 488Q229 465 229 423ZM265 43Q294 43 318 49Q342 55 362 66Q344 82 322.5 105Q301 128 278 154Q260 174 244 195.5Q228 217 214 234Q176 213 158 185.5Q140 158 140 128Q140 82 176.5 62.5Q213 43 265 43Z" glyph-name="ampersand.sc" horiz-adv-x="714" /><glyph d="M468 -10Q443 -10 417.5 -2Q392 6 369 29Q310 -10 230 -10Q133 -10 81 24.5Q29 59 29 125Q29 163 41 194Q53 225 73 251Q93 277 119 299Q145 321 173 342Q148 391 135 433.5Q122 476 122 515Q122 560 136.5 594.5Q151 629 176.5 652.5Q202 676 236 688Q270 700 310 700Q375 700 418 670Q461 640 461 577Q461 539 446 509Q431 479 406 453Q381 427 349 403.5Q317 380 283 356Q293 336 305 313Q317 290 331 263Q353 222 370.5 191Q388 160 402 137Q428 176 445.5 225.5Q463 275 470 326H418L424 379H595L589 326H535Q520 260 496 198Q472 136 434 88Q454 62 467 54Q480 46 494 46Q520 46 533 69.5Q546 93 551 138H600Q596 107 588 80Q580 53 565 33Q550 13 526.5 1.5Q503 -10 468 -10ZM223 539Q223 510 232 478Q241 446 259 405Q304 440 331.5 482Q359 524 359 581Q359 613 345.5 630.5Q332 648 303 648Q281 648 266 639Q251 630 241.5 614.5Q232 599 227.5 579.5Q223 560 223 539ZM253 45Q275 45 295 51.5Q315 58 333 69Q313 95 290 132Q267 169 239 221Q228 239 219 255.5Q210 272 202 288Q175 259 158 224Q141 189 141 144Q141 93 171.5 69Q202 45 253 45Z" glyph-name="ampersand.tln" horiz-adv-x="640" /><glyph d="M568 244Q555 191 530 144.5Q505 98 468.5 63.5Q432 29 383 9.5Q334 -10 273 -10Q157 -10 89 49.5Q21 109 21 224Q21 283 37 336Q53 389 82 428.5Q111 468 151.5 491.5Q192 515 241 515Q283 515 314 498.5Q345 482 365.5 456Q386 430 396 396.5Q406 363 406 329Q406 308 403 290H520Q522 308 523.5 327Q525 346 525 365Q525 397 520 423.5Q515 450 507 463Q494 450 469 450Q449 450 434 463Q419 476 419 499Q419 525 436 542.5Q453 560 482 560Q528 560 555.5 510Q583 460 583 377Q583 334 577 290H637L632 244ZM296 351Q296 373 294 393.5Q292 414 285 430Q278 446 266 455.5Q254 465 234 465Q211 465 193.5 450.5Q176 436 164 411.5Q152 387 144.5 355.5Q137 324 135 290H292Q294 307 295 322Q296 337 296 351ZM282 46Q326 46 363 60.5Q400 75 428.5 101.5Q457 128 477.5 164.5Q498 201 510 244H131V222Q131 46 282 46Z" glyph-name="ampersand.ton" horiz-adv-x="640" /><glyph d="M452 -10Q410 -10 384.5 12Q359 34 355 75Q335 38 301.5 14Q268 -10 213 -10Q177 -10 145 5Q113 20 89.5 48Q66 76 52 117Q38 158 38 210Q38 264 52 318.5Q66 373 94.5 416.5Q123 460 166.5 487.5Q210 515 268 515Q319 515 350 489.5Q381 464 393 426L424 504L510 503L460 99Q458 79 463 67Q468 55 482 55Q499 55 513 80Q527 105 535 157H586Q575 74 542.5 32Q510 -10 452 -10ZM279 458Q249 458 226 436.5Q203 415 188 378Q173 341 165 292Q157 243 157 188Q157 127 178 87Q199 47 241 47Q271 47 293 68.5Q315 90 329 122Q343 154 351.5 192Q360 230 363 264Q383 458 279 458ZM330 589Q291 589 265 613.5Q239 638 239 678Q239 724 270.5 756Q302 788 355 788Q393 788 419.5 763.5Q446 739 446 698Q446 653 414.5 621Q383 589 330 589ZM337 642Q357 642 372 655.5Q387 669 387 693Q387 712 376 723.5Q365 735 347 735Q327 735 312 721.5Q297 708 297 684Q297 664 308 653Q319 642 337 642Z" glyph-name="aring" horiz-adv-x="598" unicode="&#229;" /><glyph d="M259 609 126 384H61L241 690H295L398 384H335Z" glyph-name="asciicircum" horiz-adv-x="422" unicode="^" /><glyph d="M368 609 235 384H170L350 690H404L507 384H444Z" glyph-name="asciicircum.tln" horiz-adv-x="640" /><glyph d="M528 383Q524 349 516 317.5Q508 286 492.5 261.5Q477 237 451.5 222.5Q426 208 387 208Q345 208 317 225Q289 242 267 263Q245 284 227 301Q209 318 187 318Q154 318 136 292Q118 266 111 213H60Q64 248 73.5 279.5Q83 311 101 335Q119 359 145.5 373.5Q172 388 211 388Q250 388 276.5 371Q303 354 324.5 333Q346 312 365.5 295Q385 278 411 278Q443 278 457 303.5Q471 329 477 383Z" glyph-name="asciitilde" horiz-adv-x="575" unicode="~" /><glyph d="M561 383Q557 349 549 317.5Q541 286 525.5 261.5Q510 237 484.5 222.5Q459 208 420 208Q378 208 350 225Q322 242 300 263Q278 284 260 301Q242 318 220 318Q187 318 169 292Q151 266 144 213H93Q97 248 106.5 279.5Q116 311 134 335Q152 359 178.5 373.5Q205 388 244 388Q283 388 309.5 371Q336 354 357.5 333Q379 312 398.5 295Q418 278 444 278Q476 278 490 303.5Q504 329 510 383Z" glyph-name="asciitilde.tln" horiz-adv-x="640" /><glyph d="M256 547H235L213 627Q208 646 211 660Q214 674 222.5 683Q231 692 242 696Q253 700 264 700Q275 700 285 696Q295 692 301 683.5Q307 675 307 661Q307 647 297 627ZM268 527 260 545 320 612Q335 628 348.5 633.5Q362 639 373.5 637.5Q385 636 393.5 629.5Q402 623 406 614Q410 605 410.5 593.5Q411 582 405.5 570.5Q400 559 388 550.5Q376 542 355 539ZM231 545 218 527 135 539Q116 542 106 550.5Q96 559 92.5 570Q89 581 92 592.5Q95 604 101 613Q107 622 117.5 629Q128 636 139.5 637.5Q151 639 163.5 634Q176 629 187 612ZM163 436Q149 421 136 416Q123 411 112 413.5Q101 416 93 423Q85 430 81 439Q77 448 76.5 459.5Q76 471 81 482Q86 493 98 501Q110 509 130 512L217 524L226 505ZM353 511Q372 508 381.5 499.5Q391 491 393.5 480Q396 469 393 457.5Q390 446 384 438Q377 429 367 422Q357 415 345.5 413Q334 411 322 416Q310 421 299 437L253 503L267 523ZM221 352Q210 352 199.5 356Q189 360 183 368Q177 376 177 389.5Q177 403 187 421L229 502H250L274 420Q279 402 276 389Q273 376 264.5 367.5Q256 359 244.5 355.5Q233 352 221 352Z" glyph-name="asterisk" horiz-adv-x="419" unicode="*" /><glyph d="M223 430H205L183 497Q178 513 181 524.5Q184 536 191.5 543.5Q199 551 209.5 554.5Q220 558 230 558Q240 558 249.5 554.5Q259 551 264.5 543.5Q270 536 270 524.5Q270 513 261 497ZM201 427 190 412 114 422Q97 424 87.5 431.5Q78 439 75 448.5Q72 458 74 468Q76 478 82 485Q87 493 96.5 499Q106 505 117 506.5Q128 508 139.5 503.5Q151 499 161 484ZM235 412 227 427 281 484Q295 498 307.5 503Q320 508 330.5 506.5Q341 505 348.5 499Q356 493 360 485Q364 478 364.5 468Q365 458 360 448.5Q355 439 344 431.5Q333 424 314 422ZM140 335Q128 322 116.5 318.5Q105 315 95 317Q85 319 77.5 325.5Q70 332 66 339Q62 347 61.5 357Q61 367 65.5 376Q70 385 81 392Q92 399 110 401L189 410L196 394ZM313 400Q330 398 338.5 390.5Q347 383 349.5 373.5Q352 364 349 354.5Q346 345 341 338Q335 330 326 323.5Q317 317 306.5 315.5Q296 314 285 319Q274 324 264 337L222 393L234 409ZM194 266Q184 266 174 269Q164 272 158 279Q152 286 152 297Q152 308 161 324L200 392H219L242 323Q247 308 244 297Q241 286 233 279Q225 272 214 269Q203 266 194 266Z" glyph-name="asterisk.sc" horiz-adv-x="387" /><glyph d="M367 547H346L324 627Q319 646 322 660Q325 674 333.5 683Q342 692 353 696Q364 700 375 700Q386 700 396 696Q406 692 412 683.5Q418 675 418 661Q418 647 408 627ZM379 527 371 545 431 612Q446 628 459.5 633.5Q473 639 484.5 637.5Q496 636 504.5 629.5Q513 623 517 614Q521 605 521.5 593.5Q522 582 516.5 570.5Q511 559 499 550.5Q487 542 466 539ZM342 545 329 527 246 539Q227 542 217 550.5Q207 559 203.5 570Q200 581 203 592.5Q206 604 212 613Q218 622 228.5 629Q239 636 250.5 637.5Q262 639 274.5 634Q287 629 298 612ZM274 436Q260 421 247 416Q234 411 223 413.5Q212 416 204 423Q196 430 192 439Q188 448 187.5 459.5Q187 471 192 482Q197 493 209 501Q221 509 241 512L328 524L337 505ZM464 511Q483 508 492.5 499.5Q502 491 504.5 480Q507 469 504 457.5Q501 446 495 438Q488 429 478 422Q468 415 456.5 413Q445 411 433 416Q421 421 410 437L364 503L378 523ZM332 352Q321 352 310.5 356Q300 360 294 368Q288 376 288 389.5Q288 403 298 421L340 502H361L385 420Q390 402 387 389Q384 376 375.5 367.5Q367 359 355.5 355.5Q344 352 332 352Z" glyph-name="asterisk.tln" horiz-adv-x="640" /><glyph d="M695 -146Q655 -175 594.5 -194Q534 -213 440 -213Q350 -213 276 -190.5Q202 -168 148.5 -123.5Q95 -79 65.5 -13.5Q36 52 36 139Q36 238 68 328.5Q100 419 161.5 488.5Q223 558 313.5 599.5Q404 641 521 641Q614 641 683 615.5Q752 590 798 545.5Q844 501 867 441.5Q890 382 890 313Q890 255 878 197Q866 139 839 93Q812 47 769.5 18.5Q727 -10 666 -10Q539 -10 530 91Q504 43 467 16.5Q430 -10 371 -10Q305 -10 268 29.5Q231 69 231 143Q231 195 246.5 247.5Q262 300 292 342Q322 384 367 410.5Q412 437 470 437Q517 437 544 416Q571 395 581 365L637 432H691L629 173Q619 134 619 107Q619 44 682 44Q715 44 741.5 64.5Q768 85 786 121Q804 157 814 206Q824 255 824 311Q824 373 805 423.5Q786 474 747.5 510Q709 546 651.5 566Q594 586 517 586Q421 586 344 550.5Q267 515 213 454.5Q159 394 130.5 313.5Q102 233 102 142Q102 66 127.5 9.5Q153 -47 198.5 -84.5Q244 -122 307 -140Q370 -158 446 -158Q507 -158 562.5 -147Q618 -136 679 -98ZM336 137Q336 95 351.5 69.5Q367 44 400 44Q424 44 444.5 57.5Q465 71 481.5 93.5Q498 116 510.5 144.5Q523 173 530 203Q538 232 541 255Q544 278 544 297Q544 383 481 383Q449 383 422 360.5Q395 338 376 302.5Q357 267 346.5 223Q336 179 336 137Z" glyph-name="at" horiz-adv-x="935" unicode="@" /><glyph d="M712 -16Q672 -45 611.5 -64Q551 -83 457 -83Q367 -83 293 -60.5Q219 -38 165.5 6.5Q112 51 82.5 116.5Q53 182 53 269Q53 368 85 458.5Q117 549 178.5 618.5Q240 688 330.5 729.5Q421 771 538 771Q631 771 700 745.5Q769 720 815 675.5Q861 631 884 571.5Q907 512 907 443Q907 385 895 327Q883 269 856 223Q829 177 786.5 148.5Q744 120 683 120Q556 120 547 221Q521 173 484 146.5Q447 120 388 120Q322 120 285 159.5Q248 199 248 273Q248 325 263.5 377.5Q279 430 309 472Q339 514 384 540.5Q429 567 487 567Q534 567 561 546Q588 525 598 495L654 562H708L646 303Q636 264 636 237Q636 174 699 174Q732 174 758.5 194.5Q785 215 803 251Q821 287 831 336Q841 385 841 441Q841 503 822 553.5Q803 604 764.5 640Q726 676 668.5 696Q611 716 534 716Q438 716 361 680.5Q284 645 230 584.5Q176 524 147.5 443.5Q119 363 119 272Q119 196 144.5 139.5Q170 83 215.5 45.5Q261 8 324 -10Q387 -28 463 -28Q524 -28 579.5 -17Q635 -6 696 32ZM353 267Q353 225 368.5 199.5Q384 174 417 174Q441 174 461.5 187.5Q482 201 498.5 223.5Q515 246 527.5 274.5Q540 303 547 333Q555 362 558 385Q561 408 561 427Q561 513 498 513Q466 513 439 490.5Q412 468 393 432.5Q374 397 363.5 353Q353 309 353 267Z" glyph-name="at.cap" horiz-adv-x="920" /><glyph d="M343 -8Q267 -8 207.5 8.5Q148 25 109.5 58.5Q71 92 54 144Q37 196 46 266Q54 328 84 381Q114 434 162.5 473.5Q211 513 276 535.5Q341 558 419 558Q496 558 550.5 538.5Q605 519 638 485.5Q671 452 684 406.5Q697 361 691 309Q687 274 674.5 240.5Q662 207 641 181.5Q620 156 590 140.5Q560 125 519 125Q464 125 443 147Q422 169 420 196Q402 164 369.5 144.5Q337 125 294 125Q266 125 243 135.5Q220 146 205.5 165.5Q191 185 186.5 214Q182 243 191 280Q199 314 216.5 341.5Q234 369 258 388Q282 407 311 417Q340 427 370 427Q405 427 427 415Q449 403 460 383L522 427H544L498 249Q487 207 494.5 188.5Q502 170 530 170Q575 170 598.5 208.5Q622 247 630 305Q642 400 587.5 453.5Q533 507 410 507Q350 507 297.5 490Q245 473 204.5 441.5Q164 410 138 365.5Q112 321 105 266Q98 207 113 165Q128 123 161 96Q194 69 242.5 56.5Q291 44 351 44Q396 44 443 50.5Q490 57 535 81L543 36Q513 16 462.5 4Q412 -8 343 -8ZM320 169Q356 169 380.5 198.5Q405 228 416 273Q444 382 377 382Q341 382 315.5 352.5Q290 323 279 280Q266 232 277 200.5Q288 169 320 169Z" glyph-name="at.sc" horiz-adv-x="721" /><glyph d="M481 -146Q455 -175 404.5 -194Q354 -213 285 -213Q139 -213 62 -126.5Q-15 -40 -12 123Q-11 222 16 315Q43 408 94.5 480.5Q146 553 220 596.5Q294 640 390 640Q462 640 511 612.5Q560 585 590 539Q620 493 632 433Q644 373 641 308Q640 253 628.5 196Q617 139 594.5 93.5Q572 48 536.5 19Q501 -10 450 -10Q419 -10 400.5 -1Q382 8 372.5 21.5Q363 35 360 51.5Q357 68 357 84Q341 44 313 17Q285 -10 235 -10Q183 -10 157.5 30Q132 70 134 139Q136 190 151.5 243Q167 296 193.5 339Q220 382 255.5 409.5Q291 437 333 437Q371 437 389.5 418Q408 399 417 372L476 437H510L439 136Q436 122 434 110Q432 98 431 87Q431 67 439 55.5Q447 44 466 44Q490 44 510 66Q530 88 544 125Q558 162 567 209Q576 256 577 307Q579 365 570 416Q561 467 538 504.5Q515 542 477.5 563.5Q440 585 385 585Q315 585 254.5 549Q194 513 150 450.5Q106 388 80 305Q54 222 53 128Q51 -14 113 -86.5Q175 -159 291 -159Q333 -159 378 -148Q423 -137 466 -99ZM228 139Q226 97 233.5 70.5Q241 44 261 44Q279 44 294 56.5Q309 69 322 91.5Q335 114 345 144Q355 174 363 208Q370 237 373 260Q376 283 377 302Q379 342 369 362.5Q359 383 342 383Q316 383 295 358Q274 333 259.5 296Q245 259 237 216.5Q229 174 228 139Z" glyph-name="at.tln" horiz-adv-x="640" /><glyph d="M452 -10Q410 -10 384.5 12Q359 34 355 75Q335 38 301.5 14Q268 -10 213 -10Q177 -10 145 5Q113 20 89.5 48Q66 76 52 117Q38 158 38 210Q38 264 52 318.5Q66 373 94.5 416.5Q123 460 166.5 487.5Q210 515 268 515Q319 515 350 489.5Q381 464 393 426L424 504L510 503L460 99Q458 79 463 67Q468 55 482 55Q499 55 513 80Q527 105 535 157H586Q575 74 542.5 32Q510 -10 452 -10ZM279 458Q249 458 226 436.5Q203 415 188 378Q173 341 165 292Q157 243 157 188Q157 127 178 87Q199 47 241 47Q271 47 293 68.5Q315 90 329 122Q343 154 351.5 192Q360 230 363 264Q383 458 279 458ZM395 613Q373 613 356 622.5Q339 632 324.5 643Q310 654 297 663.5Q284 673 270 673Q248 673 237.5 656Q227 639 224 613H181Q189 673 214 708.5Q239 744 285 744Q308 744 324.5 734.5Q341 725 354.5 714Q368 703 380.5 693.5Q393 684 408 684Q428 684 438.5 700.5Q449 717 452 743H495Q491 713 485 689Q479 665 467.5 648Q456 631 438.5 622Q421 613 395 613Z" glyph-name="atilde" horiz-adv-x="598" unicode="&#227;" /><glyph d="M305 -10Q255 -10 221 12.5Q187 35 166 79L103 -2H49L125 694H42L50 749Q99 749 132.5 749.5Q166 750 187.5 751.5Q209 753 220.5 755Q232 757 236 760L250 750L232 587Q227 544 219.5 500Q212 456 207 430Q228 470 265 492.5Q302 515 350 515Q388 515 419.5 498Q451 481 473.5 451.5Q496 422 508.5 382Q521 342 521 295Q521 234 506 178.5Q491 123 463 81Q435 39 395 14.5Q355 -10 305 -10ZM281 47Q313 47 336 70Q359 93 373.5 130Q388 167 395 212Q402 257 402 301Q402 373 380 415.5Q358 458 312 458Q280 458 257.5 434.5Q235 411 220.5 374Q206 337 199 292Q192 247 192 205Q192 136 213 91.5Q234 47 281 47Z" glyph-name="b" horiz-adv-x="559" unicode="b" /><glyph d="M419 -100 84 760H156L491 -100Z" glyph-name="backslash" horiz-adv-x="554" unicode="\" /><glyph d="M421 -70 86 790H158L493 -70Z" glyph-name="backslash.cap" horiz-adv-x="552" /><glyph d="M383 -60 74 626H141L450 -60Z" glyph-name="backslash.sc" horiz-adv-x="508" /><glyph d="M462 -100 127 760H199L534 -100Z" glyph-name="backslash.tln" horiz-adv-x="640" /><glyph d="M29 -250 163 840H232L98 -250Z" glyph-name="bar" horiz-adv-x="249" unicode="|" /><glyph d="M42 -200 176 890H245L111 -200Z" glyph-name="bar.cap" horiz-adv-x="263" /><glyph d="M224 -250 358 840H427L293 -250Z" glyph-name="bar.tln" horiz-adv-x="640" /><glyph d="M277 -260Q205 -260 162.5 -242.5Q120 -225 99 -196Q78 -167 74 -129.5Q70 -92 76 -52Q82 -11 89.5 30Q97 71 101 108Q104 135 103 159Q102 183 92 200Q82 217 62.5 227Q43 237 9 237L15 291Q49 291 71 300.5Q93 310 107 326.5Q121 343 128 365.5Q135 388 138 414Q143 449 144.5 489.5Q146 530 151 577Q156 617 170 650.5Q184 684 212 708.5Q240 733 286 746.5Q332 760 402 760L396 705Q363 705 340.5 695.5Q318 686 304 668Q290 650 282 624Q274 598 270 564Q265 532 263 496.5Q261 461 256 428Q251 395 242 366Q233 337 215 314.5Q197 292 169 278.5Q141 265 98 263Q140 260 165 245Q190 230 202 205.5Q214 181 215.5 149.5Q217 118 214 83Q210 48 204.5 12Q199 -24 194 -56Q189 -90 189.5 -117.5Q190 -145 199.5 -164.5Q209 -184 229.5 -194.5Q250 -205 285 -205Z" glyph-name="braceleft" horiz-adv-x="366" unicode="{" /><glyph d="M299 -180Q227 -180 184.5 -162.5Q142 -145 121 -116Q100 -87 96 -49.5Q92 -12 98 28Q104 69 111.5 110Q119 151 123 188Q126 215 125 239Q124 263 114 280Q104 297 84.5 307Q65 317 31 317L37 371Q71 371 93 380.5Q115 390 129 406.5Q143 423 150 445.5Q157 468 160 494Q165 529 166.5 569.5Q168 610 173 657Q178 697 192 730.5Q206 764 234 788.5Q262 813 308 826.5Q354 840 424 840L418 785Q385 785 362.5 775.5Q340 766 326 748Q312 730 304 704Q296 678 292 644Q287 612 285 576.5Q283 541 278 508Q273 475 264 446Q255 417 237 394.5Q219 372 191 358.5Q163 345 120 343Q162 340 187 325Q212 310 224 285.5Q236 261 237.5 229.5Q239 198 236 163Q232 128 226.5 92Q221 56 216 24Q211 -10 211.5 -37.5Q212 -65 221.5 -84.5Q231 -104 251.5 -114.5Q272 -125 307 -125Z" glyph-name="braceleft.cap" horiz-adv-x="381" /><glyph d="M279 -143Q213 -143 174 -129Q135 -115 115.5 -91.5Q96 -68 92 -38Q88 -8 92 24Q97 56 103.5 88Q110 120 113 149Q115 170 113.5 188.5Q112 207 103 220Q94 233 76 240.5Q58 248 28 248L34 299Q64 299 84 306.5Q104 314 116 327Q128 340 134 358Q140 376 143 397Q146 424 146.5 455Q147 486 152 521Q157 554 169 581Q181 608 206.5 628Q232 648 274 659Q316 670 379 670L374 618Q316 618 293.5 589.5Q271 561 265 510Q262 485 260 457Q258 429 254 403Q250 378 241.5 355Q233 332 217.5 314.5Q202 297 177 286.5Q152 276 114 274Q152 272 174.5 259.5Q197 247 208 228Q219 209 221.5 184Q224 159 221 132Q219 104 214 75Q209 46 206 20Q202 -6 203 -26.5Q204 -47 212 -62Q220 -77 238 -85Q256 -93 286 -93Z" glyph-name="braceleft.sc" horiz-adv-x="363" /><glyph d="M415 -260Q343 -260 300.5 -242.5Q258 -225 237 -196Q216 -167 212 -129.5Q208 -92 214 -52Q220 -11 227.5 30Q235 71 239 108Q242 135 241 159Q240 183 230 200Q220 217 200.5 227Q181 237 147 237L153 291Q187 291 209 300.5Q231 310 245 326.5Q259 343 266 365.5Q273 388 276 414Q281 449 282.5 489.5Q284 530 289 577Q294 617 308 650.5Q322 684 350 708.5Q378 733 424 746.5Q470 760 540 760L534 705Q501 705 478.5 695.5Q456 686 442 668Q428 650 420 624Q412 598 408 564Q403 532 401 496.5Q399 461 394 428Q389 395 380 366Q371 337 353 314.5Q335 292 307 278.5Q279 265 236 263Q278 260 303 245Q328 230 340 205.5Q352 181 353.5 149.5Q355 118 352 83Q348 48 342.5 12Q337 -24 332 -56Q327 -90 327.5 -117.5Q328 -145 337.5 -164.5Q347 -184 367.5 -194.5Q388 -205 423 -205Z" glyph-name="braceleft.tln" horiz-adv-x="640" /><glyph d="M88 760Q160 760 202.5 742.5Q245 725 266.5 696Q288 667 292 629.5Q296 592 290 552Q284 511 276 470Q268 429 264 392Q261 365 262.5 341.5Q264 318 273.5 300.5Q283 283 303 273.5Q323 264 357 264L351 210Q317 210 295 200.5Q273 191 259 174.5Q245 158 237.5 135Q230 112 227 86Q222 51 221 10.5Q220 -30 214 -77Q209 -117 195.5 -150.5Q182 -184 153.5 -208.5Q125 -233 79 -246.5Q33 -260 -37 -260L-31 -205Q2 -205 24.5 -195.5Q47 -186 61.5 -168Q76 -150 84 -124Q92 -98 96 -64Q100 -32 102.5 3.5Q105 39 110 72Q115 105 124 134Q133 163 151 185.5Q169 208 197 221.5Q225 235 267 237Q225 240 200.5 255Q176 270 164 294.5Q152 319 150.5 350.5Q149 382 152 417Q155 452 160.5 488Q166 524 171 556Q176 590 175.5 617.5Q175 645 165.5 664.5Q156 684 136 694.5Q116 705 81 705Z" glyph-name="braceright" horiz-adv-x="364" unicode="}" /><glyph d="M101 840Q173 840 215.5 822.5Q258 805 279.5 776Q301 747 305 709.5Q309 672 303 632Q297 591 289 550Q281 509 277 472Q274 445 275.5 421.5Q277 398 286.5 380.5Q296 363 316 353.5Q336 344 370 344L364 290Q330 290 308 280.5Q286 271 272 254.5Q258 238 250.5 215Q243 192 240 166Q235 131 234 90.5Q233 50 227 3Q222 -37 208.5 -70.5Q195 -104 166.5 -128.5Q138 -153 92 -166.5Q46 -180 -24 -180L-18 -125Q15 -125 37.5 -115.5Q60 -106 74.5 -88Q89 -70 97 -44Q105 -18 109 16Q113 48 115.5 83.5Q118 119 123 152Q128 185 137 214Q146 243 164 265.5Q182 288 210 301.5Q238 315 280 317Q238 320 213.5 335Q189 350 177 374.5Q165 399 163.5 430.5Q162 462 165 497Q168 532 173.5 568Q179 604 184 636Q189 670 188.5 697.5Q188 725 178.5 744.5Q169 764 149 774.5Q129 785 94 785Z" glyph-name="braceright.cap" horiz-adv-x="381" /><glyph d="M87 670Q153 670 192 656Q231 642 250.5 618.5Q270 595 274.5 564.5Q279 534 274 502Q269 470 262.5 438Q256 406 253 377Q251 355 252.5 337Q254 319 263 305.5Q272 292 290 284.5Q308 277 338 277L332 227Q302 227 282 219.5Q262 212 250 198.5Q238 185 232 167.5Q226 150 223 129Q219 101 219 70.5Q219 40 214 5Q210 -28 197.5 -55Q185 -82 159.5 -101.5Q134 -121 92 -132Q50 -143 -13 -143L-8 -93Q51 -93 72.5 -64Q94 -35 101 16Q104 42 106 69Q108 96 112 123Q116 148 124 171Q132 194 148 211.5Q164 229 189 240.5Q214 252 252 253Q214 255 191.5 267Q169 279 158 298.5Q147 318 144.5 342.5Q142 367 145 394Q147 422 152 450.5Q157 479 160 505Q164 531 163 551.5Q162 572 154 587Q146 602 128 610Q110 618 80 618Z" glyph-name="braceright.sc" horiz-adv-x="363" /><glyph d="M226 760Q298 760 340.5 742.5Q383 725 404.5 696Q426 667 430 629.5Q434 592 428 552Q422 511 414 470Q406 429 402 392Q399 365 400.5 341.5Q402 318 411.5 300.5Q421 283 441 273.5Q461 264 495 264L489 210Q455 210 433 200.5Q411 191 397 174.5Q383 158 375.5 135Q368 112 365 86Q360 51 359 10.5Q358 -30 352 -77Q347 -117 333.5 -150.5Q320 -184 291.5 -208.5Q263 -233 217 -246.5Q171 -260 101 -260L107 -205Q140 -205 162.5 -195.5Q185 -186 199.5 -168Q214 -150 222 -124Q230 -98 234 -64Q238 -32 240.5 3.5Q243 39 248 72Q253 105 262 134Q271 163 289 185.5Q307 208 335 221.5Q363 235 405 237Q363 240 338.5 255Q314 270 302 294.5Q290 319 288.5 350.5Q287 382 290 417Q293 452 298.5 488Q304 524 309 556Q314 590 313.5 617.5Q313 645 303.5 664.5Q294 684 274 694.5Q254 705 219 705Z" glyph-name="braceright.tln" horiz-adv-x="640" /><glyph d="M30 -250 153 750H414L407 695H268L159 -195H298L291 -250Z" glyph-name="bracketleft" horiz-adv-x="374" unicode="[" /><glyph d="M47 -170 170 830H431L424 775H285L176 -115H315L308 -170Z" glyph-name="bracketleft.cap" horiz-adv-x="383" /><glyph d="M50 -127 149 670H390L384 618H260L174 -77H298L292 -127Z" glyph-name="bracketleft.sc" horiz-adv-x="369" /><glyph d="M163 -250 286 750H547L540 695H401L292 -195H431L424 -250Z" glyph-name="bracketleft.tln" horiz-adv-x="640" /><glyph d="M-32 -195H107L216 695H77L84 750H345L222 -250H-39Z" glyph-name="bracketright" horiz-adv-x="373" unicode="]" /><glyph d="M-20 -115H119L228 775H89L96 830H357L234 -170H-27Z" glyph-name="bracketright.cap" horiz-adv-x="383" /><glyph d="M-9 -77H115L201 618H77L83 670H324L226 -127H-16Z" glyph-name="bracketright.sc" horiz-adv-x="368" /><glyph d="M101 -195H240L349 695H210L217 750H478L355 -250H94Z" glyph-name="bracketright.tln" horiz-adv-x="640" /><glyph d="M216 680Q259 680 282.5 703.5Q306 727 314 763H355Q352 735 342.5 707Q333 679 316 657Q299 635 272 621Q245 607 207 607Q170 607 145 621Q120 635 106 657Q92 679 87.5 707Q83 735 86 763H127Q128 727 150.5 703.5Q173 680 216 680Z" glyph-name="breve" horiz-adv-x="407" unicode="&#728;" /><glyph d="M215 810Q256 810 277.5 828Q299 846 307 872H348Q345 847 336 822.5Q327 798 310.5 778.5Q294 759 268.5 747.5Q243 736 206 736Q170 736 146 747.5Q122 759 108.5 778.5Q95 798 90.5 822.5Q86 847 89 872H129Q133 846 153 828Q173 810 215 810Z" glyph-name="breve.cap" horiz-adv-x="397" /><glyph d="M108 400 162 840H231L177 400ZM28 -250 82 190H151L97 -250Z" glyph-name="brokenbar" horiz-adv-x="247" unicode="&#166;" /><glyph d="M304 400 358 840H427L373 400ZM224 -250 278 190H347L293 -250Z" glyph-name="brokenbar.tln" horiz-adv-x="640" /><glyph d="M432 147Q424 114 408 85Q392 56 368.5 35Q345 14 314 2Q283 -10 244 -10Q194 -10 155.5 7Q117 24 91 53.5Q65 83 51.5 123Q38 163 38 210Q38 275 55.5 331Q73 387 105 428Q137 469 183 492Q229 515 287 515Q357 515 399 484.5Q441 454 441 404Q441 377 424.5 356Q408 335 375 335Q346 335 329 350.5Q312 366 312 389Q312 407 323 423.5Q334 440 354 448Q333 460 299 460Q260 460 233 437.5Q206 415 189 378Q172 341 164.5 295Q157 249 157 201Q157 136 183.5 94.5Q210 53 261 53Q312 53 341 85Q370 117 382 163Z" glyph-name="c" horiz-adv-x="468" unicode="c" /><glyph d="M653 -10Q584 -10 549.5 32Q515 74 526 164L560 449H479L485 495H496Q530 495 552.5 501.5Q575 508 588.5 520Q602 532 608.5 548.5Q615 565 617 586Q622 637 596.5 671Q571 705 512 705Q475 705 445.5 689.5Q416 674 396 647Q376 620 366 583Q356 546 359 504Q394 493 411 472.5Q428 452 428 427Q428 404 415.5 386Q403 368 373 368Q342 368 320.5 389.5Q299 411 297 459Q262 457 235.5 434.5Q209 412 191.5 376Q174 340 165.5 294.5Q157 249 157 201Q157 137 182 95.5Q207 54 262 54Q309 54 339.5 85.5Q370 117 382 163L432 147Q413 77 368 33.5Q323 -10 240 -10Q192 -10 154 7Q116 24 90.5 53.5Q65 83 51.5 123Q38 163 38 210Q38 277 56.5 334Q75 391 108.5 432Q142 473 190 495Q238 517 298 514Q298 561 311.5 605.5Q325 650 352 684.5Q379 719 420.5 739.5Q462 760 518 760Q560 760 593.5 748Q627 736 650 712Q673 688 683 651.5Q693 615 688 565L682 504H842L836 449H679L643 159Q637 113 646 85Q655 57 689 57Q719 57 735 88Q751 119 759 167H810Q797 85 761.5 37.5Q726 -10 653 -10Z" glyph-name="c_t" horiz-adv-x="837" /><glyph d="M654 -10Q624 -10 598 -1Q572 8 554.5 28Q537 48 529 80Q521 112 527 157L562 449H480L488 504H570Q575 541 576.5 577Q578 613 570.5 641.5Q563 670 544 687.5Q525 705 487 705Q422 705 386.5 652Q351 599 349 508Q389 497 409.5 473.5Q430 450 428 421Q426 397 411.5 382.5Q397 368 373 368Q344 368 321 388.5Q298 409 292 454Q257 451 231.5 428.5Q206 406 189.5 371Q173 336 165 291.5Q157 247 157 201Q157 137 182 95.5Q207 54 262 54Q309 54 339.5 85.5Q370 117 382 163L432 147Q413 77 368 33.5Q323 -10 240 -10Q192 -10 154 7Q116 24 90.5 53.5Q65 83 51.5 123Q38 163 38 210Q38 275 55.5 330.5Q73 386 105.5 427Q138 468 184.5 491.5Q231 515 290 515Q298 633 351.5 696.5Q405 760 496 760Q565 760 599.5 721Q634 682 644 616L751 760L776 750Q752 704 724.5 642Q697 580 687 504H847L841 449H681L645 157Q639 109 648 83Q657 57 691 57Q707 57 718.5 66.5Q730 76 738 91.5Q746 107 751.5 127Q757 147 761 167H811Q805 129 794.5 96.5Q784 64 765.5 40.5Q747 17 720 3.5Q693 -10 654 -10Z" glyph-name="c_t.alt" horiz-adv-x="840" /><glyph d="M439 -8 409 32Q375 8 339 0Q303 -8 270 -8Q214 -8 171.5 10.5Q129 29 100 61.5Q71 94 56 137.5Q41 181 41 232Q41 295 60.5 354Q80 413 117.5 458Q155 503 210.5 530.5Q266 558 338 558Q419 558 465 520L504 557H555L531 366H469Q477 425 447 464Q417 503 347 503Q304 503 269.5 480Q235 457 210.5 417.5Q186 378 173 325Q160 272 160 212Q160 126 199.5 86.5Q239 47 298 47Q329 47 355.5 58Q382 69 402.5 88.5Q423 108 435.5 133.5Q448 159 452 188H514L489 -8ZM707 51H781L836 500H803Q772 500 751.5 496Q731 492 718 481Q705 470 697.5 450.5Q690 431 685 399L681 375H619L641 550H1160L1138 375H1076L1079 399Q1083 431 1081 450.5Q1079 470 1068.5 481Q1058 492 1038 496Q1018 500 986 500H953L898 51H973L966 0H700Z" glyph-name="c_t.alt.sc" horiz-adv-x="1147" /><glyph d="M439 -8 409 32Q375 8 339 0Q303 -8 270 -8Q214 -8 171.5 10.5Q129 29 100 61.5Q71 94 56 137.5Q41 181 41 232Q41 295 60.5 354Q80 413 117.5 458Q155 503 210.5 530.5Q266 558 338 558Q419 558 465 520L504 557H555L531 366H469Q477 425 447 464Q417 503 347 503Q304 503 269.5 480Q235 457 210.5 417.5Q186 378 173 325Q160 272 160 212Q160 126 199.5 86.5Q239 47 298 47Q329 47 355.5 58Q382 69 402.5 88.5Q423 108 435.5 133.5Q448 159 452 188H514L489 -8ZM707 51H781L836 500H803Q772 500 751.5 496Q731 492 718 481Q705 470 697.5 450.5Q690 431 685 399L681 375H619L641 550H1160L1138 375H1076L1079 399Q1083 431 1081 450.5Q1079 470 1068.5 481Q1058 492 1038 496Q1018 500 986 500H953L898 51H973L966 0H700Z" glyph-name="c_t.sc" horiz-adv-x="1147" /><glyph d="M146 776 253 694 381 776H432L258 604H228L95 776Z" glyph-name="caron" horiz-adv-x="474" unicode="&#711;" /><glyph d="M382 873 236 740H187L70 873H124L221 819L328 873Z" glyph-name="caron.cap" horiz-adv-x="417" /><glyph d="M219 -200Q196 -200 173 -196Q150 -192 136 -182L142 -135Q152 -142 166.5 -146.5Q181 -151 196 -151Q219 -151 231 -141Q243 -131 243 -117Q243 -82 175 -82L177 -65L204 -7Q164 -1 133 18Q102 37 81 65.5Q60 94 49 131Q38 168 38 210Q38 275 55.5 331Q73 387 105 428Q137 469 183 492Q229 515 287 515Q357 515 399 484.5Q441 454 441 404Q441 377 423.5 356Q406 335 375 335Q346 335 329 350.5Q312 366 312 389Q312 407 322.5 423.5Q333 440 354 448Q333 460 299 460Q260 460 233 437.5Q206 415 189 378Q172 341 164.5 295Q157 249 157 201Q157 136 183.5 94.5Q210 53 261 53Q312 53 341 85Q370 117 382 163L432 147Q417 84 375.5 41Q334 -2 265 -9L250 -40Q286 -45 308.5 -62Q331 -79 331 -111Q331 -151 302.5 -175.5Q274 -200 219 -200Z" glyph-name="ccedilla" horiz-adv-x="468" unicode="&#231;" /><glyph d="M147 -200Q124 -200 101 -196Q78 -192 64 -182L70 -135Q80 -142 94.5 -146.5Q109 -151 124 -151Q147 -151 159 -141Q171 -131 171 -117Q171 -82 103 -82L105 -65L137 3H199L178 -40Q214 -45 236.5 -62Q259 -79 259 -111Q259 -146 230.5 -173Q202 -200 147 -200Z" glyph-name="cedilla" horiz-adv-x="326" unicode="&#184;" /><glyph d="M174 281Q174 235 186.5 199.5Q199 164 225 145L271 532Q245 520 226.5 494Q208 468 196.5 434Q185 400 179.5 360.5Q174 321 174 281ZM249 -20H203L214 74Q136 89 95.5 148Q55 207 55 290Q55 352 70.5 405Q86 458 114.5 498.5Q143 539 184.5 564Q226 589 278 594L289 685H335L324 594Q386 589 422 559.5Q458 530 458 484Q458 457 441.5 436Q425 415 392 415Q363 415 346 430.5Q329 446 329 469Q329 487 339.5 503.5Q350 520 371 528Q350 540 317 540L268 133Q301 133 323.5 141.5Q346 150 361 165Q376 180 384.5 200Q393 220 399 243L449 227Q441 194 425 165Q409 136 385.5 115Q362 94 330.5 82Q299 70 260 70Z" glyph-name="cent" horiz-adv-x="489" unicode="&#162;" /><glyph d="M162 201Q162 155 174.5 119.5Q187 84 213 65L259 452Q233 440 214.5 414Q196 388 184.5 354Q173 320 167.5 280.5Q162 241 162 201ZM237 -100H191L202 -6Q124 9 83.5 68Q43 127 43 210Q43 272 58.5 325Q74 378 102.5 418.5Q131 459 172.5 484Q214 509 266 514L277 605H323L312 514Q374 509 410 479.5Q446 450 446 404Q446 377 429.5 356Q413 335 380 335Q351 335 334 350.5Q317 366 317 389Q317 407 327.5 423.5Q338 440 359 448Q338 460 305 460L256 53Q289 53 311.5 61.5Q334 70 349 85Q364 100 372.5 120Q381 140 387 163L437 147Q429 114 413 85Q397 56 373.5 35Q350 14 318.5 2Q287 -10 248 -10Z" glyph-name="cent.old" horiz-adv-x="479" /><glyph d="M404 190Q389 133 347.5 98.5Q306 64 236 64L227 -8H184L193 67Q122 78 84 125.5Q46 173 45 243Q44 293 57.5 335Q71 377 97 409Q123 441 160 461Q197 481 244 485L253 556H296L287 485Q344 481 376.5 457.5Q409 434 409 393Q409 368 392.5 351Q376 334 347 334Q320 334 305 346.5Q290 359 290 379Q290 393 297 405.5Q304 418 321 426Q311 431 300.5 432.5Q290 434 281 434L243 121Q289 121 318 143.5Q347 166 358 205ZM159 233Q160 201 171 174Q182 147 202 133L237 426Q216 416 201.5 396Q187 376 177 350Q167 324 163 294Q159 264 159 233Z" glyph-name="cent.sc" horiz-adv-x="447" /><glyph d="M250 281Q250 235 262.5 199.5Q275 164 301 145L347 532Q321 520 302.5 494Q284 468 272.5 434Q261 400 255.5 360.5Q250 321 250 281ZM325 -20H279L290 74Q212 89 171.5 148Q131 207 131 290Q131 352 146.5 405Q162 458 190.5 498.5Q219 539 260.5 564Q302 589 354 594L365 685H411L400 594Q462 589 498 559.5Q534 530 534 484Q534 457 517.5 436Q501 415 468 415Q439 415 422 430.5Q405 446 405 469Q405 487 415.5 503.5Q426 520 447 528Q426 540 393 540L344 133Q377 133 399.5 141.5Q422 150 437 165Q452 180 460.5 200Q469 220 475 243L525 227Q517 194 501 165Q485 136 461.5 115Q438 94 406.5 82Q375 70 336 70Z" glyph-name="cent.tln" horiz-adv-x="640" /><glyph d="M240 201Q240 155 252.5 119.5Q265 84 291 65L337 452Q311 440 292.5 414Q274 388 262.5 354Q251 320 245.5 280.5Q240 241 240 201ZM315 -100H269L280 -6Q202 9 161.5 68Q121 127 121 210Q121 272 136.5 325Q152 378 180.5 418.5Q209 459 250.5 484Q292 509 344 514L355 605H401L390 514Q452 509 488 479.5Q524 450 524 404Q524 377 507.5 356Q491 335 458 335Q429 335 412 350.5Q395 366 395 389Q395 407 405.5 423.5Q416 440 437 448Q416 460 383 460L334 53Q367 53 389.5 61.5Q412 70 427 85Q442 100 450.5 120Q459 140 465 163L515 147Q507 114 491 85Q475 56 451.5 35Q428 14 396.5 2Q365 -10 326 -10Z" glyph-name="cent.ton" horiz-adv-x="640" /><glyph d="M64 604 242 776H273L402 604H350L246 686L116 604Z" glyph-name="circumflex" horiz-adv-x="458" unicode="&#710;" /><glyph d="M235 794 124 740H70L220 873H270L382 740H329Z" glyph-name="circumflex.cap" horiz-adv-x="433" /><glyph d="M216 373Q216 342 194 320Q172 298 138 298Q109 298 92.5 315Q76 332 76 358Q76 390 97 412.5Q118 435 153 435Q182 435 199 418Q216 401 216 373ZM178 65Q178 34 156 12Q134 -10 100 -10Q71 -10 54.5 7Q38 24 38 50Q38 82 59 104.5Q80 127 115 127Q144 127 161 110Q178 93 178 65Z" glyph-name="colon" horiz-adv-x="264" unicode=":" /><glyph d="M404 373Q404 342 382 320Q360 298 326 298Q297 298 280.5 315Q264 332 264 358Q264 390 285 412.5Q306 435 341 435Q370 435 387 418Q404 401 404 373ZM366 65Q366 34 344 12Q322 -10 288 -10Q259 -10 242.5 7Q226 24 226 50Q226 82 247 104.5Q268 127 303 127Q332 127 349 110Q366 93 366 65Z" glyph-name="colon.tln" horiz-adv-x="640" /><glyph d="M24 -101Q56 -91 78 -67.5Q100 -44 108 -11Q74 -13 54.5 4.5Q35 22 35 54Q35 80 54 103.5Q73 127 111 127Q145 127 161 106.5Q177 86 177 51Q177 21 166.5 -11Q156 -43 136 -71Q116 -99 86.5 -119Q57 -139 19 -146Z" glyph-name="comma" horiz-adv-x="247" unicode="," /><glyph d="M215 -101Q247 -91 269 -67.5Q291 -44 299 -11Q265 -13 245.5 4.5Q226 22 226 54Q226 80 245 103.5Q264 127 302 127Q336 127 352 106.5Q368 86 368 51Q368 21 357.5 -11Q347 -43 327 -71Q307 -99 277.5 -119Q248 -139 210 -146Z" glyph-name="comma.tln" horiz-adv-x="640" /><glyph d="M448 700Q518 700 574.5 677Q631 654 671 612.5Q711 571 732.5 513.5Q754 456 754 388Q754 303 724 230.5Q694 158 641 104.5Q588 51 516 20.5Q444 -10 360 -10Q290 -10 234 13.5Q178 37 138.5 79Q99 121 77.5 178.5Q56 236 56 304Q56 387 85.5 459Q115 531 167.5 584.5Q220 638 291.5 669Q363 700 448 700ZM442 648Q372 648 312 621Q252 594 207.5 547Q163 500 138 437.5Q113 375 113 304Q113 246 131 197.5Q149 149 182 114.5Q215 80 262 61Q309 42 367 42Q437 42 497 69.5Q557 97 601.5 144Q646 191 671 253.5Q696 316 696 387Q696 445 678 493Q660 541 627 575.5Q594 610 547 629Q500 648 442 648ZM463 178Q443 158 418 150Q393 142 371 142Q333 142 305.5 156.5Q278 171 260 195.5Q242 220 233 251.5Q224 283 224 317Q224 362 239.5 405Q255 448 281.5 481Q308 514 344 534Q380 554 420 554Q480 554 504 519L529 554H563L546 413H498Q500 455 483.5 483.5Q467 512 427 512Q400 512 378.5 492.5Q357 473 342.5 443Q328 413 320 376.5Q312 340 312 305Q312 248 334 218Q356 188 393 188Q428 188 452 216Q476 244 484 286H533L516 142H481Z" glyph-name="copyright" horiz-adv-x="785" unicode="&#169;" /><glyph d="M268 -10Q216 -10 174.5 7.5Q133 25 104 55.5Q75 86 59 128.5Q43 171 43 221Q43 283 64.5 336.5Q86 390 125 430Q164 470 217 492.5Q270 515 333 515Q385 515 426.5 497.5Q468 480 497.5 449Q527 418 542.5 375.5Q558 333 558 283Q558 222 536.5 168.5Q515 115 476.5 75Q438 35 384.5 12.5Q331 -10 268 -10ZM275 40Q324 40 365.5 59Q407 78 437.5 110.5Q468 143 485 187Q502 231 502 281Q502 322 490 356Q478 390 455 414Q432 438 399.5 451.5Q367 465 326 465Q278 465 236.5 446Q195 427 164.5 394Q134 361 116.5 317Q99 273 99 223Q99 183 111.5 149Q124 115 146.5 91Q169 67 202 53.5Q235 40 275 40ZM341 135Q327 121 309.5 115Q292 109 276 109Q249 109 229 119.5Q209 130 196 148Q183 166 177 189Q171 212 172 236Q173 268 183 297Q193 326 211 349Q229 372 254 385.5Q279 399 311 399Q353 399 369 375L387 399H413L401 299H366Q367 328 355 348Q343 368 316 368Q298 368 283.5 356Q269 344 259 324.5Q249 305 243.5 280.5Q238 256 237 232Q235 186 250.5 163.5Q266 141 292 141Q317 141 333.5 161Q350 181 356 212H391L380 109H353Z" glyph-name="copyright.old" horiz-adv-x="599" /><glyph d="M390 558Q452 558 503 539.5Q554 521 590.5 488.5Q627 456 647 410.5Q667 365 667 311Q667 241 641 182.5Q615 124 568.5 81.5Q522 39 459 15.5Q396 -8 321 -8Q259 -8 208 11Q157 30 121 63Q85 96 65 142Q45 188 45 242Q45 309 70 367Q95 425 141 467.5Q187 510 250.5 534Q314 558 390 558ZM384 509Q322 509 269.5 488Q217 467 179 431Q141 395 120 346.5Q99 298 99 243Q99 198 115 161Q131 124 161 97.5Q191 71 233 56Q275 41 326 41Q388 41 440.5 62Q493 83 531 119.5Q569 156 590.5 204.5Q612 253 612 308Q612 353 595.5 390Q579 427 549 453.5Q519 480 477 494.5Q435 509 384 509ZM409 143Q392 128 370 121.5Q348 115 328 115Q295 115 270 126.5Q245 138 228.5 157Q212 176 204 201Q196 226 196 253Q196 289 209 323Q222 357 244.5 382.5Q267 408 298.5 423.5Q330 439 367 439Q392 439 411 433Q430 427 441 413L462 439H494L481 327H437Q438 359 423.5 380.5Q409 402 374 402Q349 402 330.5 387.5Q312 373 300 349.5Q288 326 282 297.5Q276 269 276 242Q276 197 296 175.5Q316 154 348 154Q379 154 399 176Q419 198 427 230H471L458 115H425Z" glyph-name="copyright.sc" horiz-adv-x="704" /><glyph d="M288 -10Q236 -10 194.5 7.5Q153 25 124 55.5Q95 86 79 128.5Q63 171 63 221Q63 283 84.5 336.5Q106 390 145 430Q184 470 237 492.5Q290 515 353 515Q405 515 446.5 497.5Q488 480 517.5 449Q547 418 562.5 375.5Q578 333 578 283Q578 222 556.5 168.5Q535 115 496.5 75Q458 35 404.5 12.5Q351 -10 288 -10ZM295 40Q344 40 385.5 59Q427 78 457.5 110.5Q488 143 505 187Q522 231 522 281Q522 322 510 356Q498 390 475 414Q452 438 419.5 451.5Q387 465 346 465Q298 465 256.5 446Q215 427 184.5 394Q154 361 136.5 317Q119 273 119 223Q119 183 131.5 149Q144 115 166.5 91Q189 67 222 53.5Q255 40 295 40ZM361 135Q347 121 329.5 115Q312 109 296 109Q269 109 249 119.5Q229 130 216 148Q203 166 197 189Q191 212 192 236Q193 268 203 297Q213 326 231 349Q249 372 274 385.5Q299 399 331 399Q373 399 389 375L407 399H433L421 299H386Q387 328 375 348Q363 368 336 368Q318 368 303.5 356Q289 344 279 324.5Q269 305 263.5 280.5Q258 256 257 232Q255 186 270.5 163.5Q286 141 312 141Q337 141 353.5 161Q370 181 376 212H411L400 109H373Z" glyph-name="copyright.tln" horiz-adv-x="640" /><glyph d="M288 -10Q236 -10 194.5 7.5Q153 25 124 55.5Q95 86 79 128.5Q63 171 63 221Q63 283 84.5 336.5Q106 390 145 430Q184 470 237 492.5Q290 515 353 515Q405 515 446.5 497.5Q488 480 517.5 449Q547 418 562.5 375.5Q578 333 578 283Q578 222 556.5 168.5Q535 115 496.5 75Q458 35 404.5 12.5Q351 -10 288 -10ZM295 40Q344 40 385.5 59Q427 78 457.5 110.5Q488 143 505 187Q522 231 522 281Q522 322 510 356Q498 390 475 414Q452 438 419.5 451.5Q387 465 346 465Q298 465 256.5 446Q215 427 184.5 394Q154 361 136.5 317Q119 273 119 223Q119 183 131.5 149Q144 115 166.5 91Q189 67 222 53.5Q255 40 295 40ZM361 135Q347 121 329.5 115Q312 109 296 109Q269 109 249 119.5Q229 130 216 148Q203 166 197 189Q191 212 192 236Q193 268 203 297Q213 326 231 349Q249 372 274 385.5Q299 399 331 399Q373 399 389 375L407 399H433L421 299H386Q387 328 375 348Q363 368 336 368Q318 368 303.5 356Q289 344 279 324.5Q269 305 263.5 280.5Q258 256 257 232Q255 186 270.5 163.5Q286 141 312 141Q337 141 353.5 161Q370 181 376 212H411L400 109H373Z" glyph-name="copyright.ton" horiz-adv-x="640" /><glyph d="M358 150Q312 124 258 124Q206 124 170 152L84 78L39 130L124 205Q104 241 106 281Q108 346 145 394L80 468L132 517L199 442Q244 470 300 470Q327 470 349.5 462Q372 454 390 440L476 514L521 462L435 387Q454 350 452 312Q451 280 440.5 250.5Q430 221 412 197L476 126L423 77ZM292 402Q267 402 246.5 392Q226 382 211.5 366Q197 350 189 329Q181 308 181 285Q180 246 203.5 218.5Q227 191 265 191Q291 191 311 201Q331 211 345.5 227.5Q360 244 368 265Q376 286 376 308Q378 348 354 375Q330 402 292 402Z" glyph-name="currency" horiz-adv-x="545" unicode="&#164;" /><glyph d="M321 123Q301 113 279 107.5Q257 102 232 102Q209 102 189.5 108Q170 114 153 124L77 63L35 107L111 168Q93 197 95 233Q96 257 104 279.5Q112 302 128 320L68 380L116 423L178 361Q217 383 267 383Q290 383 310 377Q330 371 347 360L424 421L465 377L389 315Q397 300 401.5 284.5Q406 269 405 253Q404 227 395 204.5Q386 182 371 164L429 105L380 63ZM259 324Q214 324 189 297Q164 270 163 235Q162 204 183 182.5Q204 161 239 161Q283 161 308.5 187.5Q334 214 335 250Q336 281 314.5 302.5Q293 324 259 324Z" glyph-name="currency.sc" horiz-adv-x="500" /><glyph d="M405 150Q359 124 305 124Q253 124 217 152L131 78L86 130L171 205Q151 241 153 281Q155 346 192 394L127 468L179 517L246 442Q291 470 347 470Q374 470 396.5 462Q419 454 437 440L523 514L568 462L482 387Q501 350 499 312Q498 280 487.5 250.5Q477 221 459 197L523 126L470 77ZM339 402Q314 402 293.5 392Q273 382 258.5 366Q244 350 236 329Q228 308 228 285Q227 246 250.5 218.5Q274 191 312 191Q338 191 358 201Q378 211 392.5 227.5Q407 244 415 265Q423 286 423 308Q425 348 401 375Q377 402 339 402Z" glyph-name="currency.tln" horiz-adv-x="640" /><glyph d="M237 593Q204 593 176 599.5Q148 606 127.5 619.5Q107 633 95.5 654Q84 675 84 704Q84 733 101.5 757Q119 781 152 781Q178 781 191 766.5Q204 752 204 731Q204 709 192 693Q180 677 157 670Q167 654 190.5 648.5Q214 643 240 643Q264 643 287 650.5Q310 658 324 673Q307 678 299.5 691.5Q292 705 292 721Q292 748 308 764.5Q324 781 351 781Q375 781 390 766.5Q405 752 405 726Q405 695 392 670.5Q379 646 356.5 628.5Q334 611 303 602Q272 593 237 593Z" glyph-name="cyrbreve" horiz-adv-x="482" unicode="&#63188;" /><glyph d="M223 732Q190 732 162 737.5Q134 743 113.5 754.5Q93 766 81.5 783.5Q70 801 70 826Q70 853 87.5 874Q105 895 135 895Q160 895 173.5 881Q187 867 187 846Q187 828 176 813Q165 798 145 792Q157 781 178 776.5Q199 772 226 772Q252 772 273 777.5Q294 783 309 792Q295 797 286.5 809Q278 821 278 839Q278 864 294 879.5Q310 895 337 895Q361 895 376 881.5Q391 868 391 843Q391 817 378 796.5Q365 776 342.5 761.5Q320 747 289.5 739.5Q259 732 223 732Z" glyph-name="cyrbreve.cap" horiz-adv-x="421" /><glyph d="M453 -10Q412 -10 390 9Q368 28 360 60Q357 72 357 87Q341 48 307.5 19Q274 -10 216 -10Q178 -10 145.5 5Q113 20 89.5 48.5Q66 77 52.5 120Q39 163 39 218Q39 274 54 327.5Q69 381 97.5 422.5Q126 464 168.5 489.5Q211 515 265 515Q316 515 346 493Q376 471 389 435Q391 465 393 505Q395 545 400 582L414 694H334L341 749Q389 749 422 749.5Q455 750 476.5 751.5Q498 753 509.5 755Q521 757 526 760L539 750L460 99Q458 79 463.5 67Q469 55 483 55Q499 55 513 80Q527 105 535 157H586Q575 69 538.5 29.5Q502 -10 453 -10ZM278 458Q247 458 224.5 435.5Q202 413 187 375.5Q172 338 165 290Q158 242 158 191Q158 126 179.5 86.5Q201 47 243 47Q289 47 317.5 95.5Q346 144 359 228Q362 247 364 264Q383 458 278 458Z" glyph-name="d" horiz-adv-x="598" unicode="d" /><glyph d="M205 433Q145 433 112.5 466Q80 499 80 550Q80 582 90.5 609.5Q101 637 121.5 657Q142 677 171.5 689Q201 701 238 701Q298 701 330.5 668Q363 635 363 584Q363 553 352.5 525.5Q342 498 321.5 477.5Q301 457 272 445Q243 433 205 433ZM211 483Q252 483 278.5 511.5Q305 540 305 579Q305 610 285.5 630.5Q266 651 231 651Q190 651 164 622.5Q138 594 138 555Q138 524 157.5 503.5Q177 483 211 483Z" glyph-name="degree" horiz-adv-x="367" unicode="&#176;" /><glyph d="M342 433Q282 433 249.5 466Q217 499 217 550Q217 582 227.5 609.5Q238 637 258.5 657Q279 677 308.5 689Q338 701 375 701Q435 701 467.5 668Q500 635 500 584Q500 553 489.5 525.5Q479 498 458.5 477.5Q438 457 409 445Q380 433 342 433ZM348 483Q389 483 415.5 511.5Q442 540 442 579Q442 610 422.5 630.5Q403 651 368 651Q327 651 301 622.5Q275 594 275 555Q275 524 294.5 503.5Q314 483 348 483Z" glyph-name="degree.tln" horiz-adv-x="640" /><glyph d="M425 685Q425 653 404 631Q383 609 349 609Q316 609 302.5 628Q289 647 289 667Q289 699 310 720.5Q331 742 364 742Q398 742 411.5 723Q425 704 425 685ZM219 685Q219 653 198.5 631Q178 609 143 609Q111 609 97.5 628Q84 647 84 667Q84 699 104.5 720.5Q125 742 159 742Q192 742 205.5 723Q219 704 219 685Z" glyph-name="dieresis" horiz-adv-x="478" unicode="&#168;" /><glyph d="M394 812Q394 788 376 767Q358 746 326 746Q300 746 287 762.5Q274 779 274 799Q274 825 291.5 845Q309 865 341 865Q370 865 382 847.5Q394 830 394 812ZM207 812Q207 788 189 767Q171 746 139 746Q113 746 100 762.5Q87 779 87 799Q87 825 104.5 845Q122 865 153 865Q182 865 194.5 847.5Q207 830 207 812Z" glyph-name="dieresis.cap" horiz-adv-x="445" /><glyph d="M368 525Q368 494 346 472Q324 450 290 450Q261 450 244.5 467Q228 484 228 510Q228 542 249 564.5Q270 587 305 587Q334 587 351 570Q368 553 368 525ZM500 377 493 314H57L64 377ZM333 180Q333 149 311 127Q289 105 255 105Q226 105 209.5 122Q193 139 193 165Q193 197 214 219.5Q235 242 270 242Q299 242 316 225Q333 208 333 180Z" glyph-name="divide" horiz-adv-x="534" unicode="&#247;" /><glyph d="M354 435Q354 404 332 382Q310 360 276 360Q247 360 230.5 377Q214 394 214 420Q214 452 235 474.5Q256 497 291 497Q320 497 337 480Q354 463 354 435ZM486 287 479 224H43L50 287ZM319 90Q319 59 297 37Q275 15 241 15Q212 15 195.5 32Q179 49 179 75Q179 107 200 129.5Q221 152 256 152Q285 152 302 135Q319 118 319 90Z" glyph-name="divide.old" horiz-adv-x="526" /><glyph d="M326 421Q326 393 306 374.5Q286 356 256 356Q228 356 213 370.5Q198 385 198 407Q198 434 217 453.5Q236 473 268 473Q294 473 310 458.5Q326 444 326 421ZM445 303 438 248H48L55 303ZM298 144Q298 116 278.5 98Q259 80 228 80Q201 80 185.5 94Q170 108 170 130Q170 158 189 177Q208 196 240 196Q266 196 282 182Q298 168 298 144Z" glyph-name="divide.sc" horiz-adv-x="486" /><glyph d="M422 525Q422 494 400 472Q378 450 344 450Q315 450 298.5 467Q282 484 282 510Q282 542 303 564.5Q324 587 359 587Q388 587 405 570Q422 553 422 525ZM554 377 547 314H111L118 377ZM387 180Q387 149 365 127Q343 105 309 105Q280 105 263.5 122Q247 139 247 165Q247 197 268 219.5Q289 242 324 242Q353 242 370 225Q387 208 387 180Z" glyph-name="divide.tln" horiz-adv-x="640" /><glyph d="M410 435Q410 404 388 382Q366 360 332 360Q303 360 286.5 377Q270 394 270 420Q270 452 291 474.5Q312 497 347 497Q376 497 393 480Q410 463 410 435ZM542 287 535 224H99L106 287ZM375 90Q375 59 353 37Q331 15 297 15Q268 15 251.5 32Q235 49 235 75Q235 107 256 129.5Q277 152 312 152Q341 152 358 135Q375 118 375 90Z" glyph-name="divide.ton" horiz-adv-x="640" /><glyph d="M354 640Q341 640 330 639Q319 638 308 636L281 416Q293 410 307 404.5Q321 399 337 394L367 640ZM198 517Q198 493 207.5 475Q217 457 234 443L257 620Q229 603 213.5 576Q198 549 198 517ZM267 50Q275 50 281.5 50.5Q288 51 295 52L323 279Q311 284 297.5 289Q284 294 269 299L266 300L236 51Q244 50 251.5 50Q259 50 267 50ZM409 168Q409 193 401.5 217Q394 241 369 258L346 60Q376 74 392.5 102.5Q409 131 409 168ZM269 -10Q258 -10 248 -9.5Q238 -9 228 -8L216 -110H166L179 -1Q108 14 69 51Q30 88 30 135Q30 165 49.5 190Q69 215 106 215Q135 215 149.5 201Q164 187 164 164Q164 142 151.5 124Q139 106 119 98Q128 85 144.5 75Q161 65 187 59L219 315Q153 341 117.5 380.5Q82 420 82 488Q82 565 130.5 617.5Q179 670 264 690L278 802H328L315 698Q325 699 334.5 699.5Q344 700 354 700H374L387 802H437L424 695Q493 684 530.5 652Q568 620 568 572Q568 537 548 513.5Q528 490 492 490Q465 490 449.5 505Q434 520 434 543Q434 567 448 583.5Q462 600 480 608Q467 622 451 627Q435 632 417 636L385 377Q413 367 438.5 352.5Q464 338 483.5 317Q503 296 515 268Q527 240 527 202Q527 124 479.5 69Q432 14 338 -4L325 -110H275L287 -10Z" glyph-name="dollar" horiz-adv-x="580" unicode="$" /><glyph d="M299 460Q287 460 277.5 460Q268 460 259 458L240 311Q248 308 258 304.5Q268 301 279 297ZM176 379Q176 366 180.5 352Q185 338 199 330L212 444Q193 436 184.5 416.5Q176 397 176 379ZM267 203Q259 207 249.5 210Q240 213 229 217L208 45Q218 45 228.5 45Q239 45 248 46ZM339 127Q339 142 334 157Q329 172 311 183L297 57Q321 65 330 87.5Q339 110 339 127ZM241 -10Q228 -10 219 -10Q210 -10 201 -9L190 -100H143L155 -3Q91 9 59 38.5Q27 68 27 107Q27 136 44 158Q61 180 95 180Q123 180 136.5 165Q150 150 150 127Q150 110 141 95Q132 80 117 71Q125 63 136 59Q147 55 162 51L184 231Q126 251 97 279.5Q68 308 68 357Q68 417 108 456.5Q148 496 218 509L230 605H276L265 514Q273 515 285 515Q297 515 306 515L317 605H363L351 510Q415 500 446 472Q477 444 477 404Q477 373 460 351Q443 329 413 329Q384 329 368.5 343Q353 357 353 381Q353 401 362.5 416Q372 431 388 439Q383 444 372 449Q361 454 345 456L324 282Q377 265 412.5 236Q448 207 448 156Q448 122 435.5 95Q423 68 401.5 47.5Q380 27 351 13.5Q322 0 289 -6L277 -100H230Z" glyph-name="dollar.old" horiz-adv-x="507" /><glyph d="M252 337Q263 332 275 328Q287 324 301 319L323 503Q309 503 296 502.5Q283 502 272 500ZM177 411Q177 396 184.5 381Q192 366 206 356L221 486Q198 474 187.5 454Q177 434 177 411ZM288 216Q277 221 264.5 224.5Q252 228 239 232L216 48Q230 47 243 46.5Q256 46 268 48ZM366 134Q366 151 361.5 168Q357 185 334 197L315 54Q341 60 353.5 84.5Q366 109 366 134ZM199 -88H151L162 -1Q98 11 62.5 41Q27 71 27 106Q27 137 45.5 155.5Q64 174 95 174Q121 174 136 161.5Q151 149 151 129Q151 114 141.5 100.5Q132 87 115 81Q132 63 168 54L192 248Q132 271 100.5 300Q69 329 69 382Q69 446 111.5 489.5Q154 533 229 550L240 639H289L279 557Q292 558 304.5 558Q317 558 330 558L340 639H389L378 553Q440 544 474 517.5Q508 491 508 453Q508 424 491 405Q474 386 441 386Q416 386 400 398Q384 410 384 431Q384 447 395 460Q406 473 421 480Q403 494 372 499L348 304Q372 296 395 285.5Q418 275 436 259.5Q454 244 464.5 222.5Q475 201 475 171Q475 105 434 58Q393 11 310 -3L299 -88H251L261 -8Q248 -8 235 -8Q222 -8 209 -7Z" glyph-name="dollar.sc" horiz-adv-x="533" /><glyph d="M384 640Q371 640 360 639Q349 638 338 636L311 416Q323 410 337 404.5Q351 399 367 394L397 640ZM228 517Q228 493 237.5 475Q247 457 264 443L287 620Q259 603 243.5 576Q228 549 228 517ZM297 50Q305 50 311.5 50.5Q318 51 325 52L353 279Q341 284 327.5 289Q314 294 299 299L296 300L266 51Q274 50 281.5 50Q289 50 297 50ZM439 168Q439 193 431.5 217Q424 241 399 258L376 60Q406 74 422.5 102.5Q439 131 439 168ZM299 -10Q288 -10 278 -9.5Q268 -9 258 -8L246 -110H196L209 -1Q138 14 99 51Q60 88 60 135Q60 165 79.5 190Q99 215 136 215Q165 215 179.5 201Q194 187 194 164Q194 142 181.5 124Q169 106 149 98Q158 85 174.5 75Q191 65 217 59L249 315Q183 341 147.5 380.5Q112 420 112 488Q112 565 160.5 617.5Q209 670 294 690L308 802H358L345 698Q355 699 364.5 699.5Q374 700 384 700H404L417 802H467L454 695Q523 684 560.5 652Q598 620 598 572Q598 537 578 513.5Q558 490 522 490Q495 490 479.5 505Q464 520 464 543Q464 567 478 583.5Q492 600 510 608Q497 622 481 627Q465 632 447 636L415 377Q443 367 468.5 352.5Q494 338 513.5 317Q533 296 545 268Q557 240 557 202Q557 124 509.5 69Q462 14 368 -4L355 -110H305L317 -10Z" glyph-name="dollar.tln" horiz-adv-x="640" /><glyph d="M365 460Q353 460 343.5 460Q334 460 325 458L306 311Q314 308 324 304.5Q334 301 345 297ZM242 379Q242 366 246.5 352Q251 338 265 330L278 444Q259 436 250.5 416.5Q242 397 242 379ZM333 203Q325 207 315.5 210Q306 213 295 217L274 45Q284 45 294.5 45Q305 45 314 46ZM405 127Q405 142 400 157Q395 172 377 183L363 57Q387 65 396 87.5Q405 110 405 127ZM307 -10Q294 -10 285 -10Q276 -10 267 -9L256 -100H209L221 -3Q157 9 125 38.5Q93 68 93 107Q93 136 110 158Q127 180 161 180Q189 180 202.5 165Q216 150 216 127Q216 110 207 95Q198 80 183 71Q191 63 202 59Q213 55 228 51L250 231Q192 251 163 279.5Q134 308 134 357Q134 417 174 456.5Q214 496 284 509L296 605H342L331 514Q339 515 351 515Q363 515 372 515L383 605H429L417 510Q481 500 512 472Q543 444 543 404Q543 373 526 351Q509 329 479 329Q450 329 434.5 343Q419 357 419 381Q419 401 428.5 416Q438 431 454 439Q449 444 438 449Q427 454 411 456L390 282Q443 265 478.5 236Q514 207 514 156Q514 122 501.5 95Q489 68 467.5 47.5Q446 27 417 13.5Q388 0 355 -6L343 -100H296Z" glyph-name="dollar.ton" horiz-adv-x="640" /><glyph d="M149 608Q117 608 103 627Q89 646 89 666Q89 698 110 720Q131 742 164 742Q198 742 211.5 723Q225 704 225 684Q225 652 204 630Q183 608 149 608Z" glyph-name="dotaccent" horiz-adv-x="284" unicode="&#729;" /><glyph d="M214 816Q214 785 193.5 765.5Q173 746 144 746Q119 746 103 762Q87 778 87 801Q87 830 106.5 851Q126 872 158 872Q183 872 198.5 856.5Q214 841 214 816Z" glyph-name="dotaccent.cap" horiz-adv-x="266" /><glyph d="M187 -10Q129 -10 100 25Q71 60 79 126L118 449H40L47 504Q96 504 128.5 504.5Q161 505 182 506.5Q203 508 214 510Q225 512 230 515L243 505L194 100Q192 79 197.5 67Q203 55 217 55Q237 55 249.5 80Q262 105 270 157H321Q310 74 279 32Q248 -10 187 -10Z" glyph-name="dotlessi" horiz-adv-x="333" unicode="&#305;" /><glyph d="M242 -10Q193 -10 155 6Q117 22 91 51.5Q65 81 51.5 121.5Q38 162 38 210Q38 270 55 325Q72 380 105 422.5Q138 465 186.5 490Q235 515 297 515Q378 515 421 479.5Q464 444 464 385Q464 340 438 309Q412 278 369 258.5Q326 239 270 230Q214 221 155 221Q154 213 154 206Q154 199 154 191Q154 133 182 94Q210 55 267 55Q317 55 347.5 86.5Q378 118 393 163L443 147Q433 114 416.5 85.5Q400 57 375 35.5Q350 14 317 2Q284 -10 242 -10ZM291 461Q263 461 240 446Q217 431 200.5 405Q184 379 173.5 343.5Q163 308 159 267Q253 269 300.5 305Q348 341 348 396Q348 426 334.5 443.5Q321 461 291 461Z" glyph-name="e" horiz-adv-x="491" unicode="e" /><glyph d="M242 -10Q193 -10 155 6Q117 22 91 51.5Q65 81 51.5 121.5Q38 162 38 210Q38 270 55 325Q72 380 105 422.5Q138 465 186.5 490Q235 515 297 515Q378 515 421 479.5Q464 444 464 385Q464 340 438 309Q412 278 369 258.5Q326 239 270 230Q214 221 155 221Q154 213 154 206Q154 199 154 191Q154 133 182 94Q210 55 267 55Q317 55 347.5 86.5Q378 118 393 163L443 147Q433 114 416.5 85.5Q400 57 375 35.5Q350 14 317 2Q284 -10 242 -10ZM291 461Q263 461 240 446Q217 431 200.5 405Q184 379 173.5 343.5Q163 308 159 267Q253 269 300.5 305Q348 341 348 396Q348 426 334.5 443.5Q321 461 291 461ZM253 605 326 704Q357 746 380.5 758Q404 770 426 770Q451 770 461.5 759.5Q472 749 472 735Q472 729 470 721Q468 713 459 702.5Q450 692 430 678Q410 664 374 646L293 605Z" glyph-name="eacute" horiz-adv-x="491" unicode="&#233;" /><glyph d="M242 -10Q193 -10 155 6Q117 22 91 51.5Q65 81 51.5 121.5Q38 162 38 210Q38 270 55 325Q72 380 105 422.5Q138 465 186.5 490Q235 515 297 515Q378 515 421 479.5Q464 444 464 385Q464 340 438 309Q412 278 369 258.5Q326 239 270 230Q214 221 155 221Q154 213 154 206Q154 199 154 191Q154 133 182 94Q210 55 267 55Q317 55 347.5 86.5Q378 118 393 163L443 147Q433 114 416.5 85.5Q400 57 375 35.5Q350 14 317 2Q284 -10 242 -10ZM291 461Q263 461 240 446Q217 431 200.5 405Q184 379 173.5 343.5Q163 308 159 267Q253 269 300.5 305Q348 341 348 396Q348 426 334.5 443.5Q321 461 291 461ZM126 605 304 777H335L464 605H412L308 687L178 605Z" glyph-name="ecircumflex" horiz-adv-x="491" unicode="&#234;" /><glyph d="M242 -10Q193 -10 155 6Q117 22 91 51.5Q65 81 51.5 121.5Q38 162 38 210Q38 270 55 325Q72 380 105 422.5Q138 465 186.5 490Q235 515 297 515Q378 515 421 479.5Q464 444 464 385Q464 340 438 309Q412 278 369 258.5Q326 239 270 230Q214 221 155 221Q154 213 154 206Q154 199 154 191Q154 133 182 94Q210 55 267 55Q317 55 347.5 86.5Q378 118 393 163L443 147Q433 114 416.5 85.5Q400 57 375 35.5Q350 14 317 2Q284 -10 242 -10ZM291 461Q263 461 240 446Q217 431 200.5 405Q184 379 173.5 343.5Q163 308 159 267Q253 269 300.5 305Q348 341 348 396Q348 426 334.5 443.5Q321 461 291 461ZM481 684Q481 652 460 630Q439 608 405 608Q372 608 358.5 627Q345 646 345 666Q345 698 366 719.5Q387 741 420 741Q454 741 467.5 722Q481 703 481 684ZM275 684Q275 652 254.5 630Q234 608 199 608Q167 608 153.5 627Q140 646 140 666Q140 698 160.5 719.5Q181 741 215 741Q248 741 261.5 722Q275 703 275 684Z" glyph-name="edieresis" horiz-adv-x="491" unicode="&#235;" /><glyph d="M242 -10Q193 -10 155 6Q117 22 91 51.5Q65 81 51.5 121.5Q38 162 38 210Q38 270 55 325Q72 380 105 422.5Q138 465 186.5 490Q235 515 297 515Q378 515 421 479.5Q464 444 464 385Q464 340 438 309Q412 278 369 258.5Q326 239 270 230Q214 221 155 221Q154 213 154 206Q154 199 154 191Q154 133 182 94Q210 55 267 55Q317 55 347.5 86.5Q378 118 393 163L443 147Q433 114 416.5 85.5Q400 57 375 35.5Q350 14 317 2Q284 -10 242 -10ZM291 461Q263 461 240 446Q217 431 200.5 405Q184 379 173.5 343.5Q163 308 159 267Q253 269 300.5 305Q348 341 348 396Q348 426 334.5 443.5Q321 461 291 461ZM234 646Q207 662 192 673.5Q177 685 169 694Q161 703 159 710.5Q157 718 157 725Q157 745 172 757.5Q187 770 213 770Q236 770 255.5 758.5Q275 747 294 709L345 605H305Z" glyph-name="egrave" horiz-adv-x="491" unicode="&#232;" /><glyph d="M556 210Q556 171 538.5 131.5Q521 92 485.5 60.5Q450 29 397 9.5Q344 -10 272 -10Q212 -10 168 4.5Q124 19 95 43.5Q66 68 51.5 99.5Q37 131 37 165Q37 199 47.5 231Q58 263 81 290Q104 317 142 337.5Q180 358 234 370Q166 393 136 428.5Q106 464 106 508Q106 546 123.5 580.5Q141 615 173.5 641.5Q206 668 252.5 684Q299 700 358 700Q406 700 445.5 688Q485 676 512.5 655Q540 634 555.5 606Q571 578 571 545Q571 491 531 443.5Q491 396 407 370Q488 349 522 307Q556 265 556 210ZM231 497Q231 450 254.5 420.5Q278 391 327 391Q353 391 374.5 403.5Q396 416 411.5 437.5Q427 459 435.5 487.5Q444 516 444 548Q444 590 422 618.5Q400 647 352 647Q322 647 299.5 633.5Q277 620 261.5 598.5Q246 577 238.5 550.5Q231 524 231 497ZM163 162Q163 105 194 74Q225 43 278 43Q317 43 345.5 58Q374 73 392.5 97.5Q411 122 420 153Q429 184 429 216Q429 274 402 306.5Q375 339 315 339Q279 339 251 324.5Q223 310 203.5 286Q184 262 173.5 230Q163 198 163 162Z" glyph-name="eight" horiz-adv-x="607" unicode="8" /><glyph d="M184 -157Q137 -157 103 -146.5Q69 -136 47.5 -118Q26 -100 17 -77Q8 -54 11 -29Q16 13 47 42.5Q78 72 150 89Q95 105 74 132Q53 159 57 194Q60 218 74.5 238.5Q89 259 113 274.5Q137 290 169.5 298.5Q202 307 240 307Q317 307 360 274.5Q403 242 398 194Q394 159 366 131.5Q338 104 282 89Q346 73 369 43Q392 13 387 -29Q384 -54 369.5 -77Q355 -100 329.5 -118Q304 -136 267.5 -146.5Q231 -157 184 -157ZM217 109Q247 109 267.5 131Q288 153 293 190Q297 222 282 242.5Q267 263 235 263Q203 263 183.5 242Q164 221 159 190Q154 153 169.5 131Q185 109 217 109ZM189 -113Q225 -113 252 -89.5Q279 -66 284 -21Q289 21 268 44Q247 67 211 67Q176 67 149.5 44Q123 21 118 -22Q113 -66 133 -89.5Q153 -113 189 -113Z" glyph-name="eight.inferior" horiz-adv-x="445" /><glyph d="M262 -10Q202 -10 159 4.5Q116 19 88.5 43.5Q61 68 48 100Q35 132 35 167Q35 200 46 231.5Q57 263 80 289.5Q103 316 140 336Q177 356 228 367Q159 385 131.5 423.5Q104 462 104 510Q104 547 121.5 581.5Q139 616 171.5 642Q204 668 249 684Q294 700 348 700Q396 700 434 688Q472 676 497.5 655Q523 634 536.5 605.5Q550 577 550 544Q550 517 541.5 490Q533 463 514.5 439Q496 415 467 396.5Q438 378 397 367Q437 357 464 341.5Q491 326 507 305.5Q523 285 529.5 261.5Q536 238 536 211Q536 172 519 133Q502 94 468 62Q434 30 382.5 10Q331 -10 262 -10ZM310 390Q336 390 357.5 402Q379 414 395 435Q411 456 420 484Q429 512 429 544Q429 589 407 620Q385 651 342 651Q315 651 293 637.5Q271 624 256 603Q241 582 233 555.5Q225 529 225 502Q225 451 246.5 420.5Q268 390 310 390ZM268 39Q303 39 330 52.5Q357 66 376 89Q395 112 404.5 144Q414 176 414 213Q414 341 305 341Q273 341 246 329Q219 317 199 294Q179 271 168 238Q157 205 157 164Q157 106 186.5 72.5Q216 39 268 39Z" glyph-name="eight.old" horiz-adv-x="585" /><glyph d="M501 168Q501 134 485.5 102.5Q470 71 438.5 46.5Q407 22 359 7Q311 -8 246 -8Q191 -8 150.5 3.5Q110 15 83 34.5Q56 54 43 79Q30 104 30 132Q30 161 39 186Q48 211 68.5 232Q89 253 122.5 268.5Q156 284 205 294Q142 312 114.5 339.5Q87 367 87 405Q87 436 102.5 463.5Q118 491 147 512Q176 533 218.5 545.5Q261 558 315 558Q359 558 395.5 548.5Q432 539 457.5 522.5Q483 506 497 483.5Q511 461 511 434Q511 389 475.5 351.5Q440 314 365 294Q438 277 469.5 244.5Q501 212 501 168ZM206 394Q206 358 227 336Q248 314 290 314Q313 314 331 324Q349 334 362.5 350.5Q376 367 383 389Q390 411 390 435Q390 467 370 488.5Q350 510 308 510Q283 510 263.5 499.5Q244 489 231.5 472.5Q219 456 212.5 435Q206 414 206 394ZM151 129Q151 87 178.5 63.5Q206 40 251 40Q285 40 309.5 51Q334 62 349.5 80.5Q365 99 372.5 123.5Q380 148 380 175Q380 219 355.5 243.5Q331 268 280 268Q249 268 225 257Q201 246 184.5 227Q168 208 159.5 182.5Q151 157 151 129Z" glyph-name="eight.sc" horiz-adv-x="554" /><glyph d="M264 431Q217 431 183 441.5Q149 452 127.5 470Q106 488 97 511Q88 534 91 559Q96 601 127 630.5Q158 660 230 677Q175 693 154 720Q133 747 137 782Q140 806 154.5 826.5Q169 847 193 862.5Q217 878 249.5 886.5Q282 895 320 895Q397 895 440 862.5Q483 830 478 782Q474 747 446 719.5Q418 692 362 677Q426 661 449 631Q472 601 467 559Q464 534 449.5 511Q435 488 409.5 470Q384 452 347.5 441.5Q311 431 264 431ZM297 697Q327 697 347.5 719Q368 741 373 778Q377 810 362 830.5Q347 851 315 851Q283 851 263.5 830Q244 809 239 778Q234 741 249.5 719Q265 697 297 697ZM269 475Q305 475 332 498.5Q359 522 364 567Q369 609 348 632Q327 655 291 655Q256 655 229.5 632Q203 609 198 566Q193 522 213 498.5Q233 475 269 475Z" glyph-name="eight.superior" horiz-adv-x="476" /><glyph d="M568 206Q567 167 549.5 128.5Q532 90 497.5 59.5Q463 29 411 9.5Q359 -10 289 -10Q229 -10 185 5Q141 20 112.5 44.5Q84 69 70 101.5Q56 134 57 169Q58 203 68.5 234Q79 265 102.5 291.5Q126 318 163 338Q200 358 254 370Q185 393 155 429.5Q125 466 126 512Q127 549 144.5 583Q162 617 194.5 643Q227 669 272.5 684.5Q318 700 375 700Q423 700 461.5 687.5Q500 675 527.5 654Q555 633 569.5 604Q584 575 583 542Q581 489 541.5 442Q502 395 420 370Q503 349 536 305.5Q569 262 568 206ZM250 503Q248 454 271 422.5Q294 391 343 391Q369 391 390 403Q411 415 426 435.5Q441 456 449.5 484Q458 512 458 544Q459 588 437.5 617.5Q416 647 368 647Q339 647 317.5 634.5Q296 622 281 601.5Q266 581 258.5 555Q251 529 250 503ZM182 167Q180 108 210.5 75.5Q241 43 295 43Q333 43 360.5 57Q388 71 406 94Q424 117 433.5 147Q443 177 443 209Q445 270 418 304.5Q391 339 331 339Q296 339 268.5 325.5Q241 312 222 288.5Q203 265 193 234Q183 203 182 167Z" glyph-name="eight.tln" horiz-adv-x="640" /><glyph d="M289 -10Q230 -10 187.5 4.5Q145 19 117.5 43.5Q90 68 77.5 100Q65 132 66 167Q67 200 78 231.5Q89 263 112 289.5Q135 316 171.5 336Q208 356 259 367Q190 385 162 424.5Q134 464 135 510Q136 547 153.5 581.5Q171 616 202.5 642Q234 668 278 684Q322 700 375 700Q423 700 460 688Q497 676 522.5 655Q548 634 561.5 605.5Q575 577 574 544Q573 517 564.5 490Q556 463 538 439Q520 415 491 396.5Q462 378 421 367Q501 347 531.5 305.5Q562 264 560 211Q559 172 542 133Q525 94 491.5 62Q458 30 407.5 10Q357 -10 289 -10ZM338 390Q363 390 384 402.5Q405 415 420.5 436Q436 457 445 485Q454 513 454 544Q455 589 433.5 620Q412 651 370 651Q343 651 321.5 637.5Q300 624 285 603Q270 582 262 555.5Q254 529 254 502Q253 452 274.5 421Q296 390 338 390ZM295 39Q330 39 356.5 52.5Q383 66 401.5 89.5Q420 113 430 144.5Q440 176 440 213Q442 277 414 309Q386 341 332 341Q269 341 228.5 294Q188 247 187 164Q185 106 214.5 72.5Q244 39 295 39Z" glyph-name="eight.ton" horiz-adv-x="640" /><glyph d="M91 460H487L479 397H83ZM71 300H467L460 237H64Z" glyph-name="equal" horiz-adv-x="528" unicode="=" /><glyph d="M80 380H476L468 317H72ZM60 220H456L449 157H53Z" glyph-name="equal.old" horiz-adv-x="523" /><glyph d="M79 369H432L425 314H72ZM63 241H416L410 187H57Z" glyph-name="equal.sc" horiz-adv-x="482" /><glyph d="M147 460H543L535 397H139ZM127 300H523L516 237H120Z" glyph-name="equal.tln" horiz-adv-x="640" /><glyph d="M138 380H534L526 317H130ZM118 220H514L507 157H111Z" glyph-name="equal.ton" horiz-adv-x="640" /><glyph d="M246 -10Q198 -10 160 7Q122 24 95 54Q68 84 54 126Q40 168 40 218Q40 279 57 333Q74 387 106.5 427.5Q139 468 187 491.5Q235 515 297 515Q324 515 345 508Q366 501 381 493Q373 530 360 562.5Q347 595 324 622L250 566H169L289 657Q243 697 176 710L183 760Q231 755 271.5 739.5Q312 724 347 701L424 758H504L387 670Q449 611 480 528Q511 445 511 356Q511 270 493 202Q475 134 440.5 87Q406 40 357 15Q308 -10 246 -10ZM251 45Q289 45 316 73Q343 101 360 147.5Q377 194 385 255Q393 316 393 382Q393 391 392.5 400.5Q392 410 391 420Q377 436 355 448Q333 460 304 460Q266 460 238.5 438.5Q211 417 193.5 381.5Q176 346 167.5 299.5Q159 253 159 203Q159 172 164.5 143Q170 114 181.5 92.5Q193 71 210 58Q227 45 251 45Z" glyph-name="eth" horiz-adv-x="553" unicode="&#240;" /><glyph d="M115 198Q126 287 124.5 352Q123 417 118.5 466Q114 515 109.5 551.5Q105 588 109 619Q114 656 139 678.5Q164 701 198 701Q236 701 255 679Q274 657 269 619Q265 588 252 551Q239 514 222.5 465Q206 416 189.5 351Q173 286 162 198ZM192 65Q192 34 170 12Q148 -10 114 -10Q85 -10 68.5 7Q52 24 52 50Q52 82 73 104.5Q94 127 129 127Q158 127 175 110Q192 93 192 65Z" glyph-name="exclam" horiz-adv-x="289" unicode="!" /><glyph d="M111 160Q120 230 117 279Q114 328 108 364Q102 400 96.5 428Q91 456 94 484Q98 520 123 539.5Q148 559 180 559Q215 559 234 540Q253 521 248 484Q244 456 232.5 427.5Q221 399 206.5 362.5Q192 326 178 277.5Q164 229 155 160ZM185 57Q185 29 165 10.5Q145 -8 114 -8Q86 -8 71 6.5Q56 21 56 44Q56 70 75 89.5Q94 109 126 109Q152 109 168.5 94.5Q185 80 185 57Z" glyph-name="exclam.sc" horiz-adv-x="287" /><glyph d="M291 198Q302 287 300.5 352Q299 417 294.5 466Q290 515 285.5 551.5Q281 588 285 619Q290 656 315 678.5Q340 701 374 701Q412 701 431 679Q450 657 445 619Q441 588 428 551Q415 514 398.5 465Q382 416 365.5 351Q349 286 338 198ZM368 65Q368 34 346 12Q324 -10 290 -10Q261 -10 244.5 7Q228 24 228 50Q228 82 249 104.5Q270 127 305 127Q334 127 351 110Q368 93 368 65Z" glyph-name="exclam.tln" horiz-adv-x="640" /><glyph d="M169 307Q159 219 160 153.5Q161 88 165.5 39Q170 -10 174.5 -46.5Q179 -83 175 -114Q170 -151 145 -173.5Q120 -196 86 -196Q48 -196 29 -174Q10 -152 15 -114Q19 -83 32 -46Q45 -9 61.5 40Q78 89 94.5 154Q111 219 122 307ZM92 440Q92 471 114 493Q136 515 170 515Q199 515 215.5 498Q232 481 232 455Q232 423 211 400.5Q190 378 155 378Q126 378 109 395Q92 412 92 440Z" glyph-name="exclamdown" horiz-adv-x="276" unicode="&#161;" /><glyph d="M206 492Q196 404 197 338.5Q198 273 202.5 224Q207 175 211.5 138.5Q216 102 212 71Q207 34 182 11.5Q157 -11 123 -11Q85 -11 66 11Q47 33 52 71Q56 102 69 139Q82 176 98.5 225Q115 274 131.5 339Q148 404 159 492ZM129 625Q129 656 151 678Q173 700 207 700Q236 700 252.5 683Q269 666 269 640Q269 608 248 585.5Q227 563 192 563Q163 563 146 580Q129 597 129 625Z" glyph-name="exclamdown.cap" horiz-adv-x="305" /><glyph d="M109 494Q109 521 128.5 540Q148 559 180 559Q207 559 222.5 544.5Q238 530 238 508Q238 480 219 461Q200 442 168 442Q142 442 125.5 456Q109 470 109 494ZM183 390Q174 321 176.5 272Q179 223 185 187Q191 151 196.5 123Q202 95 199 67Q195 30 170 11.5Q145 -7 114 -7Q79 -7 59.5 11.5Q40 30 45 67Q49 96 61 124.5Q73 153 87.5 189Q102 225 116 273Q130 321 139 390Z" glyph-name="exclamdown.sc" horiz-adv-x="287" /><glyph d="M351 307Q341 219 342 153.5Q343 88 347.5 39Q352 -10 356.5 -46.5Q361 -83 357 -114Q352 -151 327 -173.5Q302 -196 268 -196Q230 -196 211 -174Q192 -152 197 -114Q201 -83 214 -46Q227 -9 243.5 40Q260 89 276.5 154Q293 219 304 307ZM274 440Q274 471 296 493Q318 515 352 515Q381 515 397.5 498Q414 481 414 455Q414 423 393 400.5Q372 378 337 378Q308 378 291 395Q274 412 274 440Z" glyph-name="exclamdown.tln" horiz-adv-x="640" /><glyph d="M-35 -260Q-89 -260 -126 -237.5Q-163 -215 -163 -170Q-163 -144 -146 -124.5Q-129 -105 -98 -105Q-71 -105 -56.5 -120Q-42 -135 -42 -159Q-42 -174 -48 -186.5Q-54 -199 -64 -208Q-52 -211 -39 -211Q9 -211 30.5 -171Q52 -131 60 -65L124 449H39L47 504H130L137 547Q146 607 169 649Q192 691 223 717.5Q254 744 291.5 756Q329 768 366 768Q420 768 456.5 746Q493 724 493 679Q493 653 477 633Q461 613 429 613Q403 613 387.5 628Q372 643 372 666Q372 679 377.5 692.5Q383 706 397 717Q385 720 370 720Q325 720 296 686Q267 652 257 574L248 504H358L352 449H242L186 -6Q171 -125 118.5 -192.5Q66 -260 -35 -260Z" glyph-name="f" horiz-adv-x="337" unicode="f" /><glyph d="M123 449H39L47 504H139Q126 507 110.5 515.5Q95 524 82 537.5Q69 551 60.5 571Q52 591 52 616Q52 649 66.5 676Q81 703 106 721.5Q131 740 166 750Q201 760 241 760Q316 760 356.5 734Q397 708 397 664Q397 635 381 614.5Q365 594 331 594Q304 594 288.5 608Q273 622 273 645Q273 662 282.5 675Q292 688 304 694Q292 702 276 704.5Q260 707 238 707Q182 707 151 679.5Q120 652 120 616Q120 562 182 533Q244 504 359 504L353 449H242L186 -6Q169 -139 116 -199.5Q63 -260 -35 -260Q-96 -260 -129.5 -234Q-163 -208 -163 -166Q-163 -140 -146 -119.5Q-129 -99 -95 -99Q-69 -99 -55.5 -113.5Q-42 -128 -42 -151Q-42 -166 -49.5 -179.5Q-57 -193 -74 -199Q-60 -206 -38 -206Q9 -205 30 -167.5Q51 -130 58 -70Z" glyph-name="f.alt" horiz-adv-x="337" /><glyph d="M647 450Q623 450 603.5 437Q584 424 569.5 401.5Q555 379 545 349Q535 319 529 284Q526 265 524 244.5Q522 224 523 205Q523 173 528 145.5Q533 118 544.5 98Q556 78 574 66.5Q592 55 617 55Q650 55 674 77Q698 99 713 134.5Q728 170 735 214Q742 258 741 301Q741 370 718 410Q695 450 647 450ZM-35 -260Q-92 -260 -127.5 -237Q-163 -214 -163 -168Q-163 -145 -146 -124.5Q-129 -104 -95 -104Q-69 -104 -55.5 -118Q-42 -132 -42 -155Q-42 -169 -47.5 -183Q-53 -197 -65 -206Q-53 -209 -39 -209Q9 -209 30 -171Q51 -133 58 -70L123 449H39L47 504H130L132 517Q142 589 166 637.5Q190 686 222 715Q254 744 292 756.5Q330 769 368 769Q410 769 442 761Q474 753 502 739Q508 739 516 743.5Q524 748 531.5 753Q539 758 544.5 763Q550 768 551 768L583 766L563 587Q558 544 550.5 499Q543 454 538 428Q564 474 602.5 494.5Q641 515 685 515Q724 515 756.5 498Q789 481 812 451.5Q835 422 847.5 382Q860 342 861 295Q862 235 846.5 180Q831 125 802 82.5Q773 40 732 15Q691 -10 640 -10Q589 -10 554 13.5Q519 37 497 79L434 -2H380L456 695Q443 707 424.5 713.5Q406 720 380 720Q351 720 330 708.5Q309 697 294.5 677Q280 657 271 629.5Q262 602 257 569L248 504H361L355 449H242L185 -6Q168 -138 113.5 -199Q59 -260 -35 -260Z" glyph-name="f_b" horiz-adv-x="899" /><glyph d="M628 458Q597 458 574.5 435.5Q552 413 537 376.5Q522 340 515 295Q508 250 508 205Q508 171 513 142Q518 113 529 92Q540 71 556.5 59Q573 47 597 47Q629 47 652 70Q675 93 689.5 130Q704 167 711 212Q718 257 718 301Q718 373 696 415.5Q674 458 628 458ZM39 449 47 504H139Q126 507 110 515Q94 523 80.5 536Q67 549 58.5 568Q50 587 50 612Q52 686 121.5 723Q191 760 309 760Q346 760 374 758Q402 756 423 753.5Q444 751 460 749Q476 747 489 747Q512 747 526 749.5Q540 752 552 760L566 750L548 587Q542 544 535 499Q528 454 523 428Q549 474 586 494.5Q623 515 666 515Q704 515 735.5 498Q767 481 789.5 451.5Q812 422 824.5 382Q837 342 837 295Q837 234 822 178.5Q807 123 779 81Q751 39 711 14.5Q671 -10 621 -10Q571 -10 537 13.5Q503 37 482 79L419 -2H364L441 695Q428 697 394.5 702.5Q361 708 309 708Q226 708 173 682.5Q120 657 119 610Q117 560 178 532Q239 504 359 504L353 449H242L186 -6Q170 -140 114.5 -200Q59 -260 -35 -260Q-59 -260 -82 -254.5Q-105 -249 -123 -238Q-141 -227 -152 -210.5Q-163 -194 -163 -172Q-163 -145 -146 -124Q-129 -103 -95 -103Q-69 -103 -55.5 -117Q-42 -131 -42 -154Q-42 -170 -49 -184Q-56 -198 -72 -204Q-60 -209 -38 -209Q9 -209 30 -170.5Q51 -132 58 -70L123 449Z" glyph-name="f_b.alt" horiz-adv-x="876" /><glyph d="M15 0 22 51H87L142 499H77L83 550H532L511 381H449L451 400Q455 433 449.5 452.5Q444 472 430 482.5Q416 493 392 496Q368 499 334 499H259L236 303H348L356 365H410L388 193H335L342 253H229L204 51H301L294 0ZM535 51H600L655 499H590L596 550H851Q898 550 936.5 542Q975 534 1002.5 519Q1030 504 1045.5 481.5Q1061 459 1061 429Q1061 399 1048 374.5Q1035 350 1012.5 332Q990 314 960.5 302.5Q931 291 899 287Q929 284 958 275Q987 266 1009 251Q1031 236 1044.5 214.5Q1058 193 1058 164Q1058 86 993.5 43Q929 0 799 0H528ZM773 500 749 304H802Q873 304 906.5 335Q940 366 940 417Q940 455 912.5 477.5Q885 500 827 500ZM743 259 717 50H792Q867 50 902 80Q937 110 937 165Q937 213 903 236Q869 259 812 259Z" glyph-name="f_b.alt.sc" horiz-adv-x="1105" /><glyph d="M15 0 22 51H87L142 499H77L83 550H532L511 381H449L451 400Q455 431 450 450.5Q445 470 430.5 480.5Q416 491 392 495Q368 499 334 499H259L236 303L392 312L383 245L229 254L204 51H301L294 0ZM525 51H590L645 499H580L586 550H841Q888 550 926.5 542Q965 534 992.5 519Q1020 504 1035.5 481.5Q1051 459 1051 429Q1051 399 1038 374.5Q1025 350 1002.5 332Q980 314 950.5 302.5Q921 291 889 287Q919 284 948 275Q977 266 999 251Q1021 236 1034.5 214.5Q1048 193 1048 164Q1048 86 983.5 43Q919 0 789 0H518ZM763 500 739 304H792Q863 304 896.5 335Q930 366 930 417Q930 455 902.5 477.5Q875 500 817 500ZM733 259 707 50H782Q857 50 892 80Q927 110 927 165Q927 213 893 236Q859 259 802 259Z" glyph-name="f_b.sc" horiz-adv-x="1095" /><glyph d="M441 525Q446 563 457 594.5Q468 626 482 651Q456 689 380 689Q327 689 296 656Q265 623 254 542L248 504H438ZM259 -151Q290 -151 310.5 -141Q331 -131 344 -112.5Q357 -94 364 -68Q371 -42 375 -10L431 449H242L185 -6Q181 -35 175.5 -61.5Q170 -88 162 -111Q183 -131 205 -141Q227 -151 259 -151ZM-35 -260Q-91 -260 -126 -237.5Q-161 -215 -163 -169Q-161 -146 -144 -125.5Q-127 -105 -95 -105Q-68 -105 -54 -119Q-40 -133 -42 -156Q-41 -170 -46.5 -184.5Q-52 -199 -63 -208Q-53 -211 -37 -211Q10 -211 30.5 -171.5Q51 -132 58 -70L122 449H39L47 504H129L132 528Q140 591 164 632Q188 673 221 697Q254 721 292.5 730.5Q331 740 369 740Q414 740 450.5 729.5Q487 719 513 694Q548 735 591 751.5Q634 768 676 768Q701 768 724 763Q747 758 765 747.5Q783 737 793.5 721Q804 705 804 684Q804 655 787 634Q770 613 737 613Q711 613 697 627Q683 641 683 664Q683 678 689 692Q695 706 712 716Q701 718 692.5 718.5Q684 719 680 719Q633 719 604 685.5Q575 652 565 574L556 504H669L663 449H550L501 56Q486 -68 434 -136Q382 -204 279 -204Q230 -204 196 -192Q162 -180 137 -161Q108 -214 65 -237Q22 -260 -35 -260Z" glyph-name="f_f" horiz-adv-x="647" unicode="&#64256;" /><glyph d="M433 504Q419 507 402.5 515.5Q386 524 372.5 538Q359 552 350 572Q341 592 341 617Q341 631 344.5 645.5Q348 660 353 672Q339 680 317.5 684.5Q296 689 265 689Q207 689 171.5 665Q136 641 135 604Q134 556 187.5 530Q241 504 359 504ZM250 -141Q306 -141 330 -102Q354 -63 362 -1L417 449H242L186 -6Q181 -38 176 -65.5Q171 -93 161 -117Q200 -141 250 -141ZM-35 -260Q-92 -260 -127.5 -236.5Q-163 -213 -163 -167Q-163 -144 -146 -123.5Q-129 -103 -95 -103Q-69 -103 -55.5 -117Q-42 -131 -42 -154Q-42 -168 -48 -182.5Q-54 -197 -65 -206Q-53 -209 -39 -209Q9 -209 30 -170.5Q51 -132 58 -70L123 449H39L47 504H139Q128 507 115 514.5Q102 522 91 534.5Q80 547 73 565Q66 583 67 606Q67 638 82 663Q97 688 123.5 705.5Q150 723 186.5 732.5Q223 742 267 742Q345 742 389 717Q415 740 451 750Q487 760 532 760Q605 760 648 734Q691 708 691 664Q691 635 674.5 614.5Q658 594 626 594Q601 594 584 608Q567 622 567 645Q567 661 574.5 673.5Q582 686 599 693Q572 707 528 707Q471 707 440 679.5Q409 652 409 616Q409 562 472 533Q535 504 653 504L647 449H536L485 34Q479 -17 462.5 -59Q446 -101 419.5 -131Q393 -161 355 -178Q317 -195 267 -195Q230 -195 198 -187Q166 -179 137 -165Q108 -211 64.5 -235.5Q21 -260 -35 -260Z" glyph-name="f_f.alt" horiz-adv-x="632" /><glyph d="M15 0 22 51H87L142 499H77L83 550H532L511 381H449L451 400Q455 433 449.5 452.5Q444 472 430 482.5Q416 493 392 496Q368 499 334 499H259L236 303H348L356 365H410L388 193H335L342 253H229L204 51H301L294 0ZM528 0 535 51H600L655 499H590L596 550H1045L1024 381H962L964 400Q968 433 962.5 452.5Q957 472 943 482.5Q929 493 905 496Q881 499 847 499H772L749 303H861L869 365H923L901 193H848L855 253H742L717 51H814L807 0Z" glyph-name="f_f.alt.sc" horiz-adv-x="1034" /><glyph d="M15 0 22 51H87L142 499H77L83 550H532L511 381H449L451 400Q455 431 450 450.5Q445 470 430.5 480.5Q416 491 392 495Q368 499 334 499H259L236 303L392 312L383 245L229 254L204 51H301L294 0ZM518 0 525 51H590L645 499H580L586 550H1035L1014 381H952L954 400Q958 431 953 450.5Q948 470 933.5 480.5Q919 491 895 495Q871 499 837 499H762L739 303L895 312L886 245L732 254L707 51H804L797 0Z" glyph-name="f_f.sc" horiz-adv-x="1023" /><glyph d="M442 528Q447 566 458 597.5Q469 629 484 654Q466 671 441 680Q416 689 380 689Q329 689 298 656Q267 623 256 542L250 504H438ZM260 -151Q291 -151 311.5 -141Q332 -131 345 -112.5Q358 -94 365 -68Q372 -42 376 -10L432 449H245L187 -6Q180 -64 161 -114Q178 -129 202.5 -140Q227 -151 260 -151ZM-35 -260Q-92 -260 -127.5 -236.5Q-163 -213 -163 -167Q-163 -144 -147 -123.5Q-131 -103 -97 -103Q-71 -103 -56.5 -117Q-42 -131 -42 -154Q-42 -168 -48 -182.5Q-54 -197 -65 -206Q-53 -209 -39 -209Q6 -209 28.5 -170Q51 -131 59 -68L122 449H39L47 504H129L133 535Q141 594 164.5 633.5Q188 673 221.5 696.5Q255 720 294 730Q333 740 370 740Q462 740 516 695Q554 735 603.5 751.5Q653 768 702 768Q727 768 755 763Q783 758 806.5 746Q830 734 845.5 715Q861 696 861 669Q861 643 846.5 622Q832 601 795 601Q767 601 749 617.5Q731 634 731 658Q731 674 738 687.5Q745 701 761 709Q740 719 707 719Q651 719 613 684.5Q575 650 564 564L557 504H653Q703 504 736 504.5Q769 505 790.5 506.5Q812 508 823 510Q834 512 839 515L853 505L804 100Q802 79 807 67Q812 55 826 55Q850 55 860.5 80Q871 105 879 157H930Q919 69 886 29.5Q853 -10 796 -10Q738 -10 708.5 25Q679 60 687 126L727 449H550L502 56Q486 -68 434.5 -136Q383 -204 280 -204Q228 -204 193 -191Q158 -178 137 -163Q108 -210 65 -235Q22 -260 -35 -260Z" glyph-name="f_f_i" horiz-adv-x="942" unicode="&#64259;" /><glyph d="M435 504Q422 507 407 515Q392 523 379 536.5Q366 550 357.5 568.5Q349 587 349 611Q349 626 353.5 641Q358 656 364 669Q346 680 323 684.5Q300 689 265 689Q207 689 171.5 665Q136 641 135 604Q134 556 187.5 530Q241 504 359 504ZM250 -141Q306 -141 330 -106Q354 -71 362 -1L417 449H242L186 -6Q182 -38 176.5 -65.5Q171 -93 161 -117Q200 -141 250 -141ZM267 -195Q230 -195 198 -187Q166 -179 137 -165Q108 -211 64.5 -235.5Q21 -260 -35 -260Q-95 -260 -129 -234.5Q-163 -209 -163 -171Q-163 -145 -146 -124Q-129 -103 -95 -103Q-69 -103 -55.5 -117.5Q-42 -132 -42 -158Q-42 -172 -48.5 -184.5Q-55 -197 -70 -204Q-63 -207 -56.5 -208.5Q-50 -210 -39 -210Q8 -210 29 -174.5Q50 -139 58 -70L123 449H39L47 504H139Q128 507 115 514.5Q102 522 91 534.5Q80 547 73 565Q66 583 67 606Q67 638 82 663Q97 688 123.5 705.5Q150 723 186.5 732.5Q223 742 267 742Q314 742 347.5 733.5Q381 725 402 711Q436 737 488 748.5Q540 760 612 760Q667 760 709.5 751Q752 742 781.5 726Q811 710 826 690Q841 670 841 647Q841 616 823 596Q805 576 775 576Q746 576 729 590.5Q712 605 712 629Q712 647 721.5 660Q731 673 747 679Q727 690 695.5 698.5Q664 707 610 707Q569 707 534 701Q499 695 473.5 682.5Q448 670 434 651.5Q420 633 420 609Q420 560 480 532Q540 504 650 504Q694 504 723.5 504.5Q753 505 771.5 506.5Q790 508 800.5 510Q811 512 815 515L829 505L780 100Q778 79 783 67Q788 55 802 55Q823 55 835 80Q847 105 855 157H906Q895 69 860.5 29.5Q826 -10 772 -10Q715 -10 685.5 25Q656 60 664 126L704 449H536L485 34Q471 -79 419 -137Q367 -195 267 -195Z" glyph-name="f_f_i.alt" horiz-adv-x="918" /><glyph d="M15 0 22 51H87L142 499H77L83 550H532L511 381H449L451 400Q455 433 449.5 452.5Q444 472 430 482.5Q416 493 392 496Q368 499 334 499H259L236 303H348L356 365H410L388 193H335L342 253H229L204 51H301L294 0ZM1041 0 1048 51H1113L1168 499H1103L1109 550H1359L1352 499H1285L1230 51H1297L1290 0ZM528 0 535 51H600L655 499H590L596 550H1045L1024 381H962L964 400Q968 433 962.5 452.5Q957 472 943 482.5Q929 493 905 496Q881 499 847 499H772L749 303H861L869 365H923L901 193H848L855 253H742L717 51H814L807 0Z" glyph-name="f_f_i.alt.sc" horiz-adv-x="1366" /><glyph d="M15 0 22 51H87L142 499H77L83 550H532L511 381H449L451 400Q455 431 450 450.5Q445 470 430.5 480.5Q416 491 392 495Q368 499 334 499H259L236 303L392 312L383 245L229 254L204 51H301L294 0ZM518 0 525 51H590L645 499H580L586 550H1035L1014 381H952L954 400Q958 431 953 450.5Q948 470 933.5 480.5Q919 491 895 495Q871 499 837 499H762L739 303L895 312L886 245L732 254L707 51H804L797 0ZM1022 0 1029 51H1094L1149 499H1084L1090 550H1340L1333 499H1266L1211 51H1278L1271 0Z" glyph-name="f_f_i.sc" horiz-adv-x="1346" /><glyph d="M444 542Q450 578 462 607.5Q474 637 490 660Q473 674 449.5 681.5Q426 689 389 689Q335 689 301.5 656Q268 623 256 542L250 504H438ZM233 -211Q270 -211 294 -200.5Q318 -190 333 -171Q348 -152 355.5 -125.5Q363 -99 367 -66L431 449H245L187 -6Q173 -108 131 -172Q153 -196 177.5 -203.5Q202 -211 233 -211ZM588 -260Q565 -260 543 -254.5Q521 -249 503.5 -237.5Q486 -226 475 -209Q464 -192 464 -168Q464 -142 480.5 -123.5Q497 -105 529 -105Q555 -105 569 -120Q583 -135 583 -156Q583 -173 576 -187Q569 -201 553 -207Q566 -212 585 -212Q630 -212 649 -172Q668 -132 676 -67L738 449H550L493 -6Q478 -125 420 -192.5Q362 -260 255 -260Q192 -260 155.5 -243Q119 -226 102 -206Q48 -260 -35 -260Q-92 -260 -127.5 -236.5Q-163 -213 -163 -167Q-163 -144 -147 -123.5Q-131 -103 -97 -103Q-71 -103 -56.5 -117Q-42 -131 -42 -154Q-42 -168 -48 -182.5Q-54 -197 -65 -206Q-53 -209 -39 -209Q9 -209 30.5 -168.5Q52 -128 59 -66L122 449H39L47 504H129L133 536Q141 595 166 634.5Q191 674 225.5 697.5Q260 721 301 730.5Q342 740 381 740Q426 740 462.5 730.5Q499 721 523 701Q561 738 608 753Q655 768 705 768Q734 768 763.5 762Q793 756 817 744Q841 732 856.5 713.5Q872 695 872 669Q872 641 855 621Q838 601 806 601Q777 601 760 617Q743 633 743 657Q743 691 771 708Q758 713 744 716Q730 719 707 719Q652 719 613 684.5Q574 650 563 564L556 504H663Q758 504 800 506.5Q842 509 851 515L864 505L803 0Q788 -121 736.5 -190.5Q685 -260 588 -260Z" glyph-name="f_f_j" horiz-adv-x="908" /><glyph d="M434 504Q421 507 406.5 515Q392 523 379 536.5Q366 550 357.5 568.5Q349 587 349 611Q349 626 354.5 643Q360 660 367 672Q344 682 322 685.5Q300 689 265 689Q207 689 171.5 665Q136 641 135 604Q134 556 187.5 530Q241 504 359 504ZM250 -141Q306 -141 330 -104.5Q354 -68 362 -1L418 449H242L186 -6Q181 -38 175 -65.5Q169 -93 159 -117Q179 -129 202.5 -135Q226 -141 250 -141ZM135 -165Q106 -211 63.5 -235.5Q21 -260 -35 -260Q-59 -260 -82 -254.5Q-105 -249 -123 -237.5Q-141 -226 -152 -209Q-163 -192 -163 -169Q-163 -144 -146 -123.5Q-129 -103 -95 -103Q-69 -103 -55.5 -117Q-42 -131 -42 -154Q-42 -170 -49 -183.5Q-56 -197 -69 -202Q-62 -206 -56 -207.5Q-50 -209 -39 -209Q10 -209 30.5 -170.5Q51 -132 58 -70L123 449H39L47 504H139Q128 507 115 514.5Q102 522 91 534.5Q80 547 73 565Q66 583 67 606Q67 638 82 663Q97 688 123.5 705.5Q150 723 186.5 732.5Q223 742 267 742Q314 742 346.5 734.5Q379 727 405 715Q439 740 490 750Q541 760 611 760Q671 760 714.5 750.5Q758 741 786 725.5Q814 710 827 689.5Q840 669 840 646Q840 615 822 595Q804 575 774 575Q745 575 728.5 589.5Q712 604 712 628Q712 647 721.5 660Q731 673 743 680Q723 691 692 699Q661 707 610 707Q568 707 533 701Q498 695 472.5 682.5Q447 670 433 651.5Q419 633 419 609Q419 560 478.5 532Q538 504 650 504Q692 504 719.5 504.5Q747 505 765 506Q783 507 793.5 509.5Q804 512 811 515L826 505L768 26Q793 13 813 -14Q833 -41 833 -87Q833 -163 785.5 -211.5Q738 -260 647 -260Q580 -260 543.5 -231Q507 -202 507 -162Q507 -131 525.5 -108.5Q544 -86 577 -86Q603 -86 618 -100Q633 -114 633 -134Q633 -155 623 -170.5Q613 -186 593 -194Q603 -203 617.5 -205.5Q632 -208 646 -208Q700 -208 727 -177Q754 -146 754 -102Q754 -51 722.5 -26Q691 -1 648 0L703 449H537L485 34Q472 -72 419.5 -133.5Q367 -195 267 -195Q230 -195 197 -187Q164 -179 135 -165Z" glyph-name="f_f_j.alt" horiz-adv-x="875" /><glyph d="M15 0 22 51H87L142 499H77L83 550H532L511 381H449L451 400Q455 433 449.5 452.5Q444 472 430 482.5Q416 493 392 496Q368 499 334 499H259L236 303H348L356 365H410L388 193H335L342 253H229L204 51H301L294 0ZM1335 185Q1323 85 1274.5 39Q1226 -7 1135 -7Q1067 -7 1026 21Q985 49 985 94Q985 126 1004.5 148Q1024 170 1057 170Q1081 170 1095.5 156.5Q1110 143 1110 119Q1110 99 1098.5 83.5Q1087 68 1067 63Q1077 55 1089 50.5Q1101 46 1124 46Q1144 46 1159 51.5Q1174 57 1185.5 72Q1197 87 1205 113.5Q1213 140 1218 182L1257 500H1184L1191 551H1446L1440 500H1374ZM528 0 535 51H600L655 499H590L596 550H1045L1024 381H962L964 400Q968 433 962.5 452.5Q957 472 943 482.5Q929 493 905 496Q881 499 847 499H772L749 303H861L869 365H923L901 193H848L855 253H742L717 51H814L807 0Z" glyph-name="f_f_j.alt.sc" horiz-adv-x="1440" /><glyph d="M15 0 22 51H87L142 499H77L83 550H532L511 381H449L451 400Q455 431 450 450.5Q445 470 430.5 480.5Q416 491 392 495Q368 499 334 499H259L236 303L392 312L383 245L229 254L204 51H301L294 0ZM518 0 525 51H590L645 499H580L586 550H1035L1014 381H952L954 400Q958 431 953 450.5Q948 470 933.5 480.5Q919 491 895 495Q871 499 837 499H762L739 303L895 312L886 245L732 254L707 51H804L797 0ZM1316 184Q1304 84 1255.5 38Q1207 -8 1116 -8Q1048 -8 1007 20Q966 48 966 93Q966 125 985.5 147Q1005 169 1038 169Q1062 169 1076.5 155.5Q1091 142 1091 118Q1091 98 1079.5 82.5Q1068 67 1048 62Q1058 54 1070 49.5Q1082 45 1105 45Q1125 45 1140 50.5Q1155 56 1166.5 71Q1178 86 1186 112.5Q1194 139 1199 181L1238 499H1165L1172 550H1427L1421 499H1355Z" glyph-name="f_f_j.sc" horiz-adv-x="1422" /><glyph d="M445 550Q450 580 459.5 605.5Q469 631 481 652Q450 689 388 689Q329 689 297 656Q265 623 254 542L248 504H438ZM264 -151Q319 -151 343 -112.5Q367 -74 374 -10L431 449H242L185 -6Q181 -36 176 -63Q171 -90 162 -113Q203 -151 264 -151ZM-35 -260Q-92 -260 -127.5 -237.5Q-163 -215 -163 -169Q-163 -146 -146 -125.5Q-129 -105 -95 -105Q-69 -105 -55.5 -119Q-42 -133 -42 -156Q-42 -170 -48 -184.5Q-54 -199 -65 -208Q-53 -211 -39 -211Q9 -211 30 -173Q51 -135 58 -73L122 449H39L47 504H129L132 526Q141 594 165.5 636Q190 678 223 701Q256 724 294 732Q332 740 369 740Q425 740 457.5 725.5Q490 711 510 694Q545 736 588.5 752.5Q632 769 676 769Q719 769 750.5 761Q782 753 811 739Q817 739 824.5 743.5Q832 748 839.5 753Q847 758 852.5 763Q858 768 859 768L891 766L810 103Q807 80 812 66.5Q817 53 834 53Q856 53 866.5 75.5Q877 98 885 157H936Q931 119 923 88Q915 57 899.5 35.5Q884 14 859.5 2Q835 -10 797 -10Q743 -10 714 21.5Q685 53 694 126L764 695Q751 707 732.5 713.5Q714 720 688 720Q659 720 638 708.5Q617 697 602.5 677Q588 657 579 629.5Q570 602 565 569L556 504H669L662 449H550L500 56Q485 -69 428.5 -136.5Q372 -204 275 -204Q228 -204 195 -194Q162 -184 137 -163Q108 -211 65 -235.5Q22 -260 -35 -260Z" glyph-name="f_f_l" horiz-adv-x="950" unicode="&#64260;" /><glyph d="M433 504Q420 507 404.5 515Q389 523 375.5 536Q362 549 353 568Q344 587 344 612Q344 629 349.5 643.5Q355 658 360 669Q343 677 320 683Q297 689 265 689Q207 689 171.5 665Q136 641 135 604Q134 556 187.5 530Q241 504 359 504ZM250 -141Q306 -141 330 -106Q354 -71 362 -1L417 449H242L186 -6Q179 -69 159 -117Q179 -129 202.5 -135Q226 -141 250 -141ZM267 -195Q230 -195 197 -187Q164 -179 135 -165Q106 -211 63.5 -235.5Q21 -260 -35 -260Q-99 -260 -131 -234Q-163 -208 -163 -170Q-163 -144 -146 -123Q-129 -102 -95 -102Q-69 -102 -55.5 -116Q-42 -130 -42 -153Q-42 -169 -48.5 -182Q-55 -195 -70 -203Q-59 -208 -38 -208Q9 -208 30 -170Q51 -132 58 -70L123 449H39L47 504H139Q128 507 115 514.5Q102 522 91 534.5Q80 547 73 565Q66 583 67 606Q67 638 82 663Q97 688 123.5 705.5Q150 723 186.5 732.5Q223 742 267 742Q312 742 344.5 732.5Q377 723 397 714Q429 738 478.5 749Q528 760 603 760Q678 760 722 753.5Q766 747 792 747Q815 747 829 749.5Q843 752 855 760L869 750L789 103Q786 80 791 66.5Q796 53 813 53Q833 53 844.5 75.5Q856 98 864 157H915Q910 119 901.5 88Q893 57 877.5 35.5Q862 14 837.5 2Q813 -10 776 -10Q722 -10 693 21.5Q664 53 673 126L743 695Q732 697 694 702.5Q656 708 603 708Q512 708 463 682.5Q414 657 413 610Q412 560 473 532Q534 504 653 504L647 449H536L485 34Q471 -80 419 -137.5Q367 -195 267 -195Z" glyph-name="f_f_l.alt" horiz-adv-x="930" /><glyph d="M15 0 22 51H87L142 499H77L83 550H532L511 381H449L451 400Q455 433 449.5 452.5Q444 472 430 482.5Q416 493 392 496Q368 499 334 499H259L236 303H348L356 365H410L388 193H335L342 253H229L204 51H301L294 0ZM528 0 535 51H600L655 499H590L596 550H1045L1024 381H962L964 400Q968 433 962.5 452.5Q957 472 943 482.5Q929 493 905 496Q881 499 847 499H772L749 303H861L869 365H923L901 193H848L855 253H742L717 51H814L807 0ZM1048 51H1113L1168 499H1103L1109 550H1366L1360 499H1285L1230 51H1321Q1354 51 1375.5 56.5Q1397 62 1411.5 75Q1426 88 1433.5 109Q1441 130 1445 160L1447 176H1509L1487 0H1041Z" glyph-name="f_f_l.alt.sc" horiz-adv-x="1541" /><glyph d="M15 0 22 51H87L142 499H77L83 550H532L511 381H449L451 400Q455 431 450 450.5Q445 470 430.5 480.5Q416 491 392 495Q368 499 334 499H259L236 303L392 312L383 245L229 254L204 51H301L294 0ZM518 0 525 51H590L645 499H580L586 550H1035L1014 381H952L954 400Q958 431 953 450.5Q948 470 933.5 480.5Q919 491 895 495Q871 499 837 499H762L739 303L895 312L886 245L732 254L707 51H804L797 0ZM1029 51H1094L1149 499H1084L1090 550H1347L1341 499H1266L1211 51H1302Q1335 51 1356.5 56.5Q1378 62 1392.5 75Q1407 88 1414.5 109Q1422 130 1426 160L1428 176H1490L1468 0H1022Z" glyph-name="f_f_l.sc" horiz-adv-x="1522" /><glyph d="M-35 -260Q-92 -260 -127.5 -236Q-163 -212 -163 -166Q-163 -143 -146 -122.5Q-129 -102 -95 -102Q-69 -102 -55.5 -116Q-42 -130 -42 -153Q-42 -167 -48 -181.5Q-54 -196 -65 -205Q-53 -208 -39 -208Q9 -208 29.5 -172Q50 -136 58 -74L122 449H39L47 504H129L132 528Q141 600 165.5 646.5Q190 693 223 720Q256 747 294 758Q332 769 368 769Q411 769 442.5 761Q474 753 503 739Q509 739 517 743.5Q525 748 532.5 753Q540 758 546 763Q552 768 553 768L585 766L560 570Q554 527 545 482Q536 437 528 405Q556 456 594 485.5Q632 515 684 515Q758 515 789.5 472.5Q821 430 815 361Q815 358 812.5 337.5Q810 317 806.5 288.5Q803 260 799 228Q795 196 791.5 167.5Q788 139 785.5 120Q783 101 783 98Q781 78 786.5 66.5Q792 55 806 55Q827 55 839 80Q851 105 859 157H909Q898 69 863.5 29.5Q829 -10 775 -10Q718 -10 689.5 23.5Q661 57 667 117Q667 120 669.5 139.5Q672 159 675.5 186Q679 213 683 244.5Q687 276 690.5 303Q694 330 696.5 349Q699 368 699 371Q703 405 690.5 425Q678 445 644 445Q619 445 598 430.5Q577 416 561.5 390.5Q546 365 536 330.5Q526 296 521 257L489 0H370L456 695Q443 707 424.5 713.5Q406 720 380 720Q351 720 330 708.5Q309 697 294.5 677Q280 657 271 629.5Q262 602 257 569L248 504H361L355 449H242L185 -6Q170 -125 114.5 -192.5Q59 -260 -35 -260Z" glyph-name="f_h" horiz-adv-x="919" /><glyph d="M440 695Q429 698 395.5 703Q362 708 309 708Q218 708 169 682.5Q120 657 119 610Q118 560 179 532Q240 504 359 504L353 449H242L186 -6Q170 -140 114.5 -200Q59 -260 -35 -260Q-59 -260 -82 -254.5Q-105 -249 -122.5 -237.5Q-140 -226 -151 -208.5Q-162 -191 -162 -168Q-162 -144 -145 -123.5Q-128 -103 -95 -103Q-69 -103 -55.5 -117.5Q-42 -132 -42 -158Q-42 -192 -71 -203Q-63 -207 -55.5 -208Q-48 -209 -38 -209Q10 -209 30.5 -170.5Q51 -132 58 -70L123 449H39L47 504H139Q126 507 110 515Q94 523 80.5 536Q67 549 58 568Q49 587 50 612Q51 642 67 668.5Q83 695 114.5 715.5Q146 736 194.5 748Q243 760 309 760Q347 760 375 758Q403 756 424 753.5Q445 751 460.5 749Q476 747 489 747Q512 747 526.5 749.5Q541 752 552 760L566 750L543 570Q538 527 529 482Q520 437 512 405Q540 456 578 485.5Q616 515 668 515Q734 515 769 472.5Q804 430 798 361Q791 289 776 222Q761 155 755 98Q753 78 758.5 66.5Q764 55 777 55Q794 55 808.5 80Q823 105 830 157H881Q870 69 833.5 29.5Q797 -10 747 -10Q688 -10 660 23.5Q632 57 638 117Q645 180 660.5 242Q676 304 683 371Q687 405 672 425Q657 445 628 445Q603 445 582 430.5Q561 416 545.5 390.5Q530 365 520 330.5Q510 296 505 257L472 0H354Z" glyph-name="f_h.alt" horiz-adv-x="892" /><glyph d="M15 0 22 51H87L142 499H77L83 550H532L511 381H449L451 400Q455 433 449.5 452.5Q444 472 430 482.5Q416 493 392 496Q368 499 334 499H259L236 303H348L356 365H410L388 193H335L342 253H229L204 51H301L294 0ZM535 51H600L655 499H590L596 550H843L837 499H772L749 307H990L1014 499H950L956 550H1203L1197 499H1131L1076 51H1142L1135 0H888L895 51H959L984 255H743L717 51H782L775 0H528Z" glyph-name="f_h.alt.sc" horiz-adv-x="1211" /><glyph d="M15 0 22 51H87L142 499H77L83 550H532L511 381H449L451 400Q455 431 450 450.5Q445 470 430.5 480.5Q416 491 392 495Q368 499 334 499H259L236 303L392 312L383 245L229 254L204 51H301L294 0ZM525 51H590L645 499H580L586 550H833L827 499H762L739 307H980L1004 499H940L946 550H1193L1187 499H1121L1066 51H1132L1125 0H878L885 51H949L974 255H733L707 51H772L765 0H518Z" glyph-name="f_h.sc" horiz-adv-x="1201" /><glyph d="M666 678Q666 647 645.5 625Q625 603 591 603Q558 603 544 622Q530 641 530 661Q530 693 550.5 714.5Q571 736 604 736Q637 736 651.5 717Q666 698 666 678ZM-35 -260Q-92 -260 -127.5 -236.5Q-163 -213 -163 -167Q-163 -144 -146.5 -123.5Q-130 -103 -96 -103Q-70 -103 -56 -117Q-42 -131 -42 -154Q-42 -168 -48 -182.5Q-54 -197 -65 -206Q-53 -209 -39 -209Q9 -209 29.5 -171.5Q50 -134 58 -72L122 449H39L47 504H129L136 561Q142 612 161.5 651.5Q181 691 209.5 717Q238 743 275 756.5Q312 770 354 770Q416 770 453.5 746Q491 722 491 675Q491 646 474.5 624.5Q458 603 425 603Q395 603 377 619Q359 635 359 661Q359 678 366.5 693.5Q374 709 391 716Q383 719 374 720Q365 721 359 721Q335 721 317 709.5Q299 698 287 678Q275 658 267.5 631Q260 604 256 572L248 504H344Q394 504 427 504.5Q460 505 481.5 506.5Q503 508 514 510Q525 512 530 515L544 505L495 100Q493 79 498 67Q503 55 517 55Q538 55 550 80Q562 105 570 157H621Q610 69 575.5 29.5Q541 -10 487 -10Q430 -10 400.5 25Q371 60 379 126L419 449H242L185 -6Q170 -125 114.5 -192.5Q59 -260 -35 -260Z" glyph-name="f_idieresis" horiz-adv-x="634" /><glyph d="M643 667Q642 657 637.5 644.5Q633 632 623.5 622Q614 612 600.5 605Q587 598 568 598Q550 598 538 604.5Q526 611 519.5 620.5Q513 630 511 641.5Q509 653 510 662Q510 673 515 685Q520 697 529 707.5Q538 718 551.5 724.5Q565 731 584 731Q602 731 614 724.5Q626 718 632.5 708.5Q639 699 641.5 688Q644 677 643 667ZM-35 -260Q-59 -260 -82 -254.5Q-105 -249 -122.5 -237.5Q-140 -226 -151 -208.5Q-162 -191 -162 -168Q-162 -144 -145 -123.5Q-128 -103 -95 -103Q-69 -103 -55.5 -117.5Q-42 -132 -42 -158Q-42 -192 -71 -203Q-63 -206 -55.5 -207.5Q-48 -209 -38 -209Q9 -209 30 -170Q51 -131 58 -70L123 449H39L47 504H139Q126 507 111.5 515Q97 523 84 536.5Q71 550 62.5 568.5Q54 587 54 611Q54 677 113.5 719.5Q173 762 285 762Q376 762 417.5 734.5Q459 707 459 669Q459 637 440.5 617.5Q422 598 393 598Q364 598 347.5 612.5Q331 627 331 651Q331 685 360 701Q347 704 328.5 706.5Q310 709 283 709Q211 709 167.5 684.5Q124 660 124 609Q124 560 184 532Q244 504 355 504Q398 504 427.5 504.5Q457 505 475.5 506.5Q494 508 504.5 510Q515 512 519 515L533 505L484 100Q482 79 487 67Q492 55 506 55Q523 55 537 80Q551 105 559 157H610Q599 69 562 29.5Q525 -10 476 -10Q419 -10 389.5 25Q360 60 368 126L408 449H242L186 -6Q172 -125 115.5 -192.5Q59 -260 -35 -260Z" glyph-name="f_idieresis.alt" horiz-adv-x="623" /><glyph d="M15 0 22 51H87L142 499H77L83 550H532L511 381H449L451 400Q455 433 449.5 452.5Q444 472 430 482.5Q416 493 392 496Q368 499 334 499H259L236 303H348L356 365H410L388 193H335L342 253H229L204 51H301L294 0ZM872 658Q872 635 855.5 617.5Q839 600 810 600Q786 600 773.5 614Q761 628 761 646Q761 669 777 686Q793 703 822 703Q848 703 860 689Q872 675 872 658ZM703 658Q703 635 686 617.5Q669 600 640 600Q617 600 604.5 614Q592 628 592 646Q592 669 608 686Q624 703 653 703Q679 703 691 689Q703 675 703 658ZM528 0 535 51H600L655 499H590L596 550H846L839 499H772L717 51H784L777 0Z" glyph-name="f_idieresis.alt.sc" horiz-adv-x="853" /><glyph d="M15 0 22 51H87L142 499H77L83 550H532L511 381H449L451 400Q455 431 450 450.5Q445 470 430.5 480.5Q416 491 392 495Q368 499 334 499H259L236 303L392 312L383 245L229 254L204 51H301L294 0ZM862 658Q862 635 845.5 617.5Q829 600 800 600Q776 600 763.5 614Q751 628 751 646Q751 669 767 686Q783 703 812 703Q838 703 850 689Q862 675 862 658ZM693 658Q693 635 676 617.5Q659 600 630 600Q607 600 594.5 614Q582 628 582 646Q582 669 598 686Q614 703 643 703Q669 703 681 689Q693 675 693 658ZM518 0 525 51H590L645 499H580L586 550H836L829 499H762L707 51H774L767 0Z" glyph-name="f_idieresis.sc" horiz-adv-x="843" /><glyph d="M242 449 185 -6Q170 -125 114.5 -192.5Q59 -260 -35 -260Q-59 -260 -82 -254.5Q-105 -249 -123 -237.5Q-141 -226 -152 -208.5Q-163 -191 -163 -168Q-163 -144 -148 -123.5Q-133 -103 -97 -103Q-71 -103 -56.5 -117Q-42 -131 -42 -154Q-42 -194 -75 -205Q-67 -207 -58.5 -208Q-50 -209 -39 -209Q9 -209 29.5 -172.5Q50 -136 58 -73L123 449H39L47 504H129L132 528Q141 598 167.5 644.5Q194 691 230.5 718.5Q267 746 310.5 757Q354 768 397 768Q433 768 463.5 761.5Q494 755 516.5 742.5Q539 730 551.5 711.5Q564 693 564 669Q564 642 547 621.5Q530 601 498 601Q469 601 452 617.5Q435 634 435 658Q435 692 465 709Q441 719 400 719Q344 719 305.5 684.5Q267 650 256 564L248 504H355Q450 504 492 506.5Q534 509 543 515L556 505L495 0Q480 -121 428.5 -190.5Q377 -260 280 -260Q257 -260 235 -254Q213 -248 195.5 -236.5Q178 -225 167 -208Q156 -191 156 -168Q156 -142 172 -122.5Q188 -103 220 -103Q246 -103 260.5 -117.5Q275 -132 275 -157Q275 -175 266.5 -187Q258 -199 244 -204Q258 -210 278 -210Q322 -210 341.5 -171Q361 -132 368 -67L430 449Z" glyph-name="f_j" horiz-adv-x="600" /><glyph d="M353 -260Q282 -260 247.5 -231Q213 -202 213 -164Q213 -132 231 -109Q249 -86 283 -86Q309 -86 323.5 -100Q338 -114 338 -134Q338 -154 328 -171Q318 -188 298 -194Q308 -203 322.5 -206Q337 -209 351 -209Q413 -209 436.5 -179.5Q460 -150 460 -106Q460 -81 451 -61Q442 -41 427.5 -27.5Q413 -14 393.5 -7Q374 0 353 0L408 449H242L186 -6Q154 -260 -35 -260Q-91 -260 -127 -236Q-163 -212 -163 -171Q-163 -144 -146.5 -123.5Q-130 -103 -95 -103Q-69 -103 -55.5 -117Q-42 -131 -42 -154Q-42 -170 -48 -183.5Q-54 -197 -69 -204Q-58 -209 -38 -209Q9 -209 30 -170.5Q51 -132 58 -70L123 449H39L47 504H139Q126 507 111.5 515Q97 523 84 536.5Q71 550 62.5 568.5Q54 587 54 611Q54 683 124 721.5Q194 760 317 760Q376 760 419 750.5Q462 741 490 725.5Q518 710 531.5 689.5Q545 669 545 646Q545 615 527 595Q509 575 479 575Q450 575 433.5 589.5Q417 604 417 628Q417 647 426.5 660Q436 673 448 680Q428 691 397 699Q366 707 315 707Q274 707 239 701Q204 695 178.5 682.5Q153 670 138.5 651.5Q124 633 124 609Q124 560 184.5 532Q245 504 358 504Q399 504 426.5 504.5Q454 505 471.5 506Q489 507 499.5 509Q510 511 517 515L532 505L474 25Q496 11 517.5 -17.5Q539 -46 539 -92Q539 -168 494.5 -214Q450 -260 353 -260Z" glyph-name="f_j.alt" horiz-adv-x="580" /><glyph d="M15 0 22 51H87L142 499H77L83 550H532L511 381H449L451 400Q455 433 449.5 452.5Q444 472 430 482.5Q416 493 392 496Q368 499 334 499H259L236 303H348L356 365H410L388 193H335L342 253H229L204 51H301L294 0ZM823 184Q811 84 762.5 38Q714 -8 623 -8Q555 -8 514 20Q473 48 473 93Q473 125 492.5 147Q512 169 545 169Q569 169 583.5 155.5Q598 142 598 118Q598 98 586.5 82.5Q575 67 555 62Q565 54 577 49.5Q589 45 612 45Q632 45 647 50.5Q662 56 673.5 71Q685 86 693 112.5Q701 139 706 181L745 499H672L679 550H934L928 499H862Z" glyph-name="f_j.alt.sc" horiz-adv-x="929" /><glyph d="M15 0 22 51H87L142 499H77L83 550H532L511 381H449L451 400Q455 431 450 450.5Q445 470 430.5 480.5Q416 491 392 495Q368 499 334 499H259L236 303L392 312L383 245L229 254L204 51H301L294 0ZM813 184Q801 84 752.5 38Q704 -8 613 -8Q545 -8 504 20Q463 48 463 93Q463 125 482.5 147Q502 169 535 169Q559 169 573.5 155.5Q588 142 588 118Q588 98 576.5 82.5Q565 67 545 62Q555 54 567 49.5Q579 45 602 45Q622 45 637 50.5Q652 56 663.5 71Q675 86 683 112.5Q691 139 696 181L735 499H662L669 550H924L918 499H852Z" glyph-name="f_j.sc" horiz-adv-x="919" /><glyph d="M-35 -260Q-59 -260 -82 -254.5Q-105 -249 -123 -237.5Q-141 -226 -152 -208.5Q-163 -191 -163 -168Q-163 -142 -146 -122.5Q-129 -103 -98 -103Q-70 -103 -56 -117Q-42 -131 -42 -154Q-42 -194 -72 -203Q-64 -207 -56 -208Q-48 -209 -37 -209Q10 -209 30.5 -171Q51 -133 58 -71L122 449H39L47 504H129L132 531Q141 601 165.5 647Q190 693 223 720Q256 747 294 758Q332 769 368 769Q411 769 442.5 761Q474 753 503 739Q509 739 517 743.5Q525 748 532.5 753Q540 758 545.5 763Q551 768 552 768L584 766L561 586Q557 556 552 525Q547 494 542 468Q537 442 533 424.5Q529 407 528 402Q540 426 555 446.5Q570 467 590 482Q610 497 635.5 506Q661 515 695 515Q748 515 783.5 487Q819 459 819 405Q819 347 777.5 306.5Q736 266 667 243L768 55H817L811 0H665L551 219L555 249Q592 254 619 268.5Q646 283 664 303Q682 323 690.5 347.5Q699 372 699 397Q699 422 687 436Q675 450 649 450Q630 450 609.5 438.5Q589 427 571 400.5Q553 374 539 332Q525 290 517 230L489 0H370L456 696Q443 707 424.5 713.5Q406 720 380 720Q351 720 330 708.5Q309 697 294.5 677Q280 657 271 629.5Q262 602 257 569L248 504H361L355 449H242L185 -6Q170 -125 114.5 -192.5Q59 -260 -35 -260Z" glyph-name="f_k" horiz-adv-x="860" /><glyph d="M725 449H529L500 218ZM-35 -260Q-92 -260 -127.5 -237.5Q-163 -215 -163 -169Q-163 -146 -146 -125.5Q-129 -105 -95 -105Q-69 -105 -55.5 -119Q-42 -133 -42 -156Q-42 -170 -48 -184.5Q-54 -199 -65 -208Q-53 -211 -39 -211Q9 -211 30 -171.5Q51 -132 58 -70L123 449H39L47 504H139Q126 507 110 515Q94 523 80.5 536Q67 549 58 568Q49 587 50 612Q52 679 114 719.5Q176 760 309 760Q346 760 374 758Q402 756 423 753.5Q444 751 460 749Q476 747 489 747Q512 747 526 749.5Q540 752 552 760L566 750L535 504H817L810 451L632 274L752 55H800L795 0H653L551 192L489 131L473 0H354L441 695Q428 698 394.5 703Q361 708 309 708Q218 708 169 682.5Q120 657 119 610Q117 560 178 532Q239 504 359 504L353 449H242L186 -6Q170 -137 114.5 -198.5Q59 -260 -35 -260Z" glyph-name="f_k.alt" horiz-adv-x="832" /><glyph d="M15 0 22 51H87L142 499H77L83 550H532L511 381H449L451 400Q455 433 449.5 452.5Q444 472 430 482.5Q416 493 392 496Q368 499 334 499H259L236 303H348L356 365H410L388 193H335L342 253H229L204 51H301L294 0ZM741 249 1022 499H772ZM528 0 535 51H600L655 499H590L596 550H1109L1102 499L899 321L1067 51H1112L1105 0H879L886 51H932L812 245L732 175L717 51H781L774 0Z" glyph-name="f_k.alt.sc" horiz-adv-x="1130" /><glyph d="M15 0 22 51H87L142 499H77L83 550H532L511 381H449L451 400Q455 431 450 450.5Q445 470 430.5 480.5Q416 491 392 495Q368 499 334 499H259L236 303L392 312L383 245L229 254L204 51H301L294 0ZM764 0H518L525 51H590L645 499H580L586 550H832L826 499H762L733 259L979 499H916L924 550H1124L1117 499H1056L873 324L1051 51H1095L1089 0H863L869 51H923L793 246L724 180L707 51H771Z" glyph-name="f_k.sc" horiz-adv-x="1120" /><glyph d="M344 504Q379 504 402 513Q425 522 439 537Q453 552 460 572Q467 592 469 614Q474 674 449.5 697Q425 720 383 720Q353 720 331 708.5Q309 697 294.5 676.5Q280 656 271 628Q262 600 257 566L248 504ZM-35 -260Q-60 -260 -83 -254.5Q-106 -249 -124 -237.5Q-142 -226 -152.5 -209.5Q-163 -193 -163 -171Q-163 -144 -147 -123.5Q-131 -103 -97 -103Q-71 -103 -56.5 -117Q-42 -131 -42 -154Q-42 -169 -48.5 -183.5Q-55 -198 -70 -205Q-63 -208 -55.5 -208.5Q-48 -209 -37 -209Q10 -209 30.5 -171Q51 -133 58 -72L122 449H39L47 504H129L135 554Q143 619 167 661Q191 703 225 727Q259 751 299 760Q339 769 379 769Q464 769 508.5 720Q553 671 540 571L532 504H692L686 449H529L493 158Q487 112 496 84.5Q505 57 539 57Q572 57 586.5 88Q601 119 609 167H659Q653 126 642 93.5Q631 61 613 38Q595 15 568.5 2.5Q542 -10 504 -10Q433 -10 398.5 31.5Q364 73 375 162L410 449H242L185 0Q169 -123 114 -191.5Q59 -260 -35 -260Z" glyph-name="f_t" horiz-adv-x="687" /><glyph d="M424 504Q429 542 422.5 578Q416 614 396 643Q376 672 341.5 689.5Q307 707 254 707Q186 707 152.5 682Q119 657 119 615Q119 564 171 534Q223 504 328 504ZM39 448 47 503H139Q126 506 110 514.5Q94 523 80.5 536.5Q67 550 58.5 570.5Q50 591 50 618Q51 683 100 721.5Q149 760 252 760Q354 760 414 721.5Q474 683 497 614L605 760L630 750Q606 704 578.5 642Q551 580 541 504H710L703 449H534L499 169Q491 108 502.5 79Q514 50 549 50Q567 50 580 60.5Q593 71 602 89Q611 107 616.5 130.5Q622 154 625 181H676Q671 140 660 105Q649 70 630 44.5Q611 19 582 4.5Q553 -10 511 -10Q484 -10 458 -4Q432 2 412.5 19.5Q393 37 384 68.5Q375 100 381 151L417 449H242L186 -7Q170 -141 114.5 -201Q59 -261 -35 -261Q-59 -261 -82 -255.5Q-105 -250 -123 -239Q-141 -228 -152 -210.5Q-163 -193 -163 -170Q-163 -147 -147.5 -126Q-132 -105 -98 -105Q-71 -105 -56.5 -119.5Q-42 -134 -42 -157Q-42 -173 -48.5 -186Q-55 -199 -70 -207Q-59 -212 -38 -212Q-13 -212 4 -201.5Q21 -191 32 -172Q43 -153 49 -127Q55 -101 58 -71L123 448Z" glyph-name="f_t.alt" horiz-adv-x="704" /><glyph d="M15 0 22 51H87L142 499H77L83 550H532L511 381H449L451 400Q455 433 449.5 452.5Q444 472 430 482.5Q416 493 392 496Q368 499 334 499H259L236 303H348L356 365H410L388 193H335L342 253H229L204 51H301L294 0ZM696 51H770L825 500H792Q761 500 740.5 496Q720 492 707 481Q694 470 686.5 450.5Q679 431 674 399L670 375H608L630 550H1149L1127 375H1065L1068 399Q1072 431 1070 450.5Q1068 470 1057.5 481Q1047 492 1027 496Q1007 500 975 500H942L887 51H962L955 0H689Z" glyph-name="f_t.alt.sc" horiz-adv-x="1136" /><glyph d="M15 0 22 51H87L142 499H77L83 550H532L511 381H449L451 400Q455 431 450 450.5Q445 470 430.5 480.5Q416 491 392 495Q368 499 334 499H259L236 303L392 312L383 245L229 254L204 51H301L294 0ZM686 51H760L815 500H782Q751 500 730.5 496Q710 492 697 481Q684 470 676.5 450.5Q669 431 664 399L660 375H598L620 550H1139L1117 375H1055L1058 399Q1062 431 1060 450.5Q1058 470 1047.5 481Q1037 492 1017 496Q997 500 965 500H932L877 51H952L945 0H679Z" glyph-name="f_t.sc" horiz-adv-x="1126" /><glyph d="M-35 -260Q-59 -260 -82 -254.5Q-105 -249 -123 -237.5Q-141 -226 -152 -209Q-163 -192 -163 -169Q-163 -143 -147.5 -123Q-132 -103 -97 -103Q-73 -103 -57.5 -116.5Q-42 -130 -42 -154Q-42 -171 -50 -184.5Q-58 -198 -73 -203Q-65 -207 -56.5 -208Q-48 -209 -37 -209Q10 -208 30 -171Q50 -134 58 -72L123 449H39L47 504H129L132 526Q140 597 167 644Q194 691 230.5 718.5Q267 746 310 757Q353 768 393 768Q422 768 450.5 763Q479 758 501.5 746Q524 734 538 715Q552 696 552 668Q552 641 534 621Q516 601 484 601Q455 601 439 616.5Q423 632 423 658Q423 688 453 709Q430 719 395 719Q342 719 304.5 684.5Q267 650 256 564L248 504H344Q394 504 427 504.5Q460 505 481.5 506.5Q503 508 514 510Q525 512 530 515L544 505L495 100Q493 79 498 67Q503 55 517 55Q534 55 548 80Q562 105 570 157H621Q610 69 573 29.5Q536 -10 487 -10Q429 -10 400 25Q371 60 379 126L418 449H242L185 -6Q170 -125 114.5 -192.5Q59 -260 -35 -260Z" glyph-name="fi" horiz-adv-x="634" unicode="&#64257;" /><glyph d="M-35 -260Q-94 -260 -128.5 -237Q-163 -214 -163 -167Q-163 -144 -146.5 -123.5Q-130 -103 -95 -103Q-71 -103 -56.5 -117Q-42 -131 -42 -154Q-42 -169 -48.5 -183Q-55 -197 -65 -206Q-56 -209 -41 -209Q-16 -209 1.5 -198.5Q19 -188 30.5 -169.5Q42 -151 48.5 -125.5Q55 -100 58 -70L123 449H39L47 504H139Q126 507 111.5 515Q97 523 84 536.5Q71 550 62.5 568.5Q54 587 54 611Q54 683 124 721.5Q194 760 317 760Q376 760 419 750.5Q462 741 490 725.5Q518 710 531.5 689.5Q545 669 545 646Q545 615 527 595Q509 575 479 575Q450 575 433.5 589.5Q417 604 417 628Q417 647 427.5 660Q438 673 453 680Q433 691 401 699Q369 707 315 707Q274 707 239 701Q204 695 178.5 682.5Q153 670 138.5 651.5Q124 633 124 609Q124 560 184 532Q244 504 355 504Q398 504 427.5 504.5Q457 505 475.5 506.5Q494 508 504.5 510Q515 512 519 515L533 505L484 100Q482 79 487 67Q492 55 506 55Q523 55 537 80Q551 105 559 157H610Q599 69 562 29.5Q525 -10 476 -10Q419 -10 389.5 25Q360 60 368 126L408 449H242L186 -6Q170 -140 114.5 -200Q59 -260 -35 -260Z" glyph-name="fi.alt" horiz-adv-x="623" /><glyph d="M15 0 22 51H87L142 499H77L83 550H532L511 381H449L451 400Q455 433 449.5 452.5Q444 472 430 482.5Q416 493 392 496Q368 499 334 499H259L236 303H348L356 365H410L388 193H335L342 253H229L204 51H301L294 0ZM528 0 535 51H600L655 499H590L596 550H846L839 499H772L717 51H784L777 0Z" glyph-name="fi.alt.sc" horiz-adv-x="853" /><glyph d="M15 0 22 51H87L142 499H77L83 550H532L511 381H449L451 400Q455 431 450 450.5Q445 470 430.5 480.5Q416 491 392 495Q368 499 334 499H259L236 303L392 312L383 245L229 254L204 51H301L294 0ZM518 0 525 51H590L645 499H580L586 550H836L829 499H762L707 51H774L767 0Z" glyph-name="fi.sc" horiz-adv-x="843" /><glyph d="M232 -10Q134 -10 79 27Q24 64 24 123Q24 156 43.5 179.5Q63 203 98 203Q127 203 142.5 187.5Q158 172 158 149Q158 129 147.5 111Q137 93 111 81Q131 63 159 56Q187 49 219 49Q259 49 289 65Q319 81 339 108.5Q359 136 369 173.5Q379 211 379 253Q379 319 346 350Q313 381 257 381Q219 381 188 366.5Q157 352 140 329H82L155 690H522L511 601H202L161 399Q187 418 220.5 429Q254 440 299 440Q352 440 391 424.5Q430 409 455.5 383.5Q481 358 493.5 324Q506 290 506 252Q506 207 491 160.5Q476 114 443.5 76Q411 38 359 14Q307 -10 232 -10Z" glyph-name="five" horiz-adv-x="547" unicode="5" /><glyph d="M141 -109Q192 -109 215 -74Q238 -39 238 13Q238 52 216.5 70Q195 88 159 88Q133 88 113 79Q93 70 82 56H41L90 300H353L344 229H127L103 114Q123 126 148 131.5Q173 137 199 137Q238 137 265.5 127Q293 117 310.5 99.5Q328 82 336 60Q344 38 344 14Q344 -16 333.5 -46Q323 -76 300 -101Q277 -126 240.5 -141.5Q204 -157 151 -157Q81 -157 42.5 -134Q4 -111 4 -73Q4 -50 18 -30.5Q32 -11 62 -11Q84 -11 94 -22.5Q104 -34 104 -51Q104 -64 97.5 -75.5Q91 -87 77 -94Q85 -101 100 -105Q115 -109 141 -109Z" glyph-name="five.inferior" horiz-adv-x="392" /><glyph d="M181 -180Q142 -180 109 -171.5Q76 -163 51.5 -146.5Q27 -130 13 -106Q-1 -82 -1 -52Q-1 -24 16 -1.5Q33 21 68 21Q94 21 107.5 6.5Q121 -8 121 -30Q121 -49 110 -66.5Q99 -84 78 -93Q105 -126 171 -126Q214 -126 244 -109Q274 -92 293 -64Q312 -36 320.5 0.5Q329 37 329 75Q329 136 299 168Q269 200 217 200Q177 200 147 185Q117 170 100 147H47L120 504H469L459 428H165L123 220Q151 240 183.5 248.5Q216 257 254 257Q304 257 341 242.5Q378 228 402.5 203Q427 178 439 144.5Q451 111 451 74Q451 29 435.5 -16.5Q420 -62 387 -98.5Q354 -135 303 -157.5Q252 -180 181 -180Z" glyph-name="five.old" horiz-adv-x="506" /><glyph d="M454 199Q454 164 441 127Q428 90 399 60Q370 30 323.5 11Q277 -8 210 -8Q121 -8 70.5 20.5Q20 49 20 97Q20 125 38 146Q56 167 91 167Q117 167 130.5 154Q144 141 144 121Q144 104 134.5 89.5Q125 75 108 67Q119 59 139.5 52.5Q160 46 195 46Q232 46 258 58Q284 70 300.5 91Q317 112 324.5 140Q332 168 332 199Q332 250 302 273.5Q272 297 223 297Q189 297 162 285.5Q135 274 121 257H69L131 550H463L453 472H175L143 322Q166 335 194.5 343Q223 351 265 351Q313 351 348.5 338.5Q384 326 407.5 305Q431 284 442.5 256.5Q454 229 454 199Z" glyph-name="five.sc" horiz-adv-x="499" /><glyph d="M219 479Q270 479 293 514Q316 549 316 601Q316 640 294.5 658Q273 676 237 676Q211 676 191 667Q171 658 160 644H119L168 888H431L422 817H205L181 702Q201 714 226 719.5Q251 725 277 725Q316 725 343.5 715Q371 705 388.5 687.5Q406 670 414 648Q422 626 422 602Q422 572 411.5 542Q401 512 378 487Q355 462 318.5 446.5Q282 431 229 431Q159 431 120.5 454Q82 477 82 515Q82 538 96 557.5Q110 577 140 577Q162 577 172 565.5Q182 554 182 537Q182 524 175.5 512.5Q169 501 155 494Q163 487 178 483Q193 479 219 479Z" glyph-name="five.superior" horiz-adv-x="416" /><glyph d="M279 -10Q181 -10 126 27Q71 64 71 123Q71 156 90.5 179.5Q110 203 145 203Q174 203 189.5 187.5Q205 172 205 149Q205 129 194.5 111Q184 93 158 81Q178 63 206 56Q234 49 266 49Q306 49 336 65Q366 81 386 108.5Q406 136 416 173.5Q426 211 426 253Q426 319 393 350Q360 381 304 381Q266 381 235 366.5Q204 352 187 329H129L202 690H569L558 601H249L208 399Q234 418 267.5 429Q301 440 346 440Q399 440 438 424.5Q477 409 502.5 383.5Q528 358 540.5 324Q553 290 553 252Q553 207 538 160.5Q523 114 490.5 76Q458 38 406 14Q354 -10 279 -10Z" glyph-name="five.tln" horiz-adv-x="640" /><glyph d="M248 -180Q209 -180 176 -171.5Q143 -163 118.5 -146.5Q94 -130 80 -106Q66 -82 66 -52Q66 -24 83 -1.5Q100 21 135 21Q161 21 174.5 6.5Q188 -8 188 -30Q188 -49 177 -66.5Q166 -84 145 -93Q172 -126 238 -126Q281 -126 311 -109Q341 -92 360 -64Q379 -36 387.5 0.5Q396 37 396 75Q396 136 366 168Q336 200 284 200Q244 200 214 185Q184 170 167 147H114L187 504H536L526 428H232L190 220Q218 240 250.5 248.5Q283 257 321 257Q371 257 408 242.5Q445 228 469.5 203Q494 178 506 144.5Q518 111 518 74Q518 29 502.5 -16.5Q487 -62 454 -98.5Q421 -135 370 -157.5Q319 -180 248 -180Z" glyph-name="five.ton" horiz-adv-x="640" /><glyph d="M-35 -260Q-59 -260 -82 -254.5Q-105 -249 -123 -237.5Q-141 -226 -152 -209.5Q-163 -193 -163 -171Q-163 -145 -147.5 -124Q-132 -103 -97 -103Q-71 -103 -56.5 -117.5Q-42 -132 -42 -157Q-42 -192 -72 -203Q-64 -207 -56 -208Q-48 -209 -37 -209Q10 -208 30 -171Q50 -134 58 -72L122 449H39L47 504H129L132 532Q140 605 164.5 651Q189 697 222 723.5Q255 750 293.5 759.5Q332 769 368 769Q411 769 442.5 761Q474 753 503 739Q509 739 516.5 743.5Q524 748 531.5 753Q539 758 544.5 763Q550 768 551 768L583 766L502 103Q499 80 504.5 66.5Q510 53 527 53Q546 53 557.5 75.5Q569 98 577 157H628Q623 119 614.5 88Q606 57 590.5 35.5Q575 14 550.5 2Q526 -10 489 -10Q437 -10 407 21.5Q377 53 386 126L456 695Q443 707 424.5 713.5Q406 720 380 720Q322 720 294.5 679.5Q267 639 257 569L248 504H361L355 449H242L185 -6Q170 -125 114.5 -192.5Q59 -260 -35 -260Z" glyph-name="fl" horiz-adv-x="642" unicode="&#64258;" /><glyph d="M-35 -260Q-94 -260 -128.5 -237Q-163 -214 -163 -167Q-163 -144 -146.5 -123.5Q-130 -103 -95 -103Q-71 -103 -56.5 -117Q-42 -131 -42 -154Q-42 -169 -48.5 -183Q-55 -197 -65 -206Q-56 -209 -41 -209Q-16 -209 1.5 -198.5Q19 -188 30 -169.5Q41 -151 47.5 -125.5Q54 -100 58 -70L123 449H39L47 504H139Q126 507 110 515Q94 523 80.5 536Q67 549 58 568Q49 587 50 612Q52 679 114.5 719.5Q177 760 309 760Q384 760 428 753.5Q472 747 498 747Q521 747 535.5 749.5Q550 752 561 760L575 750L495 103Q492 80 497 66.5Q502 53 519 53Q539 53 550.5 75.5Q562 98 570 157H621Q616 119 607.5 88Q599 57 583.5 35.5Q568 14 543.5 2Q519 -10 482 -10Q428 -10 399 21.5Q370 53 379 126L449 695Q438 697 400 702.5Q362 708 309 708Q218 708 169 682.5Q120 657 119 610Q118 560 179 532Q240 504 359 504L353 449H242L186 -6Q170 -140 114.5 -200Q59 -260 -35 -260Z" glyph-name="fl.alt" horiz-adv-x="636" /><glyph d="M15 0 22 51H87L142 499H77L83 550H532L511 381H449L451 400Q455 433 449.5 452.5Q444 472 430 482.5Q416 493 392 496Q368 499 334 499H259L236 303H348L356 365H410L388 193H335L342 253H229L204 51H301L294 0ZM535 51H600L655 499H590L596 550H853L847 499H772L717 51H808Q841 51 862.5 56.5Q884 62 898.5 75Q913 88 920.5 109Q928 130 932 160L934 176H996L974 0H528Z" glyph-name="fl.alt.sc" horiz-adv-x="1028" /><glyph d="M15 0 22 51H87L142 499H77L83 550H532L511 381H449L451 400Q455 431 450 450.5Q445 470 430.5 480.5Q416 491 392 495Q368 499 334 499H259L236 303L392 312L383 245L229 254L204 51H301L294 0ZM534 51H599L654 499H589L595 550H852L846 499H771L716 51H807Q840 51 861.5 56.5Q883 62 897.5 75Q912 88 919.5 109Q927 130 931 160L933 176H995L973 0H527Z" glyph-name="fl.sc" horiz-adv-x="1027" /><glyph d="M218 0 225 55H309L326 201H11L16 239L412 690H509L455 255H531L523 201H448L431 55H506L499 0ZM372 563 102 255H333Z" glyph-name="four" horiz-adv-x="576" unicode="4" /><glyph d="M140 -150 146 -102H200L210 -25H-9L-4 11L268 300H352L317 23H366L361 -25H312L302 -102H351L345 -150ZM238 202 69 23H216Z" glyph-name="four.inferior" horiz-adv-x="419" /><glyph d="M288 -170 311 21H-5L0 59L397 515H489L435 75H530L523 21H428L405 -170ZM318 75 358 395 80 75Z" glyph-name="four.old" horiz-adv-x="576" /><glyph d="M197 0 204 51H276L289 157H9L14 194L361 550H454L412 207H478L471 157H406L393 51H459L453 0ZM325 441 94 207H295Z" glyph-name="four.sc" horiz-adv-x="528" /><glyph d="M218 438 224 486H278L288 563H69L74 599L346 888H430L395 611H444L439 563H390L380 486H429L423 438ZM316 790 147 611H294Z" glyph-name="four.superior" horiz-adv-x="439" /><glyph d="M250 0 257 55H341L358 201H43L48 239L444 690H541L487 255H563L555 201H480L463 55H538L531 0ZM404 563 134 255H365Z" glyph-name="four.tln" horiz-adv-x="640" /><glyph d="M319 -170 342 21H26L31 59L428 515H520L466 75H561L554 21H459L436 -170ZM349 75 389 395 111 75Z" glyph-name="four.ton" horiz-adv-x="640" /><glyph d="M172 317Q172 269 194 241.5Q216 214 255 214Q282 214 302.5 226.5Q323 239 336 260Q349 281 355.5 309Q362 337 362 368Q362 415 340 442Q318 469 278 469Q251 469 231 457Q211 445 198 424Q185 403 178.5 375.5Q172 348 172 317ZM479 -76Q479 -117 459.5 -151Q440 -185 404.5 -209Q369 -233 319.5 -246Q270 -259 210 -259Q169 -259 129.5 -252.5Q90 -246 58.5 -231Q27 -216 7.5 -191Q-12 -166 -12 -128Q-12 -80 18.5 -47.5Q49 -15 114 2Q73 13 55.5 36.5Q38 60 38 92Q38 132 65 157Q92 182 142 193Q99 210 76.5 245.5Q54 281 54 323Q54 364 69.5 399.5Q85 435 115 460.5Q145 486 188 500.5Q231 515 286 515Q306 515 327.5 512Q349 509 366 504H532L529 450L432 455Q455 438 467.5 410.5Q480 383 480 352Q480 269 418.5 219Q357 169 249 169Q193 169 160 158.5Q127 148 127 119Q127 91 156.5 81.5Q186 72 247 70Q361 68 420 36Q479 4 479 -76ZM88 -117Q88 -163 124 -183.5Q160 -204 215 -204Q252 -204 283.5 -197Q315 -190 338.5 -176.5Q362 -163 375.5 -144.5Q389 -126 389 -102Q389 -80 381.5 -64.5Q374 -49 355.5 -39Q337 -29 306 -24Q275 -19 228 -17Q218 -16 205.5 -16Q193 -16 181 -16Q164 -20 147.5 -27.5Q131 -35 117.5 -47.5Q104 -60 96 -77.5Q88 -95 88 -117Z" glyph-name="g" horiz-adv-x="530" unicode="g" /><glyph d="M776 678Q776 647 755.5 625Q735 603 701 603Q668 603 654.5 622Q641 641 641 661Q641 693 661.5 714.5Q682 736 716 736Q749 736 762.5 717Q776 698 776 678ZM495 -260Q463 -260 432.5 -250.5Q402 -241 382 -222Q311 -259 210 -259Q169 -259 129.5 -252.5Q90 -246 58.5 -231Q27 -216 7.5 -191Q-12 -166 -12 -128Q-12 -35 113 1Q72 13 55 36.5Q38 60 38 92Q38 129 61.5 155.5Q85 182 139 195Q97 212 75.5 246.5Q54 281 54 323Q54 364 69.5 399.5Q85 435 115 460.5Q145 486 188 500.5Q231 515 286 515Q306 515 327.5 512Q349 509 366 504H522Q580 504 621 504.5Q662 505 689 506Q716 507 731 509.5Q746 512 751 515L764 505L712 0Q700 -121 648 -190.5Q596 -260 495 -260ZM172 317Q172 269 194 242Q216 215 255 215Q282 215 302.5 227Q323 239 336 260Q349 281 355.5 309Q362 337 362 368Q362 415 340 441.5Q318 468 278 468Q251 468 231 456Q211 444 198 423.5Q185 403 178.5 375.5Q172 348 172 317ZM488 -212Q514 -212 531.5 -201.5Q549 -191 560.5 -172Q572 -153 578 -126Q584 -99 587 -67L639 449L434 454Q457 437 468.5 409.5Q480 382 480 352Q480 269 418.5 219Q357 169 249 169Q193 169 160 158.5Q127 148 127 119Q127 91 156.5 81Q186 71 247 70Q361 67 420 35.5Q479 4 479 -76Q479 -111 465.5 -139.5Q452 -168 427 -191Q438 -202 452 -207Q466 -212 488 -212ZM88 -117Q88 -163 124 -183.5Q160 -204 215 -204Q251 -204 282 -197Q313 -190 336 -176.5Q359 -163 372 -144.5Q385 -126 385 -102Q385 -57 351 -39.5Q317 -22 239 -17Q231 -17 219.5 -17Q208 -17 198 -16Q150 -24 119 -48Q88 -72 88 -117Z" glyph-name="g_j" horiz-adv-x="813" /><glyph d="M754 680Q754 649 733 627Q712 605 678 605Q645 605 631.5 624Q618 643 618 663Q618 695 639 716.5Q660 738 693 738Q727 738 740.5 719Q754 700 754 680ZM550 -260Q498 -260 460.5 -247Q423 -234 395 -215Q360 -236 312.5 -247.5Q265 -259 210 -259Q169 -259 129.5 -252.5Q90 -246 58.5 -231Q27 -216 7.5 -191Q-12 -166 -12 -128Q-12 -80 18.5 -47Q49 -14 114 3Q74 14 56 37Q38 60 38 92Q38 128 62 155Q86 182 140 194Q98 211 76 246Q54 281 54 323Q54 364 69.5 399.5Q85 435 115 460.5Q145 486 188 500.5Q231 515 286 515Q306 515 327.5 512Q349 509 366 504H554Q598 504 627 504.5Q656 505 674.5 506Q693 507 703.5 509Q714 511 722 515L738 505L679 25Q704 12 724 -13Q744 -38 744 -84Q744 -163 694 -211.5Q644 -260 550 -260ZM172 317Q172 269 194 242Q216 215 255 215Q282 215 302.5 227Q323 239 336 260Q349 281 355.5 309Q362 337 362 368Q362 415 340 441.5Q318 468 278 468Q251 468 231 456Q211 444 198 423.5Q185 403 178.5 375.5Q172 348 172 317ZM555 -209Q610 -209 638 -175.5Q666 -142 666 -98Q666 -48 634.5 -25Q603 -2 559 0L614 450L436 452Q458 435 469 408.5Q480 382 480 352Q480 269 418.5 219Q357 169 249 169Q193 169 160 158.5Q127 148 127 119Q127 91 156.5 81Q186 71 247 70Q361 67 420 35.5Q479 4 479 -76Q479 -133 442 -176Q463 -193 492 -201Q521 -209 555 -209ZM88 -117Q88 -163 124 -183.5Q160 -204 215 -204Q251 -204 282 -197Q313 -190 336 -176.5Q359 -163 372 -144.5Q385 -126 385 -102Q385 -80 377.5 -64.5Q370 -49 352 -39Q334 -29 304 -24Q274 -19 228 -17Q218 -17 205.5 -16.5Q193 -16 181 -16Q164 -20 147.5 -27.5Q131 -35 117.5 -47.5Q104 -60 96 -77.5Q88 -95 88 -117Z" glyph-name="g_j.alt" horiz-adv-x="786" /><glyph d="M423 25Q409 14 373 3Q337 -8 289 -8Q225 -8 178.5 11.5Q132 31 101.5 64Q71 97 56 141Q41 185 41 234Q41 297 60.5 355.5Q80 414 117.5 459Q155 504 210 531Q265 558 337 558Q370 558 407 550Q444 542 470 521L509 558H560L535 362H473Q481 425 450.5 464Q420 503 357 503Q309 503 272 478.5Q235 454 210 413.5Q185 373 172.5 320.5Q160 268 160 213Q160 128 201.5 87.5Q243 47 315 47Q339 47 362.5 52Q386 57 400 68L416 198H344L350 249H586L580 198H519L494 -8H450ZM607 0 614 51H679L734 499H669L675 550H925L918 499H851L796 51H863L856 0Z" glyph-name="g_j.alt.sc" horiz-adv-x="920" /><glyph d="M423 25Q409 14 373 3Q337 -8 289 -8Q225 -8 178.5 11.5Q132 31 101.5 64Q71 97 56 141Q41 185 41 234Q41 297 60.5 355.5Q80 414 117.5 459Q155 504 210 531Q265 558 337 558Q370 558 407 550Q444 542 470 521L509 558H560L535 362H473Q481 425 450.5 464Q420 503 357 503Q309 503 272 478.5Q235 454 210 413.5Q185 373 172.5 320.5Q160 268 160 213Q160 128 201.5 87.5Q243 47 315 47Q339 47 362.5 52Q386 57 400 68L416 198H344L350 249H586L580 198H519L494 -8H450ZM607 0 614 51H679L734 499H669L675 550H925L918 499H851L796 51H863L856 0Z" glyph-name="g_j.sc" horiz-adv-x="920" /><glyph d="M353 -10Q323 -10 302.5 -6.5Q282 -3 268 0L274 55Q285 53 299.5 51Q314 49 332 49Q355 49 371 59Q387 69 397 85.5Q407 102 411.5 122.5Q416 143 416 164Q416 209 400.5 235.5Q385 262 367 283Q349 304 333.5 326Q318 348 318 384Q318 425 334.5 451Q351 477 370.5 502Q390 527 405.5 558Q421 589 420 638Q419 671 402 691.5Q385 712 350 712Q302 712 279.5 676.5Q257 641 249 567L191 0H73L119 449H35L42 504H124L125 513Q139 639 194.5 703.5Q250 768 357 768Q402 768 436.5 757Q471 746 495 727.5Q519 709 531.5 684.5Q544 660 544 633Q545 594 533 567Q521 540 503 520.5Q485 501 464 486.5Q443 472 424.5 458Q406 444 394 428.5Q382 413 382 391Q382 374 393.5 360.5Q405 347 423 334.5Q441 322 461 307.5Q481 293 499 273.5Q517 254 528.5 227.5Q540 201 540 163Q540 127 527.5 95.5Q515 64 491 40.5Q467 17 432 3.5Q397 -10 353 -10Z" glyph-name="germandbls" horiz-adv-x="583" unicode="&#223;" /><glyph d="M327 -12Q304 -12 288 -10Q272 -8 262 -6Q249 -3 241 0L248 54Q254 51 263 49Q271 46 282.5 44.5Q294 43 309 43Q335 43 354 55.5Q373 68 386 89Q399 110 405 137Q411 164 411 194Q411 249 381.5 292.5Q352 336 284 365L289 405L500 695H264L178 0H62L117 449H50L56 504H123L153 750H578L572 693L358 399Q435 367 484.5 316Q534 265 534 191Q534 146 519.5 108.5Q505 71 478.5 44.5Q452 18 413.5 3Q375 -12 327 -12Z" glyph-name="germandbls.alt" horiz-adv-x="578" /><glyph d="M179 646Q152 662 137 673.5Q122 685 114 694Q106 703 104 710.5Q102 718 102 725Q102 745 117 757.5Q132 770 158 770Q181 770 200.5 758.5Q220 747 239 709L290 605H250Z" glyph-name="grave" horiz-adv-x="366" unicode="`" /><glyph d="M144 788Q114 802 103.5 816Q93 830 93 845Q93 861 105.5 873Q118 885 143 885Q169 885 186.5 871.5Q204 858 224 832L295 740H245Z" glyph-name="grave.cap" horiz-adv-x="354" /><glyph d="M64 203 322 351 100 503 110 577 410 368 405 331 53 122Z" glyph-name="greater" horiz-adv-x="431" unicode="&gt;" /><glyph d="M38 113 296 261 74 413 84 487 384 278 379 241 27 32Z" glyph-name="greater.old" horiz-adv-x="406" /><glyph d="M55 169 280 282 83 398 92 463 362 296 358 264 46 98Z" glyph-name="greater.sc" horiz-adv-x="387" /><glyph d="M168 203 426 351 204 503 214 577 514 368 509 331 157 122Z" glyph-name="greater.tln" horiz-adv-x="640" /><glyph d="M154 113 412 261 190 413 200 487 500 278 495 241 143 32Z" glyph-name="greater.ton" horiz-adv-x="640" /><glyph d="M258 18 32 248 36 282 316 489 311 444 157 265 264 63ZM443 57 242 249 246 281 492 450 486 405 358 265 449 102Z" glyph-name="guillemotleft" horiz-adv-x="519" unicode="&#171;" /><glyph d="M278 98 52 328 56 362 336 569 331 524 177 345 284 143ZM463 137 262 329 266 361 512 530 506 485 378 345 469 182Z" glyph-name="guillemotleft.cap" horiz-adv-x="539" /><glyph d="M245 76 39 262 42 289 292 457 288 415 156 275 251 117ZM412 107 228 263 231 288 452 426 447 384 336 275 418 148Z" glyph-name="guillemotleft.sc" horiz-adv-x="496" /><glyph d="M319 18 93 248 97 282 377 489 372 444 218 265 325 63ZM504 57 303 249 307 281 553 450 547 405 419 265 510 102Z" glyph-name="guillemotleft.tln" horiz-adv-x="640" /><glyph d="M261 489 489 282 485 248 203 18 209 63 364 264 256 444ZM76 450 280 281 276 249 28 57 33 102 164 264 71 405Z" glyph-name="guillemotright" horiz-adv-x="518" unicode="&#187;" /><glyph d="M283 569 511 362 507 328 225 98 231 143 386 344 278 524ZM98 530 302 361 298 329 50 137 55 182 186 344 93 485Z" glyph-name="guillemotright.cap" horiz-adv-x="539" /><glyph d="M254 457 462 289 459 262 206 76 212 117 346 274 249 415ZM87 426 274 288 270 263 48 107 53 148 165 274 82 384Z" glyph-name="guillemotright.sc" horiz-adv-x="494" /><glyph d="M322 489 550 282 546 248 264 18 270 63 425 264 317 444ZM137 450 341 281 337 249 89 57 94 102 225 264 132 405Z" glyph-name="guillemotright.tln" horiz-adv-x="640" /><glyph d="M328 117Q335 180 350.5 242Q366 304 374 371Q378 405 365.5 425Q353 445 318 445Q293 445 272.5 430.5Q252 416 236.5 390.5Q221 365 210.5 330.5Q200 296 195 257L163 0H45L131 694H51L59 749Q108 749 141 749.5Q174 750 195 751.5Q216 753 227 755Q238 757 243 760L257 750L234 570Q229 527 220 482Q211 437 204 405Q231 456 268.5 485.5Q306 515 358 515Q430 515 462 472.5Q494 430 489 361Q482 289 467 222Q452 155 445 98Q444 78 449 66.5Q454 55 468 55Q485 55 499 80Q513 105 521 157H572Q561 69 524 29.5Q487 -10 438 -10Q379 -10 351 23.5Q323 57 328 117Z" glyph-name="h" horiz-adv-x="583" unicode="h" /><glyph d="M82 605 134 705Q156 748 175.5 762.5Q195 777 217 777Q239 777 250 767.5Q261 758 261 741Q261 710 220 681L123 605ZM221 605 302 704Q332 742 355 756Q378 770 404 770Q426 770 437 760Q448 750 448 733Q448 712 434 696Q420 680 382 663L261 605Z" glyph-name="hungarumlaut" horiz-adv-x="501" unicode="&#733;" /><glyph d="M88 766 139 875Q163 931 204 931Q224 931 236 919.5Q248 908 248 890Q248 859 212 829L143 766ZM225 766 291 867Q324 915 361 915Q383 915 395.5 901.5Q408 888 408 871Q408 842 372 824L279 766Z" glyph-name="hungarumlaut.cap" horiz-adv-x="498" /><glyph d="M74 346H372L364 281H66Z" glyph-name="hyphen" horiz-adv-x="423" unicode="-" /><glyph d="M82 385H380L372 320H74Z" glyph-name="hyphen.cap" horiz-adv-x="431" /><glyph d="M73 318H339L332 260H66Z" glyph-name="hyphen.sc" horiz-adv-x="395" /><glyph d="M182 346H480L472 281H174Z" glyph-name="hyphen.tln" horiz-adv-x="640" /><glyph d="M187 -10Q129 -10 100 25Q71 60 79 126L118 449H40L47 504Q96 504 128.5 504.5Q161 505 182 506.5Q203 508 214 510Q225 512 230 515L243 505L194 100Q192 79 197.5 67Q203 55 217 55Q237 55 249.5 80Q262 105 270 157H321Q310 74 279 32Q248 -10 187 -10ZM187 609Q155 609 141 628Q127 647 127 667Q127 699 148 721Q169 743 202 743Q236 743 249.5 724Q263 705 263 685Q263 653 242 631Q221 609 187 609Z" glyph-name="i" horiz-adv-x="333" unicode="i" /><glyph d="M187 -10Q129 -10 100 25Q71 60 79 126L118 449H40L47 504Q96 504 128.5 504.5Q161 505 182 506.5Q203 508 214 510Q225 512 230 515L243 505L194 100Q192 79 197.5 67Q203 55 217 55Q237 55 249.5 80Q262 105 270 157H321Q310 74 279 32Q248 -10 187 -10ZM187 609Q155 609 141 628Q127 647 127 667Q127 699 148 721Q169 743 202 743Q236 743 249.5 724Q263 705 263 685Q263 653 242 631Q221 609 187 609Z" glyph-name="i.TRK" horiz-adv-x="333" /><glyph d="M187 -10Q129 -10 100 25Q71 60 79 126L118 449H40L47 504Q96 504 128.5 504.5Q161 505 182 506.5Q203 508 214 510Q225 512 230 515L243 505L194 100Q192 79 197.5 67Q203 55 217 55Q237 55 249.5 80Q262 105 270 157H321Q310 74 279 32Q248 -10 187 -10ZM187 609Q155 609 141 628Q127 647 127 667Q127 699 148 721Q169 743 202 743Q236 743 249.5 724Q263 705 263 685Q263 653 242 631Q221 609 187 609Z" glyph-name="i.dot" horiz-adv-x="333" /><glyph d="M133 605 206 704Q237 746 260.5 758Q284 770 306 770Q331 770 341.5 759.5Q352 749 352 735Q352 729 350 721Q348 713 339 702.5Q330 692 310 678Q290 664 254 646L173 605ZM187 -10Q129 -10 100 25Q71 60 79 126L118 449H40L47 504Q96 504 128.5 504.5Q161 505 182 506.5Q203 508 214 510Q225 512 230 515L243 505L194 100Q192 79 197.5 67Q203 55 217 55Q237 55 249.5 80Q262 105 270 157H321Q310 74 279 32Q248 -10 187 -10Z" glyph-name="iacute" horiz-adv-x="333" unicode="&#237;" /><glyph d="M434 595 507 694Q538 736 561.5 748Q585 760 607 760Q632 760 642.5 749.5Q653 739 653 725Q653 719 651 711Q649 703 640 692.5Q631 682 611 668Q591 654 555 636L474 595ZM141 595 214 694Q245 736 268.5 748Q292 760 314 760Q339 760 349.5 749.5Q360 739 360 725Q360 719 358 711Q356 703 347 692.5Q338 682 318 668Q298 654 262 636L181 595ZM187 -10Q129 -10 100 25Q71 60 79 126L118 449H40L47 504Q96 504 128.5 504.5Q161 505 182 506.5Q203 508 214 510Q225 512 230 515L243 505L194 100Q192 79 197.5 67Q203 55 217 55Q237 55 249.5 80Q262 105 270 157H321Q310 74 279 32Q248 -10 187 -10ZM284 -260Q260 -260 237 -254.5Q214 -249 196 -238Q178 -227 167 -210Q156 -193 156 -170Q156 -144 172.5 -122Q189 -100 225 -100Q251 -100 265 -114.5Q279 -129 279 -152Q279 -170 271.5 -184Q264 -198 248 -206Q255 -210 262.5 -211Q270 -212 281 -212Q329 -212 349.5 -172Q370 -132 377 -67L440 449H360L367 504Q462 504 503 506.5Q544 509 553 515L566 505L500 -39Q486 -155 435 -207.5Q384 -260 284 -260Z" glyph-name="iacute_jacute" horiz-adv-x="610" /><glyph d="M187 -10Q129 -10 100 25Q71 60 79 126L118 449H40L47 504Q96 504 128.5 504.5Q161 505 182 506.5Q203 508 214 510Q225 512 230 515L243 505L194 100Q192 79 197.5 67Q203 55 217 55Q237 55 249.5 80Q262 105 270 157H321Q310 74 279 32Q248 -10 187 -10ZM402 -260Q333 -260 298 -231Q263 -202 263 -160Q263 -131 281.5 -108.5Q300 -86 334 -86Q359 -86 374 -100Q389 -114 389 -134Q389 -179 351 -198Q360 -203 373.5 -206Q387 -209 408 -209Q462 -209 486.5 -178.5Q511 -148 511 -103Q511 -56 482.5 -29Q454 -2 404 0L459 449H393L399 504Q443 504 472 504.5Q501 505 520 506Q539 507 549.5 509Q560 511 568 515L583 505L524 25Q553 11 571 -19.5Q589 -50 589 -89Q589 -165 543 -212.5Q497 -260 402 -260ZM472 605 545 704Q576 746 599.5 758Q623 770 645 770Q670 770 680.5 759.5Q691 749 691 735Q691 729 689 721Q687 713 678 702.5Q669 692 649 678Q629 664 593 646L512 605ZM142 605 215 704Q246 746 269.5 758Q293 770 315 770Q340 770 350.5 759.5Q361 749 361 735Q361 729 359 721Q357 713 348 702.5Q339 692 319 678Q299 664 263 646L182 605Z" glyph-name="iacute_jacute.alt" horiz-adv-x="630" /><glyph d="M534 590H488L551 660Q570 680 587 693.5Q604 707 629 707Q651 707 662 697.5Q673 688 673 675Q673 660 663 647.5Q653 635 624 624ZM216 590H170L233 660Q252 680 269 693.5Q286 707 311 707Q333 707 344 697.5Q355 688 355 675Q355 660 345 647.5Q335 635 306 624ZM31 223 38 275H104L131 499H65L71 550H321L314 499H248L221 275H287L280 223ZM518 221Q510 158 490 114Q470 70 439.5 43Q409 16 367.5 4Q326 -8 275 -8Q225 -8 188 3.5Q151 15 127.5 34Q104 53 94 78Q84 103 87 129Q91 158 110.5 174.5Q130 191 158 191Q185 191 199 176Q213 161 211 138Q209 115 193.5 103Q178 91 160 87Q167 72 191 59.5Q215 47 253 47Q289 47 314.5 56Q340 65 357 85.5Q374 106 384.5 138.5Q395 171 401 217L436 499H363L369 550H626L619 499H553Z" glyph-name="iacute_jacute.alt.sc" horiz-adv-x="619" /><glyph d="M644 590H598L661 660Q680 680 697 693.5Q714 707 739 707Q761 707 772 697.5Q783 688 783 675Q783 660 773 647.5Q763 635 734 624ZM216 590H170L233 660Q252 680 269 693.5Q286 707 311 707Q333 707 344 697.5Q355 688 355 675Q355 660 345 647.5Q335 635 306 624ZM15 0 22 51H87L142 499H77L83 550H333L326 499H259L204 51H271L264 0ZM643 183Q631 83 581.5 37.5Q532 -8 443 -8Q374 -8 333.5 21.5Q293 51 293 97Q293 130 312.5 151.5Q332 173 365 173Q388 173 402.5 160Q417 147 417 126Q417 103 405.5 88Q394 73 376 68Q392 45 436 45Q481 45 498 74.5Q515 104 522 156L565 499H492L498 550H754L747 499H682Z" glyph-name="iacute_jacute.sc" horiz-adv-x="749" /><glyph d="M0 605 178 777H209L338 605H286L182 687L52 605ZM187 -10Q129 -10 100 25Q71 60 79 126L118 449H40L47 504Q96 504 128.5 504.5Q161 505 182 506.5Q203 508 214 510Q225 512 230 515L243 505L194 100Q192 79 197.5 67Q203 55 217 55Q237 55 249.5 80Q262 105 270 157H321Q310 74 279 32Q248 -10 187 -10Z" glyph-name="icircumflex" horiz-adv-x="333" unicode="&#238;" /><glyph d="M346 685Q346 653 325 631Q304 609 270 609Q237 609 223.5 628Q210 647 210 667Q210 699 231 720.5Q252 742 285 742Q319 742 332.5 723Q346 704 346 685ZM140 685Q140 653 119.5 631Q99 609 64 609Q32 609 18.5 628Q5 647 5 667Q5 699 25.5 720.5Q46 742 80 742Q113 742 126.5 723Q140 704 140 685ZM187 -10Q129 -10 100 25Q71 60 79 126L118 449H40L47 504Q96 504 128.5 504.5Q161 505 182 506.5Q203 508 214 510Q225 512 230 515L243 505L194 100Q192 79 197.5 67Q203 55 217 55Q237 55 249.5 80Q262 105 270 157H321Q310 74 279 32Q248 -10 187 -10Z" glyph-name="idieresis" horiz-adv-x="333" unicode="&#239;" /></font>
</defs>
</svg>
