<svg xmlns="http://www.w3.org/2000/svg" width="14" height="12" viewBox="0 0 14 12">
    <path fill="#A8A8A8" fill-rule="evenodd" d="M13.587 1.31c-.5.222-1.037.373-1.601.44A2.802 2.802 0 0 0 13.211.204a5.565 5.565 0 0 1-1.77.678A2.78 2.78 0 0 0 9.407 0a2.79 2.79 0 0 0-2.715 3.43A7.907 7.907 0 0 1 .947.512c-.24.413-.378.893-.378 1.405 0 .97.492 1.825 1.24 2.326a2.767 2.767 0 0 1-1.262-.35v.035c0 1.355.96 2.484 2.235 2.74a2.781 2.781 0 0 1-1.259.048 2.792 2.792 0 0 0 2.605 1.94A5.586 5.586 0 0 1 0 9.814a7.878 7.878 0 0 0 4.273 1.255c5.127 0 7.93-4.257 7.93-7.95a8.54 8.54 0 0 0-.008-.361 5.684 5.684 0 0 0 1.391-1.447"/>
</svg>
