<svg xmlns="http://www.w3.org/2000/svg" width="16" height="9" viewBox="0 0 16 9">
    <path fill="#A8A8A8" fill-rule="evenodd" d="M7.39 8.602h.903s.273-.03.412-.18c.129-.138.125-.398.125-.398s-.018-1.214.544-1.393c.554-.176 1.266 1.174 2.02 1.693.571.393 1.005.307 1.005.307l2.017-.029s1.055-.065.555-.897c-.041-.067-.292-.615-1.5-1.74-1.265-1.176-1.096-.986.428-3.021.928-1.24 1.299-1.997 1.183-2.321-.11-.31-.793-.227-.793-.227L12.018.41s-.169-.023-.294.051c-.122.074-.2.245-.2.245s-.36.96-.839 1.775C9.674 4.203 9.269 4.294 9.104 4.187c-.385-.25-.289-1.001-.289-1.535 0-1.669.253-2.364-.491-2.544-.247-.06-.429-.1-1.06-.106-.81-.008-1.497.002-1.885.193-.258.127-.458.41-.336.426.15.02.49.092.67.338.233.317.225 1.03.225 1.03s.133 1.964-.313 2.208c-.306.167-.726-.174-1.627-1.736-.462-.8-.811-1.685-.811-1.685S3.12.611 3 .523C2.854.415 2.65.38 2.65.38L.493.396S.168.405.05.546C-.057.672.041.93.041.93s1.69 3.963 3.603 5.96C5.399 8.723 7.39 8.602 7.39 8.602"/>
</svg>
